%TF.GenerationSoftware,KiCad,Pcbnew,(5.0.0)*%
%TF.CreationDate,2019-02-20T22:56:50-06:00*%
%TF.ProjectId,HVSignalAmplifier,48565369676E616C416D706C69666965,rev?*%
%TF.SameCoordinates,Original*%
%TF.FileFunction,Soldermask,Top*%
%TF.FilePolarity,Negative*%
%FSLAX46Y46*%
G04 Gerber Fmt 4.6, Leading zero omitted, Abs format (unit mm)*
G04 Created by KiCad (PCBNEW (5.0.0)) date 02/20/19 22:56:50*
%MOMM*%
%LPD*%
G01*
G04 APERTURE LIST*
%ADD10C,2.559000*%
%ADD11C,4.718000*%
%ADD12R,4.400000X2.900000*%
%ADD13R,2.900000X4.400000*%
%ADD14R,2.000000X2.000000*%
%ADD15C,2.000000*%
%ADD16C,0.100000*%
%ADD17C,3.800000*%
%ADD18R,1.400000X2.900000*%
%ADD19R,2.900000X1.400000*%
%ADD20R,1.700000X1.100000*%
%ADD21R,2.100000X2.100000*%
%ADD22O,2.100000X2.100000*%
G04 APERTURE END LIST*
D10*
X133756400Y-119380000D03*
X113436400Y-119380000D03*
X136296400Y-88900000D03*
X110896400Y-88900000D03*
X123596400Y-88900000D03*
D11*
X92913200Y-116535200D03*
X92913200Y-91135200D03*
D12*
X183390000Y-91440000D03*
X177290000Y-91440000D03*
D13*
X152400000Y-85498400D03*
X152400000Y-79398400D03*
D14*
X168910000Y-102870000D03*
D15*
X166410000Y-102870000D03*
X165100000Y-83780000D03*
D14*
X165100000Y-81280000D03*
D11*
X198882000Y-92354400D03*
X198882000Y-117754400D03*
D16*
G36*
X169233116Y-113674575D02*
X169325336Y-113688254D01*
X169415770Y-113710907D01*
X169503549Y-113742314D01*
X169587827Y-113782175D01*
X169667792Y-113830104D01*
X169742674Y-113885640D01*
X169811751Y-113948249D01*
X169874360Y-114017326D01*
X169929896Y-114092208D01*
X169977825Y-114172173D01*
X170017686Y-114256451D01*
X170049093Y-114344230D01*
X170071746Y-114434664D01*
X170085425Y-114526884D01*
X170090000Y-114620000D01*
X170090000Y-116520000D01*
X170085425Y-116613116D01*
X170071746Y-116705336D01*
X170049093Y-116795770D01*
X170017686Y-116883549D01*
X169977825Y-116967827D01*
X169929896Y-117047792D01*
X169874360Y-117122674D01*
X169811751Y-117191751D01*
X169742674Y-117254360D01*
X169667792Y-117309896D01*
X169587827Y-117357825D01*
X169503549Y-117397686D01*
X169415770Y-117429093D01*
X169325336Y-117451746D01*
X169233116Y-117465425D01*
X169140000Y-117470000D01*
X166140000Y-117470000D01*
X166046884Y-117465425D01*
X165954664Y-117451746D01*
X165864230Y-117429093D01*
X165776451Y-117397686D01*
X165692173Y-117357825D01*
X165612208Y-117309896D01*
X165537326Y-117254360D01*
X165468249Y-117191751D01*
X165405640Y-117122674D01*
X165350104Y-117047792D01*
X165302175Y-116967827D01*
X165262314Y-116883549D01*
X165230907Y-116795770D01*
X165208254Y-116705336D01*
X165194575Y-116613116D01*
X165190000Y-116520000D01*
X165190000Y-114620000D01*
X165194575Y-114526884D01*
X165208254Y-114434664D01*
X165230907Y-114344230D01*
X165262314Y-114256451D01*
X165302175Y-114172173D01*
X165350104Y-114092208D01*
X165405640Y-114017326D01*
X165468249Y-113948249D01*
X165537326Y-113885640D01*
X165612208Y-113830104D01*
X165692173Y-113782175D01*
X165776451Y-113742314D01*
X165864230Y-113710907D01*
X165954664Y-113688254D01*
X166046884Y-113674575D01*
X166140000Y-113670000D01*
X169140000Y-113670000D01*
X169233116Y-113674575D01*
X169233116Y-113674575D01*
G37*
D17*
X167640000Y-115570000D03*
D16*
G36*
X184733116Y-113674575D02*
X184825336Y-113688254D01*
X184915770Y-113710907D01*
X185003549Y-113742314D01*
X185087827Y-113782175D01*
X185167792Y-113830104D01*
X185242674Y-113885640D01*
X185311751Y-113948249D01*
X185374360Y-114017326D01*
X185429896Y-114092208D01*
X185477825Y-114172173D01*
X185517686Y-114256451D01*
X185549093Y-114344230D01*
X185571746Y-114434664D01*
X185585425Y-114526884D01*
X185590000Y-114620000D01*
X185590000Y-116520000D01*
X185585425Y-116613116D01*
X185571746Y-116705336D01*
X185549093Y-116795770D01*
X185517686Y-116883549D01*
X185477825Y-116967827D01*
X185429896Y-117047792D01*
X185374360Y-117122674D01*
X185311751Y-117191751D01*
X185242674Y-117254360D01*
X185167792Y-117309896D01*
X185087827Y-117357825D01*
X185003549Y-117397686D01*
X184915770Y-117429093D01*
X184825336Y-117451746D01*
X184733116Y-117465425D01*
X184640000Y-117470000D01*
X181640000Y-117470000D01*
X181546884Y-117465425D01*
X181454664Y-117451746D01*
X181364230Y-117429093D01*
X181276451Y-117397686D01*
X181192173Y-117357825D01*
X181112208Y-117309896D01*
X181037326Y-117254360D01*
X180968249Y-117191751D01*
X180905640Y-117122674D01*
X180850104Y-117047792D01*
X180802175Y-116967827D01*
X180762314Y-116883549D01*
X180730907Y-116795770D01*
X180708254Y-116705336D01*
X180694575Y-116613116D01*
X180690000Y-116520000D01*
X180690000Y-114620000D01*
X180694575Y-114526884D01*
X180708254Y-114434664D01*
X180730907Y-114344230D01*
X180762314Y-114256451D01*
X180802175Y-114172173D01*
X180850104Y-114092208D01*
X180905640Y-114017326D01*
X180968249Y-113948249D01*
X181037326Y-113885640D01*
X181112208Y-113830104D01*
X181192173Y-113782175D01*
X181276451Y-113742314D01*
X181364230Y-113710907D01*
X181454664Y-113688254D01*
X181546884Y-113674575D01*
X181640000Y-113670000D01*
X184640000Y-113670000D01*
X184733116Y-113674575D01*
X184733116Y-113674575D01*
G37*
D17*
X183140000Y-115570000D03*
D18*
X167550000Y-91440000D03*
X162650000Y-91440000D03*
D19*
X147955000Y-102780000D03*
X147955000Y-97880000D03*
D20*
X173355000Y-103505000D03*
X173355000Y-105405000D03*
X163195000Y-95255000D03*
X163195000Y-97155000D03*
D21*
X157480000Y-93980000D03*
D22*
X157480000Y-96520000D03*
X157480000Y-99060000D03*
X157480000Y-101600000D03*
X157480000Y-104140000D03*
X157480000Y-106680000D03*
X157480000Y-109220000D03*
X157480000Y-111760000D03*
X157480000Y-114300000D03*
X157480000Y-116840000D03*
D21*
X177800000Y-102235000D03*
D22*
X177800000Y-104775000D03*
X177800000Y-107315000D03*
M02*
