%TF.GenerationSoftware,KiCad,Pcbnew,(5.0.0)*%
%TF.CreationDate,2019-02-20T22:56:50-06:00*%
%TF.ProjectId,HVSignalAmplifier,48565369676E616C416D706C69666965,rev?*%
%TF.SameCoordinates,Original*%
%TF.FileFunction,Copper,L2,Bot,Signal*%
%TF.FilePolarity,Positive*%
%FSLAX46Y46*%
G04 Gerber Fmt 4.6, Leading zero omitted, Abs format (unit mm)*
G04 Created by KiCad (PCBNEW (5.0.0)) date 02/20/19 22:56:50*
%MOMM*%
%LPD*%
G01*
G04 APERTURE LIST*
%ADD10C,2.159000*%
%ADD11C,4.318000*%
%ADD12R,1.600000X1.600000*%
%ADD13C,1.600000*%
%ADD14R,1.700000X1.700000*%
%ADD15O,1.700000X1.700000*%
%ADD16C,0.800000*%
%ADD17C,0.254000*%
G04 APERTURE END LIST*
D10*
X133756400Y-119380000D03*
X113436400Y-119380000D03*
X136296400Y-88900000D03*
X110896400Y-88900000D03*
X123596400Y-88900000D03*
D11*
X92913200Y-116535200D03*
X92913200Y-91135200D03*
D12*
X168910000Y-102870000D03*
D13*
X166410000Y-102870000D03*
X165100000Y-83780000D03*
D12*
X165100000Y-81280000D03*
D11*
X198882000Y-92354400D03*
X198882000Y-117754400D03*
D14*
X157480000Y-93980000D03*
D15*
X157480000Y-96520000D03*
X157480000Y-99060000D03*
X157480000Y-101600000D03*
X157480000Y-104140000D03*
X157480000Y-106680000D03*
X157480000Y-109220000D03*
X157480000Y-111760000D03*
X157480000Y-114300000D03*
X157480000Y-116840000D03*
D14*
X177800000Y-102235000D03*
D15*
X177800000Y-104775000D03*
X177800000Y-107315000D03*
D16*
X163195000Y-97155000D03*
X152400000Y-86360000D03*
X152400000Y-85090000D03*
X184150000Y-91440000D03*
X182880000Y-91440000D03*
D17*
G36*
X201803000Y-130683000D02*
X90297000Y-130683000D01*
X90297000Y-120740471D01*
X112614745Y-120740471D01*
X112741836Y-120984181D01*
X113408599Y-121127868D01*
X114079596Y-121005457D01*
X114130964Y-120984181D01*
X114258055Y-120740471D01*
X113436400Y-119918815D01*
X112614745Y-120740471D01*
X90297000Y-120740471D01*
X90297000Y-119352199D01*
X111688532Y-119352199D01*
X111810943Y-120023196D01*
X111832219Y-120074564D01*
X112075929Y-120201655D01*
X112897585Y-119380000D01*
X113975215Y-119380000D01*
X114796871Y-120201655D01*
X115040581Y-120074564D01*
X115184268Y-119407801D01*
X115116981Y-119038965D01*
X132041900Y-119038965D01*
X132041900Y-119721035D01*
X132302917Y-120351186D01*
X132785214Y-120833483D01*
X133415365Y-121094500D01*
X134097435Y-121094500D01*
X134727586Y-120833483D01*
X135209883Y-120351186D01*
X135470900Y-119721035D01*
X135470900Y-119038965D01*
X135209883Y-118408814D01*
X134727586Y-117926517D01*
X134097435Y-117665500D01*
X133415365Y-117665500D01*
X132785214Y-117926517D01*
X132302917Y-118408814D01*
X132041900Y-119038965D01*
X115116981Y-119038965D01*
X115061857Y-118736804D01*
X115040581Y-118685436D01*
X114796871Y-118558345D01*
X113975215Y-119380000D01*
X112897585Y-119380000D01*
X112075929Y-118558345D01*
X111832219Y-118685436D01*
X111688532Y-119352199D01*
X90297000Y-119352199D01*
X90297000Y-117520208D01*
X90544561Y-118117874D01*
X91330526Y-118903839D01*
X92357439Y-119329200D01*
X93468961Y-119329200D01*
X94495874Y-118903839D01*
X95281839Y-118117874D01*
X95322574Y-118019529D01*
X112614745Y-118019529D01*
X113436400Y-118841185D01*
X114258055Y-118019529D01*
X114130964Y-117775819D01*
X113464201Y-117632132D01*
X112793204Y-117754543D01*
X112741836Y-117775819D01*
X112614745Y-118019529D01*
X95322574Y-118019529D01*
X95707200Y-117090961D01*
X95707200Y-115979439D01*
X95281839Y-114952526D01*
X94495874Y-114166561D01*
X93468961Y-113741200D01*
X92357439Y-113741200D01*
X91330526Y-114166561D01*
X90544561Y-114952526D01*
X90297000Y-115550192D01*
X90297000Y-96520000D01*
X155965908Y-96520000D01*
X156081161Y-97099418D01*
X156409375Y-97590625D01*
X156707761Y-97790000D01*
X156409375Y-97989375D01*
X156081161Y-98480582D01*
X155965908Y-99060000D01*
X156081161Y-99639418D01*
X156409375Y-100130625D01*
X156707761Y-100330000D01*
X156409375Y-100529375D01*
X156081161Y-101020582D01*
X155965908Y-101600000D01*
X156081161Y-102179418D01*
X156409375Y-102670625D01*
X156707761Y-102870000D01*
X156409375Y-103069375D01*
X156081161Y-103560582D01*
X155965908Y-104140000D01*
X156081161Y-104719418D01*
X156409375Y-105210625D01*
X156707761Y-105410000D01*
X156409375Y-105609375D01*
X156081161Y-106100582D01*
X155965908Y-106680000D01*
X156081161Y-107259418D01*
X156409375Y-107750625D01*
X156707761Y-107950000D01*
X156409375Y-108149375D01*
X156081161Y-108640582D01*
X155965908Y-109220000D01*
X156081161Y-109799418D01*
X156409375Y-110290625D01*
X156707761Y-110490000D01*
X156409375Y-110689375D01*
X156081161Y-111180582D01*
X155965908Y-111760000D01*
X156081161Y-112339418D01*
X156409375Y-112830625D01*
X156707761Y-113030000D01*
X156409375Y-113229375D01*
X156081161Y-113720582D01*
X155965908Y-114300000D01*
X156081161Y-114879418D01*
X156409375Y-115370625D01*
X156707761Y-115570000D01*
X156409375Y-115769375D01*
X156081161Y-116260582D01*
X155965908Y-116840000D01*
X156081161Y-117419418D01*
X156409375Y-117910625D01*
X156900582Y-118238839D01*
X157333744Y-118325000D01*
X157626256Y-118325000D01*
X158059418Y-118238839D01*
X158550625Y-117910625D01*
X158878839Y-117419418D01*
X158922754Y-117198639D01*
X196088000Y-117198639D01*
X196088000Y-118310161D01*
X196513361Y-119337074D01*
X197299326Y-120123039D01*
X198326239Y-120548400D01*
X199437761Y-120548400D01*
X200464674Y-120123039D01*
X201250639Y-119337074D01*
X201676000Y-118310161D01*
X201676000Y-117198639D01*
X201250639Y-116171726D01*
X200464674Y-115385761D01*
X199437761Y-114960400D01*
X198326239Y-114960400D01*
X197299326Y-115385761D01*
X196513361Y-116171726D01*
X196088000Y-117198639D01*
X158922754Y-117198639D01*
X158994092Y-116840000D01*
X158878839Y-116260582D01*
X158550625Y-115769375D01*
X158252239Y-115570000D01*
X158550625Y-115370625D01*
X158878839Y-114879418D01*
X158994092Y-114300000D01*
X158878839Y-113720582D01*
X158550625Y-113229375D01*
X158252239Y-113030000D01*
X158550625Y-112830625D01*
X158878839Y-112339418D01*
X158994092Y-111760000D01*
X158878839Y-111180582D01*
X158550625Y-110689375D01*
X158252239Y-110490000D01*
X158550625Y-110290625D01*
X158878839Y-109799418D01*
X158994092Y-109220000D01*
X158878839Y-108640582D01*
X158550625Y-108149375D01*
X158252239Y-107950000D01*
X158303366Y-107915838D01*
X176441980Y-107915838D01*
X176725191Y-108339741D01*
X177199157Y-108673049D01*
X177419000Y-108591572D01*
X177419000Y-107696000D01*
X178181000Y-107696000D01*
X178181000Y-108591572D01*
X178400843Y-108673049D01*
X178874809Y-108339741D01*
X179158020Y-107915838D01*
X179070346Y-107696000D01*
X178181000Y-107696000D01*
X177419000Y-107696000D01*
X176529654Y-107696000D01*
X176441980Y-107915838D01*
X158303366Y-107915838D01*
X158550625Y-107750625D01*
X158878839Y-107259418D01*
X158994092Y-106680000D01*
X158878839Y-106100582D01*
X158550625Y-105609375D01*
X158252239Y-105410000D01*
X158550625Y-105210625D01*
X158841700Y-104775000D01*
X176285908Y-104775000D01*
X176401161Y-105354418D01*
X176729375Y-105845625D01*
X177051446Y-106060826D01*
X176725191Y-106290259D01*
X176441980Y-106714162D01*
X176529654Y-106934000D01*
X177419000Y-106934000D01*
X177419000Y-106914000D01*
X178181000Y-106914000D01*
X178181000Y-106934000D01*
X179070346Y-106934000D01*
X179158020Y-106714162D01*
X178874809Y-106290259D01*
X178548554Y-106060826D01*
X178870625Y-105845625D01*
X179198839Y-105354418D01*
X179314092Y-104775000D01*
X179198839Y-104195582D01*
X178870625Y-103704375D01*
X178852381Y-103692184D01*
X178897765Y-103683157D01*
X179107809Y-103542809D01*
X179248157Y-103332765D01*
X179297440Y-103085000D01*
X179297440Y-101385000D01*
X179248157Y-101137235D01*
X179107809Y-100927191D01*
X178897765Y-100786843D01*
X178650000Y-100737560D01*
X176950000Y-100737560D01*
X176702235Y-100786843D01*
X176492191Y-100927191D01*
X176351843Y-101137235D01*
X176302560Y-101385000D01*
X176302560Y-103085000D01*
X176351843Y-103332765D01*
X176492191Y-103542809D01*
X176702235Y-103683157D01*
X176747619Y-103692184D01*
X176729375Y-103704375D01*
X176401161Y-104195582D01*
X176285908Y-104775000D01*
X158841700Y-104775000D01*
X158878839Y-104719418D01*
X158994092Y-104140000D01*
X158878839Y-103560582D01*
X158550625Y-103069375D01*
X158252239Y-102870000D01*
X158550625Y-102670625D01*
X158608131Y-102584561D01*
X164975000Y-102584561D01*
X164975000Y-103155439D01*
X165193466Y-103682862D01*
X165597138Y-104086534D01*
X166124561Y-104305000D01*
X166695439Y-104305000D01*
X167222862Y-104086534D01*
X167486155Y-103823241D01*
X167571673Y-104029699D01*
X167750302Y-104208327D01*
X167983691Y-104305000D01*
X168370250Y-104305000D01*
X168529000Y-104146250D01*
X168529000Y-103251000D01*
X169291000Y-103251000D01*
X169291000Y-104146250D01*
X169449750Y-104305000D01*
X169836309Y-104305000D01*
X170069698Y-104208327D01*
X170248327Y-104029699D01*
X170345000Y-103796310D01*
X170345000Y-103409750D01*
X170186250Y-103251000D01*
X169291000Y-103251000D01*
X168529000Y-103251000D01*
X168509000Y-103251000D01*
X168509000Y-102489000D01*
X168529000Y-102489000D01*
X168529000Y-101593750D01*
X169291000Y-101593750D01*
X169291000Y-102489000D01*
X170186250Y-102489000D01*
X170345000Y-102330250D01*
X170345000Y-101943690D01*
X170248327Y-101710301D01*
X170069698Y-101531673D01*
X169836309Y-101435000D01*
X169449750Y-101435000D01*
X169291000Y-101593750D01*
X168529000Y-101593750D01*
X168370250Y-101435000D01*
X167983691Y-101435000D01*
X167750302Y-101531673D01*
X167571673Y-101710301D01*
X167486155Y-101916759D01*
X167222862Y-101653466D01*
X166695439Y-101435000D01*
X166124561Y-101435000D01*
X165597138Y-101653466D01*
X165193466Y-102057138D01*
X164975000Y-102584561D01*
X158608131Y-102584561D01*
X158878839Y-102179418D01*
X158994092Y-101600000D01*
X158878839Y-101020582D01*
X158550625Y-100529375D01*
X158252239Y-100330000D01*
X158550625Y-100130625D01*
X158878839Y-99639418D01*
X158994092Y-99060000D01*
X158878839Y-98480582D01*
X158550625Y-97989375D01*
X158252239Y-97790000D01*
X158550625Y-97590625D01*
X158878839Y-97099418D01*
X158994092Y-96520000D01*
X158878839Y-95940582D01*
X158550625Y-95449375D01*
X158532381Y-95437184D01*
X158577765Y-95428157D01*
X158787809Y-95287809D01*
X158928157Y-95077765D01*
X158977440Y-94830000D01*
X158977440Y-94506741D01*
X197268474Y-94506741D01*
X197530832Y-94862318D01*
X198593423Y-95188484D01*
X199699946Y-95083186D01*
X200233168Y-94862318D01*
X200495526Y-94506741D01*
X198882000Y-92893215D01*
X197268474Y-94506741D01*
X158977440Y-94506741D01*
X158977440Y-93130000D01*
X158928157Y-92882235D01*
X158787809Y-92672191D01*
X158577765Y-92531843D01*
X158330000Y-92482560D01*
X156630000Y-92482560D01*
X156382235Y-92531843D01*
X156172191Y-92672191D01*
X156031843Y-92882235D01*
X155982560Y-93130000D01*
X155982560Y-94830000D01*
X156031843Y-95077765D01*
X156172191Y-95287809D01*
X156382235Y-95428157D01*
X156427619Y-95437184D01*
X156409375Y-95449375D01*
X156081161Y-95940582D01*
X155965908Y-96520000D01*
X90297000Y-96520000D01*
X90297000Y-93287541D01*
X91299674Y-93287541D01*
X91562032Y-93643118D01*
X92624623Y-93969284D01*
X93731146Y-93863986D01*
X94264368Y-93643118D01*
X94526726Y-93287541D01*
X92913200Y-91674015D01*
X91299674Y-93287541D01*
X90297000Y-93287541D01*
X90297000Y-92224952D01*
X90405282Y-92486368D01*
X90760859Y-92748726D01*
X92374385Y-91135200D01*
X93452015Y-91135200D01*
X95065541Y-92748726D01*
X95421118Y-92486368D01*
X95550205Y-92065823D01*
X196047916Y-92065823D01*
X196153214Y-93172346D01*
X196374082Y-93705568D01*
X196729659Y-93967926D01*
X198343185Y-92354400D01*
X199420815Y-92354400D01*
X201034341Y-93967926D01*
X201389918Y-93705568D01*
X201716084Y-92642977D01*
X201610786Y-91536454D01*
X201389918Y-91003232D01*
X201034341Y-90740874D01*
X199420815Y-92354400D01*
X198343185Y-92354400D01*
X196729659Y-90740874D01*
X196374082Y-91003232D01*
X196047916Y-92065823D01*
X95550205Y-92065823D01*
X95747284Y-91423777D01*
X95641986Y-90317254D01*
X95421118Y-89784032D01*
X95065541Y-89521674D01*
X93452015Y-91135200D01*
X92374385Y-91135200D01*
X90760859Y-89521674D01*
X90405282Y-89784032D01*
X90297000Y-90136796D01*
X90297000Y-88982859D01*
X91299674Y-88982859D01*
X92913200Y-90596385D01*
X94526726Y-88982859D01*
X94264368Y-88627282D01*
X94041804Y-88558965D01*
X109181900Y-88558965D01*
X109181900Y-89241035D01*
X109442917Y-89871186D01*
X109925214Y-90353483D01*
X110555365Y-90614500D01*
X111237435Y-90614500D01*
X111867586Y-90353483D01*
X111960598Y-90260471D01*
X122774745Y-90260471D01*
X122901836Y-90504181D01*
X123568599Y-90647868D01*
X124239596Y-90525457D01*
X124290964Y-90504181D01*
X124418055Y-90260471D01*
X123596400Y-89438815D01*
X122774745Y-90260471D01*
X111960598Y-90260471D01*
X112349883Y-89871186D01*
X112610900Y-89241035D01*
X112610900Y-88872199D01*
X121848532Y-88872199D01*
X121970943Y-89543196D01*
X121992219Y-89594564D01*
X122235929Y-89721655D01*
X123057585Y-88900000D01*
X124135215Y-88900000D01*
X124956871Y-89721655D01*
X125200581Y-89594564D01*
X125344268Y-88927801D01*
X125276981Y-88558965D01*
X134581900Y-88558965D01*
X134581900Y-89241035D01*
X134842917Y-89871186D01*
X135325214Y-90353483D01*
X135955365Y-90614500D01*
X136637435Y-90614500D01*
X137267586Y-90353483D01*
X137419010Y-90202059D01*
X197268474Y-90202059D01*
X198882000Y-91815585D01*
X200495526Y-90202059D01*
X200233168Y-89846482D01*
X199170577Y-89520316D01*
X198064054Y-89625614D01*
X197530832Y-89846482D01*
X197268474Y-90202059D01*
X137419010Y-90202059D01*
X137749883Y-89871186D01*
X138010900Y-89241035D01*
X138010900Y-88558965D01*
X137749883Y-87928814D01*
X137267586Y-87446517D01*
X136637435Y-87185500D01*
X135955365Y-87185500D01*
X135325214Y-87446517D01*
X134842917Y-87928814D01*
X134581900Y-88558965D01*
X125276981Y-88558965D01*
X125221857Y-88256804D01*
X125200581Y-88205436D01*
X124956871Y-88078345D01*
X124135215Y-88900000D01*
X123057585Y-88900000D01*
X122235929Y-88078345D01*
X121992219Y-88205436D01*
X121848532Y-88872199D01*
X112610900Y-88872199D01*
X112610900Y-88558965D01*
X112349883Y-87928814D01*
X111960598Y-87539529D01*
X122774745Y-87539529D01*
X123596400Y-88361185D01*
X124418055Y-87539529D01*
X124290964Y-87295819D01*
X123624201Y-87152132D01*
X122953204Y-87274543D01*
X122901836Y-87295819D01*
X122774745Y-87539529D01*
X111960598Y-87539529D01*
X111867586Y-87446517D01*
X111237435Y-87185500D01*
X110555365Y-87185500D01*
X109925214Y-87446517D01*
X109442917Y-87928814D01*
X109181900Y-88558965D01*
X94041804Y-88558965D01*
X93201777Y-88301116D01*
X92095254Y-88406414D01*
X91562032Y-88627282D01*
X91299674Y-88982859D01*
X90297000Y-88982859D01*
X90297000Y-84931508D01*
X164487308Y-84931508D01*
X164577909Y-85146792D01*
X165140700Y-85242547D01*
X165622091Y-85146792D01*
X165712692Y-84931508D01*
X165100000Y-84318815D01*
X164487308Y-84931508D01*
X90297000Y-84931508D01*
X90297000Y-83820700D01*
X163637453Y-83820700D01*
X163733208Y-84302091D01*
X163948492Y-84392692D01*
X164561185Y-83780000D01*
X165638815Y-83780000D01*
X166251508Y-84392692D01*
X166466792Y-84302091D01*
X166562547Y-83739300D01*
X166466792Y-83257909D01*
X166251508Y-83167308D01*
X165638815Y-83780000D01*
X164561185Y-83780000D01*
X163948492Y-83167308D01*
X163733208Y-83257909D01*
X163637453Y-83820700D01*
X90297000Y-83820700D01*
X90297000Y-80480000D01*
X163652560Y-80480000D01*
X163652560Y-82080000D01*
X163701843Y-82327765D01*
X163842191Y-82537809D01*
X164052235Y-82678157D01*
X164300000Y-82727440D01*
X164586256Y-82727440D01*
X165100000Y-83241185D01*
X165613744Y-82727440D01*
X165900000Y-82727440D01*
X166147765Y-82678157D01*
X166357809Y-82537809D01*
X166498157Y-82327765D01*
X166547440Y-82080000D01*
X166547440Y-80480000D01*
X166498157Y-80232235D01*
X166357809Y-80022191D01*
X166147765Y-79881843D01*
X165900000Y-79832560D01*
X164300000Y-79832560D01*
X164052235Y-79881843D01*
X163842191Y-80022191D01*
X163701843Y-80232235D01*
X163652560Y-80480000D01*
X90297000Y-80480000D01*
X90297000Y-77597000D01*
X201803000Y-77597000D01*
X201803000Y-130683000D01*
X201803000Y-130683000D01*
G37*
X201803000Y-130683000D02*
X90297000Y-130683000D01*
X90297000Y-120740471D01*
X112614745Y-120740471D01*
X112741836Y-120984181D01*
X113408599Y-121127868D01*
X114079596Y-121005457D01*
X114130964Y-120984181D01*
X114258055Y-120740471D01*
X113436400Y-119918815D01*
X112614745Y-120740471D01*
X90297000Y-120740471D01*
X90297000Y-119352199D01*
X111688532Y-119352199D01*
X111810943Y-120023196D01*
X111832219Y-120074564D01*
X112075929Y-120201655D01*
X112897585Y-119380000D01*
X113975215Y-119380000D01*
X114796871Y-120201655D01*
X115040581Y-120074564D01*
X115184268Y-119407801D01*
X115116981Y-119038965D01*
X132041900Y-119038965D01*
X132041900Y-119721035D01*
X132302917Y-120351186D01*
X132785214Y-120833483D01*
X133415365Y-121094500D01*
X134097435Y-121094500D01*
X134727586Y-120833483D01*
X135209883Y-120351186D01*
X135470900Y-119721035D01*
X135470900Y-119038965D01*
X135209883Y-118408814D01*
X134727586Y-117926517D01*
X134097435Y-117665500D01*
X133415365Y-117665500D01*
X132785214Y-117926517D01*
X132302917Y-118408814D01*
X132041900Y-119038965D01*
X115116981Y-119038965D01*
X115061857Y-118736804D01*
X115040581Y-118685436D01*
X114796871Y-118558345D01*
X113975215Y-119380000D01*
X112897585Y-119380000D01*
X112075929Y-118558345D01*
X111832219Y-118685436D01*
X111688532Y-119352199D01*
X90297000Y-119352199D01*
X90297000Y-117520208D01*
X90544561Y-118117874D01*
X91330526Y-118903839D01*
X92357439Y-119329200D01*
X93468961Y-119329200D01*
X94495874Y-118903839D01*
X95281839Y-118117874D01*
X95322574Y-118019529D01*
X112614745Y-118019529D01*
X113436400Y-118841185D01*
X114258055Y-118019529D01*
X114130964Y-117775819D01*
X113464201Y-117632132D01*
X112793204Y-117754543D01*
X112741836Y-117775819D01*
X112614745Y-118019529D01*
X95322574Y-118019529D01*
X95707200Y-117090961D01*
X95707200Y-115979439D01*
X95281839Y-114952526D01*
X94495874Y-114166561D01*
X93468961Y-113741200D01*
X92357439Y-113741200D01*
X91330526Y-114166561D01*
X90544561Y-114952526D01*
X90297000Y-115550192D01*
X90297000Y-96520000D01*
X155965908Y-96520000D01*
X156081161Y-97099418D01*
X156409375Y-97590625D01*
X156707761Y-97790000D01*
X156409375Y-97989375D01*
X156081161Y-98480582D01*
X155965908Y-99060000D01*
X156081161Y-99639418D01*
X156409375Y-100130625D01*
X156707761Y-100330000D01*
X156409375Y-100529375D01*
X156081161Y-101020582D01*
X155965908Y-101600000D01*
X156081161Y-102179418D01*
X156409375Y-102670625D01*
X156707761Y-102870000D01*
X156409375Y-103069375D01*
X156081161Y-103560582D01*
X155965908Y-104140000D01*
X156081161Y-104719418D01*
X156409375Y-105210625D01*
X156707761Y-105410000D01*
X156409375Y-105609375D01*
X156081161Y-106100582D01*
X155965908Y-106680000D01*
X156081161Y-107259418D01*
X156409375Y-107750625D01*
X156707761Y-107950000D01*
X156409375Y-108149375D01*
X156081161Y-108640582D01*
X155965908Y-109220000D01*
X156081161Y-109799418D01*
X156409375Y-110290625D01*
X156707761Y-110490000D01*
X156409375Y-110689375D01*
X156081161Y-111180582D01*
X155965908Y-111760000D01*
X156081161Y-112339418D01*
X156409375Y-112830625D01*
X156707761Y-113030000D01*
X156409375Y-113229375D01*
X156081161Y-113720582D01*
X155965908Y-114300000D01*
X156081161Y-114879418D01*
X156409375Y-115370625D01*
X156707761Y-115570000D01*
X156409375Y-115769375D01*
X156081161Y-116260582D01*
X155965908Y-116840000D01*
X156081161Y-117419418D01*
X156409375Y-117910625D01*
X156900582Y-118238839D01*
X157333744Y-118325000D01*
X157626256Y-118325000D01*
X158059418Y-118238839D01*
X158550625Y-117910625D01*
X158878839Y-117419418D01*
X158922754Y-117198639D01*
X196088000Y-117198639D01*
X196088000Y-118310161D01*
X196513361Y-119337074D01*
X197299326Y-120123039D01*
X198326239Y-120548400D01*
X199437761Y-120548400D01*
X200464674Y-120123039D01*
X201250639Y-119337074D01*
X201676000Y-118310161D01*
X201676000Y-117198639D01*
X201250639Y-116171726D01*
X200464674Y-115385761D01*
X199437761Y-114960400D01*
X198326239Y-114960400D01*
X197299326Y-115385761D01*
X196513361Y-116171726D01*
X196088000Y-117198639D01*
X158922754Y-117198639D01*
X158994092Y-116840000D01*
X158878839Y-116260582D01*
X158550625Y-115769375D01*
X158252239Y-115570000D01*
X158550625Y-115370625D01*
X158878839Y-114879418D01*
X158994092Y-114300000D01*
X158878839Y-113720582D01*
X158550625Y-113229375D01*
X158252239Y-113030000D01*
X158550625Y-112830625D01*
X158878839Y-112339418D01*
X158994092Y-111760000D01*
X158878839Y-111180582D01*
X158550625Y-110689375D01*
X158252239Y-110490000D01*
X158550625Y-110290625D01*
X158878839Y-109799418D01*
X158994092Y-109220000D01*
X158878839Y-108640582D01*
X158550625Y-108149375D01*
X158252239Y-107950000D01*
X158303366Y-107915838D01*
X176441980Y-107915838D01*
X176725191Y-108339741D01*
X177199157Y-108673049D01*
X177419000Y-108591572D01*
X177419000Y-107696000D01*
X178181000Y-107696000D01*
X178181000Y-108591572D01*
X178400843Y-108673049D01*
X178874809Y-108339741D01*
X179158020Y-107915838D01*
X179070346Y-107696000D01*
X178181000Y-107696000D01*
X177419000Y-107696000D01*
X176529654Y-107696000D01*
X176441980Y-107915838D01*
X158303366Y-107915838D01*
X158550625Y-107750625D01*
X158878839Y-107259418D01*
X158994092Y-106680000D01*
X158878839Y-106100582D01*
X158550625Y-105609375D01*
X158252239Y-105410000D01*
X158550625Y-105210625D01*
X158841700Y-104775000D01*
X176285908Y-104775000D01*
X176401161Y-105354418D01*
X176729375Y-105845625D01*
X177051446Y-106060826D01*
X176725191Y-106290259D01*
X176441980Y-106714162D01*
X176529654Y-106934000D01*
X177419000Y-106934000D01*
X177419000Y-106914000D01*
X178181000Y-106914000D01*
X178181000Y-106934000D01*
X179070346Y-106934000D01*
X179158020Y-106714162D01*
X178874809Y-106290259D01*
X178548554Y-106060826D01*
X178870625Y-105845625D01*
X179198839Y-105354418D01*
X179314092Y-104775000D01*
X179198839Y-104195582D01*
X178870625Y-103704375D01*
X178852381Y-103692184D01*
X178897765Y-103683157D01*
X179107809Y-103542809D01*
X179248157Y-103332765D01*
X179297440Y-103085000D01*
X179297440Y-101385000D01*
X179248157Y-101137235D01*
X179107809Y-100927191D01*
X178897765Y-100786843D01*
X178650000Y-100737560D01*
X176950000Y-100737560D01*
X176702235Y-100786843D01*
X176492191Y-100927191D01*
X176351843Y-101137235D01*
X176302560Y-101385000D01*
X176302560Y-103085000D01*
X176351843Y-103332765D01*
X176492191Y-103542809D01*
X176702235Y-103683157D01*
X176747619Y-103692184D01*
X176729375Y-103704375D01*
X176401161Y-104195582D01*
X176285908Y-104775000D01*
X158841700Y-104775000D01*
X158878839Y-104719418D01*
X158994092Y-104140000D01*
X158878839Y-103560582D01*
X158550625Y-103069375D01*
X158252239Y-102870000D01*
X158550625Y-102670625D01*
X158608131Y-102584561D01*
X164975000Y-102584561D01*
X164975000Y-103155439D01*
X165193466Y-103682862D01*
X165597138Y-104086534D01*
X166124561Y-104305000D01*
X166695439Y-104305000D01*
X167222862Y-104086534D01*
X167486155Y-103823241D01*
X167571673Y-104029699D01*
X167750302Y-104208327D01*
X167983691Y-104305000D01*
X168370250Y-104305000D01*
X168529000Y-104146250D01*
X168529000Y-103251000D01*
X169291000Y-103251000D01*
X169291000Y-104146250D01*
X169449750Y-104305000D01*
X169836309Y-104305000D01*
X170069698Y-104208327D01*
X170248327Y-104029699D01*
X170345000Y-103796310D01*
X170345000Y-103409750D01*
X170186250Y-103251000D01*
X169291000Y-103251000D01*
X168529000Y-103251000D01*
X168509000Y-103251000D01*
X168509000Y-102489000D01*
X168529000Y-102489000D01*
X168529000Y-101593750D01*
X169291000Y-101593750D01*
X169291000Y-102489000D01*
X170186250Y-102489000D01*
X170345000Y-102330250D01*
X170345000Y-101943690D01*
X170248327Y-101710301D01*
X170069698Y-101531673D01*
X169836309Y-101435000D01*
X169449750Y-101435000D01*
X169291000Y-101593750D01*
X168529000Y-101593750D01*
X168370250Y-101435000D01*
X167983691Y-101435000D01*
X167750302Y-101531673D01*
X167571673Y-101710301D01*
X167486155Y-101916759D01*
X167222862Y-101653466D01*
X166695439Y-101435000D01*
X166124561Y-101435000D01*
X165597138Y-101653466D01*
X165193466Y-102057138D01*
X164975000Y-102584561D01*
X158608131Y-102584561D01*
X158878839Y-102179418D01*
X158994092Y-101600000D01*
X158878839Y-101020582D01*
X158550625Y-100529375D01*
X158252239Y-100330000D01*
X158550625Y-100130625D01*
X158878839Y-99639418D01*
X158994092Y-99060000D01*
X158878839Y-98480582D01*
X158550625Y-97989375D01*
X158252239Y-97790000D01*
X158550625Y-97590625D01*
X158878839Y-97099418D01*
X158994092Y-96520000D01*
X158878839Y-95940582D01*
X158550625Y-95449375D01*
X158532381Y-95437184D01*
X158577765Y-95428157D01*
X158787809Y-95287809D01*
X158928157Y-95077765D01*
X158977440Y-94830000D01*
X158977440Y-94506741D01*
X197268474Y-94506741D01*
X197530832Y-94862318D01*
X198593423Y-95188484D01*
X199699946Y-95083186D01*
X200233168Y-94862318D01*
X200495526Y-94506741D01*
X198882000Y-92893215D01*
X197268474Y-94506741D01*
X158977440Y-94506741D01*
X158977440Y-93130000D01*
X158928157Y-92882235D01*
X158787809Y-92672191D01*
X158577765Y-92531843D01*
X158330000Y-92482560D01*
X156630000Y-92482560D01*
X156382235Y-92531843D01*
X156172191Y-92672191D01*
X156031843Y-92882235D01*
X155982560Y-93130000D01*
X155982560Y-94830000D01*
X156031843Y-95077765D01*
X156172191Y-95287809D01*
X156382235Y-95428157D01*
X156427619Y-95437184D01*
X156409375Y-95449375D01*
X156081161Y-95940582D01*
X155965908Y-96520000D01*
X90297000Y-96520000D01*
X90297000Y-93287541D01*
X91299674Y-93287541D01*
X91562032Y-93643118D01*
X92624623Y-93969284D01*
X93731146Y-93863986D01*
X94264368Y-93643118D01*
X94526726Y-93287541D01*
X92913200Y-91674015D01*
X91299674Y-93287541D01*
X90297000Y-93287541D01*
X90297000Y-92224952D01*
X90405282Y-92486368D01*
X90760859Y-92748726D01*
X92374385Y-91135200D01*
X93452015Y-91135200D01*
X95065541Y-92748726D01*
X95421118Y-92486368D01*
X95550205Y-92065823D01*
X196047916Y-92065823D01*
X196153214Y-93172346D01*
X196374082Y-93705568D01*
X196729659Y-93967926D01*
X198343185Y-92354400D01*
X199420815Y-92354400D01*
X201034341Y-93967926D01*
X201389918Y-93705568D01*
X201716084Y-92642977D01*
X201610786Y-91536454D01*
X201389918Y-91003232D01*
X201034341Y-90740874D01*
X199420815Y-92354400D01*
X198343185Y-92354400D01*
X196729659Y-90740874D01*
X196374082Y-91003232D01*
X196047916Y-92065823D01*
X95550205Y-92065823D01*
X95747284Y-91423777D01*
X95641986Y-90317254D01*
X95421118Y-89784032D01*
X95065541Y-89521674D01*
X93452015Y-91135200D01*
X92374385Y-91135200D01*
X90760859Y-89521674D01*
X90405282Y-89784032D01*
X90297000Y-90136796D01*
X90297000Y-88982859D01*
X91299674Y-88982859D01*
X92913200Y-90596385D01*
X94526726Y-88982859D01*
X94264368Y-88627282D01*
X94041804Y-88558965D01*
X109181900Y-88558965D01*
X109181900Y-89241035D01*
X109442917Y-89871186D01*
X109925214Y-90353483D01*
X110555365Y-90614500D01*
X111237435Y-90614500D01*
X111867586Y-90353483D01*
X111960598Y-90260471D01*
X122774745Y-90260471D01*
X122901836Y-90504181D01*
X123568599Y-90647868D01*
X124239596Y-90525457D01*
X124290964Y-90504181D01*
X124418055Y-90260471D01*
X123596400Y-89438815D01*
X122774745Y-90260471D01*
X111960598Y-90260471D01*
X112349883Y-89871186D01*
X112610900Y-89241035D01*
X112610900Y-88872199D01*
X121848532Y-88872199D01*
X121970943Y-89543196D01*
X121992219Y-89594564D01*
X122235929Y-89721655D01*
X123057585Y-88900000D01*
X124135215Y-88900000D01*
X124956871Y-89721655D01*
X125200581Y-89594564D01*
X125344268Y-88927801D01*
X125276981Y-88558965D01*
X134581900Y-88558965D01*
X134581900Y-89241035D01*
X134842917Y-89871186D01*
X135325214Y-90353483D01*
X135955365Y-90614500D01*
X136637435Y-90614500D01*
X137267586Y-90353483D01*
X137419010Y-90202059D01*
X197268474Y-90202059D01*
X198882000Y-91815585D01*
X200495526Y-90202059D01*
X200233168Y-89846482D01*
X199170577Y-89520316D01*
X198064054Y-89625614D01*
X197530832Y-89846482D01*
X197268474Y-90202059D01*
X137419010Y-90202059D01*
X137749883Y-89871186D01*
X138010900Y-89241035D01*
X138010900Y-88558965D01*
X137749883Y-87928814D01*
X137267586Y-87446517D01*
X136637435Y-87185500D01*
X135955365Y-87185500D01*
X135325214Y-87446517D01*
X134842917Y-87928814D01*
X134581900Y-88558965D01*
X125276981Y-88558965D01*
X125221857Y-88256804D01*
X125200581Y-88205436D01*
X124956871Y-88078345D01*
X124135215Y-88900000D01*
X123057585Y-88900000D01*
X122235929Y-88078345D01*
X121992219Y-88205436D01*
X121848532Y-88872199D01*
X112610900Y-88872199D01*
X112610900Y-88558965D01*
X112349883Y-87928814D01*
X111960598Y-87539529D01*
X122774745Y-87539529D01*
X123596400Y-88361185D01*
X124418055Y-87539529D01*
X124290964Y-87295819D01*
X123624201Y-87152132D01*
X122953204Y-87274543D01*
X122901836Y-87295819D01*
X122774745Y-87539529D01*
X111960598Y-87539529D01*
X111867586Y-87446517D01*
X111237435Y-87185500D01*
X110555365Y-87185500D01*
X109925214Y-87446517D01*
X109442917Y-87928814D01*
X109181900Y-88558965D01*
X94041804Y-88558965D01*
X93201777Y-88301116D01*
X92095254Y-88406414D01*
X91562032Y-88627282D01*
X91299674Y-88982859D01*
X90297000Y-88982859D01*
X90297000Y-84931508D01*
X164487308Y-84931508D01*
X164577909Y-85146792D01*
X165140700Y-85242547D01*
X165622091Y-85146792D01*
X165712692Y-84931508D01*
X165100000Y-84318815D01*
X164487308Y-84931508D01*
X90297000Y-84931508D01*
X90297000Y-83820700D01*
X163637453Y-83820700D01*
X163733208Y-84302091D01*
X163948492Y-84392692D01*
X164561185Y-83780000D01*
X165638815Y-83780000D01*
X166251508Y-84392692D01*
X166466792Y-84302091D01*
X166562547Y-83739300D01*
X166466792Y-83257909D01*
X166251508Y-83167308D01*
X165638815Y-83780000D01*
X164561185Y-83780000D01*
X163948492Y-83167308D01*
X163733208Y-83257909D01*
X163637453Y-83820700D01*
X90297000Y-83820700D01*
X90297000Y-80480000D01*
X163652560Y-80480000D01*
X163652560Y-82080000D01*
X163701843Y-82327765D01*
X163842191Y-82537809D01*
X164052235Y-82678157D01*
X164300000Y-82727440D01*
X164586256Y-82727440D01*
X165100000Y-83241185D01*
X165613744Y-82727440D01*
X165900000Y-82727440D01*
X166147765Y-82678157D01*
X166357809Y-82537809D01*
X166498157Y-82327765D01*
X166547440Y-82080000D01*
X166547440Y-80480000D01*
X166498157Y-80232235D01*
X166357809Y-80022191D01*
X166147765Y-79881843D01*
X165900000Y-79832560D01*
X164300000Y-79832560D01*
X164052235Y-79881843D01*
X163842191Y-80022191D01*
X163701843Y-80232235D01*
X163652560Y-80480000D01*
X90297000Y-80480000D01*
X90297000Y-77597000D01*
X201803000Y-77597000D01*
X201803000Y-130683000D01*
M02*
