%TF.GenerationSoftware,KiCad,Pcbnew,(5.0.0)*%
%TF.CreationDate,2019-02-20T22:56:50-06:00*%
%TF.ProjectId,HVSignalAmplifier,48565369676E616C416D706C69666965,rev?*%
%TF.SameCoordinates,Original*%
%TF.FileFunction,Copper,L1,Top,Signal*%
%TF.FilePolarity,Positive*%
%FSLAX46Y46*%
G04 Gerber Fmt 4.6, Leading zero omitted, Abs format (unit mm)*
G04 Created by KiCad (PCBNEW (5.0.0)) date 02/20/19 22:56:50*
%MOMM*%
%LPD*%
G01*
G04 APERTURE LIST*
%ADD10C,2.159000*%
%ADD11C,4.318000*%
%ADD12R,4.000000X2.500000*%
%ADD13R,2.500000X4.000000*%
%ADD14R,1.600000X1.600000*%
%ADD15C,1.600000*%
%ADD16C,0.100000*%
%ADD17C,3.400000*%
%ADD18R,1.000000X2.500000*%
%ADD19R,2.500000X1.000000*%
%ADD20R,1.300000X0.700000*%
%ADD21R,1.700000X1.700000*%
%ADD22O,1.700000X1.700000*%
%ADD23C,0.800000*%
%ADD24C,1.000000*%
G04 APERTURE END LIST*
D10*
X133756400Y-119380000D03*
X113436400Y-119380000D03*
X136296400Y-88900000D03*
X110896400Y-88900000D03*
X123596400Y-88900000D03*
D11*
X92913200Y-116535200D03*
X92913200Y-91135200D03*
D12*
X183390000Y-91440000D03*
X177290000Y-91440000D03*
D13*
X152400000Y-85498400D03*
X152400000Y-79398400D03*
D14*
X168910000Y-102870000D03*
D15*
X166410000Y-102870000D03*
X165100000Y-83780000D03*
D14*
X165100000Y-81280000D03*
D11*
X198882000Y-92354400D03*
X198882000Y-117754400D03*
D16*
G36*
X169123315Y-113874093D02*
X169205827Y-113886333D01*
X169286742Y-113906601D01*
X169365281Y-113934702D01*
X169440687Y-113970367D01*
X169512235Y-114013251D01*
X169579234Y-114062941D01*
X169641041Y-114118959D01*
X169697059Y-114180766D01*
X169746749Y-114247765D01*
X169789633Y-114319313D01*
X169825298Y-114394719D01*
X169853399Y-114473258D01*
X169873667Y-114554173D01*
X169885907Y-114636685D01*
X169890000Y-114720000D01*
X169890000Y-116420000D01*
X169885907Y-116503315D01*
X169873667Y-116585827D01*
X169853399Y-116666742D01*
X169825298Y-116745281D01*
X169789633Y-116820687D01*
X169746749Y-116892235D01*
X169697059Y-116959234D01*
X169641041Y-117021041D01*
X169579234Y-117077059D01*
X169512235Y-117126749D01*
X169440687Y-117169633D01*
X169365281Y-117205298D01*
X169286742Y-117233399D01*
X169205827Y-117253667D01*
X169123315Y-117265907D01*
X169040000Y-117270000D01*
X166240000Y-117270000D01*
X166156685Y-117265907D01*
X166074173Y-117253667D01*
X165993258Y-117233399D01*
X165914719Y-117205298D01*
X165839313Y-117169633D01*
X165767765Y-117126749D01*
X165700766Y-117077059D01*
X165638959Y-117021041D01*
X165582941Y-116959234D01*
X165533251Y-116892235D01*
X165490367Y-116820687D01*
X165454702Y-116745281D01*
X165426601Y-116666742D01*
X165406333Y-116585827D01*
X165394093Y-116503315D01*
X165390000Y-116420000D01*
X165390000Y-114720000D01*
X165394093Y-114636685D01*
X165406333Y-114554173D01*
X165426601Y-114473258D01*
X165454702Y-114394719D01*
X165490367Y-114319313D01*
X165533251Y-114247765D01*
X165582941Y-114180766D01*
X165638959Y-114118959D01*
X165700766Y-114062941D01*
X165767765Y-114013251D01*
X165839313Y-113970367D01*
X165914719Y-113934702D01*
X165993258Y-113906601D01*
X166074173Y-113886333D01*
X166156685Y-113874093D01*
X166240000Y-113870000D01*
X169040000Y-113870000D01*
X169123315Y-113874093D01*
X169123315Y-113874093D01*
G37*
D17*
X167640000Y-115570000D03*
D16*
G36*
X184623315Y-113874093D02*
X184705827Y-113886333D01*
X184786742Y-113906601D01*
X184865281Y-113934702D01*
X184940687Y-113970367D01*
X185012235Y-114013251D01*
X185079234Y-114062941D01*
X185141041Y-114118959D01*
X185197059Y-114180766D01*
X185246749Y-114247765D01*
X185289633Y-114319313D01*
X185325298Y-114394719D01*
X185353399Y-114473258D01*
X185373667Y-114554173D01*
X185385907Y-114636685D01*
X185390000Y-114720000D01*
X185390000Y-116420000D01*
X185385907Y-116503315D01*
X185373667Y-116585827D01*
X185353399Y-116666742D01*
X185325298Y-116745281D01*
X185289633Y-116820687D01*
X185246749Y-116892235D01*
X185197059Y-116959234D01*
X185141041Y-117021041D01*
X185079234Y-117077059D01*
X185012235Y-117126749D01*
X184940687Y-117169633D01*
X184865281Y-117205298D01*
X184786742Y-117233399D01*
X184705827Y-117253667D01*
X184623315Y-117265907D01*
X184540000Y-117270000D01*
X181740000Y-117270000D01*
X181656685Y-117265907D01*
X181574173Y-117253667D01*
X181493258Y-117233399D01*
X181414719Y-117205298D01*
X181339313Y-117169633D01*
X181267765Y-117126749D01*
X181200766Y-117077059D01*
X181138959Y-117021041D01*
X181082941Y-116959234D01*
X181033251Y-116892235D01*
X180990367Y-116820687D01*
X180954702Y-116745281D01*
X180926601Y-116666742D01*
X180906333Y-116585827D01*
X180894093Y-116503315D01*
X180890000Y-116420000D01*
X180890000Y-114720000D01*
X180894093Y-114636685D01*
X180906333Y-114554173D01*
X180926601Y-114473258D01*
X180954702Y-114394719D01*
X180990367Y-114319313D01*
X181033251Y-114247765D01*
X181082941Y-114180766D01*
X181138959Y-114118959D01*
X181200766Y-114062941D01*
X181267765Y-114013251D01*
X181339313Y-113970367D01*
X181414719Y-113934702D01*
X181493258Y-113906601D01*
X181574173Y-113886333D01*
X181656685Y-113874093D01*
X181740000Y-113870000D01*
X184540000Y-113870000D01*
X184623315Y-113874093D01*
X184623315Y-113874093D01*
G37*
D17*
X183140000Y-115570000D03*
D18*
X167550000Y-91440000D03*
X162650000Y-91440000D03*
D19*
X147955000Y-102780000D03*
X147955000Y-97880000D03*
D20*
X173355000Y-103505000D03*
X173355000Y-105405000D03*
X163195000Y-95255000D03*
X163195000Y-97155000D03*
D21*
X157480000Y-93980000D03*
D22*
X157480000Y-96520000D03*
X157480000Y-99060000D03*
X157480000Y-101600000D03*
X157480000Y-104140000D03*
X157480000Y-106680000D03*
X157480000Y-109220000D03*
X157480000Y-111760000D03*
X157480000Y-114300000D03*
X157480000Y-116840000D03*
D21*
X177800000Y-102235000D03*
D22*
X177800000Y-104775000D03*
X177800000Y-107315000D03*
D23*
X163195000Y-97155000D03*
X152400000Y-86360000D03*
X152400000Y-85090000D03*
X184150000Y-91440000D03*
X182880000Y-91440000D03*
D24*
X130911600Y-116535200D02*
X133756400Y-119380000D01*
X92913200Y-116535200D02*
X130911600Y-116535200D01*
X157480000Y-104140000D02*
X153035000Y-99695000D01*
X165140000Y-104140000D02*
X166410000Y-102870000D01*
X157480000Y-104140000D02*
X165140000Y-104140000D01*
X121691400Y-99695000D02*
X110896400Y-88900000D01*
X153035000Y-99695000D02*
X121691400Y-99695000D01*
X166410000Y-104001370D02*
X166410000Y-102870000D01*
X177290000Y-91440000D02*
X177290000Y-93690000D01*
X177290000Y-93690000D02*
X181099002Y-97499002D01*
X181099002Y-97499002D02*
X181099002Y-109095998D01*
X181099002Y-109095998D02*
X179248630Y-110946370D01*
X179248630Y-110946370D02*
X173355000Y-110946370D01*
X173355000Y-110946370D02*
X166410000Y-104001370D01*
X152400000Y-79398400D02*
X161948400Y-79398400D01*
X161948400Y-79398400D02*
X163830000Y-81280000D01*
X163830000Y-81280000D02*
X165100000Y-81280000D01*
X152400000Y-80148400D02*
X152400000Y-79398400D01*
X143648400Y-88900000D02*
X152400000Y-80148400D01*
X136296400Y-88900000D02*
X143648400Y-88900000D01*
X180340000Y-88265000D02*
X173355000Y-81280000D01*
X165735000Y-106680000D02*
X172085000Y-113030000D01*
X180340000Y-93345000D02*
X180340000Y-88265000D01*
X157480000Y-106680000D02*
X165735000Y-106680000D01*
X172085000Y-113030000D02*
X180340000Y-113030000D01*
X173355000Y-81280000D02*
X165100000Y-81280000D01*
X183515000Y-109855000D02*
X183515000Y-96520000D01*
X180340000Y-113030000D02*
X183515000Y-109855000D01*
X183515000Y-96520000D02*
X180340000Y-93345000D01*
X196697600Y-115570000D02*
X198882000Y-117754400D01*
X183140000Y-115570000D02*
X196697600Y-115570000D01*
X147955000Y-107315000D02*
X157480000Y-116840000D01*
X147955000Y-102780000D02*
X147955000Y-107315000D01*
X181410281Y-117299719D02*
X183140000Y-115570000D01*
X178060000Y-120650000D02*
X181410281Y-117299719D01*
X161290000Y-120650000D02*
X178060000Y-120650000D01*
X157480000Y-116840000D02*
X161290000Y-120650000D01*
X163830000Y-115570000D02*
X157480000Y-109220000D01*
X167640000Y-115570000D02*
X163830000Y-115570000D01*
X167550000Y-91440000D02*
X167550000Y-92190000D01*
X167550000Y-93690000D02*
X167550000Y-91440000D01*
X167550000Y-93835000D02*
X167550000Y-93690000D01*
X175950000Y-102235000D02*
X167550000Y-93835000D01*
X177800000Y-102235000D02*
X175950000Y-102235000D01*
X160110000Y-93980000D02*
X162650000Y-91440000D01*
X157480000Y-93980000D02*
X160110000Y-93980000D01*
X155630000Y-93980000D02*
X157480000Y-93980000D01*
X150355000Y-93980000D02*
X155630000Y-93980000D01*
X147955000Y-96380000D02*
X150355000Y-93980000D01*
X147955000Y-97880000D02*
X147955000Y-96380000D01*
X158682081Y-96520000D02*
X157480000Y-96520000D01*
X160280000Y-96520000D02*
X158682081Y-96520000D01*
X161545000Y-95255000D02*
X160280000Y-96520000D01*
X163195000Y-95255000D02*
X161545000Y-95255000D01*
X164845000Y-95255000D02*
X163195000Y-95255000D01*
X166455000Y-95255000D02*
X164845000Y-95255000D01*
X173355000Y-102155000D02*
X166455000Y-95255000D01*
X173355000Y-103505000D02*
X173355000Y-102155000D01*
X177170000Y-105405000D02*
X177800000Y-104775000D01*
X173355000Y-105405000D02*
X177170000Y-105405000D01*
M02*
