M48
INCH,TZ
T1C0.0157
T2C0.0315
T3C0.0394
T4C0.0550
T5C0.1250
%
G90
G05
T1
X60000Y-33500
X60000Y-34000
X64250Y-38250
X72000Y-36000
X72500Y-36000
T2
X65000Y-32000
X65000Y-32984
X65516Y-40500
X66500Y-40500
T3
X70000Y-40250
X70000Y-41250
X70000Y-42250
X62000Y-37000
X62000Y-38000
X62000Y-39000
X62000Y-40000
X62000Y-41000
X62000Y-42000
X62000Y-43000
X62000Y-44000
X62000Y-45000
X62000Y-46000
T4
X43660Y-35000
X44660Y-47000
X48660Y-35000
X52660Y-47000
X53660Y-35000
T5
X78300Y-36360
X78300Y-46360
X36580Y-35880
X36580Y-45880
T0
M30
