%TF.GenerationSoftware,KiCad,Pcbnew,(5.0.0)*%
%TF.CreationDate,2019-02-20T22:56:50-06:00*%
%TF.ProjectId,HVSignalAmplifier,48565369676E616C416D706C69666965,rev?*%
%TF.SameCoordinates,Original*%
%TF.FileFunction,Legend,Top*%
%TF.FilePolarity,Positive*%
%FSLAX46Y46*%
G04 Gerber Fmt 4.6, Leading zero omitted, Abs format (unit mm)*
G04 Created by KiCad (PCBNEW (5.0.0)) date 02/20/19 22:56:50*
%MOMM*%
%LPD*%
G01*
G04 APERTURE LIST*
%ADD10C,0.300000*%
%ADD11C,0.177800*%
%ADD12C,0.120000*%
%ADD13C,0.150000*%
G04 APERTURE END LIST*
D10*
X161476428Y-88481428D02*
X161476428Y-88767142D01*
X161405000Y-88910000D01*
X161262142Y-89052857D01*
X160976428Y-89124285D01*
X160476428Y-89124285D01*
X160190714Y-89052857D01*
X160047857Y-88910000D01*
X159976428Y-88767142D01*
X159976428Y-88481428D01*
X160047857Y-88338571D01*
X160190714Y-88195714D01*
X160476428Y-88124285D01*
X160976428Y-88124285D01*
X161262142Y-88195714D01*
X161405000Y-88338571D01*
X161476428Y-88481428D01*
X159976428Y-89767142D02*
X161476428Y-89767142D01*
X161476428Y-90338571D01*
X161405000Y-90481428D01*
X161333571Y-90552857D01*
X161190714Y-90624285D01*
X160976428Y-90624285D01*
X160833571Y-90552857D01*
X160762142Y-90481428D01*
X160690714Y-90338571D01*
X160690714Y-89767142D01*
X160405000Y-91195714D02*
X160405000Y-91910000D01*
X159976428Y-91052857D02*
X161476428Y-91552857D01*
X159976428Y-92052857D01*
X159976428Y-92552857D02*
X161476428Y-92552857D01*
X160405000Y-93052857D01*
X161476428Y-93552857D01*
X159976428Y-93552857D01*
X159976428Y-94267142D02*
X161476428Y-94267142D01*
X161476428Y-94838571D01*
X161405000Y-94981428D01*
X161333571Y-95052857D01*
X161190714Y-95124285D01*
X160976428Y-95124285D01*
X160833571Y-95052857D01*
X160762142Y-94981428D01*
X160690714Y-94838571D01*
X160690714Y-94267142D01*
X159976428Y-96910000D02*
X161476428Y-96910000D01*
X160762142Y-96910000D02*
X160762142Y-97767142D01*
X159976428Y-97767142D02*
X161476428Y-97767142D01*
X160762142Y-98481428D02*
X160762142Y-98981428D01*
X159976428Y-99195714D02*
X159976428Y-98481428D01*
X161476428Y-98481428D01*
X161476428Y-99195714D01*
X160405000Y-99767142D02*
X160405000Y-100481428D01*
X159976428Y-99624285D02*
X161476428Y-100124285D01*
X159976428Y-100624285D01*
X161476428Y-100910000D02*
X161476428Y-101767142D01*
X159976428Y-101338571D02*
X161476428Y-101338571D01*
X160047857Y-103338571D02*
X159976428Y-103552857D01*
X159976428Y-103910000D01*
X160047857Y-104052857D01*
X160119285Y-104124285D01*
X160262142Y-104195714D01*
X160405000Y-104195714D01*
X160547857Y-104124285D01*
X160619285Y-104052857D01*
X160690714Y-103910000D01*
X160762142Y-103624285D01*
X160833571Y-103481428D01*
X160905000Y-103410000D01*
X161047857Y-103338571D01*
X161190714Y-103338571D01*
X161333571Y-103410000D01*
X161405000Y-103481428D01*
X161476428Y-103624285D01*
X161476428Y-103981428D01*
X161405000Y-104195714D01*
X159976428Y-104838571D02*
X161476428Y-104838571D01*
X160762142Y-104838571D02*
X160762142Y-105695714D01*
X159976428Y-105695714D02*
X161476428Y-105695714D01*
X159976428Y-106410000D02*
X161476428Y-106410000D01*
X160762142Y-107124285D02*
X160762142Y-107624285D01*
X159976428Y-107838571D02*
X159976428Y-107124285D01*
X161476428Y-107124285D01*
X161476428Y-107838571D01*
X159976428Y-109195714D02*
X159976428Y-108481428D01*
X161476428Y-108481428D01*
X159976428Y-109695714D02*
X161476428Y-109695714D01*
X161476428Y-110052857D01*
X161405000Y-110267142D01*
X161262142Y-110410000D01*
X161119285Y-110481428D01*
X160833571Y-110552857D01*
X160619285Y-110552857D01*
X160333571Y-110481428D01*
X160190714Y-110410000D01*
X160047857Y-110267142D01*
X159976428Y-110052857D01*
X159976428Y-109695714D01*
X161476428Y-112124285D02*
X161476428Y-112981428D01*
X159976428Y-112552857D02*
X161476428Y-112552857D01*
X159976428Y-113481428D02*
X161476428Y-113481428D01*
X160762142Y-113481428D02*
X160762142Y-114338571D01*
X159976428Y-114338571D02*
X161476428Y-114338571D01*
X159976428Y-115052857D02*
X161476428Y-115052857D01*
X160047857Y-115695714D02*
X159976428Y-115910000D01*
X159976428Y-116267142D01*
X160047857Y-116410000D01*
X160119285Y-116481428D01*
X160262142Y-116552857D01*
X160405000Y-116552857D01*
X160547857Y-116481428D01*
X160619285Y-116410000D01*
X160690714Y-116267142D01*
X160762142Y-115981428D01*
X160833571Y-115838571D01*
X160905000Y-115767142D01*
X161047857Y-115695714D01*
X161190714Y-115695714D01*
X161333571Y-115767142D01*
X161405000Y-115838571D01*
X161476428Y-115981428D01*
X161476428Y-116338571D01*
X161405000Y-116552857D01*
X160047857Y-118267142D02*
X159976428Y-118481428D01*
X159976428Y-118838571D01*
X160047857Y-118981428D01*
X160119285Y-119052857D01*
X160262142Y-119124285D01*
X160405000Y-119124285D01*
X160547857Y-119052857D01*
X160619285Y-118981428D01*
X160690714Y-118838571D01*
X160762142Y-118552857D01*
X160833571Y-118410000D01*
X160905000Y-118338571D01*
X161047857Y-118267142D01*
X161190714Y-118267142D01*
X161333571Y-118338571D01*
X161405000Y-118410000D01*
X161476428Y-118552857D01*
X161476428Y-118910000D01*
X161405000Y-119124285D01*
X159976428Y-119767142D02*
X161476428Y-119767142D01*
X159976428Y-120481428D02*
X161476428Y-120481428D01*
X161476428Y-120838571D01*
X161405000Y-121052857D01*
X161262142Y-121195714D01*
X161119285Y-121267142D01*
X160833571Y-121338571D01*
X160619285Y-121338571D01*
X160333571Y-121267142D01*
X160190714Y-121195714D01*
X160047857Y-121052857D01*
X159976428Y-120838571D01*
X159976428Y-120481428D01*
X160762142Y-121981428D02*
X160762142Y-122481428D01*
X159976428Y-122695714D02*
X159976428Y-121981428D01*
X161476428Y-121981428D01*
X161476428Y-122695714D01*
D11*
X180654476Y-107097285D02*
X180654476Y-107774619D01*
X180219047Y-107097285D02*
X180219047Y-107629476D01*
X180267428Y-107726238D01*
X180364190Y-107774619D01*
X180509333Y-107774619D01*
X180606095Y-107726238D01*
X180654476Y-107677857D01*
X181718857Y-107677857D02*
X181670476Y-107726238D01*
X181525333Y-107774619D01*
X181428571Y-107774619D01*
X181283428Y-107726238D01*
X181186666Y-107629476D01*
X181138285Y-107532714D01*
X181089904Y-107339190D01*
X181089904Y-107194047D01*
X181138285Y-107000523D01*
X181186666Y-106903761D01*
X181283428Y-106807000D01*
X181428571Y-106758619D01*
X181525333Y-106758619D01*
X181670476Y-106807000D01*
X181718857Y-106855380D01*
X183460571Y-106807000D02*
X183363809Y-106758619D01*
X183218666Y-106758619D01*
X183073523Y-106807000D01*
X182976761Y-106903761D01*
X182928380Y-107000523D01*
X182880000Y-107194047D01*
X182880000Y-107339190D01*
X182928380Y-107532714D01*
X182976761Y-107629476D01*
X183073523Y-107726238D01*
X183218666Y-107774619D01*
X183315428Y-107774619D01*
X183460571Y-107726238D01*
X183508952Y-107677857D01*
X183508952Y-107339190D01*
X183315428Y-107339190D01*
X183944380Y-107774619D02*
X183944380Y-106758619D01*
X184524952Y-107774619D01*
X184524952Y-106758619D01*
X185008761Y-107774619D02*
X185008761Y-106758619D01*
X185250666Y-106758619D01*
X185395809Y-106807000D01*
X185492571Y-106903761D01*
X185540952Y-107000523D01*
X185589333Y-107194047D01*
X185589333Y-107339190D01*
X185540952Y-107532714D01*
X185492571Y-107629476D01*
X185395809Y-107726238D01*
X185250666Y-107774619D01*
X185008761Y-107774619D01*
X180799619Y-104557285D02*
X180799619Y-105234619D01*
X180364190Y-104557285D02*
X180364190Y-105089476D01*
X180412571Y-105186238D01*
X180509333Y-105234619D01*
X180654476Y-105234619D01*
X180751238Y-105186238D01*
X180799619Y-105137857D01*
X181864000Y-105137857D02*
X181815619Y-105186238D01*
X181670476Y-105234619D01*
X181573714Y-105234619D01*
X181428571Y-105186238D01*
X181331809Y-105089476D01*
X181283428Y-104992714D01*
X181235047Y-104799190D01*
X181235047Y-104654047D01*
X181283428Y-104460523D01*
X181331809Y-104363761D01*
X181428571Y-104267000D01*
X181573714Y-104218619D01*
X181670476Y-104218619D01*
X181815619Y-104267000D01*
X181864000Y-104315380D01*
X182976761Y-104218619D02*
X183605714Y-104218619D01*
X183267047Y-104605666D01*
X183412190Y-104605666D01*
X183508952Y-104654047D01*
X183557333Y-104702428D01*
X183605714Y-104799190D01*
X183605714Y-105041095D01*
X183557333Y-105137857D01*
X183508952Y-105186238D01*
X183412190Y-105234619D01*
X183121904Y-105234619D01*
X183025142Y-105186238D01*
X182976761Y-105137857D01*
X183896000Y-104218619D02*
X184234666Y-105234619D01*
X184573333Y-104218619D01*
X184815238Y-104218619D02*
X185444190Y-104218619D01*
X185105523Y-104605666D01*
X185250666Y-104605666D01*
X185347428Y-104654047D01*
X185395809Y-104702428D01*
X185444190Y-104799190D01*
X185444190Y-105041095D01*
X185395809Y-105137857D01*
X185347428Y-105186238D01*
X185250666Y-105234619D01*
X184960380Y-105234619D01*
X184863619Y-105186238D01*
X184815238Y-105137857D01*
X180636333Y-102017285D02*
X180636333Y-102694619D01*
X180200904Y-102017285D02*
X180200904Y-102549476D01*
X180249285Y-102646238D01*
X180346047Y-102694619D01*
X180491190Y-102694619D01*
X180587952Y-102646238D01*
X180636333Y-102597857D01*
X181700714Y-102597857D02*
X181652333Y-102646238D01*
X181507190Y-102694619D01*
X181410428Y-102694619D01*
X181265285Y-102646238D01*
X181168523Y-102549476D01*
X181120142Y-102452714D01*
X181071761Y-102259190D01*
X181071761Y-102114047D01*
X181120142Y-101920523D01*
X181168523Y-101823761D01*
X181265285Y-101727000D01*
X181410428Y-101678619D01*
X181507190Y-101678619D01*
X181652333Y-101727000D01*
X181700714Y-101775380D01*
X182910238Y-102694619D02*
X182910238Y-101678619D01*
X183394047Y-102694619D02*
X183394047Y-101678619D01*
X183974619Y-102694619D01*
X183974619Y-101678619D01*
X184458428Y-102694619D02*
X184458428Y-101678619D01*
X184845476Y-101678619D01*
X184942238Y-101727000D01*
X184990619Y-101775380D01*
X185039000Y-101872142D01*
X185039000Y-102017285D01*
X184990619Y-102114047D01*
X184942238Y-102162428D01*
X184845476Y-102210809D01*
X184458428Y-102210809D01*
X185474428Y-101678619D02*
X185474428Y-102501095D01*
X185522809Y-102597857D01*
X185571190Y-102646238D01*
X185667952Y-102694619D01*
X185861476Y-102694619D01*
X185958238Y-102646238D01*
X186006619Y-102597857D01*
X186055000Y-102501095D01*
X186055000Y-101678619D01*
X186393666Y-101678619D02*
X186974238Y-101678619D01*
X186683952Y-102694619D02*
X186683952Y-101678619D01*
D10*
X91372857Y-95777857D02*
X91587142Y-95849285D01*
X91658571Y-95920714D01*
X91730000Y-96063571D01*
X91730000Y-96277857D01*
X91658571Y-96420714D01*
X91587142Y-96492142D01*
X91444285Y-96563571D01*
X90872857Y-96563571D01*
X90872857Y-95063571D01*
X91372857Y-95063571D01*
X91515714Y-95135000D01*
X91587142Y-95206428D01*
X91658571Y-95349285D01*
X91658571Y-95492142D01*
X91587142Y-95635000D01*
X91515714Y-95706428D01*
X91372857Y-95777857D01*
X90872857Y-95777857D01*
X92301428Y-96135000D02*
X93015714Y-96135000D01*
X92158571Y-96563571D02*
X92658571Y-95063571D01*
X93158571Y-96563571D01*
X93444285Y-95063571D02*
X94301428Y-95063571D01*
X93872857Y-96563571D02*
X93872857Y-95063571D01*
X94587142Y-95063571D02*
X95444285Y-95063571D01*
X95015714Y-96563571D02*
X95015714Y-95063571D01*
X95944285Y-95992142D02*
X97087142Y-95992142D01*
X91372857Y-121177857D02*
X91587142Y-121249285D01*
X91658571Y-121320714D01*
X91730000Y-121463571D01*
X91730000Y-121677857D01*
X91658571Y-121820714D01*
X91587142Y-121892142D01*
X91444285Y-121963571D01*
X90872857Y-121963571D01*
X90872857Y-120463571D01*
X91372857Y-120463571D01*
X91515714Y-120535000D01*
X91587142Y-120606428D01*
X91658571Y-120749285D01*
X91658571Y-120892142D01*
X91587142Y-121035000D01*
X91515714Y-121106428D01*
X91372857Y-121177857D01*
X90872857Y-121177857D01*
X92301428Y-121535000D02*
X93015714Y-121535000D01*
X92158571Y-121963571D02*
X92658571Y-120463571D01*
X93158571Y-121963571D01*
X93444285Y-120463571D02*
X94301428Y-120463571D01*
X93872857Y-121963571D02*
X93872857Y-120463571D01*
X94587142Y-120463571D02*
X95444285Y-120463571D01*
X95015714Y-121963571D02*
X95015714Y-120463571D01*
X95944285Y-121392142D02*
X97087142Y-121392142D01*
X96515714Y-121963571D02*
X96515714Y-120820714D01*
X191679285Y-121728571D02*
X191965000Y-121728571D01*
X192107857Y-121800000D01*
X192250714Y-121942857D01*
X192322142Y-122228571D01*
X192322142Y-122728571D01*
X192250714Y-123014285D01*
X192107857Y-123157142D01*
X191965000Y-123228571D01*
X191679285Y-123228571D01*
X191536428Y-123157142D01*
X191393571Y-123014285D01*
X191322142Y-122728571D01*
X191322142Y-122228571D01*
X191393571Y-121942857D01*
X191536428Y-121800000D01*
X191679285Y-121728571D01*
X192965000Y-121728571D02*
X192965000Y-122942857D01*
X193036428Y-123085714D01*
X193107857Y-123157142D01*
X193250714Y-123228571D01*
X193536428Y-123228571D01*
X193679285Y-123157142D01*
X193750714Y-123085714D01*
X193822142Y-122942857D01*
X193822142Y-121728571D01*
X194322142Y-121728571D02*
X195179285Y-121728571D01*
X194750714Y-123228571D02*
X194750714Y-121728571D01*
X195679285Y-123228571D02*
X195679285Y-121728571D01*
X196250714Y-121728571D01*
X196393571Y-121800000D01*
X196465000Y-121871428D01*
X196536428Y-122014285D01*
X196536428Y-122228571D01*
X196465000Y-122371428D01*
X196393571Y-122442857D01*
X196250714Y-122514285D01*
X195679285Y-122514285D01*
X197179285Y-121728571D02*
X197179285Y-122942857D01*
X197250714Y-123085714D01*
X197322142Y-123157142D01*
X197465000Y-123228571D01*
X197750714Y-123228571D01*
X197893571Y-123157142D01*
X197965000Y-123085714D01*
X198036428Y-122942857D01*
X198036428Y-121728571D01*
X198536428Y-121728571D02*
X199393571Y-121728571D01*
X198965000Y-123228571D02*
X198965000Y-121728571D01*
X199893571Y-122657142D02*
X201036428Y-122657142D01*
X200465000Y-123228571D02*
X200465000Y-122085714D01*
X192314285Y-96333571D02*
X192600000Y-96333571D01*
X192742857Y-96405000D01*
X192885714Y-96547857D01*
X192957142Y-96833571D01*
X192957142Y-97333571D01*
X192885714Y-97619285D01*
X192742857Y-97762142D01*
X192600000Y-97833571D01*
X192314285Y-97833571D01*
X192171428Y-97762142D01*
X192028571Y-97619285D01*
X191957142Y-97333571D01*
X191957142Y-96833571D01*
X192028571Y-96547857D01*
X192171428Y-96405000D01*
X192314285Y-96333571D01*
X193600000Y-96333571D02*
X193600000Y-97547857D01*
X193671428Y-97690714D01*
X193742857Y-97762142D01*
X193885714Y-97833571D01*
X194171428Y-97833571D01*
X194314285Y-97762142D01*
X194385714Y-97690714D01*
X194457142Y-97547857D01*
X194457142Y-96333571D01*
X194957142Y-96333571D02*
X195814285Y-96333571D01*
X195385714Y-97833571D02*
X195385714Y-96333571D01*
X196314285Y-97833571D02*
X196314285Y-96333571D01*
X196885714Y-96333571D01*
X197028571Y-96405000D01*
X197100000Y-96476428D01*
X197171428Y-96619285D01*
X197171428Y-96833571D01*
X197100000Y-96976428D01*
X197028571Y-97047857D01*
X196885714Y-97119285D01*
X196314285Y-97119285D01*
X197814285Y-96333571D02*
X197814285Y-97547857D01*
X197885714Y-97690714D01*
X197957142Y-97762142D01*
X198100000Y-97833571D01*
X198385714Y-97833571D01*
X198528571Y-97762142D01*
X198600000Y-97690714D01*
X198671428Y-97547857D01*
X198671428Y-96333571D01*
X199171428Y-96333571D02*
X200028571Y-96333571D01*
X199600000Y-97833571D02*
X199600000Y-96333571D01*
X200528571Y-97262142D02*
X201671428Y-97262142D01*
D12*
X184530000Y-94870000D02*
X184530000Y-93000000D01*
X184530000Y-88010000D02*
X184530000Y-89880000D01*
X176150000Y-87250000D02*
X176150000Y-89880000D01*
X176150000Y-95630000D02*
X176150000Y-93000000D01*
X176150000Y-87250000D02*
X183770000Y-87250000D01*
X183770000Y-87250000D02*
X184530000Y-88010000D01*
X184530000Y-94870000D02*
X183770000Y-95630000D01*
X183770000Y-95630000D02*
X176150000Y-95630000D01*
X156590000Y-79018400D02*
X156590000Y-86638400D01*
X155830000Y-78258400D02*
X156590000Y-79018400D01*
X148210000Y-79018400D02*
X148970000Y-78258400D01*
X148210000Y-86638400D02*
X148210000Y-79018400D01*
X156590000Y-86638400D02*
X153960000Y-86638400D01*
X148210000Y-86638400D02*
X150840000Y-86638400D01*
X148970000Y-78258400D02*
X150840000Y-78258400D01*
X155830000Y-78258400D02*
X153960000Y-78258400D01*
X165354278Y-104049723D02*
G75*
G03X169965580Y-104050000I2305722J1179723D01*
G01*
X165354278Y-101690277D02*
G75*
G02X169965580Y-101690000I2305722J-1179723D01*
G01*
X165354278Y-101690277D02*
G75*
G03X165354420Y-104050000I2305722J-1179723D01*
G01*
X167660000Y-105420000D02*
X167660000Y-100320000D01*
X167620000Y-105420000D02*
X167620000Y-100320000D01*
X167580000Y-105419000D02*
X167580000Y-100321000D01*
X167540000Y-105418000D02*
X167540000Y-100322000D01*
X167500000Y-105416000D02*
X167500000Y-100324000D01*
X167460000Y-105413000D02*
X167460000Y-100327000D01*
X167420000Y-105409000D02*
X167420000Y-100331000D01*
X167380000Y-105405000D02*
X167380000Y-103850000D01*
X167380000Y-101890000D02*
X167380000Y-100335000D01*
X167340000Y-105401000D02*
X167340000Y-103850000D01*
X167340000Y-101890000D02*
X167340000Y-100339000D01*
X167300000Y-105395000D02*
X167300000Y-103850000D01*
X167300000Y-101890000D02*
X167300000Y-100345000D01*
X167260000Y-105389000D02*
X167260000Y-103850000D01*
X167260000Y-101890000D02*
X167260000Y-100351000D01*
X167220000Y-105383000D02*
X167220000Y-103850000D01*
X167220000Y-101890000D02*
X167220000Y-100357000D01*
X167180000Y-105376000D02*
X167180000Y-103850000D01*
X167180000Y-101890000D02*
X167180000Y-100364000D01*
X167140000Y-105368000D02*
X167140000Y-103850000D01*
X167140000Y-101890000D02*
X167140000Y-100372000D01*
X167100000Y-105359000D02*
X167100000Y-103850000D01*
X167100000Y-101890000D02*
X167100000Y-100381000D01*
X167060000Y-105350000D02*
X167060000Y-103850000D01*
X167060000Y-101890000D02*
X167060000Y-100390000D01*
X167020000Y-105340000D02*
X167020000Y-103850000D01*
X167020000Y-101890000D02*
X167020000Y-100400000D01*
X166980000Y-105330000D02*
X166980000Y-103850000D01*
X166980000Y-101890000D02*
X166980000Y-100410000D01*
X166939000Y-105318000D02*
X166939000Y-103850000D01*
X166939000Y-101890000D02*
X166939000Y-100422000D01*
X166899000Y-105306000D02*
X166899000Y-103850000D01*
X166899000Y-101890000D02*
X166899000Y-100434000D01*
X166859000Y-105294000D02*
X166859000Y-103850000D01*
X166859000Y-101890000D02*
X166859000Y-100446000D01*
X166819000Y-105280000D02*
X166819000Y-103850000D01*
X166819000Y-101890000D02*
X166819000Y-100460000D01*
X166779000Y-105266000D02*
X166779000Y-103850000D01*
X166779000Y-101890000D02*
X166779000Y-100474000D01*
X166739000Y-105252000D02*
X166739000Y-103850000D01*
X166739000Y-101890000D02*
X166739000Y-100488000D01*
X166699000Y-105236000D02*
X166699000Y-103850000D01*
X166699000Y-101890000D02*
X166699000Y-100504000D01*
X166659000Y-105220000D02*
X166659000Y-103850000D01*
X166659000Y-101890000D02*
X166659000Y-100520000D01*
X166619000Y-105203000D02*
X166619000Y-103850000D01*
X166619000Y-101890000D02*
X166619000Y-100537000D01*
X166579000Y-105185000D02*
X166579000Y-103850000D01*
X166579000Y-101890000D02*
X166579000Y-100555000D01*
X166539000Y-105166000D02*
X166539000Y-103850000D01*
X166539000Y-101890000D02*
X166539000Y-100574000D01*
X166499000Y-105146000D02*
X166499000Y-103850000D01*
X166499000Y-101890000D02*
X166499000Y-100594000D01*
X166459000Y-105126000D02*
X166459000Y-103850000D01*
X166459000Y-101890000D02*
X166459000Y-100614000D01*
X166419000Y-105104000D02*
X166419000Y-103850000D01*
X166419000Y-101890000D02*
X166419000Y-100636000D01*
X166379000Y-105082000D02*
X166379000Y-103850000D01*
X166379000Y-101890000D02*
X166379000Y-100658000D01*
X166339000Y-105059000D02*
X166339000Y-103850000D01*
X166339000Y-101890000D02*
X166339000Y-100681000D01*
X166299000Y-105035000D02*
X166299000Y-103850000D01*
X166299000Y-101890000D02*
X166299000Y-100705000D01*
X166259000Y-105010000D02*
X166259000Y-103850000D01*
X166259000Y-101890000D02*
X166259000Y-100730000D01*
X166219000Y-104983000D02*
X166219000Y-103850000D01*
X166219000Y-101890000D02*
X166219000Y-100757000D01*
X166179000Y-104956000D02*
X166179000Y-103850000D01*
X166179000Y-101890000D02*
X166179000Y-100784000D01*
X166139000Y-104928000D02*
X166139000Y-103850000D01*
X166139000Y-101890000D02*
X166139000Y-100812000D01*
X166099000Y-104898000D02*
X166099000Y-103850000D01*
X166099000Y-101890000D02*
X166099000Y-100842000D01*
X166059000Y-104867000D02*
X166059000Y-103850000D01*
X166059000Y-101890000D02*
X166059000Y-100873000D01*
X166019000Y-104835000D02*
X166019000Y-103850000D01*
X166019000Y-101890000D02*
X166019000Y-100905000D01*
X165979000Y-104802000D02*
X165979000Y-103850000D01*
X165979000Y-101890000D02*
X165979000Y-100938000D01*
X165939000Y-104767000D02*
X165939000Y-103850000D01*
X165939000Y-101890000D02*
X165939000Y-100973000D01*
X165899000Y-104731000D02*
X165899000Y-103850000D01*
X165899000Y-101890000D02*
X165899000Y-101009000D01*
X165859000Y-104693000D02*
X165859000Y-103850000D01*
X165859000Y-101890000D02*
X165859000Y-101047000D01*
X165819000Y-104653000D02*
X165819000Y-103850000D01*
X165819000Y-101890000D02*
X165819000Y-101087000D01*
X165779000Y-104612000D02*
X165779000Y-103850000D01*
X165779000Y-101890000D02*
X165779000Y-101128000D01*
X165739000Y-104569000D02*
X165739000Y-103850000D01*
X165739000Y-101890000D02*
X165739000Y-101171000D01*
X165699000Y-104524000D02*
X165699000Y-103850000D01*
X165699000Y-101890000D02*
X165699000Y-101216000D01*
X165659000Y-104476000D02*
X165659000Y-103850000D01*
X165659000Y-101890000D02*
X165659000Y-101264000D01*
X165619000Y-104426000D02*
X165619000Y-103850000D01*
X165619000Y-101890000D02*
X165619000Y-101314000D01*
X165579000Y-104374000D02*
X165579000Y-103850000D01*
X165579000Y-101890000D02*
X165579000Y-101366000D01*
X165539000Y-104318000D02*
X165539000Y-103850000D01*
X165539000Y-101890000D02*
X165539000Y-101422000D01*
X165499000Y-104260000D02*
X165499000Y-103850000D01*
X165499000Y-101890000D02*
X165499000Y-101480000D01*
X165459000Y-104197000D02*
X165459000Y-103850000D01*
X165459000Y-101890000D02*
X165459000Y-101543000D01*
X165419000Y-104131000D02*
X165419000Y-101609000D01*
X165379000Y-104059000D02*
X165379000Y-101681000D01*
X165339000Y-103982000D02*
X165339000Y-101758000D01*
X165299000Y-103898000D02*
X165299000Y-101842000D01*
X165259000Y-103804000D02*
X165259000Y-101936000D01*
X165219000Y-103699000D02*
X165219000Y-102041000D01*
X165179000Y-103577000D02*
X165179000Y-102163000D01*
X165139000Y-103429000D02*
X165139000Y-102311000D01*
X165099000Y-103224000D02*
X165099000Y-102516000D01*
X171110000Y-102870000D02*
X169910000Y-102870000D01*
X170510000Y-103520000D02*
X170510000Y-102220000D01*
X165750000Y-79680000D02*
X164450000Y-79680000D01*
X165100000Y-79080000D02*
X165100000Y-80280000D01*
X165454000Y-85091000D02*
X164746000Y-85091000D01*
X165659000Y-85051000D02*
X164541000Y-85051000D01*
X165807000Y-85011000D02*
X164393000Y-85011000D01*
X165929000Y-84971000D02*
X164271000Y-84971000D01*
X166034000Y-84931000D02*
X164166000Y-84931000D01*
X166128000Y-84891000D02*
X164072000Y-84891000D01*
X166212000Y-84851000D02*
X163988000Y-84851000D01*
X166289000Y-84811000D02*
X163911000Y-84811000D01*
X166361000Y-84771000D02*
X163839000Y-84771000D01*
X164120000Y-84731000D02*
X163773000Y-84731000D01*
X166427000Y-84731000D02*
X166080000Y-84731000D01*
X164120000Y-84691000D02*
X163710000Y-84691000D01*
X166490000Y-84691000D02*
X166080000Y-84691000D01*
X164120000Y-84651000D02*
X163652000Y-84651000D01*
X166548000Y-84651000D02*
X166080000Y-84651000D01*
X164120000Y-84611000D02*
X163596000Y-84611000D01*
X166604000Y-84611000D02*
X166080000Y-84611000D01*
X164120000Y-84571000D02*
X163544000Y-84571000D01*
X166656000Y-84571000D02*
X166080000Y-84571000D01*
X164120000Y-84531000D02*
X163494000Y-84531000D01*
X166706000Y-84531000D02*
X166080000Y-84531000D01*
X164120000Y-84491000D02*
X163446000Y-84491000D01*
X166754000Y-84491000D02*
X166080000Y-84491000D01*
X164120000Y-84451000D02*
X163401000Y-84451000D01*
X166799000Y-84451000D02*
X166080000Y-84451000D01*
X164120000Y-84411000D02*
X163358000Y-84411000D01*
X166842000Y-84411000D02*
X166080000Y-84411000D01*
X164120000Y-84371000D02*
X163317000Y-84371000D01*
X166883000Y-84371000D02*
X166080000Y-84371000D01*
X164120000Y-84331000D02*
X163277000Y-84331000D01*
X166923000Y-84331000D02*
X166080000Y-84331000D01*
X164120000Y-84291000D02*
X163239000Y-84291000D01*
X166961000Y-84291000D02*
X166080000Y-84291000D01*
X164120000Y-84251000D02*
X163203000Y-84251000D01*
X166997000Y-84251000D02*
X166080000Y-84251000D01*
X164120000Y-84211000D02*
X163168000Y-84211000D01*
X167032000Y-84211000D02*
X166080000Y-84211000D01*
X164120000Y-84171000D02*
X163135000Y-84171000D01*
X167065000Y-84171000D02*
X166080000Y-84171000D01*
X164120000Y-84131000D02*
X163103000Y-84131000D01*
X167097000Y-84131000D02*
X166080000Y-84131000D01*
X164120000Y-84091000D02*
X163072000Y-84091000D01*
X167128000Y-84091000D02*
X166080000Y-84091000D01*
X164120000Y-84051000D02*
X163042000Y-84051000D01*
X167158000Y-84051000D02*
X166080000Y-84051000D01*
X164120000Y-84011000D02*
X163014000Y-84011000D01*
X167186000Y-84011000D02*
X166080000Y-84011000D01*
X164120000Y-83971000D02*
X162987000Y-83971000D01*
X167213000Y-83971000D02*
X166080000Y-83971000D01*
X164120000Y-83931000D02*
X162960000Y-83931000D01*
X167240000Y-83931000D02*
X166080000Y-83931000D01*
X164120000Y-83891000D02*
X162935000Y-83891000D01*
X167265000Y-83891000D02*
X166080000Y-83891000D01*
X164120000Y-83851000D02*
X162911000Y-83851000D01*
X167289000Y-83851000D02*
X166080000Y-83851000D01*
X164120000Y-83811000D02*
X162888000Y-83811000D01*
X167312000Y-83811000D02*
X166080000Y-83811000D01*
X164120000Y-83771000D02*
X162866000Y-83771000D01*
X167334000Y-83771000D02*
X166080000Y-83771000D01*
X164120000Y-83731000D02*
X162844000Y-83731000D01*
X167356000Y-83731000D02*
X166080000Y-83731000D01*
X164120000Y-83691000D02*
X162824000Y-83691000D01*
X167376000Y-83691000D02*
X166080000Y-83691000D01*
X164120000Y-83651000D02*
X162804000Y-83651000D01*
X167396000Y-83651000D02*
X166080000Y-83651000D01*
X164120000Y-83611000D02*
X162785000Y-83611000D01*
X167415000Y-83611000D02*
X166080000Y-83611000D01*
X164120000Y-83571000D02*
X162767000Y-83571000D01*
X167433000Y-83571000D02*
X166080000Y-83571000D01*
X164120000Y-83531000D02*
X162750000Y-83531000D01*
X167450000Y-83531000D02*
X166080000Y-83531000D01*
X164120000Y-83491000D02*
X162734000Y-83491000D01*
X167466000Y-83491000D02*
X166080000Y-83491000D01*
X164120000Y-83451000D02*
X162718000Y-83451000D01*
X167482000Y-83451000D02*
X166080000Y-83451000D01*
X164120000Y-83411000D02*
X162704000Y-83411000D01*
X167496000Y-83411000D02*
X166080000Y-83411000D01*
X164120000Y-83371000D02*
X162690000Y-83371000D01*
X167510000Y-83371000D02*
X166080000Y-83371000D01*
X164120000Y-83331000D02*
X162676000Y-83331000D01*
X167524000Y-83331000D02*
X166080000Y-83331000D01*
X164120000Y-83291000D02*
X162664000Y-83291000D01*
X167536000Y-83291000D02*
X166080000Y-83291000D01*
X164120000Y-83251000D02*
X162652000Y-83251000D01*
X167548000Y-83251000D02*
X166080000Y-83251000D01*
X164120000Y-83210000D02*
X162640000Y-83210000D01*
X167560000Y-83210000D02*
X166080000Y-83210000D01*
X164120000Y-83170000D02*
X162630000Y-83170000D01*
X167570000Y-83170000D02*
X166080000Y-83170000D01*
X164120000Y-83130000D02*
X162620000Y-83130000D01*
X167580000Y-83130000D02*
X166080000Y-83130000D01*
X164120000Y-83090000D02*
X162611000Y-83090000D01*
X167589000Y-83090000D02*
X166080000Y-83090000D01*
X164120000Y-83050000D02*
X162602000Y-83050000D01*
X167598000Y-83050000D02*
X166080000Y-83050000D01*
X164120000Y-83010000D02*
X162594000Y-83010000D01*
X167606000Y-83010000D02*
X166080000Y-83010000D01*
X164120000Y-82970000D02*
X162587000Y-82970000D01*
X167613000Y-82970000D02*
X166080000Y-82970000D01*
X164120000Y-82930000D02*
X162581000Y-82930000D01*
X167619000Y-82930000D02*
X166080000Y-82930000D01*
X164120000Y-82890000D02*
X162575000Y-82890000D01*
X167625000Y-82890000D02*
X166080000Y-82890000D01*
X164120000Y-82850000D02*
X162569000Y-82850000D01*
X167631000Y-82850000D02*
X166080000Y-82850000D01*
X164120000Y-82810000D02*
X162565000Y-82810000D01*
X167635000Y-82810000D02*
X166080000Y-82810000D01*
X167639000Y-82770000D02*
X162561000Y-82770000D01*
X167643000Y-82730000D02*
X162557000Y-82730000D01*
X167646000Y-82690000D02*
X162554000Y-82690000D01*
X167648000Y-82650000D02*
X162552000Y-82650000D01*
X167649000Y-82610000D02*
X162551000Y-82610000D01*
X167650000Y-82570000D02*
X162550000Y-82570000D01*
X167650000Y-82530000D02*
X162550000Y-82530000D01*
X163920277Y-84835722D02*
G75*
G03X166280000Y-84835580I1179723J2305722D01*
G01*
X163920277Y-84835722D02*
G75*
G02X163920000Y-80224420I1179723J2305722D01*
G01*
X166279723Y-84835722D02*
G75*
G03X166280000Y-80224420I-1179723J2305722D01*
G01*
X163150000Y-89960000D02*
X167050000Y-89960000D01*
X167050000Y-92920000D02*
X163150000Y-92920000D01*
X149435000Y-98380000D02*
X149435000Y-102280000D01*
X146475000Y-102280000D02*
X146475000Y-98380000D01*
X172475000Y-105055000D02*
X172475000Y-103855000D01*
X174235000Y-103855000D02*
X174235000Y-105055000D01*
X162315000Y-96805000D02*
X162315000Y-95605000D01*
X164075000Y-95605000D02*
X164075000Y-96805000D01*
X156150000Y-118170000D02*
X158810000Y-118170000D01*
X156150000Y-95250000D02*
X156150000Y-118170000D01*
X158810000Y-95250000D02*
X158810000Y-118170000D01*
X156150000Y-95250000D02*
X158810000Y-95250000D01*
X156150000Y-93980000D02*
X156150000Y-92650000D01*
X156150000Y-92650000D02*
X157480000Y-92650000D01*
X176470000Y-108645000D02*
X179130000Y-108645000D01*
X176470000Y-103505000D02*
X176470000Y-108645000D01*
X179130000Y-103505000D02*
X179130000Y-108645000D01*
X176470000Y-103505000D02*
X179130000Y-103505000D01*
X176470000Y-102235000D02*
X176470000Y-100905000D01*
X176470000Y-100905000D02*
X177800000Y-100905000D01*
D13*
X144821161Y-112243809D02*
X144868780Y-112100952D01*
X144868780Y-111862857D01*
X144821161Y-111767619D01*
X144773542Y-111720000D01*
X144678304Y-111672380D01*
X144583066Y-111672380D01*
X144487828Y-111720000D01*
X144440209Y-111767619D01*
X144392590Y-111862857D01*
X144344971Y-112053333D01*
X144297352Y-112148571D01*
X144249733Y-112196190D01*
X144154495Y-112243809D01*
X144059257Y-112243809D01*
X143964019Y-112196190D01*
X143916400Y-112148571D01*
X143868780Y-112053333D01*
X143868780Y-111815238D01*
X143916400Y-111672380D01*
X144344971Y-110910476D02*
X144344971Y-111243809D01*
X144868780Y-111243809D02*
X143868780Y-111243809D01*
X143868780Y-110767619D01*
X143868780Y-110196190D02*
X143868780Y-110100952D01*
X143916400Y-110005714D01*
X143964019Y-109958095D01*
X144059257Y-109910476D01*
X144249733Y-109862857D01*
X144487828Y-109862857D01*
X144678304Y-109910476D01*
X144773542Y-109958095D01*
X144821161Y-110005714D01*
X144868780Y-110100952D01*
X144868780Y-110196190D01*
X144821161Y-110291428D01*
X144773542Y-110339047D01*
X144678304Y-110386666D01*
X144487828Y-110434285D01*
X144249733Y-110434285D01*
X144059257Y-110386666D01*
X143964019Y-110339047D01*
X143916400Y-110291428D01*
X143868780Y-110196190D01*
X143964019Y-109481904D02*
X143916400Y-109434285D01*
X143868780Y-109339047D01*
X143868780Y-109100952D01*
X143916400Y-109005714D01*
X143964019Y-108958095D01*
X144059257Y-108910476D01*
X144154495Y-108910476D01*
X144297352Y-108958095D01*
X144868780Y-109529523D01*
X144868780Y-108910476D01*
X144773542Y-107910476D02*
X144821161Y-107958095D01*
X144868780Y-108100952D01*
X144868780Y-108196190D01*
X144821161Y-108339047D01*
X144725923Y-108434285D01*
X144630685Y-108481904D01*
X144440209Y-108529523D01*
X144297352Y-108529523D01*
X144106876Y-108481904D01*
X144011638Y-108434285D01*
X143916400Y-108339047D01*
X143868780Y-108196190D01*
X143868780Y-108100952D01*
X143916400Y-107958095D01*
X143964019Y-107910476D01*
X143868780Y-107624761D02*
X143868780Y-107053333D01*
X144868780Y-107339047D02*
X143868780Y-107339047D01*
X144868780Y-106196190D02*
X144868780Y-106767619D01*
X144868780Y-106481904D02*
X143868780Y-106481904D01*
X144011638Y-106577142D01*
X144106876Y-106672380D01*
X144154495Y-106767619D01*
X180173333Y-86347142D02*
X180125714Y-86394761D01*
X179982857Y-86442380D01*
X179887619Y-86442380D01*
X179744761Y-86394761D01*
X179649523Y-86299523D01*
X179601904Y-86204285D01*
X179554285Y-86013809D01*
X179554285Y-85870952D01*
X179601904Y-85680476D01*
X179649523Y-85585238D01*
X179744761Y-85490000D01*
X179887619Y-85442380D01*
X179982857Y-85442380D01*
X180125714Y-85490000D01*
X180173333Y-85537619D01*
X181125714Y-86442380D02*
X180554285Y-86442380D01*
X180840000Y-86442380D02*
X180840000Y-85442380D01*
X180744761Y-85585238D01*
X180649523Y-85680476D01*
X180554285Y-85728095D01*
X184749047Y-87601428D02*
X185510952Y-87601428D01*
X185130000Y-87982380D02*
X185130000Y-87220476D01*
X147307142Y-82615066D02*
X147354761Y-82662685D01*
X147402380Y-82805542D01*
X147402380Y-82900780D01*
X147354761Y-83043638D01*
X147259523Y-83138876D01*
X147164285Y-83186495D01*
X146973809Y-83234114D01*
X146830952Y-83234114D01*
X146640476Y-83186495D01*
X146545238Y-83138876D01*
X146450000Y-83043638D01*
X146402380Y-82900780D01*
X146402380Y-82805542D01*
X146450000Y-82662685D01*
X146497619Y-82615066D01*
X146497619Y-82234114D02*
X146450000Y-82186495D01*
X146402380Y-82091257D01*
X146402380Y-81853161D01*
X146450000Y-81757923D01*
X146497619Y-81710304D01*
X146592857Y-81662685D01*
X146688095Y-81662685D01*
X146830952Y-81710304D01*
X147402380Y-82281733D01*
X147402380Y-81662685D01*
X148561428Y-78039352D02*
X148561428Y-77277447D01*
X148942380Y-77658400D02*
X148180476Y-77658400D01*
X167493333Y-107037142D02*
X167445714Y-107084761D01*
X167302857Y-107132380D01*
X167207619Y-107132380D01*
X167064761Y-107084761D01*
X166969523Y-106989523D01*
X166921904Y-106894285D01*
X166874285Y-106703809D01*
X166874285Y-106560952D01*
X166921904Y-106370476D01*
X166969523Y-106275238D01*
X167064761Y-106180000D01*
X167207619Y-106132380D01*
X167302857Y-106132380D01*
X167445714Y-106180000D01*
X167493333Y-106227619D01*
X167826666Y-106132380D02*
X168445714Y-106132380D01*
X168112380Y-106513333D01*
X168255238Y-106513333D01*
X168350476Y-106560952D01*
X168398095Y-106608571D01*
X168445714Y-106703809D01*
X168445714Y-106941904D01*
X168398095Y-107037142D01*
X168350476Y-107084761D01*
X168255238Y-107132380D01*
X167969523Y-107132380D01*
X167874285Y-107084761D01*
X167826666Y-107037142D01*
X169267142Y-82696666D02*
X169314761Y-82744285D01*
X169362380Y-82887142D01*
X169362380Y-82982380D01*
X169314761Y-83125238D01*
X169219523Y-83220476D01*
X169124285Y-83268095D01*
X168933809Y-83315714D01*
X168790952Y-83315714D01*
X168600476Y-83268095D01*
X168505238Y-83220476D01*
X168410000Y-83125238D01*
X168362380Y-82982380D01*
X168362380Y-82887142D01*
X168410000Y-82744285D01*
X168457619Y-82696666D01*
X168695714Y-81839523D02*
X169362380Y-81839523D01*
X168314761Y-82077619D02*
X169029047Y-82315714D01*
X169029047Y-81696666D01*
X172830476Y-123912380D02*
X172830476Y-122912380D01*
X173211428Y-122912380D01*
X173306666Y-122960000D01*
X173354285Y-123007619D01*
X173401904Y-123102857D01*
X173401904Y-123245714D01*
X173354285Y-123340952D01*
X173306666Y-123388571D01*
X173211428Y-123436190D01*
X172830476Y-123436190D01*
X173735238Y-122912380D02*
X173973333Y-123912380D01*
X174163809Y-123198095D01*
X174354285Y-123912380D01*
X174592380Y-122912380D01*
X175544761Y-123912380D02*
X175211428Y-123436190D01*
X174973333Y-123912380D02*
X174973333Y-122912380D01*
X175354285Y-122912380D01*
X175449523Y-122960000D01*
X175497142Y-123007619D01*
X175544761Y-123102857D01*
X175544761Y-123245714D01*
X175497142Y-123340952D01*
X175449523Y-123388571D01*
X175354285Y-123436190D01*
X174973333Y-123436190D01*
X176544761Y-123912380D02*
X176211428Y-123436190D01*
X175973333Y-123912380D02*
X175973333Y-122912380D01*
X176354285Y-122912380D01*
X176449523Y-122960000D01*
X176497142Y-123007619D01*
X176544761Y-123102857D01*
X176544761Y-123245714D01*
X176497142Y-123340952D01*
X176449523Y-123388571D01*
X176354285Y-123436190D01*
X175973333Y-123436190D01*
X177497142Y-123912380D02*
X176925714Y-123912380D01*
X177211428Y-123912380D02*
X177211428Y-122912380D01*
X177116190Y-123055238D01*
X177020952Y-123150476D01*
X176925714Y-123198095D01*
X164933333Y-89642380D02*
X164600000Y-89166190D01*
X164361904Y-89642380D02*
X164361904Y-88642380D01*
X164742857Y-88642380D01*
X164838095Y-88690000D01*
X164885714Y-88737619D01*
X164933333Y-88832857D01*
X164933333Y-88975714D01*
X164885714Y-89070952D01*
X164838095Y-89118571D01*
X164742857Y-89166190D01*
X164361904Y-89166190D01*
X165885714Y-89642380D02*
X165314285Y-89642380D01*
X165600000Y-89642380D02*
X165600000Y-88642380D01*
X165504761Y-88785238D01*
X165409523Y-88880476D01*
X165314285Y-88928095D01*
X146157380Y-100496666D02*
X145681190Y-100830000D01*
X146157380Y-101068095D02*
X145157380Y-101068095D01*
X145157380Y-100687142D01*
X145205000Y-100591904D01*
X145252619Y-100544285D01*
X145347857Y-100496666D01*
X145490714Y-100496666D01*
X145585952Y-100544285D01*
X145633571Y-100591904D01*
X145681190Y-100687142D01*
X145681190Y-101068095D01*
X145252619Y-100115714D02*
X145205000Y-100068095D01*
X145157380Y-99972857D01*
X145157380Y-99734761D01*
X145205000Y-99639523D01*
X145252619Y-99591904D01*
X145347857Y-99544285D01*
X145443095Y-99544285D01*
X145585952Y-99591904D01*
X146157380Y-100163333D01*
X146157380Y-99544285D01*
X172157380Y-104621666D02*
X171681190Y-104955000D01*
X172157380Y-105193095D02*
X171157380Y-105193095D01*
X171157380Y-104812142D01*
X171205000Y-104716904D01*
X171252619Y-104669285D01*
X171347857Y-104621666D01*
X171490714Y-104621666D01*
X171585952Y-104669285D01*
X171633571Y-104716904D01*
X171681190Y-104812142D01*
X171681190Y-105193095D01*
X171157380Y-104288333D02*
X171157380Y-103669285D01*
X171538333Y-104002619D01*
X171538333Y-103859761D01*
X171585952Y-103764523D01*
X171633571Y-103716904D01*
X171728809Y-103669285D01*
X171966904Y-103669285D01*
X172062142Y-103716904D01*
X172109761Y-103764523D01*
X172157380Y-103859761D01*
X172157380Y-104145476D01*
X172109761Y-104240714D01*
X172062142Y-104288333D01*
X165297380Y-96371666D02*
X164821190Y-96705000D01*
X165297380Y-96943095D02*
X164297380Y-96943095D01*
X164297380Y-96562142D01*
X164345000Y-96466904D01*
X164392619Y-96419285D01*
X164487857Y-96371666D01*
X164630714Y-96371666D01*
X164725952Y-96419285D01*
X164773571Y-96466904D01*
X164821190Y-96562142D01*
X164821190Y-96943095D01*
X164630714Y-95514523D02*
X165297380Y-95514523D01*
X164249761Y-95752619D02*
X164964047Y-95990714D01*
X164964047Y-95371666D01*
X156718095Y-91102380D02*
X156718095Y-91911904D01*
X156765714Y-92007142D01*
X156813333Y-92054761D01*
X156908571Y-92102380D01*
X157099047Y-92102380D01*
X157194285Y-92054761D01*
X157241904Y-92007142D01*
X157289523Y-91911904D01*
X157289523Y-91102380D01*
X158289523Y-92102380D02*
X157718095Y-92102380D01*
X158003809Y-92102380D02*
X158003809Y-91102380D01*
X157908571Y-91245238D01*
X157813333Y-91340476D01*
X157718095Y-91388095D01*
X177038095Y-99690714D02*
X177038095Y-100357380D01*
X176609523Y-99690714D02*
X176609523Y-100214523D01*
X176657142Y-100309761D01*
X176752380Y-100357380D01*
X176895238Y-100357380D01*
X176990476Y-100309761D01*
X177038095Y-100262142D01*
X178085714Y-100262142D02*
X178038095Y-100309761D01*
X177895238Y-100357380D01*
X177800000Y-100357380D01*
X177657142Y-100309761D01*
X177561904Y-100214523D01*
X177514285Y-100119285D01*
X177466666Y-99928809D01*
X177466666Y-99785952D01*
X177514285Y-99595476D01*
X177561904Y-99500238D01*
X177657142Y-99405000D01*
X177800000Y-99357380D01*
X177895238Y-99357380D01*
X178038095Y-99405000D01*
X178085714Y-99452619D01*
X179038095Y-100357380D02*
X178466666Y-100357380D01*
X178752380Y-100357380D02*
X178752380Y-99357380D01*
X178657142Y-99500238D01*
X178561904Y-99595476D01*
X178466666Y-99643095D01*
M02*
