G04 #@! TF.GenerationSoftware,KiCad,Pcbnew,(5.0.0)*
G04 #@! TF.CreationDate,2018-10-11T16:46:39-05:00*
G04 #@! TF.ProjectId,FinalDistCircuit,46696E616C4469737443697263756974,rev?*
G04 #@! TF.SameCoordinates,Original*
G04 #@! TF.FileFunction,Profile,NP*
%FSLAX46Y46*%
G04 Gerber Fmt 4.6, Leading zero omitted, Abs format (unit mm)*
G04 Created by KiCad (PCBNEW (5.0.0)) date 10/11/18 16:46:39*
%MOMM*%
%LPD*%
G01*
G04 APERTURE LIST*
%ADD10C,0.150000*%
%ADD11C,0.200000*%
G04 APERTURE END LIST*
D10*
X247523000Y-36576000D02*
X247523000Y-33274000D01*
X250825000Y-33274000D02*
X249618500Y-33274000D01*
X254889000Y-29210000D02*
X250825000Y-33274000D01*
X247523000Y-33274000D02*
X249618500Y-33274000D01*
X244094000Y-74168000D02*
X244221000Y-74168000D01*
X238061500Y-80200500D02*
X244094000Y-74168000D01*
X238061500Y-80327500D02*
X238061500Y-80200500D01*
X238061500Y-92456000D02*
X238125000Y-92519500D01*
X238061500Y-80327500D02*
X238061500Y-92456000D01*
D11*
X238950500Y-93345000D02*
X238125000Y-92519500D01*
X238950500Y-97345500D02*
X238950500Y-93345000D01*
X239141000Y-97536000D02*
X238950500Y-97345500D01*
D10*
X223139000Y-44386500D02*
X223139000Y-43307000D01*
D11*
X213804500Y-53721000D02*
X199009000Y-53721000D01*
X223139000Y-44386500D02*
X213804500Y-53721000D01*
D10*
X183007000Y-87503000D02*
X183261000Y-87249000D01*
X183007000Y-97917000D02*
X183007000Y-87503000D01*
X184785000Y-85725000D02*
X183261000Y-87249000D01*
D11*
X189484000Y-41275000D02*
X189484000Y-41338500D01*
X190055500Y-41910000D02*
X189484000Y-41338500D01*
X190055500Y-46164500D02*
X190055500Y-41910000D01*
X190690500Y-46799500D02*
X190055500Y-46164500D01*
X191325500Y-46799500D02*
X190690500Y-46799500D01*
X196215000Y-51689000D02*
X191325500Y-46799500D01*
X196977000Y-51689000D02*
X196215000Y-51689000D01*
X199009000Y-53721000D02*
X196977000Y-51689000D01*
D10*
X190055500Y-79184500D02*
X186944000Y-82296000D01*
X193738500Y-77851000D02*
X201422000Y-77851000D01*
X192405000Y-79184500D02*
X193738500Y-77851000D01*
X190055500Y-79184500D02*
X192405000Y-79184500D01*
X247523000Y-36576000D02*
X250571000Y-39624000D01*
X254889000Y-25146000D02*
X254889000Y-29210000D01*
X251841000Y-25146000D02*
X254889000Y-25146000D01*
X161290000Y-42418000D02*
X186309000Y-33274000D01*
X156591000Y-49022000D02*
X161290000Y-42418000D01*
X189865000Y-33274000D02*
X186309000Y-33274000D01*
X189865000Y-36322000D02*
X189865000Y-33274000D01*
X189484000Y-36703000D02*
X189865000Y-36322000D01*
X189484000Y-41275000D02*
X189484000Y-36703000D01*
X201930000Y-78359000D02*
X201422000Y-77851000D01*
X204089000Y-78359000D02*
X201930000Y-78359000D01*
X217932000Y-25146000D02*
X223647000Y-25146000D01*
X217932000Y-30480000D02*
X217932000Y-25146000D01*
X223139000Y-35687000D02*
X217932000Y-30480000D01*
X250444000Y-61087000D02*
X251841000Y-61087000D01*
X250444000Y-72136000D02*
X250444000Y-61087000D01*
X248412000Y-74168000D02*
X250444000Y-72136000D01*
X244221000Y-74168000D02*
X248412000Y-74168000D01*
X180975000Y-99949000D02*
X183007000Y-97917000D01*
X176911000Y-99949000D02*
X180975000Y-99949000D01*
X174625000Y-97663000D02*
X176911000Y-99949000D01*
X184785000Y-85598000D02*
X184785000Y-85725000D01*
X184785000Y-84455000D02*
X184785000Y-85598000D01*
X186944000Y-82296000D02*
X184785000Y-84455000D01*
X212217000Y-86487000D02*
X204089000Y-78359000D01*
X212217000Y-94869000D02*
X212217000Y-86487000D01*
X212090000Y-94996000D02*
X212217000Y-94869000D01*
X210439000Y-96647000D02*
X212090000Y-94996000D01*
X206502000Y-96647000D02*
X210439000Y-96647000D01*
X206375000Y-96774000D02*
X206502000Y-96647000D01*
X203835000Y-99314000D02*
X206375000Y-96774000D01*
X202311000Y-100838000D02*
X203835000Y-99314000D01*
X202311000Y-103124000D02*
X202311000Y-100838000D01*
X203581000Y-104394000D02*
X202311000Y-103124000D01*
X218313000Y-104394000D02*
X203581000Y-104394000D01*
X243586000Y-101981000D02*
X243586000Y-100076000D01*
X242316000Y-98806000D02*
X240411000Y-98806000D01*
D11*
X242316000Y-98806000D02*
X243586000Y-100076000D01*
X239141000Y-97536000D02*
X240411000Y-98806000D01*
D10*
X223139000Y-43307000D02*
X223139000Y-41402000D01*
X238125000Y-25146000D02*
X223647000Y-25146000D01*
X223139000Y-35687000D02*
X223139000Y-41402000D01*
X243586000Y-104394000D02*
X223139000Y-104394000D01*
X243586000Y-104267000D02*
X243586000Y-104394000D01*
X155067000Y-79756000D02*
X155067000Y-82042000D01*
X165989000Y-79756000D02*
X155067000Y-79756000D01*
X156591000Y-52832000D02*
X165989000Y-52832000D01*
X156591000Y-49022000D02*
X156591000Y-52832000D01*
X251841000Y-25146000D02*
X238125000Y-25146000D01*
X243586000Y-101981000D02*
X243586000Y-104267000D01*
D11*
X251841000Y-60960000D02*
X251841000Y-61087000D01*
D10*
X165989000Y-72898000D02*
X165989000Y-79756000D01*
X169926000Y-97663000D02*
X174625000Y-97663000D01*
X168021000Y-95758000D02*
X169926000Y-97663000D01*
D11*
X155067000Y-82042000D02*
X155067000Y-82296000D01*
D10*
X160147000Y-94488000D02*
X158115000Y-94488000D01*
X161163000Y-95758000D02*
X160147000Y-94488000D01*
X250571000Y-50546000D02*
X250571000Y-39624000D01*
X251841000Y-52070000D02*
X250571000Y-50546000D01*
X251841000Y-60960000D02*
X251841000Y-52070000D01*
X218313000Y-104394000D02*
X223139000Y-104394000D01*
D11*
X161163000Y-95758000D02*
X168021000Y-95758000D01*
X158115000Y-94234000D02*
X158115000Y-94488000D01*
X158115000Y-90678000D02*
X158115000Y-94234000D01*
X155067000Y-87630000D02*
X158115000Y-90678000D01*
X155067000Y-82296000D02*
X155067000Y-87630000D01*
X165989000Y-52832000D02*
X165989000Y-72898000D01*
M02*
