M48
INCH,TZ
T1C0.0157
T2C0.0236
T3C0.0315
T4C0.0354
T5C0.0394
T6C0.0900
%
G90
G05
T1
X63153Y-36100
X65200Y-36100
X65987Y-22850
X65987Y-23350
X65987Y-23850
X66337Y-29050
X66337Y-29550
X66337Y-30550
X66700Y-35400
X67400Y-23600
X68113Y-22350
X68113Y-23350
X68387Y-27450
X68463Y-29050
X68463Y-30050
X68836Y-35300
X68925Y-22000
X68943Y-33950
X69000Y-18650
X69250Y-24550
X69750Y-33950
X69950Y-23250
X69950Y-29743
X70513Y-25950
X70513Y-26450
X70636Y-29686
X70750Y-24293
X70979Y-31350
X71193Y-21700
X71500Y-37554
X71950Y-23900
X72000Y-21700
X72000Y-27121
X72050Y-21050
X72200Y-28450
X72200Y-30000
X72700Y-30850
X72787Y-23450
X72787Y-24993
X72847Y-24010
X73350Y-25800
X74032Y-29482
X74050Y-30150
X74050Y-31100
X74375Y-21125
X74500Y-29100
X74600Y-19357
X74913Y-23450
X74913Y-23950
X74913Y-24450
X74913Y-24993
X76050Y-27650
X76100Y-24600
X76500Y-29150
X76550Y-27250
X76554Y-23450
X76850Y-21943
X76886Y-25036
X76900Y-29300
X76956Y-25913
X77250Y-29700
X77364Y-21186
X77550Y-27050
X77700Y-25950
X78338Y-25708
X78693Y-22150
X78850Y-24100
X78900Y-28100
X79215Y-25639
X79300Y-27050
X79300Y-28700
X79450Y-30050
X79657Y-24100
X79827Y-26227
X79850Y-27050
X79850Y-29200
X81400Y-30850
X81700Y-23200
X81701Y-30149
X81750Y-28250
X82050Y-25100
X82150Y-26250
X82200Y-29250
X82349Y-32451
X82600Y-24050
X82750Y-26307
X82750Y-28050
X82944Y-28393
X84100Y-22785
X84884Y-23950
X84900Y-25050
X85000Y-36900
X85050Y-34950
X85250Y-21400
X85250Y-30450
X85300Y-22650
X85400Y-32943
X85485Y-26050
X85546Y-29800
X85550Y-21000
X85593Y-36150
X85850Y-32350
X86200Y-36850
X86250Y-30557
X86354Y-29800
X86400Y-34850
X86649Y-28000
X86750Y-26050
X87400Y-11757
X87900Y-22700
X88000Y-32950
X88300Y-17800
X88450Y-29950
X88600Y-28250
X88729Y-22200
X88950Y-32600
X89250Y-26850
X89250Y-30950
X89407Y-29137
X89407Y-28250
X89450Y-19450
X89450Y-23400
X90250Y-27800
X90650Y-17000
X90700Y-22700
X91750Y-12946
X91750Y-13754
X91907Y-22200
X92000Y-28000
X92050Y-32250
X92100Y-25500
X92200Y-21600
X92200Y-29550
X92500Y-23650
X93007Y-19450
X93250Y-26300
X93404Y-14050
X93650Y-26450
X93800Y-30400
X93809Y-27559
X94000Y-12350
X94450Y-20600
X94600Y-21200
T2
X89050Y-36600
X89050Y-37100
X89050Y-37600
X67900Y-32750
X67900Y-33750
X70900Y-32750
X70900Y-33750
X94850Y-39500
X94850Y-40000
X94850Y-40500
T3
X86450Y-11000
X88419Y-11000
X66781Y-36650
X68750Y-36650
X89950Y-11950
X90950Y-10950
X91950Y-11950
X70150Y-35900
X70937Y-35900
X91050Y-38750
X92050Y-39750
X93050Y-38750
X70250Y-37750
X70250Y-38537
X97300Y-10550
X97300Y-12519
T4
X97150Y-16450
X98150Y-16450
X96600Y-26000
X97600Y-26000
X68900Y-17375
X68900Y-20375
X69900Y-17375
X69900Y-20375
X70900Y-17375
X70900Y-20375
X71900Y-17375
X71900Y-20375
X72900Y-17375
X72900Y-20375
X73900Y-17375
X73900Y-20375
X97150Y-18250
X98150Y-18250
X84500Y-28400
X84500Y-29400
X84500Y-30400
X84500Y-31400
X84500Y-32400
X84500Y-33400
X84500Y-34400
X84500Y-35400
X84500Y-36400
X87500Y-28400
X87500Y-29400
X87500Y-30400
X87500Y-31400
X87500Y-32400
X87500Y-33400
X87500Y-34400
X87500Y-35400
X87500Y-36400
X65800Y-33450
X65800Y-34450
X96600Y-27800
X97600Y-27800
X80500Y-22150
X80500Y-23150
X80500Y-24150
X80500Y-25150
X80500Y-26150
X80500Y-27150
X80500Y-28150
X80500Y-29150
X80500Y-30150
X83500Y-22150
X83500Y-23150
X83500Y-24150
X83500Y-25150
X83500Y-26150
X83500Y-27150
X83500Y-28150
X83500Y-29150
X83500Y-30150
T5
X64150Y-17100
X65090Y-16758
X66029Y-16416
X66969Y-16074
X67909Y-15732
X68848Y-15390
X69788Y-15048
X70728Y-14706
X71668Y-14364
X72607Y-14022
X82300Y-39000
X82300Y-40000
X83300Y-39000
X83300Y-40000
X84300Y-39000
X84300Y-40000
X85300Y-39000
X85300Y-40000
X86300Y-39000
X86300Y-40000
X87300Y-39000
X87300Y-40000
X88300Y-39000
X88300Y-40000
X94400Y-13650
X94400Y-14650
X94400Y-15650
X94400Y-16650
X94400Y-17650
X94400Y-18650
X94400Y-19650
X95400Y-13650
X95400Y-14650
X95400Y-15650
X95400Y-16650
X95400Y-17650
X95400Y-18650
X95400Y-19650
X98400Y-21200
X98400Y-22200
X98400Y-23200
X74250Y-13600
X93200Y-15550
X93200Y-16534
X93200Y-17519
X86200Y-20500
X86200Y-21500
X86200Y-22500
X86200Y-23500
X86200Y-24500
X86200Y-25500
X86200Y-26500
X87200Y-20500
X87200Y-21500
X87200Y-22500
X87200Y-23500
X87200Y-24500
X87200Y-25500
X87200Y-26500
X94400Y-22750
X94400Y-23750
X94400Y-24750
X94400Y-25750
X94400Y-26750
X94400Y-27750
X94400Y-28750
X95400Y-22750
X95400Y-23750
X95400Y-24750
X95400Y-25750
X95400Y-26750
X95400Y-27750
X95400Y-28750
X93200Y-32800
X93200Y-33784
X93200Y-34769
X93200Y-27050
X93200Y-28034
X93200Y-29019
X93200Y-21300
X93200Y-22284
X93200Y-23269
X62400Y-20050
X63400Y-20050
X64400Y-20050
X65400Y-20050
T6
X77800Y-28325
X77800Y-23325
T0
M30
