G04 #@! TF.GenerationSoftware,KiCad,Pcbnew,(5.0.0)*
G04 #@! TF.CreationDate,2018-10-11T16:46:39-05:00*
G04 #@! TF.ProjectId,FinalDistCircuit,46696E616C4469737443697263756974,rev?*
G04 #@! TF.SameCoordinates,Original*
G04 #@! TF.FileFunction,Soldermask,Bot*
G04 #@! TF.FilePolarity,Negative*
%FSLAX46Y46*%
G04 Gerber Fmt 4.6, Leading zero omitted, Abs format (unit mm)*
G04 Created by KiCad (PCBNEW (5.0.0)) date 10/11/18 16:46:39*
%MOMM*%
%LPD*%
G01*
G04 APERTURE LIST*
%ADD10C,2.600000*%
%ADD11C,0.100000*%
%ADD12C,1.550000*%
%ADD13O,2.100000X2.100000*%
%ADD14R,2.100000X2.100000*%
%ADD15C,4.400000*%
%ADD16C,2.200000*%
%ADD17R,2.000000X2.000000*%
%ADD18C,2.000000*%
%ADD19C,4.210000*%
%ADD20C,3.702000*%
%ADD21C,2.100000*%
%ADD22C,2.100000*%
%ADD23C,1.840000*%
%ADD24C,1.825000*%
%ADD25R,2.200000X2.200000*%
%ADD26O,1.900000X1.300000*%
%ADD27R,1.900000X1.300000*%
%ADD28C,1.600000*%
%ADD29R,1.950000X1.000000*%
G04 APERTURE END LIST*
D10*
G04 #@! TO.C,REF\002A\002A*
X204851000Y-101981000D03*
G04 #@! TD*
D11*
G04 #@! TO.C,C12*
G36*
X235666071Y-34788623D02*
X235698781Y-34793475D01*
X235730857Y-34801509D01*
X235761991Y-34812649D01*
X235791884Y-34826787D01*
X235820247Y-34843787D01*
X235846807Y-34863485D01*
X235871308Y-34885692D01*
X235893515Y-34910193D01*
X235913213Y-34936753D01*
X235930213Y-34965116D01*
X235944351Y-34995009D01*
X235955491Y-35026143D01*
X235963525Y-35058219D01*
X235968377Y-35090929D01*
X235970000Y-35123956D01*
X235970000Y-36250044D01*
X235968377Y-36283071D01*
X235963525Y-36315781D01*
X235955491Y-36347857D01*
X235944351Y-36378991D01*
X235930213Y-36408884D01*
X235913213Y-36437247D01*
X235893515Y-36463807D01*
X235871308Y-36488308D01*
X235846807Y-36510515D01*
X235820247Y-36530213D01*
X235791884Y-36547213D01*
X235761991Y-36561351D01*
X235730857Y-36572491D01*
X235698781Y-36580525D01*
X235666071Y-36585377D01*
X235633044Y-36587000D01*
X234756956Y-36587000D01*
X234723929Y-36585377D01*
X234691219Y-36580525D01*
X234659143Y-36572491D01*
X234628009Y-36561351D01*
X234598116Y-36547213D01*
X234569753Y-36530213D01*
X234543193Y-36510515D01*
X234518692Y-36488308D01*
X234496485Y-36463807D01*
X234476787Y-36437247D01*
X234459787Y-36408884D01*
X234445649Y-36378991D01*
X234434509Y-36347857D01*
X234426475Y-36315781D01*
X234421623Y-36283071D01*
X234420000Y-36250044D01*
X234420000Y-35123956D01*
X234421623Y-35090929D01*
X234426475Y-35058219D01*
X234434509Y-35026143D01*
X234445649Y-34995009D01*
X234459787Y-34965116D01*
X234476787Y-34936753D01*
X234496485Y-34910193D01*
X234518692Y-34885692D01*
X234543193Y-34863485D01*
X234569753Y-34843787D01*
X234598116Y-34826787D01*
X234628009Y-34812649D01*
X234659143Y-34801509D01*
X234691219Y-34793475D01*
X234723929Y-34788623D01*
X234756956Y-34787000D01*
X235633044Y-34787000D01*
X235666071Y-34788623D01*
X235666071Y-34788623D01*
G37*
D12*
X235195000Y-35687000D03*
D11*
G36*
X237716071Y-34788623D02*
X237748781Y-34793475D01*
X237780857Y-34801509D01*
X237811991Y-34812649D01*
X237841884Y-34826787D01*
X237870247Y-34843787D01*
X237896807Y-34863485D01*
X237921308Y-34885692D01*
X237943515Y-34910193D01*
X237963213Y-34936753D01*
X237980213Y-34965116D01*
X237994351Y-34995009D01*
X238005491Y-35026143D01*
X238013525Y-35058219D01*
X238018377Y-35090929D01*
X238020000Y-35123956D01*
X238020000Y-36250044D01*
X238018377Y-36283071D01*
X238013525Y-36315781D01*
X238005491Y-36347857D01*
X237994351Y-36378991D01*
X237980213Y-36408884D01*
X237963213Y-36437247D01*
X237943515Y-36463807D01*
X237921308Y-36488308D01*
X237896807Y-36510515D01*
X237870247Y-36530213D01*
X237841884Y-36547213D01*
X237811991Y-36561351D01*
X237780857Y-36572491D01*
X237748781Y-36580525D01*
X237716071Y-36585377D01*
X237683044Y-36587000D01*
X236806956Y-36587000D01*
X236773929Y-36585377D01*
X236741219Y-36580525D01*
X236709143Y-36572491D01*
X236678009Y-36561351D01*
X236648116Y-36547213D01*
X236619753Y-36530213D01*
X236593193Y-36510515D01*
X236568692Y-36488308D01*
X236546485Y-36463807D01*
X236526787Y-36437247D01*
X236509787Y-36408884D01*
X236495649Y-36378991D01*
X236484509Y-36347857D01*
X236476475Y-36315781D01*
X236471623Y-36283071D01*
X236470000Y-36250044D01*
X236470000Y-35123956D01*
X236471623Y-35090929D01*
X236476475Y-35058219D01*
X236484509Y-35026143D01*
X236495649Y-34995009D01*
X236509787Y-34965116D01*
X236526787Y-34936753D01*
X236546485Y-34910193D01*
X236568692Y-34885692D01*
X236593193Y-34863485D01*
X236619753Y-34843787D01*
X236648116Y-34826787D01*
X236678009Y-34812649D01*
X236709143Y-34801509D01*
X236741219Y-34793475D01*
X236773929Y-34788623D01*
X236806956Y-34787000D01*
X237683044Y-34787000D01*
X237716071Y-34788623D01*
X237716071Y-34788623D01*
G37*
D12*
X237245000Y-35687000D03*
G04 #@! TD*
D13*
G04 #@! TO.C,NeckTonePot1*
X239776000Y-49911000D03*
X242316000Y-49911000D03*
X239776000Y-47371000D03*
X242316000Y-47371000D03*
X239776000Y-44831000D03*
X242316000Y-44831000D03*
X239776000Y-42291000D03*
X242316000Y-42291000D03*
X239776000Y-39751000D03*
X242316000Y-39751000D03*
X239776000Y-37211000D03*
X242316000Y-37211000D03*
X239776000Y-34671000D03*
D14*
X242316000Y-34671000D03*
G04 #@! TD*
D15*
G04 #@! TO.C,BASS*
X229728000Y-81412000D03*
X229728000Y-90212000D03*
D16*
X236728000Y-83312000D03*
X236728000Y-85812000D03*
X236728000Y-88312000D03*
G04 #@! TD*
D17*
G04 #@! TO.C,C10*
X174625000Y-93091000D03*
D18*
X169625000Y-93091000D03*
G04 #@! TD*
D19*
G04 #@! TO.C,9V1*
X197612000Y-71945500D03*
X197612001Y-59245499D03*
D20*
X191262001Y-54483000D03*
X191262000Y-76708000D03*
G04 #@! TD*
D13*
G04 #@! TO.C,Jack1*
X249936000Y-53848000D03*
X249936000Y-56388000D03*
D14*
X249936000Y-58928000D03*
G04 #@! TD*
D11*
G04 #@! TO.C,R28*
G36*
X178269071Y-74773623D02*
X178301781Y-74778475D01*
X178333857Y-74786509D01*
X178364991Y-74797649D01*
X178394884Y-74811787D01*
X178423247Y-74828787D01*
X178449807Y-74848485D01*
X178474308Y-74870692D01*
X178496515Y-74895193D01*
X178516213Y-74921753D01*
X178533213Y-74950116D01*
X178547351Y-74980009D01*
X178558491Y-75011143D01*
X178566525Y-75043219D01*
X178571377Y-75075929D01*
X178573000Y-75108956D01*
X178573000Y-75985044D01*
X178571377Y-76018071D01*
X178566525Y-76050781D01*
X178558491Y-76082857D01*
X178547351Y-76113991D01*
X178533213Y-76143884D01*
X178516213Y-76172247D01*
X178496515Y-76198807D01*
X178474308Y-76223308D01*
X178449807Y-76245515D01*
X178423247Y-76265213D01*
X178394884Y-76282213D01*
X178364991Y-76296351D01*
X178333857Y-76307491D01*
X178301781Y-76315525D01*
X178269071Y-76320377D01*
X178236044Y-76322000D01*
X177109956Y-76322000D01*
X177076929Y-76320377D01*
X177044219Y-76315525D01*
X177012143Y-76307491D01*
X176981009Y-76296351D01*
X176951116Y-76282213D01*
X176922753Y-76265213D01*
X176896193Y-76245515D01*
X176871692Y-76223308D01*
X176849485Y-76198807D01*
X176829787Y-76172247D01*
X176812787Y-76143884D01*
X176798649Y-76113991D01*
X176787509Y-76082857D01*
X176779475Y-76050781D01*
X176774623Y-76018071D01*
X176773000Y-75985044D01*
X176773000Y-75108956D01*
X176774623Y-75075929D01*
X176779475Y-75043219D01*
X176787509Y-75011143D01*
X176798649Y-74980009D01*
X176812787Y-74950116D01*
X176829787Y-74921753D01*
X176849485Y-74895193D01*
X176871692Y-74870692D01*
X176896193Y-74848485D01*
X176922753Y-74828787D01*
X176951116Y-74811787D01*
X176981009Y-74797649D01*
X177012143Y-74786509D01*
X177044219Y-74778475D01*
X177076929Y-74773623D01*
X177109956Y-74772000D01*
X178236044Y-74772000D01*
X178269071Y-74773623D01*
X178269071Y-74773623D01*
G37*
D12*
X177673000Y-75547000D03*
D11*
G36*
X178269071Y-76823623D02*
X178301781Y-76828475D01*
X178333857Y-76836509D01*
X178364991Y-76847649D01*
X178394884Y-76861787D01*
X178423247Y-76878787D01*
X178449807Y-76898485D01*
X178474308Y-76920692D01*
X178496515Y-76945193D01*
X178516213Y-76971753D01*
X178533213Y-77000116D01*
X178547351Y-77030009D01*
X178558491Y-77061143D01*
X178566525Y-77093219D01*
X178571377Y-77125929D01*
X178573000Y-77158956D01*
X178573000Y-78035044D01*
X178571377Y-78068071D01*
X178566525Y-78100781D01*
X178558491Y-78132857D01*
X178547351Y-78163991D01*
X178533213Y-78193884D01*
X178516213Y-78222247D01*
X178496515Y-78248807D01*
X178474308Y-78273308D01*
X178449807Y-78295515D01*
X178423247Y-78315213D01*
X178394884Y-78332213D01*
X178364991Y-78346351D01*
X178333857Y-78357491D01*
X178301781Y-78365525D01*
X178269071Y-78370377D01*
X178236044Y-78372000D01*
X177109956Y-78372000D01*
X177076929Y-78370377D01*
X177044219Y-78365525D01*
X177012143Y-78357491D01*
X176981009Y-78346351D01*
X176951116Y-78332213D01*
X176922753Y-78315213D01*
X176896193Y-78295515D01*
X176871692Y-78273308D01*
X176849485Y-78248807D01*
X176829787Y-78222247D01*
X176812787Y-78193884D01*
X176798649Y-78163991D01*
X176787509Y-78132857D01*
X176779475Y-78100781D01*
X176774623Y-78068071D01*
X176773000Y-78035044D01*
X176773000Y-77158956D01*
X176774623Y-77125929D01*
X176779475Y-77093219D01*
X176787509Y-77061143D01*
X176798649Y-77030009D01*
X176812787Y-77000116D01*
X176829787Y-76971753D01*
X176849485Y-76945193D01*
X176871692Y-76920692D01*
X176896193Y-76898485D01*
X176922753Y-76878787D01*
X176951116Y-76861787D01*
X176981009Y-76847649D01*
X177012143Y-76836509D01*
X177044219Y-76828475D01*
X177076929Y-76823623D01*
X177109956Y-76822000D01*
X178236044Y-76822000D01*
X178269071Y-76823623D01*
X178269071Y-76823623D01*
G37*
D12*
X177673000Y-77597000D03*
G04 #@! TD*
D11*
G04 #@! TO.C,R22*
G36*
X175586071Y-85334623D02*
X175618781Y-85339475D01*
X175650857Y-85347509D01*
X175681991Y-85358649D01*
X175711884Y-85372787D01*
X175740247Y-85389787D01*
X175766807Y-85409485D01*
X175791308Y-85431692D01*
X175813515Y-85456193D01*
X175833213Y-85482753D01*
X175850213Y-85511116D01*
X175864351Y-85541009D01*
X175875491Y-85572143D01*
X175883525Y-85604219D01*
X175888377Y-85636929D01*
X175890000Y-85669956D01*
X175890000Y-86796044D01*
X175888377Y-86829071D01*
X175883525Y-86861781D01*
X175875491Y-86893857D01*
X175864351Y-86924991D01*
X175850213Y-86954884D01*
X175833213Y-86983247D01*
X175813515Y-87009807D01*
X175791308Y-87034308D01*
X175766807Y-87056515D01*
X175740247Y-87076213D01*
X175711884Y-87093213D01*
X175681991Y-87107351D01*
X175650857Y-87118491D01*
X175618781Y-87126525D01*
X175586071Y-87131377D01*
X175553044Y-87133000D01*
X174676956Y-87133000D01*
X174643929Y-87131377D01*
X174611219Y-87126525D01*
X174579143Y-87118491D01*
X174548009Y-87107351D01*
X174518116Y-87093213D01*
X174489753Y-87076213D01*
X174463193Y-87056515D01*
X174438692Y-87034308D01*
X174416485Y-87009807D01*
X174396787Y-86983247D01*
X174379787Y-86954884D01*
X174365649Y-86924991D01*
X174354509Y-86893857D01*
X174346475Y-86861781D01*
X174341623Y-86829071D01*
X174340000Y-86796044D01*
X174340000Y-85669956D01*
X174341623Y-85636929D01*
X174346475Y-85604219D01*
X174354509Y-85572143D01*
X174365649Y-85541009D01*
X174379787Y-85511116D01*
X174396787Y-85482753D01*
X174416485Y-85456193D01*
X174438692Y-85431692D01*
X174463193Y-85409485D01*
X174489753Y-85389787D01*
X174518116Y-85372787D01*
X174548009Y-85358649D01*
X174579143Y-85347509D01*
X174611219Y-85339475D01*
X174643929Y-85334623D01*
X174676956Y-85333000D01*
X175553044Y-85333000D01*
X175586071Y-85334623D01*
X175586071Y-85334623D01*
G37*
D12*
X175115000Y-86233000D03*
D11*
G36*
X177636071Y-85334623D02*
X177668781Y-85339475D01*
X177700857Y-85347509D01*
X177731991Y-85358649D01*
X177761884Y-85372787D01*
X177790247Y-85389787D01*
X177816807Y-85409485D01*
X177841308Y-85431692D01*
X177863515Y-85456193D01*
X177883213Y-85482753D01*
X177900213Y-85511116D01*
X177914351Y-85541009D01*
X177925491Y-85572143D01*
X177933525Y-85604219D01*
X177938377Y-85636929D01*
X177940000Y-85669956D01*
X177940000Y-86796044D01*
X177938377Y-86829071D01*
X177933525Y-86861781D01*
X177925491Y-86893857D01*
X177914351Y-86924991D01*
X177900213Y-86954884D01*
X177883213Y-86983247D01*
X177863515Y-87009807D01*
X177841308Y-87034308D01*
X177816807Y-87056515D01*
X177790247Y-87076213D01*
X177761884Y-87093213D01*
X177731991Y-87107351D01*
X177700857Y-87118491D01*
X177668781Y-87126525D01*
X177636071Y-87131377D01*
X177603044Y-87133000D01*
X176726956Y-87133000D01*
X176693929Y-87131377D01*
X176661219Y-87126525D01*
X176629143Y-87118491D01*
X176598009Y-87107351D01*
X176568116Y-87093213D01*
X176539753Y-87076213D01*
X176513193Y-87056515D01*
X176488692Y-87034308D01*
X176466485Y-87009807D01*
X176446787Y-86983247D01*
X176429787Y-86954884D01*
X176415649Y-86924991D01*
X176404509Y-86893857D01*
X176396475Y-86861781D01*
X176391623Y-86829071D01*
X176390000Y-86796044D01*
X176390000Y-85669956D01*
X176391623Y-85636929D01*
X176396475Y-85604219D01*
X176404509Y-85572143D01*
X176415649Y-85541009D01*
X176429787Y-85511116D01*
X176446787Y-85482753D01*
X176466485Y-85456193D01*
X176488692Y-85431692D01*
X176513193Y-85409485D01*
X176539753Y-85389787D01*
X176568116Y-85372787D01*
X176598009Y-85358649D01*
X176629143Y-85347509D01*
X176661219Y-85339475D01*
X176693929Y-85334623D01*
X176726956Y-85333000D01*
X177603044Y-85333000D01*
X177636071Y-85334623D01*
X177636071Y-85334623D01*
G37*
D12*
X177165000Y-86233000D03*
G04 #@! TD*
D21*
G04 #@! TO.C,PickupInputs1*
X184422373Y-35615420D03*
D22*
X184422373Y-35615420D02*
X184422373Y-35615420D01*
D21*
X182035554Y-36484151D03*
D22*
X182035554Y-36484151D02*
X182035554Y-36484151D01*
D21*
X179648735Y-37352882D03*
D22*
X179648735Y-37352882D02*
X179648735Y-37352882D01*
D21*
X177261916Y-38221613D03*
D22*
X177261916Y-38221613D02*
X177261916Y-38221613D01*
D21*
X174875096Y-39090344D03*
D22*
X174875096Y-39090344D02*
X174875096Y-39090344D01*
D21*
X172488277Y-39959075D03*
D22*
X172488277Y-39959075D02*
X172488277Y-39959075D01*
D21*
X170101458Y-40827807D03*
D22*
X170101458Y-40827807D02*
X170101458Y-40827807D01*
D21*
X167714639Y-41696538D03*
D22*
X167714639Y-41696538D02*
X167714639Y-41696538D01*
D21*
X165327819Y-42565269D03*
D22*
X165327819Y-42565269D02*
X165327819Y-42565269D01*
D21*
X162941000Y-43434000D03*
D11*
G36*
X164286798Y-44061556D02*
X162313444Y-44779798D01*
X161595202Y-42806444D01*
X163568556Y-42088202D01*
X164286798Y-44061556D01*
X164286798Y-44061556D01*
G37*
G04 #@! TD*
D14*
G04 #@! TO.C,BridgeTonePot1*
X242316000Y-57785000D03*
D13*
X239776000Y-57785000D03*
X242316000Y-60325000D03*
X239776000Y-60325000D03*
X242316000Y-62865000D03*
X239776000Y-62865000D03*
X242316000Y-65405000D03*
X239776000Y-65405000D03*
X242316000Y-67945000D03*
X239776000Y-67945000D03*
X242316000Y-70485000D03*
X239776000Y-70485000D03*
X242316000Y-73025000D03*
X239776000Y-73025000D03*
G04 #@! TD*
D18*
G04 #@! TO.C,6pdt2*
X222250000Y-92456000D03*
X214630000Y-92456000D03*
X222250000Y-89916000D03*
X214630000Y-89916000D03*
X222250000Y-87376000D03*
X214630000Y-87376000D03*
X222250000Y-84836000D03*
X214630000Y-84836000D03*
X222250000Y-82296000D03*
X214630000Y-82296000D03*
X222250000Y-79756000D03*
X214630000Y-79756000D03*
X222250000Y-77216000D03*
X214630000Y-77216000D03*
X222250000Y-74676000D03*
X214630000Y-74676000D03*
X222250000Y-72136000D03*
X214630000Y-72136000D03*
G04 #@! TD*
D23*
G04 #@! TO.C,TRANGAIN1*
X236347000Y-98425000D03*
X233807000Y-100965000D03*
X231267000Y-98425000D03*
G04 #@! TD*
D13*
G04 #@! TO.C,3WaySwitch1*
X166116000Y-50927000D03*
X163576000Y-50927000D03*
X161036000Y-50927000D03*
D14*
X158496000Y-50927000D03*
G04 #@! TD*
D18*
G04 #@! TO.C,4pdt1*
X175006000Y-51752500D03*
X177546000Y-51752500D03*
X180086000Y-51752500D03*
X182626000Y-51752500D03*
X185166000Y-51752500D03*
X187706000Y-51752500D03*
X187706000Y-44132500D03*
X185166000Y-44132500D03*
X182626000Y-44132500D03*
X180086000Y-44132500D03*
X177546000Y-44132500D03*
X175006000Y-44132500D03*
G04 #@! TD*
G04 #@! TO.C,6pdt1*
X204470000Y-56261000D03*
X212090000Y-56261000D03*
X204470000Y-58801000D03*
X212090000Y-58801000D03*
X204470000Y-61341000D03*
X212090000Y-61341000D03*
X204470000Y-63881000D03*
X212090000Y-63881000D03*
X204470000Y-66421000D03*
X212090000Y-66421000D03*
X204470000Y-68961000D03*
X212090000Y-68961000D03*
X204470000Y-71501000D03*
X212090000Y-71501000D03*
X204470000Y-74041000D03*
X212090000Y-74041000D03*
X204470000Y-76581000D03*
X212090000Y-76581000D03*
G04 #@! TD*
D13*
G04 #@! TO.C,BridgeVolPot1*
X218948000Y-67310000D03*
X221488000Y-67310000D03*
X218948000Y-64770000D03*
X221488000Y-64770000D03*
X218948000Y-62230000D03*
X221488000Y-62230000D03*
X218948000Y-59690000D03*
X221488000Y-59690000D03*
X218948000Y-57150000D03*
X221488000Y-57150000D03*
X218948000Y-54610000D03*
X221488000Y-54610000D03*
X218948000Y-52070000D03*
D14*
X221488000Y-52070000D03*
G04 #@! TD*
D11*
G04 #@! TO.C,C1*
G36*
X225994707Y-55314542D02*
X226025787Y-55319152D01*
X226056266Y-55326787D01*
X226085850Y-55337372D01*
X226114254Y-55350806D01*
X226141204Y-55366959D01*
X226166442Y-55385677D01*
X226189723Y-55406777D01*
X226210823Y-55430058D01*
X226229541Y-55455296D01*
X226245694Y-55482246D01*
X226259128Y-55510650D01*
X226269713Y-55540234D01*
X226277348Y-55570713D01*
X226281958Y-55601793D01*
X226283500Y-55633176D01*
X226283500Y-57142824D01*
X226281958Y-57174207D01*
X226277348Y-57205287D01*
X226269713Y-57235766D01*
X226259128Y-57265350D01*
X226245694Y-57293754D01*
X226229541Y-57320704D01*
X226210823Y-57345942D01*
X226189723Y-57369223D01*
X226166442Y-57390323D01*
X226141204Y-57409041D01*
X226114254Y-57425194D01*
X226085850Y-57438628D01*
X226056266Y-57449213D01*
X226025787Y-57456848D01*
X225994707Y-57461458D01*
X225963324Y-57463000D01*
X224778676Y-57463000D01*
X224747293Y-57461458D01*
X224716213Y-57456848D01*
X224685734Y-57449213D01*
X224656150Y-57438628D01*
X224627746Y-57425194D01*
X224600796Y-57409041D01*
X224575558Y-57390323D01*
X224552277Y-57369223D01*
X224531177Y-57345942D01*
X224512459Y-57320704D01*
X224496306Y-57293754D01*
X224482872Y-57265350D01*
X224472287Y-57235766D01*
X224464652Y-57205287D01*
X224460042Y-57174207D01*
X224458500Y-57142824D01*
X224458500Y-55633176D01*
X224460042Y-55601793D01*
X224464652Y-55570713D01*
X224472287Y-55540234D01*
X224482872Y-55510650D01*
X224496306Y-55482246D01*
X224512459Y-55455296D01*
X224531177Y-55430058D01*
X224552277Y-55406777D01*
X224575558Y-55385677D01*
X224600796Y-55366959D01*
X224627746Y-55350806D01*
X224656150Y-55337372D01*
X224685734Y-55326787D01*
X224716213Y-55319152D01*
X224747293Y-55314542D01*
X224778676Y-55313000D01*
X225963324Y-55313000D01*
X225994707Y-55314542D01*
X225994707Y-55314542D01*
G37*
D24*
X225371000Y-56388000D03*
D11*
G36*
X228969707Y-55314542D02*
X229000787Y-55319152D01*
X229031266Y-55326787D01*
X229060850Y-55337372D01*
X229089254Y-55350806D01*
X229116204Y-55366959D01*
X229141442Y-55385677D01*
X229164723Y-55406777D01*
X229185823Y-55430058D01*
X229204541Y-55455296D01*
X229220694Y-55482246D01*
X229234128Y-55510650D01*
X229244713Y-55540234D01*
X229252348Y-55570713D01*
X229256958Y-55601793D01*
X229258500Y-55633176D01*
X229258500Y-57142824D01*
X229256958Y-57174207D01*
X229252348Y-57205287D01*
X229244713Y-57235766D01*
X229234128Y-57265350D01*
X229220694Y-57293754D01*
X229204541Y-57320704D01*
X229185823Y-57345942D01*
X229164723Y-57369223D01*
X229141442Y-57390323D01*
X229116204Y-57409041D01*
X229089254Y-57425194D01*
X229060850Y-57438628D01*
X229031266Y-57449213D01*
X229000787Y-57456848D01*
X228969707Y-57461458D01*
X228938324Y-57463000D01*
X227753676Y-57463000D01*
X227722293Y-57461458D01*
X227691213Y-57456848D01*
X227660734Y-57449213D01*
X227631150Y-57438628D01*
X227602746Y-57425194D01*
X227575796Y-57409041D01*
X227550558Y-57390323D01*
X227527277Y-57369223D01*
X227506177Y-57345942D01*
X227487459Y-57320704D01*
X227471306Y-57293754D01*
X227457872Y-57265350D01*
X227447287Y-57235766D01*
X227439652Y-57205287D01*
X227435042Y-57174207D01*
X227433500Y-57142824D01*
X227433500Y-55633176D01*
X227435042Y-55601793D01*
X227439652Y-55570713D01*
X227447287Y-55540234D01*
X227457872Y-55510650D01*
X227471306Y-55482246D01*
X227487459Y-55455296D01*
X227506177Y-55430058D01*
X227527277Y-55406777D01*
X227550558Y-55385677D01*
X227575796Y-55366959D01*
X227602746Y-55350806D01*
X227631150Y-55337372D01*
X227660734Y-55326787D01*
X227691213Y-55319152D01*
X227722293Y-55314542D01*
X227753676Y-55313000D01*
X228938324Y-55313000D01*
X228969707Y-55314542D01*
X228969707Y-55314542D01*
G37*
D24*
X228346000Y-56388000D03*
G04 #@! TD*
D18*
G04 #@! TO.C,C2*
X247142000Y-26797000D03*
X247142000Y-31797000D03*
G04 #@! TD*
D11*
G04 #@! TO.C,C4*
G36*
X177634071Y-67806623D02*
X177666781Y-67811475D01*
X177698857Y-67819509D01*
X177729991Y-67830649D01*
X177759884Y-67844787D01*
X177788247Y-67861787D01*
X177814807Y-67881485D01*
X177839308Y-67903692D01*
X177861515Y-67928193D01*
X177881213Y-67954753D01*
X177898213Y-67983116D01*
X177912351Y-68013009D01*
X177923491Y-68044143D01*
X177931525Y-68076219D01*
X177936377Y-68108929D01*
X177938000Y-68141956D01*
X177938000Y-69018044D01*
X177936377Y-69051071D01*
X177931525Y-69083781D01*
X177923491Y-69115857D01*
X177912351Y-69146991D01*
X177898213Y-69176884D01*
X177881213Y-69205247D01*
X177861515Y-69231807D01*
X177839308Y-69256308D01*
X177814807Y-69278515D01*
X177788247Y-69298213D01*
X177759884Y-69315213D01*
X177729991Y-69329351D01*
X177698857Y-69340491D01*
X177666781Y-69348525D01*
X177634071Y-69353377D01*
X177601044Y-69355000D01*
X176474956Y-69355000D01*
X176441929Y-69353377D01*
X176409219Y-69348525D01*
X176377143Y-69340491D01*
X176346009Y-69329351D01*
X176316116Y-69315213D01*
X176287753Y-69298213D01*
X176261193Y-69278515D01*
X176236692Y-69256308D01*
X176214485Y-69231807D01*
X176194787Y-69205247D01*
X176177787Y-69176884D01*
X176163649Y-69146991D01*
X176152509Y-69115857D01*
X176144475Y-69083781D01*
X176139623Y-69051071D01*
X176138000Y-69018044D01*
X176138000Y-68141956D01*
X176139623Y-68108929D01*
X176144475Y-68076219D01*
X176152509Y-68044143D01*
X176163649Y-68013009D01*
X176177787Y-67983116D01*
X176194787Y-67954753D01*
X176214485Y-67928193D01*
X176236692Y-67903692D01*
X176261193Y-67881485D01*
X176287753Y-67861787D01*
X176316116Y-67844787D01*
X176346009Y-67830649D01*
X176377143Y-67819509D01*
X176409219Y-67811475D01*
X176441929Y-67806623D01*
X176474956Y-67805000D01*
X177601044Y-67805000D01*
X177634071Y-67806623D01*
X177634071Y-67806623D01*
G37*
D12*
X177038000Y-68580000D03*
D11*
G36*
X177634071Y-65756623D02*
X177666781Y-65761475D01*
X177698857Y-65769509D01*
X177729991Y-65780649D01*
X177759884Y-65794787D01*
X177788247Y-65811787D01*
X177814807Y-65831485D01*
X177839308Y-65853692D01*
X177861515Y-65878193D01*
X177881213Y-65904753D01*
X177898213Y-65933116D01*
X177912351Y-65963009D01*
X177923491Y-65994143D01*
X177931525Y-66026219D01*
X177936377Y-66058929D01*
X177938000Y-66091956D01*
X177938000Y-66968044D01*
X177936377Y-67001071D01*
X177931525Y-67033781D01*
X177923491Y-67065857D01*
X177912351Y-67096991D01*
X177898213Y-67126884D01*
X177881213Y-67155247D01*
X177861515Y-67181807D01*
X177839308Y-67206308D01*
X177814807Y-67228515D01*
X177788247Y-67248213D01*
X177759884Y-67265213D01*
X177729991Y-67279351D01*
X177698857Y-67290491D01*
X177666781Y-67298525D01*
X177634071Y-67303377D01*
X177601044Y-67305000D01*
X176474956Y-67305000D01*
X176441929Y-67303377D01*
X176409219Y-67298525D01*
X176377143Y-67290491D01*
X176346009Y-67279351D01*
X176316116Y-67265213D01*
X176287753Y-67248213D01*
X176261193Y-67228515D01*
X176236692Y-67206308D01*
X176214485Y-67181807D01*
X176194787Y-67155247D01*
X176177787Y-67126884D01*
X176163649Y-67096991D01*
X176152509Y-67065857D01*
X176144475Y-67033781D01*
X176139623Y-67001071D01*
X176138000Y-66968044D01*
X176138000Y-66091956D01*
X176139623Y-66058929D01*
X176144475Y-66026219D01*
X176152509Y-65994143D01*
X176163649Y-65963009D01*
X176177787Y-65933116D01*
X176194787Y-65904753D01*
X176214485Y-65878193D01*
X176236692Y-65853692D01*
X176261193Y-65831485D01*
X176287753Y-65811787D01*
X176316116Y-65794787D01*
X176346009Y-65780649D01*
X176377143Y-65769509D01*
X176409219Y-65761475D01*
X176441929Y-65756623D01*
X176474956Y-65755000D01*
X177601044Y-65755000D01*
X177634071Y-65756623D01*
X177634071Y-65756623D01*
G37*
D12*
X177038000Y-66530000D03*
G04 #@! TD*
D11*
G04 #@! TO.C,C5*
G36*
X184116207Y-65002042D02*
X184147287Y-65006652D01*
X184177766Y-65014287D01*
X184207350Y-65024872D01*
X184235754Y-65038306D01*
X184262704Y-65054459D01*
X184287942Y-65073177D01*
X184311223Y-65094277D01*
X184332323Y-65117558D01*
X184351041Y-65142796D01*
X184367194Y-65169746D01*
X184380628Y-65198150D01*
X184391213Y-65227734D01*
X184398848Y-65258213D01*
X184403458Y-65289293D01*
X184405000Y-65320676D01*
X184405000Y-66505324D01*
X184403458Y-66536707D01*
X184398848Y-66567787D01*
X184391213Y-66598266D01*
X184380628Y-66627850D01*
X184367194Y-66656254D01*
X184351041Y-66683204D01*
X184332323Y-66708442D01*
X184311223Y-66731723D01*
X184287942Y-66752823D01*
X184262704Y-66771541D01*
X184235754Y-66787694D01*
X184207350Y-66801128D01*
X184177766Y-66811713D01*
X184147287Y-66819348D01*
X184116207Y-66823958D01*
X184084824Y-66825500D01*
X181675176Y-66825500D01*
X181643793Y-66823958D01*
X181612713Y-66819348D01*
X181582234Y-66811713D01*
X181552650Y-66801128D01*
X181524246Y-66787694D01*
X181497296Y-66771541D01*
X181472058Y-66752823D01*
X181448777Y-66731723D01*
X181427677Y-66708442D01*
X181408959Y-66683204D01*
X181392806Y-66656254D01*
X181379372Y-66627850D01*
X181368787Y-66598266D01*
X181361152Y-66567787D01*
X181356542Y-66536707D01*
X181355000Y-66505324D01*
X181355000Y-65320676D01*
X181356542Y-65289293D01*
X181361152Y-65258213D01*
X181368787Y-65227734D01*
X181379372Y-65198150D01*
X181392806Y-65169746D01*
X181408959Y-65142796D01*
X181427677Y-65117558D01*
X181448777Y-65094277D01*
X181472058Y-65073177D01*
X181497296Y-65054459D01*
X181524246Y-65038306D01*
X181552650Y-65024872D01*
X181582234Y-65014287D01*
X181612713Y-65006652D01*
X181643793Y-65002042D01*
X181675176Y-65000500D01*
X184084824Y-65000500D01*
X184116207Y-65002042D01*
X184116207Y-65002042D01*
G37*
D24*
X182880000Y-65913000D03*
D11*
G36*
X184116207Y-67977042D02*
X184147287Y-67981652D01*
X184177766Y-67989287D01*
X184207350Y-67999872D01*
X184235754Y-68013306D01*
X184262704Y-68029459D01*
X184287942Y-68048177D01*
X184311223Y-68069277D01*
X184332323Y-68092558D01*
X184351041Y-68117796D01*
X184367194Y-68144746D01*
X184380628Y-68173150D01*
X184391213Y-68202734D01*
X184398848Y-68233213D01*
X184403458Y-68264293D01*
X184405000Y-68295676D01*
X184405000Y-69480324D01*
X184403458Y-69511707D01*
X184398848Y-69542787D01*
X184391213Y-69573266D01*
X184380628Y-69602850D01*
X184367194Y-69631254D01*
X184351041Y-69658204D01*
X184332323Y-69683442D01*
X184311223Y-69706723D01*
X184287942Y-69727823D01*
X184262704Y-69746541D01*
X184235754Y-69762694D01*
X184207350Y-69776128D01*
X184177766Y-69786713D01*
X184147287Y-69794348D01*
X184116207Y-69798958D01*
X184084824Y-69800500D01*
X181675176Y-69800500D01*
X181643793Y-69798958D01*
X181612713Y-69794348D01*
X181582234Y-69786713D01*
X181552650Y-69776128D01*
X181524246Y-69762694D01*
X181497296Y-69746541D01*
X181472058Y-69727823D01*
X181448777Y-69706723D01*
X181427677Y-69683442D01*
X181408959Y-69658204D01*
X181392806Y-69631254D01*
X181379372Y-69602850D01*
X181368787Y-69573266D01*
X181361152Y-69542787D01*
X181356542Y-69511707D01*
X181355000Y-69480324D01*
X181355000Y-68295676D01*
X181356542Y-68264293D01*
X181361152Y-68233213D01*
X181368787Y-68202734D01*
X181379372Y-68173150D01*
X181392806Y-68144746D01*
X181408959Y-68117796D01*
X181427677Y-68092558D01*
X181448777Y-68069277D01*
X181472058Y-68048177D01*
X181497296Y-68029459D01*
X181524246Y-68013306D01*
X181552650Y-67999872D01*
X181582234Y-67989287D01*
X181612713Y-67981652D01*
X181643793Y-67977042D01*
X181675176Y-67975500D01*
X184084824Y-67975500D01*
X184116207Y-67977042D01*
X184116207Y-67977042D01*
G37*
D24*
X182880000Y-68888000D03*
G04 #@! TD*
D18*
G04 #@! TO.C,C6*
X224583000Y-27940000D03*
X219583000Y-27940000D03*
G04 #@! TD*
D11*
G04 #@! TO.C,C7*
G36*
X186841207Y-68885042D02*
X186872287Y-68889652D01*
X186902766Y-68897287D01*
X186932350Y-68907872D01*
X186960754Y-68921306D01*
X186987704Y-68937459D01*
X187012942Y-68956177D01*
X187036223Y-68977277D01*
X187057323Y-69000558D01*
X187076041Y-69025796D01*
X187092194Y-69052746D01*
X187105628Y-69081150D01*
X187116213Y-69110734D01*
X187123848Y-69141213D01*
X187128458Y-69172293D01*
X187130000Y-69203676D01*
X187130000Y-70388324D01*
X187128458Y-70419707D01*
X187123848Y-70450787D01*
X187116213Y-70481266D01*
X187105628Y-70510850D01*
X187092194Y-70539254D01*
X187076041Y-70566204D01*
X187057323Y-70591442D01*
X187036223Y-70614723D01*
X187012942Y-70635823D01*
X186987704Y-70654541D01*
X186960754Y-70670694D01*
X186932350Y-70684128D01*
X186902766Y-70694713D01*
X186872287Y-70702348D01*
X186841207Y-70706958D01*
X186809824Y-70708500D01*
X185300176Y-70708500D01*
X185268793Y-70706958D01*
X185237713Y-70702348D01*
X185207234Y-70694713D01*
X185177650Y-70684128D01*
X185149246Y-70670694D01*
X185122296Y-70654541D01*
X185097058Y-70635823D01*
X185073777Y-70614723D01*
X185052677Y-70591442D01*
X185033959Y-70566204D01*
X185017806Y-70539254D01*
X185004372Y-70510850D01*
X184993787Y-70481266D01*
X184986152Y-70450787D01*
X184981542Y-70419707D01*
X184980000Y-70388324D01*
X184980000Y-69203676D01*
X184981542Y-69172293D01*
X184986152Y-69141213D01*
X184993787Y-69110734D01*
X185004372Y-69081150D01*
X185017806Y-69052746D01*
X185033959Y-69025796D01*
X185052677Y-69000558D01*
X185073777Y-68977277D01*
X185097058Y-68956177D01*
X185122296Y-68937459D01*
X185149246Y-68921306D01*
X185177650Y-68907872D01*
X185207234Y-68897287D01*
X185237713Y-68889652D01*
X185268793Y-68885042D01*
X185300176Y-68883500D01*
X186809824Y-68883500D01*
X186841207Y-68885042D01*
X186841207Y-68885042D01*
G37*
D24*
X186055000Y-69796000D03*
D11*
G36*
X186841207Y-71860042D02*
X186872287Y-71864652D01*
X186902766Y-71872287D01*
X186932350Y-71882872D01*
X186960754Y-71896306D01*
X186987704Y-71912459D01*
X187012942Y-71931177D01*
X187036223Y-71952277D01*
X187057323Y-71975558D01*
X187076041Y-72000796D01*
X187092194Y-72027746D01*
X187105628Y-72056150D01*
X187116213Y-72085734D01*
X187123848Y-72116213D01*
X187128458Y-72147293D01*
X187130000Y-72178676D01*
X187130000Y-73363324D01*
X187128458Y-73394707D01*
X187123848Y-73425787D01*
X187116213Y-73456266D01*
X187105628Y-73485850D01*
X187092194Y-73514254D01*
X187076041Y-73541204D01*
X187057323Y-73566442D01*
X187036223Y-73589723D01*
X187012942Y-73610823D01*
X186987704Y-73629541D01*
X186960754Y-73645694D01*
X186932350Y-73659128D01*
X186902766Y-73669713D01*
X186872287Y-73677348D01*
X186841207Y-73681958D01*
X186809824Y-73683500D01*
X185300176Y-73683500D01*
X185268793Y-73681958D01*
X185237713Y-73677348D01*
X185207234Y-73669713D01*
X185177650Y-73659128D01*
X185149246Y-73645694D01*
X185122296Y-73629541D01*
X185097058Y-73610823D01*
X185073777Y-73589723D01*
X185052677Y-73566442D01*
X185033959Y-73541204D01*
X185017806Y-73514254D01*
X185004372Y-73485850D01*
X184993787Y-73456266D01*
X184986152Y-73425787D01*
X184981542Y-73394707D01*
X184980000Y-73363324D01*
X184980000Y-72178676D01*
X184981542Y-72147293D01*
X184986152Y-72116213D01*
X184993787Y-72085734D01*
X185004372Y-72056150D01*
X185017806Y-72027746D01*
X185033959Y-72000796D01*
X185052677Y-71975558D01*
X185073777Y-71952277D01*
X185097058Y-71931177D01*
X185122296Y-71912459D01*
X185149246Y-71896306D01*
X185177650Y-71882872D01*
X185207234Y-71872287D01*
X185237713Y-71864652D01*
X185268793Y-71860042D01*
X185300176Y-71858500D01*
X186809824Y-71858500D01*
X186841207Y-71860042D01*
X186841207Y-71860042D01*
G37*
D24*
X186055000Y-72771000D03*
G04 #@! TD*
D11*
G04 #@! TO.C,C8*
G36*
X225261071Y-86477623D02*
X225293781Y-86482475D01*
X225325857Y-86490509D01*
X225356991Y-86501649D01*
X225386884Y-86515787D01*
X225415247Y-86532787D01*
X225441807Y-86552485D01*
X225466308Y-86574692D01*
X225488515Y-86599193D01*
X225508213Y-86625753D01*
X225525213Y-86654116D01*
X225539351Y-86684009D01*
X225550491Y-86715143D01*
X225558525Y-86747219D01*
X225563377Y-86779929D01*
X225565000Y-86812956D01*
X225565000Y-87939044D01*
X225563377Y-87972071D01*
X225558525Y-88004781D01*
X225550491Y-88036857D01*
X225539351Y-88067991D01*
X225525213Y-88097884D01*
X225508213Y-88126247D01*
X225488515Y-88152807D01*
X225466308Y-88177308D01*
X225441807Y-88199515D01*
X225415247Y-88219213D01*
X225386884Y-88236213D01*
X225356991Y-88250351D01*
X225325857Y-88261491D01*
X225293781Y-88269525D01*
X225261071Y-88274377D01*
X225228044Y-88276000D01*
X224351956Y-88276000D01*
X224318929Y-88274377D01*
X224286219Y-88269525D01*
X224254143Y-88261491D01*
X224223009Y-88250351D01*
X224193116Y-88236213D01*
X224164753Y-88219213D01*
X224138193Y-88199515D01*
X224113692Y-88177308D01*
X224091485Y-88152807D01*
X224071787Y-88126247D01*
X224054787Y-88097884D01*
X224040649Y-88067991D01*
X224029509Y-88036857D01*
X224021475Y-88004781D01*
X224016623Y-87972071D01*
X224015000Y-87939044D01*
X224015000Y-86812956D01*
X224016623Y-86779929D01*
X224021475Y-86747219D01*
X224029509Y-86715143D01*
X224040649Y-86684009D01*
X224054787Y-86654116D01*
X224071787Y-86625753D01*
X224091485Y-86599193D01*
X224113692Y-86574692D01*
X224138193Y-86552485D01*
X224164753Y-86532787D01*
X224193116Y-86515787D01*
X224223009Y-86501649D01*
X224254143Y-86490509D01*
X224286219Y-86482475D01*
X224318929Y-86477623D01*
X224351956Y-86476000D01*
X225228044Y-86476000D01*
X225261071Y-86477623D01*
X225261071Y-86477623D01*
G37*
D12*
X224790000Y-87376000D03*
D11*
G36*
X227311071Y-86477623D02*
X227343781Y-86482475D01*
X227375857Y-86490509D01*
X227406991Y-86501649D01*
X227436884Y-86515787D01*
X227465247Y-86532787D01*
X227491807Y-86552485D01*
X227516308Y-86574692D01*
X227538515Y-86599193D01*
X227558213Y-86625753D01*
X227575213Y-86654116D01*
X227589351Y-86684009D01*
X227600491Y-86715143D01*
X227608525Y-86747219D01*
X227613377Y-86779929D01*
X227615000Y-86812956D01*
X227615000Y-87939044D01*
X227613377Y-87972071D01*
X227608525Y-88004781D01*
X227600491Y-88036857D01*
X227589351Y-88067991D01*
X227575213Y-88097884D01*
X227558213Y-88126247D01*
X227538515Y-88152807D01*
X227516308Y-88177308D01*
X227491807Y-88199515D01*
X227465247Y-88219213D01*
X227436884Y-88236213D01*
X227406991Y-88250351D01*
X227375857Y-88261491D01*
X227343781Y-88269525D01*
X227311071Y-88274377D01*
X227278044Y-88276000D01*
X226401956Y-88276000D01*
X226368929Y-88274377D01*
X226336219Y-88269525D01*
X226304143Y-88261491D01*
X226273009Y-88250351D01*
X226243116Y-88236213D01*
X226214753Y-88219213D01*
X226188193Y-88199515D01*
X226163692Y-88177308D01*
X226141485Y-88152807D01*
X226121787Y-88126247D01*
X226104787Y-88097884D01*
X226090649Y-88067991D01*
X226079509Y-88036857D01*
X226071475Y-88004781D01*
X226066623Y-87972071D01*
X226065000Y-87939044D01*
X226065000Y-86812956D01*
X226066623Y-86779929D01*
X226071475Y-86747219D01*
X226079509Y-86715143D01*
X226090649Y-86684009D01*
X226104787Y-86654116D01*
X226121787Y-86625753D01*
X226141485Y-86599193D01*
X226163692Y-86574692D01*
X226188193Y-86552485D01*
X226214753Y-86532787D01*
X226243116Y-86515787D01*
X226273009Y-86501649D01*
X226304143Y-86490509D01*
X226336219Y-86482475D01*
X226368929Y-86477623D01*
X226401956Y-86476000D01*
X227278044Y-86476000D01*
X227311071Y-86477623D01*
X227311071Y-86477623D01*
G37*
D12*
X226840000Y-87376000D03*
G04 #@! TD*
D11*
G04 #@! TO.C,C11*
G36*
X174413707Y-94811542D02*
X174444787Y-94816152D01*
X174475266Y-94823787D01*
X174504850Y-94834372D01*
X174533254Y-94847806D01*
X174560204Y-94863959D01*
X174585442Y-94882677D01*
X174608723Y-94903777D01*
X174629823Y-94927058D01*
X174648541Y-94952296D01*
X174664694Y-94979246D01*
X174678128Y-95007650D01*
X174688713Y-95037234D01*
X174696348Y-95067713D01*
X174700958Y-95098793D01*
X174702500Y-95130176D01*
X174702500Y-96639824D01*
X174700958Y-96671207D01*
X174696348Y-96702287D01*
X174688713Y-96732766D01*
X174678128Y-96762350D01*
X174664694Y-96790754D01*
X174648541Y-96817704D01*
X174629823Y-96842942D01*
X174608723Y-96866223D01*
X174585442Y-96887323D01*
X174560204Y-96906041D01*
X174533254Y-96922194D01*
X174504850Y-96935628D01*
X174475266Y-96946213D01*
X174444787Y-96953848D01*
X174413707Y-96958458D01*
X174382324Y-96960000D01*
X173197676Y-96960000D01*
X173166293Y-96958458D01*
X173135213Y-96953848D01*
X173104734Y-96946213D01*
X173075150Y-96935628D01*
X173046746Y-96922194D01*
X173019796Y-96906041D01*
X172994558Y-96887323D01*
X172971277Y-96866223D01*
X172950177Y-96842942D01*
X172931459Y-96817704D01*
X172915306Y-96790754D01*
X172901872Y-96762350D01*
X172891287Y-96732766D01*
X172883652Y-96702287D01*
X172879042Y-96671207D01*
X172877500Y-96639824D01*
X172877500Y-95130176D01*
X172879042Y-95098793D01*
X172883652Y-95067713D01*
X172891287Y-95037234D01*
X172901872Y-95007650D01*
X172915306Y-94979246D01*
X172931459Y-94952296D01*
X172950177Y-94927058D01*
X172971277Y-94903777D01*
X172994558Y-94882677D01*
X173019796Y-94863959D01*
X173046746Y-94847806D01*
X173075150Y-94834372D01*
X173104734Y-94823787D01*
X173135213Y-94816152D01*
X173166293Y-94811542D01*
X173197676Y-94810000D01*
X174382324Y-94810000D01*
X174413707Y-94811542D01*
X174413707Y-94811542D01*
G37*
D24*
X173790000Y-95885000D03*
D11*
G36*
X171438707Y-94811542D02*
X171469787Y-94816152D01*
X171500266Y-94823787D01*
X171529850Y-94834372D01*
X171558254Y-94847806D01*
X171585204Y-94863959D01*
X171610442Y-94882677D01*
X171633723Y-94903777D01*
X171654823Y-94927058D01*
X171673541Y-94952296D01*
X171689694Y-94979246D01*
X171703128Y-95007650D01*
X171713713Y-95037234D01*
X171721348Y-95067713D01*
X171725958Y-95098793D01*
X171727500Y-95130176D01*
X171727500Y-96639824D01*
X171725958Y-96671207D01*
X171721348Y-96702287D01*
X171713713Y-96732766D01*
X171703128Y-96762350D01*
X171689694Y-96790754D01*
X171673541Y-96817704D01*
X171654823Y-96842942D01*
X171633723Y-96866223D01*
X171610442Y-96887323D01*
X171585204Y-96906041D01*
X171558254Y-96922194D01*
X171529850Y-96935628D01*
X171500266Y-96946213D01*
X171469787Y-96953848D01*
X171438707Y-96958458D01*
X171407324Y-96960000D01*
X170222676Y-96960000D01*
X170191293Y-96958458D01*
X170160213Y-96953848D01*
X170129734Y-96946213D01*
X170100150Y-96935628D01*
X170071746Y-96922194D01*
X170044796Y-96906041D01*
X170019558Y-96887323D01*
X169996277Y-96866223D01*
X169975177Y-96842942D01*
X169956459Y-96817704D01*
X169940306Y-96790754D01*
X169926872Y-96762350D01*
X169916287Y-96732766D01*
X169908652Y-96702287D01*
X169904042Y-96671207D01*
X169902500Y-96639824D01*
X169902500Y-95130176D01*
X169904042Y-95098793D01*
X169908652Y-95067713D01*
X169916287Y-95037234D01*
X169926872Y-95007650D01*
X169940306Y-94979246D01*
X169956459Y-94952296D01*
X169975177Y-94927058D01*
X169996277Y-94903777D01*
X170019558Y-94882677D01*
X170044796Y-94863959D01*
X170071746Y-94847806D01*
X170100150Y-94834372D01*
X170129734Y-94823787D01*
X170160213Y-94816152D01*
X170191293Y-94811542D01*
X170222676Y-94810000D01*
X171407324Y-94810000D01*
X171438707Y-94811542D01*
X171438707Y-94811542D01*
G37*
D24*
X170815000Y-95885000D03*
G04 #@! TD*
D11*
G04 #@! TO.C,C13*
G36*
X246468071Y-57002623D02*
X246500781Y-57007475D01*
X246532857Y-57015509D01*
X246563991Y-57026649D01*
X246593884Y-57040787D01*
X246622247Y-57057787D01*
X246648807Y-57077485D01*
X246673308Y-57099692D01*
X246695515Y-57124193D01*
X246715213Y-57150753D01*
X246732213Y-57179116D01*
X246746351Y-57209009D01*
X246757491Y-57240143D01*
X246765525Y-57272219D01*
X246770377Y-57304929D01*
X246772000Y-57337956D01*
X246772000Y-58214044D01*
X246770377Y-58247071D01*
X246765525Y-58279781D01*
X246757491Y-58311857D01*
X246746351Y-58342991D01*
X246732213Y-58372884D01*
X246715213Y-58401247D01*
X246695515Y-58427807D01*
X246673308Y-58452308D01*
X246648807Y-58474515D01*
X246622247Y-58494213D01*
X246593884Y-58511213D01*
X246563991Y-58525351D01*
X246532857Y-58536491D01*
X246500781Y-58544525D01*
X246468071Y-58549377D01*
X246435044Y-58551000D01*
X245308956Y-58551000D01*
X245275929Y-58549377D01*
X245243219Y-58544525D01*
X245211143Y-58536491D01*
X245180009Y-58525351D01*
X245150116Y-58511213D01*
X245121753Y-58494213D01*
X245095193Y-58474515D01*
X245070692Y-58452308D01*
X245048485Y-58427807D01*
X245028787Y-58401247D01*
X245011787Y-58372884D01*
X244997649Y-58342991D01*
X244986509Y-58311857D01*
X244978475Y-58279781D01*
X244973623Y-58247071D01*
X244972000Y-58214044D01*
X244972000Y-57337956D01*
X244973623Y-57304929D01*
X244978475Y-57272219D01*
X244986509Y-57240143D01*
X244997649Y-57209009D01*
X245011787Y-57179116D01*
X245028787Y-57150753D01*
X245048485Y-57124193D01*
X245070692Y-57099692D01*
X245095193Y-57077485D01*
X245121753Y-57057787D01*
X245150116Y-57040787D01*
X245180009Y-57026649D01*
X245211143Y-57015509D01*
X245243219Y-57007475D01*
X245275929Y-57002623D01*
X245308956Y-57001000D01*
X246435044Y-57001000D01*
X246468071Y-57002623D01*
X246468071Y-57002623D01*
G37*
D12*
X245872000Y-57776000D03*
D11*
G36*
X246468071Y-59052623D02*
X246500781Y-59057475D01*
X246532857Y-59065509D01*
X246563991Y-59076649D01*
X246593884Y-59090787D01*
X246622247Y-59107787D01*
X246648807Y-59127485D01*
X246673308Y-59149692D01*
X246695515Y-59174193D01*
X246715213Y-59200753D01*
X246732213Y-59229116D01*
X246746351Y-59259009D01*
X246757491Y-59290143D01*
X246765525Y-59322219D01*
X246770377Y-59354929D01*
X246772000Y-59387956D01*
X246772000Y-60264044D01*
X246770377Y-60297071D01*
X246765525Y-60329781D01*
X246757491Y-60361857D01*
X246746351Y-60392991D01*
X246732213Y-60422884D01*
X246715213Y-60451247D01*
X246695515Y-60477807D01*
X246673308Y-60502308D01*
X246648807Y-60524515D01*
X246622247Y-60544213D01*
X246593884Y-60561213D01*
X246563991Y-60575351D01*
X246532857Y-60586491D01*
X246500781Y-60594525D01*
X246468071Y-60599377D01*
X246435044Y-60601000D01*
X245308956Y-60601000D01*
X245275929Y-60599377D01*
X245243219Y-60594525D01*
X245211143Y-60586491D01*
X245180009Y-60575351D01*
X245150116Y-60561213D01*
X245121753Y-60544213D01*
X245095193Y-60524515D01*
X245070692Y-60502308D01*
X245048485Y-60477807D01*
X245028787Y-60451247D01*
X245011787Y-60422884D01*
X244997649Y-60392991D01*
X244986509Y-60361857D01*
X244978475Y-60329781D01*
X244973623Y-60297071D01*
X244972000Y-60264044D01*
X244972000Y-59387956D01*
X244973623Y-59354929D01*
X244978475Y-59322219D01*
X244986509Y-59290143D01*
X244997649Y-59259009D01*
X245011787Y-59229116D01*
X245028787Y-59200753D01*
X245048485Y-59174193D01*
X245070692Y-59149692D01*
X245095193Y-59127485D01*
X245121753Y-59107787D01*
X245150116Y-59090787D01*
X245180009Y-59076649D01*
X245211143Y-59065509D01*
X245243219Y-59057475D01*
X245275929Y-59052623D01*
X245308956Y-59051000D01*
X246435044Y-59051000D01*
X246468071Y-59052623D01*
X246468071Y-59052623D01*
G37*
D12*
X245872000Y-59826000D03*
G04 #@! TD*
D17*
G04 #@! TO.C,C14*
X178435000Y-95885000D03*
D18*
X178435000Y-97885000D03*
G04 #@! TD*
D11*
G04 #@! TO.C,C15*
G36*
X172491207Y-88588542D02*
X172522287Y-88593152D01*
X172552766Y-88600787D01*
X172582350Y-88611372D01*
X172610754Y-88624806D01*
X172637704Y-88640959D01*
X172662942Y-88659677D01*
X172686223Y-88680777D01*
X172707323Y-88704058D01*
X172726041Y-88729296D01*
X172742194Y-88756246D01*
X172755628Y-88784650D01*
X172766213Y-88814234D01*
X172773848Y-88844713D01*
X172778458Y-88875793D01*
X172780000Y-88907176D01*
X172780000Y-90416824D01*
X172778458Y-90448207D01*
X172773848Y-90479287D01*
X172766213Y-90509766D01*
X172755628Y-90539350D01*
X172742194Y-90567754D01*
X172726041Y-90594704D01*
X172707323Y-90619942D01*
X172686223Y-90643223D01*
X172662942Y-90664323D01*
X172637704Y-90683041D01*
X172610754Y-90699194D01*
X172582350Y-90712628D01*
X172552766Y-90723213D01*
X172522287Y-90730848D01*
X172491207Y-90735458D01*
X172459824Y-90737000D01*
X171275176Y-90737000D01*
X171243793Y-90735458D01*
X171212713Y-90730848D01*
X171182234Y-90723213D01*
X171152650Y-90712628D01*
X171124246Y-90699194D01*
X171097296Y-90683041D01*
X171072058Y-90664323D01*
X171048777Y-90643223D01*
X171027677Y-90619942D01*
X171008959Y-90594704D01*
X170992806Y-90567754D01*
X170979372Y-90539350D01*
X170968787Y-90509766D01*
X170961152Y-90479287D01*
X170956542Y-90448207D01*
X170955000Y-90416824D01*
X170955000Y-88907176D01*
X170956542Y-88875793D01*
X170961152Y-88844713D01*
X170968787Y-88814234D01*
X170979372Y-88784650D01*
X170992806Y-88756246D01*
X171008959Y-88729296D01*
X171027677Y-88704058D01*
X171048777Y-88680777D01*
X171072058Y-88659677D01*
X171097296Y-88640959D01*
X171124246Y-88624806D01*
X171152650Y-88611372D01*
X171182234Y-88600787D01*
X171212713Y-88593152D01*
X171243793Y-88588542D01*
X171275176Y-88587000D01*
X172459824Y-88587000D01*
X172491207Y-88588542D01*
X172491207Y-88588542D01*
G37*
D24*
X171867500Y-89662000D03*
D11*
G36*
X175466207Y-88588542D02*
X175497287Y-88593152D01*
X175527766Y-88600787D01*
X175557350Y-88611372D01*
X175585754Y-88624806D01*
X175612704Y-88640959D01*
X175637942Y-88659677D01*
X175661223Y-88680777D01*
X175682323Y-88704058D01*
X175701041Y-88729296D01*
X175717194Y-88756246D01*
X175730628Y-88784650D01*
X175741213Y-88814234D01*
X175748848Y-88844713D01*
X175753458Y-88875793D01*
X175755000Y-88907176D01*
X175755000Y-90416824D01*
X175753458Y-90448207D01*
X175748848Y-90479287D01*
X175741213Y-90509766D01*
X175730628Y-90539350D01*
X175717194Y-90567754D01*
X175701041Y-90594704D01*
X175682323Y-90619942D01*
X175661223Y-90643223D01*
X175637942Y-90664323D01*
X175612704Y-90683041D01*
X175585754Y-90699194D01*
X175557350Y-90712628D01*
X175527766Y-90723213D01*
X175497287Y-90730848D01*
X175466207Y-90735458D01*
X175434824Y-90737000D01*
X174250176Y-90737000D01*
X174218793Y-90735458D01*
X174187713Y-90730848D01*
X174157234Y-90723213D01*
X174127650Y-90712628D01*
X174099246Y-90699194D01*
X174072296Y-90683041D01*
X174047058Y-90664323D01*
X174023777Y-90643223D01*
X174002677Y-90619942D01*
X173983959Y-90594704D01*
X173967806Y-90567754D01*
X173954372Y-90539350D01*
X173943787Y-90509766D01*
X173936152Y-90479287D01*
X173931542Y-90448207D01*
X173930000Y-90416824D01*
X173930000Y-88907176D01*
X173931542Y-88875793D01*
X173936152Y-88844713D01*
X173943787Y-88814234D01*
X173954372Y-88784650D01*
X173967806Y-88756246D01*
X173983959Y-88729296D01*
X174002677Y-88704058D01*
X174023777Y-88680777D01*
X174047058Y-88659677D01*
X174072296Y-88640959D01*
X174099246Y-88624806D01*
X174127650Y-88611372D01*
X174157234Y-88600787D01*
X174187713Y-88593152D01*
X174218793Y-88588542D01*
X174250176Y-88587000D01*
X175434824Y-88587000D01*
X175466207Y-88588542D01*
X175466207Y-88588542D01*
G37*
D24*
X174842500Y-89662000D03*
G04 #@! TD*
D11*
G04 #@! TO.C,C16*
G36*
X234593207Y-65583042D02*
X234624287Y-65587652D01*
X234654766Y-65595287D01*
X234684350Y-65605872D01*
X234712754Y-65619306D01*
X234739704Y-65635459D01*
X234764942Y-65654177D01*
X234788223Y-65675277D01*
X234809323Y-65698558D01*
X234828041Y-65723796D01*
X234844194Y-65750746D01*
X234857628Y-65779150D01*
X234868213Y-65808734D01*
X234875848Y-65839213D01*
X234880458Y-65870293D01*
X234882000Y-65901676D01*
X234882000Y-67086324D01*
X234880458Y-67117707D01*
X234875848Y-67148787D01*
X234868213Y-67179266D01*
X234857628Y-67208850D01*
X234844194Y-67237254D01*
X234828041Y-67264204D01*
X234809323Y-67289442D01*
X234788223Y-67312723D01*
X234764942Y-67333823D01*
X234739704Y-67352541D01*
X234712754Y-67368694D01*
X234684350Y-67382128D01*
X234654766Y-67392713D01*
X234624287Y-67400348D01*
X234593207Y-67404958D01*
X234561824Y-67406500D01*
X233052176Y-67406500D01*
X233020793Y-67404958D01*
X232989713Y-67400348D01*
X232959234Y-67392713D01*
X232929650Y-67382128D01*
X232901246Y-67368694D01*
X232874296Y-67352541D01*
X232849058Y-67333823D01*
X232825777Y-67312723D01*
X232804677Y-67289442D01*
X232785959Y-67264204D01*
X232769806Y-67237254D01*
X232756372Y-67208850D01*
X232745787Y-67179266D01*
X232738152Y-67148787D01*
X232733542Y-67117707D01*
X232732000Y-67086324D01*
X232732000Y-65901676D01*
X232733542Y-65870293D01*
X232738152Y-65839213D01*
X232745787Y-65808734D01*
X232756372Y-65779150D01*
X232769806Y-65750746D01*
X232785959Y-65723796D01*
X232804677Y-65698558D01*
X232825777Y-65675277D01*
X232849058Y-65654177D01*
X232874296Y-65635459D01*
X232901246Y-65619306D01*
X232929650Y-65605872D01*
X232959234Y-65595287D01*
X232989713Y-65587652D01*
X233020793Y-65583042D01*
X233052176Y-65581500D01*
X234561824Y-65581500D01*
X234593207Y-65583042D01*
X234593207Y-65583042D01*
G37*
D24*
X233807000Y-66494000D03*
D11*
G36*
X234593207Y-68558042D02*
X234624287Y-68562652D01*
X234654766Y-68570287D01*
X234684350Y-68580872D01*
X234712754Y-68594306D01*
X234739704Y-68610459D01*
X234764942Y-68629177D01*
X234788223Y-68650277D01*
X234809323Y-68673558D01*
X234828041Y-68698796D01*
X234844194Y-68725746D01*
X234857628Y-68754150D01*
X234868213Y-68783734D01*
X234875848Y-68814213D01*
X234880458Y-68845293D01*
X234882000Y-68876676D01*
X234882000Y-70061324D01*
X234880458Y-70092707D01*
X234875848Y-70123787D01*
X234868213Y-70154266D01*
X234857628Y-70183850D01*
X234844194Y-70212254D01*
X234828041Y-70239204D01*
X234809323Y-70264442D01*
X234788223Y-70287723D01*
X234764942Y-70308823D01*
X234739704Y-70327541D01*
X234712754Y-70343694D01*
X234684350Y-70357128D01*
X234654766Y-70367713D01*
X234624287Y-70375348D01*
X234593207Y-70379958D01*
X234561824Y-70381500D01*
X233052176Y-70381500D01*
X233020793Y-70379958D01*
X232989713Y-70375348D01*
X232959234Y-70367713D01*
X232929650Y-70357128D01*
X232901246Y-70343694D01*
X232874296Y-70327541D01*
X232849058Y-70308823D01*
X232825777Y-70287723D01*
X232804677Y-70264442D01*
X232785959Y-70239204D01*
X232769806Y-70212254D01*
X232756372Y-70183850D01*
X232745787Y-70154266D01*
X232738152Y-70123787D01*
X232733542Y-70092707D01*
X232732000Y-70061324D01*
X232732000Y-68876676D01*
X232733542Y-68845293D01*
X232738152Y-68814213D01*
X232745787Y-68783734D01*
X232756372Y-68754150D01*
X232769806Y-68725746D01*
X232785959Y-68698796D01*
X232804677Y-68673558D01*
X232825777Y-68650277D01*
X232849058Y-68629177D01*
X232874296Y-68610459D01*
X232901246Y-68594306D01*
X232929650Y-68580872D01*
X232959234Y-68570287D01*
X232989713Y-68562652D01*
X233020793Y-68558042D01*
X233052176Y-68556500D01*
X234561824Y-68556500D01*
X234593207Y-68558042D01*
X234593207Y-68558042D01*
G37*
D24*
X233807000Y-69469000D03*
G04 #@! TD*
D18*
G04 #@! TO.C,C19*
X180181000Y-91186000D03*
D17*
X178181000Y-91186000D03*
G04 #@! TD*
D11*
G04 #@! TO.C,C20*
G36*
X183884707Y-78555542D02*
X183915787Y-78560152D01*
X183946266Y-78567787D01*
X183975850Y-78578372D01*
X184004254Y-78591806D01*
X184031204Y-78607959D01*
X184056442Y-78626677D01*
X184079723Y-78647777D01*
X184100823Y-78671058D01*
X184119541Y-78696296D01*
X184135694Y-78723246D01*
X184149128Y-78751650D01*
X184159713Y-78781234D01*
X184167348Y-78811713D01*
X184171958Y-78842793D01*
X184173500Y-78874176D01*
X184173500Y-80383824D01*
X184171958Y-80415207D01*
X184167348Y-80446287D01*
X184159713Y-80476766D01*
X184149128Y-80506350D01*
X184135694Y-80534754D01*
X184119541Y-80561704D01*
X184100823Y-80586942D01*
X184079723Y-80610223D01*
X184056442Y-80631323D01*
X184031204Y-80650041D01*
X184004254Y-80666194D01*
X183975850Y-80679628D01*
X183946266Y-80690213D01*
X183915787Y-80697848D01*
X183884707Y-80702458D01*
X183853324Y-80704000D01*
X182668676Y-80704000D01*
X182637293Y-80702458D01*
X182606213Y-80697848D01*
X182575734Y-80690213D01*
X182546150Y-80679628D01*
X182517746Y-80666194D01*
X182490796Y-80650041D01*
X182465558Y-80631323D01*
X182442277Y-80610223D01*
X182421177Y-80586942D01*
X182402459Y-80561704D01*
X182386306Y-80534754D01*
X182372872Y-80506350D01*
X182362287Y-80476766D01*
X182354652Y-80446287D01*
X182350042Y-80415207D01*
X182348500Y-80383824D01*
X182348500Y-78874176D01*
X182350042Y-78842793D01*
X182354652Y-78811713D01*
X182362287Y-78781234D01*
X182372872Y-78751650D01*
X182386306Y-78723246D01*
X182402459Y-78696296D01*
X182421177Y-78671058D01*
X182442277Y-78647777D01*
X182465558Y-78626677D01*
X182490796Y-78607959D01*
X182517746Y-78591806D01*
X182546150Y-78578372D01*
X182575734Y-78567787D01*
X182606213Y-78560152D01*
X182637293Y-78555542D01*
X182668676Y-78554000D01*
X183853324Y-78554000D01*
X183884707Y-78555542D01*
X183884707Y-78555542D01*
G37*
D24*
X183261000Y-79629000D03*
D11*
G36*
X180909707Y-78555542D02*
X180940787Y-78560152D01*
X180971266Y-78567787D01*
X181000850Y-78578372D01*
X181029254Y-78591806D01*
X181056204Y-78607959D01*
X181081442Y-78626677D01*
X181104723Y-78647777D01*
X181125823Y-78671058D01*
X181144541Y-78696296D01*
X181160694Y-78723246D01*
X181174128Y-78751650D01*
X181184713Y-78781234D01*
X181192348Y-78811713D01*
X181196958Y-78842793D01*
X181198500Y-78874176D01*
X181198500Y-80383824D01*
X181196958Y-80415207D01*
X181192348Y-80446287D01*
X181184713Y-80476766D01*
X181174128Y-80506350D01*
X181160694Y-80534754D01*
X181144541Y-80561704D01*
X181125823Y-80586942D01*
X181104723Y-80610223D01*
X181081442Y-80631323D01*
X181056204Y-80650041D01*
X181029254Y-80666194D01*
X181000850Y-80679628D01*
X180971266Y-80690213D01*
X180940787Y-80697848D01*
X180909707Y-80702458D01*
X180878324Y-80704000D01*
X179693676Y-80704000D01*
X179662293Y-80702458D01*
X179631213Y-80697848D01*
X179600734Y-80690213D01*
X179571150Y-80679628D01*
X179542746Y-80666194D01*
X179515796Y-80650041D01*
X179490558Y-80631323D01*
X179467277Y-80610223D01*
X179446177Y-80586942D01*
X179427459Y-80561704D01*
X179411306Y-80534754D01*
X179397872Y-80506350D01*
X179387287Y-80476766D01*
X179379652Y-80446287D01*
X179375042Y-80415207D01*
X179373500Y-80383824D01*
X179373500Y-78874176D01*
X179375042Y-78842793D01*
X179379652Y-78811713D01*
X179387287Y-78781234D01*
X179397872Y-78751650D01*
X179411306Y-78723246D01*
X179427459Y-78696296D01*
X179446177Y-78671058D01*
X179467277Y-78647777D01*
X179490558Y-78626677D01*
X179515796Y-78607959D01*
X179542746Y-78591806D01*
X179571150Y-78578372D01*
X179600734Y-78567787D01*
X179631213Y-78560152D01*
X179662293Y-78555542D01*
X179693676Y-78554000D01*
X180878324Y-78554000D01*
X180909707Y-78555542D01*
X180909707Y-78555542D01*
G37*
D24*
X180286000Y-79629000D03*
G04 #@! TD*
D11*
G04 #@! TO.C,C22*
G36*
X233371071Y-77460623D02*
X233403781Y-77465475D01*
X233435857Y-77473509D01*
X233466991Y-77484649D01*
X233496884Y-77498787D01*
X233525247Y-77515787D01*
X233551807Y-77535485D01*
X233576308Y-77557692D01*
X233598515Y-77582193D01*
X233618213Y-77608753D01*
X233635213Y-77637116D01*
X233649351Y-77667009D01*
X233660491Y-77698143D01*
X233668525Y-77730219D01*
X233673377Y-77762929D01*
X233675000Y-77795956D01*
X233675000Y-78922044D01*
X233673377Y-78955071D01*
X233668525Y-78987781D01*
X233660491Y-79019857D01*
X233649351Y-79050991D01*
X233635213Y-79080884D01*
X233618213Y-79109247D01*
X233598515Y-79135807D01*
X233576308Y-79160308D01*
X233551807Y-79182515D01*
X233525247Y-79202213D01*
X233496884Y-79219213D01*
X233466991Y-79233351D01*
X233435857Y-79244491D01*
X233403781Y-79252525D01*
X233371071Y-79257377D01*
X233338044Y-79259000D01*
X232461956Y-79259000D01*
X232428929Y-79257377D01*
X232396219Y-79252525D01*
X232364143Y-79244491D01*
X232333009Y-79233351D01*
X232303116Y-79219213D01*
X232274753Y-79202213D01*
X232248193Y-79182515D01*
X232223692Y-79160308D01*
X232201485Y-79135807D01*
X232181787Y-79109247D01*
X232164787Y-79080884D01*
X232150649Y-79050991D01*
X232139509Y-79019857D01*
X232131475Y-78987781D01*
X232126623Y-78955071D01*
X232125000Y-78922044D01*
X232125000Y-77795956D01*
X232126623Y-77762929D01*
X232131475Y-77730219D01*
X232139509Y-77698143D01*
X232150649Y-77667009D01*
X232164787Y-77637116D01*
X232181787Y-77608753D01*
X232201485Y-77582193D01*
X232223692Y-77557692D01*
X232248193Y-77535485D01*
X232274753Y-77515787D01*
X232303116Y-77498787D01*
X232333009Y-77484649D01*
X232364143Y-77473509D01*
X232396219Y-77465475D01*
X232428929Y-77460623D01*
X232461956Y-77459000D01*
X233338044Y-77459000D01*
X233371071Y-77460623D01*
X233371071Y-77460623D01*
G37*
D12*
X232900000Y-78359000D03*
D11*
G36*
X235421071Y-77460623D02*
X235453781Y-77465475D01*
X235485857Y-77473509D01*
X235516991Y-77484649D01*
X235546884Y-77498787D01*
X235575247Y-77515787D01*
X235601807Y-77535485D01*
X235626308Y-77557692D01*
X235648515Y-77582193D01*
X235668213Y-77608753D01*
X235685213Y-77637116D01*
X235699351Y-77667009D01*
X235710491Y-77698143D01*
X235718525Y-77730219D01*
X235723377Y-77762929D01*
X235725000Y-77795956D01*
X235725000Y-78922044D01*
X235723377Y-78955071D01*
X235718525Y-78987781D01*
X235710491Y-79019857D01*
X235699351Y-79050991D01*
X235685213Y-79080884D01*
X235668213Y-79109247D01*
X235648515Y-79135807D01*
X235626308Y-79160308D01*
X235601807Y-79182515D01*
X235575247Y-79202213D01*
X235546884Y-79219213D01*
X235516991Y-79233351D01*
X235485857Y-79244491D01*
X235453781Y-79252525D01*
X235421071Y-79257377D01*
X235388044Y-79259000D01*
X234511956Y-79259000D01*
X234478929Y-79257377D01*
X234446219Y-79252525D01*
X234414143Y-79244491D01*
X234383009Y-79233351D01*
X234353116Y-79219213D01*
X234324753Y-79202213D01*
X234298193Y-79182515D01*
X234273692Y-79160308D01*
X234251485Y-79135807D01*
X234231787Y-79109247D01*
X234214787Y-79080884D01*
X234200649Y-79050991D01*
X234189509Y-79019857D01*
X234181475Y-78987781D01*
X234176623Y-78955071D01*
X234175000Y-78922044D01*
X234175000Y-77795956D01*
X234176623Y-77762929D01*
X234181475Y-77730219D01*
X234189509Y-77698143D01*
X234200649Y-77667009D01*
X234214787Y-77637116D01*
X234231787Y-77608753D01*
X234251485Y-77582193D01*
X234273692Y-77557692D01*
X234298193Y-77535485D01*
X234324753Y-77515787D01*
X234353116Y-77498787D01*
X234383009Y-77484649D01*
X234414143Y-77473509D01*
X234446219Y-77465475D01*
X234478929Y-77460623D01*
X234511956Y-77459000D01*
X235388044Y-77459000D01*
X235421071Y-77460623D01*
X235421071Y-77460623D01*
G37*
D12*
X234950000Y-78359000D03*
G04 #@! TD*
D11*
G04 #@! TO.C,C24*
G36*
X207633707Y-62680542D02*
X207664787Y-62685152D01*
X207695266Y-62692787D01*
X207724850Y-62703372D01*
X207753254Y-62716806D01*
X207780204Y-62732959D01*
X207805442Y-62751677D01*
X207828723Y-62772777D01*
X207849823Y-62796058D01*
X207868541Y-62821296D01*
X207884694Y-62848246D01*
X207898128Y-62876650D01*
X207908713Y-62906234D01*
X207916348Y-62936713D01*
X207920958Y-62967793D01*
X207922500Y-62999176D01*
X207922500Y-64508824D01*
X207920958Y-64540207D01*
X207916348Y-64571287D01*
X207908713Y-64601766D01*
X207898128Y-64631350D01*
X207884694Y-64659754D01*
X207868541Y-64686704D01*
X207849823Y-64711942D01*
X207828723Y-64735223D01*
X207805442Y-64756323D01*
X207780204Y-64775041D01*
X207753254Y-64791194D01*
X207724850Y-64804628D01*
X207695266Y-64815213D01*
X207664787Y-64822848D01*
X207633707Y-64827458D01*
X207602324Y-64829000D01*
X206417676Y-64829000D01*
X206386293Y-64827458D01*
X206355213Y-64822848D01*
X206324734Y-64815213D01*
X206295150Y-64804628D01*
X206266746Y-64791194D01*
X206239796Y-64775041D01*
X206214558Y-64756323D01*
X206191277Y-64735223D01*
X206170177Y-64711942D01*
X206151459Y-64686704D01*
X206135306Y-64659754D01*
X206121872Y-64631350D01*
X206111287Y-64601766D01*
X206103652Y-64571287D01*
X206099042Y-64540207D01*
X206097500Y-64508824D01*
X206097500Y-62999176D01*
X206099042Y-62967793D01*
X206103652Y-62936713D01*
X206111287Y-62906234D01*
X206121872Y-62876650D01*
X206135306Y-62848246D01*
X206151459Y-62821296D01*
X206170177Y-62796058D01*
X206191277Y-62772777D01*
X206214558Y-62751677D01*
X206239796Y-62732959D01*
X206266746Y-62716806D01*
X206295150Y-62703372D01*
X206324734Y-62692787D01*
X206355213Y-62685152D01*
X206386293Y-62680542D01*
X206417676Y-62679000D01*
X207602324Y-62679000D01*
X207633707Y-62680542D01*
X207633707Y-62680542D01*
G37*
D24*
X207010000Y-63754000D03*
D11*
G36*
X210608707Y-62680542D02*
X210639787Y-62685152D01*
X210670266Y-62692787D01*
X210699850Y-62703372D01*
X210728254Y-62716806D01*
X210755204Y-62732959D01*
X210780442Y-62751677D01*
X210803723Y-62772777D01*
X210824823Y-62796058D01*
X210843541Y-62821296D01*
X210859694Y-62848246D01*
X210873128Y-62876650D01*
X210883713Y-62906234D01*
X210891348Y-62936713D01*
X210895958Y-62967793D01*
X210897500Y-62999176D01*
X210897500Y-64508824D01*
X210895958Y-64540207D01*
X210891348Y-64571287D01*
X210883713Y-64601766D01*
X210873128Y-64631350D01*
X210859694Y-64659754D01*
X210843541Y-64686704D01*
X210824823Y-64711942D01*
X210803723Y-64735223D01*
X210780442Y-64756323D01*
X210755204Y-64775041D01*
X210728254Y-64791194D01*
X210699850Y-64804628D01*
X210670266Y-64815213D01*
X210639787Y-64822848D01*
X210608707Y-64827458D01*
X210577324Y-64829000D01*
X209392676Y-64829000D01*
X209361293Y-64827458D01*
X209330213Y-64822848D01*
X209299734Y-64815213D01*
X209270150Y-64804628D01*
X209241746Y-64791194D01*
X209214796Y-64775041D01*
X209189558Y-64756323D01*
X209166277Y-64735223D01*
X209145177Y-64711942D01*
X209126459Y-64686704D01*
X209110306Y-64659754D01*
X209096872Y-64631350D01*
X209086287Y-64601766D01*
X209078652Y-64571287D01*
X209074042Y-64540207D01*
X209072500Y-64508824D01*
X209072500Y-62999176D01*
X209074042Y-62967793D01*
X209078652Y-62936713D01*
X209086287Y-62906234D01*
X209096872Y-62876650D01*
X209110306Y-62848246D01*
X209126459Y-62821296D01*
X209145177Y-62796058D01*
X209166277Y-62772777D01*
X209189558Y-62751677D01*
X209214796Y-62732959D01*
X209241746Y-62716806D01*
X209270150Y-62703372D01*
X209299734Y-62692787D01*
X209330213Y-62685152D01*
X209361293Y-62680542D01*
X209392676Y-62679000D01*
X210577324Y-62679000D01*
X210608707Y-62680542D01*
X210608707Y-62680542D01*
G37*
D24*
X209985000Y-63754000D03*
G04 #@! TD*
D11*
G04 #@! TO.C,C25*
G36*
X195922071Y-62853623D02*
X195954781Y-62858475D01*
X195986857Y-62866509D01*
X196017991Y-62877649D01*
X196047884Y-62891787D01*
X196076247Y-62908787D01*
X196102807Y-62928485D01*
X196127308Y-62950692D01*
X196149515Y-62975193D01*
X196169213Y-63001753D01*
X196186213Y-63030116D01*
X196200351Y-63060009D01*
X196211491Y-63091143D01*
X196219525Y-63123219D01*
X196224377Y-63155929D01*
X196226000Y-63188956D01*
X196226000Y-64065044D01*
X196224377Y-64098071D01*
X196219525Y-64130781D01*
X196211491Y-64162857D01*
X196200351Y-64193991D01*
X196186213Y-64223884D01*
X196169213Y-64252247D01*
X196149515Y-64278807D01*
X196127308Y-64303308D01*
X196102807Y-64325515D01*
X196076247Y-64345213D01*
X196047884Y-64362213D01*
X196017991Y-64376351D01*
X195986857Y-64387491D01*
X195954781Y-64395525D01*
X195922071Y-64400377D01*
X195889044Y-64402000D01*
X194762956Y-64402000D01*
X194729929Y-64400377D01*
X194697219Y-64395525D01*
X194665143Y-64387491D01*
X194634009Y-64376351D01*
X194604116Y-64362213D01*
X194575753Y-64345213D01*
X194549193Y-64325515D01*
X194524692Y-64303308D01*
X194502485Y-64278807D01*
X194482787Y-64252247D01*
X194465787Y-64223884D01*
X194451649Y-64193991D01*
X194440509Y-64162857D01*
X194432475Y-64130781D01*
X194427623Y-64098071D01*
X194426000Y-64065044D01*
X194426000Y-63188956D01*
X194427623Y-63155929D01*
X194432475Y-63123219D01*
X194440509Y-63091143D01*
X194451649Y-63060009D01*
X194465787Y-63030116D01*
X194482787Y-63001753D01*
X194502485Y-62975193D01*
X194524692Y-62950692D01*
X194549193Y-62928485D01*
X194575753Y-62908787D01*
X194604116Y-62891787D01*
X194634009Y-62877649D01*
X194665143Y-62866509D01*
X194697219Y-62858475D01*
X194729929Y-62853623D01*
X194762956Y-62852000D01*
X195889044Y-62852000D01*
X195922071Y-62853623D01*
X195922071Y-62853623D01*
G37*
D12*
X195326000Y-63627000D03*
D11*
G36*
X195922071Y-64903623D02*
X195954781Y-64908475D01*
X195986857Y-64916509D01*
X196017991Y-64927649D01*
X196047884Y-64941787D01*
X196076247Y-64958787D01*
X196102807Y-64978485D01*
X196127308Y-65000692D01*
X196149515Y-65025193D01*
X196169213Y-65051753D01*
X196186213Y-65080116D01*
X196200351Y-65110009D01*
X196211491Y-65141143D01*
X196219525Y-65173219D01*
X196224377Y-65205929D01*
X196226000Y-65238956D01*
X196226000Y-66115044D01*
X196224377Y-66148071D01*
X196219525Y-66180781D01*
X196211491Y-66212857D01*
X196200351Y-66243991D01*
X196186213Y-66273884D01*
X196169213Y-66302247D01*
X196149515Y-66328807D01*
X196127308Y-66353308D01*
X196102807Y-66375515D01*
X196076247Y-66395213D01*
X196047884Y-66412213D01*
X196017991Y-66426351D01*
X195986857Y-66437491D01*
X195954781Y-66445525D01*
X195922071Y-66450377D01*
X195889044Y-66452000D01*
X194762956Y-66452000D01*
X194729929Y-66450377D01*
X194697219Y-66445525D01*
X194665143Y-66437491D01*
X194634009Y-66426351D01*
X194604116Y-66412213D01*
X194575753Y-66395213D01*
X194549193Y-66375515D01*
X194524692Y-66353308D01*
X194502485Y-66328807D01*
X194482787Y-66302247D01*
X194465787Y-66273884D01*
X194451649Y-66243991D01*
X194440509Y-66212857D01*
X194432475Y-66180781D01*
X194427623Y-66148071D01*
X194426000Y-66115044D01*
X194426000Y-65238956D01*
X194427623Y-65205929D01*
X194432475Y-65173219D01*
X194440509Y-65141143D01*
X194451649Y-65110009D01*
X194465787Y-65080116D01*
X194482787Y-65051753D01*
X194502485Y-65025193D01*
X194524692Y-65000692D01*
X194549193Y-64978485D01*
X194575753Y-64958787D01*
X194604116Y-64941787D01*
X194634009Y-64927649D01*
X194665143Y-64916509D01*
X194697219Y-64908475D01*
X194729929Y-64903623D01*
X194762956Y-64902000D01*
X195889044Y-64902000D01*
X195922071Y-64903623D01*
X195922071Y-64903623D01*
G37*
D12*
X195326000Y-65677000D03*
G04 #@! TD*
D11*
G04 #@! TO.C,C27*
G36*
X233577207Y-39294042D02*
X233608287Y-39298652D01*
X233638766Y-39306287D01*
X233668350Y-39316872D01*
X233696754Y-39330306D01*
X233723704Y-39346459D01*
X233748942Y-39365177D01*
X233772223Y-39386277D01*
X233793323Y-39409558D01*
X233812041Y-39434796D01*
X233828194Y-39461746D01*
X233841628Y-39490150D01*
X233852213Y-39519734D01*
X233859848Y-39550213D01*
X233864458Y-39581293D01*
X233866000Y-39612676D01*
X233866000Y-40797324D01*
X233864458Y-40828707D01*
X233859848Y-40859787D01*
X233852213Y-40890266D01*
X233841628Y-40919850D01*
X233828194Y-40948254D01*
X233812041Y-40975204D01*
X233793323Y-41000442D01*
X233772223Y-41023723D01*
X233748942Y-41044823D01*
X233723704Y-41063541D01*
X233696754Y-41079694D01*
X233668350Y-41093128D01*
X233638766Y-41103713D01*
X233608287Y-41111348D01*
X233577207Y-41115958D01*
X233545824Y-41117500D01*
X232036176Y-41117500D01*
X232004793Y-41115958D01*
X231973713Y-41111348D01*
X231943234Y-41103713D01*
X231913650Y-41093128D01*
X231885246Y-41079694D01*
X231858296Y-41063541D01*
X231833058Y-41044823D01*
X231809777Y-41023723D01*
X231788677Y-41000442D01*
X231769959Y-40975204D01*
X231753806Y-40948254D01*
X231740372Y-40919850D01*
X231729787Y-40890266D01*
X231722152Y-40859787D01*
X231717542Y-40828707D01*
X231716000Y-40797324D01*
X231716000Y-39612676D01*
X231717542Y-39581293D01*
X231722152Y-39550213D01*
X231729787Y-39519734D01*
X231740372Y-39490150D01*
X231753806Y-39461746D01*
X231769959Y-39434796D01*
X231788677Y-39409558D01*
X231809777Y-39386277D01*
X231833058Y-39365177D01*
X231858296Y-39346459D01*
X231885246Y-39330306D01*
X231913650Y-39316872D01*
X231943234Y-39306287D01*
X231973713Y-39298652D01*
X232004793Y-39294042D01*
X232036176Y-39292500D01*
X233545824Y-39292500D01*
X233577207Y-39294042D01*
X233577207Y-39294042D01*
G37*
D24*
X232791000Y-40205000D03*
D11*
G36*
X233577207Y-42269042D02*
X233608287Y-42273652D01*
X233638766Y-42281287D01*
X233668350Y-42291872D01*
X233696754Y-42305306D01*
X233723704Y-42321459D01*
X233748942Y-42340177D01*
X233772223Y-42361277D01*
X233793323Y-42384558D01*
X233812041Y-42409796D01*
X233828194Y-42436746D01*
X233841628Y-42465150D01*
X233852213Y-42494734D01*
X233859848Y-42525213D01*
X233864458Y-42556293D01*
X233866000Y-42587676D01*
X233866000Y-43772324D01*
X233864458Y-43803707D01*
X233859848Y-43834787D01*
X233852213Y-43865266D01*
X233841628Y-43894850D01*
X233828194Y-43923254D01*
X233812041Y-43950204D01*
X233793323Y-43975442D01*
X233772223Y-43998723D01*
X233748942Y-44019823D01*
X233723704Y-44038541D01*
X233696754Y-44054694D01*
X233668350Y-44068128D01*
X233638766Y-44078713D01*
X233608287Y-44086348D01*
X233577207Y-44090958D01*
X233545824Y-44092500D01*
X232036176Y-44092500D01*
X232004793Y-44090958D01*
X231973713Y-44086348D01*
X231943234Y-44078713D01*
X231913650Y-44068128D01*
X231885246Y-44054694D01*
X231858296Y-44038541D01*
X231833058Y-44019823D01*
X231809777Y-43998723D01*
X231788677Y-43975442D01*
X231769959Y-43950204D01*
X231753806Y-43923254D01*
X231740372Y-43894850D01*
X231729787Y-43865266D01*
X231722152Y-43834787D01*
X231717542Y-43803707D01*
X231716000Y-43772324D01*
X231716000Y-42587676D01*
X231717542Y-42556293D01*
X231722152Y-42525213D01*
X231729787Y-42494734D01*
X231740372Y-42465150D01*
X231753806Y-42436746D01*
X231769959Y-42409796D01*
X231788677Y-42384558D01*
X231809777Y-42361277D01*
X231833058Y-42340177D01*
X231858296Y-42321459D01*
X231885246Y-42305306D01*
X231913650Y-42291872D01*
X231943234Y-42281287D01*
X231973713Y-42273652D01*
X232004793Y-42269042D01*
X232036176Y-42267500D01*
X233545824Y-42267500D01*
X233577207Y-42269042D01*
X233577207Y-42269042D01*
G37*
D24*
X232791000Y-43180000D03*
G04 #@! TD*
D25*
G04 #@! TO.C,D1*
X246761000Y-46355000D03*
D16*
X249301000Y-46355000D03*
G04 #@! TD*
G04 #@! TO.C,D2*
X246761000Y-41783000D03*
D25*
X249301000Y-41783000D03*
G04 #@! TD*
G04 #@! TO.C,D3*
X167132000Y-84963000D03*
D16*
X167132000Y-87503000D03*
G04 #@! TD*
D25*
G04 #@! TO.C,D4*
X245364000Y-66040000D03*
D16*
X247904000Y-66040000D03*
G04 #@! TD*
G04 #@! TO.C,D5*
X245364000Y-70612000D03*
D25*
X247904000Y-70612000D03*
G04 #@! TD*
D14*
G04 #@! TO.C,GROUNDBRIDGE1*
X188595000Y-34544000D03*
G04 #@! TD*
G04 #@! TO.C,NeckVolumePot1*
X209042000Y-99060000D03*
D13*
X209042000Y-101600000D03*
X211582000Y-99060000D03*
X211582000Y-101600000D03*
X214122000Y-99060000D03*
X214122000Y-101600000D03*
X216662000Y-99060000D03*
X216662000Y-101600000D03*
X219202000Y-99060000D03*
X219202000Y-101600000D03*
X221742000Y-99060000D03*
X221742000Y-101600000D03*
X224282000Y-99060000D03*
X224282000Y-101600000D03*
G04 #@! TD*
D26*
G04 #@! TO.C,Q1*
X240919000Y-101600000D03*
X240919000Y-102870000D03*
D27*
X240919000Y-100330000D03*
G04 #@! TD*
D26*
G04 #@! TO.C,Q2*
X226187000Y-94234000D03*
X226187000Y-92964000D03*
D27*
X226187000Y-95504000D03*
G04 #@! TD*
D11*
G04 #@! TO.C,R1*
G36*
X227674071Y-41138623D02*
X227706781Y-41143475D01*
X227738857Y-41151509D01*
X227769991Y-41162649D01*
X227799884Y-41176787D01*
X227828247Y-41193787D01*
X227854807Y-41213485D01*
X227879308Y-41235692D01*
X227901515Y-41260193D01*
X227921213Y-41286753D01*
X227938213Y-41315116D01*
X227952351Y-41345009D01*
X227963491Y-41376143D01*
X227971525Y-41408219D01*
X227976377Y-41440929D01*
X227978000Y-41473956D01*
X227978000Y-42600044D01*
X227976377Y-42633071D01*
X227971525Y-42665781D01*
X227963491Y-42697857D01*
X227952351Y-42728991D01*
X227938213Y-42758884D01*
X227921213Y-42787247D01*
X227901515Y-42813807D01*
X227879308Y-42838308D01*
X227854807Y-42860515D01*
X227828247Y-42880213D01*
X227799884Y-42897213D01*
X227769991Y-42911351D01*
X227738857Y-42922491D01*
X227706781Y-42930525D01*
X227674071Y-42935377D01*
X227641044Y-42937000D01*
X226764956Y-42937000D01*
X226731929Y-42935377D01*
X226699219Y-42930525D01*
X226667143Y-42922491D01*
X226636009Y-42911351D01*
X226606116Y-42897213D01*
X226577753Y-42880213D01*
X226551193Y-42860515D01*
X226526692Y-42838308D01*
X226504485Y-42813807D01*
X226484787Y-42787247D01*
X226467787Y-42758884D01*
X226453649Y-42728991D01*
X226442509Y-42697857D01*
X226434475Y-42665781D01*
X226429623Y-42633071D01*
X226428000Y-42600044D01*
X226428000Y-41473956D01*
X226429623Y-41440929D01*
X226434475Y-41408219D01*
X226442509Y-41376143D01*
X226453649Y-41345009D01*
X226467787Y-41315116D01*
X226484787Y-41286753D01*
X226504485Y-41260193D01*
X226526692Y-41235692D01*
X226551193Y-41213485D01*
X226577753Y-41193787D01*
X226606116Y-41176787D01*
X226636009Y-41162649D01*
X226667143Y-41151509D01*
X226699219Y-41143475D01*
X226731929Y-41138623D01*
X226764956Y-41137000D01*
X227641044Y-41137000D01*
X227674071Y-41138623D01*
X227674071Y-41138623D01*
G37*
D12*
X227203000Y-42037000D03*
D11*
G36*
X225624071Y-41138623D02*
X225656781Y-41143475D01*
X225688857Y-41151509D01*
X225719991Y-41162649D01*
X225749884Y-41176787D01*
X225778247Y-41193787D01*
X225804807Y-41213485D01*
X225829308Y-41235692D01*
X225851515Y-41260193D01*
X225871213Y-41286753D01*
X225888213Y-41315116D01*
X225902351Y-41345009D01*
X225913491Y-41376143D01*
X225921525Y-41408219D01*
X225926377Y-41440929D01*
X225928000Y-41473956D01*
X225928000Y-42600044D01*
X225926377Y-42633071D01*
X225921525Y-42665781D01*
X225913491Y-42697857D01*
X225902351Y-42728991D01*
X225888213Y-42758884D01*
X225871213Y-42787247D01*
X225851515Y-42813807D01*
X225829308Y-42838308D01*
X225804807Y-42860515D01*
X225778247Y-42880213D01*
X225749884Y-42897213D01*
X225719991Y-42911351D01*
X225688857Y-42922491D01*
X225656781Y-42930525D01*
X225624071Y-42935377D01*
X225591044Y-42937000D01*
X224714956Y-42937000D01*
X224681929Y-42935377D01*
X224649219Y-42930525D01*
X224617143Y-42922491D01*
X224586009Y-42911351D01*
X224556116Y-42897213D01*
X224527753Y-42880213D01*
X224501193Y-42860515D01*
X224476692Y-42838308D01*
X224454485Y-42813807D01*
X224434787Y-42787247D01*
X224417787Y-42758884D01*
X224403649Y-42728991D01*
X224392509Y-42697857D01*
X224384475Y-42665781D01*
X224379623Y-42633071D01*
X224378000Y-42600044D01*
X224378000Y-41473956D01*
X224379623Y-41440929D01*
X224384475Y-41408219D01*
X224392509Y-41376143D01*
X224403649Y-41345009D01*
X224417787Y-41315116D01*
X224434787Y-41286753D01*
X224454485Y-41260193D01*
X224476692Y-41235692D01*
X224501193Y-41213485D01*
X224527753Y-41193787D01*
X224556116Y-41176787D01*
X224586009Y-41162649D01*
X224617143Y-41151509D01*
X224649219Y-41143475D01*
X224681929Y-41138623D01*
X224714956Y-41137000D01*
X225591044Y-41137000D01*
X225624071Y-41138623D01*
X225624071Y-41138623D01*
G37*
D12*
X225153000Y-42037000D03*
G04 #@! TD*
D11*
G04 #@! TO.C,R2*
G36*
X233915071Y-55489623D02*
X233947781Y-55494475D01*
X233979857Y-55502509D01*
X234010991Y-55513649D01*
X234040884Y-55527787D01*
X234069247Y-55544787D01*
X234095807Y-55564485D01*
X234120308Y-55586692D01*
X234142515Y-55611193D01*
X234162213Y-55637753D01*
X234179213Y-55666116D01*
X234193351Y-55696009D01*
X234204491Y-55727143D01*
X234212525Y-55759219D01*
X234217377Y-55791929D01*
X234219000Y-55824956D01*
X234219000Y-56951044D01*
X234217377Y-56984071D01*
X234212525Y-57016781D01*
X234204491Y-57048857D01*
X234193351Y-57079991D01*
X234179213Y-57109884D01*
X234162213Y-57138247D01*
X234142515Y-57164807D01*
X234120308Y-57189308D01*
X234095807Y-57211515D01*
X234069247Y-57231213D01*
X234040884Y-57248213D01*
X234010991Y-57262351D01*
X233979857Y-57273491D01*
X233947781Y-57281525D01*
X233915071Y-57286377D01*
X233882044Y-57288000D01*
X233005956Y-57288000D01*
X232972929Y-57286377D01*
X232940219Y-57281525D01*
X232908143Y-57273491D01*
X232877009Y-57262351D01*
X232847116Y-57248213D01*
X232818753Y-57231213D01*
X232792193Y-57211515D01*
X232767692Y-57189308D01*
X232745485Y-57164807D01*
X232725787Y-57138247D01*
X232708787Y-57109884D01*
X232694649Y-57079991D01*
X232683509Y-57048857D01*
X232675475Y-57016781D01*
X232670623Y-56984071D01*
X232669000Y-56951044D01*
X232669000Y-55824956D01*
X232670623Y-55791929D01*
X232675475Y-55759219D01*
X232683509Y-55727143D01*
X232694649Y-55696009D01*
X232708787Y-55666116D01*
X232725787Y-55637753D01*
X232745485Y-55611193D01*
X232767692Y-55586692D01*
X232792193Y-55564485D01*
X232818753Y-55544787D01*
X232847116Y-55527787D01*
X232877009Y-55513649D01*
X232908143Y-55502509D01*
X232940219Y-55494475D01*
X232972929Y-55489623D01*
X233005956Y-55488000D01*
X233882044Y-55488000D01*
X233915071Y-55489623D01*
X233915071Y-55489623D01*
G37*
D12*
X233444000Y-56388000D03*
D11*
G36*
X231865071Y-55489623D02*
X231897781Y-55494475D01*
X231929857Y-55502509D01*
X231960991Y-55513649D01*
X231990884Y-55527787D01*
X232019247Y-55544787D01*
X232045807Y-55564485D01*
X232070308Y-55586692D01*
X232092515Y-55611193D01*
X232112213Y-55637753D01*
X232129213Y-55666116D01*
X232143351Y-55696009D01*
X232154491Y-55727143D01*
X232162525Y-55759219D01*
X232167377Y-55791929D01*
X232169000Y-55824956D01*
X232169000Y-56951044D01*
X232167377Y-56984071D01*
X232162525Y-57016781D01*
X232154491Y-57048857D01*
X232143351Y-57079991D01*
X232129213Y-57109884D01*
X232112213Y-57138247D01*
X232092515Y-57164807D01*
X232070308Y-57189308D01*
X232045807Y-57211515D01*
X232019247Y-57231213D01*
X231990884Y-57248213D01*
X231960991Y-57262351D01*
X231929857Y-57273491D01*
X231897781Y-57281525D01*
X231865071Y-57286377D01*
X231832044Y-57288000D01*
X230955956Y-57288000D01*
X230922929Y-57286377D01*
X230890219Y-57281525D01*
X230858143Y-57273491D01*
X230827009Y-57262351D01*
X230797116Y-57248213D01*
X230768753Y-57231213D01*
X230742193Y-57211515D01*
X230717692Y-57189308D01*
X230695485Y-57164807D01*
X230675787Y-57138247D01*
X230658787Y-57109884D01*
X230644649Y-57079991D01*
X230633509Y-57048857D01*
X230625475Y-57016781D01*
X230620623Y-56984071D01*
X230619000Y-56951044D01*
X230619000Y-55824956D01*
X230620623Y-55791929D01*
X230625475Y-55759219D01*
X230633509Y-55727143D01*
X230644649Y-55696009D01*
X230658787Y-55666116D01*
X230675787Y-55637753D01*
X230695485Y-55611193D01*
X230717692Y-55586692D01*
X230742193Y-55564485D01*
X230768753Y-55544787D01*
X230797116Y-55527787D01*
X230827009Y-55513649D01*
X230858143Y-55502509D01*
X230890219Y-55494475D01*
X230922929Y-55489623D01*
X230955956Y-55488000D01*
X231832044Y-55488000D01*
X231865071Y-55489623D01*
X231865071Y-55489623D01*
G37*
D12*
X231394000Y-56388000D03*
G04 #@! TD*
D11*
G04 #@! TO.C,R3*
G36*
X234659071Y-48504623D02*
X234691781Y-48509475D01*
X234723857Y-48517509D01*
X234754991Y-48528649D01*
X234784884Y-48542787D01*
X234813247Y-48559787D01*
X234839807Y-48579485D01*
X234864308Y-48601692D01*
X234886515Y-48626193D01*
X234906213Y-48652753D01*
X234923213Y-48681116D01*
X234937351Y-48711009D01*
X234948491Y-48742143D01*
X234956525Y-48774219D01*
X234961377Y-48806929D01*
X234963000Y-48839956D01*
X234963000Y-49966044D01*
X234961377Y-49999071D01*
X234956525Y-50031781D01*
X234948491Y-50063857D01*
X234937351Y-50094991D01*
X234923213Y-50124884D01*
X234906213Y-50153247D01*
X234886515Y-50179807D01*
X234864308Y-50204308D01*
X234839807Y-50226515D01*
X234813247Y-50246213D01*
X234784884Y-50263213D01*
X234754991Y-50277351D01*
X234723857Y-50288491D01*
X234691781Y-50296525D01*
X234659071Y-50301377D01*
X234626044Y-50303000D01*
X233749956Y-50303000D01*
X233716929Y-50301377D01*
X233684219Y-50296525D01*
X233652143Y-50288491D01*
X233621009Y-50277351D01*
X233591116Y-50263213D01*
X233562753Y-50246213D01*
X233536193Y-50226515D01*
X233511692Y-50204308D01*
X233489485Y-50179807D01*
X233469787Y-50153247D01*
X233452787Y-50124884D01*
X233438649Y-50094991D01*
X233427509Y-50063857D01*
X233419475Y-50031781D01*
X233414623Y-49999071D01*
X233413000Y-49966044D01*
X233413000Y-48839956D01*
X233414623Y-48806929D01*
X233419475Y-48774219D01*
X233427509Y-48742143D01*
X233438649Y-48711009D01*
X233452787Y-48681116D01*
X233469787Y-48652753D01*
X233489485Y-48626193D01*
X233511692Y-48601692D01*
X233536193Y-48579485D01*
X233562753Y-48559787D01*
X233591116Y-48542787D01*
X233621009Y-48528649D01*
X233652143Y-48517509D01*
X233684219Y-48509475D01*
X233716929Y-48504623D01*
X233749956Y-48503000D01*
X234626044Y-48503000D01*
X234659071Y-48504623D01*
X234659071Y-48504623D01*
G37*
D12*
X234188000Y-49403000D03*
D11*
G36*
X236709071Y-48504623D02*
X236741781Y-48509475D01*
X236773857Y-48517509D01*
X236804991Y-48528649D01*
X236834884Y-48542787D01*
X236863247Y-48559787D01*
X236889807Y-48579485D01*
X236914308Y-48601692D01*
X236936515Y-48626193D01*
X236956213Y-48652753D01*
X236973213Y-48681116D01*
X236987351Y-48711009D01*
X236998491Y-48742143D01*
X237006525Y-48774219D01*
X237011377Y-48806929D01*
X237013000Y-48839956D01*
X237013000Y-49966044D01*
X237011377Y-49999071D01*
X237006525Y-50031781D01*
X236998491Y-50063857D01*
X236987351Y-50094991D01*
X236973213Y-50124884D01*
X236956213Y-50153247D01*
X236936515Y-50179807D01*
X236914308Y-50204308D01*
X236889807Y-50226515D01*
X236863247Y-50246213D01*
X236834884Y-50263213D01*
X236804991Y-50277351D01*
X236773857Y-50288491D01*
X236741781Y-50296525D01*
X236709071Y-50301377D01*
X236676044Y-50303000D01*
X235799956Y-50303000D01*
X235766929Y-50301377D01*
X235734219Y-50296525D01*
X235702143Y-50288491D01*
X235671009Y-50277351D01*
X235641116Y-50263213D01*
X235612753Y-50246213D01*
X235586193Y-50226515D01*
X235561692Y-50204308D01*
X235539485Y-50179807D01*
X235519787Y-50153247D01*
X235502787Y-50124884D01*
X235488649Y-50094991D01*
X235477509Y-50063857D01*
X235469475Y-50031781D01*
X235464623Y-49999071D01*
X235463000Y-49966044D01*
X235463000Y-48839956D01*
X235464623Y-48806929D01*
X235469475Y-48774219D01*
X235477509Y-48742143D01*
X235488649Y-48711009D01*
X235502787Y-48681116D01*
X235519787Y-48652753D01*
X235539485Y-48626193D01*
X235561692Y-48601692D01*
X235586193Y-48579485D01*
X235612753Y-48559787D01*
X235641116Y-48542787D01*
X235671009Y-48528649D01*
X235702143Y-48517509D01*
X235734219Y-48509475D01*
X235766929Y-48504623D01*
X235799956Y-48503000D01*
X236676044Y-48503000D01*
X236709071Y-48504623D01*
X236709071Y-48504623D01*
G37*
D12*
X236238000Y-49403000D03*
G04 #@! TD*
D11*
G04 #@! TO.C,R6*
G36*
X217512071Y-84951623D02*
X217544781Y-84956475D01*
X217576857Y-84964509D01*
X217607991Y-84975649D01*
X217637884Y-84989787D01*
X217666247Y-85006787D01*
X217692807Y-85026485D01*
X217717308Y-85048692D01*
X217739515Y-85073193D01*
X217759213Y-85099753D01*
X217776213Y-85128116D01*
X217790351Y-85158009D01*
X217801491Y-85189143D01*
X217809525Y-85221219D01*
X217814377Y-85253929D01*
X217816000Y-85286956D01*
X217816000Y-86163044D01*
X217814377Y-86196071D01*
X217809525Y-86228781D01*
X217801491Y-86260857D01*
X217790351Y-86291991D01*
X217776213Y-86321884D01*
X217759213Y-86350247D01*
X217739515Y-86376807D01*
X217717308Y-86401308D01*
X217692807Y-86423515D01*
X217666247Y-86443213D01*
X217637884Y-86460213D01*
X217607991Y-86474351D01*
X217576857Y-86485491D01*
X217544781Y-86493525D01*
X217512071Y-86498377D01*
X217479044Y-86500000D01*
X216352956Y-86500000D01*
X216319929Y-86498377D01*
X216287219Y-86493525D01*
X216255143Y-86485491D01*
X216224009Y-86474351D01*
X216194116Y-86460213D01*
X216165753Y-86443213D01*
X216139193Y-86423515D01*
X216114692Y-86401308D01*
X216092485Y-86376807D01*
X216072787Y-86350247D01*
X216055787Y-86321884D01*
X216041649Y-86291991D01*
X216030509Y-86260857D01*
X216022475Y-86228781D01*
X216017623Y-86196071D01*
X216016000Y-86163044D01*
X216016000Y-85286956D01*
X216017623Y-85253929D01*
X216022475Y-85221219D01*
X216030509Y-85189143D01*
X216041649Y-85158009D01*
X216055787Y-85128116D01*
X216072787Y-85099753D01*
X216092485Y-85073193D01*
X216114692Y-85048692D01*
X216139193Y-85026485D01*
X216165753Y-85006787D01*
X216194116Y-84989787D01*
X216224009Y-84975649D01*
X216255143Y-84964509D01*
X216287219Y-84956475D01*
X216319929Y-84951623D01*
X216352956Y-84950000D01*
X217479044Y-84950000D01*
X217512071Y-84951623D01*
X217512071Y-84951623D01*
G37*
D12*
X216916000Y-85725000D03*
D11*
G36*
X217512071Y-82901623D02*
X217544781Y-82906475D01*
X217576857Y-82914509D01*
X217607991Y-82925649D01*
X217637884Y-82939787D01*
X217666247Y-82956787D01*
X217692807Y-82976485D01*
X217717308Y-82998692D01*
X217739515Y-83023193D01*
X217759213Y-83049753D01*
X217776213Y-83078116D01*
X217790351Y-83108009D01*
X217801491Y-83139143D01*
X217809525Y-83171219D01*
X217814377Y-83203929D01*
X217816000Y-83236956D01*
X217816000Y-84113044D01*
X217814377Y-84146071D01*
X217809525Y-84178781D01*
X217801491Y-84210857D01*
X217790351Y-84241991D01*
X217776213Y-84271884D01*
X217759213Y-84300247D01*
X217739515Y-84326807D01*
X217717308Y-84351308D01*
X217692807Y-84373515D01*
X217666247Y-84393213D01*
X217637884Y-84410213D01*
X217607991Y-84424351D01*
X217576857Y-84435491D01*
X217544781Y-84443525D01*
X217512071Y-84448377D01*
X217479044Y-84450000D01*
X216352956Y-84450000D01*
X216319929Y-84448377D01*
X216287219Y-84443525D01*
X216255143Y-84435491D01*
X216224009Y-84424351D01*
X216194116Y-84410213D01*
X216165753Y-84393213D01*
X216139193Y-84373515D01*
X216114692Y-84351308D01*
X216092485Y-84326807D01*
X216072787Y-84300247D01*
X216055787Y-84271884D01*
X216041649Y-84241991D01*
X216030509Y-84210857D01*
X216022475Y-84178781D01*
X216017623Y-84146071D01*
X216016000Y-84113044D01*
X216016000Y-83236956D01*
X216017623Y-83203929D01*
X216022475Y-83171219D01*
X216030509Y-83139143D01*
X216041649Y-83108009D01*
X216055787Y-83078116D01*
X216072787Y-83049753D01*
X216092485Y-83023193D01*
X216114692Y-82998692D01*
X216139193Y-82976485D01*
X216165753Y-82956787D01*
X216194116Y-82939787D01*
X216224009Y-82925649D01*
X216255143Y-82914509D01*
X216287219Y-82906475D01*
X216319929Y-82901623D01*
X216352956Y-82900000D01*
X217479044Y-82900000D01*
X217512071Y-82901623D01*
X217512071Y-82901623D01*
G37*
D12*
X216916000Y-83675000D03*
G04 #@! TD*
D11*
G04 #@! TO.C,R10*
G36*
X236437071Y-62220623D02*
X236469781Y-62225475D01*
X236501857Y-62233509D01*
X236532991Y-62244649D01*
X236562884Y-62258787D01*
X236591247Y-62275787D01*
X236617807Y-62295485D01*
X236642308Y-62317692D01*
X236664515Y-62342193D01*
X236684213Y-62368753D01*
X236701213Y-62397116D01*
X236715351Y-62427009D01*
X236726491Y-62458143D01*
X236734525Y-62490219D01*
X236739377Y-62522929D01*
X236741000Y-62555956D01*
X236741000Y-63682044D01*
X236739377Y-63715071D01*
X236734525Y-63747781D01*
X236726491Y-63779857D01*
X236715351Y-63810991D01*
X236701213Y-63840884D01*
X236684213Y-63869247D01*
X236664515Y-63895807D01*
X236642308Y-63920308D01*
X236617807Y-63942515D01*
X236591247Y-63962213D01*
X236562884Y-63979213D01*
X236532991Y-63993351D01*
X236501857Y-64004491D01*
X236469781Y-64012525D01*
X236437071Y-64017377D01*
X236404044Y-64019000D01*
X235527956Y-64019000D01*
X235494929Y-64017377D01*
X235462219Y-64012525D01*
X235430143Y-64004491D01*
X235399009Y-63993351D01*
X235369116Y-63979213D01*
X235340753Y-63962213D01*
X235314193Y-63942515D01*
X235289692Y-63920308D01*
X235267485Y-63895807D01*
X235247787Y-63869247D01*
X235230787Y-63840884D01*
X235216649Y-63810991D01*
X235205509Y-63779857D01*
X235197475Y-63747781D01*
X235192623Y-63715071D01*
X235191000Y-63682044D01*
X235191000Y-62555956D01*
X235192623Y-62522929D01*
X235197475Y-62490219D01*
X235205509Y-62458143D01*
X235216649Y-62427009D01*
X235230787Y-62397116D01*
X235247787Y-62368753D01*
X235267485Y-62342193D01*
X235289692Y-62317692D01*
X235314193Y-62295485D01*
X235340753Y-62275787D01*
X235369116Y-62258787D01*
X235399009Y-62244649D01*
X235430143Y-62233509D01*
X235462219Y-62225475D01*
X235494929Y-62220623D01*
X235527956Y-62219000D01*
X236404044Y-62219000D01*
X236437071Y-62220623D01*
X236437071Y-62220623D01*
G37*
D12*
X235966000Y-63119000D03*
D11*
G36*
X234387071Y-62220623D02*
X234419781Y-62225475D01*
X234451857Y-62233509D01*
X234482991Y-62244649D01*
X234512884Y-62258787D01*
X234541247Y-62275787D01*
X234567807Y-62295485D01*
X234592308Y-62317692D01*
X234614515Y-62342193D01*
X234634213Y-62368753D01*
X234651213Y-62397116D01*
X234665351Y-62427009D01*
X234676491Y-62458143D01*
X234684525Y-62490219D01*
X234689377Y-62522929D01*
X234691000Y-62555956D01*
X234691000Y-63682044D01*
X234689377Y-63715071D01*
X234684525Y-63747781D01*
X234676491Y-63779857D01*
X234665351Y-63810991D01*
X234651213Y-63840884D01*
X234634213Y-63869247D01*
X234614515Y-63895807D01*
X234592308Y-63920308D01*
X234567807Y-63942515D01*
X234541247Y-63962213D01*
X234512884Y-63979213D01*
X234482991Y-63993351D01*
X234451857Y-64004491D01*
X234419781Y-64012525D01*
X234387071Y-64017377D01*
X234354044Y-64019000D01*
X233477956Y-64019000D01*
X233444929Y-64017377D01*
X233412219Y-64012525D01*
X233380143Y-64004491D01*
X233349009Y-63993351D01*
X233319116Y-63979213D01*
X233290753Y-63962213D01*
X233264193Y-63942515D01*
X233239692Y-63920308D01*
X233217485Y-63895807D01*
X233197787Y-63869247D01*
X233180787Y-63840884D01*
X233166649Y-63810991D01*
X233155509Y-63779857D01*
X233147475Y-63747781D01*
X233142623Y-63715071D01*
X233141000Y-63682044D01*
X233141000Y-62555956D01*
X233142623Y-62522929D01*
X233147475Y-62490219D01*
X233155509Y-62458143D01*
X233166649Y-62427009D01*
X233180787Y-62397116D01*
X233197787Y-62368753D01*
X233217485Y-62342193D01*
X233239692Y-62317692D01*
X233264193Y-62295485D01*
X233290753Y-62275787D01*
X233319116Y-62258787D01*
X233349009Y-62244649D01*
X233380143Y-62233509D01*
X233412219Y-62225475D01*
X233444929Y-62220623D01*
X233477956Y-62219000D01*
X234354044Y-62219000D01*
X234387071Y-62220623D01*
X234387071Y-62220623D01*
G37*
D12*
X233916000Y-63119000D03*
G04 #@! TD*
D11*
G04 #@! TO.C,R11*
G36*
X216226071Y-94478623D02*
X216258781Y-94483475D01*
X216290857Y-94491509D01*
X216321991Y-94502649D01*
X216351884Y-94516787D01*
X216380247Y-94533787D01*
X216406807Y-94553485D01*
X216431308Y-94575692D01*
X216453515Y-94600193D01*
X216473213Y-94626753D01*
X216490213Y-94655116D01*
X216504351Y-94685009D01*
X216515491Y-94716143D01*
X216523525Y-94748219D01*
X216528377Y-94780929D01*
X216530000Y-94813956D01*
X216530000Y-95940044D01*
X216528377Y-95973071D01*
X216523525Y-96005781D01*
X216515491Y-96037857D01*
X216504351Y-96068991D01*
X216490213Y-96098884D01*
X216473213Y-96127247D01*
X216453515Y-96153807D01*
X216431308Y-96178308D01*
X216406807Y-96200515D01*
X216380247Y-96220213D01*
X216351884Y-96237213D01*
X216321991Y-96251351D01*
X216290857Y-96262491D01*
X216258781Y-96270525D01*
X216226071Y-96275377D01*
X216193044Y-96277000D01*
X215316956Y-96277000D01*
X215283929Y-96275377D01*
X215251219Y-96270525D01*
X215219143Y-96262491D01*
X215188009Y-96251351D01*
X215158116Y-96237213D01*
X215129753Y-96220213D01*
X215103193Y-96200515D01*
X215078692Y-96178308D01*
X215056485Y-96153807D01*
X215036787Y-96127247D01*
X215019787Y-96098884D01*
X215005649Y-96068991D01*
X214994509Y-96037857D01*
X214986475Y-96005781D01*
X214981623Y-95973071D01*
X214980000Y-95940044D01*
X214980000Y-94813956D01*
X214981623Y-94780929D01*
X214986475Y-94748219D01*
X214994509Y-94716143D01*
X215005649Y-94685009D01*
X215019787Y-94655116D01*
X215036787Y-94626753D01*
X215056485Y-94600193D01*
X215078692Y-94575692D01*
X215103193Y-94553485D01*
X215129753Y-94533787D01*
X215158116Y-94516787D01*
X215188009Y-94502649D01*
X215219143Y-94491509D01*
X215251219Y-94483475D01*
X215283929Y-94478623D01*
X215316956Y-94477000D01*
X216193044Y-94477000D01*
X216226071Y-94478623D01*
X216226071Y-94478623D01*
G37*
D12*
X215755000Y-95377000D03*
D11*
G36*
X218276071Y-94478623D02*
X218308781Y-94483475D01*
X218340857Y-94491509D01*
X218371991Y-94502649D01*
X218401884Y-94516787D01*
X218430247Y-94533787D01*
X218456807Y-94553485D01*
X218481308Y-94575692D01*
X218503515Y-94600193D01*
X218523213Y-94626753D01*
X218540213Y-94655116D01*
X218554351Y-94685009D01*
X218565491Y-94716143D01*
X218573525Y-94748219D01*
X218578377Y-94780929D01*
X218580000Y-94813956D01*
X218580000Y-95940044D01*
X218578377Y-95973071D01*
X218573525Y-96005781D01*
X218565491Y-96037857D01*
X218554351Y-96068991D01*
X218540213Y-96098884D01*
X218523213Y-96127247D01*
X218503515Y-96153807D01*
X218481308Y-96178308D01*
X218456807Y-96200515D01*
X218430247Y-96220213D01*
X218401884Y-96237213D01*
X218371991Y-96251351D01*
X218340857Y-96262491D01*
X218308781Y-96270525D01*
X218276071Y-96275377D01*
X218243044Y-96277000D01*
X217366956Y-96277000D01*
X217333929Y-96275377D01*
X217301219Y-96270525D01*
X217269143Y-96262491D01*
X217238009Y-96251351D01*
X217208116Y-96237213D01*
X217179753Y-96220213D01*
X217153193Y-96200515D01*
X217128692Y-96178308D01*
X217106485Y-96153807D01*
X217086787Y-96127247D01*
X217069787Y-96098884D01*
X217055649Y-96068991D01*
X217044509Y-96037857D01*
X217036475Y-96005781D01*
X217031623Y-95973071D01*
X217030000Y-95940044D01*
X217030000Y-94813956D01*
X217031623Y-94780929D01*
X217036475Y-94748219D01*
X217044509Y-94716143D01*
X217055649Y-94685009D01*
X217069787Y-94655116D01*
X217086787Y-94626753D01*
X217106485Y-94600193D01*
X217128692Y-94575692D01*
X217153193Y-94553485D01*
X217179753Y-94533787D01*
X217208116Y-94516787D01*
X217238009Y-94502649D01*
X217269143Y-94491509D01*
X217301219Y-94483475D01*
X217333929Y-94478623D01*
X217366956Y-94477000D01*
X218243044Y-94477000D01*
X218276071Y-94478623D01*
X218276071Y-94478623D01*
G37*
D12*
X217805000Y-95377000D03*
G04 #@! TD*
D11*
G04 #@! TO.C,R12*
G36*
X202800071Y-60315623D02*
X202832781Y-60320475D01*
X202864857Y-60328509D01*
X202895991Y-60339649D01*
X202925884Y-60353787D01*
X202954247Y-60370787D01*
X202980807Y-60390485D01*
X203005308Y-60412692D01*
X203027515Y-60437193D01*
X203047213Y-60463753D01*
X203064213Y-60492116D01*
X203078351Y-60522009D01*
X203089491Y-60553143D01*
X203097525Y-60585219D01*
X203102377Y-60617929D01*
X203104000Y-60650956D01*
X203104000Y-61777044D01*
X203102377Y-61810071D01*
X203097525Y-61842781D01*
X203089491Y-61874857D01*
X203078351Y-61905991D01*
X203064213Y-61935884D01*
X203047213Y-61964247D01*
X203027515Y-61990807D01*
X203005308Y-62015308D01*
X202980807Y-62037515D01*
X202954247Y-62057213D01*
X202925884Y-62074213D01*
X202895991Y-62088351D01*
X202864857Y-62099491D01*
X202832781Y-62107525D01*
X202800071Y-62112377D01*
X202767044Y-62114000D01*
X201890956Y-62114000D01*
X201857929Y-62112377D01*
X201825219Y-62107525D01*
X201793143Y-62099491D01*
X201762009Y-62088351D01*
X201732116Y-62074213D01*
X201703753Y-62057213D01*
X201677193Y-62037515D01*
X201652692Y-62015308D01*
X201630485Y-61990807D01*
X201610787Y-61964247D01*
X201593787Y-61935884D01*
X201579649Y-61905991D01*
X201568509Y-61874857D01*
X201560475Y-61842781D01*
X201555623Y-61810071D01*
X201554000Y-61777044D01*
X201554000Y-60650956D01*
X201555623Y-60617929D01*
X201560475Y-60585219D01*
X201568509Y-60553143D01*
X201579649Y-60522009D01*
X201593787Y-60492116D01*
X201610787Y-60463753D01*
X201630485Y-60437193D01*
X201652692Y-60412692D01*
X201677193Y-60390485D01*
X201703753Y-60370787D01*
X201732116Y-60353787D01*
X201762009Y-60339649D01*
X201793143Y-60328509D01*
X201825219Y-60320475D01*
X201857929Y-60315623D01*
X201890956Y-60314000D01*
X202767044Y-60314000D01*
X202800071Y-60315623D01*
X202800071Y-60315623D01*
G37*
D12*
X202329000Y-61214000D03*
D11*
G36*
X200750071Y-60315623D02*
X200782781Y-60320475D01*
X200814857Y-60328509D01*
X200845991Y-60339649D01*
X200875884Y-60353787D01*
X200904247Y-60370787D01*
X200930807Y-60390485D01*
X200955308Y-60412692D01*
X200977515Y-60437193D01*
X200997213Y-60463753D01*
X201014213Y-60492116D01*
X201028351Y-60522009D01*
X201039491Y-60553143D01*
X201047525Y-60585219D01*
X201052377Y-60617929D01*
X201054000Y-60650956D01*
X201054000Y-61777044D01*
X201052377Y-61810071D01*
X201047525Y-61842781D01*
X201039491Y-61874857D01*
X201028351Y-61905991D01*
X201014213Y-61935884D01*
X200997213Y-61964247D01*
X200977515Y-61990807D01*
X200955308Y-62015308D01*
X200930807Y-62037515D01*
X200904247Y-62057213D01*
X200875884Y-62074213D01*
X200845991Y-62088351D01*
X200814857Y-62099491D01*
X200782781Y-62107525D01*
X200750071Y-62112377D01*
X200717044Y-62114000D01*
X199840956Y-62114000D01*
X199807929Y-62112377D01*
X199775219Y-62107525D01*
X199743143Y-62099491D01*
X199712009Y-62088351D01*
X199682116Y-62074213D01*
X199653753Y-62057213D01*
X199627193Y-62037515D01*
X199602692Y-62015308D01*
X199580485Y-61990807D01*
X199560787Y-61964247D01*
X199543787Y-61935884D01*
X199529649Y-61905991D01*
X199518509Y-61874857D01*
X199510475Y-61842781D01*
X199505623Y-61810071D01*
X199504000Y-61777044D01*
X199504000Y-60650956D01*
X199505623Y-60617929D01*
X199510475Y-60585219D01*
X199518509Y-60553143D01*
X199529649Y-60522009D01*
X199543787Y-60492116D01*
X199560787Y-60463753D01*
X199580485Y-60437193D01*
X199602692Y-60412692D01*
X199627193Y-60390485D01*
X199653753Y-60370787D01*
X199682116Y-60353787D01*
X199712009Y-60339649D01*
X199743143Y-60328509D01*
X199775219Y-60320475D01*
X199807929Y-60315623D01*
X199840956Y-60314000D01*
X200717044Y-60314000D01*
X200750071Y-60315623D01*
X200750071Y-60315623D01*
G37*
D12*
X200279000Y-61214000D03*
G04 #@! TD*
D11*
G04 #@! TO.C,R13*
G36*
X188558071Y-78095623D02*
X188590781Y-78100475D01*
X188622857Y-78108509D01*
X188653991Y-78119649D01*
X188683884Y-78133787D01*
X188712247Y-78150787D01*
X188738807Y-78170485D01*
X188763308Y-78192692D01*
X188785515Y-78217193D01*
X188805213Y-78243753D01*
X188822213Y-78272116D01*
X188836351Y-78302009D01*
X188847491Y-78333143D01*
X188855525Y-78365219D01*
X188860377Y-78397929D01*
X188862000Y-78430956D01*
X188862000Y-79557044D01*
X188860377Y-79590071D01*
X188855525Y-79622781D01*
X188847491Y-79654857D01*
X188836351Y-79685991D01*
X188822213Y-79715884D01*
X188805213Y-79744247D01*
X188785515Y-79770807D01*
X188763308Y-79795308D01*
X188738807Y-79817515D01*
X188712247Y-79837213D01*
X188683884Y-79854213D01*
X188653991Y-79868351D01*
X188622857Y-79879491D01*
X188590781Y-79887525D01*
X188558071Y-79892377D01*
X188525044Y-79894000D01*
X187648956Y-79894000D01*
X187615929Y-79892377D01*
X187583219Y-79887525D01*
X187551143Y-79879491D01*
X187520009Y-79868351D01*
X187490116Y-79854213D01*
X187461753Y-79837213D01*
X187435193Y-79817515D01*
X187410692Y-79795308D01*
X187388485Y-79770807D01*
X187368787Y-79744247D01*
X187351787Y-79715884D01*
X187337649Y-79685991D01*
X187326509Y-79654857D01*
X187318475Y-79622781D01*
X187313623Y-79590071D01*
X187312000Y-79557044D01*
X187312000Y-78430956D01*
X187313623Y-78397929D01*
X187318475Y-78365219D01*
X187326509Y-78333143D01*
X187337649Y-78302009D01*
X187351787Y-78272116D01*
X187368787Y-78243753D01*
X187388485Y-78217193D01*
X187410692Y-78192692D01*
X187435193Y-78170485D01*
X187461753Y-78150787D01*
X187490116Y-78133787D01*
X187520009Y-78119649D01*
X187551143Y-78108509D01*
X187583219Y-78100475D01*
X187615929Y-78095623D01*
X187648956Y-78094000D01*
X188525044Y-78094000D01*
X188558071Y-78095623D01*
X188558071Y-78095623D01*
G37*
D12*
X188087000Y-78994000D03*
D11*
G36*
X186508071Y-78095623D02*
X186540781Y-78100475D01*
X186572857Y-78108509D01*
X186603991Y-78119649D01*
X186633884Y-78133787D01*
X186662247Y-78150787D01*
X186688807Y-78170485D01*
X186713308Y-78192692D01*
X186735515Y-78217193D01*
X186755213Y-78243753D01*
X186772213Y-78272116D01*
X186786351Y-78302009D01*
X186797491Y-78333143D01*
X186805525Y-78365219D01*
X186810377Y-78397929D01*
X186812000Y-78430956D01*
X186812000Y-79557044D01*
X186810377Y-79590071D01*
X186805525Y-79622781D01*
X186797491Y-79654857D01*
X186786351Y-79685991D01*
X186772213Y-79715884D01*
X186755213Y-79744247D01*
X186735515Y-79770807D01*
X186713308Y-79795308D01*
X186688807Y-79817515D01*
X186662247Y-79837213D01*
X186633884Y-79854213D01*
X186603991Y-79868351D01*
X186572857Y-79879491D01*
X186540781Y-79887525D01*
X186508071Y-79892377D01*
X186475044Y-79894000D01*
X185598956Y-79894000D01*
X185565929Y-79892377D01*
X185533219Y-79887525D01*
X185501143Y-79879491D01*
X185470009Y-79868351D01*
X185440116Y-79854213D01*
X185411753Y-79837213D01*
X185385193Y-79817515D01*
X185360692Y-79795308D01*
X185338485Y-79770807D01*
X185318787Y-79744247D01*
X185301787Y-79715884D01*
X185287649Y-79685991D01*
X185276509Y-79654857D01*
X185268475Y-79622781D01*
X185263623Y-79590071D01*
X185262000Y-79557044D01*
X185262000Y-78430956D01*
X185263623Y-78397929D01*
X185268475Y-78365219D01*
X185276509Y-78333143D01*
X185287649Y-78302009D01*
X185301787Y-78272116D01*
X185318787Y-78243753D01*
X185338485Y-78217193D01*
X185360692Y-78192692D01*
X185385193Y-78170485D01*
X185411753Y-78150787D01*
X185440116Y-78133787D01*
X185470009Y-78119649D01*
X185501143Y-78108509D01*
X185533219Y-78100475D01*
X185565929Y-78095623D01*
X185598956Y-78094000D01*
X186475044Y-78094000D01*
X186508071Y-78095623D01*
X186508071Y-78095623D01*
G37*
D12*
X186037000Y-78994000D03*
G04 #@! TD*
D11*
G04 #@! TO.C,R14*
G36*
X219927071Y-90922623D02*
X219959781Y-90927475D01*
X219991857Y-90935509D01*
X220022991Y-90946649D01*
X220052884Y-90960787D01*
X220081247Y-90977787D01*
X220107807Y-90997485D01*
X220132308Y-91019692D01*
X220154515Y-91044193D01*
X220174213Y-91070753D01*
X220191213Y-91099116D01*
X220205351Y-91129009D01*
X220216491Y-91160143D01*
X220224525Y-91192219D01*
X220229377Y-91224929D01*
X220231000Y-91257956D01*
X220231000Y-92384044D01*
X220229377Y-92417071D01*
X220224525Y-92449781D01*
X220216491Y-92481857D01*
X220205351Y-92512991D01*
X220191213Y-92542884D01*
X220174213Y-92571247D01*
X220154515Y-92597807D01*
X220132308Y-92622308D01*
X220107807Y-92644515D01*
X220081247Y-92664213D01*
X220052884Y-92681213D01*
X220022991Y-92695351D01*
X219991857Y-92706491D01*
X219959781Y-92714525D01*
X219927071Y-92719377D01*
X219894044Y-92721000D01*
X219017956Y-92721000D01*
X218984929Y-92719377D01*
X218952219Y-92714525D01*
X218920143Y-92706491D01*
X218889009Y-92695351D01*
X218859116Y-92681213D01*
X218830753Y-92664213D01*
X218804193Y-92644515D01*
X218779692Y-92622308D01*
X218757485Y-92597807D01*
X218737787Y-92571247D01*
X218720787Y-92542884D01*
X218706649Y-92512991D01*
X218695509Y-92481857D01*
X218687475Y-92449781D01*
X218682623Y-92417071D01*
X218681000Y-92384044D01*
X218681000Y-91257956D01*
X218682623Y-91224929D01*
X218687475Y-91192219D01*
X218695509Y-91160143D01*
X218706649Y-91129009D01*
X218720787Y-91099116D01*
X218737787Y-91070753D01*
X218757485Y-91044193D01*
X218779692Y-91019692D01*
X218804193Y-90997485D01*
X218830753Y-90977787D01*
X218859116Y-90960787D01*
X218889009Y-90946649D01*
X218920143Y-90935509D01*
X218952219Y-90927475D01*
X218984929Y-90922623D01*
X219017956Y-90921000D01*
X219894044Y-90921000D01*
X219927071Y-90922623D01*
X219927071Y-90922623D01*
G37*
D12*
X219456000Y-91821000D03*
D11*
G36*
X217877071Y-90922623D02*
X217909781Y-90927475D01*
X217941857Y-90935509D01*
X217972991Y-90946649D01*
X218002884Y-90960787D01*
X218031247Y-90977787D01*
X218057807Y-90997485D01*
X218082308Y-91019692D01*
X218104515Y-91044193D01*
X218124213Y-91070753D01*
X218141213Y-91099116D01*
X218155351Y-91129009D01*
X218166491Y-91160143D01*
X218174525Y-91192219D01*
X218179377Y-91224929D01*
X218181000Y-91257956D01*
X218181000Y-92384044D01*
X218179377Y-92417071D01*
X218174525Y-92449781D01*
X218166491Y-92481857D01*
X218155351Y-92512991D01*
X218141213Y-92542884D01*
X218124213Y-92571247D01*
X218104515Y-92597807D01*
X218082308Y-92622308D01*
X218057807Y-92644515D01*
X218031247Y-92664213D01*
X218002884Y-92681213D01*
X217972991Y-92695351D01*
X217941857Y-92706491D01*
X217909781Y-92714525D01*
X217877071Y-92719377D01*
X217844044Y-92721000D01*
X216967956Y-92721000D01*
X216934929Y-92719377D01*
X216902219Y-92714525D01*
X216870143Y-92706491D01*
X216839009Y-92695351D01*
X216809116Y-92681213D01*
X216780753Y-92664213D01*
X216754193Y-92644515D01*
X216729692Y-92622308D01*
X216707485Y-92597807D01*
X216687787Y-92571247D01*
X216670787Y-92542884D01*
X216656649Y-92512991D01*
X216645509Y-92481857D01*
X216637475Y-92449781D01*
X216632623Y-92417071D01*
X216631000Y-92384044D01*
X216631000Y-91257956D01*
X216632623Y-91224929D01*
X216637475Y-91192219D01*
X216645509Y-91160143D01*
X216656649Y-91129009D01*
X216670787Y-91099116D01*
X216687787Y-91070753D01*
X216707485Y-91044193D01*
X216729692Y-91019692D01*
X216754193Y-90997485D01*
X216780753Y-90977787D01*
X216809116Y-90960787D01*
X216839009Y-90946649D01*
X216870143Y-90935509D01*
X216902219Y-90927475D01*
X216934929Y-90922623D01*
X216967956Y-90921000D01*
X217844044Y-90921000D01*
X217877071Y-90922623D01*
X217877071Y-90922623D01*
G37*
D12*
X217406000Y-91821000D03*
G04 #@! TD*
D11*
G04 #@! TO.C,R16*
G36*
X169517071Y-81143623D02*
X169549781Y-81148475D01*
X169581857Y-81156509D01*
X169612991Y-81167649D01*
X169642884Y-81181787D01*
X169671247Y-81198787D01*
X169697807Y-81218485D01*
X169722308Y-81240692D01*
X169744515Y-81265193D01*
X169764213Y-81291753D01*
X169781213Y-81320116D01*
X169795351Y-81350009D01*
X169806491Y-81381143D01*
X169814525Y-81413219D01*
X169819377Y-81445929D01*
X169821000Y-81478956D01*
X169821000Y-82605044D01*
X169819377Y-82638071D01*
X169814525Y-82670781D01*
X169806491Y-82702857D01*
X169795351Y-82733991D01*
X169781213Y-82763884D01*
X169764213Y-82792247D01*
X169744515Y-82818807D01*
X169722308Y-82843308D01*
X169697807Y-82865515D01*
X169671247Y-82885213D01*
X169642884Y-82902213D01*
X169612991Y-82916351D01*
X169581857Y-82927491D01*
X169549781Y-82935525D01*
X169517071Y-82940377D01*
X169484044Y-82942000D01*
X168607956Y-82942000D01*
X168574929Y-82940377D01*
X168542219Y-82935525D01*
X168510143Y-82927491D01*
X168479009Y-82916351D01*
X168449116Y-82902213D01*
X168420753Y-82885213D01*
X168394193Y-82865515D01*
X168369692Y-82843308D01*
X168347485Y-82818807D01*
X168327787Y-82792247D01*
X168310787Y-82763884D01*
X168296649Y-82733991D01*
X168285509Y-82702857D01*
X168277475Y-82670781D01*
X168272623Y-82638071D01*
X168271000Y-82605044D01*
X168271000Y-81478956D01*
X168272623Y-81445929D01*
X168277475Y-81413219D01*
X168285509Y-81381143D01*
X168296649Y-81350009D01*
X168310787Y-81320116D01*
X168327787Y-81291753D01*
X168347485Y-81265193D01*
X168369692Y-81240692D01*
X168394193Y-81218485D01*
X168420753Y-81198787D01*
X168449116Y-81181787D01*
X168479009Y-81167649D01*
X168510143Y-81156509D01*
X168542219Y-81148475D01*
X168574929Y-81143623D01*
X168607956Y-81142000D01*
X169484044Y-81142000D01*
X169517071Y-81143623D01*
X169517071Y-81143623D01*
G37*
D12*
X169046000Y-82042000D03*
D11*
G36*
X167467071Y-81143623D02*
X167499781Y-81148475D01*
X167531857Y-81156509D01*
X167562991Y-81167649D01*
X167592884Y-81181787D01*
X167621247Y-81198787D01*
X167647807Y-81218485D01*
X167672308Y-81240692D01*
X167694515Y-81265193D01*
X167714213Y-81291753D01*
X167731213Y-81320116D01*
X167745351Y-81350009D01*
X167756491Y-81381143D01*
X167764525Y-81413219D01*
X167769377Y-81445929D01*
X167771000Y-81478956D01*
X167771000Y-82605044D01*
X167769377Y-82638071D01*
X167764525Y-82670781D01*
X167756491Y-82702857D01*
X167745351Y-82733991D01*
X167731213Y-82763884D01*
X167714213Y-82792247D01*
X167694515Y-82818807D01*
X167672308Y-82843308D01*
X167647807Y-82865515D01*
X167621247Y-82885213D01*
X167592884Y-82902213D01*
X167562991Y-82916351D01*
X167531857Y-82927491D01*
X167499781Y-82935525D01*
X167467071Y-82940377D01*
X167434044Y-82942000D01*
X166557956Y-82942000D01*
X166524929Y-82940377D01*
X166492219Y-82935525D01*
X166460143Y-82927491D01*
X166429009Y-82916351D01*
X166399116Y-82902213D01*
X166370753Y-82885213D01*
X166344193Y-82865515D01*
X166319692Y-82843308D01*
X166297485Y-82818807D01*
X166277787Y-82792247D01*
X166260787Y-82763884D01*
X166246649Y-82733991D01*
X166235509Y-82702857D01*
X166227475Y-82670781D01*
X166222623Y-82638071D01*
X166221000Y-82605044D01*
X166221000Y-81478956D01*
X166222623Y-81445929D01*
X166227475Y-81413219D01*
X166235509Y-81381143D01*
X166246649Y-81350009D01*
X166260787Y-81320116D01*
X166277787Y-81291753D01*
X166297485Y-81265193D01*
X166319692Y-81240692D01*
X166344193Y-81218485D01*
X166370753Y-81198787D01*
X166399116Y-81181787D01*
X166429009Y-81167649D01*
X166460143Y-81156509D01*
X166492219Y-81148475D01*
X166524929Y-81143623D01*
X166557956Y-81142000D01*
X167434044Y-81142000D01*
X167467071Y-81143623D01*
X167467071Y-81143623D01*
G37*
D12*
X166996000Y-82042000D03*
G04 #@! TD*
D11*
G04 #@! TO.C,R17*
G36*
X219927071Y-87620623D02*
X219959781Y-87625475D01*
X219991857Y-87633509D01*
X220022991Y-87644649D01*
X220052884Y-87658787D01*
X220081247Y-87675787D01*
X220107807Y-87695485D01*
X220132308Y-87717692D01*
X220154515Y-87742193D01*
X220174213Y-87768753D01*
X220191213Y-87797116D01*
X220205351Y-87827009D01*
X220216491Y-87858143D01*
X220224525Y-87890219D01*
X220229377Y-87922929D01*
X220231000Y-87955956D01*
X220231000Y-89082044D01*
X220229377Y-89115071D01*
X220224525Y-89147781D01*
X220216491Y-89179857D01*
X220205351Y-89210991D01*
X220191213Y-89240884D01*
X220174213Y-89269247D01*
X220154515Y-89295807D01*
X220132308Y-89320308D01*
X220107807Y-89342515D01*
X220081247Y-89362213D01*
X220052884Y-89379213D01*
X220022991Y-89393351D01*
X219991857Y-89404491D01*
X219959781Y-89412525D01*
X219927071Y-89417377D01*
X219894044Y-89419000D01*
X219017956Y-89419000D01*
X218984929Y-89417377D01*
X218952219Y-89412525D01*
X218920143Y-89404491D01*
X218889009Y-89393351D01*
X218859116Y-89379213D01*
X218830753Y-89362213D01*
X218804193Y-89342515D01*
X218779692Y-89320308D01*
X218757485Y-89295807D01*
X218737787Y-89269247D01*
X218720787Y-89240884D01*
X218706649Y-89210991D01*
X218695509Y-89179857D01*
X218687475Y-89147781D01*
X218682623Y-89115071D01*
X218681000Y-89082044D01*
X218681000Y-87955956D01*
X218682623Y-87922929D01*
X218687475Y-87890219D01*
X218695509Y-87858143D01*
X218706649Y-87827009D01*
X218720787Y-87797116D01*
X218737787Y-87768753D01*
X218757485Y-87742193D01*
X218779692Y-87717692D01*
X218804193Y-87695485D01*
X218830753Y-87675787D01*
X218859116Y-87658787D01*
X218889009Y-87644649D01*
X218920143Y-87633509D01*
X218952219Y-87625475D01*
X218984929Y-87620623D01*
X219017956Y-87619000D01*
X219894044Y-87619000D01*
X219927071Y-87620623D01*
X219927071Y-87620623D01*
G37*
D12*
X219456000Y-88519000D03*
D11*
G36*
X217877071Y-87620623D02*
X217909781Y-87625475D01*
X217941857Y-87633509D01*
X217972991Y-87644649D01*
X218002884Y-87658787D01*
X218031247Y-87675787D01*
X218057807Y-87695485D01*
X218082308Y-87717692D01*
X218104515Y-87742193D01*
X218124213Y-87768753D01*
X218141213Y-87797116D01*
X218155351Y-87827009D01*
X218166491Y-87858143D01*
X218174525Y-87890219D01*
X218179377Y-87922929D01*
X218181000Y-87955956D01*
X218181000Y-89082044D01*
X218179377Y-89115071D01*
X218174525Y-89147781D01*
X218166491Y-89179857D01*
X218155351Y-89210991D01*
X218141213Y-89240884D01*
X218124213Y-89269247D01*
X218104515Y-89295807D01*
X218082308Y-89320308D01*
X218057807Y-89342515D01*
X218031247Y-89362213D01*
X218002884Y-89379213D01*
X217972991Y-89393351D01*
X217941857Y-89404491D01*
X217909781Y-89412525D01*
X217877071Y-89417377D01*
X217844044Y-89419000D01*
X216967956Y-89419000D01*
X216934929Y-89417377D01*
X216902219Y-89412525D01*
X216870143Y-89404491D01*
X216839009Y-89393351D01*
X216809116Y-89379213D01*
X216780753Y-89362213D01*
X216754193Y-89342515D01*
X216729692Y-89320308D01*
X216707485Y-89295807D01*
X216687787Y-89269247D01*
X216670787Y-89240884D01*
X216656649Y-89210991D01*
X216645509Y-89179857D01*
X216637475Y-89147781D01*
X216632623Y-89115071D01*
X216631000Y-89082044D01*
X216631000Y-87955956D01*
X216632623Y-87922929D01*
X216637475Y-87890219D01*
X216645509Y-87858143D01*
X216656649Y-87827009D01*
X216670787Y-87797116D01*
X216687787Y-87768753D01*
X216707485Y-87742193D01*
X216729692Y-87717692D01*
X216754193Y-87695485D01*
X216780753Y-87675787D01*
X216809116Y-87658787D01*
X216839009Y-87644649D01*
X216870143Y-87633509D01*
X216902219Y-87625475D01*
X216934929Y-87620623D01*
X216967956Y-87619000D01*
X217844044Y-87619000D01*
X217877071Y-87620623D01*
X217877071Y-87620623D01*
G37*
D12*
X217406000Y-88519000D03*
G04 #@! TD*
D11*
G04 #@! TO.C,R18*
G36*
X225116071Y-77714623D02*
X225148781Y-77719475D01*
X225180857Y-77727509D01*
X225211991Y-77738649D01*
X225241884Y-77752787D01*
X225270247Y-77769787D01*
X225296807Y-77789485D01*
X225321308Y-77811692D01*
X225343515Y-77836193D01*
X225363213Y-77862753D01*
X225380213Y-77891116D01*
X225394351Y-77921009D01*
X225405491Y-77952143D01*
X225413525Y-77984219D01*
X225418377Y-78016929D01*
X225420000Y-78049956D01*
X225420000Y-79176044D01*
X225418377Y-79209071D01*
X225413525Y-79241781D01*
X225405491Y-79273857D01*
X225394351Y-79304991D01*
X225380213Y-79334884D01*
X225363213Y-79363247D01*
X225343515Y-79389807D01*
X225321308Y-79414308D01*
X225296807Y-79436515D01*
X225270247Y-79456213D01*
X225241884Y-79473213D01*
X225211991Y-79487351D01*
X225180857Y-79498491D01*
X225148781Y-79506525D01*
X225116071Y-79511377D01*
X225083044Y-79513000D01*
X224206956Y-79513000D01*
X224173929Y-79511377D01*
X224141219Y-79506525D01*
X224109143Y-79498491D01*
X224078009Y-79487351D01*
X224048116Y-79473213D01*
X224019753Y-79456213D01*
X223993193Y-79436515D01*
X223968692Y-79414308D01*
X223946485Y-79389807D01*
X223926787Y-79363247D01*
X223909787Y-79334884D01*
X223895649Y-79304991D01*
X223884509Y-79273857D01*
X223876475Y-79241781D01*
X223871623Y-79209071D01*
X223870000Y-79176044D01*
X223870000Y-78049956D01*
X223871623Y-78016929D01*
X223876475Y-77984219D01*
X223884509Y-77952143D01*
X223895649Y-77921009D01*
X223909787Y-77891116D01*
X223926787Y-77862753D01*
X223946485Y-77836193D01*
X223968692Y-77811692D01*
X223993193Y-77789485D01*
X224019753Y-77769787D01*
X224048116Y-77752787D01*
X224078009Y-77738649D01*
X224109143Y-77727509D01*
X224141219Y-77719475D01*
X224173929Y-77714623D01*
X224206956Y-77713000D01*
X225083044Y-77713000D01*
X225116071Y-77714623D01*
X225116071Y-77714623D01*
G37*
D12*
X224645000Y-78613000D03*
D11*
G36*
X227166071Y-77714623D02*
X227198781Y-77719475D01*
X227230857Y-77727509D01*
X227261991Y-77738649D01*
X227291884Y-77752787D01*
X227320247Y-77769787D01*
X227346807Y-77789485D01*
X227371308Y-77811692D01*
X227393515Y-77836193D01*
X227413213Y-77862753D01*
X227430213Y-77891116D01*
X227444351Y-77921009D01*
X227455491Y-77952143D01*
X227463525Y-77984219D01*
X227468377Y-78016929D01*
X227470000Y-78049956D01*
X227470000Y-79176044D01*
X227468377Y-79209071D01*
X227463525Y-79241781D01*
X227455491Y-79273857D01*
X227444351Y-79304991D01*
X227430213Y-79334884D01*
X227413213Y-79363247D01*
X227393515Y-79389807D01*
X227371308Y-79414308D01*
X227346807Y-79436515D01*
X227320247Y-79456213D01*
X227291884Y-79473213D01*
X227261991Y-79487351D01*
X227230857Y-79498491D01*
X227198781Y-79506525D01*
X227166071Y-79511377D01*
X227133044Y-79513000D01*
X226256956Y-79513000D01*
X226223929Y-79511377D01*
X226191219Y-79506525D01*
X226159143Y-79498491D01*
X226128009Y-79487351D01*
X226098116Y-79473213D01*
X226069753Y-79456213D01*
X226043193Y-79436515D01*
X226018692Y-79414308D01*
X225996485Y-79389807D01*
X225976787Y-79363247D01*
X225959787Y-79334884D01*
X225945649Y-79304991D01*
X225934509Y-79273857D01*
X225926475Y-79241781D01*
X225921623Y-79209071D01*
X225920000Y-79176044D01*
X225920000Y-78049956D01*
X225921623Y-78016929D01*
X225926475Y-77984219D01*
X225934509Y-77952143D01*
X225945649Y-77921009D01*
X225959787Y-77891116D01*
X225976787Y-77862753D01*
X225996485Y-77836193D01*
X226018692Y-77811692D01*
X226043193Y-77789485D01*
X226069753Y-77769787D01*
X226098116Y-77752787D01*
X226128009Y-77738649D01*
X226159143Y-77727509D01*
X226191219Y-77719475D01*
X226223929Y-77714623D01*
X226256956Y-77713000D01*
X227133044Y-77713000D01*
X227166071Y-77714623D01*
X227166071Y-77714623D01*
G37*
D12*
X226695000Y-78613000D03*
G04 #@! TD*
D11*
G04 #@! TO.C,R19*
G36*
X227565071Y-70856623D02*
X227597781Y-70861475D01*
X227629857Y-70869509D01*
X227660991Y-70880649D01*
X227690884Y-70894787D01*
X227719247Y-70911787D01*
X227745807Y-70931485D01*
X227770308Y-70953692D01*
X227792515Y-70978193D01*
X227812213Y-71004753D01*
X227829213Y-71033116D01*
X227843351Y-71063009D01*
X227854491Y-71094143D01*
X227862525Y-71126219D01*
X227867377Y-71158929D01*
X227869000Y-71191956D01*
X227869000Y-72318044D01*
X227867377Y-72351071D01*
X227862525Y-72383781D01*
X227854491Y-72415857D01*
X227843351Y-72446991D01*
X227829213Y-72476884D01*
X227812213Y-72505247D01*
X227792515Y-72531807D01*
X227770308Y-72556308D01*
X227745807Y-72578515D01*
X227719247Y-72598213D01*
X227690884Y-72615213D01*
X227660991Y-72629351D01*
X227629857Y-72640491D01*
X227597781Y-72648525D01*
X227565071Y-72653377D01*
X227532044Y-72655000D01*
X226655956Y-72655000D01*
X226622929Y-72653377D01*
X226590219Y-72648525D01*
X226558143Y-72640491D01*
X226527009Y-72629351D01*
X226497116Y-72615213D01*
X226468753Y-72598213D01*
X226442193Y-72578515D01*
X226417692Y-72556308D01*
X226395485Y-72531807D01*
X226375787Y-72505247D01*
X226358787Y-72476884D01*
X226344649Y-72446991D01*
X226333509Y-72415857D01*
X226325475Y-72383781D01*
X226320623Y-72351071D01*
X226319000Y-72318044D01*
X226319000Y-71191956D01*
X226320623Y-71158929D01*
X226325475Y-71126219D01*
X226333509Y-71094143D01*
X226344649Y-71063009D01*
X226358787Y-71033116D01*
X226375787Y-71004753D01*
X226395485Y-70978193D01*
X226417692Y-70953692D01*
X226442193Y-70931485D01*
X226468753Y-70911787D01*
X226497116Y-70894787D01*
X226527009Y-70880649D01*
X226558143Y-70869509D01*
X226590219Y-70861475D01*
X226622929Y-70856623D01*
X226655956Y-70855000D01*
X227532044Y-70855000D01*
X227565071Y-70856623D01*
X227565071Y-70856623D01*
G37*
D12*
X227094000Y-71755000D03*
D11*
G36*
X225515071Y-70856623D02*
X225547781Y-70861475D01*
X225579857Y-70869509D01*
X225610991Y-70880649D01*
X225640884Y-70894787D01*
X225669247Y-70911787D01*
X225695807Y-70931485D01*
X225720308Y-70953692D01*
X225742515Y-70978193D01*
X225762213Y-71004753D01*
X225779213Y-71033116D01*
X225793351Y-71063009D01*
X225804491Y-71094143D01*
X225812525Y-71126219D01*
X225817377Y-71158929D01*
X225819000Y-71191956D01*
X225819000Y-72318044D01*
X225817377Y-72351071D01*
X225812525Y-72383781D01*
X225804491Y-72415857D01*
X225793351Y-72446991D01*
X225779213Y-72476884D01*
X225762213Y-72505247D01*
X225742515Y-72531807D01*
X225720308Y-72556308D01*
X225695807Y-72578515D01*
X225669247Y-72598213D01*
X225640884Y-72615213D01*
X225610991Y-72629351D01*
X225579857Y-72640491D01*
X225547781Y-72648525D01*
X225515071Y-72653377D01*
X225482044Y-72655000D01*
X224605956Y-72655000D01*
X224572929Y-72653377D01*
X224540219Y-72648525D01*
X224508143Y-72640491D01*
X224477009Y-72629351D01*
X224447116Y-72615213D01*
X224418753Y-72598213D01*
X224392193Y-72578515D01*
X224367692Y-72556308D01*
X224345485Y-72531807D01*
X224325787Y-72505247D01*
X224308787Y-72476884D01*
X224294649Y-72446991D01*
X224283509Y-72415857D01*
X224275475Y-72383781D01*
X224270623Y-72351071D01*
X224269000Y-72318044D01*
X224269000Y-71191956D01*
X224270623Y-71158929D01*
X224275475Y-71126219D01*
X224283509Y-71094143D01*
X224294649Y-71063009D01*
X224308787Y-71033116D01*
X224325787Y-71004753D01*
X224345485Y-70978193D01*
X224367692Y-70953692D01*
X224392193Y-70931485D01*
X224418753Y-70911787D01*
X224447116Y-70894787D01*
X224477009Y-70880649D01*
X224508143Y-70869509D01*
X224540219Y-70861475D01*
X224572929Y-70856623D01*
X224605956Y-70855000D01*
X225482044Y-70855000D01*
X225515071Y-70856623D01*
X225515071Y-70856623D01*
G37*
D12*
X225044000Y-71755000D03*
G04 #@! TD*
D11*
G04 #@! TO.C,R20*
G36*
X174461071Y-80127623D02*
X174493781Y-80132475D01*
X174525857Y-80140509D01*
X174556991Y-80151649D01*
X174586884Y-80165787D01*
X174615247Y-80182787D01*
X174641807Y-80202485D01*
X174666308Y-80224692D01*
X174688515Y-80249193D01*
X174708213Y-80275753D01*
X174725213Y-80304116D01*
X174739351Y-80334009D01*
X174750491Y-80365143D01*
X174758525Y-80397219D01*
X174763377Y-80429929D01*
X174765000Y-80462956D01*
X174765000Y-81589044D01*
X174763377Y-81622071D01*
X174758525Y-81654781D01*
X174750491Y-81686857D01*
X174739351Y-81717991D01*
X174725213Y-81747884D01*
X174708213Y-81776247D01*
X174688515Y-81802807D01*
X174666308Y-81827308D01*
X174641807Y-81849515D01*
X174615247Y-81869213D01*
X174586884Y-81886213D01*
X174556991Y-81900351D01*
X174525857Y-81911491D01*
X174493781Y-81919525D01*
X174461071Y-81924377D01*
X174428044Y-81926000D01*
X173551956Y-81926000D01*
X173518929Y-81924377D01*
X173486219Y-81919525D01*
X173454143Y-81911491D01*
X173423009Y-81900351D01*
X173393116Y-81886213D01*
X173364753Y-81869213D01*
X173338193Y-81849515D01*
X173313692Y-81827308D01*
X173291485Y-81802807D01*
X173271787Y-81776247D01*
X173254787Y-81747884D01*
X173240649Y-81717991D01*
X173229509Y-81686857D01*
X173221475Y-81654781D01*
X173216623Y-81622071D01*
X173215000Y-81589044D01*
X173215000Y-80462956D01*
X173216623Y-80429929D01*
X173221475Y-80397219D01*
X173229509Y-80365143D01*
X173240649Y-80334009D01*
X173254787Y-80304116D01*
X173271787Y-80275753D01*
X173291485Y-80249193D01*
X173313692Y-80224692D01*
X173338193Y-80202485D01*
X173364753Y-80182787D01*
X173393116Y-80165787D01*
X173423009Y-80151649D01*
X173454143Y-80140509D01*
X173486219Y-80132475D01*
X173518929Y-80127623D01*
X173551956Y-80126000D01*
X174428044Y-80126000D01*
X174461071Y-80127623D01*
X174461071Y-80127623D01*
G37*
D12*
X173990000Y-81026000D03*
D11*
G36*
X172411071Y-80127623D02*
X172443781Y-80132475D01*
X172475857Y-80140509D01*
X172506991Y-80151649D01*
X172536884Y-80165787D01*
X172565247Y-80182787D01*
X172591807Y-80202485D01*
X172616308Y-80224692D01*
X172638515Y-80249193D01*
X172658213Y-80275753D01*
X172675213Y-80304116D01*
X172689351Y-80334009D01*
X172700491Y-80365143D01*
X172708525Y-80397219D01*
X172713377Y-80429929D01*
X172715000Y-80462956D01*
X172715000Y-81589044D01*
X172713377Y-81622071D01*
X172708525Y-81654781D01*
X172700491Y-81686857D01*
X172689351Y-81717991D01*
X172675213Y-81747884D01*
X172658213Y-81776247D01*
X172638515Y-81802807D01*
X172616308Y-81827308D01*
X172591807Y-81849515D01*
X172565247Y-81869213D01*
X172536884Y-81886213D01*
X172506991Y-81900351D01*
X172475857Y-81911491D01*
X172443781Y-81919525D01*
X172411071Y-81924377D01*
X172378044Y-81926000D01*
X171501956Y-81926000D01*
X171468929Y-81924377D01*
X171436219Y-81919525D01*
X171404143Y-81911491D01*
X171373009Y-81900351D01*
X171343116Y-81886213D01*
X171314753Y-81869213D01*
X171288193Y-81849515D01*
X171263692Y-81827308D01*
X171241485Y-81802807D01*
X171221787Y-81776247D01*
X171204787Y-81747884D01*
X171190649Y-81717991D01*
X171179509Y-81686857D01*
X171171475Y-81654781D01*
X171166623Y-81622071D01*
X171165000Y-81589044D01*
X171165000Y-80462956D01*
X171166623Y-80429929D01*
X171171475Y-80397219D01*
X171179509Y-80365143D01*
X171190649Y-80334009D01*
X171204787Y-80304116D01*
X171221787Y-80275753D01*
X171241485Y-80249193D01*
X171263692Y-80224692D01*
X171288193Y-80202485D01*
X171314753Y-80182787D01*
X171343116Y-80165787D01*
X171373009Y-80151649D01*
X171404143Y-80140509D01*
X171436219Y-80132475D01*
X171468929Y-80127623D01*
X171501956Y-80126000D01*
X172378044Y-80126000D01*
X172411071Y-80127623D01*
X172411071Y-80127623D01*
G37*
D12*
X171940000Y-81026000D03*
G04 #@! TD*
D11*
G04 #@! TO.C,R21*
G36*
X182206071Y-92562623D02*
X182238781Y-92567475D01*
X182270857Y-92575509D01*
X182301991Y-92586649D01*
X182331884Y-92600787D01*
X182360247Y-92617787D01*
X182386807Y-92637485D01*
X182411308Y-92659692D01*
X182433515Y-92684193D01*
X182453213Y-92710753D01*
X182470213Y-92739116D01*
X182484351Y-92769009D01*
X182495491Y-92800143D01*
X182503525Y-92832219D01*
X182508377Y-92864929D01*
X182510000Y-92897956D01*
X182510000Y-93774044D01*
X182508377Y-93807071D01*
X182503525Y-93839781D01*
X182495491Y-93871857D01*
X182484351Y-93902991D01*
X182470213Y-93932884D01*
X182453213Y-93961247D01*
X182433515Y-93987807D01*
X182411308Y-94012308D01*
X182386807Y-94034515D01*
X182360247Y-94054213D01*
X182331884Y-94071213D01*
X182301991Y-94085351D01*
X182270857Y-94096491D01*
X182238781Y-94104525D01*
X182206071Y-94109377D01*
X182173044Y-94111000D01*
X181046956Y-94111000D01*
X181013929Y-94109377D01*
X180981219Y-94104525D01*
X180949143Y-94096491D01*
X180918009Y-94085351D01*
X180888116Y-94071213D01*
X180859753Y-94054213D01*
X180833193Y-94034515D01*
X180808692Y-94012308D01*
X180786485Y-93987807D01*
X180766787Y-93961247D01*
X180749787Y-93932884D01*
X180735649Y-93902991D01*
X180724509Y-93871857D01*
X180716475Y-93839781D01*
X180711623Y-93807071D01*
X180710000Y-93774044D01*
X180710000Y-92897956D01*
X180711623Y-92864929D01*
X180716475Y-92832219D01*
X180724509Y-92800143D01*
X180735649Y-92769009D01*
X180749787Y-92739116D01*
X180766787Y-92710753D01*
X180786485Y-92684193D01*
X180808692Y-92659692D01*
X180833193Y-92637485D01*
X180859753Y-92617787D01*
X180888116Y-92600787D01*
X180918009Y-92586649D01*
X180949143Y-92575509D01*
X180981219Y-92567475D01*
X181013929Y-92562623D01*
X181046956Y-92561000D01*
X182173044Y-92561000D01*
X182206071Y-92562623D01*
X182206071Y-92562623D01*
G37*
D12*
X181610000Y-93336000D03*
D11*
G36*
X182206071Y-94612623D02*
X182238781Y-94617475D01*
X182270857Y-94625509D01*
X182301991Y-94636649D01*
X182331884Y-94650787D01*
X182360247Y-94667787D01*
X182386807Y-94687485D01*
X182411308Y-94709692D01*
X182433515Y-94734193D01*
X182453213Y-94760753D01*
X182470213Y-94789116D01*
X182484351Y-94819009D01*
X182495491Y-94850143D01*
X182503525Y-94882219D01*
X182508377Y-94914929D01*
X182510000Y-94947956D01*
X182510000Y-95824044D01*
X182508377Y-95857071D01*
X182503525Y-95889781D01*
X182495491Y-95921857D01*
X182484351Y-95952991D01*
X182470213Y-95982884D01*
X182453213Y-96011247D01*
X182433515Y-96037807D01*
X182411308Y-96062308D01*
X182386807Y-96084515D01*
X182360247Y-96104213D01*
X182331884Y-96121213D01*
X182301991Y-96135351D01*
X182270857Y-96146491D01*
X182238781Y-96154525D01*
X182206071Y-96159377D01*
X182173044Y-96161000D01*
X181046956Y-96161000D01*
X181013929Y-96159377D01*
X180981219Y-96154525D01*
X180949143Y-96146491D01*
X180918009Y-96135351D01*
X180888116Y-96121213D01*
X180859753Y-96104213D01*
X180833193Y-96084515D01*
X180808692Y-96062308D01*
X180786485Y-96037807D01*
X180766787Y-96011247D01*
X180749787Y-95982884D01*
X180735649Y-95952991D01*
X180724509Y-95921857D01*
X180716475Y-95889781D01*
X180711623Y-95857071D01*
X180710000Y-95824044D01*
X180710000Y-94947956D01*
X180711623Y-94914929D01*
X180716475Y-94882219D01*
X180724509Y-94850143D01*
X180735649Y-94819009D01*
X180749787Y-94789116D01*
X180766787Y-94760753D01*
X180786485Y-94734193D01*
X180808692Y-94709692D01*
X180833193Y-94687485D01*
X180859753Y-94667787D01*
X180888116Y-94650787D01*
X180918009Y-94636649D01*
X180949143Y-94625509D01*
X180981219Y-94617475D01*
X181013929Y-94612623D01*
X181046956Y-94611000D01*
X182173044Y-94611000D01*
X182206071Y-94612623D01*
X182206071Y-94612623D01*
G37*
D12*
X181610000Y-95386000D03*
G04 #@! TD*
D11*
G04 #@! TO.C,R23*
G36*
X186780071Y-64633623D02*
X186812781Y-64638475D01*
X186844857Y-64646509D01*
X186875991Y-64657649D01*
X186905884Y-64671787D01*
X186934247Y-64688787D01*
X186960807Y-64708485D01*
X186985308Y-64730692D01*
X187007515Y-64755193D01*
X187027213Y-64781753D01*
X187044213Y-64810116D01*
X187058351Y-64840009D01*
X187069491Y-64871143D01*
X187077525Y-64903219D01*
X187082377Y-64935929D01*
X187084000Y-64968956D01*
X187084000Y-66095044D01*
X187082377Y-66128071D01*
X187077525Y-66160781D01*
X187069491Y-66192857D01*
X187058351Y-66223991D01*
X187044213Y-66253884D01*
X187027213Y-66282247D01*
X187007515Y-66308807D01*
X186985308Y-66333308D01*
X186960807Y-66355515D01*
X186934247Y-66375213D01*
X186905884Y-66392213D01*
X186875991Y-66406351D01*
X186844857Y-66417491D01*
X186812781Y-66425525D01*
X186780071Y-66430377D01*
X186747044Y-66432000D01*
X185870956Y-66432000D01*
X185837929Y-66430377D01*
X185805219Y-66425525D01*
X185773143Y-66417491D01*
X185742009Y-66406351D01*
X185712116Y-66392213D01*
X185683753Y-66375213D01*
X185657193Y-66355515D01*
X185632692Y-66333308D01*
X185610485Y-66308807D01*
X185590787Y-66282247D01*
X185573787Y-66253884D01*
X185559649Y-66223991D01*
X185548509Y-66192857D01*
X185540475Y-66160781D01*
X185535623Y-66128071D01*
X185534000Y-66095044D01*
X185534000Y-64968956D01*
X185535623Y-64935929D01*
X185540475Y-64903219D01*
X185548509Y-64871143D01*
X185559649Y-64840009D01*
X185573787Y-64810116D01*
X185590787Y-64781753D01*
X185610485Y-64755193D01*
X185632692Y-64730692D01*
X185657193Y-64708485D01*
X185683753Y-64688787D01*
X185712116Y-64671787D01*
X185742009Y-64657649D01*
X185773143Y-64646509D01*
X185805219Y-64638475D01*
X185837929Y-64633623D01*
X185870956Y-64632000D01*
X186747044Y-64632000D01*
X186780071Y-64633623D01*
X186780071Y-64633623D01*
G37*
D12*
X186309000Y-65532000D03*
D11*
G36*
X188830071Y-64633623D02*
X188862781Y-64638475D01*
X188894857Y-64646509D01*
X188925991Y-64657649D01*
X188955884Y-64671787D01*
X188984247Y-64688787D01*
X189010807Y-64708485D01*
X189035308Y-64730692D01*
X189057515Y-64755193D01*
X189077213Y-64781753D01*
X189094213Y-64810116D01*
X189108351Y-64840009D01*
X189119491Y-64871143D01*
X189127525Y-64903219D01*
X189132377Y-64935929D01*
X189134000Y-64968956D01*
X189134000Y-66095044D01*
X189132377Y-66128071D01*
X189127525Y-66160781D01*
X189119491Y-66192857D01*
X189108351Y-66223991D01*
X189094213Y-66253884D01*
X189077213Y-66282247D01*
X189057515Y-66308807D01*
X189035308Y-66333308D01*
X189010807Y-66355515D01*
X188984247Y-66375213D01*
X188955884Y-66392213D01*
X188925991Y-66406351D01*
X188894857Y-66417491D01*
X188862781Y-66425525D01*
X188830071Y-66430377D01*
X188797044Y-66432000D01*
X187920956Y-66432000D01*
X187887929Y-66430377D01*
X187855219Y-66425525D01*
X187823143Y-66417491D01*
X187792009Y-66406351D01*
X187762116Y-66392213D01*
X187733753Y-66375213D01*
X187707193Y-66355515D01*
X187682692Y-66333308D01*
X187660485Y-66308807D01*
X187640787Y-66282247D01*
X187623787Y-66253884D01*
X187609649Y-66223991D01*
X187598509Y-66192857D01*
X187590475Y-66160781D01*
X187585623Y-66128071D01*
X187584000Y-66095044D01*
X187584000Y-64968956D01*
X187585623Y-64935929D01*
X187590475Y-64903219D01*
X187598509Y-64871143D01*
X187609649Y-64840009D01*
X187623787Y-64810116D01*
X187640787Y-64781753D01*
X187660485Y-64755193D01*
X187682692Y-64730692D01*
X187707193Y-64708485D01*
X187733753Y-64688787D01*
X187762116Y-64671787D01*
X187792009Y-64657649D01*
X187823143Y-64646509D01*
X187855219Y-64638475D01*
X187887929Y-64633623D01*
X187920956Y-64632000D01*
X188797044Y-64632000D01*
X188830071Y-64633623D01*
X188830071Y-64633623D01*
G37*
D12*
X188359000Y-65532000D03*
G04 #@! TD*
D11*
G04 #@! TO.C,R24*
G36*
X184111071Y-81758623D02*
X184143781Y-81763475D01*
X184175857Y-81771509D01*
X184206991Y-81782649D01*
X184236884Y-81796787D01*
X184265247Y-81813787D01*
X184291807Y-81833485D01*
X184316308Y-81855692D01*
X184338515Y-81880193D01*
X184358213Y-81906753D01*
X184375213Y-81935116D01*
X184389351Y-81965009D01*
X184400491Y-81996143D01*
X184408525Y-82028219D01*
X184413377Y-82060929D01*
X184415000Y-82093956D01*
X184415000Y-82970044D01*
X184413377Y-83003071D01*
X184408525Y-83035781D01*
X184400491Y-83067857D01*
X184389351Y-83098991D01*
X184375213Y-83128884D01*
X184358213Y-83157247D01*
X184338515Y-83183807D01*
X184316308Y-83208308D01*
X184291807Y-83230515D01*
X184265247Y-83250213D01*
X184236884Y-83267213D01*
X184206991Y-83281351D01*
X184175857Y-83292491D01*
X184143781Y-83300525D01*
X184111071Y-83305377D01*
X184078044Y-83307000D01*
X182951956Y-83307000D01*
X182918929Y-83305377D01*
X182886219Y-83300525D01*
X182854143Y-83292491D01*
X182823009Y-83281351D01*
X182793116Y-83267213D01*
X182764753Y-83250213D01*
X182738193Y-83230515D01*
X182713692Y-83208308D01*
X182691485Y-83183807D01*
X182671787Y-83157247D01*
X182654787Y-83128884D01*
X182640649Y-83098991D01*
X182629509Y-83067857D01*
X182621475Y-83035781D01*
X182616623Y-83003071D01*
X182615000Y-82970044D01*
X182615000Y-82093956D01*
X182616623Y-82060929D01*
X182621475Y-82028219D01*
X182629509Y-81996143D01*
X182640649Y-81965009D01*
X182654787Y-81935116D01*
X182671787Y-81906753D01*
X182691485Y-81880193D01*
X182713692Y-81855692D01*
X182738193Y-81833485D01*
X182764753Y-81813787D01*
X182793116Y-81796787D01*
X182823009Y-81782649D01*
X182854143Y-81771509D01*
X182886219Y-81763475D01*
X182918929Y-81758623D01*
X182951956Y-81757000D01*
X184078044Y-81757000D01*
X184111071Y-81758623D01*
X184111071Y-81758623D01*
G37*
D12*
X183515000Y-82532000D03*
D11*
G36*
X184111071Y-83808623D02*
X184143781Y-83813475D01*
X184175857Y-83821509D01*
X184206991Y-83832649D01*
X184236884Y-83846787D01*
X184265247Y-83863787D01*
X184291807Y-83883485D01*
X184316308Y-83905692D01*
X184338515Y-83930193D01*
X184358213Y-83956753D01*
X184375213Y-83985116D01*
X184389351Y-84015009D01*
X184400491Y-84046143D01*
X184408525Y-84078219D01*
X184413377Y-84110929D01*
X184415000Y-84143956D01*
X184415000Y-85020044D01*
X184413377Y-85053071D01*
X184408525Y-85085781D01*
X184400491Y-85117857D01*
X184389351Y-85148991D01*
X184375213Y-85178884D01*
X184358213Y-85207247D01*
X184338515Y-85233807D01*
X184316308Y-85258308D01*
X184291807Y-85280515D01*
X184265247Y-85300213D01*
X184236884Y-85317213D01*
X184206991Y-85331351D01*
X184175857Y-85342491D01*
X184143781Y-85350525D01*
X184111071Y-85355377D01*
X184078044Y-85357000D01*
X182951956Y-85357000D01*
X182918929Y-85355377D01*
X182886219Y-85350525D01*
X182854143Y-85342491D01*
X182823009Y-85331351D01*
X182793116Y-85317213D01*
X182764753Y-85300213D01*
X182738193Y-85280515D01*
X182713692Y-85258308D01*
X182691485Y-85233807D01*
X182671787Y-85207247D01*
X182654787Y-85178884D01*
X182640649Y-85148991D01*
X182629509Y-85117857D01*
X182621475Y-85085781D01*
X182616623Y-85053071D01*
X182615000Y-85020044D01*
X182615000Y-84143956D01*
X182616623Y-84110929D01*
X182621475Y-84078219D01*
X182629509Y-84046143D01*
X182640649Y-84015009D01*
X182654787Y-83985116D01*
X182671787Y-83956753D01*
X182691485Y-83930193D01*
X182713692Y-83905692D01*
X182738193Y-83883485D01*
X182764753Y-83863787D01*
X182793116Y-83846787D01*
X182823009Y-83832649D01*
X182854143Y-83821509D01*
X182886219Y-83813475D01*
X182918929Y-83808623D01*
X182951956Y-83807000D01*
X184078044Y-83807000D01*
X184111071Y-83808623D01*
X184111071Y-83808623D01*
G37*
D12*
X183515000Y-84582000D03*
G04 #@! TD*
D11*
G04 #@! TO.C,R25*
G36*
X177380071Y-81531623D02*
X177412781Y-81536475D01*
X177444857Y-81544509D01*
X177475991Y-81555649D01*
X177505884Y-81569787D01*
X177534247Y-81586787D01*
X177560807Y-81606485D01*
X177585308Y-81628692D01*
X177607515Y-81653193D01*
X177627213Y-81679753D01*
X177644213Y-81708116D01*
X177658351Y-81738009D01*
X177669491Y-81769143D01*
X177677525Y-81801219D01*
X177682377Y-81833929D01*
X177684000Y-81866956D01*
X177684000Y-82743044D01*
X177682377Y-82776071D01*
X177677525Y-82808781D01*
X177669491Y-82840857D01*
X177658351Y-82871991D01*
X177644213Y-82901884D01*
X177627213Y-82930247D01*
X177607515Y-82956807D01*
X177585308Y-82981308D01*
X177560807Y-83003515D01*
X177534247Y-83023213D01*
X177505884Y-83040213D01*
X177475991Y-83054351D01*
X177444857Y-83065491D01*
X177412781Y-83073525D01*
X177380071Y-83078377D01*
X177347044Y-83080000D01*
X176220956Y-83080000D01*
X176187929Y-83078377D01*
X176155219Y-83073525D01*
X176123143Y-83065491D01*
X176092009Y-83054351D01*
X176062116Y-83040213D01*
X176033753Y-83023213D01*
X176007193Y-83003515D01*
X175982692Y-82981308D01*
X175960485Y-82956807D01*
X175940787Y-82930247D01*
X175923787Y-82901884D01*
X175909649Y-82871991D01*
X175898509Y-82840857D01*
X175890475Y-82808781D01*
X175885623Y-82776071D01*
X175884000Y-82743044D01*
X175884000Y-81866956D01*
X175885623Y-81833929D01*
X175890475Y-81801219D01*
X175898509Y-81769143D01*
X175909649Y-81738009D01*
X175923787Y-81708116D01*
X175940787Y-81679753D01*
X175960485Y-81653193D01*
X175982692Y-81628692D01*
X176007193Y-81606485D01*
X176033753Y-81586787D01*
X176062116Y-81569787D01*
X176092009Y-81555649D01*
X176123143Y-81544509D01*
X176155219Y-81536475D01*
X176187929Y-81531623D01*
X176220956Y-81530000D01*
X177347044Y-81530000D01*
X177380071Y-81531623D01*
X177380071Y-81531623D01*
G37*
D12*
X176784000Y-82305000D03*
D11*
G36*
X177380071Y-79481623D02*
X177412781Y-79486475D01*
X177444857Y-79494509D01*
X177475991Y-79505649D01*
X177505884Y-79519787D01*
X177534247Y-79536787D01*
X177560807Y-79556485D01*
X177585308Y-79578692D01*
X177607515Y-79603193D01*
X177627213Y-79629753D01*
X177644213Y-79658116D01*
X177658351Y-79688009D01*
X177669491Y-79719143D01*
X177677525Y-79751219D01*
X177682377Y-79783929D01*
X177684000Y-79816956D01*
X177684000Y-80693044D01*
X177682377Y-80726071D01*
X177677525Y-80758781D01*
X177669491Y-80790857D01*
X177658351Y-80821991D01*
X177644213Y-80851884D01*
X177627213Y-80880247D01*
X177607515Y-80906807D01*
X177585308Y-80931308D01*
X177560807Y-80953515D01*
X177534247Y-80973213D01*
X177505884Y-80990213D01*
X177475991Y-81004351D01*
X177444857Y-81015491D01*
X177412781Y-81023525D01*
X177380071Y-81028377D01*
X177347044Y-81030000D01*
X176220956Y-81030000D01*
X176187929Y-81028377D01*
X176155219Y-81023525D01*
X176123143Y-81015491D01*
X176092009Y-81004351D01*
X176062116Y-80990213D01*
X176033753Y-80973213D01*
X176007193Y-80953515D01*
X175982692Y-80931308D01*
X175960485Y-80906807D01*
X175940787Y-80880247D01*
X175923787Y-80851884D01*
X175909649Y-80821991D01*
X175898509Y-80790857D01*
X175890475Y-80758781D01*
X175885623Y-80726071D01*
X175884000Y-80693044D01*
X175884000Y-79816956D01*
X175885623Y-79783929D01*
X175890475Y-79751219D01*
X175898509Y-79719143D01*
X175909649Y-79688009D01*
X175923787Y-79658116D01*
X175940787Y-79629753D01*
X175960485Y-79603193D01*
X175982692Y-79578692D01*
X176007193Y-79556485D01*
X176033753Y-79536787D01*
X176062116Y-79519787D01*
X176092009Y-79505649D01*
X176123143Y-79494509D01*
X176155219Y-79486475D01*
X176187929Y-79481623D01*
X176220956Y-79480000D01*
X177347044Y-79480000D01*
X177380071Y-79481623D01*
X177380071Y-79481623D01*
G37*
D12*
X176784000Y-80255000D03*
G04 #@! TD*
D11*
G04 #@! TO.C,R29*
G36*
X233641071Y-34160623D02*
X233673781Y-34165475D01*
X233705857Y-34173509D01*
X233736991Y-34184649D01*
X233766884Y-34198787D01*
X233795247Y-34215787D01*
X233821807Y-34235485D01*
X233846308Y-34257692D01*
X233868515Y-34282193D01*
X233888213Y-34308753D01*
X233905213Y-34337116D01*
X233919351Y-34367009D01*
X233930491Y-34398143D01*
X233938525Y-34430219D01*
X233943377Y-34462929D01*
X233945000Y-34495956D01*
X233945000Y-35372044D01*
X233943377Y-35405071D01*
X233938525Y-35437781D01*
X233930491Y-35469857D01*
X233919351Y-35500991D01*
X233905213Y-35530884D01*
X233888213Y-35559247D01*
X233868515Y-35585807D01*
X233846308Y-35610308D01*
X233821807Y-35632515D01*
X233795247Y-35652213D01*
X233766884Y-35669213D01*
X233736991Y-35683351D01*
X233705857Y-35694491D01*
X233673781Y-35702525D01*
X233641071Y-35707377D01*
X233608044Y-35709000D01*
X232481956Y-35709000D01*
X232448929Y-35707377D01*
X232416219Y-35702525D01*
X232384143Y-35694491D01*
X232353009Y-35683351D01*
X232323116Y-35669213D01*
X232294753Y-35652213D01*
X232268193Y-35632515D01*
X232243692Y-35610308D01*
X232221485Y-35585807D01*
X232201787Y-35559247D01*
X232184787Y-35530884D01*
X232170649Y-35500991D01*
X232159509Y-35469857D01*
X232151475Y-35437781D01*
X232146623Y-35405071D01*
X232145000Y-35372044D01*
X232145000Y-34495956D01*
X232146623Y-34462929D01*
X232151475Y-34430219D01*
X232159509Y-34398143D01*
X232170649Y-34367009D01*
X232184787Y-34337116D01*
X232201787Y-34308753D01*
X232221485Y-34282193D01*
X232243692Y-34257692D01*
X232268193Y-34235485D01*
X232294753Y-34215787D01*
X232323116Y-34198787D01*
X232353009Y-34184649D01*
X232384143Y-34173509D01*
X232416219Y-34165475D01*
X232448929Y-34160623D01*
X232481956Y-34159000D01*
X233608044Y-34159000D01*
X233641071Y-34160623D01*
X233641071Y-34160623D01*
G37*
D12*
X233045000Y-34934000D03*
D11*
G36*
X233641071Y-32110623D02*
X233673781Y-32115475D01*
X233705857Y-32123509D01*
X233736991Y-32134649D01*
X233766884Y-32148787D01*
X233795247Y-32165787D01*
X233821807Y-32185485D01*
X233846308Y-32207692D01*
X233868515Y-32232193D01*
X233888213Y-32258753D01*
X233905213Y-32287116D01*
X233919351Y-32317009D01*
X233930491Y-32348143D01*
X233938525Y-32380219D01*
X233943377Y-32412929D01*
X233945000Y-32445956D01*
X233945000Y-33322044D01*
X233943377Y-33355071D01*
X233938525Y-33387781D01*
X233930491Y-33419857D01*
X233919351Y-33450991D01*
X233905213Y-33480884D01*
X233888213Y-33509247D01*
X233868515Y-33535807D01*
X233846308Y-33560308D01*
X233821807Y-33582515D01*
X233795247Y-33602213D01*
X233766884Y-33619213D01*
X233736991Y-33633351D01*
X233705857Y-33644491D01*
X233673781Y-33652525D01*
X233641071Y-33657377D01*
X233608044Y-33659000D01*
X232481956Y-33659000D01*
X232448929Y-33657377D01*
X232416219Y-33652525D01*
X232384143Y-33644491D01*
X232353009Y-33633351D01*
X232323116Y-33619213D01*
X232294753Y-33602213D01*
X232268193Y-33582515D01*
X232243692Y-33560308D01*
X232221485Y-33535807D01*
X232201787Y-33509247D01*
X232184787Y-33480884D01*
X232170649Y-33450991D01*
X232159509Y-33419857D01*
X232151475Y-33387781D01*
X232146623Y-33355071D01*
X232145000Y-33322044D01*
X232145000Y-32445956D01*
X232146623Y-32412929D01*
X232151475Y-32380219D01*
X232159509Y-32348143D01*
X232170649Y-32317009D01*
X232184787Y-32287116D01*
X232201787Y-32258753D01*
X232221485Y-32232193D01*
X232243692Y-32207692D01*
X232268193Y-32185485D01*
X232294753Y-32165787D01*
X232323116Y-32148787D01*
X232353009Y-32134649D01*
X232384143Y-32123509D01*
X232416219Y-32115475D01*
X232448929Y-32110623D01*
X232481956Y-32109000D01*
X233608044Y-32109000D01*
X233641071Y-32110623D01*
X233641071Y-32110623D01*
G37*
D12*
X233045000Y-32884000D03*
G04 #@! TD*
D11*
G04 #@! TO.C,R31*
G36*
X217759071Y-74793623D02*
X217791781Y-74798475D01*
X217823857Y-74806509D01*
X217854991Y-74817649D01*
X217884884Y-74831787D01*
X217913247Y-74848787D01*
X217939807Y-74868485D01*
X217964308Y-74890692D01*
X217986515Y-74915193D01*
X218006213Y-74941753D01*
X218023213Y-74970116D01*
X218037351Y-75000009D01*
X218048491Y-75031143D01*
X218056525Y-75063219D01*
X218061377Y-75095929D01*
X218063000Y-75128956D01*
X218063000Y-76255044D01*
X218061377Y-76288071D01*
X218056525Y-76320781D01*
X218048491Y-76352857D01*
X218037351Y-76383991D01*
X218023213Y-76413884D01*
X218006213Y-76442247D01*
X217986515Y-76468807D01*
X217964308Y-76493308D01*
X217939807Y-76515515D01*
X217913247Y-76535213D01*
X217884884Y-76552213D01*
X217854991Y-76566351D01*
X217823857Y-76577491D01*
X217791781Y-76585525D01*
X217759071Y-76590377D01*
X217726044Y-76592000D01*
X216849956Y-76592000D01*
X216816929Y-76590377D01*
X216784219Y-76585525D01*
X216752143Y-76577491D01*
X216721009Y-76566351D01*
X216691116Y-76552213D01*
X216662753Y-76535213D01*
X216636193Y-76515515D01*
X216611692Y-76493308D01*
X216589485Y-76468807D01*
X216569787Y-76442247D01*
X216552787Y-76413884D01*
X216538649Y-76383991D01*
X216527509Y-76352857D01*
X216519475Y-76320781D01*
X216514623Y-76288071D01*
X216513000Y-76255044D01*
X216513000Y-75128956D01*
X216514623Y-75095929D01*
X216519475Y-75063219D01*
X216527509Y-75031143D01*
X216538649Y-75000009D01*
X216552787Y-74970116D01*
X216569787Y-74941753D01*
X216589485Y-74915193D01*
X216611692Y-74890692D01*
X216636193Y-74868485D01*
X216662753Y-74848787D01*
X216691116Y-74831787D01*
X216721009Y-74817649D01*
X216752143Y-74806509D01*
X216784219Y-74798475D01*
X216816929Y-74793623D01*
X216849956Y-74792000D01*
X217726044Y-74792000D01*
X217759071Y-74793623D01*
X217759071Y-74793623D01*
G37*
D12*
X217288000Y-75692000D03*
D11*
G36*
X219809071Y-74793623D02*
X219841781Y-74798475D01*
X219873857Y-74806509D01*
X219904991Y-74817649D01*
X219934884Y-74831787D01*
X219963247Y-74848787D01*
X219989807Y-74868485D01*
X220014308Y-74890692D01*
X220036515Y-74915193D01*
X220056213Y-74941753D01*
X220073213Y-74970116D01*
X220087351Y-75000009D01*
X220098491Y-75031143D01*
X220106525Y-75063219D01*
X220111377Y-75095929D01*
X220113000Y-75128956D01*
X220113000Y-76255044D01*
X220111377Y-76288071D01*
X220106525Y-76320781D01*
X220098491Y-76352857D01*
X220087351Y-76383991D01*
X220073213Y-76413884D01*
X220056213Y-76442247D01*
X220036515Y-76468807D01*
X220014308Y-76493308D01*
X219989807Y-76515515D01*
X219963247Y-76535213D01*
X219934884Y-76552213D01*
X219904991Y-76566351D01*
X219873857Y-76577491D01*
X219841781Y-76585525D01*
X219809071Y-76590377D01*
X219776044Y-76592000D01*
X218899956Y-76592000D01*
X218866929Y-76590377D01*
X218834219Y-76585525D01*
X218802143Y-76577491D01*
X218771009Y-76566351D01*
X218741116Y-76552213D01*
X218712753Y-76535213D01*
X218686193Y-76515515D01*
X218661692Y-76493308D01*
X218639485Y-76468807D01*
X218619787Y-76442247D01*
X218602787Y-76413884D01*
X218588649Y-76383991D01*
X218577509Y-76352857D01*
X218569475Y-76320781D01*
X218564623Y-76288071D01*
X218563000Y-76255044D01*
X218563000Y-75128956D01*
X218564623Y-75095929D01*
X218569475Y-75063219D01*
X218577509Y-75031143D01*
X218588649Y-75000009D01*
X218602787Y-74970116D01*
X218619787Y-74941753D01*
X218639485Y-74915193D01*
X218661692Y-74890692D01*
X218686193Y-74868485D01*
X218712753Y-74848787D01*
X218741116Y-74831787D01*
X218771009Y-74817649D01*
X218802143Y-74806509D01*
X218834219Y-74798475D01*
X218866929Y-74793623D01*
X218899956Y-74792000D01*
X219776044Y-74792000D01*
X219809071Y-74793623D01*
X219809071Y-74793623D01*
G37*
D12*
X219338000Y-75692000D03*
G04 #@! TD*
D11*
G04 #@! TO.C,R32*
G36*
X231085071Y-85334623D02*
X231117781Y-85339475D01*
X231149857Y-85347509D01*
X231180991Y-85358649D01*
X231210884Y-85372787D01*
X231239247Y-85389787D01*
X231265807Y-85409485D01*
X231290308Y-85431692D01*
X231312515Y-85456193D01*
X231332213Y-85482753D01*
X231349213Y-85511116D01*
X231363351Y-85541009D01*
X231374491Y-85572143D01*
X231382525Y-85604219D01*
X231387377Y-85636929D01*
X231389000Y-85669956D01*
X231389000Y-86796044D01*
X231387377Y-86829071D01*
X231382525Y-86861781D01*
X231374491Y-86893857D01*
X231363351Y-86924991D01*
X231349213Y-86954884D01*
X231332213Y-86983247D01*
X231312515Y-87009807D01*
X231290308Y-87034308D01*
X231265807Y-87056515D01*
X231239247Y-87076213D01*
X231210884Y-87093213D01*
X231180991Y-87107351D01*
X231149857Y-87118491D01*
X231117781Y-87126525D01*
X231085071Y-87131377D01*
X231052044Y-87133000D01*
X230175956Y-87133000D01*
X230142929Y-87131377D01*
X230110219Y-87126525D01*
X230078143Y-87118491D01*
X230047009Y-87107351D01*
X230017116Y-87093213D01*
X229988753Y-87076213D01*
X229962193Y-87056515D01*
X229937692Y-87034308D01*
X229915485Y-87009807D01*
X229895787Y-86983247D01*
X229878787Y-86954884D01*
X229864649Y-86924991D01*
X229853509Y-86893857D01*
X229845475Y-86861781D01*
X229840623Y-86829071D01*
X229839000Y-86796044D01*
X229839000Y-85669956D01*
X229840623Y-85636929D01*
X229845475Y-85604219D01*
X229853509Y-85572143D01*
X229864649Y-85541009D01*
X229878787Y-85511116D01*
X229895787Y-85482753D01*
X229915485Y-85456193D01*
X229937692Y-85431692D01*
X229962193Y-85409485D01*
X229988753Y-85389787D01*
X230017116Y-85372787D01*
X230047009Y-85358649D01*
X230078143Y-85347509D01*
X230110219Y-85339475D01*
X230142929Y-85334623D01*
X230175956Y-85333000D01*
X231052044Y-85333000D01*
X231085071Y-85334623D01*
X231085071Y-85334623D01*
G37*
D12*
X230614000Y-86233000D03*
D11*
G36*
X233135071Y-85334623D02*
X233167781Y-85339475D01*
X233199857Y-85347509D01*
X233230991Y-85358649D01*
X233260884Y-85372787D01*
X233289247Y-85389787D01*
X233315807Y-85409485D01*
X233340308Y-85431692D01*
X233362515Y-85456193D01*
X233382213Y-85482753D01*
X233399213Y-85511116D01*
X233413351Y-85541009D01*
X233424491Y-85572143D01*
X233432525Y-85604219D01*
X233437377Y-85636929D01*
X233439000Y-85669956D01*
X233439000Y-86796044D01*
X233437377Y-86829071D01*
X233432525Y-86861781D01*
X233424491Y-86893857D01*
X233413351Y-86924991D01*
X233399213Y-86954884D01*
X233382213Y-86983247D01*
X233362515Y-87009807D01*
X233340308Y-87034308D01*
X233315807Y-87056515D01*
X233289247Y-87076213D01*
X233260884Y-87093213D01*
X233230991Y-87107351D01*
X233199857Y-87118491D01*
X233167781Y-87126525D01*
X233135071Y-87131377D01*
X233102044Y-87133000D01*
X232225956Y-87133000D01*
X232192929Y-87131377D01*
X232160219Y-87126525D01*
X232128143Y-87118491D01*
X232097009Y-87107351D01*
X232067116Y-87093213D01*
X232038753Y-87076213D01*
X232012193Y-87056515D01*
X231987692Y-87034308D01*
X231965485Y-87009807D01*
X231945787Y-86983247D01*
X231928787Y-86954884D01*
X231914649Y-86924991D01*
X231903509Y-86893857D01*
X231895475Y-86861781D01*
X231890623Y-86829071D01*
X231889000Y-86796044D01*
X231889000Y-85669956D01*
X231890623Y-85636929D01*
X231895475Y-85604219D01*
X231903509Y-85572143D01*
X231914649Y-85541009D01*
X231928787Y-85511116D01*
X231945787Y-85482753D01*
X231965485Y-85456193D01*
X231987692Y-85431692D01*
X232012193Y-85409485D01*
X232038753Y-85389787D01*
X232067116Y-85372787D01*
X232097009Y-85358649D01*
X232128143Y-85347509D01*
X232160219Y-85339475D01*
X232192929Y-85334623D01*
X232225956Y-85333000D01*
X233102044Y-85333000D01*
X233135071Y-85334623D01*
X233135071Y-85334623D01*
G37*
D12*
X232664000Y-86233000D03*
G04 #@! TD*
D11*
G04 #@! TO.C,R33*
G36*
X170014071Y-87092623D02*
X170046781Y-87097475D01*
X170078857Y-87105509D01*
X170109991Y-87116649D01*
X170139884Y-87130787D01*
X170168247Y-87147787D01*
X170194807Y-87167485D01*
X170219308Y-87189692D01*
X170241515Y-87214193D01*
X170261213Y-87240753D01*
X170278213Y-87269116D01*
X170292351Y-87299009D01*
X170303491Y-87330143D01*
X170311525Y-87362219D01*
X170316377Y-87394929D01*
X170318000Y-87427956D01*
X170318000Y-88304044D01*
X170316377Y-88337071D01*
X170311525Y-88369781D01*
X170303491Y-88401857D01*
X170292351Y-88432991D01*
X170278213Y-88462884D01*
X170261213Y-88491247D01*
X170241515Y-88517807D01*
X170219308Y-88542308D01*
X170194807Y-88564515D01*
X170168247Y-88584213D01*
X170139884Y-88601213D01*
X170109991Y-88615351D01*
X170078857Y-88626491D01*
X170046781Y-88634525D01*
X170014071Y-88639377D01*
X169981044Y-88641000D01*
X168854956Y-88641000D01*
X168821929Y-88639377D01*
X168789219Y-88634525D01*
X168757143Y-88626491D01*
X168726009Y-88615351D01*
X168696116Y-88601213D01*
X168667753Y-88584213D01*
X168641193Y-88564515D01*
X168616692Y-88542308D01*
X168594485Y-88517807D01*
X168574787Y-88491247D01*
X168557787Y-88462884D01*
X168543649Y-88432991D01*
X168532509Y-88401857D01*
X168524475Y-88369781D01*
X168519623Y-88337071D01*
X168518000Y-88304044D01*
X168518000Y-87427956D01*
X168519623Y-87394929D01*
X168524475Y-87362219D01*
X168532509Y-87330143D01*
X168543649Y-87299009D01*
X168557787Y-87269116D01*
X168574787Y-87240753D01*
X168594485Y-87214193D01*
X168616692Y-87189692D01*
X168641193Y-87167485D01*
X168667753Y-87147787D01*
X168696116Y-87130787D01*
X168726009Y-87116649D01*
X168757143Y-87105509D01*
X168789219Y-87097475D01*
X168821929Y-87092623D01*
X168854956Y-87091000D01*
X169981044Y-87091000D01*
X170014071Y-87092623D01*
X170014071Y-87092623D01*
G37*
D12*
X169418000Y-87866000D03*
D11*
G36*
X170014071Y-89142623D02*
X170046781Y-89147475D01*
X170078857Y-89155509D01*
X170109991Y-89166649D01*
X170139884Y-89180787D01*
X170168247Y-89197787D01*
X170194807Y-89217485D01*
X170219308Y-89239692D01*
X170241515Y-89264193D01*
X170261213Y-89290753D01*
X170278213Y-89319116D01*
X170292351Y-89349009D01*
X170303491Y-89380143D01*
X170311525Y-89412219D01*
X170316377Y-89444929D01*
X170318000Y-89477956D01*
X170318000Y-90354044D01*
X170316377Y-90387071D01*
X170311525Y-90419781D01*
X170303491Y-90451857D01*
X170292351Y-90482991D01*
X170278213Y-90512884D01*
X170261213Y-90541247D01*
X170241515Y-90567807D01*
X170219308Y-90592308D01*
X170194807Y-90614515D01*
X170168247Y-90634213D01*
X170139884Y-90651213D01*
X170109991Y-90665351D01*
X170078857Y-90676491D01*
X170046781Y-90684525D01*
X170014071Y-90689377D01*
X169981044Y-90691000D01*
X168854956Y-90691000D01*
X168821929Y-90689377D01*
X168789219Y-90684525D01*
X168757143Y-90676491D01*
X168726009Y-90665351D01*
X168696116Y-90651213D01*
X168667753Y-90634213D01*
X168641193Y-90614515D01*
X168616692Y-90592308D01*
X168594485Y-90567807D01*
X168574787Y-90541247D01*
X168557787Y-90512884D01*
X168543649Y-90482991D01*
X168532509Y-90451857D01*
X168524475Y-90419781D01*
X168519623Y-90387071D01*
X168518000Y-90354044D01*
X168518000Y-89477956D01*
X168519623Y-89444929D01*
X168524475Y-89412219D01*
X168532509Y-89380143D01*
X168543649Y-89349009D01*
X168557787Y-89319116D01*
X168574787Y-89290753D01*
X168594485Y-89264193D01*
X168616692Y-89239692D01*
X168641193Y-89217485D01*
X168667753Y-89197787D01*
X168696116Y-89180787D01*
X168726009Y-89166649D01*
X168757143Y-89155509D01*
X168789219Y-89147475D01*
X168821929Y-89142623D01*
X168854956Y-89141000D01*
X169981044Y-89141000D01*
X170014071Y-89142623D01*
X170014071Y-89142623D01*
G37*
D12*
X169418000Y-89916000D03*
G04 #@! TD*
D11*
G04 #@! TO.C,R34*
G36*
X190715071Y-70854623D02*
X190747781Y-70859475D01*
X190779857Y-70867509D01*
X190810991Y-70878649D01*
X190840884Y-70892787D01*
X190869247Y-70909787D01*
X190895807Y-70929485D01*
X190920308Y-70951692D01*
X190942515Y-70976193D01*
X190962213Y-71002753D01*
X190979213Y-71031116D01*
X190993351Y-71061009D01*
X191004491Y-71092143D01*
X191012525Y-71124219D01*
X191017377Y-71156929D01*
X191019000Y-71189956D01*
X191019000Y-72066044D01*
X191017377Y-72099071D01*
X191012525Y-72131781D01*
X191004491Y-72163857D01*
X190993351Y-72194991D01*
X190979213Y-72224884D01*
X190962213Y-72253247D01*
X190942515Y-72279807D01*
X190920308Y-72304308D01*
X190895807Y-72326515D01*
X190869247Y-72346213D01*
X190840884Y-72363213D01*
X190810991Y-72377351D01*
X190779857Y-72388491D01*
X190747781Y-72396525D01*
X190715071Y-72401377D01*
X190682044Y-72403000D01*
X189555956Y-72403000D01*
X189522929Y-72401377D01*
X189490219Y-72396525D01*
X189458143Y-72388491D01*
X189427009Y-72377351D01*
X189397116Y-72363213D01*
X189368753Y-72346213D01*
X189342193Y-72326515D01*
X189317692Y-72304308D01*
X189295485Y-72279807D01*
X189275787Y-72253247D01*
X189258787Y-72224884D01*
X189244649Y-72194991D01*
X189233509Y-72163857D01*
X189225475Y-72131781D01*
X189220623Y-72099071D01*
X189219000Y-72066044D01*
X189219000Y-71189956D01*
X189220623Y-71156929D01*
X189225475Y-71124219D01*
X189233509Y-71092143D01*
X189244649Y-71061009D01*
X189258787Y-71031116D01*
X189275787Y-71002753D01*
X189295485Y-70976193D01*
X189317692Y-70951692D01*
X189342193Y-70929485D01*
X189368753Y-70909787D01*
X189397116Y-70892787D01*
X189427009Y-70878649D01*
X189458143Y-70867509D01*
X189490219Y-70859475D01*
X189522929Y-70854623D01*
X189555956Y-70853000D01*
X190682044Y-70853000D01*
X190715071Y-70854623D01*
X190715071Y-70854623D01*
G37*
D12*
X190119000Y-71628000D03*
D11*
G36*
X190715071Y-68804623D02*
X190747781Y-68809475D01*
X190779857Y-68817509D01*
X190810991Y-68828649D01*
X190840884Y-68842787D01*
X190869247Y-68859787D01*
X190895807Y-68879485D01*
X190920308Y-68901692D01*
X190942515Y-68926193D01*
X190962213Y-68952753D01*
X190979213Y-68981116D01*
X190993351Y-69011009D01*
X191004491Y-69042143D01*
X191012525Y-69074219D01*
X191017377Y-69106929D01*
X191019000Y-69139956D01*
X191019000Y-70016044D01*
X191017377Y-70049071D01*
X191012525Y-70081781D01*
X191004491Y-70113857D01*
X190993351Y-70144991D01*
X190979213Y-70174884D01*
X190962213Y-70203247D01*
X190942515Y-70229807D01*
X190920308Y-70254308D01*
X190895807Y-70276515D01*
X190869247Y-70296213D01*
X190840884Y-70313213D01*
X190810991Y-70327351D01*
X190779857Y-70338491D01*
X190747781Y-70346525D01*
X190715071Y-70351377D01*
X190682044Y-70353000D01*
X189555956Y-70353000D01*
X189522929Y-70351377D01*
X189490219Y-70346525D01*
X189458143Y-70338491D01*
X189427009Y-70327351D01*
X189397116Y-70313213D01*
X189368753Y-70296213D01*
X189342193Y-70276515D01*
X189317692Y-70254308D01*
X189295485Y-70229807D01*
X189275787Y-70203247D01*
X189258787Y-70174884D01*
X189244649Y-70144991D01*
X189233509Y-70113857D01*
X189225475Y-70081781D01*
X189220623Y-70049071D01*
X189219000Y-70016044D01*
X189219000Y-69139956D01*
X189220623Y-69106929D01*
X189225475Y-69074219D01*
X189233509Y-69042143D01*
X189244649Y-69011009D01*
X189258787Y-68981116D01*
X189275787Y-68952753D01*
X189295485Y-68926193D01*
X189317692Y-68901692D01*
X189342193Y-68879485D01*
X189368753Y-68859787D01*
X189397116Y-68842787D01*
X189427009Y-68828649D01*
X189458143Y-68817509D01*
X189490219Y-68809475D01*
X189522929Y-68804623D01*
X189555956Y-68803000D01*
X190682044Y-68803000D01*
X190715071Y-68804623D01*
X190715071Y-68804623D01*
G37*
D12*
X190119000Y-69578000D03*
G04 #@! TD*
D11*
G04 #@! TO.C,R35*
G36*
X222592071Y-27039623D02*
X222624781Y-27044475D01*
X222656857Y-27052509D01*
X222687991Y-27063649D01*
X222717884Y-27077787D01*
X222746247Y-27094787D01*
X222772807Y-27114485D01*
X222797308Y-27136692D01*
X222819515Y-27161193D01*
X222839213Y-27187753D01*
X222856213Y-27216116D01*
X222870351Y-27246009D01*
X222881491Y-27277143D01*
X222889525Y-27309219D01*
X222894377Y-27341929D01*
X222896000Y-27374956D01*
X222896000Y-28251044D01*
X222894377Y-28284071D01*
X222889525Y-28316781D01*
X222881491Y-28348857D01*
X222870351Y-28379991D01*
X222856213Y-28409884D01*
X222839213Y-28438247D01*
X222819515Y-28464807D01*
X222797308Y-28489308D01*
X222772807Y-28511515D01*
X222746247Y-28531213D01*
X222717884Y-28548213D01*
X222687991Y-28562351D01*
X222656857Y-28573491D01*
X222624781Y-28581525D01*
X222592071Y-28586377D01*
X222559044Y-28588000D01*
X221432956Y-28588000D01*
X221399929Y-28586377D01*
X221367219Y-28581525D01*
X221335143Y-28573491D01*
X221304009Y-28562351D01*
X221274116Y-28548213D01*
X221245753Y-28531213D01*
X221219193Y-28511515D01*
X221194692Y-28489308D01*
X221172485Y-28464807D01*
X221152787Y-28438247D01*
X221135787Y-28409884D01*
X221121649Y-28379991D01*
X221110509Y-28348857D01*
X221102475Y-28316781D01*
X221097623Y-28284071D01*
X221096000Y-28251044D01*
X221096000Y-27374956D01*
X221097623Y-27341929D01*
X221102475Y-27309219D01*
X221110509Y-27277143D01*
X221121649Y-27246009D01*
X221135787Y-27216116D01*
X221152787Y-27187753D01*
X221172485Y-27161193D01*
X221194692Y-27136692D01*
X221219193Y-27114485D01*
X221245753Y-27094787D01*
X221274116Y-27077787D01*
X221304009Y-27063649D01*
X221335143Y-27052509D01*
X221367219Y-27044475D01*
X221399929Y-27039623D01*
X221432956Y-27038000D01*
X222559044Y-27038000D01*
X222592071Y-27039623D01*
X222592071Y-27039623D01*
G37*
D12*
X221996000Y-27813000D03*
D11*
G36*
X222592071Y-29089623D02*
X222624781Y-29094475D01*
X222656857Y-29102509D01*
X222687991Y-29113649D01*
X222717884Y-29127787D01*
X222746247Y-29144787D01*
X222772807Y-29164485D01*
X222797308Y-29186692D01*
X222819515Y-29211193D01*
X222839213Y-29237753D01*
X222856213Y-29266116D01*
X222870351Y-29296009D01*
X222881491Y-29327143D01*
X222889525Y-29359219D01*
X222894377Y-29391929D01*
X222896000Y-29424956D01*
X222896000Y-30301044D01*
X222894377Y-30334071D01*
X222889525Y-30366781D01*
X222881491Y-30398857D01*
X222870351Y-30429991D01*
X222856213Y-30459884D01*
X222839213Y-30488247D01*
X222819515Y-30514807D01*
X222797308Y-30539308D01*
X222772807Y-30561515D01*
X222746247Y-30581213D01*
X222717884Y-30598213D01*
X222687991Y-30612351D01*
X222656857Y-30623491D01*
X222624781Y-30631525D01*
X222592071Y-30636377D01*
X222559044Y-30638000D01*
X221432956Y-30638000D01*
X221399929Y-30636377D01*
X221367219Y-30631525D01*
X221335143Y-30623491D01*
X221304009Y-30612351D01*
X221274116Y-30598213D01*
X221245753Y-30581213D01*
X221219193Y-30561515D01*
X221194692Y-30539308D01*
X221172485Y-30514807D01*
X221152787Y-30488247D01*
X221135787Y-30459884D01*
X221121649Y-30429991D01*
X221110509Y-30398857D01*
X221102475Y-30366781D01*
X221097623Y-30334071D01*
X221096000Y-30301044D01*
X221096000Y-29424956D01*
X221097623Y-29391929D01*
X221102475Y-29359219D01*
X221110509Y-29327143D01*
X221121649Y-29296009D01*
X221135787Y-29266116D01*
X221152787Y-29237753D01*
X221172485Y-29211193D01*
X221194692Y-29186692D01*
X221219193Y-29164485D01*
X221245753Y-29144787D01*
X221274116Y-29127787D01*
X221304009Y-29113649D01*
X221335143Y-29102509D01*
X221367219Y-29094475D01*
X221399929Y-29089623D01*
X221432956Y-29088000D01*
X222559044Y-29088000D01*
X222592071Y-29089623D01*
X222592071Y-29089623D01*
G37*
D12*
X221996000Y-29863000D03*
G04 #@! TD*
D23*
G04 #@! TO.C,RANGE1*
X233553000Y-30353000D03*
X231013000Y-27813000D03*
X228473000Y-30353000D03*
G04 #@! TD*
D15*
G04 #@! TO.C,TIGHT*
X229728000Y-52202000D03*
X229728000Y-61002000D03*
D16*
X236728000Y-54102000D03*
X236728000Y-56602000D03*
X236728000Y-59102000D03*
G04 #@! TD*
D28*
G04 #@! TO.C,TRBLD1*
X180086000Y-83185000D03*
X172466000Y-83185000D03*
X180086000Y-85725000D03*
X172466000Y-85725000D03*
G04 #@! TD*
D16*
G04 #@! TO.C,TREBLE*
X236728000Y-73707000D03*
X236728000Y-71207000D03*
X236728000Y-68707000D03*
D15*
X229728000Y-75607000D03*
X229728000Y-66807000D03*
G04 #@! TD*
D29*
G04 #@! TO.C,U2*
X173007000Y-60579000D03*
X173007000Y-59309000D03*
X173007000Y-58039000D03*
X173007000Y-56769000D03*
X167607000Y-56769000D03*
X167607000Y-58039000D03*
X167607000Y-59309000D03*
X167607000Y-60579000D03*
G04 #@! TD*
G04 #@! TO.C,U3*
X190279000Y-63373000D03*
X190279000Y-62103000D03*
X190279000Y-60833000D03*
X190279000Y-59563000D03*
X184879000Y-59563000D03*
X184879000Y-60833000D03*
X184879000Y-62103000D03*
X184879000Y-63373000D03*
G04 #@! TD*
G04 #@! TO.C,U4*
X173896000Y-73787000D03*
X173896000Y-75057000D03*
X173896000Y-76327000D03*
X173896000Y-77597000D03*
X168496000Y-77597000D03*
X168496000Y-76327000D03*
X168496000Y-75057000D03*
X168496000Y-73787000D03*
G04 #@! TD*
D16*
G04 #@! TO.C,VOL*
X236728000Y-44497000D03*
X236728000Y-41997000D03*
X236728000Y-39497000D03*
D15*
X229728000Y-46397000D03*
X229728000Y-37597000D03*
G04 #@! TD*
D10*
G04 #@! TO.C,REF\002A\002A*
X252349000Y-27686000D03*
G04 #@! TD*
M02*
