G04 #@! TF.GenerationSoftware,KiCad,Pcbnew,(5.0.0)*
G04 #@! TF.CreationDate,2018-10-11T16:46:39-05:00*
G04 #@! TF.ProjectId,FinalDistCircuit,46696E616C4469737443697263756974,rev?*
G04 #@! TF.SameCoordinates,Original*
G04 #@! TF.FileFunction,Soldermask,Top*
G04 #@! TF.FilePolarity,Negative*
%FSLAX46Y46*%
G04 Gerber Fmt 4.6, Leading zero omitted, Abs format (unit mm)*
G04 Created by KiCad (PCBNEW (5.0.0)) date 10/11/18 16:46:39*
%MOMM*%
%LPD*%
G01*
G04 APERTURE LIST*
%ADD10C,2.600000*%
%ADD11O,2.100000X2.100000*%
%ADD12R,2.100000X2.100000*%
%ADD13C,4.400000*%
%ADD14C,2.200000*%
%ADD15R,2.000000X2.000000*%
%ADD16C,2.000000*%
%ADD17C,4.210000*%
%ADD18C,3.702000*%
%ADD19C,2.100000*%
%ADD20C,2.100000*%
%ADD21C,0.100000*%
%ADD22C,1.840000*%
%ADD23C,1.825000*%
%ADD24C,3.600000*%
%ADD25C,1.550000*%
%ADD26R,2.200000X2.200000*%
%ADD27O,1.900000X1.300000*%
%ADD28R,1.900000X1.300000*%
%ADD29C,1.600000*%
%ADD30R,1.950000X1.000000*%
G04 APERTURE END LIST*
D10*
G04 #@! TO.C,REF\002A\002A*
X204851000Y-101981000D03*
G04 #@! TD*
D11*
G04 #@! TO.C,NeckTonePot1*
X239776000Y-49911000D03*
X242316000Y-49911000D03*
X239776000Y-47371000D03*
X242316000Y-47371000D03*
X239776000Y-44831000D03*
X242316000Y-44831000D03*
X239776000Y-42291000D03*
X242316000Y-42291000D03*
X239776000Y-39751000D03*
X242316000Y-39751000D03*
X239776000Y-37211000D03*
X242316000Y-37211000D03*
X239776000Y-34671000D03*
D12*
X242316000Y-34671000D03*
G04 #@! TD*
D13*
G04 #@! TO.C,BASS*
X229728000Y-81412000D03*
X229728000Y-90212000D03*
D14*
X236728000Y-83312000D03*
X236728000Y-85812000D03*
X236728000Y-88312000D03*
G04 #@! TD*
D15*
G04 #@! TO.C,C10*
X174625000Y-93091000D03*
D16*
X169625000Y-93091000D03*
G04 #@! TD*
D17*
G04 #@! TO.C,9V1*
X197612000Y-71945500D03*
X197612001Y-59245499D03*
D18*
X191262001Y-54483000D03*
X191262000Y-76708000D03*
G04 #@! TD*
D11*
G04 #@! TO.C,Jack1*
X249936000Y-53848000D03*
X249936000Y-56388000D03*
D12*
X249936000Y-58928000D03*
G04 #@! TD*
D19*
G04 #@! TO.C,PickupInputs1*
X184422373Y-35615420D03*
D20*
X184422373Y-35615420D02*
X184422373Y-35615420D01*
D19*
X182035554Y-36484151D03*
D20*
X182035554Y-36484151D02*
X182035554Y-36484151D01*
D19*
X179648735Y-37352882D03*
D20*
X179648735Y-37352882D02*
X179648735Y-37352882D01*
D19*
X177261916Y-38221613D03*
D20*
X177261916Y-38221613D02*
X177261916Y-38221613D01*
D19*
X174875096Y-39090344D03*
D20*
X174875096Y-39090344D02*
X174875096Y-39090344D01*
D19*
X172488277Y-39959075D03*
D20*
X172488277Y-39959075D02*
X172488277Y-39959075D01*
D19*
X170101458Y-40827807D03*
D20*
X170101458Y-40827807D02*
X170101458Y-40827807D01*
D19*
X167714639Y-41696538D03*
D20*
X167714639Y-41696538D02*
X167714639Y-41696538D01*
D19*
X165327819Y-42565269D03*
D20*
X165327819Y-42565269D02*
X165327819Y-42565269D01*
D19*
X162941000Y-43434000D03*
D21*
G36*
X164286798Y-44061556D02*
X162313444Y-44779798D01*
X161595202Y-42806444D01*
X163568556Y-42088202D01*
X164286798Y-44061556D01*
X164286798Y-44061556D01*
G37*
G04 #@! TD*
D12*
G04 #@! TO.C,BridgeTonePot1*
X242316000Y-57785000D03*
D11*
X239776000Y-57785000D03*
X242316000Y-60325000D03*
X239776000Y-60325000D03*
X242316000Y-62865000D03*
X239776000Y-62865000D03*
X242316000Y-65405000D03*
X239776000Y-65405000D03*
X242316000Y-67945000D03*
X239776000Y-67945000D03*
X242316000Y-70485000D03*
X239776000Y-70485000D03*
X242316000Y-73025000D03*
X239776000Y-73025000D03*
G04 #@! TD*
D16*
G04 #@! TO.C,6pdt2*
X222250000Y-92456000D03*
X214630000Y-92456000D03*
X222250000Y-89916000D03*
X214630000Y-89916000D03*
X222250000Y-87376000D03*
X214630000Y-87376000D03*
X222250000Y-84836000D03*
X214630000Y-84836000D03*
X222250000Y-82296000D03*
X214630000Y-82296000D03*
X222250000Y-79756000D03*
X214630000Y-79756000D03*
X222250000Y-77216000D03*
X214630000Y-77216000D03*
X222250000Y-74676000D03*
X214630000Y-74676000D03*
X222250000Y-72136000D03*
X214630000Y-72136000D03*
G04 #@! TD*
D22*
G04 #@! TO.C,TRANGAIN1*
X236347000Y-98425000D03*
X233807000Y-100965000D03*
X231267000Y-98425000D03*
G04 #@! TD*
D11*
G04 #@! TO.C,3WaySwitch1*
X166116000Y-50927000D03*
X163576000Y-50927000D03*
X161036000Y-50927000D03*
D12*
X158496000Y-50927000D03*
G04 #@! TD*
D16*
G04 #@! TO.C,4pdt1*
X175006000Y-51752500D03*
X177546000Y-51752500D03*
X180086000Y-51752500D03*
X182626000Y-51752500D03*
X185166000Y-51752500D03*
X187706000Y-51752500D03*
X187706000Y-44132500D03*
X185166000Y-44132500D03*
X182626000Y-44132500D03*
X180086000Y-44132500D03*
X177546000Y-44132500D03*
X175006000Y-44132500D03*
G04 #@! TD*
G04 #@! TO.C,6pdt1*
X204470000Y-56261000D03*
X212090000Y-56261000D03*
X204470000Y-58801000D03*
X212090000Y-58801000D03*
X204470000Y-61341000D03*
X212090000Y-61341000D03*
X204470000Y-63881000D03*
X212090000Y-63881000D03*
X204470000Y-66421000D03*
X212090000Y-66421000D03*
X204470000Y-68961000D03*
X212090000Y-68961000D03*
X204470000Y-71501000D03*
X212090000Y-71501000D03*
X204470000Y-74041000D03*
X212090000Y-74041000D03*
X204470000Y-76581000D03*
X212090000Y-76581000D03*
G04 #@! TD*
D11*
G04 #@! TO.C,BridgeVolPot1*
X218948000Y-67310000D03*
X221488000Y-67310000D03*
X218948000Y-64770000D03*
X221488000Y-64770000D03*
X218948000Y-62230000D03*
X221488000Y-62230000D03*
X218948000Y-59690000D03*
X221488000Y-59690000D03*
X218948000Y-57150000D03*
X221488000Y-57150000D03*
X218948000Y-54610000D03*
X221488000Y-54610000D03*
X218948000Y-52070000D03*
D12*
X221488000Y-52070000D03*
G04 #@! TD*
D16*
G04 #@! TO.C,C2*
X247142000Y-26797000D03*
X247142000Y-31797000D03*
G04 #@! TD*
D21*
G04 #@! TO.C,C3*
G36*
X168463707Y-62934542D02*
X168494787Y-62939152D01*
X168525266Y-62946787D01*
X168554850Y-62957372D01*
X168583254Y-62970806D01*
X168610204Y-62986959D01*
X168635442Y-63005677D01*
X168658723Y-63026777D01*
X168679823Y-63050058D01*
X168698541Y-63075296D01*
X168714694Y-63102246D01*
X168728128Y-63130650D01*
X168738713Y-63160234D01*
X168746348Y-63190713D01*
X168750958Y-63221793D01*
X168752500Y-63253176D01*
X168752500Y-64762824D01*
X168750958Y-64794207D01*
X168746348Y-64825287D01*
X168738713Y-64855766D01*
X168728128Y-64885350D01*
X168714694Y-64913754D01*
X168698541Y-64940704D01*
X168679823Y-64965942D01*
X168658723Y-64989223D01*
X168635442Y-65010323D01*
X168610204Y-65029041D01*
X168583254Y-65045194D01*
X168554850Y-65058628D01*
X168525266Y-65069213D01*
X168494787Y-65076848D01*
X168463707Y-65081458D01*
X168432324Y-65083000D01*
X167247676Y-65083000D01*
X167216293Y-65081458D01*
X167185213Y-65076848D01*
X167154734Y-65069213D01*
X167125150Y-65058628D01*
X167096746Y-65045194D01*
X167069796Y-65029041D01*
X167044558Y-65010323D01*
X167021277Y-64989223D01*
X167000177Y-64965942D01*
X166981459Y-64940704D01*
X166965306Y-64913754D01*
X166951872Y-64885350D01*
X166941287Y-64855766D01*
X166933652Y-64825287D01*
X166929042Y-64794207D01*
X166927500Y-64762824D01*
X166927500Y-63253176D01*
X166929042Y-63221793D01*
X166933652Y-63190713D01*
X166941287Y-63160234D01*
X166951872Y-63130650D01*
X166965306Y-63102246D01*
X166981459Y-63075296D01*
X167000177Y-63050058D01*
X167021277Y-63026777D01*
X167044558Y-63005677D01*
X167069796Y-62986959D01*
X167096746Y-62970806D01*
X167125150Y-62957372D01*
X167154734Y-62946787D01*
X167185213Y-62939152D01*
X167216293Y-62934542D01*
X167247676Y-62933000D01*
X168432324Y-62933000D01*
X168463707Y-62934542D01*
X168463707Y-62934542D01*
G37*
D23*
X167840000Y-64008000D03*
D21*
G36*
X171438707Y-62934542D02*
X171469787Y-62939152D01*
X171500266Y-62946787D01*
X171529850Y-62957372D01*
X171558254Y-62970806D01*
X171585204Y-62986959D01*
X171610442Y-63005677D01*
X171633723Y-63026777D01*
X171654823Y-63050058D01*
X171673541Y-63075296D01*
X171689694Y-63102246D01*
X171703128Y-63130650D01*
X171713713Y-63160234D01*
X171721348Y-63190713D01*
X171725958Y-63221793D01*
X171727500Y-63253176D01*
X171727500Y-64762824D01*
X171725958Y-64794207D01*
X171721348Y-64825287D01*
X171713713Y-64855766D01*
X171703128Y-64885350D01*
X171689694Y-64913754D01*
X171673541Y-64940704D01*
X171654823Y-64965942D01*
X171633723Y-64989223D01*
X171610442Y-65010323D01*
X171585204Y-65029041D01*
X171558254Y-65045194D01*
X171529850Y-65058628D01*
X171500266Y-65069213D01*
X171469787Y-65076848D01*
X171438707Y-65081458D01*
X171407324Y-65083000D01*
X170222676Y-65083000D01*
X170191293Y-65081458D01*
X170160213Y-65076848D01*
X170129734Y-65069213D01*
X170100150Y-65058628D01*
X170071746Y-65045194D01*
X170044796Y-65029041D01*
X170019558Y-65010323D01*
X169996277Y-64989223D01*
X169975177Y-64965942D01*
X169956459Y-64940704D01*
X169940306Y-64913754D01*
X169926872Y-64885350D01*
X169916287Y-64855766D01*
X169908652Y-64825287D01*
X169904042Y-64794207D01*
X169902500Y-64762824D01*
X169902500Y-63253176D01*
X169904042Y-63221793D01*
X169908652Y-63190713D01*
X169916287Y-63160234D01*
X169926872Y-63130650D01*
X169940306Y-63102246D01*
X169956459Y-63075296D01*
X169975177Y-63050058D01*
X169996277Y-63026777D01*
X170019558Y-63005677D01*
X170044796Y-62986959D01*
X170071746Y-62970806D01*
X170100150Y-62957372D01*
X170129734Y-62946787D01*
X170160213Y-62939152D01*
X170191293Y-62934542D01*
X170222676Y-62933000D01*
X171407324Y-62933000D01*
X171438707Y-62934542D01*
X171438707Y-62934542D01*
G37*
D23*
X170815000Y-64008000D03*
G04 #@! TD*
D16*
G04 #@! TO.C,C6*
X224583000Y-27940000D03*
X219583000Y-27940000D03*
G04 #@! TD*
D15*
G04 #@! TO.C,C14*
X178435000Y-95885000D03*
D16*
X178435000Y-97885000D03*
G04 #@! TD*
D21*
G04 #@! TO.C,C17*
G36*
X178459207Y-58144042D02*
X178490287Y-58148652D01*
X178520766Y-58156287D01*
X178550350Y-58166872D01*
X178578754Y-58180306D01*
X178605704Y-58196459D01*
X178630942Y-58215177D01*
X178654223Y-58236277D01*
X178675323Y-58259558D01*
X178694041Y-58284796D01*
X178710194Y-58311746D01*
X178723628Y-58340150D01*
X178734213Y-58369734D01*
X178741848Y-58400213D01*
X178746458Y-58431293D01*
X178748000Y-58462676D01*
X178748000Y-59647324D01*
X178746458Y-59678707D01*
X178741848Y-59709787D01*
X178734213Y-59740266D01*
X178723628Y-59769850D01*
X178710194Y-59798254D01*
X178694041Y-59825204D01*
X178675323Y-59850442D01*
X178654223Y-59873723D01*
X178630942Y-59894823D01*
X178605704Y-59913541D01*
X178578754Y-59929694D01*
X178550350Y-59943128D01*
X178520766Y-59953713D01*
X178490287Y-59961348D01*
X178459207Y-59965958D01*
X178427824Y-59967500D01*
X176918176Y-59967500D01*
X176886793Y-59965958D01*
X176855713Y-59961348D01*
X176825234Y-59953713D01*
X176795650Y-59943128D01*
X176767246Y-59929694D01*
X176740296Y-59913541D01*
X176715058Y-59894823D01*
X176691777Y-59873723D01*
X176670677Y-59850442D01*
X176651959Y-59825204D01*
X176635806Y-59798254D01*
X176622372Y-59769850D01*
X176611787Y-59740266D01*
X176604152Y-59709787D01*
X176599542Y-59678707D01*
X176598000Y-59647324D01*
X176598000Y-58462676D01*
X176599542Y-58431293D01*
X176604152Y-58400213D01*
X176611787Y-58369734D01*
X176622372Y-58340150D01*
X176635806Y-58311746D01*
X176651959Y-58284796D01*
X176670677Y-58259558D01*
X176691777Y-58236277D01*
X176715058Y-58215177D01*
X176740296Y-58196459D01*
X176767246Y-58180306D01*
X176795650Y-58166872D01*
X176825234Y-58156287D01*
X176855713Y-58148652D01*
X176886793Y-58144042D01*
X176918176Y-58142500D01*
X178427824Y-58142500D01*
X178459207Y-58144042D01*
X178459207Y-58144042D01*
G37*
D23*
X177673000Y-59055000D03*
D21*
G36*
X178459207Y-55169042D02*
X178490287Y-55173652D01*
X178520766Y-55181287D01*
X178550350Y-55191872D01*
X178578754Y-55205306D01*
X178605704Y-55221459D01*
X178630942Y-55240177D01*
X178654223Y-55261277D01*
X178675323Y-55284558D01*
X178694041Y-55309796D01*
X178710194Y-55336746D01*
X178723628Y-55365150D01*
X178734213Y-55394734D01*
X178741848Y-55425213D01*
X178746458Y-55456293D01*
X178748000Y-55487676D01*
X178748000Y-56672324D01*
X178746458Y-56703707D01*
X178741848Y-56734787D01*
X178734213Y-56765266D01*
X178723628Y-56794850D01*
X178710194Y-56823254D01*
X178694041Y-56850204D01*
X178675323Y-56875442D01*
X178654223Y-56898723D01*
X178630942Y-56919823D01*
X178605704Y-56938541D01*
X178578754Y-56954694D01*
X178550350Y-56968128D01*
X178520766Y-56978713D01*
X178490287Y-56986348D01*
X178459207Y-56990958D01*
X178427824Y-56992500D01*
X176918176Y-56992500D01*
X176886793Y-56990958D01*
X176855713Y-56986348D01*
X176825234Y-56978713D01*
X176795650Y-56968128D01*
X176767246Y-56954694D01*
X176740296Y-56938541D01*
X176715058Y-56919823D01*
X176691777Y-56898723D01*
X176670677Y-56875442D01*
X176651959Y-56850204D01*
X176635806Y-56823254D01*
X176622372Y-56794850D01*
X176611787Y-56765266D01*
X176604152Y-56734787D01*
X176599542Y-56703707D01*
X176598000Y-56672324D01*
X176598000Y-55487676D01*
X176599542Y-55456293D01*
X176604152Y-55425213D01*
X176611787Y-55394734D01*
X176622372Y-55365150D01*
X176635806Y-55336746D01*
X176651959Y-55309796D01*
X176670677Y-55284558D01*
X176691777Y-55261277D01*
X176715058Y-55240177D01*
X176740296Y-55221459D01*
X176767246Y-55205306D01*
X176795650Y-55191872D01*
X176825234Y-55181287D01*
X176855713Y-55173652D01*
X176886793Y-55169042D01*
X176918176Y-55167500D01*
X178427824Y-55167500D01*
X178459207Y-55169042D01*
X178459207Y-55169042D01*
G37*
D23*
X177673000Y-56080000D03*
G04 #@! TD*
D21*
G04 #@! TO.C,C18*
G36*
X158772317Y-82666354D02*
X158799619Y-82670404D01*
X158826393Y-82677111D01*
X158852380Y-82686409D01*
X158877330Y-82698210D01*
X158901004Y-82712399D01*
X158923173Y-82728841D01*
X158943624Y-82747376D01*
X158962159Y-82767827D01*
X158978601Y-82789996D01*
X158992790Y-82813670D01*
X159004591Y-82838620D01*
X159013889Y-82864607D01*
X159020596Y-82891381D01*
X159024646Y-82918683D01*
X159026000Y-82946250D01*
X159026000Y-87233750D01*
X159024646Y-87261317D01*
X159020596Y-87288619D01*
X159013889Y-87315393D01*
X159004591Y-87341380D01*
X158992790Y-87366330D01*
X158978601Y-87390004D01*
X158962159Y-87412173D01*
X158943624Y-87432624D01*
X158923173Y-87451159D01*
X158901004Y-87467601D01*
X158877330Y-87481790D01*
X158852380Y-87493591D01*
X158826393Y-87502889D01*
X158799619Y-87509596D01*
X158772317Y-87513646D01*
X158744750Y-87515000D01*
X155707250Y-87515000D01*
X155679683Y-87513646D01*
X155652381Y-87509596D01*
X155625607Y-87502889D01*
X155599620Y-87493591D01*
X155574670Y-87481790D01*
X155550996Y-87467601D01*
X155528827Y-87451159D01*
X155508376Y-87432624D01*
X155489841Y-87412173D01*
X155473399Y-87390004D01*
X155459210Y-87366330D01*
X155447409Y-87341380D01*
X155438111Y-87315393D01*
X155431404Y-87288619D01*
X155427354Y-87261317D01*
X155426000Y-87233750D01*
X155426000Y-82946250D01*
X155427354Y-82918683D01*
X155431404Y-82891381D01*
X155438111Y-82864607D01*
X155447409Y-82838620D01*
X155459210Y-82813670D01*
X155473399Y-82789996D01*
X155489841Y-82767827D01*
X155508376Y-82747376D01*
X155528827Y-82728841D01*
X155550996Y-82712399D01*
X155574670Y-82698210D01*
X155599620Y-82686409D01*
X155625607Y-82677111D01*
X155652381Y-82670404D01*
X155679683Y-82666354D01*
X155707250Y-82665000D01*
X158744750Y-82665000D01*
X158772317Y-82666354D01*
X158772317Y-82666354D01*
G37*
D24*
X157226000Y-85090000D03*
D21*
G36*
X163972317Y-82666354D02*
X163999619Y-82670404D01*
X164026393Y-82677111D01*
X164052380Y-82686409D01*
X164077330Y-82698210D01*
X164101004Y-82712399D01*
X164123173Y-82728841D01*
X164143624Y-82747376D01*
X164162159Y-82767827D01*
X164178601Y-82789996D01*
X164192790Y-82813670D01*
X164204591Y-82838620D01*
X164213889Y-82864607D01*
X164220596Y-82891381D01*
X164224646Y-82918683D01*
X164226000Y-82946250D01*
X164226000Y-87233750D01*
X164224646Y-87261317D01*
X164220596Y-87288619D01*
X164213889Y-87315393D01*
X164204591Y-87341380D01*
X164192790Y-87366330D01*
X164178601Y-87390004D01*
X164162159Y-87412173D01*
X164143624Y-87432624D01*
X164123173Y-87451159D01*
X164101004Y-87467601D01*
X164077330Y-87481790D01*
X164052380Y-87493591D01*
X164026393Y-87502889D01*
X163999619Y-87509596D01*
X163972317Y-87513646D01*
X163944750Y-87515000D01*
X160907250Y-87515000D01*
X160879683Y-87513646D01*
X160852381Y-87509596D01*
X160825607Y-87502889D01*
X160799620Y-87493591D01*
X160774670Y-87481790D01*
X160750996Y-87467601D01*
X160728827Y-87451159D01*
X160708376Y-87432624D01*
X160689841Y-87412173D01*
X160673399Y-87390004D01*
X160659210Y-87366330D01*
X160647409Y-87341380D01*
X160638111Y-87315393D01*
X160631404Y-87288619D01*
X160627354Y-87261317D01*
X160626000Y-87233750D01*
X160626000Y-82946250D01*
X160627354Y-82918683D01*
X160631404Y-82891381D01*
X160638111Y-82864607D01*
X160647409Y-82838620D01*
X160659210Y-82813670D01*
X160673399Y-82789996D01*
X160689841Y-82767827D01*
X160708376Y-82747376D01*
X160728827Y-82728841D01*
X160750996Y-82712399D01*
X160774670Y-82698210D01*
X160799620Y-82686409D01*
X160825607Y-82677111D01*
X160852381Y-82670404D01*
X160879683Y-82666354D01*
X160907250Y-82665000D01*
X163944750Y-82665000D01*
X163972317Y-82666354D01*
X163972317Y-82666354D01*
G37*
D24*
X162426000Y-85090000D03*
G04 #@! TD*
D16*
G04 #@! TO.C,C19*
X180181000Y-91186000D03*
D15*
X178181000Y-91186000D03*
G04 #@! TD*
D21*
G04 #@! TO.C,C21*
G36*
X186127071Y-54092623D02*
X186159781Y-54097475D01*
X186191857Y-54105509D01*
X186222991Y-54116649D01*
X186252884Y-54130787D01*
X186281247Y-54147787D01*
X186307807Y-54167485D01*
X186332308Y-54189692D01*
X186354515Y-54214193D01*
X186374213Y-54240753D01*
X186391213Y-54269116D01*
X186405351Y-54299009D01*
X186416491Y-54330143D01*
X186424525Y-54362219D01*
X186429377Y-54394929D01*
X186431000Y-54427956D01*
X186431000Y-55554044D01*
X186429377Y-55587071D01*
X186424525Y-55619781D01*
X186416491Y-55651857D01*
X186405351Y-55682991D01*
X186391213Y-55712884D01*
X186374213Y-55741247D01*
X186354515Y-55767807D01*
X186332308Y-55792308D01*
X186307807Y-55814515D01*
X186281247Y-55834213D01*
X186252884Y-55851213D01*
X186222991Y-55865351D01*
X186191857Y-55876491D01*
X186159781Y-55884525D01*
X186127071Y-55889377D01*
X186094044Y-55891000D01*
X185217956Y-55891000D01*
X185184929Y-55889377D01*
X185152219Y-55884525D01*
X185120143Y-55876491D01*
X185089009Y-55865351D01*
X185059116Y-55851213D01*
X185030753Y-55834213D01*
X185004193Y-55814515D01*
X184979692Y-55792308D01*
X184957485Y-55767807D01*
X184937787Y-55741247D01*
X184920787Y-55712884D01*
X184906649Y-55682991D01*
X184895509Y-55651857D01*
X184887475Y-55619781D01*
X184882623Y-55587071D01*
X184881000Y-55554044D01*
X184881000Y-54427956D01*
X184882623Y-54394929D01*
X184887475Y-54362219D01*
X184895509Y-54330143D01*
X184906649Y-54299009D01*
X184920787Y-54269116D01*
X184937787Y-54240753D01*
X184957485Y-54214193D01*
X184979692Y-54189692D01*
X185004193Y-54167485D01*
X185030753Y-54147787D01*
X185059116Y-54130787D01*
X185089009Y-54116649D01*
X185120143Y-54105509D01*
X185152219Y-54097475D01*
X185184929Y-54092623D01*
X185217956Y-54091000D01*
X186094044Y-54091000D01*
X186127071Y-54092623D01*
X186127071Y-54092623D01*
G37*
D25*
X185656000Y-54991000D03*
D21*
G36*
X188177071Y-54092623D02*
X188209781Y-54097475D01*
X188241857Y-54105509D01*
X188272991Y-54116649D01*
X188302884Y-54130787D01*
X188331247Y-54147787D01*
X188357807Y-54167485D01*
X188382308Y-54189692D01*
X188404515Y-54214193D01*
X188424213Y-54240753D01*
X188441213Y-54269116D01*
X188455351Y-54299009D01*
X188466491Y-54330143D01*
X188474525Y-54362219D01*
X188479377Y-54394929D01*
X188481000Y-54427956D01*
X188481000Y-55554044D01*
X188479377Y-55587071D01*
X188474525Y-55619781D01*
X188466491Y-55651857D01*
X188455351Y-55682991D01*
X188441213Y-55712884D01*
X188424213Y-55741247D01*
X188404515Y-55767807D01*
X188382308Y-55792308D01*
X188357807Y-55814515D01*
X188331247Y-55834213D01*
X188302884Y-55851213D01*
X188272991Y-55865351D01*
X188241857Y-55876491D01*
X188209781Y-55884525D01*
X188177071Y-55889377D01*
X188144044Y-55891000D01*
X187267956Y-55891000D01*
X187234929Y-55889377D01*
X187202219Y-55884525D01*
X187170143Y-55876491D01*
X187139009Y-55865351D01*
X187109116Y-55851213D01*
X187080753Y-55834213D01*
X187054193Y-55814515D01*
X187029692Y-55792308D01*
X187007485Y-55767807D01*
X186987787Y-55741247D01*
X186970787Y-55712884D01*
X186956649Y-55682991D01*
X186945509Y-55651857D01*
X186937475Y-55619781D01*
X186932623Y-55587071D01*
X186931000Y-55554044D01*
X186931000Y-54427956D01*
X186932623Y-54394929D01*
X186937475Y-54362219D01*
X186945509Y-54330143D01*
X186956649Y-54299009D01*
X186970787Y-54269116D01*
X186987787Y-54240753D01*
X187007485Y-54214193D01*
X187029692Y-54189692D01*
X187054193Y-54167485D01*
X187080753Y-54147787D01*
X187109116Y-54130787D01*
X187139009Y-54116649D01*
X187170143Y-54105509D01*
X187202219Y-54097475D01*
X187234929Y-54092623D01*
X187267956Y-54091000D01*
X188144044Y-54091000D01*
X188177071Y-54092623D01*
X188177071Y-54092623D01*
G37*
D25*
X187706000Y-54991000D03*
G04 #@! TD*
D21*
G04 #@! TO.C,C23*
G36*
X167154317Y-89270354D02*
X167181619Y-89274404D01*
X167208393Y-89281111D01*
X167234380Y-89290409D01*
X167259330Y-89302210D01*
X167283004Y-89316399D01*
X167305173Y-89332841D01*
X167325624Y-89351376D01*
X167344159Y-89371827D01*
X167360601Y-89393996D01*
X167374790Y-89417670D01*
X167386591Y-89442620D01*
X167395889Y-89468607D01*
X167402596Y-89495381D01*
X167406646Y-89522683D01*
X167408000Y-89550250D01*
X167408000Y-93837750D01*
X167406646Y-93865317D01*
X167402596Y-93892619D01*
X167395889Y-93919393D01*
X167386591Y-93945380D01*
X167374790Y-93970330D01*
X167360601Y-93994004D01*
X167344159Y-94016173D01*
X167325624Y-94036624D01*
X167305173Y-94055159D01*
X167283004Y-94071601D01*
X167259330Y-94085790D01*
X167234380Y-94097591D01*
X167208393Y-94106889D01*
X167181619Y-94113596D01*
X167154317Y-94117646D01*
X167126750Y-94119000D01*
X164089250Y-94119000D01*
X164061683Y-94117646D01*
X164034381Y-94113596D01*
X164007607Y-94106889D01*
X163981620Y-94097591D01*
X163956670Y-94085790D01*
X163932996Y-94071601D01*
X163910827Y-94055159D01*
X163890376Y-94036624D01*
X163871841Y-94016173D01*
X163855399Y-93994004D01*
X163841210Y-93970330D01*
X163829409Y-93945380D01*
X163820111Y-93919393D01*
X163813404Y-93892619D01*
X163809354Y-93865317D01*
X163808000Y-93837750D01*
X163808000Y-89550250D01*
X163809354Y-89522683D01*
X163813404Y-89495381D01*
X163820111Y-89468607D01*
X163829409Y-89442620D01*
X163841210Y-89417670D01*
X163855399Y-89393996D01*
X163871841Y-89371827D01*
X163890376Y-89351376D01*
X163910827Y-89332841D01*
X163932996Y-89316399D01*
X163956670Y-89302210D01*
X163981620Y-89290409D01*
X164007607Y-89281111D01*
X164034381Y-89274404D01*
X164061683Y-89270354D01*
X164089250Y-89269000D01*
X167126750Y-89269000D01*
X167154317Y-89270354D01*
X167154317Y-89270354D01*
G37*
D24*
X165608000Y-91694000D03*
D21*
G36*
X161954317Y-89270354D02*
X161981619Y-89274404D01*
X162008393Y-89281111D01*
X162034380Y-89290409D01*
X162059330Y-89302210D01*
X162083004Y-89316399D01*
X162105173Y-89332841D01*
X162125624Y-89351376D01*
X162144159Y-89371827D01*
X162160601Y-89393996D01*
X162174790Y-89417670D01*
X162186591Y-89442620D01*
X162195889Y-89468607D01*
X162202596Y-89495381D01*
X162206646Y-89522683D01*
X162208000Y-89550250D01*
X162208000Y-93837750D01*
X162206646Y-93865317D01*
X162202596Y-93892619D01*
X162195889Y-93919393D01*
X162186591Y-93945380D01*
X162174790Y-93970330D01*
X162160601Y-93994004D01*
X162144159Y-94016173D01*
X162125624Y-94036624D01*
X162105173Y-94055159D01*
X162083004Y-94071601D01*
X162059330Y-94085790D01*
X162034380Y-94097591D01*
X162008393Y-94106889D01*
X161981619Y-94113596D01*
X161954317Y-94117646D01*
X161926750Y-94119000D01*
X158889250Y-94119000D01*
X158861683Y-94117646D01*
X158834381Y-94113596D01*
X158807607Y-94106889D01*
X158781620Y-94097591D01*
X158756670Y-94085790D01*
X158732996Y-94071601D01*
X158710827Y-94055159D01*
X158690376Y-94036624D01*
X158671841Y-94016173D01*
X158655399Y-93994004D01*
X158641210Y-93970330D01*
X158629409Y-93945380D01*
X158620111Y-93919393D01*
X158613404Y-93892619D01*
X158609354Y-93865317D01*
X158608000Y-93837750D01*
X158608000Y-89550250D01*
X158609354Y-89522683D01*
X158613404Y-89495381D01*
X158620111Y-89468607D01*
X158629409Y-89442620D01*
X158641210Y-89417670D01*
X158655399Y-89393996D01*
X158671841Y-89371827D01*
X158690376Y-89351376D01*
X158710827Y-89332841D01*
X158732996Y-89316399D01*
X158756670Y-89302210D01*
X158781620Y-89290409D01*
X158807607Y-89281111D01*
X158834381Y-89274404D01*
X158861683Y-89270354D01*
X158889250Y-89269000D01*
X161926750Y-89269000D01*
X161954317Y-89270354D01*
X161954317Y-89270354D01*
G37*
D24*
X160408000Y-91694000D03*
G04 #@! TD*
D21*
G04 #@! TO.C,C26*
G36*
X201648071Y-64252623D02*
X201680781Y-64257475D01*
X201712857Y-64265509D01*
X201743991Y-64276649D01*
X201773884Y-64290787D01*
X201802247Y-64307787D01*
X201828807Y-64327485D01*
X201853308Y-64349692D01*
X201875515Y-64374193D01*
X201895213Y-64400753D01*
X201912213Y-64429116D01*
X201926351Y-64459009D01*
X201937491Y-64490143D01*
X201945525Y-64522219D01*
X201950377Y-64554929D01*
X201952000Y-64587956D01*
X201952000Y-65714044D01*
X201950377Y-65747071D01*
X201945525Y-65779781D01*
X201937491Y-65811857D01*
X201926351Y-65842991D01*
X201912213Y-65872884D01*
X201895213Y-65901247D01*
X201875515Y-65927807D01*
X201853308Y-65952308D01*
X201828807Y-65974515D01*
X201802247Y-65994213D01*
X201773884Y-66011213D01*
X201743991Y-66025351D01*
X201712857Y-66036491D01*
X201680781Y-66044525D01*
X201648071Y-66049377D01*
X201615044Y-66051000D01*
X200738956Y-66051000D01*
X200705929Y-66049377D01*
X200673219Y-66044525D01*
X200641143Y-66036491D01*
X200610009Y-66025351D01*
X200580116Y-66011213D01*
X200551753Y-65994213D01*
X200525193Y-65974515D01*
X200500692Y-65952308D01*
X200478485Y-65927807D01*
X200458787Y-65901247D01*
X200441787Y-65872884D01*
X200427649Y-65842991D01*
X200416509Y-65811857D01*
X200408475Y-65779781D01*
X200403623Y-65747071D01*
X200402000Y-65714044D01*
X200402000Y-64587956D01*
X200403623Y-64554929D01*
X200408475Y-64522219D01*
X200416509Y-64490143D01*
X200427649Y-64459009D01*
X200441787Y-64429116D01*
X200458787Y-64400753D01*
X200478485Y-64374193D01*
X200500692Y-64349692D01*
X200525193Y-64327485D01*
X200551753Y-64307787D01*
X200580116Y-64290787D01*
X200610009Y-64276649D01*
X200641143Y-64265509D01*
X200673219Y-64257475D01*
X200705929Y-64252623D01*
X200738956Y-64251000D01*
X201615044Y-64251000D01*
X201648071Y-64252623D01*
X201648071Y-64252623D01*
G37*
D25*
X201177000Y-65151000D03*
D21*
G36*
X199598071Y-64252623D02*
X199630781Y-64257475D01*
X199662857Y-64265509D01*
X199693991Y-64276649D01*
X199723884Y-64290787D01*
X199752247Y-64307787D01*
X199778807Y-64327485D01*
X199803308Y-64349692D01*
X199825515Y-64374193D01*
X199845213Y-64400753D01*
X199862213Y-64429116D01*
X199876351Y-64459009D01*
X199887491Y-64490143D01*
X199895525Y-64522219D01*
X199900377Y-64554929D01*
X199902000Y-64587956D01*
X199902000Y-65714044D01*
X199900377Y-65747071D01*
X199895525Y-65779781D01*
X199887491Y-65811857D01*
X199876351Y-65842991D01*
X199862213Y-65872884D01*
X199845213Y-65901247D01*
X199825515Y-65927807D01*
X199803308Y-65952308D01*
X199778807Y-65974515D01*
X199752247Y-65994213D01*
X199723884Y-66011213D01*
X199693991Y-66025351D01*
X199662857Y-66036491D01*
X199630781Y-66044525D01*
X199598071Y-66049377D01*
X199565044Y-66051000D01*
X198688956Y-66051000D01*
X198655929Y-66049377D01*
X198623219Y-66044525D01*
X198591143Y-66036491D01*
X198560009Y-66025351D01*
X198530116Y-66011213D01*
X198501753Y-65994213D01*
X198475193Y-65974515D01*
X198450692Y-65952308D01*
X198428485Y-65927807D01*
X198408787Y-65901247D01*
X198391787Y-65872884D01*
X198377649Y-65842991D01*
X198366509Y-65811857D01*
X198358475Y-65779781D01*
X198353623Y-65747071D01*
X198352000Y-65714044D01*
X198352000Y-64587956D01*
X198353623Y-64554929D01*
X198358475Y-64522219D01*
X198366509Y-64490143D01*
X198377649Y-64459009D01*
X198391787Y-64429116D01*
X198408787Y-64400753D01*
X198428485Y-64374193D01*
X198450692Y-64349692D01*
X198475193Y-64327485D01*
X198501753Y-64307787D01*
X198530116Y-64290787D01*
X198560009Y-64276649D01*
X198591143Y-64265509D01*
X198623219Y-64257475D01*
X198655929Y-64252623D01*
X198688956Y-64251000D01*
X199565044Y-64251000D01*
X199598071Y-64252623D01*
X199598071Y-64252623D01*
G37*
D25*
X199127000Y-65151000D03*
G04 #@! TD*
D26*
G04 #@! TO.C,D1*
X246761000Y-46355000D03*
D14*
X249301000Y-46355000D03*
G04 #@! TD*
G04 #@! TO.C,D2*
X246761000Y-41783000D03*
D26*
X249301000Y-41783000D03*
G04 #@! TD*
G04 #@! TO.C,D3*
X167132000Y-84963000D03*
D14*
X167132000Y-87503000D03*
G04 #@! TD*
D26*
G04 #@! TO.C,D4*
X245364000Y-66040000D03*
D14*
X247904000Y-66040000D03*
G04 #@! TD*
G04 #@! TO.C,D5*
X245364000Y-70612000D03*
D26*
X247904000Y-70612000D03*
G04 #@! TD*
D12*
G04 #@! TO.C,GROUNDBRIDGE1*
X188595000Y-34544000D03*
G04 #@! TD*
G04 #@! TO.C,NeckVolumePot1*
X209042000Y-99060000D03*
D11*
X209042000Y-101600000D03*
X211582000Y-99060000D03*
X211582000Y-101600000D03*
X214122000Y-99060000D03*
X214122000Y-101600000D03*
X216662000Y-99060000D03*
X216662000Y-101600000D03*
X219202000Y-99060000D03*
X219202000Y-101600000D03*
X221742000Y-99060000D03*
X221742000Y-101600000D03*
X224282000Y-99060000D03*
X224282000Y-101600000D03*
G04 #@! TD*
D27*
G04 #@! TO.C,Q1*
X240919000Y-101600000D03*
X240919000Y-102870000D03*
D28*
X240919000Y-100330000D03*
G04 #@! TD*
D27*
G04 #@! TO.C,Q2*
X226187000Y-94234000D03*
X226187000Y-92964000D03*
D28*
X226187000Y-95504000D03*
G04 #@! TD*
D21*
G04 #@! TO.C,R4*
G36*
X202401071Y-55362623D02*
X202433781Y-55367475D01*
X202465857Y-55375509D01*
X202496991Y-55386649D01*
X202526884Y-55400787D01*
X202555247Y-55417787D01*
X202581807Y-55437485D01*
X202606308Y-55459692D01*
X202628515Y-55484193D01*
X202648213Y-55510753D01*
X202665213Y-55539116D01*
X202679351Y-55569009D01*
X202690491Y-55600143D01*
X202698525Y-55632219D01*
X202703377Y-55664929D01*
X202705000Y-55697956D01*
X202705000Y-56824044D01*
X202703377Y-56857071D01*
X202698525Y-56889781D01*
X202690491Y-56921857D01*
X202679351Y-56952991D01*
X202665213Y-56982884D01*
X202648213Y-57011247D01*
X202628515Y-57037807D01*
X202606308Y-57062308D01*
X202581807Y-57084515D01*
X202555247Y-57104213D01*
X202526884Y-57121213D01*
X202496991Y-57135351D01*
X202465857Y-57146491D01*
X202433781Y-57154525D01*
X202401071Y-57159377D01*
X202368044Y-57161000D01*
X201491956Y-57161000D01*
X201458929Y-57159377D01*
X201426219Y-57154525D01*
X201394143Y-57146491D01*
X201363009Y-57135351D01*
X201333116Y-57121213D01*
X201304753Y-57104213D01*
X201278193Y-57084515D01*
X201253692Y-57062308D01*
X201231485Y-57037807D01*
X201211787Y-57011247D01*
X201194787Y-56982884D01*
X201180649Y-56952991D01*
X201169509Y-56921857D01*
X201161475Y-56889781D01*
X201156623Y-56857071D01*
X201155000Y-56824044D01*
X201155000Y-55697956D01*
X201156623Y-55664929D01*
X201161475Y-55632219D01*
X201169509Y-55600143D01*
X201180649Y-55569009D01*
X201194787Y-55539116D01*
X201211787Y-55510753D01*
X201231485Y-55484193D01*
X201253692Y-55459692D01*
X201278193Y-55437485D01*
X201304753Y-55417787D01*
X201333116Y-55400787D01*
X201363009Y-55386649D01*
X201394143Y-55375509D01*
X201426219Y-55367475D01*
X201458929Y-55362623D01*
X201491956Y-55361000D01*
X202368044Y-55361000D01*
X202401071Y-55362623D01*
X202401071Y-55362623D01*
G37*
D25*
X201930000Y-56261000D03*
D21*
G36*
X200351071Y-55362623D02*
X200383781Y-55367475D01*
X200415857Y-55375509D01*
X200446991Y-55386649D01*
X200476884Y-55400787D01*
X200505247Y-55417787D01*
X200531807Y-55437485D01*
X200556308Y-55459692D01*
X200578515Y-55484193D01*
X200598213Y-55510753D01*
X200615213Y-55539116D01*
X200629351Y-55569009D01*
X200640491Y-55600143D01*
X200648525Y-55632219D01*
X200653377Y-55664929D01*
X200655000Y-55697956D01*
X200655000Y-56824044D01*
X200653377Y-56857071D01*
X200648525Y-56889781D01*
X200640491Y-56921857D01*
X200629351Y-56952991D01*
X200615213Y-56982884D01*
X200598213Y-57011247D01*
X200578515Y-57037807D01*
X200556308Y-57062308D01*
X200531807Y-57084515D01*
X200505247Y-57104213D01*
X200476884Y-57121213D01*
X200446991Y-57135351D01*
X200415857Y-57146491D01*
X200383781Y-57154525D01*
X200351071Y-57159377D01*
X200318044Y-57161000D01*
X199441956Y-57161000D01*
X199408929Y-57159377D01*
X199376219Y-57154525D01*
X199344143Y-57146491D01*
X199313009Y-57135351D01*
X199283116Y-57121213D01*
X199254753Y-57104213D01*
X199228193Y-57084515D01*
X199203692Y-57062308D01*
X199181485Y-57037807D01*
X199161787Y-57011247D01*
X199144787Y-56982884D01*
X199130649Y-56952991D01*
X199119509Y-56921857D01*
X199111475Y-56889781D01*
X199106623Y-56857071D01*
X199105000Y-56824044D01*
X199105000Y-55697956D01*
X199106623Y-55664929D01*
X199111475Y-55632219D01*
X199119509Y-55600143D01*
X199130649Y-55569009D01*
X199144787Y-55539116D01*
X199161787Y-55510753D01*
X199181485Y-55484193D01*
X199203692Y-55459692D01*
X199228193Y-55437485D01*
X199254753Y-55417787D01*
X199283116Y-55400787D01*
X199313009Y-55386649D01*
X199344143Y-55375509D01*
X199376219Y-55367475D01*
X199408929Y-55362623D01*
X199441956Y-55361000D01*
X200318044Y-55361000D01*
X200351071Y-55362623D01*
X200351071Y-55362623D01*
G37*
D25*
X199880000Y-56261000D03*
G04 #@! TD*
D21*
G04 #@! TO.C,R5*
G36*
X179913071Y-71863623D02*
X179945781Y-71868475D01*
X179977857Y-71876509D01*
X180008991Y-71887649D01*
X180038884Y-71901787D01*
X180067247Y-71918787D01*
X180093807Y-71938485D01*
X180118308Y-71960692D01*
X180140515Y-71985193D01*
X180160213Y-72011753D01*
X180177213Y-72040116D01*
X180191351Y-72070009D01*
X180202491Y-72101143D01*
X180210525Y-72133219D01*
X180215377Y-72165929D01*
X180217000Y-72198956D01*
X180217000Y-73325044D01*
X180215377Y-73358071D01*
X180210525Y-73390781D01*
X180202491Y-73422857D01*
X180191351Y-73453991D01*
X180177213Y-73483884D01*
X180160213Y-73512247D01*
X180140515Y-73538807D01*
X180118308Y-73563308D01*
X180093807Y-73585515D01*
X180067247Y-73605213D01*
X180038884Y-73622213D01*
X180008991Y-73636351D01*
X179977857Y-73647491D01*
X179945781Y-73655525D01*
X179913071Y-73660377D01*
X179880044Y-73662000D01*
X179003956Y-73662000D01*
X178970929Y-73660377D01*
X178938219Y-73655525D01*
X178906143Y-73647491D01*
X178875009Y-73636351D01*
X178845116Y-73622213D01*
X178816753Y-73605213D01*
X178790193Y-73585515D01*
X178765692Y-73563308D01*
X178743485Y-73538807D01*
X178723787Y-73512247D01*
X178706787Y-73483884D01*
X178692649Y-73453991D01*
X178681509Y-73422857D01*
X178673475Y-73390781D01*
X178668623Y-73358071D01*
X178667000Y-73325044D01*
X178667000Y-72198956D01*
X178668623Y-72165929D01*
X178673475Y-72133219D01*
X178681509Y-72101143D01*
X178692649Y-72070009D01*
X178706787Y-72040116D01*
X178723787Y-72011753D01*
X178743485Y-71985193D01*
X178765692Y-71960692D01*
X178790193Y-71938485D01*
X178816753Y-71918787D01*
X178845116Y-71901787D01*
X178875009Y-71887649D01*
X178906143Y-71876509D01*
X178938219Y-71868475D01*
X178970929Y-71863623D01*
X179003956Y-71862000D01*
X179880044Y-71862000D01*
X179913071Y-71863623D01*
X179913071Y-71863623D01*
G37*
D25*
X179442000Y-72762000D03*
D21*
G36*
X181963071Y-71863623D02*
X181995781Y-71868475D01*
X182027857Y-71876509D01*
X182058991Y-71887649D01*
X182088884Y-71901787D01*
X182117247Y-71918787D01*
X182143807Y-71938485D01*
X182168308Y-71960692D01*
X182190515Y-71985193D01*
X182210213Y-72011753D01*
X182227213Y-72040116D01*
X182241351Y-72070009D01*
X182252491Y-72101143D01*
X182260525Y-72133219D01*
X182265377Y-72165929D01*
X182267000Y-72198956D01*
X182267000Y-73325044D01*
X182265377Y-73358071D01*
X182260525Y-73390781D01*
X182252491Y-73422857D01*
X182241351Y-73453991D01*
X182227213Y-73483884D01*
X182210213Y-73512247D01*
X182190515Y-73538807D01*
X182168308Y-73563308D01*
X182143807Y-73585515D01*
X182117247Y-73605213D01*
X182088884Y-73622213D01*
X182058991Y-73636351D01*
X182027857Y-73647491D01*
X181995781Y-73655525D01*
X181963071Y-73660377D01*
X181930044Y-73662000D01*
X181053956Y-73662000D01*
X181020929Y-73660377D01*
X180988219Y-73655525D01*
X180956143Y-73647491D01*
X180925009Y-73636351D01*
X180895116Y-73622213D01*
X180866753Y-73605213D01*
X180840193Y-73585515D01*
X180815692Y-73563308D01*
X180793485Y-73538807D01*
X180773787Y-73512247D01*
X180756787Y-73483884D01*
X180742649Y-73453991D01*
X180731509Y-73422857D01*
X180723475Y-73390781D01*
X180718623Y-73358071D01*
X180717000Y-73325044D01*
X180717000Y-72198956D01*
X180718623Y-72165929D01*
X180723475Y-72133219D01*
X180731509Y-72101143D01*
X180742649Y-72070009D01*
X180756787Y-72040116D01*
X180773787Y-72011753D01*
X180793485Y-71985193D01*
X180815692Y-71960692D01*
X180840193Y-71938485D01*
X180866753Y-71918787D01*
X180895116Y-71901787D01*
X180925009Y-71887649D01*
X180956143Y-71876509D01*
X180988219Y-71868475D01*
X181020929Y-71863623D01*
X181053956Y-71862000D01*
X181930044Y-71862000D01*
X181963071Y-71863623D01*
X181963071Y-71863623D01*
G37*
D25*
X181492000Y-72762000D03*
G04 #@! TD*
D21*
G04 #@! TO.C,R7*
G36*
X169617071Y-59045623D02*
X169649781Y-59050475D01*
X169681857Y-59058509D01*
X169712991Y-59069649D01*
X169742884Y-59083787D01*
X169771247Y-59100787D01*
X169797807Y-59120485D01*
X169822308Y-59142692D01*
X169844515Y-59167193D01*
X169864213Y-59193753D01*
X169881213Y-59222116D01*
X169895351Y-59252009D01*
X169906491Y-59283143D01*
X169914525Y-59315219D01*
X169919377Y-59347929D01*
X169921000Y-59380956D01*
X169921000Y-60507044D01*
X169919377Y-60540071D01*
X169914525Y-60572781D01*
X169906491Y-60604857D01*
X169895351Y-60635991D01*
X169881213Y-60665884D01*
X169864213Y-60694247D01*
X169844515Y-60720807D01*
X169822308Y-60745308D01*
X169797807Y-60767515D01*
X169771247Y-60787213D01*
X169742884Y-60804213D01*
X169712991Y-60818351D01*
X169681857Y-60829491D01*
X169649781Y-60837525D01*
X169617071Y-60842377D01*
X169584044Y-60844000D01*
X168707956Y-60844000D01*
X168674929Y-60842377D01*
X168642219Y-60837525D01*
X168610143Y-60829491D01*
X168579009Y-60818351D01*
X168549116Y-60804213D01*
X168520753Y-60787213D01*
X168494193Y-60767515D01*
X168469692Y-60745308D01*
X168447485Y-60720807D01*
X168427787Y-60694247D01*
X168410787Y-60665884D01*
X168396649Y-60635991D01*
X168385509Y-60604857D01*
X168377475Y-60572781D01*
X168372623Y-60540071D01*
X168371000Y-60507044D01*
X168371000Y-59380956D01*
X168372623Y-59347929D01*
X168377475Y-59315219D01*
X168385509Y-59283143D01*
X168396649Y-59252009D01*
X168410787Y-59222116D01*
X168427787Y-59193753D01*
X168447485Y-59167193D01*
X168469692Y-59142692D01*
X168494193Y-59120485D01*
X168520753Y-59100787D01*
X168549116Y-59083787D01*
X168579009Y-59069649D01*
X168610143Y-59058509D01*
X168642219Y-59050475D01*
X168674929Y-59045623D01*
X168707956Y-59044000D01*
X169584044Y-59044000D01*
X169617071Y-59045623D01*
X169617071Y-59045623D01*
G37*
D25*
X169146000Y-59944000D03*
D21*
G36*
X171667071Y-59045623D02*
X171699781Y-59050475D01*
X171731857Y-59058509D01*
X171762991Y-59069649D01*
X171792884Y-59083787D01*
X171821247Y-59100787D01*
X171847807Y-59120485D01*
X171872308Y-59142692D01*
X171894515Y-59167193D01*
X171914213Y-59193753D01*
X171931213Y-59222116D01*
X171945351Y-59252009D01*
X171956491Y-59283143D01*
X171964525Y-59315219D01*
X171969377Y-59347929D01*
X171971000Y-59380956D01*
X171971000Y-60507044D01*
X171969377Y-60540071D01*
X171964525Y-60572781D01*
X171956491Y-60604857D01*
X171945351Y-60635991D01*
X171931213Y-60665884D01*
X171914213Y-60694247D01*
X171894515Y-60720807D01*
X171872308Y-60745308D01*
X171847807Y-60767515D01*
X171821247Y-60787213D01*
X171792884Y-60804213D01*
X171762991Y-60818351D01*
X171731857Y-60829491D01*
X171699781Y-60837525D01*
X171667071Y-60842377D01*
X171634044Y-60844000D01*
X170757956Y-60844000D01*
X170724929Y-60842377D01*
X170692219Y-60837525D01*
X170660143Y-60829491D01*
X170629009Y-60818351D01*
X170599116Y-60804213D01*
X170570753Y-60787213D01*
X170544193Y-60767515D01*
X170519692Y-60745308D01*
X170497485Y-60720807D01*
X170477787Y-60694247D01*
X170460787Y-60665884D01*
X170446649Y-60635991D01*
X170435509Y-60604857D01*
X170427475Y-60572781D01*
X170422623Y-60540071D01*
X170421000Y-60507044D01*
X170421000Y-59380956D01*
X170422623Y-59347929D01*
X170427475Y-59315219D01*
X170435509Y-59283143D01*
X170446649Y-59252009D01*
X170460787Y-59222116D01*
X170477787Y-59193753D01*
X170497485Y-59167193D01*
X170519692Y-59142692D01*
X170544193Y-59120485D01*
X170570753Y-59100787D01*
X170599116Y-59083787D01*
X170629009Y-59069649D01*
X170660143Y-59058509D01*
X170692219Y-59050475D01*
X170724929Y-59045623D01*
X170757956Y-59044000D01*
X171634044Y-59044000D01*
X171667071Y-59045623D01*
X171667071Y-59045623D01*
G37*
D25*
X171196000Y-59944000D03*
G04 #@! TD*
D21*
G04 #@! TO.C,R8*
G36*
X174316071Y-61458623D02*
X174348781Y-61463475D01*
X174380857Y-61471509D01*
X174411991Y-61482649D01*
X174441884Y-61496787D01*
X174470247Y-61513787D01*
X174496807Y-61533485D01*
X174521308Y-61555692D01*
X174543515Y-61580193D01*
X174563213Y-61606753D01*
X174580213Y-61635116D01*
X174594351Y-61665009D01*
X174605491Y-61696143D01*
X174613525Y-61728219D01*
X174618377Y-61760929D01*
X174620000Y-61793956D01*
X174620000Y-62920044D01*
X174618377Y-62953071D01*
X174613525Y-62985781D01*
X174605491Y-63017857D01*
X174594351Y-63048991D01*
X174580213Y-63078884D01*
X174563213Y-63107247D01*
X174543515Y-63133807D01*
X174521308Y-63158308D01*
X174496807Y-63180515D01*
X174470247Y-63200213D01*
X174441884Y-63217213D01*
X174411991Y-63231351D01*
X174380857Y-63242491D01*
X174348781Y-63250525D01*
X174316071Y-63255377D01*
X174283044Y-63257000D01*
X173406956Y-63257000D01*
X173373929Y-63255377D01*
X173341219Y-63250525D01*
X173309143Y-63242491D01*
X173278009Y-63231351D01*
X173248116Y-63217213D01*
X173219753Y-63200213D01*
X173193193Y-63180515D01*
X173168692Y-63158308D01*
X173146485Y-63133807D01*
X173126787Y-63107247D01*
X173109787Y-63078884D01*
X173095649Y-63048991D01*
X173084509Y-63017857D01*
X173076475Y-62985781D01*
X173071623Y-62953071D01*
X173070000Y-62920044D01*
X173070000Y-61793956D01*
X173071623Y-61760929D01*
X173076475Y-61728219D01*
X173084509Y-61696143D01*
X173095649Y-61665009D01*
X173109787Y-61635116D01*
X173126787Y-61606753D01*
X173146485Y-61580193D01*
X173168692Y-61555692D01*
X173193193Y-61533485D01*
X173219753Y-61513787D01*
X173248116Y-61496787D01*
X173278009Y-61482649D01*
X173309143Y-61471509D01*
X173341219Y-61463475D01*
X173373929Y-61458623D01*
X173406956Y-61457000D01*
X174283044Y-61457000D01*
X174316071Y-61458623D01*
X174316071Y-61458623D01*
G37*
D25*
X173845000Y-62357000D03*
D21*
G36*
X176366071Y-61458623D02*
X176398781Y-61463475D01*
X176430857Y-61471509D01*
X176461991Y-61482649D01*
X176491884Y-61496787D01*
X176520247Y-61513787D01*
X176546807Y-61533485D01*
X176571308Y-61555692D01*
X176593515Y-61580193D01*
X176613213Y-61606753D01*
X176630213Y-61635116D01*
X176644351Y-61665009D01*
X176655491Y-61696143D01*
X176663525Y-61728219D01*
X176668377Y-61760929D01*
X176670000Y-61793956D01*
X176670000Y-62920044D01*
X176668377Y-62953071D01*
X176663525Y-62985781D01*
X176655491Y-63017857D01*
X176644351Y-63048991D01*
X176630213Y-63078884D01*
X176613213Y-63107247D01*
X176593515Y-63133807D01*
X176571308Y-63158308D01*
X176546807Y-63180515D01*
X176520247Y-63200213D01*
X176491884Y-63217213D01*
X176461991Y-63231351D01*
X176430857Y-63242491D01*
X176398781Y-63250525D01*
X176366071Y-63255377D01*
X176333044Y-63257000D01*
X175456956Y-63257000D01*
X175423929Y-63255377D01*
X175391219Y-63250525D01*
X175359143Y-63242491D01*
X175328009Y-63231351D01*
X175298116Y-63217213D01*
X175269753Y-63200213D01*
X175243193Y-63180515D01*
X175218692Y-63158308D01*
X175196485Y-63133807D01*
X175176787Y-63107247D01*
X175159787Y-63078884D01*
X175145649Y-63048991D01*
X175134509Y-63017857D01*
X175126475Y-62985781D01*
X175121623Y-62953071D01*
X175120000Y-62920044D01*
X175120000Y-61793956D01*
X175121623Y-61760929D01*
X175126475Y-61728219D01*
X175134509Y-61696143D01*
X175145649Y-61665009D01*
X175159787Y-61635116D01*
X175176787Y-61606753D01*
X175196485Y-61580193D01*
X175218692Y-61555692D01*
X175243193Y-61533485D01*
X175269753Y-61513787D01*
X175298116Y-61496787D01*
X175328009Y-61482649D01*
X175359143Y-61471509D01*
X175391219Y-61463475D01*
X175423929Y-61458623D01*
X175456956Y-61457000D01*
X176333044Y-61457000D01*
X176366071Y-61458623D01*
X176366071Y-61458623D01*
G37*
D25*
X175895000Y-62357000D03*
G04 #@! TD*
D21*
G04 #@! TO.C,R9*
G36*
X180301071Y-60930623D02*
X180333781Y-60935475D01*
X180365857Y-60943509D01*
X180396991Y-60954649D01*
X180426884Y-60968787D01*
X180455247Y-60985787D01*
X180481807Y-61005485D01*
X180506308Y-61027692D01*
X180528515Y-61052193D01*
X180548213Y-61078753D01*
X180565213Y-61107116D01*
X180579351Y-61137009D01*
X180590491Y-61168143D01*
X180598525Y-61200219D01*
X180603377Y-61232929D01*
X180605000Y-61265956D01*
X180605000Y-62142044D01*
X180603377Y-62175071D01*
X180598525Y-62207781D01*
X180590491Y-62239857D01*
X180579351Y-62270991D01*
X180565213Y-62300884D01*
X180548213Y-62329247D01*
X180528515Y-62355807D01*
X180506308Y-62380308D01*
X180481807Y-62402515D01*
X180455247Y-62422213D01*
X180426884Y-62439213D01*
X180396991Y-62453351D01*
X180365857Y-62464491D01*
X180333781Y-62472525D01*
X180301071Y-62477377D01*
X180268044Y-62479000D01*
X179141956Y-62479000D01*
X179108929Y-62477377D01*
X179076219Y-62472525D01*
X179044143Y-62464491D01*
X179013009Y-62453351D01*
X178983116Y-62439213D01*
X178954753Y-62422213D01*
X178928193Y-62402515D01*
X178903692Y-62380308D01*
X178881485Y-62355807D01*
X178861787Y-62329247D01*
X178844787Y-62300884D01*
X178830649Y-62270991D01*
X178819509Y-62239857D01*
X178811475Y-62207781D01*
X178806623Y-62175071D01*
X178805000Y-62142044D01*
X178805000Y-61265956D01*
X178806623Y-61232929D01*
X178811475Y-61200219D01*
X178819509Y-61168143D01*
X178830649Y-61137009D01*
X178844787Y-61107116D01*
X178861787Y-61078753D01*
X178881485Y-61052193D01*
X178903692Y-61027692D01*
X178928193Y-61005485D01*
X178954753Y-60985787D01*
X178983116Y-60968787D01*
X179013009Y-60954649D01*
X179044143Y-60943509D01*
X179076219Y-60935475D01*
X179108929Y-60930623D01*
X179141956Y-60929000D01*
X180268044Y-60929000D01*
X180301071Y-60930623D01*
X180301071Y-60930623D01*
G37*
D25*
X179705000Y-61704000D03*
D21*
G36*
X180301071Y-62980623D02*
X180333781Y-62985475D01*
X180365857Y-62993509D01*
X180396991Y-63004649D01*
X180426884Y-63018787D01*
X180455247Y-63035787D01*
X180481807Y-63055485D01*
X180506308Y-63077692D01*
X180528515Y-63102193D01*
X180548213Y-63128753D01*
X180565213Y-63157116D01*
X180579351Y-63187009D01*
X180590491Y-63218143D01*
X180598525Y-63250219D01*
X180603377Y-63282929D01*
X180605000Y-63315956D01*
X180605000Y-64192044D01*
X180603377Y-64225071D01*
X180598525Y-64257781D01*
X180590491Y-64289857D01*
X180579351Y-64320991D01*
X180565213Y-64350884D01*
X180548213Y-64379247D01*
X180528515Y-64405807D01*
X180506308Y-64430308D01*
X180481807Y-64452515D01*
X180455247Y-64472213D01*
X180426884Y-64489213D01*
X180396991Y-64503351D01*
X180365857Y-64514491D01*
X180333781Y-64522525D01*
X180301071Y-64527377D01*
X180268044Y-64529000D01*
X179141956Y-64529000D01*
X179108929Y-64527377D01*
X179076219Y-64522525D01*
X179044143Y-64514491D01*
X179013009Y-64503351D01*
X178983116Y-64489213D01*
X178954753Y-64472213D01*
X178928193Y-64452515D01*
X178903692Y-64430308D01*
X178881485Y-64405807D01*
X178861787Y-64379247D01*
X178844787Y-64350884D01*
X178830649Y-64320991D01*
X178819509Y-64289857D01*
X178811475Y-64257781D01*
X178806623Y-64225071D01*
X178805000Y-64192044D01*
X178805000Y-63315956D01*
X178806623Y-63282929D01*
X178811475Y-63250219D01*
X178819509Y-63218143D01*
X178830649Y-63187009D01*
X178844787Y-63157116D01*
X178861787Y-63128753D01*
X178881485Y-63102193D01*
X178903692Y-63077692D01*
X178928193Y-63055485D01*
X178954753Y-63035787D01*
X178983116Y-63018787D01*
X179013009Y-63004649D01*
X179044143Y-62993509D01*
X179076219Y-62985475D01*
X179108929Y-62980623D01*
X179141956Y-62979000D01*
X180268044Y-62979000D01*
X180301071Y-62980623D01*
X180301071Y-62980623D01*
G37*
D25*
X179705000Y-63754000D03*
G04 #@! TD*
D21*
G04 #@! TO.C,R15*
G36*
X168871071Y-68686623D02*
X168903781Y-68691475D01*
X168935857Y-68699509D01*
X168966991Y-68710649D01*
X168996884Y-68724787D01*
X169025247Y-68741787D01*
X169051807Y-68761485D01*
X169076308Y-68783692D01*
X169098515Y-68808193D01*
X169118213Y-68834753D01*
X169135213Y-68863116D01*
X169149351Y-68893009D01*
X169160491Y-68924143D01*
X169168525Y-68956219D01*
X169173377Y-68988929D01*
X169175000Y-69021956D01*
X169175000Y-69898044D01*
X169173377Y-69931071D01*
X169168525Y-69963781D01*
X169160491Y-69995857D01*
X169149351Y-70026991D01*
X169135213Y-70056884D01*
X169118213Y-70085247D01*
X169098515Y-70111807D01*
X169076308Y-70136308D01*
X169051807Y-70158515D01*
X169025247Y-70178213D01*
X168996884Y-70195213D01*
X168966991Y-70209351D01*
X168935857Y-70220491D01*
X168903781Y-70228525D01*
X168871071Y-70233377D01*
X168838044Y-70235000D01*
X167711956Y-70235000D01*
X167678929Y-70233377D01*
X167646219Y-70228525D01*
X167614143Y-70220491D01*
X167583009Y-70209351D01*
X167553116Y-70195213D01*
X167524753Y-70178213D01*
X167498193Y-70158515D01*
X167473692Y-70136308D01*
X167451485Y-70111807D01*
X167431787Y-70085247D01*
X167414787Y-70056884D01*
X167400649Y-70026991D01*
X167389509Y-69995857D01*
X167381475Y-69963781D01*
X167376623Y-69931071D01*
X167375000Y-69898044D01*
X167375000Y-69021956D01*
X167376623Y-68988929D01*
X167381475Y-68956219D01*
X167389509Y-68924143D01*
X167400649Y-68893009D01*
X167414787Y-68863116D01*
X167431787Y-68834753D01*
X167451485Y-68808193D01*
X167473692Y-68783692D01*
X167498193Y-68761485D01*
X167524753Y-68741787D01*
X167553116Y-68724787D01*
X167583009Y-68710649D01*
X167614143Y-68699509D01*
X167646219Y-68691475D01*
X167678929Y-68686623D01*
X167711956Y-68685000D01*
X168838044Y-68685000D01*
X168871071Y-68686623D01*
X168871071Y-68686623D01*
G37*
D25*
X168275000Y-69460000D03*
D21*
G36*
X168871071Y-70736623D02*
X168903781Y-70741475D01*
X168935857Y-70749509D01*
X168966991Y-70760649D01*
X168996884Y-70774787D01*
X169025247Y-70791787D01*
X169051807Y-70811485D01*
X169076308Y-70833692D01*
X169098515Y-70858193D01*
X169118213Y-70884753D01*
X169135213Y-70913116D01*
X169149351Y-70943009D01*
X169160491Y-70974143D01*
X169168525Y-71006219D01*
X169173377Y-71038929D01*
X169175000Y-71071956D01*
X169175000Y-71948044D01*
X169173377Y-71981071D01*
X169168525Y-72013781D01*
X169160491Y-72045857D01*
X169149351Y-72076991D01*
X169135213Y-72106884D01*
X169118213Y-72135247D01*
X169098515Y-72161807D01*
X169076308Y-72186308D01*
X169051807Y-72208515D01*
X169025247Y-72228213D01*
X168996884Y-72245213D01*
X168966991Y-72259351D01*
X168935857Y-72270491D01*
X168903781Y-72278525D01*
X168871071Y-72283377D01*
X168838044Y-72285000D01*
X167711956Y-72285000D01*
X167678929Y-72283377D01*
X167646219Y-72278525D01*
X167614143Y-72270491D01*
X167583009Y-72259351D01*
X167553116Y-72245213D01*
X167524753Y-72228213D01*
X167498193Y-72208515D01*
X167473692Y-72186308D01*
X167451485Y-72161807D01*
X167431787Y-72135247D01*
X167414787Y-72106884D01*
X167400649Y-72076991D01*
X167389509Y-72045857D01*
X167381475Y-72013781D01*
X167376623Y-71981071D01*
X167375000Y-71948044D01*
X167375000Y-71071956D01*
X167376623Y-71038929D01*
X167381475Y-71006219D01*
X167389509Y-70974143D01*
X167400649Y-70943009D01*
X167414787Y-70913116D01*
X167431787Y-70884753D01*
X167451485Y-70858193D01*
X167473692Y-70833692D01*
X167498193Y-70811485D01*
X167524753Y-70791787D01*
X167553116Y-70774787D01*
X167583009Y-70760649D01*
X167614143Y-70749509D01*
X167646219Y-70741475D01*
X167678929Y-70736623D01*
X167711956Y-70735000D01*
X168838044Y-70735000D01*
X168871071Y-70736623D01*
X168871071Y-70736623D01*
G37*
D25*
X168275000Y-71510000D03*
G04 #@! TD*
D21*
G04 #@! TO.C,R26*
G36*
X193001071Y-65139623D02*
X193033781Y-65144475D01*
X193065857Y-65152509D01*
X193096991Y-65163649D01*
X193126884Y-65177787D01*
X193155247Y-65194787D01*
X193181807Y-65214485D01*
X193206308Y-65236692D01*
X193228515Y-65261193D01*
X193248213Y-65287753D01*
X193265213Y-65316116D01*
X193279351Y-65346009D01*
X193290491Y-65377143D01*
X193298525Y-65409219D01*
X193303377Y-65441929D01*
X193305000Y-65474956D01*
X193305000Y-66351044D01*
X193303377Y-66384071D01*
X193298525Y-66416781D01*
X193290491Y-66448857D01*
X193279351Y-66479991D01*
X193265213Y-66509884D01*
X193248213Y-66538247D01*
X193228515Y-66564807D01*
X193206308Y-66589308D01*
X193181807Y-66611515D01*
X193155247Y-66631213D01*
X193126884Y-66648213D01*
X193096991Y-66662351D01*
X193065857Y-66673491D01*
X193033781Y-66681525D01*
X193001071Y-66686377D01*
X192968044Y-66688000D01*
X191841956Y-66688000D01*
X191808929Y-66686377D01*
X191776219Y-66681525D01*
X191744143Y-66673491D01*
X191713009Y-66662351D01*
X191683116Y-66648213D01*
X191654753Y-66631213D01*
X191628193Y-66611515D01*
X191603692Y-66589308D01*
X191581485Y-66564807D01*
X191561787Y-66538247D01*
X191544787Y-66509884D01*
X191530649Y-66479991D01*
X191519509Y-66448857D01*
X191511475Y-66416781D01*
X191506623Y-66384071D01*
X191505000Y-66351044D01*
X191505000Y-65474956D01*
X191506623Y-65441929D01*
X191511475Y-65409219D01*
X191519509Y-65377143D01*
X191530649Y-65346009D01*
X191544787Y-65316116D01*
X191561787Y-65287753D01*
X191581485Y-65261193D01*
X191603692Y-65236692D01*
X191628193Y-65214485D01*
X191654753Y-65194787D01*
X191683116Y-65177787D01*
X191713009Y-65163649D01*
X191744143Y-65152509D01*
X191776219Y-65144475D01*
X191808929Y-65139623D01*
X191841956Y-65138000D01*
X192968044Y-65138000D01*
X193001071Y-65139623D01*
X193001071Y-65139623D01*
G37*
D25*
X192405000Y-65913000D03*
D21*
G36*
X193001071Y-63089623D02*
X193033781Y-63094475D01*
X193065857Y-63102509D01*
X193096991Y-63113649D01*
X193126884Y-63127787D01*
X193155247Y-63144787D01*
X193181807Y-63164485D01*
X193206308Y-63186692D01*
X193228515Y-63211193D01*
X193248213Y-63237753D01*
X193265213Y-63266116D01*
X193279351Y-63296009D01*
X193290491Y-63327143D01*
X193298525Y-63359219D01*
X193303377Y-63391929D01*
X193305000Y-63424956D01*
X193305000Y-64301044D01*
X193303377Y-64334071D01*
X193298525Y-64366781D01*
X193290491Y-64398857D01*
X193279351Y-64429991D01*
X193265213Y-64459884D01*
X193248213Y-64488247D01*
X193228515Y-64514807D01*
X193206308Y-64539308D01*
X193181807Y-64561515D01*
X193155247Y-64581213D01*
X193126884Y-64598213D01*
X193096991Y-64612351D01*
X193065857Y-64623491D01*
X193033781Y-64631525D01*
X193001071Y-64636377D01*
X192968044Y-64638000D01*
X191841956Y-64638000D01*
X191808929Y-64636377D01*
X191776219Y-64631525D01*
X191744143Y-64623491D01*
X191713009Y-64612351D01*
X191683116Y-64598213D01*
X191654753Y-64581213D01*
X191628193Y-64561515D01*
X191603692Y-64539308D01*
X191581485Y-64514807D01*
X191561787Y-64488247D01*
X191544787Y-64459884D01*
X191530649Y-64429991D01*
X191519509Y-64398857D01*
X191511475Y-64366781D01*
X191506623Y-64334071D01*
X191505000Y-64301044D01*
X191505000Y-63424956D01*
X191506623Y-63391929D01*
X191511475Y-63359219D01*
X191519509Y-63327143D01*
X191530649Y-63296009D01*
X191544787Y-63266116D01*
X191561787Y-63237753D01*
X191581485Y-63211193D01*
X191603692Y-63186692D01*
X191628193Y-63164485D01*
X191654753Y-63144787D01*
X191683116Y-63127787D01*
X191713009Y-63113649D01*
X191744143Y-63102509D01*
X191776219Y-63094475D01*
X191808929Y-63089623D01*
X191841956Y-63088000D01*
X192968044Y-63088000D01*
X193001071Y-63089623D01*
X193001071Y-63089623D01*
G37*
D25*
X192405000Y-63863000D03*
G04 #@! TD*
D21*
G04 #@! TO.C,R27*
G36*
X181301071Y-54219623D02*
X181333781Y-54224475D01*
X181365857Y-54232509D01*
X181396991Y-54243649D01*
X181426884Y-54257787D01*
X181455247Y-54274787D01*
X181481807Y-54294485D01*
X181506308Y-54316692D01*
X181528515Y-54341193D01*
X181548213Y-54367753D01*
X181565213Y-54396116D01*
X181579351Y-54426009D01*
X181590491Y-54457143D01*
X181598525Y-54489219D01*
X181603377Y-54521929D01*
X181605000Y-54554956D01*
X181605000Y-55681044D01*
X181603377Y-55714071D01*
X181598525Y-55746781D01*
X181590491Y-55778857D01*
X181579351Y-55809991D01*
X181565213Y-55839884D01*
X181548213Y-55868247D01*
X181528515Y-55894807D01*
X181506308Y-55919308D01*
X181481807Y-55941515D01*
X181455247Y-55961213D01*
X181426884Y-55978213D01*
X181396991Y-55992351D01*
X181365857Y-56003491D01*
X181333781Y-56011525D01*
X181301071Y-56016377D01*
X181268044Y-56018000D01*
X180391956Y-56018000D01*
X180358929Y-56016377D01*
X180326219Y-56011525D01*
X180294143Y-56003491D01*
X180263009Y-55992351D01*
X180233116Y-55978213D01*
X180204753Y-55961213D01*
X180178193Y-55941515D01*
X180153692Y-55919308D01*
X180131485Y-55894807D01*
X180111787Y-55868247D01*
X180094787Y-55839884D01*
X180080649Y-55809991D01*
X180069509Y-55778857D01*
X180061475Y-55746781D01*
X180056623Y-55714071D01*
X180055000Y-55681044D01*
X180055000Y-54554956D01*
X180056623Y-54521929D01*
X180061475Y-54489219D01*
X180069509Y-54457143D01*
X180080649Y-54426009D01*
X180094787Y-54396116D01*
X180111787Y-54367753D01*
X180131485Y-54341193D01*
X180153692Y-54316692D01*
X180178193Y-54294485D01*
X180204753Y-54274787D01*
X180233116Y-54257787D01*
X180263009Y-54243649D01*
X180294143Y-54232509D01*
X180326219Y-54224475D01*
X180358929Y-54219623D01*
X180391956Y-54218000D01*
X181268044Y-54218000D01*
X181301071Y-54219623D01*
X181301071Y-54219623D01*
G37*
D25*
X180830000Y-55118000D03*
D21*
G36*
X183351071Y-54219623D02*
X183383781Y-54224475D01*
X183415857Y-54232509D01*
X183446991Y-54243649D01*
X183476884Y-54257787D01*
X183505247Y-54274787D01*
X183531807Y-54294485D01*
X183556308Y-54316692D01*
X183578515Y-54341193D01*
X183598213Y-54367753D01*
X183615213Y-54396116D01*
X183629351Y-54426009D01*
X183640491Y-54457143D01*
X183648525Y-54489219D01*
X183653377Y-54521929D01*
X183655000Y-54554956D01*
X183655000Y-55681044D01*
X183653377Y-55714071D01*
X183648525Y-55746781D01*
X183640491Y-55778857D01*
X183629351Y-55809991D01*
X183615213Y-55839884D01*
X183598213Y-55868247D01*
X183578515Y-55894807D01*
X183556308Y-55919308D01*
X183531807Y-55941515D01*
X183505247Y-55961213D01*
X183476884Y-55978213D01*
X183446991Y-55992351D01*
X183415857Y-56003491D01*
X183383781Y-56011525D01*
X183351071Y-56016377D01*
X183318044Y-56018000D01*
X182441956Y-56018000D01*
X182408929Y-56016377D01*
X182376219Y-56011525D01*
X182344143Y-56003491D01*
X182313009Y-55992351D01*
X182283116Y-55978213D01*
X182254753Y-55961213D01*
X182228193Y-55941515D01*
X182203692Y-55919308D01*
X182181485Y-55894807D01*
X182161787Y-55868247D01*
X182144787Y-55839884D01*
X182130649Y-55809991D01*
X182119509Y-55778857D01*
X182111475Y-55746781D01*
X182106623Y-55714071D01*
X182105000Y-55681044D01*
X182105000Y-54554956D01*
X182106623Y-54521929D01*
X182111475Y-54489219D01*
X182119509Y-54457143D01*
X182130649Y-54426009D01*
X182144787Y-54396116D01*
X182161787Y-54367753D01*
X182181485Y-54341193D01*
X182203692Y-54316692D01*
X182228193Y-54294485D01*
X182254753Y-54274787D01*
X182283116Y-54257787D01*
X182313009Y-54243649D01*
X182344143Y-54232509D01*
X182376219Y-54224475D01*
X182408929Y-54219623D01*
X182441956Y-54218000D01*
X183318044Y-54218000D01*
X183351071Y-54219623D01*
X183351071Y-54219623D01*
G37*
D25*
X182880000Y-55118000D03*
G04 #@! TD*
D21*
G04 #@! TO.C,R30*
G36*
X192867071Y-58664623D02*
X192899781Y-58669475D01*
X192931857Y-58677509D01*
X192962991Y-58688649D01*
X192992884Y-58702787D01*
X193021247Y-58719787D01*
X193047807Y-58739485D01*
X193072308Y-58761692D01*
X193094515Y-58786193D01*
X193114213Y-58812753D01*
X193131213Y-58841116D01*
X193145351Y-58871009D01*
X193156491Y-58902143D01*
X193164525Y-58934219D01*
X193169377Y-58966929D01*
X193171000Y-58999956D01*
X193171000Y-60126044D01*
X193169377Y-60159071D01*
X193164525Y-60191781D01*
X193156491Y-60223857D01*
X193145351Y-60254991D01*
X193131213Y-60284884D01*
X193114213Y-60313247D01*
X193094515Y-60339807D01*
X193072308Y-60364308D01*
X193047807Y-60386515D01*
X193021247Y-60406213D01*
X192992884Y-60423213D01*
X192962991Y-60437351D01*
X192931857Y-60448491D01*
X192899781Y-60456525D01*
X192867071Y-60461377D01*
X192834044Y-60463000D01*
X191957956Y-60463000D01*
X191924929Y-60461377D01*
X191892219Y-60456525D01*
X191860143Y-60448491D01*
X191829009Y-60437351D01*
X191799116Y-60423213D01*
X191770753Y-60406213D01*
X191744193Y-60386515D01*
X191719692Y-60364308D01*
X191697485Y-60339807D01*
X191677787Y-60313247D01*
X191660787Y-60284884D01*
X191646649Y-60254991D01*
X191635509Y-60223857D01*
X191627475Y-60191781D01*
X191622623Y-60159071D01*
X191621000Y-60126044D01*
X191621000Y-58999956D01*
X191622623Y-58966929D01*
X191627475Y-58934219D01*
X191635509Y-58902143D01*
X191646649Y-58871009D01*
X191660787Y-58841116D01*
X191677787Y-58812753D01*
X191697485Y-58786193D01*
X191719692Y-58761692D01*
X191744193Y-58739485D01*
X191770753Y-58719787D01*
X191799116Y-58702787D01*
X191829009Y-58688649D01*
X191860143Y-58677509D01*
X191892219Y-58669475D01*
X191924929Y-58664623D01*
X191957956Y-58663000D01*
X192834044Y-58663000D01*
X192867071Y-58664623D01*
X192867071Y-58664623D01*
G37*
D25*
X192396000Y-59563000D03*
D21*
G36*
X194917071Y-58664623D02*
X194949781Y-58669475D01*
X194981857Y-58677509D01*
X195012991Y-58688649D01*
X195042884Y-58702787D01*
X195071247Y-58719787D01*
X195097807Y-58739485D01*
X195122308Y-58761692D01*
X195144515Y-58786193D01*
X195164213Y-58812753D01*
X195181213Y-58841116D01*
X195195351Y-58871009D01*
X195206491Y-58902143D01*
X195214525Y-58934219D01*
X195219377Y-58966929D01*
X195221000Y-58999956D01*
X195221000Y-60126044D01*
X195219377Y-60159071D01*
X195214525Y-60191781D01*
X195206491Y-60223857D01*
X195195351Y-60254991D01*
X195181213Y-60284884D01*
X195164213Y-60313247D01*
X195144515Y-60339807D01*
X195122308Y-60364308D01*
X195097807Y-60386515D01*
X195071247Y-60406213D01*
X195042884Y-60423213D01*
X195012991Y-60437351D01*
X194981857Y-60448491D01*
X194949781Y-60456525D01*
X194917071Y-60461377D01*
X194884044Y-60463000D01*
X194007956Y-60463000D01*
X193974929Y-60461377D01*
X193942219Y-60456525D01*
X193910143Y-60448491D01*
X193879009Y-60437351D01*
X193849116Y-60423213D01*
X193820753Y-60406213D01*
X193794193Y-60386515D01*
X193769692Y-60364308D01*
X193747485Y-60339807D01*
X193727787Y-60313247D01*
X193710787Y-60284884D01*
X193696649Y-60254991D01*
X193685509Y-60223857D01*
X193677475Y-60191781D01*
X193672623Y-60159071D01*
X193671000Y-60126044D01*
X193671000Y-58999956D01*
X193672623Y-58966929D01*
X193677475Y-58934219D01*
X193685509Y-58902143D01*
X193696649Y-58871009D01*
X193710787Y-58841116D01*
X193727787Y-58812753D01*
X193747485Y-58786193D01*
X193769692Y-58761692D01*
X193794193Y-58739485D01*
X193820753Y-58719787D01*
X193849116Y-58702787D01*
X193879009Y-58688649D01*
X193910143Y-58677509D01*
X193942219Y-58669475D01*
X193974929Y-58664623D01*
X194007956Y-58663000D01*
X194884044Y-58663000D01*
X194917071Y-58664623D01*
X194917071Y-58664623D01*
G37*
D25*
X194446000Y-59563000D03*
G04 #@! TD*
D22*
G04 #@! TO.C,RANGE1*
X233553000Y-30353000D03*
X231013000Y-27813000D03*
X228473000Y-30353000D03*
G04 #@! TD*
D13*
G04 #@! TO.C,TIGHT*
X229728000Y-52202000D03*
X229728000Y-61002000D03*
D14*
X236728000Y-54102000D03*
X236728000Y-56602000D03*
X236728000Y-59102000D03*
G04 #@! TD*
D29*
G04 #@! TO.C,TRBLD1*
X180086000Y-83185000D03*
X172466000Y-83185000D03*
X180086000Y-85725000D03*
X172466000Y-85725000D03*
G04 #@! TD*
D14*
G04 #@! TO.C,TREBLE*
X236728000Y-73707000D03*
X236728000Y-71207000D03*
X236728000Y-68707000D03*
D13*
X229728000Y-75607000D03*
X229728000Y-66807000D03*
G04 #@! TD*
D30*
G04 #@! TO.C,U1*
X179103000Y-65913000D03*
X179103000Y-67183000D03*
X179103000Y-68453000D03*
X179103000Y-69723000D03*
X173703000Y-69723000D03*
X173703000Y-68453000D03*
X173703000Y-67183000D03*
X173703000Y-65913000D03*
G04 #@! TD*
D14*
G04 #@! TO.C,VOL*
X236728000Y-44497000D03*
X236728000Y-41997000D03*
X236728000Y-39497000D03*
D13*
X229728000Y-46397000D03*
X229728000Y-37597000D03*
G04 #@! TD*
D10*
G04 #@! TO.C,REF\002A\002A*
X252349000Y-27686000D03*
G04 #@! TD*
D21*
G04 #@! TO.C,R36*
G36*
X182843071Y-57648623D02*
X182875781Y-57653475D01*
X182907857Y-57661509D01*
X182938991Y-57672649D01*
X182968884Y-57686787D01*
X182997247Y-57703787D01*
X183023807Y-57723485D01*
X183048308Y-57745692D01*
X183070515Y-57770193D01*
X183090213Y-57796753D01*
X183107213Y-57825116D01*
X183121351Y-57855009D01*
X183132491Y-57886143D01*
X183140525Y-57918219D01*
X183145377Y-57950929D01*
X183147000Y-57983956D01*
X183147000Y-59110044D01*
X183145377Y-59143071D01*
X183140525Y-59175781D01*
X183132491Y-59207857D01*
X183121351Y-59238991D01*
X183107213Y-59268884D01*
X183090213Y-59297247D01*
X183070515Y-59323807D01*
X183048308Y-59348308D01*
X183023807Y-59370515D01*
X182997247Y-59390213D01*
X182968884Y-59407213D01*
X182938991Y-59421351D01*
X182907857Y-59432491D01*
X182875781Y-59440525D01*
X182843071Y-59445377D01*
X182810044Y-59447000D01*
X181933956Y-59447000D01*
X181900929Y-59445377D01*
X181868219Y-59440525D01*
X181836143Y-59432491D01*
X181805009Y-59421351D01*
X181775116Y-59407213D01*
X181746753Y-59390213D01*
X181720193Y-59370515D01*
X181695692Y-59348308D01*
X181673485Y-59323807D01*
X181653787Y-59297247D01*
X181636787Y-59268884D01*
X181622649Y-59238991D01*
X181611509Y-59207857D01*
X181603475Y-59175781D01*
X181598623Y-59143071D01*
X181597000Y-59110044D01*
X181597000Y-57983956D01*
X181598623Y-57950929D01*
X181603475Y-57918219D01*
X181611509Y-57886143D01*
X181622649Y-57855009D01*
X181636787Y-57825116D01*
X181653787Y-57796753D01*
X181673485Y-57770193D01*
X181695692Y-57745692D01*
X181720193Y-57723485D01*
X181746753Y-57703787D01*
X181775116Y-57686787D01*
X181805009Y-57672649D01*
X181836143Y-57661509D01*
X181868219Y-57653475D01*
X181900929Y-57648623D01*
X181933956Y-57647000D01*
X182810044Y-57647000D01*
X182843071Y-57648623D01*
X182843071Y-57648623D01*
G37*
D25*
X182372000Y-58547000D03*
D21*
G36*
X180793071Y-57648623D02*
X180825781Y-57653475D01*
X180857857Y-57661509D01*
X180888991Y-57672649D01*
X180918884Y-57686787D01*
X180947247Y-57703787D01*
X180973807Y-57723485D01*
X180998308Y-57745692D01*
X181020515Y-57770193D01*
X181040213Y-57796753D01*
X181057213Y-57825116D01*
X181071351Y-57855009D01*
X181082491Y-57886143D01*
X181090525Y-57918219D01*
X181095377Y-57950929D01*
X181097000Y-57983956D01*
X181097000Y-59110044D01*
X181095377Y-59143071D01*
X181090525Y-59175781D01*
X181082491Y-59207857D01*
X181071351Y-59238991D01*
X181057213Y-59268884D01*
X181040213Y-59297247D01*
X181020515Y-59323807D01*
X180998308Y-59348308D01*
X180973807Y-59370515D01*
X180947247Y-59390213D01*
X180918884Y-59407213D01*
X180888991Y-59421351D01*
X180857857Y-59432491D01*
X180825781Y-59440525D01*
X180793071Y-59445377D01*
X180760044Y-59447000D01*
X179883956Y-59447000D01*
X179850929Y-59445377D01*
X179818219Y-59440525D01*
X179786143Y-59432491D01*
X179755009Y-59421351D01*
X179725116Y-59407213D01*
X179696753Y-59390213D01*
X179670193Y-59370515D01*
X179645692Y-59348308D01*
X179623485Y-59323807D01*
X179603787Y-59297247D01*
X179586787Y-59268884D01*
X179572649Y-59238991D01*
X179561509Y-59207857D01*
X179553475Y-59175781D01*
X179548623Y-59143071D01*
X179547000Y-59110044D01*
X179547000Y-57983956D01*
X179548623Y-57950929D01*
X179553475Y-57918219D01*
X179561509Y-57886143D01*
X179572649Y-57855009D01*
X179586787Y-57825116D01*
X179603787Y-57796753D01*
X179623485Y-57770193D01*
X179645692Y-57745692D01*
X179670193Y-57723485D01*
X179696753Y-57703787D01*
X179725116Y-57686787D01*
X179755009Y-57672649D01*
X179786143Y-57661509D01*
X179818219Y-57653475D01*
X179850929Y-57648623D01*
X179883956Y-57647000D01*
X180760044Y-57647000D01*
X180793071Y-57648623D01*
X180793071Y-57648623D01*
G37*
D25*
X180322000Y-58547000D03*
G04 #@! TD*
M02*
