M48
INCH,TZ
T1C0.0157
T2C0.0236
T3C0.0315
T4C0.0354
T5C0.0394
T6C0.0900
%
G90
G05
T1
X18276Y-65700
X19400Y-68300
X20300Y-65700
X22150Y-51700
X22446Y-57750
X22550Y-61396
X22550Y-62204
X22902Y-63771
X23650Y-53879
X23650Y-55050
X23700Y-62300
X23700Y-62800
X24200Y-65800
X24287Y-57750
X24287Y-58250
X24300Y-59200
X24400Y-64504
X24600Y-56604
X24763Y-59800
X25750Y-60600
X25850Y-64650
X25863Y-62750
X25900Y-61781
X25900Y-62300
X26413Y-58750
X26700Y-60800
X26800Y-55850
X27396Y-59700
X27400Y-61100
X27400Y-62286
X28200Y-59700
X28700Y-62800
X28700Y-63600
X28800Y-61604
X29100Y-55850
X29137Y-56350
X29137Y-56819
X29193Y-62093
X29235Y-54142
X29800Y-65393
X29800Y-66200
X30100Y-51100
X30150Y-56300
X30504Y-64100
X30796Y-58600
X30900Y-48476
X30944Y-46100
X31263Y-56319
X31263Y-57350
X31300Y-64600
X31500Y-62500
X31604Y-58600
X32100Y-65300
X32700Y-65236
X32750Y-54400
X33000Y-63000
X33600Y-53500
X33700Y-58800
X33700Y-64650
X33822Y-57163
X34150Y-55400
X34152Y-53648
X34200Y-51500
X34200Y-52300
X34396Y-63100
X34600Y-64200
X34616Y-53234
X35000Y-64550
X35250Y-54500
X35500Y-56600
X35650Y-57714
X35694Y-60500
X35770Y-55620
X35950Y-64350
X36737Y-56150
X36750Y-55150
X36750Y-55650
X37150Y-63350
X37600Y-59000
X37600Y-60400
X37800Y-54500
X37800Y-64400
X37825Y-55775
X37850Y-65650
X37900Y-56800
X38404Y-60400
X38485Y-64900
X38502Y-64507
X38544Y-63750
X38586Y-57600
X38721Y-59846
X38722Y-56983
X38764Y-54219
X38800Y-56150
X38850Y-61150
X39200Y-54150
X39500Y-54450
X39550Y-56650
X39862Y-67500
X39911Y-54002
X40300Y-53400
X40396Y-56800
X40837Y-53287
X40950Y-70050
X41000Y-52204
X41150Y-53800
X41204Y-56800
X41300Y-62350
X41300Y-65850
X41350Y-59750
X41774Y-56700
X41894Y-54002
X41950Y-62800
X42000Y-61650
X42150Y-71300
X42300Y-63200
X42500Y-60700
X42900Y-61850
X43500Y-58050
X44012Y-53002
X44350Y-62750
X44350Y-65750
X44350Y-70800
X44750Y-63150
X44800Y-53900
X44850Y-59400
X44950Y-51050
X45000Y-51600
X45150Y-53329
X45300Y-54900
X45300Y-58700
X45550Y-55350
X45550Y-70950
X46194Y-53948
X46800Y-48650
X47501Y-51051
X47600Y-54950
X48000Y-59114
X48000Y-60286
X48500Y-55550
X48596Y-56800
X48819Y-49900
X49000Y-62850
X49404Y-56800
X49780Y-56213
X50050Y-49850
X51100Y-45700
X53096Y-47500
X53100Y-53100
X53100Y-54271
T2
X29500Y-49250
X29500Y-52250
X30500Y-49250
X30500Y-52250
X40300Y-68300
X40300Y-68800
X40300Y-69300
X38800Y-67000
X38800Y-67500
X38800Y-68000
T3
X23181Y-68800
X25150Y-68800
X32200Y-50000
X32200Y-51969
X45750Y-72500
X46750Y-73500
X47750Y-72500
X25250Y-66000
X26037Y-66000
X47000Y-43600
X48000Y-42600
X49000Y-43600
X22400Y-66000
X23187Y-66000
X32200Y-46700
X32200Y-48669
T4
X36450Y-57600
X36450Y-58600
X36450Y-59600
X36450Y-60600
X36450Y-61600
X36450Y-62600
X36450Y-63600
X36450Y-64600
X36450Y-65600
X39450Y-57600
X39450Y-58600
X39450Y-59600
X39450Y-60600
X39450Y-61600
X39450Y-62600
X39450Y-63600
X39450Y-64600
X39450Y-65600
X28000Y-64900
X28000Y-65900
X34400Y-61200
X35400Y-61200
X34400Y-59400
X35400Y-59400
X40600Y-58900
X40600Y-59900
X40600Y-60900
X40600Y-61900
X40600Y-62900
X40600Y-63900
X40600Y-64900
X40600Y-65900
X40600Y-66900
X43600Y-58900
X43600Y-59900
X43600Y-60900
X43600Y-61900
X43600Y-62900
X43600Y-63900
X43600Y-64900
X43600Y-65900
X43600Y-66900
X53200Y-49400
X54200Y-49400
X53200Y-51200
X54200Y-51200
X23100Y-49250
X23100Y-52250
X24100Y-49250
X24100Y-52250
X25100Y-49250
X25100Y-52250
X26100Y-49250
X26100Y-52250
X27100Y-49250
X27100Y-52250
X28100Y-49250
X28100Y-52250
T5
X49500Y-64500
X49500Y-65484
X49500Y-66469
X43800Y-68900
X43800Y-69900
X44800Y-68900
X44800Y-69900
X45800Y-68900
X45800Y-69900
X46800Y-68900
X46800Y-69900
X47800Y-68900
X47800Y-69900
X48800Y-68900
X48800Y-69900
X49800Y-68900
X49800Y-69900
X18750Y-50750
X19750Y-50750
X20750Y-50750
X21750Y-50750
X54700Y-53500
X54700Y-54500
X54700Y-55500
X49500Y-58750
X49500Y-59734
X49500Y-60719
X21000Y-48500
X21940Y-48158
X22879Y-47816
X23819Y-47474
X24759Y-47132
X25698Y-46790
X26638Y-46448
X27578Y-46106
X28518Y-45764
X29457Y-45422
X42500Y-50750
X42500Y-51750
X42500Y-52750
X42500Y-53750
X42500Y-54750
X42500Y-55750
X42500Y-56750
X43500Y-50750
X43500Y-51750
X43500Y-52750
X43500Y-53750
X43500Y-54750
X43500Y-55750
X43500Y-56750
X49500Y-47250
X49500Y-48234
X49500Y-49219
X49500Y-53000
X49500Y-53984
X49500Y-54969
X31250Y-45150
X50750Y-54750
X50750Y-55750
X50750Y-56750
X50750Y-57750
X50750Y-58750
X50750Y-59750
X50750Y-60750
X51750Y-54750
X51750Y-55750
X51750Y-56750
X51750Y-57750
X51750Y-58750
X51750Y-59750
X51750Y-60750
X50750Y-46750
X50750Y-47750
X50750Y-48750
X50750Y-49750
X50750Y-50750
X50750Y-51750
X50750Y-52750
X51750Y-46750
X51750Y-47750
X51750Y-48750
X51750Y-49750
X51750Y-50750
X51750Y-51750
X51750Y-52750
T6
X33000Y-61000
X33000Y-56000
T0
M30
