G04 #@! TF.GenerationSoftware,KiCad,Pcbnew,(5.0.0)*
G04 #@! TF.CreationDate,2018-10-02T15:30:55-05:00*
G04 #@! TF.ProjectId,FinalDistCircuit,46696E616C4469737443697263756974,rev?*
G04 #@! TF.SameCoordinates,Original*
G04 #@! TF.FileFunction,Soldermask,Bot*
G04 #@! TF.FilePolarity,Negative*
%FSLAX46Y46*%
G04 Gerber Fmt 4.6, Leading zero omitted, Abs format (unit mm)*
G04 Created by KiCad (PCBNEW (5.0.0)) date 10/02/18 15:30:55*
%MOMM*%
%LPD*%
G01*
G04 APERTURE LIST*
%ADD10C,4.400000*%
%ADD11C,2.200000*%
%ADD12R,2.000000X2.000000*%
%ADD13C,2.000000*%
%ADD14C,4.210000*%
%ADD15C,3.702000*%
%ADD16O,2.100000X2.100000*%
%ADD17R,2.100000X2.100000*%
%ADD18C,0.100000*%
%ADD19C,1.550000*%
%ADD20C,2.100000*%
%ADD21C,2.100000*%
%ADD22C,1.840000*%
%ADD23C,1.825000*%
%ADD24R,2.200000X2.200000*%
%ADD25O,1.900000X1.300000*%
%ADD26R,1.900000X1.300000*%
%ADD27C,1.600000*%
%ADD28R,1.950000X1.000000*%
%ADD29C,2.600000*%
G04 APERTURE END LIST*
D10*
G04 #@! TO.C,BASS*
X118730000Y-161930000D03*
X118730000Y-170730000D03*
D11*
X125730000Y-163830000D03*
X125730000Y-166330000D03*
X125730000Y-168830000D03*
G04 #@! TD*
D12*
G04 #@! TO.C,C10*
X63881000Y-174752000D03*
D13*
X58881000Y-174752000D03*
G04 #@! TD*
D14*
G04 #@! TO.C,9V1*
X83819999Y-154940000D03*
X83820000Y-142239999D03*
D15*
X77470000Y-137477500D03*
X77469999Y-159702500D03*
G04 #@! TD*
D16*
G04 #@! TO.C,Jack1*
X138938000Y-135890000D03*
X138938000Y-138430000D03*
D17*
X138938000Y-140970000D03*
G04 #@! TD*
D18*
G04 #@! TO.C,R28*
G36*
X62572071Y-161015623D02*
X62604781Y-161020475D01*
X62636857Y-161028509D01*
X62667991Y-161039649D01*
X62697884Y-161053787D01*
X62726247Y-161070787D01*
X62752807Y-161090485D01*
X62777308Y-161112692D01*
X62799515Y-161137193D01*
X62819213Y-161163753D01*
X62836213Y-161192116D01*
X62850351Y-161222009D01*
X62861491Y-161253143D01*
X62869525Y-161285219D01*
X62874377Y-161317929D01*
X62876000Y-161350956D01*
X62876000Y-162227044D01*
X62874377Y-162260071D01*
X62869525Y-162292781D01*
X62861491Y-162324857D01*
X62850351Y-162355991D01*
X62836213Y-162385884D01*
X62819213Y-162414247D01*
X62799515Y-162440807D01*
X62777308Y-162465308D01*
X62752807Y-162487515D01*
X62726247Y-162507213D01*
X62697884Y-162524213D01*
X62667991Y-162538351D01*
X62636857Y-162549491D01*
X62604781Y-162557525D01*
X62572071Y-162562377D01*
X62539044Y-162564000D01*
X61412956Y-162564000D01*
X61379929Y-162562377D01*
X61347219Y-162557525D01*
X61315143Y-162549491D01*
X61284009Y-162538351D01*
X61254116Y-162524213D01*
X61225753Y-162507213D01*
X61199193Y-162487515D01*
X61174692Y-162465308D01*
X61152485Y-162440807D01*
X61132787Y-162414247D01*
X61115787Y-162385884D01*
X61101649Y-162355991D01*
X61090509Y-162324857D01*
X61082475Y-162292781D01*
X61077623Y-162260071D01*
X61076000Y-162227044D01*
X61076000Y-161350956D01*
X61077623Y-161317929D01*
X61082475Y-161285219D01*
X61090509Y-161253143D01*
X61101649Y-161222009D01*
X61115787Y-161192116D01*
X61132787Y-161163753D01*
X61152485Y-161137193D01*
X61174692Y-161112692D01*
X61199193Y-161090485D01*
X61225753Y-161070787D01*
X61254116Y-161053787D01*
X61284009Y-161039649D01*
X61315143Y-161028509D01*
X61347219Y-161020475D01*
X61379929Y-161015623D01*
X61412956Y-161014000D01*
X62539044Y-161014000D01*
X62572071Y-161015623D01*
X62572071Y-161015623D01*
G37*
D19*
X61976000Y-161789000D03*
D18*
G36*
X62572071Y-163065623D02*
X62604781Y-163070475D01*
X62636857Y-163078509D01*
X62667991Y-163089649D01*
X62697884Y-163103787D01*
X62726247Y-163120787D01*
X62752807Y-163140485D01*
X62777308Y-163162692D01*
X62799515Y-163187193D01*
X62819213Y-163213753D01*
X62836213Y-163242116D01*
X62850351Y-163272009D01*
X62861491Y-163303143D01*
X62869525Y-163335219D01*
X62874377Y-163367929D01*
X62876000Y-163400956D01*
X62876000Y-164277044D01*
X62874377Y-164310071D01*
X62869525Y-164342781D01*
X62861491Y-164374857D01*
X62850351Y-164405991D01*
X62836213Y-164435884D01*
X62819213Y-164464247D01*
X62799515Y-164490807D01*
X62777308Y-164515308D01*
X62752807Y-164537515D01*
X62726247Y-164557213D01*
X62697884Y-164574213D01*
X62667991Y-164588351D01*
X62636857Y-164599491D01*
X62604781Y-164607525D01*
X62572071Y-164612377D01*
X62539044Y-164614000D01*
X61412956Y-164614000D01*
X61379929Y-164612377D01*
X61347219Y-164607525D01*
X61315143Y-164599491D01*
X61284009Y-164588351D01*
X61254116Y-164574213D01*
X61225753Y-164557213D01*
X61199193Y-164537515D01*
X61174692Y-164515308D01*
X61152485Y-164490807D01*
X61132787Y-164464247D01*
X61115787Y-164435884D01*
X61101649Y-164405991D01*
X61090509Y-164374857D01*
X61082475Y-164342781D01*
X61077623Y-164310071D01*
X61076000Y-164277044D01*
X61076000Y-163400956D01*
X61077623Y-163367929D01*
X61082475Y-163335219D01*
X61090509Y-163303143D01*
X61101649Y-163272009D01*
X61115787Y-163242116D01*
X61132787Y-163213753D01*
X61152485Y-163187193D01*
X61174692Y-163162692D01*
X61199193Y-163140485D01*
X61225753Y-163120787D01*
X61254116Y-163103787D01*
X61284009Y-163089649D01*
X61315143Y-163078509D01*
X61347219Y-163070475D01*
X61379929Y-163065623D01*
X61412956Y-163064000D01*
X62539044Y-163064000D01*
X62572071Y-163065623D01*
X62572071Y-163065623D01*
G37*
D19*
X61976000Y-163839000D03*
G04 #@! TD*
D18*
G04 #@! TO.C,R22*
G36*
X57873071Y-155173623D02*
X57905781Y-155178475D01*
X57937857Y-155186509D01*
X57968991Y-155197649D01*
X57998884Y-155211787D01*
X58027247Y-155228787D01*
X58053807Y-155248485D01*
X58078308Y-155270692D01*
X58100515Y-155295193D01*
X58120213Y-155321753D01*
X58137213Y-155350116D01*
X58151351Y-155380009D01*
X58162491Y-155411143D01*
X58170525Y-155443219D01*
X58175377Y-155475929D01*
X58177000Y-155508956D01*
X58177000Y-156385044D01*
X58175377Y-156418071D01*
X58170525Y-156450781D01*
X58162491Y-156482857D01*
X58151351Y-156513991D01*
X58137213Y-156543884D01*
X58120213Y-156572247D01*
X58100515Y-156598807D01*
X58078308Y-156623308D01*
X58053807Y-156645515D01*
X58027247Y-156665213D01*
X57998884Y-156682213D01*
X57968991Y-156696351D01*
X57937857Y-156707491D01*
X57905781Y-156715525D01*
X57873071Y-156720377D01*
X57840044Y-156722000D01*
X56713956Y-156722000D01*
X56680929Y-156720377D01*
X56648219Y-156715525D01*
X56616143Y-156707491D01*
X56585009Y-156696351D01*
X56555116Y-156682213D01*
X56526753Y-156665213D01*
X56500193Y-156645515D01*
X56475692Y-156623308D01*
X56453485Y-156598807D01*
X56433787Y-156572247D01*
X56416787Y-156543884D01*
X56402649Y-156513991D01*
X56391509Y-156482857D01*
X56383475Y-156450781D01*
X56378623Y-156418071D01*
X56377000Y-156385044D01*
X56377000Y-155508956D01*
X56378623Y-155475929D01*
X56383475Y-155443219D01*
X56391509Y-155411143D01*
X56402649Y-155380009D01*
X56416787Y-155350116D01*
X56433787Y-155321753D01*
X56453485Y-155295193D01*
X56475692Y-155270692D01*
X56500193Y-155248485D01*
X56526753Y-155228787D01*
X56555116Y-155211787D01*
X56585009Y-155197649D01*
X56616143Y-155186509D01*
X56648219Y-155178475D01*
X56680929Y-155173623D01*
X56713956Y-155172000D01*
X57840044Y-155172000D01*
X57873071Y-155173623D01*
X57873071Y-155173623D01*
G37*
D19*
X57277000Y-155947000D03*
D18*
G36*
X57873071Y-157223623D02*
X57905781Y-157228475D01*
X57937857Y-157236509D01*
X57968991Y-157247649D01*
X57998884Y-157261787D01*
X58027247Y-157278787D01*
X58053807Y-157298485D01*
X58078308Y-157320692D01*
X58100515Y-157345193D01*
X58120213Y-157371753D01*
X58137213Y-157400116D01*
X58151351Y-157430009D01*
X58162491Y-157461143D01*
X58170525Y-157493219D01*
X58175377Y-157525929D01*
X58177000Y-157558956D01*
X58177000Y-158435044D01*
X58175377Y-158468071D01*
X58170525Y-158500781D01*
X58162491Y-158532857D01*
X58151351Y-158563991D01*
X58137213Y-158593884D01*
X58120213Y-158622247D01*
X58100515Y-158648807D01*
X58078308Y-158673308D01*
X58053807Y-158695515D01*
X58027247Y-158715213D01*
X57998884Y-158732213D01*
X57968991Y-158746351D01*
X57937857Y-158757491D01*
X57905781Y-158765525D01*
X57873071Y-158770377D01*
X57840044Y-158772000D01*
X56713956Y-158772000D01*
X56680929Y-158770377D01*
X56648219Y-158765525D01*
X56616143Y-158757491D01*
X56585009Y-158746351D01*
X56555116Y-158732213D01*
X56526753Y-158715213D01*
X56500193Y-158695515D01*
X56475692Y-158673308D01*
X56453485Y-158648807D01*
X56433787Y-158622247D01*
X56416787Y-158593884D01*
X56402649Y-158563991D01*
X56391509Y-158532857D01*
X56383475Y-158500781D01*
X56378623Y-158468071D01*
X56377000Y-158435044D01*
X56377000Y-157558956D01*
X56378623Y-157525929D01*
X56383475Y-157493219D01*
X56391509Y-157461143D01*
X56402649Y-157430009D01*
X56416787Y-157400116D01*
X56433787Y-157371753D01*
X56453485Y-157345193D01*
X56475692Y-157320692D01*
X56500193Y-157298485D01*
X56526753Y-157278787D01*
X56555116Y-157261787D01*
X56585009Y-157247649D01*
X56616143Y-157236509D01*
X56648219Y-157228475D01*
X56680929Y-157223623D01*
X56713956Y-157222000D01*
X57840044Y-157222000D01*
X57873071Y-157223623D01*
X57873071Y-157223623D01*
G37*
D19*
X57277000Y-157997000D03*
G04 #@! TD*
D20*
G04 #@! TO.C,PickupInputs1*
X74821373Y-115371420D03*
D21*
X74821373Y-115371420D02*
X74821373Y-115371420D01*
D20*
X72434554Y-116240151D03*
D21*
X72434554Y-116240151D02*
X72434554Y-116240151D01*
D20*
X70047735Y-117108882D03*
D21*
X70047735Y-117108882D02*
X70047735Y-117108882D01*
D20*
X67660916Y-117977613D03*
D21*
X67660916Y-117977613D02*
X67660916Y-117977613D01*
D20*
X65274096Y-118846344D03*
D21*
X65274096Y-118846344D02*
X65274096Y-118846344D01*
D20*
X62887277Y-119715075D03*
D21*
X62887277Y-119715075D02*
X62887277Y-119715075D01*
D20*
X60500458Y-120583807D03*
D21*
X60500458Y-120583807D02*
X60500458Y-120583807D01*
D20*
X58113639Y-121452538D03*
D21*
X58113639Y-121452538D02*
X58113639Y-121452538D01*
D20*
X55726819Y-122321269D03*
D21*
X55726819Y-122321269D02*
X55726819Y-122321269D01*
D20*
X53340000Y-123190000D03*
D18*
G36*
X54685798Y-123817556D02*
X52712444Y-124535798D01*
X51994202Y-122562444D01*
X53967556Y-121844202D01*
X54685798Y-123817556D01*
X54685798Y-123817556D01*
G37*
G04 #@! TD*
D17*
G04 #@! TO.C,BridgeTonePot1*
X131445000Y-118745000D03*
D16*
X128905000Y-118745000D03*
X131445000Y-121285000D03*
X128905000Y-121285000D03*
X131445000Y-123825000D03*
X128905000Y-123825000D03*
X131445000Y-126365000D03*
X128905000Y-126365000D03*
X131445000Y-128905000D03*
X128905000Y-128905000D03*
X131445000Y-131445000D03*
X128905000Y-131445000D03*
X131445000Y-133985000D03*
X128905000Y-133985000D03*
G04 #@! TD*
G04 #@! TO.C,NeckTonePot1*
X128905000Y-154305000D03*
X131445000Y-154305000D03*
X128905000Y-151765000D03*
X131445000Y-151765000D03*
X128905000Y-149225000D03*
X131445000Y-149225000D03*
X128905000Y-146685000D03*
X131445000Y-146685000D03*
X128905000Y-144145000D03*
X131445000Y-144145000D03*
X128905000Y-141605000D03*
X131445000Y-141605000D03*
X128905000Y-139065000D03*
D17*
X131445000Y-139065000D03*
G04 #@! TD*
D13*
G04 #@! TO.C,6pdt2*
X110744000Y-169926000D03*
X103124000Y-169926000D03*
X110744000Y-167386000D03*
X103124000Y-167386000D03*
X110744000Y-164846000D03*
X103124000Y-164846000D03*
X110744000Y-162306000D03*
X103124000Y-162306000D03*
X110744000Y-159766000D03*
X103124000Y-159766000D03*
X110744000Y-157226000D03*
X103124000Y-157226000D03*
X110744000Y-154686000D03*
X103124000Y-154686000D03*
X110744000Y-152146000D03*
X103124000Y-152146000D03*
X110744000Y-149606000D03*
X103124000Y-149606000D03*
G04 #@! TD*
D22*
G04 #@! TO.C,TRANGAIN1*
X121285000Y-184150000D03*
X118745000Y-186690000D03*
X116205000Y-184150000D03*
G04 #@! TD*
D16*
G04 #@! TO.C,3WaySwitch1*
X55245000Y-128905000D03*
X52705000Y-128905000D03*
X50165000Y-128905000D03*
D17*
X47625000Y-128905000D03*
G04 #@! TD*
D13*
G04 #@! TO.C,4pdt1*
X58674000Y-132715000D03*
X61214000Y-132715000D03*
X63754000Y-132715000D03*
X66294000Y-132715000D03*
X68834000Y-132715000D03*
X71374000Y-132715000D03*
X71374000Y-125095000D03*
X68834000Y-125095000D03*
X66294000Y-125095000D03*
X63754000Y-125095000D03*
X61214000Y-125095000D03*
X58674000Y-125095000D03*
G04 #@! TD*
G04 #@! TO.C,6pdt1*
X92583000Y-146304000D03*
X100203000Y-146304000D03*
X92583000Y-148844000D03*
X100203000Y-148844000D03*
X92583000Y-151384000D03*
X100203000Y-151384000D03*
X92583000Y-153924000D03*
X100203000Y-153924000D03*
X92583000Y-156464000D03*
X100203000Y-156464000D03*
X92583000Y-159004000D03*
X100203000Y-159004000D03*
X92583000Y-161544000D03*
X100203000Y-161544000D03*
X92583000Y-164084000D03*
X100203000Y-164084000D03*
X92583000Y-166624000D03*
X100203000Y-166624000D03*
G04 #@! TD*
D16*
G04 #@! TO.C,BridgeVolPot1*
X107950000Y-144145000D03*
X110490000Y-144145000D03*
X107950000Y-141605000D03*
X110490000Y-141605000D03*
X107950000Y-139065000D03*
X110490000Y-139065000D03*
X107950000Y-136525000D03*
X110490000Y-136525000D03*
X107950000Y-133985000D03*
X110490000Y-133985000D03*
X107950000Y-131445000D03*
X110490000Y-131445000D03*
X107950000Y-128905000D03*
D17*
X110490000Y-128905000D03*
G04 #@! TD*
D13*
G04 #@! TO.C,C2*
X81788000Y-118618000D03*
X81788000Y-123618000D03*
G04 #@! TD*
D18*
G04 #@! TO.C,C3*
G36*
X92100207Y-137610542D02*
X92131287Y-137615152D01*
X92161766Y-137622787D01*
X92191350Y-137633372D01*
X92219754Y-137646806D01*
X92246704Y-137662959D01*
X92271942Y-137681677D01*
X92295223Y-137702777D01*
X92316323Y-137726058D01*
X92335041Y-137751296D01*
X92351194Y-137778246D01*
X92364628Y-137806650D01*
X92375213Y-137836234D01*
X92382848Y-137866713D01*
X92387458Y-137897793D01*
X92389000Y-137929176D01*
X92389000Y-139438824D01*
X92387458Y-139470207D01*
X92382848Y-139501287D01*
X92375213Y-139531766D01*
X92364628Y-139561350D01*
X92351194Y-139589754D01*
X92335041Y-139616704D01*
X92316323Y-139641942D01*
X92295223Y-139665223D01*
X92271942Y-139686323D01*
X92246704Y-139705041D01*
X92219754Y-139721194D01*
X92191350Y-139734628D01*
X92161766Y-139745213D01*
X92131287Y-139752848D01*
X92100207Y-139757458D01*
X92068824Y-139759000D01*
X90884176Y-139759000D01*
X90852793Y-139757458D01*
X90821713Y-139752848D01*
X90791234Y-139745213D01*
X90761650Y-139734628D01*
X90733246Y-139721194D01*
X90706296Y-139705041D01*
X90681058Y-139686323D01*
X90657777Y-139665223D01*
X90636677Y-139641942D01*
X90617959Y-139616704D01*
X90601806Y-139589754D01*
X90588372Y-139561350D01*
X90577787Y-139531766D01*
X90570152Y-139501287D01*
X90565542Y-139470207D01*
X90564000Y-139438824D01*
X90564000Y-137929176D01*
X90565542Y-137897793D01*
X90570152Y-137866713D01*
X90577787Y-137836234D01*
X90588372Y-137806650D01*
X90601806Y-137778246D01*
X90617959Y-137751296D01*
X90636677Y-137726058D01*
X90657777Y-137702777D01*
X90681058Y-137681677D01*
X90706296Y-137662959D01*
X90733246Y-137646806D01*
X90761650Y-137633372D01*
X90791234Y-137622787D01*
X90821713Y-137615152D01*
X90852793Y-137610542D01*
X90884176Y-137609000D01*
X92068824Y-137609000D01*
X92100207Y-137610542D01*
X92100207Y-137610542D01*
G37*
D23*
X91476500Y-138684000D03*
D18*
G36*
X95075207Y-137610542D02*
X95106287Y-137615152D01*
X95136766Y-137622787D01*
X95166350Y-137633372D01*
X95194754Y-137646806D01*
X95221704Y-137662959D01*
X95246942Y-137681677D01*
X95270223Y-137702777D01*
X95291323Y-137726058D01*
X95310041Y-137751296D01*
X95326194Y-137778246D01*
X95339628Y-137806650D01*
X95350213Y-137836234D01*
X95357848Y-137866713D01*
X95362458Y-137897793D01*
X95364000Y-137929176D01*
X95364000Y-139438824D01*
X95362458Y-139470207D01*
X95357848Y-139501287D01*
X95350213Y-139531766D01*
X95339628Y-139561350D01*
X95326194Y-139589754D01*
X95310041Y-139616704D01*
X95291323Y-139641942D01*
X95270223Y-139665223D01*
X95246942Y-139686323D01*
X95221704Y-139705041D01*
X95194754Y-139721194D01*
X95166350Y-139734628D01*
X95136766Y-139745213D01*
X95106287Y-139752848D01*
X95075207Y-139757458D01*
X95043824Y-139759000D01*
X93859176Y-139759000D01*
X93827793Y-139757458D01*
X93796713Y-139752848D01*
X93766234Y-139745213D01*
X93736650Y-139734628D01*
X93708246Y-139721194D01*
X93681296Y-139705041D01*
X93656058Y-139686323D01*
X93632777Y-139665223D01*
X93611677Y-139641942D01*
X93592959Y-139616704D01*
X93576806Y-139589754D01*
X93563372Y-139561350D01*
X93552787Y-139531766D01*
X93545152Y-139501287D01*
X93540542Y-139470207D01*
X93539000Y-139438824D01*
X93539000Y-137929176D01*
X93540542Y-137897793D01*
X93545152Y-137866713D01*
X93552787Y-137836234D01*
X93563372Y-137806650D01*
X93576806Y-137778246D01*
X93592959Y-137751296D01*
X93611677Y-137726058D01*
X93632777Y-137702777D01*
X93656058Y-137681677D01*
X93681296Y-137662959D01*
X93708246Y-137646806D01*
X93736650Y-137633372D01*
X93766234Y-137622787D01*
X93796713Y-137615152D01*
X93827793Y-137610542D01*
X93859176Y-137609000D01*
X95043824Y-137609000D01*
X95075207Y-137610542D01*
X95075207Y-137610542D01*
G37*
D23*
X94451500Y-138684000D03*
G04 #@! TD*
D13*
G04 #@! TO.C,C6*
X81788000Y-132000000D03*
X81788000Y-127000000D03*
G04 #@! TD*
D18*
G04 #@! TO.C,C7*
G36*
X98631207Y-145230542D02*
X98662287Y-145235152D01*
X98692766Y-145242787D01*
X98722350Y-145253372D01*
X98750754Y-145266806D01*
X98777704Y-145282959D01*
X98802942Y-145301677D01*
X98826223Y-145322777D01*
X98847323Y-145346058D01*
X98866041Y-145371296D01*
X98882194Y-145398246D01*
X98895628Y-145426650D01*
X98906213Y-145456234D01*
X98913848Y-145486713D01*
X98918458Y-145517793D01*
X98920000Y-145549176D01*
X98920000Y-147058824D01*
X98918458Y-147090207D01*
X98913848Y-147121287D01*
X98906213Y-147151766D01*
X98895628Y-147181350D01*
X98882194Y-147209754D01*
X98866041Y-147236704D01*
X98847323Y-147261942D01*
X98826223Y-147285223D01*
X98802942Y-147306323D01*
X98777704Y-147325041D01*
X98750754Y-147341194D01*
X98722350Y-147354628D01*
X98692766Y-147365213D01*
X98662287Y-147372848D01*
X98631207Y-147377458D01*
X98599824Y-147379000D01*
X97415176Y-147379000D01*
X97383793Y-147377458D01*
X97352713Y-147372848D01*
X97322234Y-147365213D01*
X97292650Y-147354628D01*
X97264246Y-147341194D01*
X97237296Y-147325041D01*
X97212058Y-147306323D01*
X97188777Y-147285223D01*
X97167677Y-147261942D01*
X97148959Y-147236704D01*
X97132806Y-147209754D01*
X97119372Y-147181350D01*
X97108787Y-147151766D01*
X97101152Y-147121287D01*
X97096542Y-147090207D01*
X97095000Y-147058824D01*
X97095000Y-145549176D01*
X97096542Y-145517793D01*
X97101152Y-145486713D01*
X97108787Y-145456234D01*
X97119372Y-145426650D01*
X97132806Y-145398246D01*
X97148959Y-145371296D01*
X97167677Y-145346058D01*
X97188777Y-145322777D01*
X97212058Y-145301677D01*
X97237296Y-145282959D01*
X97264246Y-145266806D01*
X97292650Y-145253372D01*
X97322234Y-145242787D01*
X97352713Y-145235152D01*
X97383793Y-145230542D01*
X97415176Y-145229000D01*
X98599824Y-145229000D01*
X98631207Y-145230542D01*
X98631207Y-145230542D01*
G37*
D23*
X98007500Y-146304000D03*
D18*
G36*
X95656207Y-145230542D02*
X95687287Y-145235152D01*
X95717766Y-145242787D01*
X95747350Y-145253372D01*
X95775754Y-145266806D01*
X95802704Y-145282959D01*
X95827942Y-145301677D01*
X95851223Y-145322777D01*
X95872323Y-145346058D01*
X95891041Y-145371296D01*
X95907194Y-145398246D01*
X95920628Y-145426650D01*
X95931213Y-145456234D01*
X95938848Y-145486713D01*
X95943458Y-145517793D01*
X95945000Y-145549176D01*
X95945000Y-147058824D01*
X95943458Y-147090207D01*
X95938848Y-147121287D01*
X95931213Y-147151766D01*
X95920628Y-147181350D01*
X95907194Y-147209754D01*
X95891041Y-147236704D01*
X95872323Y-147261942D01*
X95851223Y-147285223D01*
X95827942Y-147306323D01*
X95802704Y-147325041D01*
X95775754Y-147341194D01*
X95747350Y-147354628D01*
X95717766Y-147365213D01*
X95687287Y-147372848D01*
X95656207Y-147377458D01*
X95624824Y-147379000D01*
X94440176Y-147379000D01*
X94408793Y-147377458D01*
X94377713Y-147372848D01*
X94347234Y-147365213D01*
X94317650Y-147354628D01*
X94289246Y-147341194D01*
X94262296Y-147325041D01*
X94237058Y-147306323D01*
X94213777Y-147285223D01*
X94192677Y-147261942D01*
X94173959Y-147236704D01*
X94157806Y-147209754D01*
X94144372Y-147181350D01*
X94133787Y-147151766D01*
X94126152Y-147121287D01*
X94121542Y-147090207D01*
X94120000Y-147058824D01*
X94120000Y-145549176D01*
X94121542Y-145517793D01*
X94126152Y-145486713D01*
X94133787Y-145456234D01*
X94144372Y-145426650D01*
X94157806Y-145398246D01*
X94173959Y-145371296D01*
X94192677Y-145346058D01*
X94213777Y-145322777D01*
X94237058Y-145301677D01*
X94262296Y-145282959D01*
X94289246Y-145266806D01*
X94317650Y-145253372D01*
X94347234Y-145242787D01*
X94377713Y-145235152D01*
X94408793Y-145230542D01*
X94440176Y-145229000D01*
X95624824Y-145229000D01*
X95656207Y-145230542D01*
X95656207Y-145230542D01*
G37*
D23*
X95032500Y-146304000D03*
G04 #@! TD*
D18*
G04 #@! TO.C,C8*
G36*
X74122071Y-147945623D02*
X74154781Y-147950475D01*
X74186857Y-147958509D01*
X74217991Y-147969649D01*
X74247884Y-147983787D01*
X74276247Y-148000787D01*
X74302807Y-148020485D01*
X74327308Y-148042692D01*
X74349515Y-148067193D01*
X74369213Y-148093753D01*
X74386213Y-148122116D01*
X74400351Y-148152009D01*
X74411491Y-148183143D01*
X74419525Y-148215219D01*
X74424377Y-148247929D01*
X74426000Y-148280956D01*
X74426000Y-149407044D01*
X74424377Y-149440071D01*
X74419525Y-149472781D01*
X74411491Y-149504857D01*
X74400351Y-149535991D01*
X74386213Y-149565884D01*
X74369213Y-149594247D01*
X74349515Y-149620807D01*
X74327308Y-149645308D01*
X74302807Y-149667515D01*
X74276247Y-149687213D01*
X74247884Y-149704213D01*
X74217991Y-149718351D01*
X74186857Y-149729491D01*
X74154781Y-149737525D01*
X74122071Y-149742377D01*
X74089044Y-149744000D01*
X73212956Y-149744000D01*
X73179929Y-149742377D01*
X73147219Y-149737525D01*
X73115143Y-149729491D01*
X73084009Y-149718351D01*
X73054116Y-149704213D01*
X73025753Y-149687213D01*
X72999193Y-149667515D01*
X72974692Y-149645308D01*
X72952485Y-149620807D01*
X72932787Y-149594247D01*
X72915787Y-149565884D01*
X72901649Y-149535991D01*
X72890509Y-149504857D01*
X72882475Y-149472781D01*
X72877623Y-149440071D01*
X72876000Y-149407044D01*
X72876000Y-148280956D01*
X72877623Y-148247929D01*
X72882475Y-148215219D01*
X72890509Y-148183143D01*
X72901649Y-148152009D01*
X72915787Y-148122116D01*
X72932787Y-148093753D01*
X72952485Y-148067193D01*
X72974692Y-148042692D01*
X72999193Y-148020485D01*
X73025753Y-148000787D01*
X73054116Y-147983787D01*
X73084009Y-147969649D01*
X73115143Y-147958509D01*
X73147219Y-147950475D01*
X73179929Y-147945623D01*
X73212956Y-147944000D01*
X74089044Y-147944000D01*
X74122071Y-147945623D01*
X74122071Y-147945623D01*
G37*
D19*
X73651000Y-148844000D03*
D18*
G36*
X76172071Y-147945623D02*
X76204781Y-147950475D01*
X76236857Y-147958509D01*
X76267991Y-147969649D01*
X76297884Y-147983787D01*
X76326247Y-148000787D01*
X76352807Y-148020485D01*
X76377308Y-148042692D01*
X76399515Y-148067193D01*
X76419213Y-148093753D01*
X76436213Y-148122116D01*
X76450351Y-148152009D01*
X76461491Y-148183143D01*
X76469525Y-148215219D01*
X76474377Y-148247929D01*
X76476000Y-148280956D01*
X76476000Y-149407044D01*
X76474377Y-149440071D01*
X76469525Y-149472781D01*
X76461491Y-149504857D01*
X76450351Y-149535991D01*
X76436213Y-149565884D01*
X76419213Y-149594247D01*
X76399515Y-149620807D01*
X76377308Y-149645308D01*
X76352807Y-149667515D01*
X76326247Y-149687213D01*
X76297884Y-149704213D01*
X76267991Y-149718351D01*
X76236857Y-149729491D01*
X76204781Y-149737525D01*
X76172071Y-149742377D01*
X76139044Y-149744000D01*
X75262956Y-149744000D01*
X75229929Y-149742377D01*
X75197219Y-149737525D01*
X75165143Y-149729491D01*
X75134009Y-149718351D01*
X75104116Y-149704213D01*
X75075753Y-149687213D01*
X75049193Y-149667515D01*
X75024692Y-149645308D01*
X75002485Y-149620807D01*
X74982787Y-149594247D01*
X74965787Y-149565884D01*
X74951649Y-149535991D01*
X74940509Y-149504857D01*
X74932475Y-149472781D01*
X74927623Y-149440071D01*
X74926000Y-149407044D01*
X74926000Y-148280956D01*
X74927623Y-148247929D01*
X74932475Y-148215219D01*
X74940509Y-148183143D01*
X74951649Y-148152009D01*
X74965787Y-148122116D01*
X74982787Y-148093753D01*
X75002485Y-148067193D01*
X75024692Y-148042692D01*
X75049193Y-148020485D01*
X75075753Y-148000787D01*
X75104116Y-147983787D01*
X75134009Y-147969649D01*
X75165143Y-147958509D01*
X75197219Y-147950475D01*
X75229929Y-147945623D01*
X75262956Y-147944000D01*
X76139044Y-147944000D01*
X76172071Y-147945623D01*
X76172071Y-147945623D01*
G37*
D19*
X75701000Y-148844000D03*
G04 #@! TD*
D18*
G04 #@! TO.C,C11*
G36*
X58825207Y-148514042D02*
X58856287Y-148518652D01*
X58886766Y-148526287D01*
X58916350Y-148536872D01*
X58944754Y-148550306D01*
X58971704Y-148566459D01*
X58996942Y-148585177D01*
X59020223Y-148606277D01*
X59041323Y-148629558D01*
X59060041Y-148654796D01*
X59076194Y-148681746D01*
X59089628Y-148710150D01*
X59100213Y-148739734D01*
X59107848Y-148770213D01*
X59112458Y-148801293D01*
X59114000Y-148832676D01*
X59114000Y-150017324D01*
X59112458Y-150048707D01*
X59107848Y-150079787D01*
X59100213Y-150110266D01*
X59089628Y-150139850D01*
X59076194Y-150168254D01*
X59060041Y-150195204D01*
X59041323Y-150220442D01*
X59020223Y-150243723D01*
X58996942Y-150264823D01*
X58971704Y-150283541D01*
X58944754Y-150299694D01*
X58916350Y-150313128D01*
X58886766Y-150323713D01*
X58856287Y-150331348D01*
X58825207Y-150335958D01*
X58793824Y-150337500D01*
X57284176Y-150337500D01*
X57252793Y-150335958D01*
X57221713Y-150331348D01*
X57191234Y-150323713D01*
X57161650Y-150313128D01*
X57133246Y-150299694D01*
X57106296Y-150283541D01*
X57081058Y-150264823D01*
X57057777Y-150243723D01*
X57036677Y-150220442D01*
X57017959Y-150195204D01*
X57001806Y-150168254D01*
X56988372Y-150139850D01*
X56977787Y-150110266D01*
X56970152Y-150079787D01*
X56965542Y-150048707D01*
X56964000Y-150017324D01*
X56964000Y-148832676D01*
X56965542Y-148801293D01*
X56970152Y-148770213D01*
X56977787Y-148739734D01*
X56988372Y-148710150D01*
X57001806Y-148681746D01*
X57017959Y-148654796D01*
X57036677Y-148629558D01*
X57057777Y-148606277D01*
X57081058Y-148585177D01*
X57106296Y-148566459D01*
X57133246Y-148550306D01*
X57161650Y-148536872D01*
X57191234Y-148526287D01*
X57221713Y-148518652D01*
X57252793Y-148514042D01*
X57284176Y-148512500D01*
X58793824Y-148512500D01*
X58825207Y-148514042D01*
X58825207Y-148514042D01*
G37*
D23*
X58039000Y-149425000D03*
D18*
G36*
X58825207Y-151489042D02*
X58856287Y-151493652D01*
X58886766Y-151501287D01*
X58916350Y-151511872D01*
X58944754Y-151525306D01*
X58971704Y-151541459D01*
X58996942Y-151560177D01*
X59020223Y-151581277D01*
X59041323Y-151604558D01*
X59060041Y-151629796D01*
X59076194Y-151656746D01*
X59089628Y-151685150D01*
X59100213Y-151714734D01*
X59107848Y-151745213D01*
X59112458Y-151776293D01*
X59114000Y-151807676D01*
X59114000Y-152992324D01*
X59112458Y-153023707D01*
X59107848Y-153054787D01*
X59100213Y-153085266D01*
X59089628Y-153114850D01*
X59076194Y-153143254D01*
X59060041Y-153170204D01*
X59041323Y-153195442D01*
X59020223Y-153218723D01*
X58996942Y-153239823D01*
X58971704Y-153258541D01*
X58944754Y-153274694D01*
X58916350Y-153288128D01*
X58886766Y-153298713D01*
X58856287Y-153306348D01*
X58825207Y-153310958D01*
X58793824Y-153312500D01*
X57284176Y-153312500D01*
X57252793Y-153310958D01*
X57221713Y-153306348D01*
X57191234Y-153298713D01*
X57161650Y-153288128D01*
X57133246Y-153274694D01*
X57106296Y-153258541D01*
X57081058Y-153239823D01*
X57057777Y-153218723D01*
X57036677Y-153195442D01*
X57017959Y-153170204D01*
X57001806Y-153143254D01*
X56988372Y-153114850D01*
X56977787Y-153085266D01*
X56970152Y-153054787D01*
X56965542Y-153023707D01*
X56964000Y-152992324D01*
X56964000Y-151807676D01*
X56965542Y-151776293D01*
X56970152Y-151745213D01*
X56977787Y-151714734D01*
X56988372Y-151685150D01*
X57001806Y-151656746D01*
X57017959Y-151629796D01*
X57036677Y-151604558D01*
X57057777Y-151581277D01*
X57081058Y-151560177D01*
X57106296Y-151541459D01*
X57133246Y-151525306D01*
X57161650Y-151511872D01*
X57191234Y-151501287D01*
X57221713Y-151493652D01*
X57252793Y-151489042D01*
X57284176Y-151487500D01*
X58793824Y-151487500D01*
X58825207Y-151489042D01*
X58825207Y-151489042D01*
G37*
D23*
X58039000Y-152400000D03*
G04 #@! TD*
D18*
G04 #@! TO.C,C12*
G36*
X119860071Y-106289623D02*
X119892781Y-106294475D01*
X119924857Y-106302509D01*
X119955991Y-106313649D01*
X119985884Y-106327787D01*
X120014247Y-106344787D01*
X120040807Y-106364485D01*
X120065308Y-106386692D01*
X120087515Y-106411193D01*
X120107213Y-106437753D01*
X120124213Y-106466116D01*
X120138351Y-106496009D01*
X120149491Y-106527143D01*
X120157525Y-106559219D01*
X120162377Y-106591929D01*
X120164000Y-106624956D01*
X120164000Y-107751044D01*
X120162377Y-107784071D01*
X120157525Y-107816781D01*
X120149491Y-107848857D01*
X120138351Y-107879991D01*
X120124213Y-107909884D01*
X120107213Y-107938247D01*
X120087515Y-107964807D01*
X120065308Y-107989308D01*
X120040807Y-108011515D01*
X120014247Y-108031213D01*
X119985884Y-108048213D01*
X119955991Y-108062351D01*
X119924857Y-108073491D01*
X119892781Y-108081525D01*
X119860071Y-108086377D01*
X119827044Y-108088000D01*
X118950956Y-108088000D01*
X118917929Y-108086377D01*
X118885219Y-108081525D01*
X118853143Y-108073491D01*
X118822009Y-108062351D01*
X118792116Y-108048213D01*
X118763753Y-108031213D01*
X118737193Y-108011515D01*
X118712692Y-107989308D01*
X118690485Y-107964807D01*
X118670787Y-107938247D01*
X118653787Y-107909884D01*
X118639649Y-107879991D01*
X118628509Y-107848857D01*
X118620475Y-107816781D01*
X118615623Y-107784071D01*
X118614000Y-107751044D01*
X118614000Y-106624956D01*
X118615623Y-106591929D01*
X118620475Y-106559219D01*
X118628509Y-106527143D01*
X118639649Y-106496009D01*
X118653787Y-106466116D01*
X118670787Y-106437753D01*
X118690485Y-106411193D01*
X118712692Y-106386692D01*
X118737193Y-106364485D01*
X118763753Y-106344787D01*
X118792116Y-106327787D01*
X118822009Y-106313649D01*
X118853143Y-106302509D01*
X118885219Y-106294475D01*
X118917929Y-106289623D01*
X118950956Y-106288000D01*
X119827044Y-106288000D01*
X119860071Y-106289623D01*
X119860071Y-106289623D01*
G37*
D19*
X119389000Y-107188000D03*
D18*
G36*
X117810071Y-106289623D02*
X117842781Y-106294475D01*
X117874857Y-106302509D01*
X117905991Y-106313649D01*
X117935884Y-106327787D01*
X117964247Y-106344787D01*
X117990807Y-106364485D01*
X118015308Y-106386692D01*
X118037515Y-106411193D01*
X118057213Y-106437753D01*
X118074213Y-106466116D01*
X118088351Y-106496009D01*
X118099491Y-106527143D01*
X118107525Y-106559219D01*
X118112377Y-106591929D01*
X118114000Y-106624956D01*
X118114000Y-107751044D01*
X118112377Y-107784071D01*
X118107525Y-107816781D01*
X118099491Y-107848857D01*
X118088351Y-107879991D01*
X118074213Y-107909884D01*
X118057213Y-107938247D01*
X118037515Y-107964807D01*
X118015308Y-107989308D01*
X117990807Y-108011515D01*
X117964247Y-108031213D01*
X117935884Y-108048213D01*
X117905991Y-108062351D01*
X117874857Y-108073491D01*
X117842781Y-108081525D01*
X117810071Y-108086377D01*
X117777044Y-108088000D01*
X116900956Y-108088000D01*
X116867929Y-108086377D01*
X116835219Y-108081525D01*
X116803143Y-108073491D01*
X116772009Y-108062351D01*
X116742116Y-108048213D01*
X116713753Y-108031213D01*
X116687193Y-108011515D01*
X116662692Y-107989308D01*
X116640485Y-107964807D01*
X116620787Y-107938247D01*
X116603787Y-107909884D01*
X116589649Y-107879991D01*
X116578509Y-107848857D01*
X116570475Y-107816781D01*
X116565623Y-107784071D01*
X116564000Y-107751044D01*
X116564000Y-106624956D01*
X116565623Y-106591929D01*
X116570475Y-106559219D01*
X116578509Y-106527143D01*
X116589649Y-106496009D01*
X116603787Y-106466116D01*
X116620787Y-106437753D01*
X116640485Y-106411193D01*
X116662692Y-106386692D01*
X116687193Y-106364485D01*
X116713753Y-106344787D01*
X116742116Y-106327787D01*
X116772009Y-106313649D01*
X116803143Y-106302509D01*
X116835219Y-106294475D01*
X116867929Y-106289623D01*
X116900956Y-106288000D01*
X117777044Y-106288000D01*
X117810071Y-106289623D01*
X117810071Y-106289623D01*
G37*
D19*
X117339000Y-107188000D03*
G04 #@! TD*
D18*
G04 #@! TO.C,C13*
G36*
X126464071Y-156073623D02*
X126496781Y-156078475D01*
X126528857Y-156086509D01*
X126559991Y-156097649D01*
X126589884Y-156111787D01*
X126618247Y-156128787D01*
X126644807Y-156148485D01*
X126669308Y-156170692D01*
X126691515Y-156195193D01*
X126711213Y-156221753D01*
X126728213Y-156250116D01*
X126742351Y-156280009D01*
X126753491Y-156311143D01*
X126761525Y-156343219D01*
X126766377Y-156375929D01*
X126768000Y-156408956D01*
X126768000Y-157535044D01*
X126766377Y-157568071D01*
X126761525Y-157600781D01*
X126753491Y-157632857D01*
X126742351Y-157663991D01*
X126728213Y-157693884D01*
X126711213Y-157722247D01*
X126691515Y-157748807D01*
X126669308Y-157773308D01*
X126644807Y-157795515D01*
X126618247Y-157815213D01*
X126589884Y-157832213D01*
X126559991Y-157846351D01*
X126528857Y-157857491D01*
X126496781Y-157865525D01*
X126464071Y-157870377D01*
X126431044Y-157872000D01*
X125554956Y-157872000D01*
X125521929Y-157870377D01*
X125489219Y-157865525D01*
X125457143Y-157857491D01*
X125426009Y-157846351D01*
X125396116Y-157832213D01*
X125367753Y-157815213D01*
X125341193Y-157795515D01*
X125316692Y-157773308D01*
X125294485Y-157748807D01*
X125274787Y-157722247D01*
X125257787Y-157693884D01*
X125243649Y-157663991D01*
X125232509Y-157632857D01*
X125224475Y-157600781D01*
X125219623Y-157568071D01*
X125218000Y-157535044D01*
X125218000Y-156408956D01*
X125219623Y-156375929D01*
X125224475Y-156343219D01*
X125232509Y-156311143D01*
X125243649Y-156280009D01*
X125257787Y-156250116D01*
X125274787Y-156221753D01*
X125294485Y-156195193D01*
X125316692Y-156170692D01*
X125341193Y-156148485D01*
X125367753Y-156128787D01*
X125396116Y-156111787D01*
X125426009Y-156097649D01*
X125457143Y-156086509D01*
X125489219Y-156078475D01*
X125521929Y-156073623D01*
X125554956Y-156072000D01*
X126431044Y-156072000D01*
X126464071Y-156073623D01*
X126464071Y-156073623D01*
G37*
D19*
X125993000Y-156972000D03*
D18*
G36*
X124414071Y-156073623D02*
X124446781Y-156078475D01*
X124478857Y-156086509D01*
X124509991Y-156097649D01*
X124539884Y-156111787D01*
X124568247Y-156128787D01*
X124594807Y-156148485D01*
X124619308Y-156170692D01*
X124641515Y-156195193D01*
X124661213Y-156221753D01*
X124678213Y-156250116D01*
X124692351Y-156280009D01*
X124703491Y-156311143D01*
X124711525Y-156343219D01*
X124716377Y-156375929D01*
X124718000Y-156408956D01*
X124718000Y-157535044D01*
X124716377Y-157568071D01*
X124711525Y-157600781D01*
X124703491Y-157632857D01*
X124692351Y-157663991D01*
X124678213Y-157693884D01*
X124661213Y-157722247D01*
X124641515Y-157748807D01*
X124619308Y-157773308D01*
X124594807Y-157795515D01*
X124568247Y-157815213D01*
X124539884Y-157832213D01*
X124509991Y-157846351D01*
X124478857Y-157857491D01*
X124446781Y-157865525D01*
X124414071Y-157870377D01*
X124381044Y-157872000D01*
X123504956Y-157872000D01*
X123471929Y-157870377D01*
X123439219Y-157865525D01*
X123407143Y-157857491D01*
X123376009Y-157846351D01*
X123346116Y-157832213D01*
X123317753Y-157815213D01*
X123291193Y-157795515D01*
X123266692Y-157773308D01*
X123244485Y-157748807D01*
X123224787Y-157722247D01*
X123207787Y-157693884D01*
X123193649Y-157663991D01*
X123182509Y-157632857D01*
X123174475Y-157600781D01*
X123169623Y-157568071D01*
X123168000Y-157535044D01*
X123168000Y-156408956D01*
X123169623Y-156375929D01*
X123174475Y-156343219D01*
X123182509Y-156311143D01*
X123193649Y-156280009D01*
X123207787Y-156250116D01*
X123224787Y-156221753D01*
X123244485Y-156195193D01*
X123266692Y-156170692D01*
X123291193Y-156148485D01*
X123317753Y-156128787D01*
X123346116Y-156111787D01*
X123376009Y-156097649D01*
X123407143Y-156086509D01*
X123439219Y-156078475D01*
X123471929Y-156073623D01*
X123504956Y-156072000D01*
X124381044Y-156072000D01*
X124414071Y-156073623D01*
X124414071Y-156073623D01*
G37*
D19*
X123943000Y-156972000D03*
G04 #@! TD*
D12*
G04 #@! TO.C,C14*
X64135000Y-167640000D03*
D13*
X66135000Y-167640000D03*
G04 #@! TD*
D18*
G04 #@! TO.C,C15*
G36*
X72414207Y-135233042D02*
X72445287Y-135237652D01*
X72475766Y-135245287D01*
X72505350Y-135255872D01*
X72533754Y-135269306D01*
X72560704Y-135285459D01*
X72585942Y-135304177D01*
X72609223Y-135325277D01*
X72630323Y-135348558D01*
X72649041Y-135373796D01*
X72665194Y-135400746D01*
X72678628Y-135429150D01*
X72689213Y-135458734D01*
X72696848Y-135489213D01*
X72701458Y-135520293D01*
X72703000Y-135551676D01*
X72703000Y-136736324D01*
X72701458Y-136767707D01*
X72696848Y-136798787D01*
X72689213Y-136829266D01*
X72678628Y-136858850D01*
X72665194Y-136887254D01*
X72649041Y-136914204D01*
X72630323Y-136939442D01*
X72609223Y-136962723D01*
X72585942Y-136983823D01*
X72560704Y-137002541D01*
X72533754Y-137018694D01*
X72505350Y-137032128D01*
X72475766Y-137042713D01*
X72445287Y-137050348D01*
X72414207Y-137054958D01*
X72382824Y-137056500D01*
X70873176Y-137056500D01*
X70841793Y-137054958D01*
X70810713Y-137050348D01*
X70780234Y-137042713D01*
X70750650Y-137032128D01*
X70722246Y-137018694D01*
X70695296Y-137002541D01*
X70670058Y-136983823D01*
X70646777Y-136962723D01*
X70625677Y-136939442D01*
X70606959Y-136914204D01*
X70590806Y-136887254D01*
X70577372Y-136858850D01*
X70566787Y-136829266D01*
X70559152Y-136798787D01*
X70554542Y-136767707D01*
X70553000Y-136736324D01*
X70553000Y-135551676D01*
X70554542Y-135520293D01*
X70559152Y-135489213D01*
X70566787Y-135458734D01*
X70577372Y-135429150D01*
X70590806Y-135400746D01*
X70606959Y-135373796D01*
X70625677Y-135348558D01*
X70646777Y-135325277D01*
X70670058Y-135304177D01*
X70695296Y-135285459D01*
X70722246Y-135269306D01*
X70750650Y-135255872D01*
X70780234Y-135245287D01*
X70810713Y-135237652D01*
X70841793Y-135233042D01*
X70873176Y-135231500D01*
X72382824Y-135231500D01*
X72414207Y-135233042D01*
X72414207Y-135233042D01*
G37*
D23*
X71628000Y-136144000D03*
D18*
G36*
X72414207Y-138208042D02*
X72445287Y-138212652D01*
X72475766Y-138220287D01*
X72505350Y-138230872D01*
X72533754Y-138244306D01*
X72560704Y-138260459D01*
X72585942Y-138279177D01*
X72609223Y-138300277D01*
X72630323Y-138323558D01*
X72649041Y-138348796D01*
X72665194Y-138375746D01*
X72678628Y-138404150D01*
X72689213Y-138433734D01*
X72696848Y-138464213D01*
X72701458Y-138495293D01*
X72703000Y-138526676D01*
X72703000Y-139711324D01*
X72701458Y-139742707D01*
X72696848Y-139773787D01*
X72689213Y-139804266D01*
X72678628Y-139833850D01*
X72665194Y-139862254D01*
X72649041Y-139889204D01*
X72630323Y-139914442D01*
X72609223Y-139937723D01*
X72585942Y-139958823D01*
X72560704Y-139977541D01*
X72533754Y-139993694D01*
X72505350Y-140007128D01*
X72475766Y-140017713D01*
X72445287Y-140025348D01*
X72414207Y-140029958D01*
X72382824Y-140031500D01*
X70873176Y-140031500D01*
X70841793Y-140029958D01*
X70810713Y-140025348D01*
X70780234Y-140017713D01*
X70750650Y-140007128D01*
X70722246Y-139993694D01*
X70695296Y-139977541D01*
X70670058Y-139958823D01*
X70646777Y-139937723D01*
X70625677Y-139914442D01*
X70606959Y-139889204D01*
X70590806Y-139862254D01*
X70577372Y-139833850D01*
X70566787Y-139804266D01*
X70559152Y-139773787D01*
X70554542Y-139742707D01*
X70553000Y-139711324D01*
X70553000Y-138526676D01*
X70554542Y-138495293D01*
X70559152Y-138464213D01*
X70566787Y-138433734D01*
X70577372Y-138404150D01*
X70590806Y-138375746D01*
X70606959Y-138348796D01*
X70625677Y-138323558D01*
X70646777Y-138300277D01*
X70670058Y-138279177D01*
X70695296Y-138260459D01*
X70722246Y-138244306D01*
X70750650Y-138230872D01*
X70780234Y-138220287D01*
X70810713Y-138212652D01*
X70841793Y-138208042D01*
X70873176Y-138206500D01*
X72382824Y-138206500D01*
X72414207Y-138208042D01*
X72414207Y-138208042D01*
G37*
D23*
X71628000Y-139119000D03*
G04 #@! TD*
D18*
G04 #@! TO.C,C16*
G36*
X122706207Y-149239542D02*
X122737287Y-149244152D01*
X122767766Y-149251787D01*
X122797350Y-149262372D01*
X122825754Y-149275806D01*
X122852704Y-149291959D01*
X122877942Y-149310677D01*
X122901223Y-149331777D01*
X122922323Y-149355058D01*
X122941041Y-149380296D01*
X122957194Y-149407246D01*
X122970628Y-149435650D01*
X122981213Y-149465234D01*
X122988848Y-149495713D01*
X122993458Y-149526793D01*
X122995000Y-149558176D01*
X122995000Y-150742824D01*
X122993458Y-150774207D01*
X122988848Y-150805287D01*
X122981213Y-150835766D01*
X122970628Y-150865350D01*
X122957194Y-150893754D01*
X122941041Y-150920704D01*
X122922323Y-150945942D01*
X122901223Y-150969223D01*
X122877942Y-150990323D01*
X122852704Y-151009041D01*
X122825754Y-151025194D01*
X122797350Y-151038628D01*
X122767766Y-151049213D01*
X122737287Y-151056848D01*
X122706207Y-151061458D01*
X122674824Y-151063000D01*
X121165176Y-151063000D01*
X121133793Y-151061458D01*
X121102713Y-151056848D01*
X121072234Y-151049213D01*
X121042650Y-151038628D01*
X121014246Y-151025194D01*
X120987296Y-151009041D01*
X120962058Y-150990323D01*
X120938777Y-150969223D01*
X120917677Y-150945942D01*
X120898959Y-150920704D01*
X120882806Y-150893754D01*
X120869372Y-150865350D01*
X120858787Y-150835766D01*
X120851152Y-150805287D01*
X120846542Y-150774207D01*
X120845000Y-150742824D01*
X120845000Y-149558176D01*
X120846542Y-149526793D01*
X120851152Y-149495713D01*
X120858787Y-149465234D01*
X120869372Y-149435650D01*
X120882806Y-149407246D01*
X120898959Y-149380296D01*
X120917677Y-149355058D01*
X120938777Y-149331777D01*
X120962058Y-149310677D01*
X120987296Y-149291959D01*
X121014246Y-149275806D01*
X121042650Y-149262372D01*
X121072234Y-149251787D01*
X121102713Y-149244152D01*
X121133793Y-149239542D01*
X121165176Y-149238000D01*
X122674824Y-149238000D01*
X122706207Y-149239542D01*
X122706207Y-149239542D01*
G37*
D23*
X121920000Y-150150500D03*
D18*
G36*
X122706207Y-152214542D02*
X122737287Y-152219152D01*
X122767766Y-152226787D01*
X122797350Y-152237372D01*
X122825754Y-152250806D01*
X122852704Y-152266959D01*
X122877942Y-152285677D01*
X122901223Y-152306777D01*
X122922323Y-152330058D01*
X122941041Y-152355296D01*
X122957194Y-152382246D01*
X122970628Y-152410650D01*
X122981213Y-152440234D01*
X122988848Y-152470713D01*
X122993458Y-152501793D01*
X122995000Y-152533176D01*
X122995000Y-153717824D01*
X122993458Y-153749207D01*
X122988848Y-153780287D01*
X122981213Y-153810766D01*
X122970628Y-153840350D01*
X122957194Y-153868754D01*
X122941041Y-153895704D01*
X122922323Y-153920942D01*
X122901223Y-153944223D01*
X122877942Y-153965323D01*
X122852704Y-153984041D01*
X122825754Y-154000194D01*
X122797350Y-154013628D01*
X122767766Y-154024213D01*
X122737287Y-154031848D01*
X122706207Y-154036458D01*
X122674824Y-154038000D01*
X121165176Y-154038000D01*
X121133793Y-154036458D01*
X121102713Y-154031848D01*
X121072234Y-154024213D01*
X121042650Y-154013628D01*
X121014246Y-154000194D01*
X120987296Y-153984041D01*
X120962058Y-153965323D01*
X120938777Y-153944223D01*
X120917677Y-153920942D01*
X120898959Y-153895704D01*
X120882806Y-153868754D01*
X120869372Y-153840350D01*
X120858787Y-153810766D01*
X120851152Y-153780287D01*
X120846542Y-153749207D01*
X120845000Y-153717824D01*
X120845000Y-152533176D01*
X120846542Y-152501793D01*
X120851152Y-152470713D01*
X120858787Y-152440234D01*
X120869372Y-152410650D01*
X120882806Y-152382246D01*
X120898959Y-152355296D01*
X120917677Y-152330058D01*
X120938777Y-152306777D01*
X120962058Y-152285677D01*
X120987296Y-152266959D01*
X121014246Y-152250806D01*
X121042650Y-152237372D01*
X121072234Y-152226787D01*
X121102713Y-152219152D01*
X121133793Y-152214542D01*
X121165176Y-152213000D01*
X122674824Y-152213000D01*
X122706207Y-152214542D01*
X122706207Y-152214542D01*
G37*
D23*
X121920000Y-153125500D03*
G04 #@! TD*
D18*
G04 #@! TO.C,C17*
G36*
X70382207Y-154319542D02*
X70413287Y-154324152D01*
X70443766Y-154331787D01*
X70473350Y-154342372D01*
X70501754Y-154355806D01*
X70528704Y-154371959D01*
X70553942Y-154390677D01*
X70577223Y-154411777D01*
X70598323Y-154435058D01*
X70617041Y-154460296D01*
X70633194Y-154487246D01*
X70646628Y-154515650D01*
X70657213Y-154545234D01*
X70664848Y-154575713D01*
X70669458Y-154606793D01*
X70671000Y-154638176D01*
X70671000Y-155822824D01*
X70669458Y-155854207D01*
X70664848Y-155885287D01*
X70657213Y-155915766D01*
X70646628Y-155945350D01*
X70633194Y-155973754D01*
X70617041Y-156000704D01*
X70598323Y-156025942D01*
X70577223Y-156049223D01*
X70553942Y-156070323D01*
X70528704Y-156089041D01*
X70501754Y-156105194D01*
X70473350Y-156118628D01*
X70443766Y-156129213D01*
X70413287Y-156136848D01*
X70382207Y-156141458D01*
X70350824Y-156143000D01*
X68841176Y-156143000D01*
X68809793Y-156141458D01*
X68778713Y-156136848D01*
X68748234Y-156129213D01*
X68718650Y-156118628D01*
X68690246Y-156105194D01*
X68663296Y-156089041D01*
X68638058Y-156070323D01*
X68614777Y-156049223D01*
X68593677Y-156025942D01*
X68574959Y-156000704D01*
X68558806Y-155973754D01*
X68545372Y-155945350D01*
X68534787Y-155915766D01*
X68527152Y-155885287D01*
X68522542Y-155854207D01*
X68521000Y-155822824D01*
X68521000Y-154638176D01*
X68522542Y-154606793D01*
X68527152Y-154575713D01*
X68534787Y-154545234D01*
X68545372Y-154515650D01*
X68558806Y-154487246D01*
X68574959Y-154460296D01*
X68593677Y-154435058D01*
X68614777Y-154411777D01*
X68638058Y-154390677D01*
X68663296Y-154371959D01*
X68690246Y-154355806D01*
X68718650Y-154342372D01*
X68748234Y-154331787D01*
X68778713Y-154324152D01*
X68809793Y-154319542D01*
X68841176Y-154318000D01*
X70350824Y-154318000D01*
X70382207Y-154319542D01*
X70382207Y-154319542D01*
G37*
D23*
X69596000Y-155230500D03*
D18*
G36*
X70382207Y-157294542D02*
X70413287Y-157299152D01*
X70443766Y-157306787D01*
X70473350Y-157317372D01*
X70501754Y-157330806D01*
X70528704Y-157346959D01*
X70553942Y-157365677D01*
X70577223Y-157386777D01*
X70598323Y-157410058D01*
X70617041Y-157435296D01*
X70633194Y-157462246D01*
X70646628Y-157490650D01*
X70657213Y-157520234D01*
X70664848Y-157550713D01*
X70669458Y-157581793D01*
X70671000Y-157613176D01*
X70671000Y-158797824D01*
X70669458Y-158829207D01*
X70664848Y-158860287D01*
X70657213Y-158890766D01*
X70646628Y-158920350D01*
X70633194Y-158948754D01*
X70617041Y-158975704D01*
X70598323Y-159000942D01*
X70577223Y-159024223D01*
X70553942Y-159045323D01*
X70528704Y-159064041D01*
X70501754Y-159080194D01*
X70473350Y-159093628D01*
X70443766Y-159104213D01*
X70413287Y-159111848D01*
X70382207Y-159116458D01*
X70350824Y-159118000D01*
X68841176Y-159118000D01*
X68809793Y-159116458D01*
X68778713Y-159111848D01*
X68748234Y-159104213D01*
X68718650Y-159093628D01*
X68690246Y-159080194D01*
X68663296Y-159064041D01*
X68638058Y-159045323D01*
X68614777Y-159024223D01*
X68593677Y-159000942D01*
X68574959Y-158975704D01*
X68558806Y-158948754D01*
X68545372Y-158920350D01*
X68534787Y-158890766D01*
X68527152Y-158860287D01*
X68522542Y-158829207D01*
X68521000Y-158797824D01*
X68521000Y-157613176D01*
X68522542Y-157581793D01*
X68527152Y-157550713D01*
X68534787Y-157520234D01*
X68545372Y-157490650D01*
X68558806Y-157462246D01*
X68574959Y-157435296D01*
X68593677Y-157410058D01*
X68614777Y-157386777D01*
X68638058Y-157365677D01*
X68663296Y-157346959D01*
X68690246Y-157330806D01*
X68718650Y-157317372D01*
X68748234Y-157306787D01*
X68778713Y-157299152D01*
X68809793Y-157294542D01*
X68841176Y-157293000D01*
X70350824Y-157293000D01*
X70382207Y-157294542D01*
X70382207Y-157294542D01*
G37*
D23*
X69596000Y-158205500D03*
G04 #@! TD*
D13*
G04 #@! TO.C,C19*
X58896000Y-167640000D03*
D12*
X56896000Y-167640000D03*
G04 #@! TD*
D18*
G04 #@! TO.C,C20*
G36*
X60857207Y-138916042D02*
X60888287Y-138920652D01*
X60918766Y-138928287D01*
X60948350Y-138938872D01*
X60976754Y-138952306D01*
X61003704Y-138968459D01*
X61028942Y-138987177D01*
X61052223Y-139008277D01*
X61073323Y-139031558D01*
X61092041Y-139056796D01*
X61108194Y-139083746D01*
X61121628Y-139112150D01*
X61132213Y-139141734D01*
X61139848Y-139172213D01*
X61144458Y-139203293D01*
X61146000Y-139234676D01*
X61146000Y-140419324D01*
X61144458Y-140450707D01*
X61139848Y-140481787D01*
X61132213Y-140512266D01*
X61121628Y-140541850D01*
X61108194Y-140570254D01*
X61092041Y-140597204D01*
X61073323Y-140622442D01*
X61052223Y-140645723D01*
X61028942Y-140666823D01*
X61003704Y-140685541D01*
X60976754Y-140701694D01*
X60948350Y-140715128D01*
X60918766Y-140725713D01*
X60888287Y-140733348D01*
X60857207Y-140737958D01*
X60825824Y-140739500D01*
X59316176Y-140739500D01*
X59284793Y-140737958D01*
X59253713Y-140733348D01*
X59223234Y-140725713D01*
X59193650Y-140715128D01*
X59165246Y-140701694D01*
X59138296Y-140685541D01*
X59113058Y-140666823D01*
X59089777Y-140645723D01*
X59068677Y-140622442D01*
X59049959Y-140597204D01*
X59033806Y-140570254D01*
X59020372Y-140541850D01*
X59009787Y-140512266D01*
X59002152Y-140481787D01*
X58997542Y-140450707D01*
X58996000Y-140419324D01*
X58996000Y-139234676D01*
X58997542Y-139203293D01*
X59002152Y-139172213D01*
X59009787Y-139141734D01*
X59020372Y-139112150D01*
X59033806Y-139083746D01*
X59049959Y-139056796D01*
X59068677Y-139031558D01*
X59089777Y-139008277D01*
X59113058Y-138987177D01*
X59138296Y-138968459D01*
X59165246Y-138952306D01*
X59193650Y-138938872D01*
X59223234Y-138928287D01*
X59253713Y-138920652D01*
X59284793Y-138916042D01*
X59316176Y-138914500D01*
X60825824Y-138914500D01*
X60857207Y-138916042D01*
X60857207Y-138916042D01*
G37*
D23*
X60071000Y-139827000D03*
D18*
G36*
X60857207Y-135941042D02*
X60888287Y-135945652D01*
X60918766Y-135953287D01*
X60948350Y-135963872D01*
X60976754Y-135977306D01*
X61003704Y-135993459D01*
X61028942Y-136012177D01*
X61052223Y-136033277D01*
X61073323Y-136056558D01*
X61092041Y-136081796D01*
X61108194Y-136108746D01*
X61121628Y-136137150D01*
X61132213Y-136166734D01*
X61139848Y-136197213D01*
X61144458Y-136228293D01*
X61146000Y-136259676D01*
X61146000Y-137444324D01*
X61144458Y-137475707D01*
X61139848Y-137506787D01*
X61132213Y-137537266D01*
X61121628Y-137566850D01*
X61108194Y-137595254D01*
X61092041Y-137622204D01*
X61073323Y-137647442D01*
X61052223Y-137670723D01*
X61028942Y-137691823D01*
X61003704Y-137710541D01*
X60976754Y-137726694D01*
X60948350Y-137740128D01*
X60918766Y-137750713D01*
X60888287Y-137758348D01*
X60857207Y-137762958D01*
X60825824Y-137764500D01*
X59316176Y-137764500D01*
X59284793Y-137762958D01*
X59253713Y-137758348D01*
X59223234Y-137750713D01*
X59193650Y-137740128D01*
X59165246Y-137726694D01*
X59138296Y-137710541D01*
X59113058Y-137691823D01*
X59089777Y-137670723D01*
X59068677Y-137647442D01*
X59049959Y-137622204D01*
X59033806Y-137595254D01*
X59020372Y-137566850D01*
X59009787Y-137537266D01*
X59002152Y-137506787D01*
X58997542Y-137475707D01*
X58996000Y-137444324D01*
X58996000Y-136259676D01*
X58997542Y-136228293D01*
X59002152Y-136197213D01*
X59009787Y-136166734D01*
X59020372Y-136137150D01*
X59033806Y-136108746D01*
X59049959Y-136081796D01*
X59068677Y-136056558D01*
X59089777Y-136033277D01*
X59113058Y-136012177D01*
X59138296Y-135993459D01*
X59165246Y-135977306D01*
X59193650Y-135963872D01*
X59223234Y-135953287D01*
X59253713Y-135945652D01*
X59284793Y-135941042D01*
X59316176Y-135939500D01*
X60825824Y-135939500D01*
X60857207Y-135941042D01*
X60857207Y-135941042D01*
G37*
D23*
X60071000Y-136852000D03*
G04 #@! TD*
D18*
G04 #@! TO.C,C21*
G36*
X73494071Y-160779623D02*
X73526781Y-160784475D01*
X73558857Y-160792509D01*
X73589991Y-160803649D01*
X73619884Y-160817787D01*
X73648247Y-160834787D01*
X73674807Y-160854485D01*
X73699308Y-160876692D01*
X73721515Y-160901193D01*
X73741213Y-160927753D01*
X73758213Y-160956116D01*
X73772351Y-160986009D01*
X73783491Y-161017143D01*
X73791525Y-161049219D01*
X73796377Y-161081929D01*
X73798000Y-161114956D01*
X73798000Y-161991044D01*
X73796377Y-162024071D01*
X73791525Y-162056781D01*
X73783491Y-162088857D01*
X73772351Y-162119991D01*
X73758213Y-162149884D01*
X73741213Y-162178247D01*
X73721515Y-162204807D01*
X73699308Y-162229308D01*
X73674807Y-162251515D01*
X73648247Y-162271213D01*
X73619884Y-162288213D01*
X73589991Y-162302351D01*
X73558857Y-162313491D01*
X73526781Y-162321525D01*
X73494071Y-162326377D01*
X73461044Y-162328000D01*
X72334956Y-162328000D01*
X72301929Y-162326377D01*
X72269219Y-162321525D01*
X72237143Y-162313491D01*
X72206009Y-162302351D01*
X72176116Y-162288213D01*
X72147753Y-162271213D01*
X72121193Y-162251515D01*
X72096692Y-162229308D01*
X72074485Y-162204807D01*
X72054787Y-162178247D01*
X72037787Y-162149884D01*
X72023649Y-162119991D01*
X72012509Y-162088857D01*
X72004475Y-162056781D01*
X71999623Y-162024071D01*
X71998000Y-161991044D01*
X71998000Y-161114956D01*
X71999623Y-161081929D01*
X72004475Y-161049219D01*
X72012509Y-161017143D01*
X72023649Y-160986009D01*
X72037787Y-160956116D01*
X72054787Y-160927753D01*
X72074485Y-160901193D01*
X72096692Y-160876692D01*
X72121193Y-160854485D01*
X72147753Y-160834787D01*
X72176116Y-160817787D01*
X72206009Y-160803649D01*
X72237143Y-160792509D01*
X72269219Y-160784475D01*
X72301929Y-160779623D01*
X72334956Y-160778000D01*
X73461044Y-160778000D01*
X73494071Y-160779623D01*
X73494071Y-160779623D01*
G37*
D19*
X72898000Y-161553000D03*
D18*
G36*
X73494071Y-158729623D02*
X73526781Y-158734475D01*
X73558857Y-158742509D01*
X73589991Y-158753649D01*
X73619884Y-158767787D01*
X73648247Y-158784787D01*
X73674807Y-158804485D01*
X73699308Y-158826692D01*
X73721515Y-158851193D01*
X73741213Y-158877753D01*
X73758213Y-158906116D01*
X73772351Y-158936009D01*
X73783491Y-158967143D01*
X73791525Y-158999219D01*
X73796377Y-159031929D01*
X73798000Y-159064956D01*
X73798000Y-159941044D01*
X73796377Y-159974071D01*
X73791525Y-160006781D01*
X73783491Y-160038857D01*
X73772351Y-160069991D01*
X73758213Y-160099884D01*
X73741213Y-160128247D01*
X73721515Y-160154807D01*
X73699308Y-160179308D01*
X73674807Y-160201515D01*
X73648247Y-160221213D01*
X73619884Y-160238213D01*
X73589991Y-160252351D01*
X73558857Y-160263491D01*
X73526781Y-160271525D01*
X73494071Y-160276377D01*
X73461044Y-160278000D01*
X72334956Y-160278000D01*
X72301929Y-160276377D01*
X72269219Y-160271525D01*
X72237143Y-160263491D01*
X72206009Y-160252351D01*
X72176116Y-160238213D01*
X72147753Y-160221213D01*
X72121193Y-160201515D01*
X72096692Y-160179308D01*
X72074485Y-160154807D01*
X72054787Y-160128247D01*
X72037787Y-160099884D01*
X72023649Y-160069991D01*
X72012509Y-160038857D01*
X72004475Y-160006781D01*
X71999623Y-159974071D01*
X71998000Y-159941044D01*
X71998000Y-159064956D01*
X71999623Y-159031929D01*
X72004475Y-158999219D01*
X72012509Y-158967143D01*
X72023649Y-158936009D01*
X72037787Y-158906116D01*
X72054787Y-158877753D01*
X72074485Y-158851193D01*
X72096692Y-158826692D01*
X72121193Y-158804485D01*
X72147753Y-158784787D01*
X72176116Y-158767787D01*
X72206009Y-158753649D01*
X72237143Y-158742509D01*
X72269219Y-158734475D01*
X72301929Y-158729623D01*
X72334956Y-158728000D01*
X73461044Y-158728000D01*
X73494071Y-158729623D01*
X73494071Y-158729623D01*
G37*
D19*
X72898000Y-159503000D03*
G04 #@! TD*
D18*
G04 #@! TO.C,C24*
G36*
X97306207Y-159290042D02*
X97337287Y-159294652D01*
X97367766Y-159302287D01*
X97397350Y-159312872D01*
X97425754Y-159326306D01*
X97452704Y-159342459D01*
X97477942Y-159361177D01*
X97501223Y-159382277D01*
X97522323Y-159405558D01*
X97541041Y-159430796D01*
X97557194Y-159457746D01*
X97570628Y-159486150D01*
X97581213Y-159515734D01*
X97588848Y-159546213D01*
X97593458Y-159577293D01*
X97595000Y-159608676D01*
X97595000Y-160793324D01*
X97593458Y-160824707D01*
X97588848Y-160855787D01*
X97581213Y-160886266D01*
X97570628Y-160915850D01*
X97557194Y-160944254D01*
X97541041Y-160971204D01*
X97522323Y-160996442D01*
X97501223Y-161019723D01*
X97477942Y-161040823D01*
X97452704Y-161059541D01*
X97425754Y-161075694D01*
X97397350Y-161089128D01*
X97367766Y-161099713D01*
X97337287Y-161107348D01*
X97306207Y-161111958D01*
X97274824Y-161113500D01*
X95765176Y-161113500D01*
X95733793Y-161111958D01*
X95702713Y-161107348D01*
X95672234Y-161099713D01*
X95642650Y-161089128D01*
X95614246Y-161075694D01*
X95587296Y-161059541D01*
X95562058Y-161040823D01*
X95538777Y-161019723D01*
X95517677Y-160996442D01*
X95498959Y-160971204D01*
X95482806Y-160944254D01*
X95469372Y-160915850D01*
X95458787Y-160886266D01*
X95451152Y-160855787D01*
X95446542Y-160824707D01*
X95445000Y-160793324D01*
X95445000Y-159608676D01*
X95446542Y-159577293D01*
X95451152Y-159546213D01*
X95458787Y-159515734D01*
X95469372Y-159486150D01*
X95482806Y-159457746D01*
X95498959Y-159430796D01*
X95517677Y-159405558D01*
X95538777Y-159382277D01*
X95562058Y-159361177D01*
X95587296Y-159342459D01*
X95614246Y-159326306D01*
X95642650Y-159312872D01*
X95672234Y-159302287D01*
X95702713Y-159294652D01*
X95733793Y-159290042D01*
X95765176Y-159288500D01*
X97274824Y-159288500D01*
X97306207Y-159290042D01*
X97306207Y-159290042D01*
G37*
D23*
X96520000Y-160201000D03*
D18*
G36*
X97306207Y-156315042D02*
X97337287Y-156319652D01*
X97367766Y-156327287D01*
X97397350Y-156337872D01*
X97425754Y-156351306D01*
X97452704Y-156367459D01*
X97477942Y-156386177D01*
X97501223Y-156407277D01*
X97522323Y-156430558D01*
X97541041Y-156455796D01*
X97557194Y-156482746D01*
X97570628Y-156511150D01*
X97581213Y-156540734D01*
X97588848Y-156571213D01*
X97593458Y-156602293D01*
X97595000Y-156633676D01*
X97595000Y-157818324D01*
X97593458Y-157849707D01*
X97588848Y-157880787D01*
X97581213Y-157911266D01*
X97570628Y-157940850D01*
X97557194Y-157969254D01*
X97541041Y-157996204D01*
X97522323Y-158021442D01*
X97501223Y-158044723D01*
X97477942Y-158065823D01*
X97452704Y-158084541D01*
X97425754Y-158100694D01*
X97397350Y-158114128D01*
X97367766Y-158124713D01*
X97337287Y-158132348D01*
X97306207Y-158136958D01*
X97274824Y-158138500D01*
X95765176Y-158138500D01*
X95733793Y-158136958D01*
X95702713Y-158132348D01*
X95672234Y-158124713D01*
X95642650Y-158114128D01*
X95614246Y-158100694D01*
X95587296Y-158084541D01*
X95562058Y-158065823D01*
X95538777Y-158044723D01*
X95517677Y-158021442D01*
X95498959Y-157996204D01*
X95482806Y-157969254D01*
X95469372Y-157940850D01*
X95458787Y-157911266D01*
X95451152Y-157880787D01*
X95446542Y-157849707D01*
X95445000Y-157818324D01*
X95445000Y-156633676D01*
X95446542Y-156602293D01*
X95451152Y-156571213D01*
X95458787Y-156540734D01*
X95469372Y-156511150D01*
X95482806Y-156482746D01*
X95498959Y-156455796D01*
X95517677Y-156430558D01*
X95538777Y-156407277D01*
X95562058Y-156386177D01*
X95587296Y-156367459D01*
X95614246Y-156351306D01*
X95642650Y-156337872D01*
X95672234Y-156327287D01*
X95702713Y-156319652D01*
X95733793Y-156315042D01*
X95765176Y-156313500D01*
X97274824Y-156313500D01*
X97306207Y-156315042D01*
X97306207Y-156315042D01*
G37*
D23*
X96520000Y-157226000D03*
G04 #@! TD*
D18*
G04 #@! TO.C,C25*
G36*
X77050071Y-129020623D02*
X77082781Y-129025475D01*
X77114857Y-129033509D01*
X77145991Y-129044649D01*
X77175884Y-129058787D01*
X77204247Y-129075787D01*
X77230807Y-129095485D01*
X77255308Y-129117692D01*
X77277515Y-129142193D01*
X77297213Y-129168753D01*
X77314213Y-129197116D01*
X77328351Y-129227009D01*
X77339491Y-129258143D01*
X77347525Y-129290219D01*
X77352377Y-129322929D01*
X77354000Y-129355956D01*
X77354000Y-130232044D01*
X77352377Y-130265071D01*
X77347525Y-130297781D01*
X77339491Y-130329857D01*
X77328351Y-130360991D01*
X77314213Y-130390884D01*
X77297213Y-130419247D01*
X77277515Y-130445807D01*
X77255308Y-130470308D01*
X77230807Y-130492515D01*
X77204247Y-130512213D01*
X77175884Y-130529213D01*
X77145991Y-130543351D01*
X77114857Y-130554491D01*
X77082781Y-130562525D01*
X77050071Y-130567377D01*
X77017044Y-130569000D01*
X75890956Y-130569000D01*
X75857929Y-130567377D01*
X75825219Y-130562525D01*
X75793143Y-130554491D01*
X75762009Y-130543351D01*
X75732116Y-130529213D01*
X75703753Y-130512213D01*
X75677193Y-130492515D01*
X75652692Y-130470308D01*
X75630485Y-130445807D01*
X75610787Y-130419247D01*
X75593787Y-130390884D01*
X75579649Y-130360991D01*
X75568509Y-130329857D01*
X75560475Y-130297781D01*
X75555623Y-130265071D01*
X75554000Y-130232044D01*
X75554000Y-129355956D01*
X75555623Y-129322929D01*
X75560475Y-129290219D01*
X75568509Y-129258143D01*
X75579649Y-129227009D01*
X75593787Y-129197116D01*
X75610787Y-129168753D01*
X75630485Y-129142193D01*
X75652692Y-129117692D01*
X75677193Y-129095485D01*
X75703753Y-129075787D01*
X75732116Y-129058787D01*
X75762009Y-129044649D01*
X75793143Y-129033509D01*
X75825219Y-129025475D01*
X75857929Y-129020623D01*
X75890956Y-129019000D01*
X77017044Y-129019000D01*
X77050071Y-129020623D01*
X77050071Y-129020623D01*
G37*
D19*
X76454000Y-129794000D03*
D18*
G36*
X77050071Y-126970623D02*
X77082781Y-126975475D01*
X77114857Y-126983509D01*
X77145991Y-126994649D01*
X77175884Y-127008787D01*
X77204247Y-127025787D01*
X77230807Y-127045485D01*
X77255308Y-127067692D01*
X77277515Y-127092193D01*
X77297213Y-127118753D01*
X77314213Y-127147116D01*
X77328351Y-127177009D01*
X77339491Y-127208143D01*
X77347525Y-127240219D01*
X77352377Y-127272929D01*
X77354000Y-127305956D01*
X77354000Y-128182044D01*
X77352377Y-128215071D01*
X77347525Y-128247781D01*
X77339491Y-128279857D01*
X77328351Y-128310991D01*
X77314213Y-128340884D01*
X77297213Y-128369247D01*
X77277515Y-128395807D01*
X77255308Y-128420308D01*
X77230807Y-128442515D01*
X77204247Y-128462213D01*
X77175884Y-128479213D01*
X77145991Y-128493351D01*
X77114857Y-128504491D01*
X77082781Y-128512525D01*
X77050071Y-128517377D01*
X77017044Y-128519000D01*
X75890956Y-128519000D01*
X75857929Y-128517377D01*
X75825219Y-128512525D01*
X75793143Y-128504491D01*
X75762009Y-128493351D01*
X75732116Y-128479213D01*
X75703753Y-128462213D01*
X75677193Y-128442515D01*
X75652692Y-128420308D01*
X75630485Y-128395807D01*
X75610787Y-128369247D01*
X75593787Y-128340884D01*
X75579649Y-128310991D01*
X75568509Y-128279857D01*
X75560475Y-128247781D01*
X75555623Y-128215071D01*
X75554000Y-128182044D01*
X75554000Y-127305956D01*
X75555623Y-127272929D01*
X75560475Y-127240219D01*
X75568509Y-127208143D01*
X75579649Y-127177009D01*
X75593787Y-127147116D01*
X75610787Y-127118753D01*
X75630485Y-127092193D01*
X75652692Y-127067692D01*
X75677193Y-127045485D01*
X75703753Y-127025787D01*
X75732116Y-127008787D01*
X75762009Y-126994649D01*
X75793143Y-126983509D01*
X75825219Y-126975475D01*
X75857929Y-126970623D01*
X75890956Y-126969000D01*
X77017044Y-126969000D01*
X77050071Y-126970623D01*
X77050071Y-126970623D01*
G37*
D19*
X76454000Y-127744000D03*
G04 #@! TD*
D18*
G04 #@! TO.C,C26*
G36*
X83656071Y-137277623D02*
X83688781Y-137282475D01*
X83720857Y-137290509D01*
X83751991Y-137301649D01*
X83781884Y-137315787D01*
X83810247Y-137332787D01*
X83836807Y-137352485D01*
X83861308Y-137374692D01*
X83883515Y-137399193D01*
X83903213Y-137425753D01*
X83920213Y-137454116D01*
X83934351Y-137484009D01*
X83945491Y-137515143D01*
X83953525Y-137547219D01*
X83958377Y-137579929D01*
X83960000Y-137612956D01*
X83960000Y-138739044D01*
X83958377Y-138772071D01*
X83953525Y-138804781D01*
X83945491Y-138836857D01*
X83934351Y-138867991D01*
X83920213Y-138897884D01*
X83903213Y-138926247D01*
X83883515Y-138952807D01*
X83861308Y-138977308D01*
X83836807Y-138999515D01*
X83810247Y-139019213D01*
X83781884Y-139036213D01*
X83751991Y-139050351D01*
X83720857Y-139061491D01*
X83688781Y-139069525D01*
X83656071Y-139074377D01*
X83623044Y-139076000D01*
X82746956Y-139076000D01*
X82713929Y-139074377D01*
X82681219Y-139069525D01*
X82649143Y-139061491D01*
X82618009Y-139050351D01*
X82588116Y-139036213D01*
X82559753Y-139019213D01*
X82533193Y-138999515D01*
X82508692Y-138977308D01*
X82486485Y-138952807D01*
X82466787Y-138926247D01*
X82449787Y-138897884D01*
X82435649Y-138867991D01*
X82424509Y-138836857D01*
X82416475Y-138804781D01*
X82411623Y-138772071D01*
X82410000Y-138739044D01*
X82410000Y-137612956D01*
X82411623Y-137579929D01*
X82416475Y-137547219D01*
X82424509Y-137515143D01*
X82435649Y-137484009D01*
X82449787Y-137454116D01*
X82466787Y-137425753D01*
X82486485Y-137399193D01*
X82508692Y-137374692D01*
X82533193Y-137352485D01*
X82559753Y-137332787D01*
X82588116Y-137315787D01*
X82618009Y-137301649D01*
X82649143Y-137290509D01*
X82681219Y-137282475D01*
X82713929Y-137277623D01*
X82746956Y-137276000D01*
X83623044Y-137276000D01*
X83656071Y-137277623D01*
X83656071Y-137277623D01*
G37*
D19*
X83185000Y-138176000D03*
D18*
G36*
X85706071Y-137277623D02*
X85738781Y-137282475D01*
X85770857Y-137290509D01*
X85801991Y-137301649D01*
X85831884Y-137315787D01*
X85860247Y-137332787D01*
X85886807Y-137352485D01*
X85911308Y-137374692D01*
X85933515Y-137399193D01*
X85953213Y-137425753D01*
X85970213Y-137454116D01*
X85984351Y-137484009D01*
X85995491Y-137515143D01*
X86003525Y-137547219D01*
X86008377Y-137579929D01*
X86010000Y-137612956D01*
X86010000Y-138739044D01*
X86008377Y-138772071D01*
X86003525Y-138804781D01*
X85995491Y-138836857D01*
X85984351Y-138867991D01*
X85970213Y-138897884D01*
X85953213Y-138926247D01*
X85933515Y-138952807D01*
X85911308Y-138977308D01*
X85886807Y-138999515D01*
X85860247Y-139019213D01*
X85831884Y-139036213D01*
X85801991Y-139050351D01*
X85770857Y-139061491D01*
X85738781Y-139069525D01*
X85706071Y-139074377D01*
X85673044Y-139076000D01*
X84796956Y-139076000D01*
X84763929Y-139074377D01*
X84731219Y-139069525D01*
X84699143Y-139061491D01*
X84668009Y-139050351D01*
X84638116Y-139036213D01*
X84609753Y-139019213D01*
X84583193Y-138999515D01*
X84558692Y-138977308D01*
X84536485Y-138952807D01*
X84516787Y-138926247D01*
X84499787Y-138897884D01*
X84485649Y-138867991D01*
X84474509Y-138836857D01*
X84466475Y-138804781D01*
X84461623Y-138772071D01*
X84460000Y-138739044D01*
X84460000Y-137612956D01*
X84461623Y-137579929D01*
X84466475Y-137547219D01*
X84474509Y-137515143D01*
X84485649Y-137484009D01*
X84499787Y-137454116D01*
X84516787Y-137425753D01*
X84536485Y-137399193D01*
X84558692Y-137374692D01*
X84583193Y-137352485D01*
X84609753Y-137332787D01*
X84638116Y-137315787D01*
X84668009Y-137301649D01*
X84699143Y-137290509D01*
X84731219Y-137282475D01*
X84763929Y-137277623D01*
X84796956Y-137276000D01*
X85673044Y-137276000D01*
X85706071Y-137277623D01*
X85706071Y-137277623D01*
G37*
D19*
X85235000Y-138176000D03*
G04 #@! TD*
D18*
G04 #@! TO.C,C27*
G36*
X135660207Y-133963042D02*
X135691287Y-133967652D01*
X135721766Y-133975287D01*
X135751350Y-133985872D01*
X135779754Y-133999306D01*
X135806704Y-134015459D01*
X135831942Y-134034177D01*
X135855223Y-134055277D01*
X135876323Y-134078558D01*
X135895041Y-134103796D01*
X135911194Y-134130746D01*
X135924628Y-134159150D01*
X135935213Y-134188734D01*
X135942848Y-134219213D01*
X135947458Y-134250293D01*
X135949000Y-134281676D01*
X135949000Y-135466324D01*
X135947458Y-135497707D01*
X135942848Y-135528787D01*
X135935213Y-135559266D01*
X135924628Y-135588850D01*
X135911194Y-135617254D01*
X135895041Y-135644204D01*
X135876323Y-135669442D01*
X135855223Y-135692723D01*
X135831942Y-135713823D01*
X135806704Y-135732541D01*
X135779754Y-135748694D01*
X135751350Y-135762128D01*
X135721766Y-135772713D01*
X135691287Y-135780348D01*
X135660207Y-135784958D01*
X135628824Y-135786500D01*
X134119176Y-135786500D01*
X134087793Y-135784958D01*
X134056713Y-135780348D01*
X134026234Y-135772713D01*
X133996650Y-135762128D01*
X133968246Y-135748694D01*
X133941296Y-135732541D01*
X133916058Y-135713823D01*
X133892777Y-135692723D01*
X133871677Y-135669442D01*
X133852959Y-135644204D01*
X133836806Y-135617254D01*
X133823372Y-135588850D01*
X133812787Y-135559266D01*
X133805152Y-135528787D01*
X133800542Y-135497707D01*
X133799000Y-135466324D01*
X133799000Y-134281676D01*
X133800542Y-134250293D01*
X133805152Y-134219213D01*
X133812787Y-134188734D01*
X133823372Y-134159150D01*
X133836806Y-134130746D01*
X133852959Y-134103796D01*
X133871677Y-134078558D01*
X133892777Y-134055277D01*
X133916058Y-134034177D01*
X133941296Y-134015459D01*
X133968246Y-133999306D01*
X133996650Y-133985872D01*
X134026234Y-133975287D01*
X134056713Y-133967652D01*
X134087793Y-133963042D01*
X134119176Y-133961500D01*
X135628824Y-133961500D01*
X135660207Y-133963042D01*
X135660207Y-133963042D01*
G37*
D23*
X134874000Y-134874000D03*
D18*
G36*
X135660207Y-136938042D02*
X135691287Y-136942652D01*
X135721766Y-136950287D01*
X135751350Y-136960872D01*
X135779754Y-136974306D01*
X135806704Y-136990459D01*
X135831942Y-137009177D01*
X135855223Y-137030277D01*
X135876323Y-137053558D01*
X135895041Y-137078796D01*
X135911194Y-137105746D01*
X135924628Y-137134150D01*
X135935213Y-137163734D01*
X135942848Y-137194213D01*
X135947458Y-137225293D01*
X135949000Y-137256676D01*
X135949000Y-138441324D01*
X135947458Y-138472707D01*
X135942848Y-138503787D01*
X135935213Y-138534266D01*
X135924628Y-138563850D01*
X135911194Y-138592254D01*
X135895041Y-138619204D01*
X135876323Y-138644442D01*
X135855223Y-138667723D01*
X135831942Y-138688823D01*
X135806704Y-138707541D01*
X135779754Y-138723694D01*
X135751350Y-138737128D01*
X135721766Y-138747713D01*
X135691287Y-138755348D01*
X135660207Y-138759958D01*
X135628824Y-138761500D01*
X134119176Y-138761500D01*
X134087793Y-138759958D01*
X134056713Y-138755348D01*
X134026234Y-138747713D01*
X133996650Y-138737128D01*
X133968246Y-138723694D01*
X133941296Y-138707541D01*
X133916058Y-138688823D01*
X133892777Y-138667723D01*
X133871677Y-138644442D01*
X133852959Y-138619204D01*
X133836806Y-138592254D01*
X133823372Y-138563850D01*
X133812787Y-138534266D01*
X133805152Y-138503787D01*
X133800542Y-138472707D01*
X133799000Y-138441324D01*
X133799000Y-137256676D01*
X133800542Y-137225293D01*
X133805152Y-137194213D01*
X133812787Y-137163734D01*
X133823372Y-137134150D01*
X133836806Y-137105746D01*
X133852959Y-137078796D01*
X133871677Y-137053558D01*
X133892777Y-137030277D01*
X133916058Y-137009177D01*
X133941296Y-136990459D01*
X133968246Y-136974306D01*
X133996650Y-136960872D01*
X134026234Y-136950287D01*
X134056713Y-136942652D01*
X134087793Y-136938042D01*
X134119176Y-136936500D01*
X135628824Y-136936500D01*
X135660207Y-136938042D01*
X135660207Y-136938042D01*
G37*
D23*
X134874000Y-137849000D03*
G04 #@! TD*
D24*
G04 #@! TO.C,D1*
X87376000Y-150876000D03*
D11*
X89916000Y-150876000D03*
G04 #@! TD*
G04 #@! TO.C,D2*
X87376000Y-155448000D03*
D24*
X89916000Y-155448000D03*
G04 #@! TD*
G04 #@! TO.C,D3*
X71120000Y-164846000D03*
D11*
X71120000Y-167386000D03*
G04 #@! TD*
D24*
G04 #@! TO.C,D4*
X135128000Y-125476000D03*
D11*
X137668000Y-125476000D03*
G04 #@! TD*
G04 #@! TO.C,D5*
X135128000Y-130048000D03*
D24*
X137668000Y-130048000D03*
G04 #@! TD*
D17*
G04 #@! TO.C,GROUNDBRIDGE1*
X79375000Y-114681000D03*
G04 #@! TD*
G04 #@! TO.C,NeckVolumePot1*
X111252000Y-175006000D03*
D16*
X111252000Y-177546000D03*
X113792000Y-175006000D03*
X113792000Y-177546000D03*
X116332000Y-175006000D03*
X116332000Y-177546000D03*
X118872000Y-175006000D03*
X118872000Y-177546000D03*
X121412000Y-175006000D03*
X121412000Y-177546000D03*
X123952000Y-175006000D03*
X123952000Y-177546000D03*
X126492000Y-175006000D03*
X126492000Y-177546000D03*
G04 #@! TD*
D25*
G04 #@! TO.C,Q1*
X98552000Y-171450000D03*
X98552000Y-170180000D03*
D26*
X98552000Y-172720000D03*
G04 #@! TD*
G04 #@! TO.C,Q2*
X102362000Y-173482000D03*
D25*
X102362000Y-176022000D03*
X102362000Y-174752000D03*
G04 #@! TD*
D18*
G04 #@! TO.C,R1*
G36*
X104736071Y-129773623D02*
X104768781Y-129778475D01*
X104800857Y-129786509D01*
X104831991Y-129797649D01*
X104861884Y-129811787D01*
X104890247Y-129828787D01*
X104916807Y-129848485D01*
X104941308Y-129870692D01*
X104963515Y-129895193D01*
X104983213Y-129921753D01*
X105000213Y-129950116D01*
X105014351Y-129980009D01*
X105025491Y-130011143D01*
X105033525Y-130043219D01*
X105038377Y-130075929D01*
X105040000Y-130108956D01*
X105040000Y-130985044D01*
X105038377Y-131018071D01*
X105033525Y-131050781D01*
X105025491Y-131082857D01*
X105014351Y-131113991D01*
X105000213Y-131143884D01*
X104983213Y-131172247D01*
X104963515Y-131198807D01*
X104941308Y-131223308D01*
X104916807Y-131245515D01*
X104890247Y-131265213D01*
X104861884Y-131282213D01*
X104831991Y-131296351D01*
X104800857Y-131307491D01*
X104768781Y-131315525D01*
X104736071Y-131320377D01*
X104703044Y-131322000D01*
X103576956Y-131322000D01*
X103543929Y-131320377D01*
X103511219Y-131315525D01*
X103479143Y-131307491D01*
X103448009Y-131296351D01*
X103418116Y-131282213D01*
X103389753Y-131265213D01*
X103363193Y-131245515D01*
X103338692Y-131223308D01*
X103316485Y-131198807D01*
X103296787Y-131172247D01*
X103279787Y-131143884D01*
X103265649Y-131113991D01*
X103254509Y-131082857D01*
X103246475Y-131050781D01*
X103241623Y-131018071D01*
X103240000Y-130985044D01*
X103240000Y-130108956D01*
X103241623Y-130075929D01*
X103246475Y-130043219D01*
X103254509Y-130011143D01*
X103265649Y-129980009D01*
X103279787Y-129950116D01*
X103296787Y-129921753D01*
X103316485Y-129895193D01*
X103338692Y-129870692D01*
X103363193Y-129848485D01*
X103389753Y-129828787D01*
X103418116Y-129811787D01*
X103448009Y-129797649D01*
X103479143Y-129786509D01*
X103511219Y-129778475D01*
X103543929Y-129773623D01*
X103576956Y-129772000D01*
X104703044Y-129772000D01*
X104736071Y-129773623D01*
X104736071Y-129773623D01*
G37*
D19*
X104140000Y-130547000D03*
D18*
G36*
X104736071Y-131823623D02*
X104768781Y-131828475D01*
X104800857Y-131836509D01*
X104831991Y-131847649D01*
X104861884Y-131861787D01*
X104890247Y-131878787D01*
X104916807Y-131898485D01*
X104941308Y-131920692D01*
X104963515Y-131945193D01*
X104983213Y-131971753D01*
X105000213Y-132000116D01*
X105014351Y-132030009D01*
X105025491Y-132061143D01*
X105033525Y-132093219D01*
X105038377Y-132125929D01*
X105040000Y-132158956D01*
X105040000Y-133035044D01*
X105038377Y-133068071D01*
X105033525Y-133100781D01*
X105025491Y-133132857D01*
X105014351Y-133163991D01*
X105000213Y-133193884D01*
X104983213Y-133222247D01*
X104963515Y-133248807D01*
X104941308Y-133273308D01*
X104916807Y-133295515D01*
X104890247Y-133315213D01*
X104861884Y-133332213D01*
X104831991Y-133346351D01*
X104800857Y-133357491D01*
X104768781Y-133365525D01*
X104736071Y-133370377D01*
X104703044Y-133372000D01*
X103576956Y-133372000D01*
X103543929Y-133370377D01*
X103511219Y-133365525D01*
X103479143Y-133357491D01*
X103448009Y-133346351D01*
X103418116Y-133332213D01*
X103389753Y-133315213D01*
X103363193Y-133295515D01*
X103338692Y-133273308D01*
X103316485Y-133248807D01*
X103296787Y-133222247D01*
X103279787Y-133193884D01*
X103265649Y-133163991D01*
X103254509Y-133132857D01*
X103246475Y-133100781D01*
X103241623Y-133068071D01*
X103240000Y-133035044D01*
X103240000Y-132158956D01*
X103241623Y-132125929D01*
X103246475Y-132093219D01*
X103254509Y-132061143D01*
X103265649Y-132030009D01*
X103279787Y-132000116D01*
X103296787Y-131971753D01*
X103316485Y-131945193D01*
X103338692Y-131920692D01*
X103363193Y-131898485D01*
X103389753Y-131878787D01*
X103418116Y-131861787D01*
X103448009Y-131847649D01*
X103479143Y-131836509D01*
X103511219Y-131828475D01*
X103543929Y-131823623D01*
X103576956Y-131822000D01*
X104703044Y-131822000D01*
X104736071Y-131823623D01*
X104736071Y-131823623D01*
G37*
D19*
X104140000Y-132597000D03*
G04 #@! TD*
D18*
G04 #@! TO.C,R2*
G36*
X100783071Y-134737623D02*
X100815781Y-134742475D01*
X100847857Y-134750509D01*
X100878991Y-134761649D01*
X100908884Y-134775787D01*
X100937247Y-134792787D01*
X100963807Y-134812485D01*
X100988308Y-134834692D01*
X101010515Y-134859193D01*
X101030213Y-134885753D01*
X101047213Y-134914116D01*
X101061351Y-134944009D01*
X101072491Y-134975143D01*
X101080525Y-135007219D01*
X101085377Y-135039929D01*
X101087000Y-135072956D01*
X101087000Y-136199044D01*
X101085377Y-136232071D01*
X101080525Y-136264781D01*
X101072491Y-136296857D01*
X101061351Y-136327991D01*
X101047213Y-136357884D01*
X101030213Y-136386247D01*
X101010515Y-136412807D01*
X100988308Y-136437308D01*
X100963807Y-136459515D01*
X100937247Y-136479213D01*
X100908884Y-136496213D01*
X100878991Y-136510351D01*
X100847857Y-136521491D01*
X100815781Y-136529525D01*
X100783071Y-136534377D01*
X100750044Y-136536000D01*
X99873956Y-136536000D01*
X99840929Y-136534377D01*
X99808219Y-136529525D01*
X99776143Y-136521491D01*
X99745009Y-136510351D01*
X99715116Y-136496213D01*
X99686753Y-136479213D01*
X99660193Y-136459515D01*
X99635692Y-136437308D01*
X99613485Y-136412807D01*
X99593787Y-136386247D01*
X99576787Y-136357884D01*
X99562649Y-136327991D01*
X99551509Y-136296857D01*
X99543475Y-136264781D01*
X99538623Y-136232071D01*
X99537000Y-136199044D01*
X99537000Y-135072956D01*
X99538623Y-135039929D01*
X99543475Y-135007219D01*
X99551509Y-134975143D01*
X99562649Y-134944009D01*
X99576787Y-134914116D01*
X99593787Y-134885753D01*
X99613485Y-134859193D01*
X99635692Y-134834692D01*
X99660193Y-134812485D01*
X99686753Y-134792787D01*
X99715116Y-134775787D01*
X99745009Y-134761649D01*
X99776143Y-134750509D01*
X99808219Y-134742475D01*
X99840929Y-134737623D01*
X99873956Y-134736000D01*
X100750044Y-134736000D01*
X100783071Y-134737623D01*
X100783071Y-134737623D01*
G37*
D19*
X100312000Y-135636000D03*
D18*
G36*
X102833071Y-134737623D02*
X102865781Y-134742475D01*
X102897857Y-134750509D01*
X102928991Y-134761649D01*
X102958884Y-134775787D01*
X102987247Y-134792787D01*
X103013807Y-134812485D01*
X103038308Y-134834692D01*
X103060515Y-134859193D01*
X103080213Y-134885753D01*
X103097213Y-134914116D01*
X103111351Y-134944009D01*
X103122491Y-134975143D01*
X103130525Y-135007219D01*
X103135377Y-135039929D01*
X103137000Y-135072956D01*
X103137000Y-136199044D01*
X103135377Y-136232071D01*
X103130525Y-136264781D01*
X103122491Y-136296857D01*
X103111351Y-136327991D01*
X103097213Y-136357884D01*
X103080213Y-136386247D01*
X103060515Y-136412807D01*
X103038308Y-136437308D01*
X103013807Y-136459515D01*
X102987247Y-136479213D01*
X102958884Y-136496213D01*
X102928991Y-136510351D01*
X102897857Y-136521491D01*
X102865781Y-136529525D01*
X102833071Y-136534377D01*
X102800044Y-136536000D01*
X101923956Y-136536000D01*
X101890929Y-136534377D01*
X101858219Y-136529525D01*
X101826143Y-136521491D01*
X101795009Y-136510351D01*
X101765116Y-136496213D01*
X101736753Y-136479213D01*
X101710193Y-136459515D01*
X101685692Y-136437308D01*
X101663485Y-136412807D01*
X101643787Y-136386247D01*
X101626787Y-136357884D01*
X101612649Y-136327991D01*
X101601509Y-136296857D01*
X101593475Y-136264781D01*
X101588623Y-136232071D01*
X101587000Y-136199044D01*
X101587000Y-135072956D01*
X101588623Y-135039929D01*
X101593475Y-135007219D01*
X101601509Y-134975143D01*
X101612649Y-134944009D01*
X101626787Y-134914116D01*
X101643787Y-134885753D01*
X101663485Y-134859193D01*
X101685692Y-134834692D01*
X101710193Y-134812485D01*
X101736753Y-134792787D01*
X101765116Y-134775787D01*
X101795009Y-134761649D01*
X101826143Y-134750509D01*
X101858219Y-134742475D01*
X101890929Y-134737623D01*
X101923956Y-134736000D01*
X102800044Y-134736000D01*
X102833071Y-134737623D01*
X102833071Y-134737623D01*
G37*
D19*
X102362000Y-135636000D03*
G04 #@! TD*
D18*
G04 #@! TO.C,R4*
G36*
X73240071Y-129020623D02*
X73272781Y-129025475D01*
X73304857Y-129033509D01*
X73335991Y-129044649D01*
X73365884Y-129058787D01*
X73394247Y-129075787D01*
X73420807Y-129095485D01*
X73445308Y-129117692D01*
X73467515Y-129142193D01*
X73487213Y-129168753D01*
X73504213Y-129197116D01*
X73518351Y-129227009D01*
X73529491Y-129258143D01*
X73537525Y-129290219D01*
X73542377Y-129322929D01*
X73544000Y-129355956D01*
X73544000Y-130232044D01*
X73542377Y-130265071D01*
X73537525Y-130297781D01*
X73529491Y-130329857D01*
X73518351Y-130360991D01*
X73504213Y-130390884D01*
X73487213Y-130419247D01*
X73467515Y-130445807D01*
X73445308Y-130470308D01*
X73420807Y-130492515D01*
X73394247Y-130512213D01*
X73365884Y-130529213D01*
X73335991Y-130543351D01*
X73304857Y-130554491D01*
X73272781Y-130562525D01*
X73240071Y-130567377D01*
X73207044Y-130569000D01*
X72080956Y-130569000D01*
X72047929Y-130567377D01*
X72015219Y-130562525D01*
X71983143Y-130554491D01*
X71952009Y-130543351D01*
X71922116Y-130529213D01*
X71893753Y-130512213D01*
X71867193Y-130492515D01*
X71842692Y-130470308D01*
X71820485Y-130445807D01*
X71800787Y-130419247D01*
X71783787Y-130390884D01*
X71769649Y-130360991D01*
X71758509Y-130329857D01*
X71750475Y-130297781D01*
X71745623Y-130265071D01*
X71744000Y-130232044D01*
X71744000Y-129355956D01*
X71745623Y-129322929D01*
X71750475Y-129290219D01*
X71758509Y-129258143D01*
X71769649Y-129227009D01*
X71783787Y-129197116D01*
X71800787Y-129168753D01*
X71820485Y-129142193D01*
X71842692Y-129117692D01*
X71867193Y-129095485D01*
X71893753Y-129075787D01*
X71922116Y-129058787D01*
X71952009Y-129044649D01*
X71983143Y-129033509D01*
X72015219Y-129025475D01*
X72047929Y-129020623D01*
X72080956Y-129019000D01*
X73207044Y-129019000D01*
X73240071Y-129020623D01*
X73240071Y-129020623D01*
G37*
D19*
X72644000Y-129794000D03*
D18*
G36*
X73240071Y-126970623D02*
X73272781Y-126975475D01*
X73304857Y-126983509D01*
X73335991Y-126994649D01*
X73365884Y-127008787D01*
X73394247Y-127025787D01*
X73420807Y-127045485D01*
X73445308Y-127067692D01*
X73467515Y-127092193D01*
X73487213Y-127118753D01*
X73504213Y-127147116D01*
X73518351Y-127177009D01*
X73529491Y-127208143D01*
X73537525Y-127240219D01*
X73542377Y-127272929D01*
X73544000Y-127305956D01*
X73544000Y-128182044D01*
X73542377Y-128215071D01*
X73537525Y-128247781D01*
X73529491Y-128279857D01*
X73518351Y-128310991D01*
X73504213Y-128340884D01*
X73487213Y-128369247D01*
X73467515Y-128395807D01*
X73445308Y-128420308D01*
X73420807Y-128442515D01*
X73394247Y-128462213D01*
X73365884Y-128479213D01*
X73335991Y-128493351D01*
X73304857Y-128504491D01*
X73272781Y-128512525D01*
X73240071Y-128517377D01*
X73207044Y-128519000D01*
X72080956Y-128519000D01*
X72047929Y-128517377D01*
X72015219Y-128512525D01*
X71983143Y-128504491D01*
X71952009Y-128493351D01*
X71922116Y-128479213D01*
X71893753Y-128462213D01*
X71867193Y-128442515D01*
X71842692Y-128420308D01*
X71820485Y-128395807D01*
X71800787Y-128369247D01*
X71783787Y-128340884D01*
X71769649Y-128310991D01*
X71758509Y-128279857D01*
X71750475Y-128247781D01*
X71745623Y-128215071D01*
X71744000Y-128182044D01*
X71744000Y-127305956D01*
X71745623Y-127272929D01*
X71750475Y-127240219D01*
X71758509Y-127208143D01*
X71769649Y-127177009D01*
X71783787Y-127147116D01*
X71800787Y-127118753D01*
X71820485Y-127092193D01*
X71842692Y-127067692D01*
X71867193Y-127045485D01*
X71893753Y-127025787D01*
X71922116Y-127008787D01*
X71952009Y-126994649D01*
X71983143Y-126983509D01*
X72015219Y-126975475D01*
X72047929Y-126970623D01*
X72080956Y-126969000D01*
X73207044Y-126969000D01*
X73240071Y-126970623D01*
X73240071Y-126970623D01*
G37*
D19*
X72644000Y-127744000D03*
G04 #@! TD*
D18*
G04 #@! TO.C,R5*
G36*
X97490071Y-138801623D02*
X97522781Y-138806475D01*
X97554857Y-138814509D01*
X97585991Y-138825649D01*
X97615884Y-138839787D01*
X97644247Y-138856787D01*
X97670807Y-138876485D01*
X97695308Y-138898692D01*
X97717515Y-138923193D01*
X97737213Y-138949753D01*
X97754213Y-138978116D01*
X97768351Y-139008009D01*
X97779491Y-139039143D01*
X97787525Y-139071219D01*
X97792377Y-139103929D01*
X97794000Y-139136956D01*
X97794000Y-140263044D01*
X97792377Y-140296071D01*
X97787525Y-140328781D01*
X97779491Y-140360857D01*
X97768351Y-140391991D01*
X97754213Y-140421884D01*
X97737213Y-140450247D01*
X97717515Y-140476807D01*
X97695308Y-140501308D01*
X97670807Y-140523515D01*
X97644247Y-140543213D01*
X97615884Y-140560213D01*
X97585991Y-140574351D01*
X97554857Y-140585491D01*
X97522781Y-140593525D01*
X97490071Y-140598377D01*
X97457044Y-140600000D01*
X96580956Y-140600000D01*
X96547929Y-140598377D01*
X96515219Y-140593525D01*
X96483143Y-140585491D01*
X96452009Y-140574351D01*
X96422116Y-140560213D01*
X96393753Y-140543213D01*
X96367193Y-140523515D01*
X96342692Y-140501308D01*
X96320485Y-140476807D01*
X96300787Y-140450247D01*
X96283787Y-140421884D01*
X96269649Y-140391991D01*
X96258509Y-140360857D01*
X96250475Y-140328781D01*
X96245623Y-140296071D01*
X96244000Y-140263044D01*
X96244000Y-139136956D01*
X96245623Y-139103929D01*
X96250475Y-139071219D01*
X96258509Y-139039143D01*
X96269649Y-139008009D01*
X96283787Y-138978116D01*
X96300787Y-138949753D01*
X96320485Y-138923193D01*
X96342692Y-138898692D01*
X96367193Y-138876485D01*
X96393753Y-138856787D01*
X96422116Y-138839787D01*
X96452009Y-138825649D01*
X96483143Y-138814509D01*
X96515219Y-138806475D01*
X96547929Y-138801623D01*
X96580956Y-138800000D01*
X97457044Y-138800000D01*
X97490071Y-138801623D01*
X97490071Y-138801623D01*
G37*
D19*
X97019000Y-139700000D03*
D18*
G36*
X99540071Y-138801623D02*
X99572781Y-138806475D01*
X99604857Y-138814509D01*
X99635991Y-138825649D01*
X99665884Y-138839787D01*
X99694247Y-138856787D01*
X99720807Y-138876485D01*
X99745308Y-138898692D01*
X99767515Y-138923193D01*
X99787213Y-138949753D01*
X99804213Y-138978116D01*
X99818351Y-139008009D01*
X99829491Y-139039143D01*
X99837525Y-139071219D01*
X99842377Y-139103929D01*
X99844000Y-139136956D01*
X99844000Y-140263044D01*
X99842377Y-140296071D01*
X99837525Y-140328781D01*
X99829491Y-140360857D01*
X99818351Y-140391991D01*
X99804213Y-140421884D01*
X99787213Y-140450247D01*
X99767515Y-140476807D01*
X99745308Y-140501308D01*
X99720807Y-140523515D01*
X99694247Y-140543213D01*
X99665884Y-140560213D01*
X99635991Y-140574351D01*
X99604857Y-140585491D01*
X99572781Y-140593525D01*
X99540071Y-140598377D01*
X99507044Y-140600000D01*
X98630956Y-140600000D01*
X98597929Y-140598377D01*
X98565219Y-140593525D01*
X98533143Y-140585491D01*
X98502009Y-140574351D01*
X98472116Y-140560213D01*
X98443753Y-140543213D01*
X98417193Y-140523515D01*
X98392692Y-140501308D01*
X98370485Y-140476807D01*
X98350787Y-140450247D01*
X98333787Y-140421884D01*
X98319649Y-140391991D01*
X98308509Y-140360857D01*
X98300475Y-140328781D01*
X98295623Y-140296071D01*
X98294000Y-140263044D01*
X98294000Y-139136956D01*
X98295623Y-139103929D01*
X98300475Y-139071219D01*
X98308509Y-139039143D01*
X98319649Y-139008009D01*
X98333787Y-138978116D01*
X98350787Y-138949753D01*
X98370485Y-138923193D01*
X98392692Y-138898692D01*
X98417193Y-138876485D01*
X98443753Y-138856787D01*
X98472116Y-138839787D01*
X98502009Y-138825649D01*
X98533143Y-138814509D01*
X98565219Y-138806475D01*
X98597929Y-138801623D01*
X98630956Y-138800000D01*
X99507044Y-138800000D01*
X99540071Y-138801623D01*
X99540071Y-138801623D01*
G37*
D19*
X99069000Y-139700000D03*
G04 #@! TD*
D18*
G04 #@! TO.C,R6*
G36*
X108421071Y-153279623D02*
X108453781Y-153284475D01*
X108485857Y-153292509D01*
X108516991Y-153303649D01*
X108546884Y-153317787D01*
X108575247Y-153334787D01*
X108601807Y-153354485D01*
X108626308Y-153376692D01*
X108648515Y-153401193D01*
X108668213Y-153427753D01*
X108685213Y-153456116D01*
X108699351Y-153486009D01*
X108710491Y-153517143D01*
X108718525Y-153549219D01*
X108723377Y-153581929D01*
X108725000Y-153614956D01*
X108725000Y-154741044D01*
X108723377Y-154774071D01*
X108718525Y-154806781D01*
X108710491Y-154838857D01*
X108699351Y-154869991D01*
X108685213Y-154899884D01*
X108668213Y-154928247D01*
X108648515Y-154954807D01*
X108626308Y-154979308D01*
X108601807Y-155001515D01*
X108575247Y-155021213D01*
X108546884Y-155038213D01*
X108516991Y-155052351D01*
X108485857Y-155063491D01*
X108453781Y-155071525D01*
X108421071Y-155076377D01*
X108388044Y-155078000D01*
X107511956Y-155078000D01*
X107478929Y-155076377D01*
X107446219Y-155071525D01*
X107414143Y-155063491D01*
X107383009Y-155052351D01*
X107353116Y-155038213D01*
X107324753Y-155021213D01*
X107298193Y-155001515D01*
X107273692Y-154979308D01*
X107251485Y-154954807D01*
X107231787Y-154928247D01*
X107214787Y-154899884D01*
X107200649Y-154869991D01*
X107189509Y-154838857D01*
X107181475Y-154806781D01*
X107176623Y-154774071D01*
X107175000Y-154741044D01*
X107175000Y-153614956D01*
X107176623Y-153581929D01*
X107181475Y-153549219D01*
X107189509Y-153517143D01*
X107200649Y-153486009D01*
X107214787Y-153456116D01*
X107231787Y-153427753D01*
X107251485Y-153401193D01*
X107273692Y-153376692D01*
X107298193Y-153354485D01*
X107324753Y-153334787D01*
X107353116Y-153317787D01*
X107383009Y-153303649D01*
X107414143Y-153292509D01*
X107446219Y-153284475D01*
X107478929Y-153279623D01*
X107511956Y-153278000D01*
X108388044Y-153278000D01*
X108421071Y-153279623D01*
X108421071Y-153279623D01*
G37*
D19*
X107950000Y-154178000D03*
D18*
G36*
X106371071Y-153279623D02*
X106403781Y-153284475D01*
X106435857Y-153292509D01*
X106466991Y-153303649D01*
X106496884Y-153317787D01*
X106525247Y-153334787D01*
X106551807Y-153354485D01*
X106576308Y-153376692D01*
X106598515Y-153401193D01*
X106618213Y-153427753D01*
X106635213Y-153456116D01*
X106649351Y-153486009D01*
X106660491Y-153517143D01*
X106668525Y-153549219D01*
X106673377Y-153581929D01*
X106675000Y-153614956D01*
X106675000Y-154741044D01*
X106673377Y-154774071D01*
X106668525Y-154806781D01*
X106660491Y-154838857D01*
X106649351Y-154869991D01*
X106635213Y-154899884D01*
X106618213Y-154928247D01*
X106598515Y-154954807D01*
X106576308Y-154979308D01*
X106551807Y-155001515D01*
X106525247Y-155021213D01*
X106496884Y-155038213D01*
X106466991Y-155052351D01*
X106435857Y-155063491D01*
X106403781Y-155071525D01*
X106371071Y-155076377D01*
X106338044Y-155078000D01*
X105461956Y-155078000D01*
X105428929Y-155076377D01*
X105396219Y-155071525D01*
X105364143Y-155063491D01*
X105333009Y-155052351D01*
X105303116Y-155038213D01*
X105274753Y-155021213D01*
X105248193Y-155001515D01*
X105223692Y-154979308D01*
X105201485Y-154954807D01*
X105181787Y-154928247D01*
X105164787Y-154899884D01*
X105150649Y-154869991D01*
X105139509Y-154838857D01*
X105131475Y-154806781D01*
X105126623Y-154774071D01*
X105125000Y-154741044D01*
X105125000Y-153614956D01*
X105126623Y-153581929D01*
X105131475Y-153549219D01*
X105139509Y-153517143D01*
X105150649Y-153486009D01*
X105164787Y-153456116D01*
X105181787Y-153427753D01*
X105201485Y-153401193D01*
X105223692Y-153376692D01*
X105248193Y-153354485D01*
X105274753Y-153334787D01*
X105303116Y-153317787D01*
X105333009Y-153303649D01*
X105364143Y-153292509D01*
X105396219Y-153284475D01*
X105428929Y-153279623D01*
X105461956Y-153278000D01*
X106338044Y-153278000D01*
X106371071Y-153279623D01*
X106371071Y-153279623D01*
G37*
D19*
X105900000Y-154178000D03*
G04 #@! TD*
D18*
G04 #@! TO.C,R8*
G36*
X88854071Y-140325623D02*
X88886781Y-140330475D01*
X88918857Y-140338509D01*
X88949991Y-140349649D01*
X88979884Y-140363787D01*
X89008247Y-140380787D01*
X89034807Y-140400485D01*
X89059308Y-140422692D01*
X89081515Y-140447193D01*
X89101213Y-140473753D01*
X89118213Y-140502116D01*
X89132351Y-140532009D01*
X89143491Y-140563143D01*
X89151525Y-140595219D01*
X89156377Y-140627929D01*
X89158000Y-140660956D01*
X89158000Y-141787044D01*
X89156377Y-141820071D01*
X89151525Y-141852781D01*
X89143491Y-141884857D01*
X89132351Y-141915991D01*
X89118213Y-141945884D01*
X89101213Y-141974247D01*
X89081515Y-142000807D01*
X89059308Y-142025308D01*
X89034807Y-142047515D01*
X89008247Y-142067213D01*
X88979884Y-142084213D01*
X88949991Y-142098351D01*
X88918857Y-142109491D01*
X88886781Y-142117525D01*
X88854071Y-142122377D01*
X88821044Y-142124000D01*
X87944956Y-142124000D01*
X87911929Y-142122377D01*
X87879219Y-142117525D01*
X87847143Y-142109491D01*
X87816009Y-142098351D01*
X87786116Y-142084213D01*
X87757753Y-142067213D01*
X87731193Y-142047515D01*
X87706692Y-142025308D01*
X87684485Y-142000807D01*
X87664787Y-141974247D01*
X87647787Y-141945884D01*
X87633649Y-141915991D01*
X87622509Y-141884857D01*
X87614475Y-141852781D01*
X87609623Y-141820071D01*
X87608000Y-141787044D01*
X87608000Y-140660956D01*
X87609623Y-140627929D01*
X87614475Y-140595219D01*
X87622509Y-140563143D01*
X87633649Y-140532009D01*
X87647787Y-140502116D01*
X87664787Y-140473753D01*
X87684485Y-140447193D01*
X87706692Y-140422692D01*
X87731193Y-140400485D01*
X87757753Y-140380787D01*
X87786116Y-140363787D01*
X87816009Y-140349649D01*
X87847143Y-140338509D01*
X87879219Y-140330475D01*
X87911929Y-140325623D01*
X87944956Y-140324000D01*
X88821044Y-140324000D01*
X88854071Y-140325623D01*
X88854071Y-140325623D01*
G37*
D19*
X88383000Y-141224000D03*
D18*
G36*
X90904071Y-140325623D02*
X90936781Y-140330475D01*
X90968857Y-140338509D01*
X90999991Y-140349649D01*
X91029884Y-140363787D01*
X91058247Y-140380787D01*
X91084807Y-140400485D01*
X91109308Y-140422692D01*
X91131515Y-140447193D01*
X91151213Y-140473753D01*
X91168213Y-140502116D01*
X91182351Y-140532009D01*
X91193491Y-140563143D01*
X91201525Y-140595219D01*
X91206377Y-140627929D01*
X91208000Y-140660956D01*
X91208000Y-141787044D01*
X91206377Y-141820071D01*
X91201525Y-141852781D01*
X91193491Y-141884857D01*
X91182351Y-141915991D01*
X91168213Y-141945884D01*
X91151213Y-141974247D01*
X91131515Y-142000807D01*
X91109308Y-142025308D01*
X91084807Y-142047515D01*
X91058247Y-142067213D01*
X91029884Y-142084213D01*
X90999991Y-142098351D01*
X90968857Y-142109491D01*
X90936781Y-142117525D01*
X90904071Y-142122377D01*
X90871044Y-142124000D01*
X89994956Y-142124000D01*
X89961929Y-142122377D01*
X89929219Y-142117525D01*
X89897143Y-142109491D01*
X89866009Y-142098351D01*
X89836116Y-142084213D01*
X89807753Y-142067213D01*
X89781193Y-142047515D01*
X89756692Y-142025308D01*
X89734485Y-142000807D01*
X89714787Y-141974247D01*
X89697787Y-141945884D01*
X89683649Y-141915991D01*
X89672509Y-141884857D01*
X89664475Y-141852781D01*
X89659623Y-141820071D01*
X89658000Y-141787044D01*
X89658000Y-140660956D01*
X89659623Y-140627929D01*
X89664475Y-140595219D01*
X89672509Y-140563143D01*
X89683649Y-140532009D01*
X89697787Y-140502116D01*
X89714787Y-140473753D01*
X89734485Y-140447193D01*
X89756692Y-140422692D01*
X89781193Y-140400485D01*
X89807753Y-140380787D01*
X89836116Y-140363787D01*
X89866009Y-140349649D01*
X89897143Y-140338509D01*
X89929219Y-140330475D01*
X89961929Y-140325623D01*
X89994956Y-140324000D01*
X90871044Y-140324000D01*
X90904071Y-140325623D01*
X90904071Y-140325623D01*
G37*
D19*
X90433000Y-141224000D03*
G04 #@! TD*
D18*
G04 #@! TO.C,R10*
G36*
X105128071Y-143373623D02*
X105160781Y-143378475D01*
X105192857Y-143386509D01*
X105223991Y-143397649D01*
X105253884Y-143411787D01*
X105282247Y-143428787D01*
X105308807Y-143448485D01*
X105333308Y-143470692D01*
X105355515Y-143495193D01*
X105375213Y-143521753D01*
X105392213Y-143550116D01*
X105406351Y-143580009D01*
X105417491Y-143611143D01*
X105425525Y-143643219D01*
X105430377Y-143675929D01*
X105432000Y-143708956D01*
X105432000Y-144835044D01*
X105430377Y-144868071D01*
X105425525Y-144900781D01*
X105417491Y-144932857D01*
X105406351Y-144963991D01*
X105392213Y-144993884D01*
X105375213Y-145022247D01*
X105355515Y-145048807D01*
X105333308Y-145073308D01*
X105308807Y-145095515D01*
X105282247Y-145115213D01*
X105253884Y-145132213D01*
X105223991Y-145146351D01*
X105192857Y-145157491D01*
X105160781Y-145165525D01*
X105128071Y-145170377D01*
X105095044Y-145172000D01*
X104218956Y-145172000D01*
X104185929Y-145170377D01*
X104153219Y-145165525D01*
X104121143Y-145157491D01*
X104090009Y-145146351D01*
X104060116Y-145132213D01*
X104031753Y-145115213D01*
X104005193Y-145095515D01*
X103980692Y-145073308D01*
X103958485Y-145048807D01*
X103938787Y-145022247D01*
X103921787Y-144993884D01*
X103907649Y-144963991D01*
X103896509Y-144932857D01*
X103888475Y-144900781D01*
X103883623Y-144868071D01*
X103882000Y-144835044D01*
X103882000Y-143708956D01*
X103883623Y-143675929D01*
X103888475Y-143643219D01*
X103896509Y-143611143D01*
X103907649Y-143580009D01*
X103921787Y-143550116D01*
X103938787Y-143521753D01*
X103958485Y-143495193D01*
X103980692Y-143470692D01*
X104005193Y-143448485D01*
X104031753Y-143428787D01*
X104060116Y-143411787D01*
X104090009Y-143397649D01*
X104121143Y-143386509D01*
X104153219Y-143378475D01*
X104185929Y-143373623D01*
X104218956Y-143372000D01*
X105095044Y-143372000D01*
X105128071Y-143373623D01*
X105128071Y-143373623D01*
G37*
D19*
X104657000Y-144272000D03*
D18*
G36*
X103078071Y-143373623D02*
X103110781Y-143378475D01*
X103142857Y-143386509D01*
X103173991Y-143397649D01*
X103203884Y-143411787D01*
X103232247Y-143428787D01*
X103258807Y-143448485D01*
X103283308Y-143470692D01*
X103305515Y-143495193D01*
X103325213Y-143521753D01*
X103342213Y-143550116D01*
X103356351Y-143580009D01*
X103367491Y-143611143D01*
X103375525Y-143643219D01*
X103380377Y-143675929D01*
X103382000Y-143708956D01*
X103382000Y-144835044D01*
X103380377Y-144868071D01*
X103375525Y-144900781D01*
X103367491Y-144932857D01*
X103356351Y-144963991D01*
X103342213Y-144993884D01*
X103325213Y-145022247D01*
X103305515Y-145048807D01*
X103283308Y-145073308D01*
X103258807Y-145095515D01*
X103232247Y-145115213D01*
X103203884Y-145132213D01*
X103173991Y-145146351D01*
X103142857Y-145157491D01*
X103110781Y-145165525D01*
X103078071Y-145170377D01*
X103045044Y-145172000D01*
X102168956Y-145172000D01*
X102135929Y-145170377D01*
X102103219Y-145165525D01*
X102071143Y-145157491D01*
X102040009Y-145146351D01*
X102010116Y-145132213D01*
X101981753Y-145115213D01*
X101955193Y-145095515D01*
X101930692Y-145073308D01*
X101908485Y-145048807D01*
X101888787Y-145022247D01*
X101871787Y-144993884D01*
X101857649Y-144963991D01*
X101846509Y-144932857D01*
X101838475Y-144900781D01*
X101833623Y-144868071D01*
X101832000Y-144835044D01*
X101832000Y-143708956D01*
X101833623Y-143675929D01*
X101838475Y-143643219D01*
X101846509Y-143611143D01*
X101857649Y-143580009D01*
X101871787Y-143550116D01*
X101888787Y-143521753D01*
X101908485Y-143495193D01*
X101930692Y-143470692D01*
X101955193Y-143448485D01*
X101981753Y-143428787D01*
X102010116Y-143411787D01*
X102040009Y-143397649D01*
X102071143Y-143386509D01*
X102103219Y-143378475D01*
X102135929Y-143373623D01*
X102168956Y-143372000D01*
X103045044Y-143372000D01*
X103078071Y-143373623D01*
X103078071Y-143373623D01*
G37*
D19*
X102607000Y-144272000D03*
G04 #@! TD*
D18*
G04 #@! TO.C,R11*
G36*
X108421071Y-148961623D02*
X108453781Y-148966475D01*
X108485857Y-148974509D01*
X108516991Y-148985649D01*
X108546884Y-148999787D01*
X108575247Y-149016787D01*
X108601807Y-149036485D01*
X108626308Y-149058692D01*
X108648515Y-149083193D01*
X108668213Y-149109753D01*
X108685213Y-149138116D01*
X108699351Y-149168009D01*
X108710491Y-149199143D01*
X108718525Y-149231219D01*
X108723377Y-149263929D01*
X108725000Y-149296956D01*
X108725000Y-150423044D01*
X108723377Y-150456071D01*
X108718525Y-150488781D01*
X108710491Y-150520857D01*
X108699351Y-150551991D01*
X108685213Y-150581884D01*
X108668213Y-150610247D01*
X108648515Y-150636807D01*
X108626308Y-150661308D01*
X108601807Y-150683515D01*
X108575247Y-150703213D01*
X108546884Y-150720213D01*
X108516991Y-150734351D01*
X108485857Y-150745491D01*
X108453781Y-150753525D01*
X108421071Y-150758377D01*
X108388044Y-150760000D01*
X107511956Y-150760000D01*
X107478929Y-150758377D01*
X107446219Y-150753525D01*
X107414143Y-150745491D01*
X107383009Y-150734351D01*
X107353116Y-150720213D01*
X107324753Y-150703213D01*
X107298193Y-150683515D01*
X107273692Y-150661308D01*
X107251485Y-150636807D01*
X107231787Y-150610247D01*
X107214787Y-150581884D01*
X107200649Y-150551991D01*
X107189509Y-150520857D01*
X107181475Y-150488781D01*
X107176623Y-150456071D01*
X107175000Y-150423044D01*
X107175000Y-149296956D01*
X107176623Y-149263929D01*
X107181475Y-149231219D01*
X107189509Y-149199143D01*
X107200649Y-149168009D01*
X107214787Y-149138116D01*
X107231787Y-149109753D01*
X107251485Y-149083193D01*
X107273692Y-149058692D01*
X107298193Y-149036485D01*
X107324753Y-149016787D01*
X107353116Y-148999787D01*
X107383009Y-148985649D01*
X107414143Y-148974509D01*
X107446219Y-148966475D01*
X107478929Y-148961623D01*
X107511956Y-148960000D01*
X108388044Y-148960000D01*
X108421071Y-148961623D01*
X108421071Y-148961623D01*
G37*
D19*
X107950000Y-149860000D03*
D18*
G36*
X106371071Y-148961623D02*
X106403781Y-148966475D01*
X106435857Y-148974509D01*
X106466991Y-148985649D01*
X106496884Y-148999787D01*
X106525247Y-149016787D01*
X106551807Y-149036485D01*
X106576308Y-149058692D01*
X106598515Y-149083193D01*
X106618213Y-149109753D01*
X106635213Y-149138116D01*
X106649351Y-149168009D01*
X106660491Y-149199143D01*
X106668525Y-149231219D01*
X106673377Y-149263929D01*
X106675000Y-149296956D01*
X106675000Y-150423044D01*
X106673377Y-150456071D01*
X106668525Y-150488781D01*
X106660491Y-150520857D01*
X106649351Y-150551991D01*
X106635213Y-150581884D01*
X106618213Y-150610247D01*
X106598515Y-150636807D01*
X106576308Y-150661308D01*
X106551807Y-150683515D01*
X106525247Y-150703213D01*
X106496884Y-150720213D01*
X106466991Y-150734351D01*
X106435857Y-150745491D01*
X106403781Y-150753525D01*
X106371071Y-150758377D01*
X106338044Y-150760000D01*
X105461956Y-150760000D01*
X105428929Y-150758377D01*
X105396219Y-150753525D01*
X105364143Y-150745491D01*
X105333009Y-150734351D01*
X105303116Y-150720213D01*
X105274753Y-150703213D01*
X105248193Y-150683515D01*
X105223692Y-150661308D01*
X105201485Y-150636807D01*
X105181787Y-150610247D01*
X105164787Y-150581884D01*
X105150649Y-150551991D01*
X105139509Y-150520857D01*
X105131475Y-150488781D01*
X105126623Y-150456071D01*
X105125000Y-150423044D01*
X105125000Y-149296956D01*
X105126623Y-149263929D01*
X105131475Y-149231219D01*
X105139509Y-149199143D01*
X105150649Y-149168009D01*
X105164787Y-149138116D01*
X105181787Y-149109753D01*
X105201485Y-149083193D01*
X105223692Y-149058692D01*
X105248193Y-149036485D01*
X105274753Y-149016787D01*
X105303116Y-148999787D01*
X105333009Y-148985649D01*
X105364143Y-148974509D01*
X105396219Y-148966475D01*
X105428929Y-148961623D01*
X105461956Y-148960000D01*
X106338044Y-148960000D01*
X106371071Y-148961623D01*
X106371071Y-148961623D01*
G37*
D19*
X105900000Y-149860000D03*
G04 #@! TD*
D18*
G04 #@! TO.C,R12*
G36*
X85815071Y-134991623D02*
X85847781Y-134996475D01*
X85879857Y-135004509D01*
X85910991Y-135015649D01*
X85940884Y-135029787D01*
X85969247Y-135046787D01*
X85995807Y-135066485D01*
X86020308Y-135088692D01*
X86042515Y-135113193D01*
X86062213Y-135139753D01*
X86079213Y-135168116D01*
X86093351Y-135198009D01*
X86104491Y-135229143D01*
X86112525Y-135261219D01*
X86117377Y-135293929D01*
X86119000Y-135326956D01*
X86119000Y-136453044D01*
X86117377Y-136486071D01*
X86112525Y-136518781D01*
X86104491Y-136550857D01*
X86093351Y-136581991D01*
X86079213Y-136611884D01*
X86062213Y-136640247D01*
X86042515Y-136666807D01*
X86020308Y-136691308D01*
X85995807Y-136713515D01*
X85969247Y-136733213D01*
X85940884Y-136750213D01*
X85910991Y-136764351D01*
X85879857Y-136775491D01*
X85847781Y-136783525D01*
X85815071Y-136788377D01*
X85782044Y-136790000D01*
X84905956Y-136790000D01*
X84872929Y-136788377D01*
X84840219Y-136783525D01*
X84808143Y-136775491D01*
X84777009Y-136764351D01*
X84747116Y-136750213D01*
X84718753Y-136733213D01*
X84692193Y-136713515D01*
X84667692Y-136691308D01*
X84645485Y-136666807D01*
X84625787Y-136640247D01*
X84608787Y-136611884D01*
X84594649Y-136581991D01*
X84583509Y-136550857D01*
X84575475Y-136518781D01*
X84570623Y-136486071D01*
X84569000Y-136453044D01*
X84569000Y-135326956D01*
X84570623Y-135293929D01*
X84575475Y-135261219D01*
X84583509Y-135229143D01*
X84594649Y-135198009D01*
X84608787Y-135168116D01*
X84625787Y-135139753D01*
X84645485Y-135113193D01*
X84667692Y-135088692D01*
X84692193Y-135066485D01*
X84718753Y-135046787D01*
X84747116Y-135029787D01*
X84777009Y-135015649D01*
X84808143Y-135004509D01*
X84840219Y-134996475D01*
X84872929Y-134991623D01*
X84905956Y-134990000D01*
X85782044Y-134990000D01*
X85815071Y-134991623D01*
X85815071Y-134991623D01*
G37*
D19*
X85344000Y-135890000D03*
D18*
G36*
X83765071Y-134991623D02*
X83797781Y-134996475D01*
X83829857Y-135004509D01*
X83860991Y-135015649D01*
X83890884Y-135029787D01*
X83919247Y-135046787D01*
X83945807Y-135066485D01*
X83970308Y-135088692D01*
X83992515Y-135113193D01*
X84012213Y-135139753D01*
X84029213Y-135168116D01*
X84043351Y-135198009D01*
X84054491Y-135229143D01*
X84062525Y-135261219D01*
X84067377Y-135293929D01*
X84069000Y-135326956D01*
X84069000Y-136453044D01*
X84067377Y-136486071D01*
X84062525Y-136518781D01*
X84054491Y-136550857D01*
X84043351Y-136581991D01*
X84029213Y-136611884D01*
X84012213Y-136640247D01*
X83992515Y-136666807D01*
X83970308Y-136691308D01*
X83945807Y-136713515D01*
X83919247Y-136733213D01*
X83890884Y-136750213D01*
X83860991Y-136764351D01*
X83829857Y-136775491D01*
X83797781Y-136783525D01*
X83765071Y-136788377D01*
X83732044Y-136790000D01*
X82855956Y-136790000D01*
X82822929Y-136788377D01*
X82790219Y-136783525D01*
X82758143Y-136775491D01*
X82727009Y-136764351D01*
X82697116Y-136750213D01*
X82668753Y-136733213D01*
X82642193Y-136713515D01*
X82617692Y-136691308D01*
X82595485Y-136666807D01*
X82575787Y-136640247D01*
X82558787Y-136611884D01*
X82544649Y-136581991D01*
X82533509Y-136550857D01*
X82525475Y-136518781D01*
X82520623Y-136486071D01*
X82519000Y-136453044D01*
X82519000Y-135326956D01*
X82520623Y-135293929D01*
X82525475Y-135261219D01*
X82533509Y-135229143D01*
X82544649Y-135198009D01*
X82558787Y-135168116D01*
X82575787Y-135139753D01*
X82595485Y-135113193D01*
X82617692Y-135088692D01*
X82642193Y-135066485D01*
X82668753Y-135046787D01*
X82697116Y-135029787D01*
X82727009Y-135015649D01*
X82758143Y-135004509D01*
X82790219Y-134996475D01*
X82822929Y-134991623D01*
X82855956Y-134990000D01*
X83732044Y-134990000D01*
X83765071Y-134991623D01*
X83765071Y-134991623D01*
G37*
D19*
X83294000Y-135890000D03*
G04 #@! TD*
D18*
G04 #@! TO.C,R13*
G36*
X95957071Y-148961623D02*
X95989781Y-148966475D01*
X96021857Y-148974509D01*
X96052991Y-148985649D01*
X96082884Y-148999787D01*
X96111247Y-149016787D01*
X96137807Y-149036485D01*
X96162308Y-149058692D01*
X96184515Y-149083193D01*
X96204213Y-149109753D01*
X96221213Y-149138116D01*
X96235351Y-149168009D01*
X96246491Y-149199143D01*
X96254525Y-149231219D01*
X96259377Y-149263929D01*
X96261000Y-149296956D01*
X96261000Y-150423044D01*
X96259377Y-150456071D01*
X96254525Y-150488781D01*
X96246491Y-150520857D01*
X96235351Y-150551991D01*
X96221213Y-150581884D01*
X96204213Y-150610247D01*
X96184515Y-150636807D01*
X96162308Y-150661308D01*
X96137807Y-150683515D01*
X96111247Y-150703213D01*
X96082884Y-150720213D01*
X96052991Y-150734351D01*
X96021857Y-150745491D01*
X95989781Y-150753525D01*
X95957071Y-150758377D01*
X95924044Y-150760000D01*
X95047956Y-150760000D01*
X95014929Y-150758377D01*
X94982219Y-150753525D01*
X94950143Y-150745491D01*
X94919009Y-150734351D01*
X94889116Y-150720213D01*
X94860753Y-150703213D01*
X94834193Y-150683515D01*
X94809692Y-150661308D01*
X94787485Y-150636807D01*
X94767787Y-150610247D01*
X94750787Y-150581884D01*
X94736649Y-150551991D01*
X94725509Y-150520857D01*
X94717475Y-150488781D01*
X94712623Y-150456071D01*
X94711000Y-150423044D01*
X94711000Y-149296956D01*
X94712623Y-149263929D01*
X94717475Y-149231219D01*
X94725509Y-149199143D01*
X94736649Y-149168009D01*
X94750787Y-149138116D01*
X94767787Y-149109753D01*
X94787485Y-149083193D01*
X94809692Y-149058692D01*
X94834193Y-149036485D01*
X94860753Y-149016787D01*
X94889116Y-148999787D01*
X94919009Y-148985649D01*
X94950143Y-148974509D01*
X94982219Y-148966475D01*
X95014929Y-148961623D01*
X95047956Y-148960000D01*
X95924044Y-148960000D01*
X95957071Y-148961623D01*
X95957071Y-148961623D01*
G37*
D19*
X95486000Y-149860000D03*
D18*
G36*
X98007071Y-148961623D02*
X98039781Y-148966475D01*
X98071857Y-148974509D01*
X98102991Y-148985649D01*
X98132884Y-148999787D01*
X98161247Y-149016787D01*
X98187807Y-149036485D01*
X98212308Y-149058692D01*
X98234515Y-149083193D01*
X98254213Y-149109753D01*
X98271213Y-149138116D01*
X98285351Y-149168009D01*
X98296491Y-149199143D01*
X98304525Y-149231219D01*
X98309377Y-149263929D01*
X98311000Y-149296956D01*
X98311000Y-150423044D01*
X98309377Y-150456071D01*
X98304525Y-150488781D01*
X98296491Y-150520857D01*
X98285351Y-150551991D01*
X98271213Y-150581884D01*
X98254213Y-150610247D01*
X98234515Y-150636807D01*
X98212308Y-150661308D01*
X98187807Y-150683515D01*
X98161247Y-150703213D01*
X98132884Y-150720213D01*
X98102991Y-150734351D01*
X98071857Y-150745491D01*
X98039781Y-150753525D01*
X98007071Y-150758377D01*
X97974044Y-150760000D01*
X97097956Y-150760000D01*
X97064929Y-150758377D01*
X97032219Y-150753525D01*
X97000143Y-150745491D01*
X96969009Y-150734351D01*
X96939116Y-150720213D01*
X96910753Y-150703213D01*
X96884193Y-150683515D01*
X96859692Y-150661308D01*
X96837485Y-150636807D01*
X96817787Y-150610247D01*
X96800787Y-150581884D01*
X96786649Y-150551991D01*
X96775509Y-150520857D01*
X96767475Y-150488781D01*
X96762623Y-150456071D01*
X96761000Y-150423044D01*
X96761000Y-149296956D01*
X96762623Y-149263929D01*
X96767475Y-149231219D01*
X96775509Y-149199143D01*
X96786649Y-149168009D01*
X96800787Y-149138116D01*
X96817787Y-149109753D01*
X96837485Y-149083193D01*
X96859692Y-149058692D01*
X96884193Y-149036485D01*
X96910753Y-149016787D01*
X96939116Y-148999787D01*
X96969009Y-148985649D01*
X97000143Y-148974509D01*
X97032219Y-148966475D01*
X97064929Y-148961623D01*
X97097956Y-148960000D01*
X97974044Y-148960000D01*
X98007071Y-148961623D01*
X98007071Y-148961623D01*
G37*
D19*
X97536000Y-149860000D03*
G04 #@! TD*
D18*
G04 #@! TO.C,R14*
G36*
X98016071Y-152517623D02*
X98048781Y-152522475D01*
X98080857Y-152530509D01*
X98111991Y-152541649D01*
X98141884Y-152555787D01*
X98170247Y-152572787D01*
X98196807Y-152592485D01*
X98221308Y-152614692D01*
X98243515Y-152639193D01*
X98263213Y-152665753D01*
X98280213Y-152694116D01*
X98294351Y-152724009D01*
X98305491Y-152755143D01*
X98313525Y-152787219D01*
X98318377Y-152819929D01*
X98320000Y-152852956D01*
X98320000Y-153979044D01*
X98318377Y-154012071D01*
X98313525Y-154044781D01*
X98305491Y-154076857D01*
X98294351Y-154107991D01*
X98280213Y-154137884D01*
X98263213Y-154166247D01*
X98243515Y-154192807D01*
X98221308Y-154217308D01*
X98196807Y-154239515D01*
X98170247Y-154259213D01*
X98141884Y-154276213D01*
X98111991Y-154290351D01*
X98080857Y-154301491D01*
X98048781Y-154309525D01*
X98016071Y-154314377D01*
X97983044Y-154316000D01*
X97106956Y-154316000D01*
X97073929Y-154314377D01*
X97041219Y-154309525D01*
X97009143Y-154301491D01*
X96978009Y-154290351D01*
X96948116Y-154276213D01*
X96919753Y-154259213D01*
X96893193Y-154239515D01*
X96868692Y-154217308D01*
X96846485Y-154192807D01*
X96826787Y-154166247D01*
X96809787Y-154137884D01*
X96795649Y-154107991D01*
X96784509Y-154076857D01*
X96776475Y-154044781D01*
X96771623Y-154012071D01*
X96770000Y-153979044D01*
X96770000Y-152852956D01*
X96771623Y-152819929D01*
X96776475Y-152787219D01*
X96784509Y-152755143D01*
X96795649Y-152724009D01*
X96809787Y-152694116D01*
X96826787Y-152665753D01*
X96846485Y-152639193D01*
X96868692Y-152614692D01*
X96893193Y-152592485D01*
X96919753Y-152572787D01*
X96948116Y-152555787D01*
X96978009Y-152541649D01*
X97009143Y-152530509D01*
X97041219Y-152522475D01*
X97073929Y-152517623D01*
X97106956Y-152516000D01*
X97983044Y-152516000D01*
X98016071Y-152517623D01*
X98016071Y-152517623D01*
G37*
D19*
X97545000Y-153416000D03*
D18*
G36*
X95966071Y-152517623D02*
X95998781Y-152522475D01*
X96030857Y-152530509D01*
X96061991Y-152541649D01*
X96091884Y-152555787D01*
X96120247Y-152572787D01*
X96146807Y-152592485D01*
X96171308Y-152614692D01*
X96193515Y-152639193D01*
X96213213Y-152665753D01*
X96230213Y-152694116D01*
X96244351Y-152724009D01*
X96255491Y-152755143D01*
X96263525Y-152787219D01*
X96268377Y-152819929D01*
X96270000Y-152852956D01*
X96270000Y-153979044D01*
X96268377Y-154012071D01*
X96263525Y-154044781D01*
X96255491Y-154076857D01*
X96244351Y-154107991D01*
X96230213Y-154137884D01*
X96213213Y-154166247D01*
X96193515Y-154192807D01*
X96171308Y-154217308D01*
X96146807Y-154239515D01*
X96120247Y-154259213D01*
X96091884Y-154276213D01*
X96061991Y-154290351D01*
X96030857Y-154301491D01*
X95998781Y-154309525D01*
X95966071Y-154314377D01*
X95933044Y-154316000D01*
X95056956Y-154316000D01*
X95023929Y-154314377D01*
X94991219Y-154309525D01*
X94959143Y-154301491D01*
X94928009Y-154290351D01*
X94898116Y-154276213D01*
X94869753Y-154259213D01*
X94843193Y-154239515D01*
X94818692Y-154217308D01*
X94796485Y-154192807D01*
X94776787Y-154166247D01*
X94759787Y-154137884D01*
X94745649Y-154107991D01*
X94734509Y-154076857D01*
X94726475Y-154044781D01*
X94721623Y-154012071D01*
X94720000Y-153979044D01*
X94720000Y-152852956D01*
X94721623Y-152819929D01*
X94726475Y-152787219D01*
X94734509Y-152755143D01*
X94745649Y-152724009D01*
X94759787Y-152694116D01*
X94776787Y-152665753D01*
X94796485Y-152639193D01*
X94818692Y-152614692D01*
X94843193Y-152592485D01*
X94869753Y-152572787D01*
X94898116Y-152555787D01*
X94928009Y-152541649D01*
X94959143Y-152530509D01*
X94991219Y-152522475D01*
X95023929Y-152517623D01*
X95056956Y-152516000D01*
X95933044Y-152516000D01*
X95966071Y-152517623D01*
X95966071Y-152517623D01*
G37*
D19*
X95495000Y-153416000D03*
G04 #@! TD*
D18*
G04 #@! TO.C,R15*
G36*
X97624071Y-136395623D02*
X97656781Y-136400475D01*
X97688857Y-136408509D01*
X97719991Y-136419649D01*
X97749884Y-136433787D01*
X97778247Y-136450787D01*
X97804807Y-136470485D01*
X97829308Y-136492692D01*
X97851515Y-136517193D01*
X97871213Y-136543753D01*
X97888213Y-136572116D01*
X97902351Y-136602009D01*
X97913491Y-136633143D01*
X97921525Y-136665219D01*
X97926377Y-136697929D01*
X97928000Y-136730956D01*
X97928000Y-137607044D01*
X97926377Y-137640071D01*
X97921525Y-137672781D01*
X97913491Y-137704857D01*
X97902351Y-137735991D01*
X97888213Y-137765884D01*
X97871213Y-137794247D01*
X97851515Y-137820807D01*
X97829308Y-137845308D01*
X97804807Y-137867515D01*
X97778247Y-137887213D01*
X97749884Y-137904213D01*
X97719991Y-137918351D01*
X97688857Y-137929491D01*
X97656781Y-137937525D01*
X97624071Y-137942377D01*
X97591044Y-137944000D01*
X96464956Y-137944000D01*
X96431929Y-137942377D01*
X96399219Y-137937525D01*
X96367143Y-137929491D01*
X96336009Y-137918351D01*
X96306116Y-137904213D01*
X96277753Y-137887213D01*
X96251193Y-137867515D01*
X96226692Y-137845308D01*
X96204485Y-137820807D01*
X96184787Y-137794247D01*
X96167787Y-137765884D01*
X96153649Y-137735991D01*
X96142509Y-137704857D01*
X96134475Y-137672781D01*
X96129623Y-137640071D01*
X96128000Y-137607044D01*
X96128000Y-136730956D01*
X96129623Y-136697929D01*
X96134475Y-136665219D01*
X96142509Y-136633143D01*
X96153649Y-136602009D01*
X96167787Y-136572116D01*
X96184787Y-136543753D01*
X96204485Y-136517193D01*
X96226692Y-136492692D01*
X96251193Y-136470485D01*
X96277753Y-136450787D01*
X96306116Y-136433787D01*
X96336009Y-136419649D01*
X96367143Y-136408509D01*
X96399219Y-136400475D01*
X96431929Y-136395623D01*
X96464956Y-136394000D01*
X97591044Y-136394000D01*
X97624071Y-136395623D01*
X97624071Y-136395623D01*
G37*
D19*
X97028000Y-137169000D03*
D18*
G36*
X97624071Y-134345623D02*
X97656781Y-134350475D01*
X97688857Y-134358509D01*
X97719991Y-134369649D01*
X97749884Y-134383787D01*
X97778247Y-134400787D01*
X97804807Y-134420485D01*
X97829308Y-134442692D01*
X97851515Y-134467193D01*
X97871213Y-134493753D01*
X97888213Y-134522116D01*
X97902351Y-134552009D01*
X97913491Y-134583143D01*
X97921525Y-134615219D01*
X97926377Y-134647929D01*
X97928000Y-134680956D01*
X97928000Y-135557044D01*
X97926377Y-135590071D01*
X97921525Y-135622781D01*
X97913491Y-135654857D01*
X97902351Y-135685991D01*
X97888213Y-135715884D01*
X97871213Y-135744247D01*
X97851515Y-135770807D01*
X97829308Y-135795308D01*
X97804807Y-135817515D01*
X97778247Y-135837213D01*
X97749884Y-135854213D01*
X97719991Y-135868351D01*
X97688857Y-135879491D01*
X97656781Y-135887525D01*
X97624071Y-135892377D01*
X97591044Y-135894000D01*
X96464956Y-135894000D01*
X96431929Y-135892377D01*
X96399219Y-135887525D01*
X96367143Y-135879491D01*
X96336009Y-135868351D01*
X96306116Y-135854213D01*
X96277753Y-135837213D01*
X96251193Y-135817515D01*
X96226692Y-135795308D01*
X96204485Y-135770807D01*
X96184787Y-135744247D01*
X96167787Y-135715884D01*
X96153649Y-135685991D01*
X96142509Y-135654857D01*
X96134475Y-135622781D01*
X96129623Y-135590071D01*
X96128000Y-135557044D01*
X96128000Y-134680956D01*
X96129623Y-134647929D01*
X96134475Y-134615219D01*
X96142509Y-134583143D01*
X96153649Y-134552009D01*
X96167787Y-134522116D01*
X96184787Y-134493753D01*
X96204485Y-134467193D01*
X96226692Y-134442692D01*
X96251193Y-134420485D01*
X96277753Y-134400787D01*
X96306116Y-134383787D01*
X96336009Y-134369649D01*
X96367143Y-134358509D01*
X96399219Y-134350475D01*
X96431929Y-134345623D01*
X96464956Y-134344000D01*
X97591044Y-134344000D01*
X97624071Y-134345623D01*
X97624071Y-134345623D01*
G37*
D19*
X97028000Y-135119000D03*
G04 #@! TD*
D18*
G04 #@! TO.C,R16*
G36*
X59535071Y-145786623D02*
X59567781Y-145791475D01*
X59599857Y-145799509D01*
X59630991Y-145810649D01*
X59660884Y-145824787D01*
X59689247Y-145841787D01*
X59715807Y-145861485D01*
X59740308Y-145883692D01*
X59762515Y-145908193D01*
X59782213Y-145934753D01*
X59799213Y-145963116D01*
X59813351Y-145993009D01*
X59824491Y-146024143D01*
X59832525Y-146056219D01*
X59837377Y-146088929D01*
X59839000Y-146121956D01*
X59839000Y-147248044D01*
X59837377Y-147281071D01*
X59832525Y-147313781D01*
X59824491Y-147345857D01*
X59813351Y-147376991D01*
X59799213Y-147406884D01*
X59782213Y-147435247D01*
X59762515Y-147461807D01*
X59740308Y-147486308D01*
X59715807Y-147508515D01*
X59689247Y-147528213D01*
X59660884Y-147545213D01*
X59630991Y-147559351D01*
X59599857Y-147570491D01*
X59567781Y-147578525D01*
X59535071Y-147583377D01*
X59502044Y-147585000D01*
X58625956Y-147585000D01*
X58592929Y-147583377D01*
X58560219Y-147578525D01*
X58528143Y-147570491D01*
X58497009Y-147559351D01*
X58467116Y-147545213D01*
X58438753Y-147528213D01*
X58412193Y-147508515D01*
X58387692Y-147486308D01*
X58365485Y-147461807D01*
X58345787Y-147435247D01*
X58328787Y-147406884D01*
X58314649Y-147376991D01*
X58303509Y-147345857D01*
X58295475Y-147313781D01*
X58290623Y-147281071D01*
X58289000Y-147248044D01*
X58289000Y-146121956D01*
X58290623Y-146088929D01*
X58295475Y-146056219D01*
X58303509Y-146024143D01*
X58314649Y-145993009D01*
X58328787Y-145963116D01*
X58345787Y-145934753D01*
X58365485Y-145908193D01*
X58387692Y-145883692D01*
X58412193Y-145861485D01*
X58438753Y-145841787D01*
X58467116Y-145824787D01*
X58497009Y-145810649D01*
X58528143Y-145799509D01*
X58560219Y-145791475D01*
X58592929Y-145786623D01*
X58625956Y-145785000D01*
X59502044Y-145785000D01*
X59535071Y-145786623D01*
X59535071Y-145786623D01*
G37*
D19*
X59064000Y-146685000D03*
D18*
G36*
X57485071Y-145786623D02*
X57517781Y-145791475D01*
X57549857Y-145799509D01*
X57580991Y-145810649D01*
X57610884Y-145824787D01*
X57639247Y-145841787D01*
X57665807Y-145861485D01*
X57690308Y-145883692D01*
X57712515Y-145908193D01*
X57732213Y-145934753D01*
X57749213Y-145963116D01*
X57763351Y-145993009D01*
X57774491Y-146024143D01*
X57782525Y-146056219D01*
X57787377Y-146088929D01*
X57789000Y-146121956D01*
X57789000Y-147248044D01*
X57787377Y-147281071D01*
X57782525Y-147313781D01*
X57774491Y-147345857D01*
X57763351Y-147376991D01*
X57749213Y-147406884D01*
X57732213Y-147435247D01*
X57712515Y-147461807D01*
X57690308Y-147486308D01*
X57665807Y-147508515D01*
X57639247Y-147528213D01*
X57610884Y-147545213D01*
X57580991Y-147559351D01*
X57549857Y-147570491D01*
X57517781Y-147578525D01*
X57485071Y-147583377D01*
X57452044Y-147585000D01*
X56575956Y-147585000D01*
X56542929Y-147583377D01*
X56510219Y-147578525D01*
X56478143Y-147570491D01*
X56447009Y-147559351D01*
X56417116Y-147545213D01*
X56388753Y-147528213D01*
X56362193Y-147508515D01*
X56337692Y-147486308D01*
X56315485Y-147461807D01*
X56295787Y-147435247D01*
X56278787Y-147406884D01*
X56264649Y-147376991D01*
X56253509Y-147345857D01*
X56245475Y-147313781D01*
X56240623Y-147281071D01*
X56239000Y-147248044D01*
X56239000Y-146121956D01*
X56240623Y-146088929D01*
X56245475Y-146056219D01*
X56253509Y-146024143D01*
X56264649Y-145993009D01*
X56278787Y-145963116D01*
X56295787Y-145934753D01*
X56315485Y-145908193D01*
X56337692Y-145883692D01*
X56362193Y-145861485D01*
X56388753Y-145841787D01*
X56417116Y-145824787D01*
X56447009Y-145810649D01*
X56478143Y-145799509D01*
X56510219Y-145791475D01*
X56542929Y-145786623D01*
X56575956Y-145785000D01*
X57452044Y-145785000D01*
X57485071Y-145786623D01*
X57485071Y-145786623D01*
G37*
D19*
X57014000Y-146685000D03*
G04 #@! TD*
D18*
G04 #@! TO.C,R17*
G36*
X78694071Y-147945623D02*
X78726781Y-147950475D01*
X78758857Y-147958509D01*
X78789991Y-147969649D01*
X78819884Y-147983787D01*
X78848247Y-148000787D01*
X78874807Y-148020485D01*
X78899308Y-148042692D01*
X78921515Y-148067193D01*
X78941213Y-148093753D01*
X78958213Y-148122116D01*
X78972351Y-148152009D01*
X78983491Y-148183143D01*
X78991525Y-148215219D01*
X78996377Y-148247929D01*
X78998000Y-148280956D01*
X78998000Y-149407044D01*
X78996377Y-149440071D01*
X78991525Y-149472781D01*
X78983491Y-149504857D01*
X78972351Y-149535991D01*
X78958213Y-149565884D01*
X78941213Y-149594247D01*
X78921515Y-149620807D01*
X78899308Y-149645308D01*
X78874807Y-149667515D01*
X78848247Y-149687213D01*
X78819884Y-149704213D01*
X78789991Y-149718351D01*
X78758857Y-149729491D01*
X78726781Y-149737525D01*
X78694071Y-149742377D01*
X78661044Y-149744000D01*
X77784956Y-149744000D01*
X77751929Y-149742377D01*
X77719219Y-149737525D01*
X77687143Y-149729491D01*
X77656009Y-149718351D01*
X77626116Y-149704213D01*
X77597753Y-149687213D01*
X77571193Y-149667515D01*
X77546692Y-149645308D01*
X77524485Y-149620807D01*
X77504787Y-149594247D01*
X77487787Y-149565884D01*
X77473649Y-149535991D01*
X77462509Y-149504857D01*
X77454475Y-149472781D01*
X77449623Y-149440071D01*
X77448000Y-149407044D01*
X77448000Y-148280956D01*
X77449623Y-148247929D01*
X77454475Y-148215219D01*
X77462509Y-148183143D01*
X77473649Y-148152009D01*
X77487787Y-148122116D01*
X77504787Y-148093753D01*
X77524485Y-148067193D01*
X77546692Y-148042692D01*
X77571193Y-148020485D01*
X77597753Y-148000787D01*
X77626116Y-147983787D01*
X77656009Y-147969649D01*
X77687143Y-147958509D01*
X77719219Y-147950475D01*
X77751929Y-147945623D01*
X77784956Y-147944000D01*
X78661044Y-147944000D01*
X78694071Y-147945623D01*
X78694071Y-147945623D01*
G37*
D19*
X78223000Y-148844000D03*
D18*
G36*
X80744071Y-147945623D02*
X80776781Y-147950475D01*
X80808857Y-147958509D01*
X80839991Y-147969649D01*
X80869884Y-147983787D01*
X80898247Y-148000787D01*
X80924807Y-148020485D01*
X80949308Y-148042692D01*
X80971515Y-148067193D01*
X80991213Y-148093753D01*
X81008213Y-148122116D01*
X81022351Y-148152009D01*
X81033491Y-148183143D01*
X81041525Y-148215219D01*
X81046377Y-148247929D01*
X81048000Y-148280956D01*
X81048000Y-149407044D01*
X81046377Y-149440071D01*
X81041525Y-149472781D01*
X81033491Y-149504857D01*
X81022351Y-149535991D01*
X81008213Y-149565884D01*
X80991213Y-149594247D01*
X80971515Y-149620807D01*
X80949308Y-149645308D01*
X80924807Y-149667515D01*
X80898247Y-149687213D01*
X80869884Y-149704213D01*
X80839991Y-149718351D01*
X80808857Y-149729491D01*
X80776781Y-149737525D01*
X80744071Y-149742377D01*
X80711044Y-149744000D01*
X79834956Y-149744000D01*
X79801929Y-149742377D01*
X79769219Y-149737525D01*
X79737143Y-149729491D01*
X79706009Y-149718351D01*
X79676116Y-149704213D01*
X79647753Y-149687213D01*
X79621193Y-149667515D01*
X79596692Y-149645308D01*
X79574485Y-149620807D01*
X79554787Y-149594247D01*
X79537787Y-149565884D01*
X79523649Y-149535991D01*
X79512509Y-149504857D01*
X79504475Y-149472781D01*
X79499623Y-149440071D01*
X79498000Y-149407044D01*
X79498000Y-148280956D01*
X79499623Y-148247929D01*
X79504475Y-148215219D01*
X79512509Y-148183143D01*
X79523649Y-148152009D01*
X79537787Y-148122116D01*
X79554787Y-148093753D01*
X79574485Y-148067193D01*
X79596692Y-148042692D01*
X79621193Y-148020485D01*
X79647753Y-148000787D01*
X79676116Y-147983787D01*
X79706009Y-147969649D01*
X79737143Y-147958509D01*
X79769219Y-147950475D01*
X79801929Y-147945623D01*
X79834956Y-147944000D01*
X80711044Y-147944000D01*
X80744071Y-147945623D01*
X80744071Y-147945623D01*
G37*
D19*
X80273000Y-148844000D03*
G04 #@! TD*
D18*
G04 #@! TO.C,R18*
G36*
X78694071Y-150993623D02*
X78726781Y-150998475D01*
X78758857Y-151006509D01*
X78789991Y-151017649D01*
X78819884Y-151031787D01*
X78848247Y-151048787D01*
X78874807Y-151068485D01*
X78899308Y-151090692D01*
X78921515Y-151115193D01*
X78941213Y-151141753D01*
X78958213Y-151170116D01*
X78972351Y-151200009D01*
X78983491Y-151231143D01*
X78991525Y-151263219D01*
X78996377Y-151295929D01*
X78998000Y-151328956D01*
X78998000Y-152455044D01*
X78996377Y-152488071D01*
X78991525Y-152520781D01*
X78983491Y-152552857D01*
X78972351Y-152583991D01*
X78958213Y-152613884D01*
X78941213Y-152642247D01*
X78921515Y-152668807D01*
X78899308Y-152693308D01*
X78874807Y-152715515D01*
X78848247Y-152735213D01*
X78819884Y-152752213D01*
X78789991Y-152766351D01*
X78758857Y-152777491D01*
X78726781Y-152785525D01*
X78694071Y-152790377D01*
X78661044Y-152792000D01*
X77784956Y-152792000D01*
X77751929Y-152790377D01*
X77719219Y-152785525D01*
X77687143Y-152777491D01*
X77656009Y-152766351D01*
X77626116Y-152752213D01*
X77597753Y-152735213D01*
X77571193Y-152715515D01*
X77546692Y-152693308D01*
X77524485Y-152668807D01*
X77504787Y-152642247D01*
X77487787Y-152613884D01*
X77473649Y-152583991D01*
X77462509Y-152552857D01*
X77454475Y-152520781D01*
X77449623Y-152488071D01*
X77448000Y-152455044D01*
X77448000Y-151328956D01*
X77449623Y-151295929D01*
X77454475Y-151263219D01*
X77462509Y-151231143D01*
X77473649Y-151200009D01*
X77487787Y-151170116D01*
X77504787Y-151141753D01*
X77524485Y-151115193D01*
X77546692Y-151090692D01*
X77571193Y-151068485D01*
X77597753Y-151048787D01*
X77626116Y-151031787D01*
X77656009Y-151017649D01*
X77687143Y-151006509D01*
X77719219Y-150998475D01*
X77751929Y-150993623D01*
X77784956Y-150992000D01*
X78661044Y-150992000D01*
X78694071Y-150993623D01*
X78694071Y-150993623D01*
G37*
D19*
X78223000Y-151892000D03*
D18*
G36*
X80744071Y-150993623D02*
X80776781Y-150998475D01*
X80808857Y-151006509D01*
X80839991Y-151017649D01*
X80869884Y-151031787D01*
X80898247Y-151048787D01*
X80924807Y-151068485D01*
X80949308Y-151090692D01*
X80971515Y-151115193D01*
X80991213Y-151141753D01*
X81008213Y-151170116D01*
X81022351Y-151200009D01*
X81033491Y-151231143D01*
X81041525Y-151263219D01*
X81046377Y-151295929D01*
X81048000Y-151328956D01*
X81048000Y-152455044D01*
X81046377Y-152488071D01*
X81041525Y-152520781D01*
X81033491Y-152552857D01*
X81022351Y-152583991D01*
X81008213Y-152613884D01*
X80991213Y-152642247D01*
X80971515Y-152668807D01*
X80949308Y-152693308D01*
X80924807Y-152715515D01*
X80898247Y-152735213D01*
X80869884Y-152752213D01*
X80839991Y-152766351D01*
X80808857Y-152777491D01*
X80776781Y-152785525D01*
X80744071Y-152790377D01*
X80711044Y-152792000D01*
X79834956Y-152792000D01*
X79801929Y-152790377D01*
X79769219Y-152785525D01*
X79737143Y-152777491D01*
X79706009Y-152766351D01*
X79676116Y-152752213D01*
X79647753Y-152735213D01*
X79621193Y-152715515D01*
X79596692Y-152693308D01*
X79574485Y-152668807D01*
X79554787Y-152642247D01*
X79537787Y-152613884D01*
X79523649Y-152583991D01*
X79512509Y-152552857D01*
X79504475Y-152520781D01*
X79499623Y-152488071D01*
X79498000Y-152455044D01*
X79498000Y-151328956D01*
X79499623Y-151295929D01*
X79504475Y-151263219D01*
X79512509Y-151231143D01*
X79523649Y-151200009D01*
X79537787Y-151170116D01*
X79554787Y-151141753D01*
X79574485Y-151115193D01*
X79596692Y-151090692D01*
X79621193Y-151068485D01*
X79647753Y-151048787D01*
X79676116Y-151031787D01*
X79706009Y-151017649D01*
X79737143Y-151006509D01*
X79769219Y-150998475D01*
X79801929Y-150993623D01*
X79834956Y-150992000D01*
X80711044Y-150992000D01*
X80744071Y-150993623D01*
X80744071Y-150993623D01*
G37*
D19*
X80273000Y-151892000D03*
G04 #@! TD*
D18*
G04 #@! TO.C,R19*
G36*
X123906071Y-143373623D02*
X123938781Y-143378475D01*
X123970857Y-143386509D01*
X124001991Y-143397649D01*
X124031884Y-143411787D01*
X124060247Y-143428787D01*
X124086807Y-143448485D01*
X124111308Y-143470692D01*
X124133515Y-143495193D01*
X124153213Y-143521753D01*
X124170213Y-143550116D01*
X124184351Y-143580009D01*
X124195491Y-143611143D01*
X124203525Y-143643219D01*
X124208377Y-143675929D01*
X124210000Y-143708956D01*
X124210000Y-144835044D01*
X124208377Y-144868071D01*
X124203525Y-144900781D01*
X124195491Y-144932857D01*
X124184351Y-144963991D01*
X124170213Y-144993884D01*
X124153213Y-145022247D01*
X124133515Y-145048807D01*
X124111308Y-145073308D01*
X124086807Y-145095515D01*
X124060247Y-145115213D01*
X124031884Y-145132213D01*
X124001991Y-145146351D01*
X123970857Y-145157491D01*
X123938781Y-145165525D01*
X123906071Y-145170377D01*
X123873044Y-145172000D01*
X122996956Y-145172000D01*
X122963929Y-145170377D01*
X122931219Y-145165525D01*
X122899143Y-145157491D01*
X122868009Y-145146351D01*
X122838116Y-145132213D01*
X122809753Y-145115213D01*
X122783193Y-145095515D01*
X122758692Y-145073308D01*
X122736485Y-145048807D01*
X122716787Y-145022247D01*
X122699787Y-144993884D01*
X122685649Y-144963991D01*
X122674509Y-144932857D01*
X122666475Y-144900781D01*
X122661623Y-144868071D01*
X122660000Y-144835044D01*
X122660000Y-143708956D01*
X122661623Y-143675929D01*
X122666475Y-143643219D01*
X122674509Y-143611143D01*
X122685649Y-143580009D01*
X122699787Y-143550116D01*
X122716787Y-143521753D01*
X122736485Y-143495193D01*
X122758692Y-143470692D01*
X122783193Y-143448485D01*
X122809753Y-143428787D01*
X122838116Y-143411787D01*
X122868009Y-143397649D01*
X122899143Y-143386509D01*
X122931219Y-143378475D01*
X122963929Y-143373623D01*
X122996956Y-143372000D01*
X123873044Y-143372000D01*
X123906071Y-143373623D01*
X123906071Y-143373623D01*
G37*
D19*
X123435000Y-144272000D03*
D18*
G36*
X125956071Y-143373623D02*
X125988781Y-143378475D01*
X126020857Y-143386509D01*
X126051991Y-143397649D01*
X126081884Y-143411787D01*
X126110247Y-143428787D01*
X126136807Y-143448485D01*
X126161308Y-143470692D01*
X126183515Y-143495193D01*
X126203213Y-143521753D01*
X126220213Y-143550116D01*
X126234351Y-143580009D01*
X126245491Y-143611143D01*
X126253525Y-143643219D01*
X126258377Y-143675929D01*
X126260000Y-143708956D01*
X126260000Y-144835044D01*
X126258377Y-144868071D01*
X126253525Y-144900781D01*
X126245491Y-144932857D01*
X126234351Y-144963991D01*
X126220213Y-144993884D01*
X126203213Y-145022247D01*
X126183515Y-145048807D01*
X126161308Y-145073308D01*
X126136807Y-145095515D01*
X126110247Y-145115213D01*
X126081884Y-145132213D01*
X126051991Y-145146351D01*
X126020857Y-145157491D01*
X125988781Y-145165525D01*
X125956071Y-145170377D01*
X125923044Y-145172000D01*
X125046956Y-145172000D01*
X125013929Y-145170377D01*
X124981219Y-145165525D01*
X124949143Y-145157491D01*
X124918009Y-145146351D01*
X124888116Y-145132213D01*
X124859753Y-145115213D01*
X124833193Y-145095515D01*
X124808692Y-145073308D01*
X124786485Y-145048807D01*
X124766787Y-145022247D01*
X124749787Y-144993884D01*
X124735649Y-144963991D01*
X124724509Y-144932857D01*
X124716475Y-144900781D01*
X124711623Y-144868071D01*
X124710000Y-144835044D01*
X124710000Y-143708956D01*
X124711623Y-143675929D01*
X124716475Y-143643219D01*
X124724509Y-143611143D01*
X124735649Y-143580009D01*
X124749787Y-143550116D01*
X124766787Y-143521753D01*
X124786485Y-143495193D01*
X124808692Y-143470692D01*
X124833193Y-143448485D01*
X124859753Y-143428787D01*
X124888116Y-143411787D01*
X124918009Y-143397649D01*
X124949143Y-143386509D01*
X124981219Y-143378475D01*
X125013929Y-143373623D01*
X125046956Y-143372000D01*
X125923044Y-143372000D01*
X125956071Y-143373623D01*
X125956071Y-143373623D01*
G37*
D19*
X125485000Y-144272000D03*
G04 #@! TD*
D18*
G04 #@! TO.C,R20*
G36*
X59535071Y-142611623D02*
X59567781Y-142616475D01*
X59599857Y-142624509D01*
X59630991Y-142635649D01*
X59660884Y-142649787D01*
X59689247Y-142666787D01*
X59715807Y-142686485D01*
X59740308Y-142708692D01*
X59762515Y-142733193D01*
X59782213Y-142759753D01*
X59799213Y-142788116D01*
X59813351Y-142818009D01*
X59824491Y-142849143D01*
X59832525Y-142881219D01*
X59837377Y-142913929D01*
X59839000Y-142946956D01*
X59839000Y-144073044D01*
X59837377Y-144106071D01*
X59832525Y-144138781D01*
X59824491Y-144170857D01*
X59813351Y-144201991D01*
X59799213Y-144231884D01*
X59782213Y-144260247D01*
X59762515Y-144286807D01*
X59740308Y-144311308D01*
X59715807Y-144333515D01*
X59689247Y-144353213D01*
X59660884Y-144370213D01*
X59630991Y-144384351D01*
X59599857Y-144395491D01*
X59567781Y-144403525D01*
X59535071Y-144408377D01*
X59502044Y-144410000D01*
X58625956Y-144410000D01*
X58592929Y-144408377D01*
X58560219Y-144403525D01*
X58528143Y-144395491D01*
X58497009Y-144384351D01*
X58467116Y-144370213D01*
X58438753Y-144353213D01*
X58412193Y-144333515D01*
X58387692Y-144311308D01*
X58365485Y-144286807D01*
X58345787Y-144260247D01*
X58328787Y-144231884D01*
X58314649Y-144201991D01*
X58303509Y-144170857D01*
X58295475Y-144138781D01*
X58290623Y-144106071D01*
X58289000Y-144073044D01*
X58289000Y-142946956D01*
X58290623Y-142913929D01*
X58295475Y-142881219D01*
X58303509Y-142849143D01*
X58314649Y-142818009D01*
X58328787Y-142788116D01*
X58345787Y-142759753D01*
X58365485Y-142733193D01*
X58387692Y-142708692D01*
X58412193Y-142686485D01*
X58438753Y-142666787D01*
X58467116Y-142649787D01*
X58497009Y-142635649D01*
X58528143Y-142624509D01*
X58560219Y-142616475D01*
X58592929Y-142611623D01*
X58625956Y-142610000D01*
X59502044Y-142610000D01*
X59535071Y-142611623D01*
X59535071Y-142611623D01*
G37*
D19*
X59064000Y-143510000D03*
D18*
G36*
X57485071Y-142611623D02*
X57517781Y-142616475D01*
X57549857Y-142624509D01*
X57580991Y-142635649D01*
X57610884Y-142649787D01*
X57639247Y-142666787D01*
X57665807Y-142686485D01*
X57690308Y-142708692D01*
X57712515Y-142733193D01*
X57732213Y-142759753D01*
X57749213Y-142788116D01*
X57763351Y-142818009D01*
X57774491Y-142849143D01*
X57782525Y-142881219D01*
X57787377Y-142913929D01*
X57789000Y-142946956D01*
X57789000Y-144073044D01*
X57787377Y-144106071D01*
X57782525Y-144138781D01*
X57774491Y-144170857D01*
X57763351Y-144201991D01*
X57749213Y-144231884D01*
X57732213Y-144260247D01*
X57712515Y-144286807D01*
X57690308Y-144311308D01*
X57665807Y-144333515D01*
X57639247Y-144353213D01*
X57610884Y-144370213D01*
X57580991Y-144384351D01*
X57549857Y-144395491D01*
X57517781Y-144403525D01*
X57485071Y-144408377D01*
X57452044Y-144410000D01*
X56575956Y-144410000D01*
X56542929Y-144408377D01*
X56510219Y-144403525D01*
X56478143Y-144395491D01*
X56447009Y-144384351D01*
X56417116Y-144370213D01*
X56388753Y-144353213D01*
X56362193Y-144333515D01*
X56337692Y-144311308D01*
X56315485Y-144286807D01*
X56295787Y-144260247D01*
X56278787Y-144231884D01*
X56264649Y-144201991D01*
X56253509Y-144170857D01*
X56245475Y-144138781D01*
X56240623Y-144106071D01*
X56239000Y-144073044D01*
X56239000Y-142946956D01*
X56240623Y-142913929D01*
X56245475Y-142881219D01*
X56253509Y-142849143D01*
X56264649Y-142818009D01*
X56278787Y-142788116D01*
X56295787Y-142759753D01*
X56315485Y-142733193D01*
X56337692Y-142708692D01*
X56362193Y-142686485D01*
X56388753Y-142666787D01*
X56417116Y-142649787D01*
X56447009Y-142635649D01*
X56478143Y-142624509D01*
X56510219Y-142616475D01*
X56542929Y-142611623D01*
X56575956Y-142610000D01*
X57452044Y-142610000D01*
X57485071Y-142611623D01*
X57485071Y-142611623D01*
G37*
D19*
X57014000Y-143510000D03*
G04 #@! TD*
D18*
G04 #@! TO.C,R21*
G36*
X68434071Y-134991623D02*
X68466781Y-134996475D01*
X68498857Y-135004509D01*
X68529991Y-135015649D01*
X68559884Y-135029787D01*
X68588247Y-135046787D01*
X68614807Y-135066485D01*
X68639308Y-135088692D01*
X68661515Y-135113193D01*
X68681213Y-135139753D01*
X68698213Y-135168116D01*
X68712351Y-135198009D01*
X68723491Y-135229143D01*
X68731525Y-135261219D01*
X68736377Y-135293929D01*
X68738000Y-135326956D01*
X68738000Y-136453044D01*
X68736377Y-136486071D01*
X68731525Y-136518781D01*
X68723491Y-136550857D01*
X68712351Y-136581991D01*
X68698213Y-136611884D01*
X68681213Y-136640247D01*
X68661515Y-136666807D01*
X68639308Y-136691308D01*
X68614807Y-136713515D01*
X68588247Y-136733213D01*
X68559884Y-136750213D01*
X68529991Y-136764351D01*
X68498857Y-136775491D01*
X68466781Y-136783525D01*
X68434071Y-136788377D01*
X68401044Y-136790000D01*
X67524956Y-136790000D01*
X67491929Y-136788377D01*
X67459219Y-136783525D01*
X67427143Y-136775491D01*
X67396009Y-136764351D01*
X67366116Y-136750213D01*
X67337753Y-136733213D01*
X67311193Y-136713515D01*
X67286692Y-136691308D01*
X67264485Y-136666807D01*
X67244787Y-136640247D01*
X67227787Y-136611884D01*
X67213649Y-136581991D01*
X67202509Y-136550857D01*
X67194475Y-136518781D01*
X67189623Y-136486071D01*
X67188000Y-136453044D01*
X67188000Y-135326956D01*
X67189623Y-135293929D01*
X67194475Y-135261219D01*
X67202509Y-135229143D01*
X67213649Y-135198009D01*
X67227787Y-135168116D01*
X67244787Y-135139753D01*
X67264485Y-135113193D01*
X67286692Y-135088692D01*
X67311193Y-135066485D01*
X67337753Y-135046787D01*
X67366116Y-135029787D01*
X67396009Y-135015649D01*
X67427143Y-135004509D01*
X67459219Y-134996475D01*
X67491929Y-134991623D01*
X67524956Y-134990000D01*
X68401044Y-134990000D01*
X68434071Y-134991623D01*
X68434071Y-134991623D01*
G37*
D19*
X67963000Y-135890000D03*
D18*
G36*
X66384071Y-134991623D02*
X66416781Y-134996475D01*
X66448857Y-135004509D01*
X66479991Y-135015649D01*
X66509884Y-135029787D01*
X66538247Y-135046787D01*
X66564807Y-135066485D01*
X66589308Y-135088692D01*
X66611515Y-135113193D01*
X66631213Y-135139753D01*
X66648213Y-135168116D01*
X66662351Y-135198009D01*
X66673491Y-135229143D01*
X66681525Y-135261219D01*
X66686377Y-135293929D01*
X66688000Y-135326956D01*
X66688000Y-136453044D01*
X66686377Y-136486071D01*
X66681525Y-136518781D01*
X66673491Y-136550857D01*
X66662351Y-136581991D01*
X66648213Y-136611884D01*
X66631213Y-136640247D01*
X66611515Y-136666807D01*
X66589308Y-136691308D01*
X66564807Y-136713515D01*
X66538247Y-136733213D01*
X66509884Y-136750213D01*
X66479991Y-136764351D01*
X66448857Y-136775491D01*
X66416781Y-136783525D01*
X66384071Y-136788377D01*
X66351044Y-136790000D01*
X65474956Y-136790000D01*
X65441929Y-136788377D01*
X65409219Y-136783525D01*
X65377143Y-136775491D01*
X65346009Y-136764351D01*
X65316116Y-136750213D01*
X65287753Y-136733213D01*
X65261193Y-136713515D01*
X65236692Y-136691308D01*
X65214485Y-136666807D01*
X65194787Y-136640247D01*
X65177787Y-136611884D01*
X65163649Y-136581991D01*
X65152509Y-136550857D01*
X65144475Y-136518781D01*
X65139623Y-136486071D01*
X65138000Y-136453044D01*
X65138000Y-135326956D01*
X65139623Y-135293929D01*
X65144475Y-135261219D01*
X65152509Y-135229143D01*
X65163649Y-135198009D01*
X65177787Y-135168116D01*
X65194787Y-135139753D01*
X65214485Y-135113193D01*
X65236692Y-135088692D01*
X65261193Y-135066485D01*
X65287753Y-135046787D01*
X65316116Y-135029787D01*
X65346009Y-135015649D01*
X65377143Y-135004509D01*
X65409219Y-134996475D01*
X65441929Y-134991623D01*
X65474956Y-134990000D01*
X66351044Y-134990000D01*
X66384071Y-134991623D01*
X66384071Y-134991623D01*
G37*
D19*
X65913000Y-135890000D03*
G04 #@! TD*
D18*
G04 #@! TO.C,R23*
G36*
X70058071Y-150739623D02*
X70090781Y-150744475D01*
X70122857Y-150752509D01*
X70153991Y-150763649D01*
X70183884Y-150777787D01*
X70212247Y-150794787D01*
X70238807Y-150814485D01*
X70263308Y-150836692D01*
X70285515Y-150861193D01*
X70305213Y-150887753D01*
X70322213Y-150916116D01*
X70336351Y-150946009D01*
X70347491Y-150977143D01*
X70355525Y-151009219D01*
X70360377Y-151041929D01*
X70362000Y-151074956D01*
X70362000Y-152201044D01*
X70360377Y-152234071D01*
X70355525Y-152266781D01*
X70347491Y-152298857D01*
X70336351Y-152329991D01*
X70322213Y-152359884D01*
X70305213Y-152388247D01*
X70285515Y-152414807D01*
X70263308Y-152439308D01*
X70238807Y-152461515D01*
X70212247Y-152481213D01*
X70183884Y-152498213D01*
X70153991Y-152512351D01*
X70122857Y-152523491D01*
X70090781Y-152531525D01*
X70058071Y-152536377D01*
X70025044Y-152538000D01*
X69148956Y-152538000D01*
X69115929Y-152536377D01*
X69083219Y-152531525D01*
X69051143Y-152523491D01*
X69020009Y-152512351D01*
X68990116Y-152498213D01*
X68961753Y-152481213D01*
X68935193Y-152461515D01*
X68910692Y-152439308D01*
X68888485Y-152414807D01*
X68868787Y-152388247D01*
X68851787Y-152359884D01*
X68837649Y-152329991D01*
X68826509Y-152298857D01*
X68818475Y-152266781D01*
X68813623Y-152234071D01*
X68812000Y-152201044D01*
X68812000Y-151074956D01*
X68813623Y-151041929D01*
X68818475Y-151009219D01*
X68826509Y-150977143D01*
X68837649Y-150946009D01*
X68851787Y-150916116D01*
X68868787Y-150887753D01*
X68888485Y-150861193D01*
X68910692Y-150836692D01*
X68935193Y-150814485D01*
X68961753Y-150794787D01*
X68990116Y-150777787D01*
X69020009Y-150763649D01*
X69051143Y-150752509D01*
X69083219Y-150744475D01*
X69115929Y-150739623D01*
X69148956Y-150738000D01*
X70025044Y-150738000D01*
X70058071Y-150739623D01*
X70058071Y-150739623D01*
G37*
D19*
X69587000Y-151638000D03*
D18*
G36*
X72108071Y-150739623D02*
X72140781Y-150744475D01*
X72172857Y-150752509D01*
X72203991Y-150763649D01*
X72233884Y-150777787D01*
X72262247Y-150794787D01*
X72288807Y-150814485D01*
X72313308Y-150836692D01*
X72335515Y-150861193D01*
X72355213Y-150887753D01*
X72372213Y-150916116D01*
X72386351Y-150946009D01*
X72397491Y-150977143D01*
X72405525Y-151009219D01*
X72410377Y-151041929D01*
X72412000Y-151074956D01*
X72412000Y-152201044D01*
X72410377Y-152234071D01*
X72405525Y-152266781D01*
X72397491Y-152298857D01*
X72386351Y-152329991D01*
X72372213Y-152359884D01*
X72355213Y-152388247D01*
X72335515Y-152414807D01*
X72313308Y-152439308D01*
X72288807Y-152461515D01*
X72262247Y-152481213D01*
X72233884Y-152498213D01*
X72203991Y-152512351D01*
X72172857Y-152523491D01*
X72140781Y-152531525D01*
X72108071Y-152536377D01*
X72075044Y-152538000D01*
X71198956Y-152538000D01*
X71165929Y-152536377D01*
X71133219Y-152531525D01*
X71101143Y-152523491D01*
X71070009Y-152512351D01*
X71040116Y-152498213D01*
X71011753Y-152481213D01*
X70985193Y-152461515D01*
X70960692Y-152439308D01*
X70938485Y-152414807D01*
X70918787Y-152388247D01*
X70901787Y-152359884D01*
X70887649Y-152329991D01*
X70876509Y-152298857D01*
X70868475Y-152266781D01*
X70863623Y-152234071D01*
X70862000Y-152201044D01*
X70862000Y-151074956D01*
X70863623Y-151041929D01*
X70868475Y-151009219D01*
X70876509Y-150977143D01*
X70887649Y-150946009D01*
X70901787Y-150916116D01*
X70918787Y-150887753D01*
X70938485Y-150861193D01*
X70960692Y-150836692D01*
X70985193Y-150814485D01*
X71011753Y-150794787D01*
X71040116Y-150777787D01*
X71070009Y-150763649D01*
X71101143Y-150752509D01*
X71133219Y-150744475D01*
X71165929Y-150739623D01*
X71198956Y-150738000D01*
X72075044Y-150738000D01*
X72108071Y-150739623D01*
X72108071Y-150739623D01*
G37*
D19*
X71637000Y-151638000D03*
G04 #@! TD*
D18*
G04 #@! TO.C,R24*
G36*
X63080071Y-140949623D02*
X63112781Y-140954475D01*
X63144857Y-140962509D01*
X63175991Y-140973649D01*
X63205884Y-140987787D01*
X63234247Y-141004787D01*
X63260807Y-141024485D01*
X63285308Y-141046692D01*
X63307515Y-141071193D01*
X63327213Y-141097753D01*
X63344213Y-141126116D01*
X63358351Y-141156009D01*
X63369491Y-141187143D01*
X63377525Y-141219219D01*
X63382377Y-141251929D01*
X63384000Y-141284956D01*
X63384000Y-142161044D01*
X63382377Y-142194071D01*
X63377525Y-142226781D01*
X63369491Y-142258857D01*
X63358351Y-142289991D01*
X63344213Y-142319884D01*
X63327213Y-142348247D01*
X63307515Y-142374807D01*
X63285308Y-142399308D01*
X63260807Y-142421515D01*
X63234247Y-142441213D01*
X63205884Y-142458213D01*
X63175991Y-142472351D01*
X63144857Y-142483491D01*
X63112781Y-142491525D01*
X63080071Y-142496377D01*
X63047044Y-142498000D01*
X61920956Y-142498000D01*
X61887929Y-142496377D01*
X61855219Y-142491525D01*
X61823143Y-142483491D01*
X61792009Y-142472351D01*
X61762116Y-142458213D01*
X61733753Y-142441213D01*
X61707193Y-142421515D01*
X61682692Y-142399308D01*
X61660485Y-142374807D01*
X61640787Y-142348247D01*
X61623787Y-142319884D01*
X61609649Y-142289991D01*
X61598509Y-142258857D01*
X61590475Y-142226781D01*
X61585623Y-142194071D01*
X61584000Y-142161044D01*
X61584000Y-141284956D01*
X61585623Y-141251929D01*
X61590475Y-141219219D01*
X61598509Y-141187143D01*
X61609649Y-141156009D01*
X61623787Y-141126116D01*
X61640787Y-141097753D01*
X61660485Y-141071193D01*
X61682692Y-141046692D01*
X61707193Y-141024485D01*
X61733753Y-141004787D01*
X61762116Y-140987787D01*
X61792009Y-140973649D01*
X61823143Y-140962509D01*
X61855219Y-140954475D01*
X61887929Y-140949623D01*
X61920956Y-140948000D01*
X63047044Y-140948000D01*
X63080071Y-140949623D01*
X63080071Y-140949623D01*
G37*
D19*
X62484000Y-141723000D03*
D18*
G36*
X63080071Y-142999623D02*
X63112781Y-143004475D01*
X63144857Y-143012509D01*
X63175991Y-143023649D01*
X63205884Y-143037787D01*
X63234247Y-143054787D01*
X63260807Y-143074485D01*
X63285308Y-143096692D01*
X63307515Y-143121193D01*
X63327213Y-143147753D01*
X63344213Y-143176116D01*
X63358351Y-143206009D01*
X63369491Y-143237143D01*
X63377525Y-143269219D01*
X63382377Y-143301929D01*
X63384000Y-143334956D01*
X63384000Y-144211044D01*
X63382377Y-144244071D01*
X63377525Y-144276781D01*
X63369491Y-144308857D01*
X63358351Y-144339991D01*
X63344213Y-144369884D01*
X63327213Y-144398247D01*
X63307515Y-144424807D01*
X63285308Y-144449308D01*
X63260807Y-144471515D01*
X63234247Y-144491213D01*
X63205884Y-144508213D01*
X63175991Y-144522351D01*
X63144857Y-144533491D01*
X63112781Y-144541525D01*
X63080071Y-144546377D01*
X63047044Y-144548000D01*
X61920956Y-144548000D01*
X61887929Y-144546377D01*
X61855219Y-144541525D01*
X61823143Y-144533491D01*
X61792009Y-144522351D01*
X61762116Y-144508213D01*
X61733753Y-144491213D01*
X61707193Y-144471515D01*
X61682692Y-144449308D01*
X61660485Y-144424807D01*
X61640787Y-144398247D01*
X61623787Y-144369884D01*
X61609649Y-144339991D01*
X61598509Y-144308857D01*
X61590475Y-144276781D01*
X61585623Y-144244071D01*
X61584000Y-144211044D01*
X61584000Y-143334956D01*
X61585623Y-143301929D01*
X61590475Y-143269219D01*
X61598509Y-143237143D01*
X61609649Y-143206009D01*
X61623787Y-143176116D01*
X61640787Y-143147753D01*
X61660485Y-143121193D01*
X61682692Y-143096692D01*
X61707193Y-143074485D01*
X61733753Y-143054787D01*
X61762116Y-143037787D01*
X61792009Y-143023649D01*
X61823143Y-143012509D01*
X61855219Y-143004475D01*
X61887929Y-142999623D01*
X61920956Y-142998000D01*
X63047044Y-142998000D01*
X63080071Y-142999623D01*
X63080071Y-142999623D01*
G37*
D19*
X62484000Y-143773000D03*
G04 #@! TD*
D18*
G04 #@! TO.C,R25*
G36*
X66636071Y-140949623D02*
X66668781Y-140954475D01*
X66700857Y-140962509D01*
X66731991Y-140973649D01*
X66761884Y-140987787D01*
X66790247Y-141004787D01*
X66816807Y-141024485D01*
X66841308Y-141046692D01*
X66863515Y-141071193D01*
X66883213Y-141097753D01*
X66900213Y-141126116D01*
X66914351Y-141156009D01*
X66925491Y-141187143D01*
X66933525Y-141219219D01*
X66938377Y-141251929D01*
X66940000Y-141284956D01*
X66940000Y-142161044D01*
X66938377Y-142194071D01*
X66933525Y-142226781D01*
X66925491Y-142258857D01*
X66914351Y-142289991D01*
X66900213Y-142319884D01*
X66883213Y-142348247D01*
X66863515Y-142374807D01*
X66841308Y-142399308D01*
X66816807Y-142421515D01*
X66790247Y-142441213D01*
X66761884Y-142458213D01*
X66731991Y-142472351D01*
X66700857Y-142483491D01*
X66668781Y-142491525D01*
X66636071Y-142496377D01*
X66603044Y-142498000D01*
X65476956Y-142498000D01*
X65443929Y-142496377D01*
X65411219Y-142491525D01*
X65379143Y-142483491D01*
X65348009Y-142472351D01*
X65318116Y-142458213D01*
X65289753Y-142441213D01*
X65263193Y-142421515D01*
X65238692Y-142399308D01*
X65216485Y-142374807D01*
X65196787Y-142348247D01*
X65179787Y-142319884D01*
X65165649Y-142289991D01*
X65154509Y-142258857D01*
X65146475Y-142226781D01*
X65141623Y-142194071D01*
X65140000Y-142161044D01*
X65140000Y-141284956D01*
X65141623Y-141251929D01*
X65146475Y-141219219D01*
X65154509Y-141187143D01*
X65165649Y-141156009D01*
X65179787Y-141126116D01*
X65196787Y-141097753D01*
X65216485Y-141071193D01*
X65238692Y-141046692D01*
X65263193Y-141024485D01*
X65289753Y-141004787D01*
X65318116Y-140987787D01*
X65348009Y-140973649D01*
X65379143Y-140962509D01*
X65411219Y-140954475D01*
X65443929Y-140949623D01*
X65476956Y-140948000D01*
X66603044Y-140948000D01*
X66636071Y-140949623D01*
X66636071Y-140949623D01*
G37*
D19*
X66040000Y-141723000D03*
D18*
G36*
X66636071Y-142999623D02*
X66668781Y-143004475D01*
X66700857Y-143012509D01*
X66731991Y-143023649D01*
X66761884Y-143037787D01*
X66790247Y-143054787D01*
X66816807Y-143074485D01*
X66841308Y-143096692D01*
X66863515Y-143121193D01*
X66883213Y-143147753D01*
X66900213Y-143176116D01*
X66914351Y-143206009D01*
X66925491Y-143237143D01*
X66933525Y-143269219D01*
X66938377Y-143301929D01*
X66940000Y-143334956D01*
X66940000Y-144211044D01*
X66938377Y-144244071D01*
X66933525Y-144276781D01*
X66925491Y-144308857D01*
X66914351Y-144339991D01*
X66900213Y-144369884D01*
X66883213Y-144398247D01*
X66863515Y-144424807D01*
X66841308Y-144449308D01*
X66816807Y-144471515D01*
X66790247Y-144491213D01*
X66761884Y-144508213D01*
X66731991Y-144522351D01*
X66700857Y-144533491D01*
X66668781Y-144541525D01*
X66636071Y-144546377D01*
X66603044Y-144548000D01*
X65476956Y-144548000D01*
X65443929Y-144546377D01*
X65411219Y-144541525D01*
X65379143Y-144533491D01*
X65348009Y-144522351D01*
X65318116Y-144508213D01*
X65289753Y-144491213D01*
X65263193Y-144471515D01*
X65238692Y-144449308D01*
X65216485Y-144424807D01*
X65196787Y-144398247D01*
X65179787Y-144369884D01*
X65165649Y-144339991D01*
X65154509Y-144308857D01*
X65146475Y-144276781D01*
X65141623Y-144244071D01*
X65140000Y-144211044D01*
X65140000Y-143334956D01*
X65141623Y-143301929D01*
X65146475Y-143269219D01*
X65154509Y-143237143D01*
X65165649Y-143206009D01*
X65179787Y-143176116D01*
X65196787Y-143147753D01*
X65216485Y-143121193D01*
X65238692Y-143096692D01*
X65263193Y-143074485D01*
X65289753Y-143054787D01*
X65318116Y-143037787D01*
X65348009Y-143023649D01*
X65379143Y-143012509D01*
X65411219Y-143004475D01*
X65443929Y-142999623D01*
X65476956Y-142998000D01*
X66603044Y-142998000D01*
X66636071Y-142999623D01*
X66636071Y-142999623D01*
G37*
D19*
X66040000Y-143773000D03*
G04 #@! TD*
D18*
G04 #@! TO.C,R26*
G36*
X73748071Y-153649623D02*
X73780781Y-153654475D01*
X73812857Y-153662509D01*
X73843991Y-153673649D01*
X73873884Y-153687787D01*
X73902247Y-153704787D01*
X73928807Y-153724485D01*
X73953308Y-153746692D01*
X73975515Y-153771193D01*
X73995213Y-153797753D01*
X74012213Y-153826116D01*
X74026351Y-153856009D01*
X74037491Y-153887143D01*
X74045525Y-153919219D01*
X74050377Y-153951929D01*
X74052000Y-153984956D01*
X74052000Y-154861044D01*
X74050377Y-154894071D01*
X74045525Y-154926781D01*
X74037491Y-154958857D01*
X74026351Y-154989991D01*
X74012213Y-155019884D01*
X73995213Y-155048247D01*
X73975515Y-155074807D01*
X73953308Y-155099308D01*
X73928807Y-155121515D01*
X73902247Y-155141213D01*
X73873884Y-155158213D01*
X73843991Y-155172351D01*
X73812857Y-155183491D01*
X73780781Y-155191525D01*
X73748071Y-155196377D01*
X73715044Y-155198000D01*
X72588956Y-155198000D01*
X72555929Y-155196377D01*
X72523219Y-155191525D01*
X72491143Y-155183491D01*
X72460009Y-155172351D01*
X72430116Y-155158213D01*
X72401753Y-155141213D01*
X72375193Y-155121515D01*
X72350692Y-155099308D01*
X72328485Y-155074807D01*
X72308787Y-155048247D01*
X72291787Y-155019884D01*
X72277649Y-154989991D01*
X72266509Y-154958857D01*
X72258475Y-154926781D01*
X72253623Y-154894071D01*
X72252000Y-154861044D01*
X72252000Y-153984956D01*
X72253623Y-153951929D01*
X72258475Y-153919219D01*
X72266509Y-153887143D01*
X72277649Y-153856009D01*
X72291787Y-153826116D01*
X72308787Y-153797753D01*
X72328485Y-153771193D01*
X72350692Y-153746692D01*
X72375193Y-153724485D01*
X72401753Y-153704787D01*
X72430116Y-153687787D01*
X72460009Y-153673649D01*
X72491143Y-153662509D01*
X72523219Y-153654475D01*
X72555929Y-153649623D01*
X72588956Y-153648000D01*
X73715044Y-153648000D01*
X73748071Y-153649623D01*
X73748071Y-153649623D01*
G37*
D19*
X73152000Y-154423000D03*
D18*
G36*
X73748071Y-155699623D02*
X73780781Y-155704475D01*
X73812857Y-155712509D01*
X73843991Y-155723649D01*
X73873884Y-155737787D01*
X73902247Y-155754787D01*
X73928807Y-155774485D01*
X73953308Y-155796692D01*
X73975515Y-155821193D01*
X73995213Y-155847753D01*
X74012213Y-155876116D01*
X74026351Y-155906009D01*
X74037491Y-155937143D01*
X74045525Y-155969219D01*
X74050377Y-156001929D01*
X74052000Y-156034956D01*
X74052000Y-156911044D01*
X74050377Y-156944071D01*
X74045525Y-156976781D01*
X74037491Y-157008857D01*
X74026351Y-157039991D01*
X74012213Y-157069884D01*
X73995213Y-157098247D01*
X73975515Y-157124807D01*
X73953308Y-157149308D01*
X73928807Y-157171515D01*
X73902247Y-157191213D01*
X73873884Y-157208213D01*
X73843991Y-157222351D01*
X73812857Y-157233491D01*
X73780781Y-157241525D01*
X73748071Y-157246377D01*
X73715044Y-157248000D01*
X72588956Y-157248000D01*
X72555929Y-157246377D01*
X72523219Y-157241525D01*
X72491143Y-157233491D01*
X72460009Y-157222351D01*
X72430116Y-157208213D01*
X72401753Y-157191213D01*
X72375193Y-157171515D01*
X72350692Y-157149308D01*
X72328485Y-157124807D01*
X72308787Y-157098247D01*
X72291787Y-157069884D01*
X72277649Y-157039991D01*
X72266509Y-157008857D01*
X72258475Y-156976781D01*
X72253623Y-156944071D01*
X72252000Y-156911044D01*
X72252000Y-156034956D01*
X72253623Y-156001929D01*
X72258475Y-155969219D01*
X72266509Y-155937143D01*
X72277649Y-155906009D01*
X72291787Y-155876116D01*
X72308787Y-155847753D01*
X72328485Y-155821193D01*
X72350692Y-155796692D01*
X72375193Y-155774485D01*
X72401753Y-155754787D01*
X72430116Y-155737787D01*
X72460009Y-155723649D01*
X72491143Y-155712509D01*
X72523219Y-155704475D01*
X72555929Y-155699623D01*
X72588956Y-155698000D01*
X73715044Y-155698000D01*
X73748071Y-155699623D01*
X73748071Y-155699623D01*
G37*
D19*
X73152000Y-156473000D03*
G04 #@! TD*
D18*
G04 #@! TO.C,R27*
G36*
X84300071Y-159121623D02*
X84332781Y-159126475D01*
X84364857Y-159134509D01*
X84395991Y-159145649D01*
X84425884Y-159159787D01*
X84454247Y-159176787D01*
X84480807Y-159196485D01*
X84505308Y-159218692D01*
X84527515Y-159243193D01*
X84547213Y-159269753D01*
X84564213Y-159298116D01*
X84578351Y-159328009D01*
X84589491Y-159359143D01*
X84597525Y-159391219D01*
X84602377Y-159423929D01*
X84604000Y-159456956D01*
X84604000Y-160583044D01*
X84602377Y-160616071D01*
X84597525Y-160648781D01*
X84589491Y-160680857D01*
X84578351Y-160711991D01*
X84564213Y-160741884D01*
X84547213Y-160770247D01*
X84527515Y-160796807D01*
X84505308Y-160821308D01*
X84480807Y-160843515D01*
X84454247Y-160863213D01*
X84425884Y-160880213D01*
X84395991Y-160894351D01*
X84364857Y-160905491D01*
X84332781Y-160913525D01*
X84300071Y-160918377D01*
X84267044Y-160920000D01*
X83390956Y-160920000D01*
X83357929Y-160918377D01*
X83325219Y-160913525D01*
X83293143Y-160905491D01*
X83262009Y-160894351D01*
X83232116Y-160880213D01*
X83203753Y-160863213D01*
X83177193Y-160843515D01*
X83152692Y-160821308D01*
X83130485Y-160796807D01*
X83110787Y-160770247D01*
X83093787Y-160741884D01*
X83079649Y-160711991D01*
X83068509Y-160680857D01*
X83060475Y-160648781D01*
X83055623Y-160616071D01*
X83054000Y-160583044D01*
X83054000Y-159456956D01*
X83055623Y-159423929D01*
X83060475Y-159391219D01*
X83068509Y-159359143D01*
X83079649Y-159328009D01*
X83093787Y-159298116D01*
X83110787Y-159269753D01*
X83130485Y-159243193D01*
X83152692Y-159218692D01*
X83177193Y-159196485D01*
X83203753Y-159176787D01*
X83232116Y-159159787D01*
X83262009Y-159145649D01*
X83293143Y-159134509D01*
X83325219Y-159126475D01*
X83357929Y-159121623D01*
X83390956Y-159120000D01*
X84267044Y-159120000D01*
X84300071Y-159121623D01*
X84300071Y-159121623D01*
G37*
D19*
X83829000Y-160020000D03*
D18*
G36*
X82250071Y-159121623D02*
X82282781Y-159126475D01*
X82314857Y-159134509D01*
X82345991Y-159145649D01*
X82375884Y-159159787D01*
X82404247Y-159176787D01*
X82430807Y-159196485D01*
X82455308Y-159218692D01*
X82477515Y-159243193D01*
X82497213Y-159269753D01*
X82514213Y-159298116D01*
X82528351Y-159328009D01*
X82539491Y-159359143D01*
X82547525Y-159391219D01*
X82552377Y-159423929D01*
X82554000Y-159456956D01*
X82554000Y-160583044D01*
X82552377Y-160616071D01*
X82547525Y-160648781D01*
X82539491Y-160680857D01*
X82528351Y-160711991D01*
X82514213Y-160741884D01*
X82497213Y-160770247D01*
X82477515Y-160796807D01*
X82455308Y-160821308D01*
X82430807Y-160843515D01*
X82404247Y-160863213D01*
X82375884Y-160880213D01*
X82345991Y-160894351D01*
X82314857Y-160905491D01*
X82282781Y-160913525D01*
X82250071Y-160918377D01*
X82217044Y-160920000D01*
X81340956Y-160920000D01*
X81307929Y-160918377D01*
X81275219Y-160913525D01*
X81243143Y-160905491D01*
X81212009Y-160894351D01*
X81182116Y-160880213D01*
X81153753Y-160863213D01*
X81127193Y-160843515D01*
X81102692Y-160821308D01*
X81080485Y-160796807D01*
X81060787Y-160770247D01*
X81043787Y-160741884D01*
X81029649Y-160711991D01*
X81018509Y-160680857D01*
X81010475Y-160648781D01*
X81005623Y-160616071D01*
X81004000Y-160583044D01*
X81004000Y-159456956D01*
X81005623Y-159423929D01*
X81010475Y-159391219D01*
X81018509Y-159359143D01*
X81029649Y-159328009D01*
X81043787Y-159298116D01*
X81060787Y-159269753D01*
X81080485Y-159243193D01*
X81102692Y-159218692D01*
X81127193Y-159196485D01*
X81153753Y-159176787D01*
X81182116Y-159159787D01*
X81212009Y-159145649D01*
X81243143Y-159134509D01*
X81275219Y-159126475D01*
X81307929Y-159121623D01*
X81340956Y-159120000D01*
X82217044Y-159120000D01*
X82250071Y-159121623D01*
X82250071Y-159121623D01*
G37*
D19*
X81779000Y-160020000D03*
G04 #@! TD*
D18*
G04 #@! TO.C,R29*
G36*
X137123071Y-119751623D02*
X137155781Y-119756475D01*
X137187857Y-119764509D01*
X137218991Y-119775649D01*
X137248884Y-119789787D01*
X137277247Y-119806787D01*
X137303807Y-119826485D01*
X137328308Y-119848692D01*
X137350515Y-119873193D01*
X137370213Y-119899753D01*
X137387213Y-119928116D01*
X137401351Y-119958009D01*
X137412491Y-119989143D01*
X137420525Y-120021219D01*
X137425377Y-120053929D01*
X137427000Y-120086956D01*
X137427000Y-121213044D01*
X137425377Y-121246071D01*
X137420525Y-121278781D01*
X137412491Y-121310857D01*
X137401351Y-121341991D01*
X137387213Y-121371884D01*
X137370213Y-121400247D01*
X137350515Y-121426807D01*
X137328308Y-121451308D01*
X137303807Y-121473515D01*
X137277247Y-121493213D01*
X137248884Y-121510213D01*
X137218991Y-121524351D01*
X137187857Y-121535491D01*
X137155781Y-121543525D01*
X137123071Y-121548377D01*
X137090044Y-121550000D01*
X136213956Y-121550000D01*
X136180929Y-121548377D01*
X136148219Y-121543525D01*
X136116143Y-121535491D01*
X136085009Y-121524351D01*
X136055116Y-121510213D01*
X136026753Y-121493213D01*
X136000193Y-121473515D01*
X135975692Y-121451308D01*
X135953485Y-121426807D01*
X135933787Y-121400247D01*
X135916787Y-121371884D01*
X135902649Y-121341991D01*
X135891509Y-121310857D01*
X135883475Y-121278781D01*
X135878623Y-121246071D01*
X135877000Y-121213044D01*
X135877000Y-120086956D01*
X135878623Y-120053929D01*
X135883475Y-120021219D01*
X135891509Y-119989143D01*
X135902649Y-119958009D01*
X135916787Y-119928116D01*
X135933787Y-119899753D01*
X135953485Y-119873193D01*
X135975692Y-119848692D01*
X136000193Y-119826485D01*
X136026753Y-119806787D01*
X136055116Y-119789787D01*
X136085009Y-119775649D01*
X136116143Y-119764509D01*
X136148219Y-119756475D01*
X136180929Y-119751623D01*
X136213956Y-119750000D01*
X137090044Y-119750000D01*
X137123071Y-119751623D01*
X137123071Y-119751623D01*
G37*
D19*
X136652000Y-120650000D03*
D18*
G36*
X135073071Y-119751623D02*
X135105781Y-119756475D01*
X135137857Y-119764509D01*
X135168991Y-119775649D01*
X135198884Y-119789787D01*
X135227247Y-119806787D01*
X135253807Y-119826485D01*
X135278308Y-119848692D01*
X135300515Y-119873193D01*
X135320213Y-119899753D01*
X135337213Y-119928116D01*
X135351351Y-119958009D01*
X135362491Y-119989143D01*
X135370525Y-120021219D01*
X135375377Y-120053929D01*
X135377000Y-120086956D01*
X135377000Y-121213044D01*
X135375377Y-121246071D01*
X135370525Y-121278781D01*
X135362491Y-121310857D01*
X135351351Y-121341991D01*
X135337213Y-121371884D01*
X135320213Y-121400247D01*
X135300515Y-121426807D01*
X135278308Y-121451308D01*
X135253807Y-121473515D01*
X135227247Y-121493213D01*
X135198884Y-121510213D01*
X135168991Y-121524351D01*
X135137857Y-121535491D01*
X135105781Y-121543525D01*
X135073071Y-121548377D01*
X135040044Y-121550000D01*
X134163956Y-121550000D01*
X134130929Y-121548377D01*
X134098219Y-121543525D01*
X134066143Y-121535491D01*
X134035009Y-121524351D01*
X134005116Y-121510213D01*
X133976753Y-121493213D01*
X133950193Y-121473515D01*
X133925692Y-121451308D01*
X133903485Y-121426807D01*
X133883787Y-121400247D01*
X133866787Y-121371884D01*
X133852649Y-121341991D01*
X133841509Y-121310857D01*
X133833475Y-121278781D01*
X133828623Y-121246071D01*
X133827000Y-121213044D01*
X133827000Y-120086956D01*
X133828623Y-120053929D01*
X133833475Y-120021219D01*
X133841509Y-119989143D01*
X133852649Y-119958009D01*
X133866787Y-119928116D01*
X133883787Y-119899753D01*
X133903485Y-119873193D01*
X133925692Y-119848692D01*
X133950193Y-119826485D01*
X133976753Y-119806787D01*
X134005116Y-119789787D01*
X134035009Y-119775649D01*
X134066143Y-119764509D01*
X134098219Y-119756475D01*
X134130929Y-119751623D01*
X134163956Y-119750000D01*
X135040044Y-119750000D01*
X135073071Y-119751623D01*
X135073071Y-119751623D01*
G37*
D19*
X134602000Y-120650000D03*
G04 #@! TD*
D18*
G04 #@! TO.C,R30*
G36*
X89888071Y-159375623D02*
X89920781Y-159380475D01*
X89952857Y-159388509D01*
X89983991Y-159399649D01*
X90013884Y-159413787D01*
X90042247Y-159430787D01*
X90068807Y-159450485D01*
X90093308Y-159472692D01*
X90115515Y-159497193D01*
X90135213Y-159523753D01*
X90152213Y-159552116D01*
X90166351Y-159582009D01*
X90177491Y-159613143D01*
X90185525Y-159645219D01*
X90190377Y-159677929D01*
X90192000Y-159710956D01*
X90192000Y-160837044D01*
X90190377Y-160870071D01*
X90185525Y-160902781D01*
X90177491Y-160934857D01*
X90166351Y-160965991D01*
X90152213Y-160995884D01*
X90135213Y-161024247D01*
X90115515Y-161050807D01*
X90093308Y-161075308D01*
X90068807Y-161097515D01*
X90042247Y-161117213D01*
X90013884Y-161134213D01*
X89983991Y-161148351D01*
X89952857Y-161159491D01*
X89920781Y-161167525D01*
X89888071Y-161172377D01*
X89855044Y-161174000D01*
X88978956Y-161174000D01*
X88945929Y-161172377D01*
X88913219Y-161167525D01*
X88881143Y-161159491D01*
X88850009Y-161148351D01*
X88820116Y-161134213D01*
X88791753Y-161117213D01*
X88765193Y-161097515D01*
X88740692Y-161075308D01*
X88718485Y-161050807D01*
X88698787Y-161024247D01*
X88681787Y-160995884D01*
X88667649Y-160965991D01*
X88656509Y-160934857D01*
X88648475Y-160902781D01*
X88643623Y-160870071D01*
X88642000Y-160837044D01*
X88642000Y-159710956D01*
X88643623Y-159677929D01*
X88648475Y-159645219D01*
X88656509Y-159613143D01*
X88667649Y-159582009D01*
X88681787Y-159552116D01*
X88698787Y-159523753D01*
X88718485Y-159497193D01*
X88740692Y-159472692D01*
X88765193Y-159450485D01*
X88791753Y-159430787D01*
X88820116Y-159413787D01*
X88850009Y-159399649D01*
X88881143Y-159388509D01*
X88913219Y-159380475D01*
X88945929Y-159375623D01*
X88978956Y-159374000D01*
X89855044Y-159374000D01*
X89888071Y-159375623D01*
X89888071Y-159375623D01*
G37*
D19*
X89417000Y-160274000D03*
D18*
G36*
X87838071Y-159375623D02*
X87870781Y-159380475D01*
X87902857Y-159388509D01*
X87933991Y-159399649D01*
X87963884Y-159413787D01*
X87992247Y-159430787D01*
X88018807Y-159450485D01*
X88043308Y-159472692D01*
X88065515Y-159497193D01*
X88085213Y-159523753D01*
X88102213Y-159552116D01*
X88116351Y-159582009D01*
X88127491Y-159613143D01*
X88135525Y-159645219D01*
X88140377Y-159677929D01*
X88142000Y-159710956D01*
X88142000Y-160837044D01*
X88140377Y-160870071D01*
X88135525Y-160902781D01*
X88127491Y-160934857D01*
X88116351Y-160965991D01*
X88102213Y-160995884D01*
X88085213Y-161024247D01*
X88065515Y-161050807D01*
X88043308Y-161075308D01*
X88018807Y-161097515D01*
X87992247Y-161117213D01*
X87963884Y-161134213D01*
X87933991Y-161148351D01*
X87902857Y-161159491D01*
X87870781Y-161167525D01*
X87838071Y-161172377D01*
X87805044Y-161174000D01*
X86928956Y-161174000D01*
X86895929Y-161172377D01*
X86863219Y-161167525D01*
X86831143Y-161159491D01*
X86800009Y-161148351D01*
X86770116Y-161134213D01*
X86741753Y-161117213D01*
X86715193Y-161097515D01*
X86690692Y-161075308D01*
X86668485Y-161050807D01*
X86648787Y-161024247D01*
X86631787Y-160995884D01*
X86617649Y-160965991D01*
X86606509Y-160934857D01*
X86598475Y-160902781D01*
X86593623Y-160870071D01*
X86592000Y-160837044D01*
X86592000Y-159710956D01*
X86593623Y-159677929D01*
X86598475Y-159645219D01*
X86606509Y-159613143D01*
X86617649Y-159582009D01*
X86631787Y-159552116D01*
X86648787Y-159523753D01*
X86668485Y-159497193D01*
X86690692Y-159472692D01*
X86715193Y-159450485D01*
X86741753Y-159430787D01*
X86770116Y-159413787D01*
X86800009Y-159399649D01*
X86831143Y-159388509D01*
X86863219Y-159380475D01*
X86895929Y-159375623D01*
X86928956Y-159374000D01*
X87805044Y-159374000D01*
X87838071Y-159375623D01*
X87838071Y-159375623D01*
G37*
D19*
X87367000Y-160274000D03*
G04 #@! TD*
D18*
G04 #@! TO.C,R32*
G36*
X77950071Y-161915623D02*
X77982781Y-161920475D01*
X78014857Y-161928509D01*
X78045991Y-161939649D01*
X78075884Y-161953787D01*
X78104247Y-161970787D01*
X78130807Y-161990485D01*
X78155308Y-162012692D01*
X78177515Y-162037193D01*
X78197213Y-162063753D01*
X78214213Y-162092116D01*
X78228351Y-162122009D01*
X78239491Y-162153143D01*
X78247525Y-162185219D01*
X78252377Y-162217929D01*
X78254000Y-162250956D01*
X78254000Y-163377044D01*
X78252377Y-163410071D01*
X78247525Y-163442781D01*
X78239491Y-163474857D01*
X78228351Y-163505991D01*
X78214213Y-163535884D01*
X78197213Y-163564247D01*
X78177515Y-163590807D01*
X78155308Y-163615308D01*
X78130807Y-163637515D01*
X78104247Y-163657213D01*
X78075884Y-163674213D01*
X78045991Y-163688351D01*
X78014857Y-163699491D01*
X77982781Y-163707525D01*
X77950071Y-163712377D01*
X77917044Y-163714000D01*
X77040956Y-163714000D01*
X77007929Y-163712377D01*
X76975219Y-163707525D01*
X76943143Y-163699491D01*
X76912009Y-163688351D01*
X76882116Y-163674213D01*
X76853753Y-163657213D01*
X76827193Y-163637515D01*
X76802692Y-163615308D01*
X76780485Y-163590807D01*
X76760787Y-163564247D01*
X76743787Y-163535884D01*
X76729649Y-163505991D01*
X76718509Y-163474857D01*
X76710475Y-163442781D01*
X76705623Y-163410071D01*
X76704000Y-163377044D01*
X76704000Y-162250956D01*
X76705623Y-162217929D01*
X76710475Y-162185219D01*
X76718509Y-162153143D01*
X76729649Y-162122009D01*
X76743787Y-162092116D01*
X76760787Y-162063753D01*
X76780485Y-162037193D01*
X76802692Y-162012692D01*
X76827193Y-161990485D01*
X76853753Y-161970787D01*
X76882116Y-161953787D01*
X76912009Y-161939649D01*
X76943143Y-161928509D01*
X76975219Y-161920475D01*
X77007929Y-161915623D01*
X77040956Y-161914000D01*
X77917044Y-161914000D01*
X77950071Y-161915623D01*
X77950071Y-161915623D01*
G37*
D19*
X77479000Y-162814000D03*
D18*
G36*
X75900071Y-161915623D02*
X75932781Y-161920475D01*
X75964857Y-161928509D01*
X75995991Y-161939649D01*
X76025884Y-161953787D01*
X76054247Y-161970787D01*
X76080807Y-161990485D01*
X76105308Y-162012692D01*
X76127515Y-162037193D01*
X76147213Y-162063753D01*
X76164213Y-162092116D01*
X76178351Y-162122009D01*
X76189491Y-162153143D01*
X76197525Y-162185219D01*
X76202377Y-162217929D01*
X76204000Y-162250956D01*
X76204000Y-163377044D01*
X76202377Y-163410071D01*
X76197525Y-163442781D01*
X76189491Y-163474857D01*
X76178351Y-163505991D01*
X76164213Y-163535884D01*
X76147213Y-163564247D01*
X76127515Y-163590807D01*
X76105308Y-163615308D01*
X76080807Y-163637515D01*
X76054247Y-163657213D01*
X76025884Y-163674213D01*
X75995991Y-163688351D01*
X75964857Y-163699491D01*
X75932781Y-163707525D01*
X75900071Y-163712377D01*
X75867044Y-163714000D01*
X74990956Y-163714000D01*
X74957929Y-163712377D01*
X74925219Y-163707525D01*
X74893143Y-163699491D01*
X74862009Y-163688351D01*
X74832116Y-163674213D01*
X74803753Y-163657213D01*
X74777193Y-163637515D01*
X74752692Y-163615308D01*
X74730485Y-163590807D01*
X74710787Y-163564247D01*
X74693787Y-163535884D01*
X74679649Y-163505991D01*
X74668509Y-163474857D01*
X74660475Y-163442781D01*
X74655623Y-163410071D01*
X74654000Y-163377044D01*
X74654000Y-162250956D01*
X74655623Y-162217929D01*
X74660475Y-162185219D01*
X74668509Y-162153143D01*
X74679649Y-162122009D01*
X74693787Y-162092116D01*
X74710787Y-162063753D01*
X74730485Y-162037193D01*
X74752692Y-162012692D01*
X74777193Y-161990485D01*
X74803753Y-161970787D01*
X74832116Y-161953787D01*
X74862009Y-161939649D01*
X74893143Y-161928509D01*
X74925219Y-161920475D01*
X74957929Y-161915623D01*
X74990956Y-161914000D01*
X75867044Y-161914000D01*
X75900071Y-161915623D01*
X75900071Y-161915623D01*
G37*
D19*
X75429000Y-162814000D03*
G04 #@! TD*
D18*
G04 #@! TO.C,R33*
G36*
X76288071Y-165324623D02*
X76320781Y-165329475D01*
X76352857Y-165337509D01*
X76383991Y-165348649D01*
X76413884Y-165362787D01*
X76442247Y-165379787D01*
X76468807Y-165399485D01*
X76493308Y-165421692D01*
X76515515Y-165446193D01*
X76535213Y-165472753D01*
X76552213Y-165501116D01*
X76566351Y-165531009D01*
X76577491Y-165562143D01*
X76585525Y-165594219D01*
X76590377Y-165626929D01*
X76592000Y-165659956D01*
X76592000Y-166536044D01*
X76590377Y-166569071D01*
X76585525Y-166601781D01*
X76577491Y-166633857D01*
X76566351Y-166664991D01*
X76552213Y-166694884D01*
X76535213Y-166723247D01*
X76515515Y-166749807D01*
X76493308Y-166774308D01*
X76468807Y-166796515D01*
X76442247Y-166816213D01*
X76413884Y-166833213D01*
X76383991Y-166847351D01*
X76352857Y-166858491D01*
X76320781Y-166866525D01*
X76288071Y-166871377D01*
X76255044Y-166873000D01*
X75128956Y-166873000D01*
X75095929Y-166871377D01*
X75063219Y-166866525D01*
X75031143Y-166858491D01*
X75000009Y-166847351D01*
X74970116Y-166833213D01*
X74941753Y-166816213D01*
X74915193Y-166796515D01*
X74890692Y-166774308D01*
X74868485Y-166749807D01*
X74848787Y-166723247D01*
X74831787Y-166694884D01*
X74817649Y-166664991D01*
X74806509Y-166633857D01*
X74798475Y-166601781D01*
X74793623Y-166569071D01*
X74792000Y-166536044D01*
X74792000Y-165659956D01*
X74793623Y-165626929D01*
X74798475Y-165594219D01*
X74806509Y-165562143D01*
X74817649Y-165531009D01*
X74831787Y-165501116D01*
X74848787Y-165472753D01*
X74868485Y-165446193D01*
X74890692Y-165421692D01*
X74915193Y-165399485D01*
X74941753Y-165379787D01*
X74970116Y-165362787D01*
X75000009Y-165348649D01*
X75031143Y-165337509D01*
X75063219Y-165329475D01*
X75095929Y-165324623D01*
X75128956Y-165323000D01*
X76255044Y-165323000D01*
X76288071Y-165324623D01*
X76288071Y-165324623D01*
G37*
D19*
X75692000Y-166098000D03*
D18*
G36*
X76288071Y-167374623D02*
X76320781Y-167379475D01*
X76352857Y-167387509D01*
X76383991Y-167398649D01*
X76413884Y-167412787D01*
X76442247Y-167429787D01*
X76468807Y-167449485D01*
X76493308Y-167471692D01*
X76515515Y-167496193D01*
X76535213Y-167522753D01*
X76552213Y-167551116D01*
X76566351Y-167581009D01*
X76577491Y-167612143D01*
X76585525Y-167644219D01*
X76590377Y-167676929D01*
X76592000Y-167709956D01*
X76592000Y-168586044D01*
X76590377Y-168619071D01*
X76585525Y-168651781D01*
X76577491Y-168683857D01*
X76566351Y-168714991D01*
X76552213Y-168744884D01*
X76535213Y-168773247D01*
X76515515Y-168799807D01*
X76493308Y-168824308D01*
X76468807Y-168846515D01*
X76442247Y-168866213D01*
X76413884Y-168883213D01*
X76383991Y-168897351D01*
X76352857Y-168908491D01*
X76320781Y-168916525D01*
X76288071Y-168921377D01*
X76255044Y-168923000D01*
X75128956Y-168923000D01*
X75095929Y-168921377D01*
X75063219Y-168916525D01*
X75031143Y-168908491D01*
X75000009Y-168897351D01*
X74970116Y-168883213D01*
X74941753Y-168866213D01*
X74915193Y-168846515D01*
X74890692Y-168824308D01*
X74868485Y-168799807D01*
X74848787Y-168773247D01*
X74831787Y-168744884D01*
X74817649Y-168714991D01*
X74806509Y-168683857D01*
X74798475Y-168651781D01*
X74793623Y-168619071D01*
X74792000Y-168586044D01*
X74792000Y-167709956D01*
X74793623Y-167676929D01*
X74798475Y-167644219D01*
X74806509Y-167612143D01*
X74817649Y-167581009D01*
X74831787Y-167551116D01*
X74848787Y-167522753D01*
X74868485Y-167496193D01*
X74890692Y-167471692D01*
X74915193Y-167449485D01*
X74941753Y-167429787D01*
X74970116Y-167412787D01*
X75000009Y-167398649D01*
X75031143Y-167387509D01*
X75063219Y-167379475D01*
X75095929Y-167374623D01*
X75128956Y-167373000D01*
X76255044Y-167373000D01*
X76288071Y-167374623D01*
X76288071Y-167374623D01*
G37*
D19*
X75692000Y-168148000D03*
G04 #@! TD*
D18*
G04 #@! TO.C,R34*
G36*
X80098071Y-165351623D02*
X80130781Y-165356475D01*
X80162857Y-165364509D01*
X80193991Y-165375649D01*
X80223884Y-165389787D01*
X80252247Y-165406787D01*
X80278807Y-165426485D01*
X80303308Y-165448692D01*
X80325515Y-165473193D01*
X80345213Y-165499753D01*
X80362213Y-165528116D01*
X80376351Y-165558009D01*
X80387491Y-165589143D01*
X80395525Y-165621219D01*
X80400377Y-165653929D01*
X80402000Y-165686956D01*
X80402000Y-166563044D01*
X80400377Y-166596071D01*
X80395525Y-166628781D01*
X80387491Y-166660857D01*
X80376351Y-166691991D01*
X80362213Y-166721884D01*
X80345213Y-166750247D01*
X80325515Y-166776807D01*
X80303308Y-166801308D01*
X80278807Y-166823515D01*
X80252247Y-166843213D01*
X80223884Y-166860213D01*
X80193991Y-166874351D01*
X80162857Y-166885491D01*
X80130781Y-166893525D01*
X80098071Y-166898377D01*
X80065044Y-166900000D01*
X78938956Y-166900000D01*
X78905929Y-166898377D01*
X78873219Y-166893525D01*
X78841143Y-166885491D01*
X78810009Y-166874351D01*
X78780116Y-166860213D01*
X78751753Y-166843213D01*
X78725193Y-166823515D01*
X78700692Y-166801308D01*
X78678485Y-166776807D01*
X78658787Y-166750247D01*
X78641787Y-166721884D01*
X78627649Y-166691991D01*
X78616509Y-166660857D01*
X78608475Y-166628781D01*
X78603623Y-166596071D01*
X78602000Y-166563044D01*
X78602000Y-165686956D01*
X78603623Y-165653929D01*
X78608475Y-165621219D01*
X78616509Y-165589143D01*
X78627649Y-165558009D01*
X78641787Y-165528116D01*
X78658787Y-165499753D01*
X78678485Y-165473193D01*
X78700692Y-165448692D01*
X78725193Y-165426485D01*
X78751753Y-165406787D01*
X78780116Y-165389787D01*
X78810009Y-165375649D01*
X78841143Y-165364509D01*
X78873219Y-165356475D01*
X78905929Y-165351623D01*
X78938956Y-165350000D01*
X80065044Y-165350000D01*
X80098071Y-165351623D01*
X80098071Y-165351623D01*
G37*
D19*
X79502000Y-166125000D03*
D18*
G36*
X80098071Y-163301623D02*
X80130781Y-163306475D01*
X80162857Y-163314509D01*
X80193991Y-163325649D01*
X80223884Y-163339787D01*
X80252247Y-163356787D01*
X80278807Y-163376485D01*
X80303308Y-163398692D01*
X80325515Y-163423193D01*
X80345213Y-163449753D01*
X80362213Y-163478116D01*
X80376351Y-163508009D01*
X80387491Y-163539143D01*
X80395525Y-163571219D01*
X80400377Y-163603929D01*
X80402000Y-163636956D01*
X80402000Y-164513044D01*
X80400377Y-164546071D01*
X80395525Y-164578781D01*
X80387491Y-164610857D01*
X80376351Y-164641991D01*
X80362213Y-164671884D01*
X80345213Y-164700247D01*
X80325515Y-164726807D01*
X80303308Y-164751308D01*
X80278807Y-164773515D01*
X80252247Y-164793213D01*
X80223884Y-164810213D01*
X80193991Y-164824351D01*
X80162857Y-164835491D01*
X80130781Y-164843525D01*
X80098071Y-164848377D01*
X80065044Y-164850000D01*
X78938956Y-164850000D01*
X78905929Y-164848377D01*
X78873219Y-164843525D01*
X78841143Y-164835491D01*
X78810009Y-164824351D01*
X78780116Y-164810213D01*
X78751753Y-164793213D01*
X78725193Y-164773515D01*
X78700692Y-164751308D01*
X78678485Y-164726807D01*
X78658787Y-164700247D01*
X78641787Y-164671884D01*
X78627649Y-164641991D01*
X78616509Y-164610857D01*
X78608475Y-164578781D01*
X78603623Y-164546071D01*
X78602000Y-164513044D01*
X78602000Y-163636956D01*
X78603623Y-163603929D01*
X78608475Y-163571219D01*
X78616509Y-163539143D01*
X78627649Y-163508009D01*
X78641787Y-163478116D01*
X78658787Y-163449753D01*
X78678485Y-163423193D01*
X78700692Y-163398692D01*
X78725193Y-163376485D01*
X78751753Y-163356787D01*
X78780116Y-163339787D01*
X78810009Y-163325649D01*
X78841143Y-163314509D01*
X78873219Y-163306475D01*
X78905929Y-163301623D01*
X78938956Y-163300000D01*
X80065044Y-163300000D01*
X80098071Y-163301623D01*
X80098071Y-163301623D01*
G37*
D19*
X79502000Y-164075000D03*
G04 #@! TD*
D18*
G04 #@! TO.C,R35*
G36*
X130390071Y-115304623D02*
X130422781Y-115309475D01*
X130454857Y-115317509D01*
X130485991Y-115328649D01*
X130515884Y-115342787D01*
X130544247Y-115359787D01*
X130570807Y-115379485D01*
X130595308Y-115401692D01*
X130617515Y-115426193D01*
X130637213Y-115452753D01*
X130654213Y-115481116D01*
X130668351Y-115511009D01*
X130679491Y-115542143D01*
X130687525Y-115574219D01*
X130692377Y-115606929D01*
X130694000Y-115639956D01*
X130694000Y-116516044D01*
X130692377Y-116549071D01*
X130687525Y-116581781D01*
X130679491Y-116613857D01*
X130668351Y-116644991D01*
X130654213Y-116674884D01*
X130637213Y-116703247D01*
X130617515Y-116729807D01*
X130595308Y-116754308D01*
X130570807Y-116776515D01*
X130544247Y-116796213D01*
X130515884Y-116813213D01*
X130485991Y-116827351D01*
X130454857Y-116838491D01*
X130422781Y-116846525D01*
X130390071Y-116851377D01*
X130357044Y-116853000D01*
X129230956Y-116853000D01*
X129197929Y-116851377D01*
X129165219Y-116846525D01*
X129133143Y-116838491D01*
X129102009Y-116827351D01*
X129072116Y-116813213D01*
X129043753Y-116796213D01*
X129017193Y-116776515D01*
X128992692Y-116754308D01*
X128970485Y-116729807D01*
X128950787Y-116703247D01*
X128933787Y-116674884D01*
X128919649Y-116644991D01*
X128908509Y-116613857D01*
X128900475Y-116581781D01*
X128895623Y-116549071D01*
X128894000Y-116516044D01*
X128894000Y-115639956D01*
X128895623Y-115606929D01*
X128900475Y-115574219D01*
X128908509Y-115542143D01*
X128919649Y-115511009D01*
X128933787Y-115481116D01*
X128950787Y-115452753D01*
X128970485Y-115426193D01*
X128992692Y-115401692D01*
X129017193Y-115379485D01*
X129043753Y-115359787D01*
X129072116Y-115342787D01*
X129102009Y-115328649D01*
X129133143Y-115317509D01*
X129165219Y-115309475D01*
X129197929Y-115304623D01*
X129230956Y-115303000D01*
X130357044Y-115303000D01*
X130390071Y-115304623D01*
X130390071Y-115304623D01*
G37*
D19*
X129794000Y-116078000D03*
D18*
G36*
X130390071Y-113254623D02*
X130422781Y-113259475D01*
X130454857Y-113267509D01*
X130485991Y-113278649D01*
X130515884Y-113292787D01*
X130544247Y-113309787D01*
X130570807Y-113329485D01*
X130595308Y-113351692D01*
X130617515Y-113376193D01*
X130637213Y-113402753D01*
X130654213Y-113431116D01*
X130668351Y-113461009D01*
X130679491Y-113492143D01*
X130687525Y-113524219D01*
X130692377Y-113556929D01*
X130694000Y-113589956D01*
X130694000Y-114466044D01*
X130692377Y-114499071D01*
X130687525Y-114531781D01*
X130679491Y-114563857D01*
X130668351Y-114594991D01*
X130654213Y-114624884D01*
X130637213Y-114653247D01*
X130617515Y-114679807D01*
X130595308Y-114704308D01*
X130570807Y-114726515D01*
X130544247Y-114746213D01*
X130515884Y-114763213D01*
X130485991Y-114777351D01*
X130454857Y-114788491D01*
X130422781Y-114796525D01*
X130390071Y-114801377D01*
X130357044Y-114803000D01*
X129230956Y-114803000D01*
X129197929Y-114801377D01*
X129165219Y-114796525D01*
X129133143Y-114788491D01*
X129102009Y-114777351D01*
X129072116Y-114763213D01*
X129043753Y-114746213D01*
X129017193Y-114726515D01*
X128992692Y-114704308D01*
X128970485Y-114679807D01*
X128950787Y-114653247D01*
X128933787Y-114624884D01*
X128919649Y-114594991D01*
X128908509Y-114563857D01*
X128900475Y-114531781D01*
X128895623Y-114499071D01*
X128894000Y-114466044D01*
X128894000Y-113589956D01*
X128895623Y-113556929D01*
X128900475Y-113524219D01*
X128908509Y-113492143D01*
X128919649Y-113461009D01*
X128933787Y-113431116D01*
X128950787Y-113402753D01*
X128970485Y-113376193D01*
X128992692Y-113351692D01*
X129017193Y-113329485D01*
X129043753Y-113309787D01*
X129072116Y-113292787D01*
X129102009Y-113278649D01*
X129133143Y-113267509D01*
X129165219Y-113259475D01*
X129197929Y-113254623D01*
X129230956Y-113253000D01*
X130357044Y-113253000D01*
X130390071Y-113254623D01*
X130390071Y-113254623D01*
G37*
D19*
X129794000Y-114028000D03*
G04 #@! TD*
D22*
G04 #@! TO.C,RANGE1*
X124460000Y-110744000D03*
X121920000Y-108204000D03*
X119380000Y-110744000D03*
G04 #@! TD*
D10*
G04 #@! TO.C,TIGHT*
X118730000Y-132720000D03*
X118730000Y-141520000D03*
D11*
X125730000Y-134620000D03*
X125730000Y-137120000D03*
X125730000Y-139620000D03*
G04 #@! TD*
D27*
G04 #@! TO.C,TRBLD1*
X77470000Y-132715000D03*
X77470000Y-125095000D03*
X74930000Y-132715000D03*
X74930000Y-125095000D03*
G04 #@! TD*
D11*
G04 #@! TO.C,TREBLE*
X125730000Y-154225000D03*
X125730000Y-151725000D03*
X125730000Y-149225000D03*
D10*
X118730000Y-156125000D03*
X118730000Y-147325000D03*
G04 #@! TD*
D28*
G04 #@! TO.C,U2*
X79408000Y-145669000D03*
X79408000Y-144399000D03*
X79408000Y-143129000D03*
X79408000Y-141859000D03*
X74008000Y-141859000D03*
X74008000Y-143129000D03*
X74008000Y-144399000D03*
X74008000Y-145669000D03*
G04 #@! TD*
G04 #@! TO.C,U3*
X65692000Y-159385000D03*
X65692000Y-158115000D03*
X65692000Y-156845000D03*
X65692000Y-155575000D03*
X60292000Y-155575000D03*
X60292000Y-156845000D03*
X60292000Y-158115000D03*
X60292000Y-159385000D03*
G04 #@! TD*
G04 #@! TO.C,U4*
X67089000Y-146685000D03*
X67089000Y-147955000D03*
X67089000Y-149225000D03*
X67089000Y-150495000D03*
X61689000Y-150495000D03*
X61689000Y-149225000D03*
X61689000Y-147955000D03*
X61689000Y-146685000D03*
G04 #@! TD*
D11*
G04 #@! TO.C,VOL*
X125730000Y-125015000D03*
X125730000Y-122515000D03*
X125730000Y-120015000D03*
D10*
X118730000Y-126915000D03*
X118730000Y-118115000D03*
G04 #@! TD*
D29*
G04 #@! TO.C,REF\002A\002A*
X114300000Y-109220000D03*
G04 #@! TD*
G04 #@! TO.C,REF\002A\002A*
X108585000Y-183515000D03*
G04 #@! TD*
D18*
G04 #@! TO.C,R36*
G36*
X122516071Y-123178623D02*
X122548781Y-123183475D01*
X122580857Y-123191509D01*
X122611991Y-123202649D01*
X122641884Y-123216787D01*
X122670247Y-123233787D01*
X122696807Y-123253485D01*
X122721308Y-123275692D01*
X122743515Y-123300193D01*
X122763213Y-123326753D01*
X122780213Y-123355116D01*
X122794351Y-123385009D01*
X122805491Y-123416143D01*
X122813525Y-123448219D01*
X122818377Y-123480929D01*
X122820000Y-123513956D01*
X122820000Y-124390044D01*
X122818377Y-124423071D01*
X122813525Y-124455781D01*
X122805491Y-124487857D01*
X122794351Y-124518991D01*
X122780213Y-124548884D01*
X122763213Y-124577247D01*
X122743515Y-124603807D01*
X122721308Y-124628308D01*
X122696807Y-124650515D01*
X122670247Y-124670213D01*
X122641884Y-124687213D01*
X122611991Y-124701351D01*
X122580857Y-124712491D01*
X122548781Y-124720525D01*
X122516071Y-124725377D01*
X122483044Y-124727000D01*
X121356956Y-124727000D01*
X121323929Y-124725377D01*
X121291219Y-124720525D01*
X121259143Y-124712491D01*
X121228009Y-124701351D01*
X121198116Y-124687213D01*
X121169753Y-124670213D01*
X121143193Y-124650515D01*
X121118692Y-124628308D01*
X121096485Y-124603807D01*
X121076787Y-124577247D01*
X121059787Y-124548884D01*
X121045649Y-124518991D01*
X121034509Y-124487857D01*
X121026475Y-124455781D01*
X121021623Y-124423071D01*
X121020000Y-124390044D01*
X121020000Y-123513956D01*
X121021623Y-123480929D01*
X121026475Y-123448219D01*
X121034509Y-123416143D01*
X121045649Y-123385009D01*
X121059787Y-123355116D01*
X121076787Y-123326753D01*
X121096485Y-123300193D01*
X121118692Y-123275692D01*
X121143193Y-123253485D01*
X121169753Y-123233787D01*
X121198116Y-123216787D01*
X121228009Y-123202649D01*
X121259143Y-123191509D01*
X121291219Y-123183475D01*
X121323929Y-123178623D01*
X121356956Y-123177000D01*
X122483044Y-123177000D01*
X122516071Y-123178623D01*
X122516071Y-123178623D01*
G37*
D19*
X121920000Y-123952000D03*
D18*
G36*
X122516071Y-121128623D02*
X122548781Y-121133475D01*
X122580857Y-121141509D01*
X122611991Y-121152649D01*
X122641884Y-121166787D01*
X122670247Y-121183787D01*
X122696807Y-121203485D01*
X122721308Y-121225692D01*
X122743515Y-121250193D01*
X122763213Y-121276753D01*
X122780213Y-121305116D01*
X122794351Y-121335009D01*
X122805491Y-121366143D01*
X122813525Y-121398219D01*
X122818377Y-121430929D01*
X122820000Y-121463956D01*
X122820000Y-122340044D01*
X122818377Y-122373071D01*
X122813525Y-122405781D01*
X122805491Y-122437857D01*
X122794351Y-122468991D01*
X122780213Y-122498884D01*
X122763213Y-122527247D01*
X122743515Y-122553807D01*
X122721308Y-122578308D01*
X122696807Y-122600515D01*
X122670247Y-122620213D01*
X122641884Y-122637213D01*
X122611991Y-122651351D01*
X122580857Y-122662491D01*
X122548781Y-122670525D01*
X122516071Y-122675377D01*
X122483044Y-122677000D01*
X121356956Y-122677000D01*
X121323929Y-122675377D01*
X121291219Y-122670525D01*
X121259143Y-122662491D01*
X121228009Y-122651351D01*
X121198116Y-122637213D01*
X121169753Y-122620213D01*
X121143193Y-122600515D01*
X121118692Y-122578308D01*
X121096485Y-122553807D01*
X121076787Y-122527247D01*
X121059787Y-122498884D01*
X121045649Y-122468991D01*
X121034509Y-122437857D01*
X121026475Y-122405781D01*
X121021623Y-122373071D01*
X121020000Y-122340044D01*
X121020000Y-121463956D01*
X121021623Y-121430929D01*
X121026475Y-121398219D01*
X121034509Y-121366143D01*
X121045649Y-121335009D01*
X121059787Y-121305116D01*
X121076787Y-121276753D01*
X121096485Y-121250193D01*
X121118692Y-121225692D01*
X121143193Y-121203485D01*
X121169753Y-121183787D01*
X121198116Y-121166787D01*
X121228009Y-121152649D01*
X121259143Y-121141509D01*
X121291219Y-121133475D01*
X121323929Y-121128623D01*
X121356956Y-121127000D01*
X122483044Y-121127000D01*
X122516071Y-121128623D01*
X122516071Y-121128623D01*
G37*
D19*
X121920000Y-121902000D03*
G04 #@! TD*
M02*
