G04 #@! TF.GenerationSoftware,KiCad,Pcbnew,(5.0.0)*
G04 #@! TF.CreationDate,2018-10-02T15:30:55-05:00*
G04 #@! TF.ProjectId,FinalDistCircuit,46696E616C4469737443697263756974,rev?*
G04 #@! TF.SameCoordinates,Original*
G04 #@! TF.FileFunction,Copper,L1,Top,Signal*
G04 #@! TF.FilePolarity,Positive*
%FSLAX46Y46*%
G04 Gerber Fmt 4.6, Leading zero omitted, Abs format (unit mm)*
G04 Created by KiCad (PCBNEW (5.0.0)) date 10/02/18 15:30:55*
%MOMM*%
%LPD*%
G01*
G04 APERTURE LIST*
G04 #@! TA.AperFunction,WasherPad*
%ADD10C,4.000000*%
G04 #@! TD*
G04 #@! TA.AperFunction,ComponentPad*
%ADD11C,1.800000*%
G04 #@! TD*
G04 #@! TA.AperFunction,ComponentPad*
%ADD12R,1.600000X1.600000*%
G04 #@! TD*
G04 #@! TA.AperFunction,ComponentPad*
%ADD13C,1.600000*%
G04 #@! TD*
G04 #@! TA.AperFunction,ComponentPad*
%ADD14C,3.810000*%
G04 #@! TD*
G04 #@! TA.AperFunction,ComponentPad*
%ADD15O,1.700000X1.700000*%
G04 #@! TD*
G04 #@! TA.AperFunction,ComponentPad*
%ADD16R,1.700000X1.700000*%
G04 #@! TD*
G04 #@! TA.AperFunction,ComponentPad*
%ADD17C,1.700000*%
G04 #@! TD*
G04 #@! TA.AperFunction,Conductor*
%ADD18C,1.700000*%
G04 #@! TD*
G04 #@! TA.AperFunction,Conductor*
%ADD19C,0.100000*%
G04 #@! TD*
G04 #@! TA.AperFunction,ComponentPad*
%ADD20C,1.440000*%
G04 #@! TD*
G04 #@! TA.AperFunction,SMDPad,CuDef*
%ADD21C,1.425000*%
G04 #@! TD*
G04 #@! TA.AperFunction,SMDPad,CuDef*
%ADD22C,1.150000*%
G04 #@! TD*
G04 #@! TA.AperFunction,SMDPad,CuDef*
%ADD23C,3.200000*%
G04 #@! TD*
G04 #@! TA.AperFunction,ComponentPad*
%ADD24R,1.800000X1.800000*%
G04 #@! TD*
G04 #@! TA.AperFunction,ComponentPad*
%ADD25O,1.500000X0.900000*%
G04 #@! TD*
G04 #@! TA.AperFunction,ComponentPad*
%ADD26R,1.500000X0.900000*%
G04 #@! TD*
G04 #@! TA.AperFunction,ComponentPad*
%ADD27C,1.200000*%
G04 #@! TD*
G04 #@! TA.AperFunction,SMDPad,CuDef*
%ADD28R,1.550000X0.600000*%
G04 #@! TD*
G04 #@! TA.AperFunction,ViaPad*
%ADD29C,0.800000*%
G04 #@! TD*
G04 #@! TA.AperFunction,Conductor*
%ADD30C,0.250000*%
G04 #@! TD*
G04 #@! TA.AperFunction,Conductor*
%ADD31C,0.500000*%
G04 #@! TD*
G04 #@! TA.AperFunction,Conductor*
%ADD32C,0.750000*%
G04 #@! TD*
G04 APERTURE END LIST*
D10*
G04 #@! TO.P,BASS,*
G04 #@! TO.N,*
X118730000Y-161930000D03*
X118730000Y-170730000D03*
D11*
G04 #@! TO.P,BASS,1*
G04 #@! TO.N,BRGRN2*
X125730000Y-163830000D03*
G04 #@! TO.P,BASS,2*
X125730000Y-166330000D03*
G04 #@! TO.P,BASS,3*
G04 #@! TO.N,Net-(BASS1-Pad3)*
X125730000Y-168830000D03*
G04 #@! TD*
D12*
G04 #@! TO.P,C10,1*
G04 #@! TO.N,Net-(C10-Pad1)*
X63881000Y-174752000D03*
D13*
G04 #@! TO.P,C10,2*
G04 #@! TO.N,BRGRN2*
X58881000Y-174752000D03*
G04 #@! TD*
D14*
G04 #@! TO.P,9V1,1*
G04 #@! TO.N,Net-(9V1-Pad1)*
X83819999Y-154940000D03*
G04 #@! TO.P,9V1,2*
G04 #@! TO.N,PWRGND*
X83820000Y-142239999D03*
G04 #@! TD*
D15*
G04 #@! TO.P,Jack1,3*
G04 #@! TO.N,BRGRN2*
X138938000Y-135890000D03*
G04 #@! TO.P,Jack1,2*
G04 #@! TO.N,FinalOut*
X138938000Y-138430000D03*
D16*
G04 #@! TO.P,Jack1,1*
G04 #@! TO.N,PWRGND*
X138938000Y-140970000D03*
G04 #@! TD*
D17*
G04 #@! TO.P,PickupInputs1,10*
G04 #@! TO.N,BRGRN2*
X74821373Y-115371420D03*
D18*
G04 #@! TD*
G04 #@! TO.N,BRGRN2*
G04 #@! TO.C,PickupInputs1*
X74821373Y-115371420D02*
X74821373Y-115371420D01*
D17*
G04 #@! TO.P,PickupInputs1,9*
G04 #@! TO.N,NGRN*
X72434554Y-116240151D03*
D18*
G04 #@! TD*
G04 #@! TO.N,NGRN*
G04 #@! TO.C,PickupInputs1*
X72434554Y-116240151D02*
X72434554Y-116240151D01*
D17*
G04 #@! TO.P,PickupInputs1,8*
G04 #@! TO.N,NBLACK*
X70047735Y-117108882D03*
D18*
G04 #@! TD*
G04 #@! TO.N,NBLACK*
G04 #@! TO.C,PickupInputs1*
X70047735Y-117108882D02*
X70047735Y-117108882D01*
D17*
G04 #@! TO.P,PickupInputs1,7*
G04 #@! TO.N,NBLACK*
X67660916Y-117977613D03*
D18*
G04 #@! TD*
G04 #@! TO.N,NBLACK*
G04 #@! TO.C,PickupInputs1*
X67660916Y-117977613D02*
X67660916Y-117977613D01*
D17*
G04 #@! TO.P,PickupInputs1,6*
G04 #@! TO.N,NGRN*
X65274096Y-118846344D03*
D18*
G04 #@! TD*
G04 #@! TO.N,NGRN*
G04 #@! TO.C,PickupInputs1*
X65274096Y-118846344D02*
X65274096Y-118846344D01*
D17*
G04 #@! TO.P,PickupInputs1,5*
G04 #@! TO.N,BRGRN2*
X62887277Y-119715075D03*
D18*
G04 #@! TD*
G04 #@! TO.N,BRGRN2*
G04 #@! TO.C,PickupInputs1*
X62887277Y-119715075D02*
X62887277Y-119715075D01*
D17*
G04 #@! TO.P,PickupInputs1,4*
G04 #@! TO.N,BRGRN*
X60500458Y-120583807D03*
D18*
G04 #@! TD*
G04 #@! TO.N,BRGRN*
G04 #@! TO.C,PickupInputs1*
X60500458Y-120583807D02*
X60500458Y-120583807D01*
D17*
G04 #@! TO.P,PickupInputs1,3*
G04 #@! TO.N,BRWHT*
X58113639Y-121452538D03*
D18*
G04 #@! TD*
G04 #@! TO.N,BRWHT*
G04 #@! TO.C,PickupInputs1*
X58113639Y-121452538D02*
X58113639Y-121452538D01*
D17*
G04 #@! TO.P,PickupInputs1,2*
G04 #@! TO.N,BRBLACK*
X55726819Y-122321269D03*
D18*
G04 #@! TD*
G04 #@! TO.N,BRBLACK*
G04 #@! TO.C,PickupInputs1*
X55726819Y-122321269D02*
X55726819Y-122321269D01*
D17*
G04 #@! TO.P,PickupInputs1,1*
G04 #@! TO.N,BRRED*
X53340000Y-123190000D03*
D19*
G04 #@! TD*
G04 #@! TO.N,BRRED*
G04 #@! TO.C,PickupInputs1*
G36*
X54429456Y-123698022D02*
X52831978Y-124279456D01*
X52250544Y-122681978D01*
X53848022Y-122100544D01*
X54429456Y-123698022D01*
X54429456Y-123698022D01*
G37*
D16*
G04 #@! TO.P,BridgeTonePot1,1*
G04 #@! TO.N,GAINPOTOUT*
X131445000Y-118745000D03*
D15*
G04 #@! TO.P,BridgeTonePot1,2*
X128905000Y-118745000D03*
G04 #@! TO.P,BridgeTonePot1,3*
G04 #@! TO.N,BRTONEGANG2IN*
X131445000Y-121285000D03*
G04 #@! TO.P,BridgeTonePot1,4*
G04 #@! TO.N,BRTONEGANG1OUT*
X128905000Y-121285000D03*
G04 #@! TO.P,BridgeTonePot1,5*
G04 #@! TO.N,BTONEIN*
X131445000Y-123825000D03*
G04 #@! TO.P,BridgeTonePot1,6*
G04 #@! TO.N,BRTONEGANG1IN*
X128905000Y-123825000D03*
G04 #@! TO.P,BridgeTonePot1,7*
G04 #@! TO.N,BRGRN2*
X131445000Y-126365000D03*
G04 #@! TO.P,BridgeTonePot1,8*
G04 #@! TO.N,BRBLACK*
X128905000Y-126365000D03*
G04 #@! TO.P,BridgeTonePot1,9*
G04 #@! TO.N,Net-(BridgeTonePot1-Pad12)*
X131445000Y-128905000D03*
G04 #@! TO.P,BridgeTonePot1,10*
G04 #@! TO.N,Net-(BridgeTonePot1-Pad10)*
X128905000Y-128905000D03*
G04 #@! TO.P,BridgeTonePot1,11*
G04 #@! TO.N,BRWHT*
X131445000Y-131445000D03*
G04 #@! TO.P,BridgeTonePot1,12*
G04 #@! TO.N,Net-(BridgeTonePot1-Pad12)*
X128905000Y-131445000D03*
G04 #@! TO.P,BridgeTonePot1,13*
G04 #@! TO.N,BRGRN2*
X131445000Y-133985000D03*
G04 #@! TO.P,BridgeTonePot1,14*
G04 #@! TO.N,Net-(BridgeTonePot1-Pad14)*
X128905000Y-133985000D03*
G04 #@! TD*
G04 #@! TO.P,NeckTonePot1,14*
G04 #@! TO.N,Net-(NeckTonePot1-Pad14)*
X128905000Y-154305000D03*
G04 #@! TO.P,NeckTonePot1,13*
G04 #@! TO.N,BRGRN2*
X131445000Y-154305000D03*
G04 #@! TO.P,NeckTonePot1,12*
G04 #@! TO.N,Net-(NeckTonePot1-Pad12)*
X128905000Y-151765000D03*
G04 #@! TO.P,NeckTonePot1,11*
G04 #@! TO.N,NBLACK*
X131445000Y-151765000D03*
G04 #@! TO.P,NeckTonePot1,10*
G04 #@! TO.N,Net-(BridgeVolPot1-Pad8)*
X128905000Y-149225000D03*
G04 #@! TO.P,NeckTonePot1,9*
G04 #@! TO.N,Net-(BridgeTonePot1-Pad10)*
X131445000Y-149225000D03*
G04 #@! TO.P,NeckTonePot1,8*
G04 #@! TO.N,BRRED2*
X128905000Y-146685000D03*
G04 #@! TO.P,NeckTonePot1,7*
G04 #@! TO.N,Net-(NeckTonePot1-Pad7)*
X131445000Y-146685000D03*
G04 #@! TO.P,NeckTonePot1,6*
G04 #@! TO.N,Net-(NeckTonePot1-Pad6)*
X128905000Y-144145000D03*
G04 #@! TO.P,NeckTonePot1,5*
G04 #@! TO.N,NTONEIN*
X131445000Y-144145000D03*
G04 #@! TO.P,NeckTonePot1,4*
G04 #@! TO.N,Net-(C27-Pad1)*
X128905000Y-141605000D03*
G04 #@! TO.P,NeckTonePot1,3*
G04 #@! TO.N,PRESOUT*
X131445000Y-141605000D03*
G04 #@! TO.P,NeckTonePot1,2*
X128905000Y-139065000D03*
D16*
G04 #@! TO.P,NeckTonePot1,1*
G04 #@! TO.N,PRESIN*
X131445000Y-139065000D03*
G04 #@! TD*
D13*
G04 #@! TO.P,6pdt2,18*
G04 #@! TO.N,Net-(6pdt2-Pad18)*
X110744000Y-169926000D03*
G04 #@! TO.P,6pdt2,17*
G04 #@! TO.N,Net-(6pdt2-Pad17)*
X103124000Y-169926000D03*
G04 #@! TO.P,6pdt2,16*
G04 #@! TO.N,Net-(6pdt2-Pad16)*
X110744000Y-167386000D03*
G04 #@! TO.P,6pdt2,15*
G04 #@! TO.N,Net-(6pdt2-Pad15)*
X103124000Y-167386000D03*
G04 #@! TO.P,6pdt2,14*
G04 #@! TO.N,Net-(6pdt2-Pad14)*
X110744000Y-164846000D03*
G04 #@! TO.P,6pdt2,13*
G04 #@! TO.N,Net-(6pdt2-Pad13)*
X103124000Y-164846000D03*
G04 #@! TO.P,6pdt2,12*
G04 #@! TO.N,GAINSTAGEPOTIN*
X110744000Y-162306000D03*
G04 #@! TO.P,6pdt2,11*
G04 #@! TO.N,BRTONEGANG2IN*
X103124000Y-162306000D03*
G04 #@! TO.P,6pdt2,10*
G04 #@! TO.N,BRTONEGANG1IN*
X110744000Y-159766000D03*
G04 #@! TO.P,6pdt2,9*
G04 #@! TO.N,BRTONEGANG1OUT*
X103124000Y-159766000D03*
G04 #@! TO.P,6pdt2,8*
G04 #@! TO.N,Net-(6pdt2-Pad8)*
X110744000Y-157226000D03*
G04 #@! TO.P,6pdt2,7*
G04 #@! TO.N,BRTONECAPIN*
X103124000Y-157226000D03*
G04 #@! TO.P,6pdt2,6*
G04 #@! TO.N,ODout*
X110744000Y-154686000D03*
G04 #@! TO.P,6pdt2,5*
G04 #@! TO.N,OUT*
X103124000Y-154686000D03*
G04 #@! TO.P,6pdt2,4*
G04 #@! TO.N,FinalOut*
X110744000Y-152146000D03*
G04 #@! TO.P,6pdt2,3*
G04 #@! TO.N,ODin*
X103124000Y-152146000D03*
G04 #@! TO.P,6pdt2,2*
G04 #@! TO.N,OUT*
X110744000Y-149606000D03*
G04 #@! TO.P,6pdt2,1*
G04 #@! TO.N,BRGRN2*
X103124000Y-149606000D03*
G04 #@! TD*
D20*
G04 #@! TO.P,TRANGAIN1,3*
G04 #@! TO.N,Net-(R13-Pad1)*
X121285000Y-184150000D03*
G04 #@! TO.P,TRANGAIN1,2*
G04 #@! TO.N,Net-(C8-Pad1)*
X118745000Y-186690000D03*
G04 #@! TO.P,TRANGAIN1,1*
X116205000Y-184150000D03*
G04 #@! TD*
D15*
G04 #@! TO.P,3WaySwitch1,4*
G04 #@! TO.N,BROUT*
X55245000Y-128905000D03*
G04 #@! TO.P,3WaySwitch1,3*
G04 #@! TO.N,OUT*
X52705000Y-128905000D03*
G04 #@! TO.P,3WaySwitch1,2*
G04 #@! TO.N,NOUT*
X50165000Y-128905000D03*
D16*
G04 #@! TO.P,3WaySwitch1,1*
G04 #@! TO.N,BRGRN2*
X47625000Y-128905000D03*
G04 #@! TD*
D13*
G04 #@! TO.P,4pdt1,1*
G04 #@! TO.N,BRRED*
X58674000Y-132715000D03*
G04 #@! TO.P,4pdt1,2*
G04 #@! TO.N,BRRED2*
X61214000Y-132715000D03*
G04 #@! TO.P,4pdt1,3*
G04 #@! TO.N,BRGRN*
X63754000Y-132715000D03*
G04 #@! TO.P,4pdt1,4*
G04 #@! TO.N,NGRN*
X66294000Y-132715000D03*
G04 #@! TO.P,4pdt1,5*
G04 #@! TO.N,NRED2*
X68834000Y-132715000D03*
G04 #@! TO.P,4pdt1,6*
G04 #@! TO.N,Net-(4pdt1-Pad6)*
X71374000Y-132715000D03*
G04 #@! TO.P,4pdt1,7*
X71374000Y-125095000D03*
G04 #@! TO.P,4pdt1,8*
G04 #@! TO.N,NGRN2*
X68834000Y-125095000D03*
G04 #@! TO.P,4pdt1,9*
G04 #@! TO.N,NGRN*
X66294000Y-125095000D03*
G04 #@! TO.P,4pdt1,10*
G04 #@! TO.N,BRRED*
X63754000Y-125095000D03*
G04 #@! TO.P,4pdt1,11*
G04 #@! TO.N,BRGRN2*
X61214000Y-125095000D03*
G04 #@! TO.P,4pdt1,12*
G04 #@! TO.N,BRGRN*
X58674000Y-125095000D03*
G04 #@! TD*
G04 #@! TO.P,6pdt1,1*
G04 #@! TO.N,BVOUTTRAD*
X92583000Y-146304000D03*
G04 #@! TO.P,6pdt1,2*
G04 #@! TO.N,BVINTRAD*
X100203000Y-146304000D03*
G04 #@! TO.P,6pdt1,3*
G04 #@! TO.N,BVOUT*
X92583000Y-148844000D03*
G04 #@! TO.P,6pdt1,4*
G04 #@! TO.N,BRRED2*
X100203000Y-148844000D03*
G04 #@! TO.P,6pdt1,5*
G04 #@! TO.N,Net-(6pdt1-Pad5)*
X92583000Y-151384000D03*
G04 #@! TO.P,6pdt1,6*
X100203000Y-151384000D03*
G04 #@! TO.P,6pdt1,7*
G04 #@! TO.N,NVOUTTRAD*
X92583000Y-153924000D03*
G04 #@! TO.P,6pdt1,8*
G04 #@! TO.N,NVINTRAD*
X100203000Y-153924000D03*
G04 #@! TO.P,6pdt1,9*
G04 #@! TO.N,NOUT*
X92583000Y-156464000D03*
G04 #@! TO.P,6pdt1,10*
G04 #@! TO.N,NTONE*
X100203000Y-156464000D03*
G04 #@! TO.P,6pdt1,11*
G04 #@! TO.N,Net-(6pdt1-Pad11)*
X92583000Y-159004000D03*
G04 #@! TO.P,6pdt1,12*
X100203000Y-159004000D03*
G04 #@! TO.P,6pdt1,13*
G04 #@! TO.N,BRRED2*
X92583000Y-161544000D03*
G04 #@! TO.P,6pdt1,14*
G04 #@! TO.N,NTONEIN*
X100203000Y-161544000D03*
G04 #@! TO.P,6pdt1,15*
G04 #@! TO.N,BTONEIN*
X92583000Y-164084000D03*
G04 #@! TO.P,6pdt1,16*
G04 #@! TO.N,NTONE*
X100203000Y-164084000D03*
G04 #@! TO.P,6pdt1,17*
G04 #@! TO.N,BRTONEGANG1OUT*
X92583000Y-166624000D03*
G04 #@! TO.P,6pdt1,18*
G04 #@! TO.N,Net-(6pdt1-Pad18)*
X100203000Y-166624000D03*
G04 #@! TD*
D15*
G04 #@! TO.P,BridgeVolPot1,14*
G04 #@! TO.N,Net-(BridgeVolPot1-Pad14)*
X107950000Y-144145000D03*
G04 #@! TO.P,BridgeVolPot1,13*
G04 #@! TO.N,BRGRN2*
X110490000Y-144145000D03*
G04 #@! TO.P,BridgeVolPot1,12*
G04 #@! TO.N,BVOUT*
X107950000Y-141605000D03*
G04 #@! TO.P,BridgeVolPot1,11*
G04 #@! TO.N,BROUT*
X110490000Y-141605000D03*
G04 #@! TO.P,BridgeVolPot1,10*
G04 #@! TO.N,NOUT*
X107950000Y-139065000D03*
G04 #@! TO.P,BridgeVolPot1,9*
G04 #@! TO.N,BRGRN2*
X110490000Y-139065000D03*
G04 #@! TO.P,BridgeVolPot1,8*
G04 #@! TO.N,Net-(BridgeVolPot1-Pad8)*
X107950000Y-136525000D03*
G04 #@! TO.P,BridgeVolPot1,7*
G04 #@! TO.N,BVOUT*
X110490000Y-136525000D03*
G04 #@! TO.P,BridgeVolPot1,6*
G04 #@! TO.N,BVINTRAD*
X107950000Y-133985000D03*
G04 #@! TO.P,BridgeVolPot1,5*
G04 #@! TO.N,BVOUTTRAD*
X110490000Y-133985000D03*
G04 #@! TO.P,BridgeVolPot1,4*
G04 #@! TO.N,BRGRN2*
X107950000Y-131445000D03*
G04 #@! TO.P,BridgeVolPot1,3*
G04 #@! TO.N,ODin*
X110490000Y-131445000D03*
G04 #@! TO.P,BridgeVolPot1,2*
G04 #@! TO.N,MASTEROUT*
X107950000Y-128905000D03*
D16*
G04 #@! TO.P,BridgeVolPot1,1*
G04 #@! TO.N,BRGRN2*
X110490000Y-128905000D03*
G04 #@! TD*
D19*
G04 #@! TO.N,MASTEROUT*
G04 #@! TO.C,C1*
G36*
X102160004Y-138826204D02*
X102184273Y-138829804D01*
X102208071Y-138835765D01*
X102231171Y-138844030D01*
X102253349Y-138854520D01*
X102274393Y-138867133D01*
X102294098Y-138881747D01*
X102312277Y-138898223D01*
X102328753Y-138916402D01*
X102343367Y-138936107D01*
X102355980Y-138957151D01*
X102366470Y-138979329D01*
X102374735Y-139002429D01*
X102380696Y-139026227D01*
X102384296Y-139050496D01*
X102385500Y-139075000D01*
X102385500Y-140325000D01*
X102384296Y-140349504D01*
X102380696Y-140373773D01*
X102374735Y-140397571D01*
X102366470Y-140420671D01*
X102355980Y-140442849D01*
X102343367Y-140463893D01*
X102328753Y-140483598D01*
X102312277Y-140501777D01*
X102294098Y-140518253D01*
X102274393Y-140532867D01*
X102253349Y-140545480D01*
X102231171Y-140555970D01*
X102208071Y-140564235D01*
X102184273Y-140570196D01*
X102160004Y-140573796D01*
X102135500Y-140575000D01*
X101210500Y-140575000D01*
X101185996Y-140573796D01*
X101161727Y-140570196D01*
X101137929Y-140564235D01*
X101114829Y-140555970D01*
X101092651Y-140545480D01*
X101071607Y-140532867D01*
X101051902Y-140518253D01*
X101033723Y-140501777D01*
X101017247Y-140483598D01*
X101002633Y-140463893D01*
X100990020Y-140442849D01*
X100979530Y-140420671D01*
X100971265Y-140397571D01*
X100965304Y-140373773D01*
X100961704Y-140349504D01*
X100960500Y-140325000D01*
X100960500Y-139075000D01*
X100961704Y-139050496D01*
X100965304Y-139026227D01*
X100971265Y-139002429D01*
X100979530Y-138979329D01*
X100990020Y-138957151D01*
X101002633Y-138936107D01*
X101017247Y-138916402D01*
X101033723Y-138898223D01*
X101051902Y-138881747D01*
X101071607Y-138867133D01*
X101092651Y-138854520D01*
X101114829Y-138844030D01*
X101137929Y-138835765D01*
X101161727Y-138829804D01*
X101185996Y-138826204D01*
X101210500Y-138825000D01*
X102135500Y-138825000D01*
X102160004Y-138826204D01*
X102160004Y-138826204D01*
G37*
D21*
G04 #@! TD*
G04 #@! TO.P,C1,2*
G04 #@! TO.N,MASTEROUT*
X101673000Y-139700000D03*
D19*
G04 #@! TO.N,Net-(C1-Pad1)*
G04 #@! TO.C,C1*
G36*
X105135004Y-138826204D02*
X105159273Y-138829804D01*
X105183071Y-138835765D01*
X105206171Y-138844030D01*
X105228349Y-138854520D01*
X105249393Y-138867133D01*
X105269098Y-138881747D01*
X105287277Y-138898223D01*
X105303753Y-138916402D01*
X105318367Y-138936107D01*
X105330980Y-138957151D01*
X105341470Y-138979329D01*
X105349735Y-139002429D01*
X105355696Y-139026227D01*
X105359296Y-139050496D01*
X105360500Y-139075000D01*
X105360500Y-140325000D01*
X105359296Y-140349504D01*
X105355696Y-140373773D01*
X105349735Y-140397571D01*
X105341470Y-140420671D01*
X105330980Y-140442849D01*
X105318367Y-140463893D01*
X105303753Y-140483598D01*
X105287277Y-140501777D01*
X105269098Y-140518253D01*
X105249393Y-140532867D01*
X105228349Y-140545480D01*
X105206171Y-140555970D01*
X105183071Y-140564235D01*
X105159273Y-140570196D01*
X105135004Y-140573796D01*
X105110500Y-140575000D01*
X104185500Y-140575000D01*
X104160996Y-140573796D01*
X104136727Y-140570196D01*
X104112929Y-140564235D01*
X104089829Y-140555970D01*
X104067651Y-140545480D01*
X104046607Y-140532867D01*
X104026902Y-140518253D01*
X104008723Y-140501777D01*
X103992247Y-140483598D01*
X103977633Y-140463893D01*
X103965020Y-140442849D01*
X103954530Y-140420671D01*
X103946265Y-140397571D01*
X103940304Y-140373773D01*
X103936704Y-140349504D01*
X103935500Y-140325000D01*
X103935500Y-139075000D01*
X103936704Y-139050496D01*
X103940304Y-139026227D01*
X103946265Y-139002429D01*
X103954530Y-138979329D01*
X103965020Y-138957151D01*
X103977633Y-138936107D01*
X103992247Y-138916402D01*
X104008723Y-138898223D01*
X104026902Y-138881747D01*
X104046607Y-138867133D01*
X104067651Y-138854520D01*
X104089829Y-138844030D01*
X104112929Y-138835765D01*
X104136727Y-138829804D01*
X104160996Y-138826204D01*
X104185500Y-138825000D01*
X105110500Y-138825000D01*
X105135004Y-138826204D01*
X105135004Y-138826204D01*
G37*
D21*
G04 #@! TD*
G04 #@! TO.P,C1,1*
G04 #@! TO.N,Net-(C1-Pad1)*
X104648000Y-139700000D03*
D13*
G04 #@! TO.P,C2,1*
G04 #@! TO.N,Net-(C2-Pad1)*
X81788000Y-118618000D03*
G04 #@! TO.P,C2,2*
G04 #@! TO.N,BRGRN2*
X81788000Y-123618000D03*
G04 #@! TD*
D19*
G04 #@! TO.N,BRGRN2*
G04 #@! TO.C,C4*
G36*
X88977505Y-140398204D02*
X89001773Y-140401804D01*
X89025572Y-140407765D01*
X89048671Y-140416030D01*
X89070850Y-140426520D01*
X89091893Y-140439132D01*
X89111599Y-140453747D01*
X89129777Y-140470223D01*
X89146253Y-140488401D01*
X89160868Y-140508107D01*
X89173480Y-140529150D01*
X89183970Y-140551329D01*
X89192235Y-140574428D01*
X89198196Y-140598227D01*
X89201796Y-140622495D01*
X89203000Y-140646999D01*
X89203000Y-141547001D01*
X89201796Y-141571505D01*
X89198196Y-141595773D01*
X89192235Y-141619572D01*
X89183970Y-141642671D01*
X89173480Y-141664850D01*
X89160868Y-141685893D01*
X89146253Y-141705599D01*
X89129777Y-141723777D01*
X89111599Y-141740253D01*
X89091893Y-141754868D01*
X89070850Y-141767480D01*
X89048671Y-141777970D01*
X89025572Y-141786235D01*
X89001773Y-141792196D01*
X88977505Y-141795796D01*
X88953001Y-141797000D01*
X88302999Y-141797000D01*
X88278495Y-141795796D01*
X88254227Y-141792196D01*
X88230428Y-141786235D01*
X88207329Y-141777970D01*
X88185150Y-141767480D01*
X88164107Y-141754868D01*
X88144401Y-141740253D01*
X88126223Y-141723777D01*
X88109747Y-141705599D01*
X88095132Y-141685893D01*
X88082520Y-141664850D01*
X88072030Y-141642671D01*
X88063765Y-141619572D01*
X88057804Y-141595773D01*
X88054204Y-141571505D01*
X88053000Y-141547001D01*
X88053000Y-140646999D01*
X88054204Y-140622495D01*
X88057804Y-140598227D01*
X88063765Y-140574428D01*
X88072030Y-140551329D01*
X88082520Y-140529150D01*
X88095132Y-140508107D01*
X88109747Y-140488401D01*
X88126223Y-140470223D01*
X88144401Y-140453747D01*
X88164107Y-140439132D01*
X88185150Y-140426520D01*
X88207329Y-140416030D01*
X88230428Y-140407765D01*
X88254227Y-140401804D01*
X88278495Y-140398204D01*
X88302999Y-140397000D01*
X88953001Y-140397000D01*
X88977505Y-140398204D01*
X88977505Y-140398204D01*
G37*
D22*
G04 #@! TD*
G04 #@! TO.P,C4,2*
G04 #@! TO.N,BRGRN2*
X88628000Y-141097000D03*
D19*
G04 #@! TO.N,Net-(C4-Pad1)*
G04 #@! TO.C,C4*
G36*
X91027505Y-140398204D02*
X91051773Y-140401804D01*
X91075572Y-140407765D01*
X91098671Y-140416030D01*
X91120850Y-140426520D01*
X91141893Y-140439132D01*
X91161599Y-140453747D01*
X91179777Y-140470223D01*
X91196253Y-140488401D01*
X91210868Y-140508107D01*
X91223480Y-140529150D01*
X91233970Y-140551329D01*
X91242235Y-140574428D01*
X91248196Y-140598227D01*
X91251796Y-140622495D01*
X91253000Y-140646999D01*
X91253000Y-141547001D01*
X91251796Y-141571505D01*
X91248196Y-141595773D01*
X91242235Y-141619572D01*
X91233970Y-141642671D01*
X91223480Y-141664850D01*
X91210868Y-141685893D01*
X91196253Y-141705599D01*
X91179777Y-141723777D01*
X91161599Y-141740253D01*
X91141893Y-141754868D01*
X91120850Y-141767480D01*
X91098671Y-141777970D01*
X91075572Y-141786235D01*
X91051773Y-141792196D01*
X91027505Y-141795796D01*
X91003001Y-141797000D01*
X90352999Y-141797000D01*
X90328495Y-141795796D01*
X90304227Y-141792196D01*
X90280428Y-141786235D01*
X90257329Y-141777970D01*
X90235150Y-141767480D01*
X90214107Y-141754868D01*
X90194401Y-141740253D01*
X90176223Y-141723777D01*
X90159747Y-141705599D01*
X90145132Y-141685893D01*
X90132520Y-141664850D01*
X90122030Y-141642671D01*
X90113765Y-141619572D01*
X90107804Y-141595773D01*
X90104204Y-141571505D01*
X90103000Y-141547001D01*
X90103000Y-140646999D01*
X90104204Y-140622495D01*
X90107804Y-140598227D01*
X90113765Y-140574428D01*
X90122030Y-140551329D01*
X90132520Y-140529150D01*
X90145132Y-140508107D01*
X90159747Y-140488401D01*
X90176223Y-140470223D01*
X90194401Y-140453747D01*
X90214107Y-140439132D01*
X90235150Y-140426520D01*
X90257329Y-140416030D01*
X90280428Y-140407765D01*
X90304227Y-140401804D01*
X90328495Y-140398204D01*
X90352999Y-140397000D01*
X91003001Y-140397000D01*
X91027505Y-140398204D01*
X91027505Y-140398204D01*
G37*
D22*
G04 #@! TD*
G04 #@! TO.P,C4,1*
G04 #@! TO.N,Net-(C4-Pad1)*
X90678000Y-141097000D03*
D19*
G04 #@! TO.N,Net-(C5-Pad1)*
G04 #@! TO.C,C5*
G36*
X90911004Y-142948204D02*
X90935273Y-142951804D01*
X90959071Y-142957765D01*
X90982171Y-142966030D01*
X91004349Y-142976520D01*
X91025393Y-142989133D01*
X91045098Y-143003747D01*
X91063277Y-143020223D01*
X91079753Y-143038402D01*
X91094367Y-143058107D01*
X91106980Y-143079151D01*
X91117470Y-143101329D01*
X91125735Y-143124429D01*
X91131696Y-143148227D01*
X91135296Y-143172496D01*
X91136500Y-143197000D01*
X91136500Y-145347000D01*
X91135296Y-145371504D01*
X91131696Y-145395773D01*
X91125735Y-145419571D01*
X91117470Y-145442671D01*
X91106980Y-145464849D01*
X91094367Y-145485893D01*
X91079753Y-145505598D01*
X91063277Y-145523777D01*
X91045098Y-145540253D01*
X91025393Y-145554867D01*
X91004349Y-145567480D01*
X90982171Y-145577970D01*
X90959071Y-145586235D01*
X90935273Y-145592196D01*
X90911004Y-145595796D01*
X90886500Y-145597000D01*
X89961500Y-145597000D01*
X89936996Y-145595796D01*
X89912727Y-145592196D01*
X89888929Y-145586235D01*
X89865829Y-145577970D01*
X89843651Y-145567480D01*
X89822607Y-145554867D01*
X89802902Y-145540253D01*
X89784723Y-145523777D01*
X89768247Y-145505598D01*
X89753633Y-145485893D01*
X89741020Y-145464849D01*
X89730530Y-145442671D01*
X89722265Y-145419571D01*
X89716304Y-145395773D01*
X89712704Y-145371504D01*
X89711500Y-145347000D01*
X89711500Y-143197000D01*
X89712704Y-143172496D01*
X89716304Y-143148227D01*
X89722265Y-143124429D01*
X89730530Y-143101329D01*
X89741020Y-143079151D01*
X89753633Y-143058107D01*
X89768247Y-143038402D01*
X89784723Y-143020223D01*
X89802902Y-143003747D01*
X89822607Y-142989133D01*
X89843651Y-142976520D01*
X89865829Y-142966030D01*
X89888929Y-142957765D01*
X89912727Y-142951804D01*
X89936996Y-142948204D01*
X89961500Y-142947000D01*
X90886500Y-142947000D01*
X90911004Y-142948204D01*
X90911004Y-142948204D01*
G37*
D21*
G04 #@! TD*
G04 #@! TO.P,C5,1*
G04 #@! TO.N,Net-(C5-Pad1)*
X90424000Y-144272000D03*
D19*
G04 #@! TO.N,BRGRN2*
G04 #@! TO.C,C5*
G36*
X87936004Y-142948204D02*
X87960273Y-142951804D01*
X87984071Y-142957765D01*
X88007171Y-142966030D01*
X88029349Y-142976520D01*
X88050393Y-142989133D01*
X88070098Y-143003747D01*
X88088277Y-143020223D01*
X88104753Y-143038402D01*
X88119367Y-143058107D01*
X88131980Y-143079151D01*
X88142470Y-143101329D01*
X88150735Y-143124429D01*
X88156696Y-143148227D01*
X88160296Y-143172496D01*
X88161500Y-143197000D01*
X88161500Y-145347000D01*
X88160296Y-145371504D01*
X88156696Y-145395773D01*
X88150735Y-145419571D01*
X88142470Y-145442671D01*
X88131980Y-145464849D01*
X88119367Y-145485893D01*
X88104753Y-145505598D01*
X88088277Y-145523777D01*
X88070098Y-145540253D01*
X88050393Y-145554867D01*
X88029349Y-145567480D01*
X88007171Y-145577970D01*
X87984071Y-145586235D01*
X87960273Y-145592196D01*
X87936004Y-145595796D01*
X87911500Y-145597000D01*
X86986500Y-145597000D01*
X86961996Y-145595796D01*
X86937727Y-145592196D01*
X86913929Y-145586235D01*
X86890829Y-145577970D01*
X86868651Y-145567480D01*
X86847607Y-145554867D01*
X86827902Y-145540253D01*
X86809723Y-145523777D01*
X86793247Y-145505598D01*
X86778633Y-145485893D01*
X86766020Y-145464849D01*
X86755530Y-145442671D01*
X86747265Y-145419571D01*
X86741304Y-145395773D01*
X86737704Y-145371504D01*
X86736500Y-145347000D01*
X86736500Y-143197000D01*
X86737704Y-143172496D01*
X86741304Y-143148227D01*
X86747265Y-143124429D01*
X86755530Y-143101329D01*
X86766020Y-143079151D01*
X86778633Y-143058107D01*
X86793247Y-143038402D01*
X86809723Y-143020223D01*
X86827902Y-143003747D01*
X86847607Y-142989133D01*
X86868651Y-142976520D01*
X86890829Y-142966030D01*
X86913929Y-142957765D01*
X86937727Y-142951804D01*
X86961996Y-142948204D01*
X86986500Y-142947000D01*
X87911500Y-142947000D01*
X87936004Y-142948204D01*
X87936004Y-142948204D01*
G37*
D21*
G04 #@! TD*
G04 #@! TO.P,C5,2*
G04 #@! TO.N,BRGRN2*
X87449000Y-144272000D03*
D13*
G04 #@! TO.P,C6,2*
G04 #@! TO.N,Net-(C6-Pad2)*
X81788000Y-132000000D03*
G04 #@! TO.P,C6,1*
G04 #@! TO.N,GAINSTAGEPOTIN*
X81788000Y-127000000D03*
G04 #@! TD*
D12*
G04 #@! TO.P,C14,1*
G04 #@! TO.N,Net-(C14-Pad1)*
X64135000Y-167640000D03*
D13*
G04 #@! TO.P,C14,2*
G04 #@! TO.N,BRGRN2*
X66135000Y-167640000D03*
G04 #@! TD*
D19*
G04 #@! TO.N,Net-(BASS1-Pad3)*
G04 #@! TO.C,C18*
G36*
X47796504Y-164654204D02*
X47820773Y-164657804D01*
X47844571Y-164663765D01*
X47867671Y-164672030D01*
X47889849Y-164682520D01*
X47910893Y-164695133D01*
X47930598Y-164709747D01*
X47948777Y-164726223D01*
X47965253Y-164744402D01*
X47979867Y-164764107D01*
X47992480Y-164785151D01*
X48002970Y-164807329D01*
X48011235Y-164830429D01*
X48017196Y-164854227D01*
X48020796Y-164878496D01*
X48022000Y-164903000D01*
X48022000Y-168853000D01*
X48020796Y-168877504D01*
X48017196Y-168901773D01*
X48011235Y-168925571D01*
X48002970Y-168948671D01*
X47992480Y-168970849D01*
X47979867Y-168991893D01*
X47965253Y-169011598D01*
X47948777Y-169029777D01*
X47930598Y-169046253D01*
X47910893Y-169060867D01*
X47889849Y-169073480D01*
X47867671Y-169083970D01*
X47844571Y-169092235D01*
X47820773Y-169098196D01*
X47796504Y-169101796D01*
X47772000Y-169103000D01*
X45072000Y-169103000D01*
X45047496Y-169101796D01*
X45023227Y-169098196D01*
X44999429Y-169092235D01*
X44976329Y-169083970D01*
X44954151Y-169073480D01*
X44933107Y-169060867D01*
X44913402Y-169046253D01*
X44895223Y-169029777D01*
X44878747Y-169011598D01*
X44864133Y-168991893D01*
X44851520Y-168970849D01*
X44841030Y-168948671D01*
X44832765Y-168925571D01*
X44826804Y-168901773D01*
X44823204Y-168877504D01*
X44822000Y-168853000D01*
X44822000Y-164903000D01*
X44823204Y-164878496D01*
X44826804Y-164854227D01*
X44832765Y-164830429D01*
X44841030Y-164807329D01*
X44851520Y-164785151D01*
X44864133Y-164764107D01*
X44878747Y-164744402D01*
X44895223Y-164726223D01*
X44913402Y-164709747D01*
X44933107Y-164695133D01*
X44954151Y-164682520D01*
X44976329Y-164672030D01*
X44999429Y-164663765D01*
X45023227Y-164657804D01*
X45047496Y-164654204D01*
X45072000Y-164653000D01*
X47772000Y-164653000D01*
X47796504Y-164654204D01*
X47796504Y-164654204D01*
G37*
D23*
G04 #@! TD*
G04 #@! TO.P,C18,2*
G04 #@! TO.N,Net-(BASS1-Pad3)*
X46422000Y-166878000D03*
D19*
G04 #@! TO.N,Net-(C18-Pad1)*
G04 #@! TO.C,C18*
G36*
X52996504Y-164654204D02*
X53020773Y-164657804D01*
X53044571Y-164663765D01*
X53067671Y-164672030D01*
X53089849Y-164682520D01*
X53110893Y-164695133D01*
X53130598Y-164709747D01*
X53148777Y-164726223D01*
X53165253Y-164744402D01*
X53179867Y-164764107D01*
X53192480Y-164785151D01*
X53202970Y-164807329D01*
X53211235Y-164830429D01*
X53217196Y-164854227D01*
X53220796Y-164878496D01*
X53222000Y-164903000D01*
X53222000Y-168853000D01*
X53220796Y-168877504D01*
X53217196Y-168901773D01*
X53211235Y-168925571D01*
X53202970Y-168948671D01*
X53192480Y-168970849D01*
X53179867Y-168991893D01*
X53165253Y-169011598D01*
X53148777Y-169029777D01*
X53130598Y-169046253D01*
X53110893Y-169060867D01*
X53089849Y-169073480D01*
X53067671Y-169083970D01*
X53044571Y-169092235D01*
X53020773Y-169098196D01*
X52996504Y-169101796D01*
X52972000Y-169103000D01*
X50272000Y-169103000D01*
X50247496Y-169101796D01*
X50223227Y-169098196D01*
X50199429Y-169092235D01*
X50176329Y-169083970D01*
X50154151Y-169073480D01*
X50133107Y-169060867D01*
X50113402Y-169046253D01*
X50095223Y-169029777D01*
X50078747Y-169011598D01*
X50064133Y-168991893D01*
X50051520Y-168970849D01*
X50041030Y-168948671D01*
X50032765Y-168925571D01*
X50026804Y-168901773D01*
X50023204Y-168877504D01*
X50022000Y-168853000D01*
X50022000Y-164903000D01*
X50023204Y-164878496D01*
X50026804Y-164854227D01*
X50032765Y-164830429D01*
X50041030Y-164807329D01*
X50051520Y-164785151D01*
X50064133Y-164764107D01*
X50078747Y-164744402D01*
X50095223Y-164726223D01*
X50113402Y-164709747D01*
X50133107Y-164695133D01*
X50154151Y-164682520D01*
X50176329Y-164672030D01*
X50199429Y-164663765D01*
X50223227Y-164657804D01*
X50247496Y-164654204D01*
X50272000Y-164653000D01*
X52972000Y-164653000D01*
X52996504Y-164654204D01*
X52996504Y-164654204D01*
G37*
D23*
G04 #@! TD*
G04 #@! TO.P,C18,1*
G04 #@! TO.N,Net-(C18-Pad1)*
X51622000Y-166878000D03*
D13*
G04 #@! TO.P,C19,2*
G04 #@! TO.N,BRGRN2*
X58896000Y-167640000D03*
D12*
G04 #@! TO.P,C19,1*
G04 #@! TO.N,Net-(C19-Pad1)*
X56896000Y-167640000D03*
G04 #@! TD*
D19*
G04 #@! TO.N,Net-(C22-Pad1)*
G04 #@! TO.C,C22*
G36*
X82008505Y-163256204D02*
X82032773Y-163259804D01*
X82056572Y-163265765D01*
X82079671Y-163274030D01*
X82101850Y-163284520D01*
X82122893Y-163297132D01*
X82142599Y-163311747D01*
X82160777Y-163328223D01*
X82177253Y-163346401D01*
X82191868Y-163366107D01*
X82204480Y-163387150D01*
X82214970Y-163409329D01*
X82223235Y-163432428D01*
X82229196Y-163456227D01*
X82232796Y-163480495D01*
X82234000Y-163504999D01*
X82234000Y-164155001D01*
X82232796Y-164179505D01*
X82229196Y-164203773D01*
X82223235Y-164227572D01*
X82214970Y-164250671D01*
X82204480Y-164272850D01*
X82191868Y-164293893D01*
X82177253Y-164313599D01*
X82160777Y-164331777D01*
X82142599Y-164348253D01*
X82122893Y-164362868D01*
X82101850Y-164375480D01*
X82079671Y-164385970D01*
X82056572Y-164394235D01*
X82032773Y-164400196D01*
X82008505Y-164403796D01*
X81984001Y-164405000D01*
X81083999Y-164405000D01*
X81059495Y-164403796D01*
X81035227Y-164400196D01*
X81011428Y-164394235D01*
X80988329Y-164385970D01*
X80966150Y-164375480D01*
X80945107Y-164362868D01*
X80925401Y-164348253D01*
X80907223Y-164331777D01*
X80890747Y-164313599D01*
X80876132Y-164293893D01*
X80863520Y-164272850D01*
X80853030Y-164250671D01*
X80844765Y-164227572D01*
X80838804Y-164203773D01*
X80835204Y-164179505D01*
X80834000Y-164155001D01*
X80834000Y-163504999D01*
X80835204Y-163480495D01*
X80838804Y-163456227D01*
X80844765Y-163432428D01*
X80853030Y-163409329D01*
X80863520Y-163387150D01*
X80876132Y-163366107D01*
X80890747Y-163346401D01*
X80907223Y-163328223D01*
X80925401Y-163311747D01*
X80945107Y-163297132D01*
X80966150Y-163284520D01*
X80988329Y-163274030D01*
X81011428Y-163265765D01*
X81035227Y-163259804D01*
X81059495Y-163256204D01*
X81083999Y-163255000D01*
X81984001Y-163255000D01*
X82008505Y-163256204D01*
X82008505Y-163256204D01*
G37*
D22*
G04 #@! TD*
G04 #@! TO.P,C22,1*
G04 #@! TO.N,Net-(C22-Pad1)*
X81534000Y-163830000D03*
D19*
G04 #@! TO.N,BRGRN2*
G04 #@! TO.C,C22*
G36*
X82008505Y-165306204D02*
X82032773Y-165309804D01*
X82056572Y-165315765D01*
X82079671Y-165324030D01*
X82101850Y-165334520D01*
X82122893Y-165347132D01*
X82142599Y-165361747D01*
X82160777Y-165378223D01*
X82177253Y-165396401D01*
X82191868Y-165416107D01*
X82204480Y-165437150D01*
X82214970Y-165459329D01*
X82223235Y-165482428D01*
X82229196Y-165506227D01*
X82232796Y-165530495D01*
X82234000Y-165554999D01*
X82234000Y-166205001D01*
X82232796Y-166229505D01*
X82229196Y-166253773D01*
X82223235Y-166277572D01*
X82214970Y-166300671D01*
X82204480Y-166322850D01*
X82191868Y-166343893D01*
X82177253Y-166363599D01*
X82160777Y-166381777D01*
X82142599Y-166398253D01*
X82122893Y-166412868D01*
X82101850Y-166425480D01*
X82079671Y-166435970D01*
X82056572Y-166444235D01*
X82032773Y-166450196D01*
X82008505Y-166453796D01*
X81984001Y-166455000D01*
X81083999Y-166455000D01*
X81059495Y-166453796D01*
X81035227Y-166450196D01*
X81011428Y-166444235D01*
X80988329Y-166435970D01*
X80966150Y-166425480D01*
X80945107Y-166412868D01*
X80925401Y-166398253D01*
X80907223Y-166381777D01*
X80890747Y-166363599D01*
X80876132Y-166343893D01*
X80863520Y-166322850D01*
X80853030Y-166300671D01*
X80844765Y-166277572D01*
X80838804Y-166253773D01*
X80835204Y-166229505D01*
X80834000Y-166205001D01*
X80834000Y-165554999D01*
X80835204Y-165530495D01*
X80838804Y-165506227D01*
X80844765Y-165482428D01*
X80853030Y-165459329D01*
X80863520Y-165437150D01*
X80876132Y-165416107D01*
X80890747Y-165396401D01*
X80907223Y-165378223D01*
X80925401Y-165361747D01*
X80945107Y-165347132D01*
X80966150Y-165334520D01*
X80988329Y-165324030D01*
X81011428Y-165315765D01*
X81035227Y-165309804D01*
X81059495Y-165306204D01*
X81083999Y-165305000D01*
X81984001Y-165305000D01*
X82008505Y-165306204D01*
X82008505Y-165306204D01*
G37*
D22*
G04 #@! TD*
G04 #@! TO.P,C22,2*
G04 #@! TO.N,BRGRN2*
X81534000Y-165880000D03*
D19*
G04 #@! TO.N,Net-(C23-Pad1)*
G04 #@! TO.C,C23*
G36*
X55984504Y-171258204D02*
X56008773Y-171261804D01*
X56032571Y-171267765D01*
X56055671Y-171276030D01*
X56077849Y-171286520D01*
X56098893Y-171299133D01*
X56118598Y-171313747D01*
X56136777Y-171330223D01*
X56153253Y-171348402D01*
X56167867Y-171368107D01*
X56180480Y-171389151D01*
X56190970Y-171411329D01*
X56199235Y-171434429D01*
X56205196Y-171458227D01*
X56208796Y-171482496D01*
X56210000Y-171507000D01*
X56210000Y-175457000D01*
X56208796Y-175481504D01*
X56205196Y-175505773D01*
X56199235Y-175529571D01*
X56190970Y-175552671D01*
X56180480Y-175574849D01*
X56167867Y-175595893D01*
X56153253Y-175615598D01*
X56136777Y-175633777D01*
X56118598Y-175650253D01*
X56098893Y-175664867D01*
X56077849Y-175677480D01*
X56055671Y-175687970D01*
X56032571Y-175696235D01*
X56008773Y-175702196D01*
X55984504Y-175705796D01*
X55960000Y-175707000D01*
X53260000Y-175707000D01*
X53235496Y-175705796D01*
X53211227Y-175702196D01*
X53187429Y-175696235D01*
X53164329Y-175687970D01*
X53142151Y-175677480D01*
X53121107Y-175664867D01*
X53101402Y-175650253D01*
X53083223Y-175633777D01*
X53066747Y-175615598D01*
X53052133Y-175595893D01*
X53039520Y-175574849D01*
X53029030Y-175552671D01*
X53020765Y-175529571D01*
X53014804Y-175505773D01*
X53011204Y-175481504D01*
X53010000Y-175457000D01*
X53010000Y-171507000D01*
X53011204Y-171482496D01*
X53014804Y-171458227D01*
X53020765Y-171434429D01*
X53029030Y-171411329D01*
X53039520Y-171389151D01*
X53052133Y-171368107D01*
X53066747Y-171348402D01*
X53083223Y-171330223D01*
X53101402Y-171313747D01*
X53121107Y-171299133D01*
X53142151Y-171286520D01*
X53164329Y-171276030D01*
X53187429Y-171267765D01*
X53211227Y-171261804D01*
X53235496Y-171258204D01*
X53260000Y-171257000D01*
X55960000Y-171257000D01*
X55984504Y-171258204D01*
X55984504Y-171258204D01*
G37*
D23*
G04 #@! TD*
G04 #@! TO.P,C23,1*
G04 #@! TO.N,Net-(C23-Pad1)*
X54610000Y-173482000D03*
D19*
G04 #@! TO.N,ODMIDIN*
G04 #@! TO.C,C23*
G36*
X50784504Y-171258204D02*
X50808773Y-171261804D01*
X50832571Y-171267765D01*
X50855671Y-171276030D01*
X50877849Y-171286520D01*
X50898893Y-171299133D01*
X50918598Y-171313747D01*
X50936777Y-171330223D01*
X50953253Y-171348402D01*
X50967867Y-171368107D01*
X50980480Y-171389151D01*
X50990970Y-171411329D01*
X50999235Y-171434429D01*
X51005196Y-171458227D01*
X51008796Y-171482496D01*
X51010000Y-171507000D01*
X51010000Y-175457000D01*
X51008796Y-175481504D01*
X51005196Y-175505773D01*
X50999235Y-175529571D01*
X50990970Y-175552671D01*
X50980480Y-175574849D01*
X50967867Y-175595893D01*
X50953253Y-175615598D01*
X50936777Y-175633777D01*
X50918598Y-175650253D01*
X50898893Y-175664867D01*
X50877849Y-175677480D01*
X50855671Y-175687970D01*
X50832571Y-175696235D01*
X50808773Y-175702196D01*
X50784504Y-175705796D01*
X50760000Y-175707000D01*
X48060000Y-175707000D01*
X48035496Y-175705796D01*
X48011227Y-175702196D01*
X47987429Y-175696235D01*
X47964329Y-175687970D01*
X47942151Y-175677480D01*
X47921107Y-175664867D01*
X47901402Y-175650253D01*
X47883223Y-175633777D01*
X47866747Y-175615598D01*
X47852133Y-175595893D01*
X47839520Y-175574849D01*
X47829030Y-175552671D01*
X47820765Y-175529571D01*
X47814804Y-175505773D01*
X47811204Y-175481504D01*
X47810000Y-175457000D01*
X47810000Y-171507000D01*
X47811204Y-171482496D01*
X47814804Y-171458227D01*
X47820765Y-171434429D01*
X47829030Y-171411329D01*
X47839520Y-171389151D01*
X47852133Y-171368107D01*
X47866747Y-171348402D01*
X47883223Y-171330223D01*
X47901402Y-171313747D01*
X47921107Y-171299133D01*
X47942151Y-171286520D01*
X47964329Y-171276030D01*
X47987429Y-171267765D01*
X48011227Y-171261804D01*
X48035496Y-171258204D01*
X48060000Y-171257000D01*
X50760000Y-171257000D01*
X50784504Y-171258204D01*
X50784504Y-171258204D01*
G37*
D23*
G04 #@! TD*
G04 #@! TO.P,C23,2*
G04 #@! TO.N,ODMIDIN*
X49410000Y-173482000D03*
D24*
G04 #@! TO.P,D1,1*
G04 #@! TO.N,GAINPOTOUT*
X87376000Y-150876000D03*
D11*
G04 #@! TO.P,D1,2*
G04 #@! TO.N,GAINSTAGEPOTIN*
X89916000Y-150876000D03*
G04 #@! TD*
G04 #@! TO.P,D2,2*
G04 #@! TO.N,GAINPOTOUT*
X87376000Y-155448000D03*
D24*
G04 #@! TO.P,D2,1*
G04 #@! TO.N,GAINSTAGEPOTIN*
X89916000Y-155448000D03*
G04 #@! TD*
G04 #@! TO.P,D3,1*
G04 #@! TO.N,Net-(D3-Pad1)*
X71120000Y-164846000D03*
D11*
G04 #@! TO.P,D3,2*
G04 #@! TO.N,Net-(9V1-Pad1)*
X71120000Y-167386000D03*
G04 #@! TD*
D24*
G04 #@! TO.P,D4,1*
G04 #@! TO.N,Net-(C13-Pad1)*
X135128000Y-125476000D03*
D11*
G04 #@! TO.P,D4,2*
G04 #@! TO.N,Vref2*
X137668000Y-125476000D03*
G04 #@! TD*
G04 #@! TO.P,D5,2*
G04 #@! TO.N,Net-(C13-Pad1)*
X135128000Y-130048000D03*
D24*
G04 #@! TO.P,D5,1*
G04 #@! TO.N,Vref2*
X137668000Y-130048000D03*
G04 #@! TD*
D16*
G04 #@! TO.P,GROUNDBRIDGE1,1*
G04 #@! TO.N,BRGRN2*
X79375000Y-114681000D03*
G04 #@! TD*
G04 #@! TO.P,NeckVolumePot1,1*
G04 #@! TO.N,ODMIDGND*
X111252000Y-175006000D03*
D15*
G04 #@! TO.P,NeckVolumePot1,2*
G04 #@! TO.N,ODMIDOUT*
X111252000Y-177546000D03*
G04 #@! TO.P,NeckVolumePot1,3*
G04 #@! TO.N,ODMIDIN*
X113792000Y-175006000D03*
G04 #@! TO.P,NeckVolumePot1,4*
G04 #@! TO.N,Net-(BridgeVolPot1-Pad8)*
X113792000Y-177546000D03*
G04 #@! TO.P,NeckVolumePot1,5*
G04 #@! TO.N,NVOUTTRAD*
X116332000Y-175006000D03*
G04 #@! TO.P,NeckVolumePot1,6*
G04 #@! TO.N,NVINTRAD*
X116332000Y-177546000D03*
G04 #@! TO.P,NeckVolumePot1,7*
G04 #@! TO.N,Net-(BridgeVolPot1-Pad8)*
X118872000Y-175006000D03*
G04 #@! TO.P,NeckVolumePot1,8*
G04 #@! TO.N,NRED2*
X118872000Y-177546000D03*
G04 #@! TO.P,NeckVolumePot1,9*
G04 #@! TO.N,NTONE*
X121412000Y-175006000D03*
G04 #@! TO.P,NeckVolumePot1,10*
X121412000Y-177546000D03*
G04 #@! TO.P,NeckVolumePot1,11*
G04 #@! TO.N,NGRN2*
X123952000Y-175006000D03*
G04 #@! TO.P,NeckVolumePot1,12*
G04 #@! TO.N,Net-(BridgeVolPot1-Pad8)*
X123952000Y-177546000D03*
G04 #@! TO.P,NeckVolumePot1,13*
G04 #@! TO.N,BRGRN2*
X126492000Y-175006000D03*
G04 #@! TO.P,NeckVolumePot1,14*
G04 #@! TO.N,Net-(NeckVolumePot1-Pad14)*
X126492000Y-177546000D03*
G04 #@! TD*
D25*
G04 #@! TO.P,Q1,2*
G04 #@! TO.N,Net-(Q1-Pad2)*
X98552000Y-171450000D03*
G04 #@! TO.P,Q1,3*
G04 #@! TO.N,Net-(C8-Pad2)*
X98552000Y-170180000D03*
D26*
G04 #@! TO.P,Q1,1*
G04 #@! TO.N,Net-(C8-Pad1)*
X98552000Y-172720000D03*
G04 #@! TD*
G04 #@! TO.P,Q2,1*
G04 #@! TO.N,Net-(C8-Pad2)*
X102362000Y-173482000D03*
D25*
G04 #@! TO.P,Q2,3*
G04 #@! TO.N,Net-(C8-Pad1)*
X102362000Y-176022000D03*
G04 #@! TO.P,Q2,2*
G04 #@! TO.N,Net-(Q2-Pad2)*
X102362000Y-174752000D03*
G04 #@! TD*
D19*
G04 #@! TO.N,Net-(C1-Pad1)*
G04 #@! TO.C,R3*
G36*
X98919505Y-134937204D02*
X98943773Y-134940804D01*
X98967572Y-134946765D01*
X98990671Y-134955030D01*
X99012850Y-134965520D01*
X99033893Y-134978132D01*
X99053599Y-134992747D01*
X99071777Y-135009223D01*
X99088253Y-135027401D01*
X99102868Y-135047107D01*
X99115480Y-135068150D01*
X99125970Y-135090329D01*
X99134235Y-135113428D01*
X99140196Y-135137227D01*
X99143796Y-135161495D01*
X99145000Y-135185999D01*
X99145000Y-136086001D01*
X99143796Y-136110505D01*
X99140196Y-136134773D01*
X99134235Y-136158572D01*
X99125970Y-136181671D01*
X99115480Y-136203850D01*
X99102868Y-136224893D01*
X99088253Y-136244599D01*
X99071777Y-136262777D01*
X99053599Y-136279253D01*
X99033893Y-136293868D01*
X99012850Y-136306480D01*
X98990671Y-136316970D01*
X98967572Y-136325235D01*
X98943773Y-136331196D01*
X98919505Y-136334796D01*
X98895001Y-136336000D01*
X98244999Y-136336000D01*
X98220495Y-136334796D01*
X98196227Y-136331196D01*
X98172428Y-136325235D01*
X98149329Y-136316970D01*
X98127150Y-136306480D01*
X98106107Y-136293868D01*
X98086401Y-136279253D01*
X98068223Y-136262777D01*
X98051747Y-136244599D01*
X98037132Y-136224893D01*
X98024520Y-136203850D01*
X98014030Y-136181671D01*
X98005765Y-136158572D01*
X97999804Y-136134773D01*
X97996204Y-136110505D01*
X97995000Y-136086001D01*
X97995000Y-135185999D01*
X97996204Y-135161495D01*
X97999804Y-135137227D01*
X98005765Y-135113428D01*
X98014030Y-135090329D01*
X98024520Y-135068150D01*
X98037132Y-135047107D01*
X98051747Y-135027401D01*
X98068223Y-135009223D01*
X98086401Y-134992747D01*
X98106107Y-134978132D01*
X98127150Y-134965520D01*
X98149329Y-134955030D01*
X98172428Y-134946765D01*
X98196227Y-134940804D01*
X98220495Y-134937204D01*
X98244999Y-134936000D01*
X98895001Y-134936000D01*
X98919505Y-134937204D01*
X98919505Y-134937204D01*
G37*
D22*
G04 #@! TD*
G04 #@! TO.P,R3,2*
G04 #@! TO.N,Net-(C1-Pad1)*
X98570000Y-135636000D03*
D19*
G04 #@! TO.N,Net-(C2-Pad1)*
G04 #@! TO.C,R3*
G36*
X96869505Y-134937204D02*
X96893773Y-134940804D01*
X96917572Y-134946765D01*
X96940671Y-134955030D01*
X96962850Y-134965520D01*
X96983893Y-134978132D01*
X97003599Y-134992747D01*
X97021777Y-135009223D01*
X97038253Y-135027401D01*
X97052868Y-135047107D01*
X97065480Y-135068150D01*
X97075970Y-135090329D01*
X97084235Y-135113428D01*
X97090196Y-135137227D01*
X97093796Y-135161495D01*
X97095000Y-135185999D01*
X97095000Y-136086001D01*
X97093796Y-136110505D01*
X97090196Y-136134773D01*
X97084235Y-136158572D01*
X97075970Y-136181671D01*
X97065480Y-136203850D01*
X97052868Y-136224893D01*
X97038253Y-136244599D01*
X97021777Y-136262777D01*
X97003599Y-136279253D01*
X96983893Y-136293868D01*
X96962850Y-136306480D01*
X96940671Y-136316970D01*
X96917572Y-136325235D01*
X96893773Y-136331196D01*
X96869505Y-136334796D01*
X96845001Y-136336000D01*
X96194999Y-136336000D01*
X96170495Y-136334796D01*
X96146227Y-136331196D01*
X96122428Y-136325235D01*
X96099329Y-136316970D01*
X96077150Y-136306480D01*
X96056107Y-136293868D01*
X96036401Y-136279253D01*
X96018223Y-136262777D01*
X96001747Y-136244599D01*
X95987132Y-136224893D01*
X95974520Y-136203850D01*
X95964030Y-136181671D01*
X95955765Y-136158572D01*
X95949804Y-136134773D01*
X95946204Y-136110505D01*
X95945000Y-136086001D01*
X95945000Y-135185999D01*
X95946204Y-135161495D01*
X95949804Y-135137227D01*
X95955765Y-135113428D01*
X95964030Y-135090329D01*
X95974520Y-135068150D01*
X95987132Y-135047107D01*
X96001747Y-135027401D01*
X96018223Y-135009223D01*
X96036401Y-134992747D01*
X96056107Y-134978132D01*
X96077150Y-134965520D01*
X96099329Y-134955030D01*
X96122428Y-134946765D01*
X96146227Y-134940804D01*
X96170495Y-134937204D01*
X96194999Y-134936000D01*
X96845001Y-134936000D01*
X96869505Y-134937204D01*
X96869505Y-134937204D01*
G37*
D22*
G04 #@! TD*
G04 #@! TO.P,R3,1*
G04 #@! TO.N,Net-(C2-Pad1)*
X96520000Y-135636000D03*
D19*
G04 #@! TO.N,Net-(C3-Pad1)*
G04 #@! TO.C,R7*
G36*
X90009505Y-137874204D02*
X90033773Y-137877804D01*
X90057572Y-137883765D01*
X90080671Y-137892030D01*
X90102850Y-137902520D01*
X90123893Y-137915132D01*
X90143599Y-137929747D01*
X90161777Y-137946223D01*
X90178253Y-137964401D01*
X90192868Y-137984107D01*
X90205480Y-138005150D01*
X90215970Y-138027329D01*
X90224235Y-138050428D01*
X90230196Y-138074227D01*
X90233796Y-138098495D01*
X90235000Y-138122999D01*
X90235000Y-138773001D01*
X90233796Y-138797505D01*
X90230196Y-138821773D01*
X90224235Y-138845572D01*
X90215970Y-138868671D01*
X90205480Y-138890850D01*
X90192868Y-138911893D01*
X90178253Y-138931599D01*
X90161777Y-138949777D01*
X90143599Y-138966253D01*
X90123893Y-138980868D01*
X90102850Y-138993480D01*
X90080671Y-139003970D01*
X90057572Y-139012235D01*
X90033773Y-139018196D01*
X90009505Y-139021796D01*
X89985001Y-139023000D01*
X89084999Y-139023000D01*
X89060495Y-139021796D01*
X89036227Y-139018196D01*
X89012428Y-139012235D01*
X88989329Y-139003970D01*
X88967150Y-138993480D01*
X88946107Y-138980868D01*
X88926401Y-138966253D01*
X88908223Y-138949777D01*
X88891747Y-138931599D01*
X88877132Y-138911893D01*
X88864520Y-138890850D01*
X88854030Y-138868671D01*
X88845765Y-138845572D01*
X88839804Y-138821773D01*
X88836204Y-138797505D01*
X88835000Y-138773001D01*
X88835000Y-138122999D01*
X88836204Y-138098495D01*
X88839804Y-138074227D01*
X88845765Y-138050428D01*
X88854030Y-138027329D01*
X88864520Y-138005150D01*
X88877132Y-137984107D01*
X88891747Y-137964401D01*
X88908223Y-137946223D01*
X88926401Y-137929747D01*
X88946107Y-137915132D01*
X88967150Y-137902520D01*
X88989329Y-137892030D01*
X89012428Y-137883765D01*
X89036227Y-137877804D01*
X89060495Y-137874204D01*
X89084999Y-137873000D01*
X89985001Y-137873000D01*
X90009505Y-137874204D01*
X90009505Y-137874204D01*
G37*
D22*
G04 #@! TD*
G04 #@! TO.P,R7,1*
G04 #@! TO.N,Net-(C3-Pad1)*
X89535000Y-138448000D03*
D19*
G04 #@! TO.N,Net-(R7-Pad2)*
G04 #@! TO.C,R7*
G36*
X90009505Y-135824204D02*
X90033773Y-135827804D01*
X90057572Y-135833765D01*
X90080671Y-135842030D01*
X90102850Y-135852520D01*
X90123893Y-135865132D01*
X90143599Y-135879747D01*
X90161777Y-135896223D01*
X90178253Y-135914401D01*
X90192868Y-135934107D01*
X90205480Y-135955150D01*
X90215970Y-135977329D01*
X90224235Y-136000428D01*
X90230196Y-136024227D01*
X90233796Y-136048495D01*
X90235000Y-136072999D01*
X90235000Y-136723001D01*
X90233796Y-136747505D01*
X90230196Y-136771773D01*
X90224235Y-136795572D01*
X90215970Y-136818671D01*
X90205480Y-136840850D01*
X90192868Y-136861893D01*
X90178253Y-136881599D01*
X90161777Y-136899777D01*
X90143599Y-136916253D01*
X90123893Y-136930868D01*
X90102850Y-136943480D01*
X90080671Y-136953970D01*
X90057572Y-136962235D01*
X90033773Y-136968196D01*
X90009505Y-136971796D01*
X89985001Y-136973000D01*
X89084999Y-136973000D01*
X89060495Y-136971796D01*
X89036227Y-136968196D01*
X89012428Y-136962235D01*
X88989329Y-136953970D01*
X88967150Y-136943480D01*
X88946107Y-136930868D01*
X88926401Y-136916253D01*
X88908223Y-136899777D01*
X88891747Y-136881599D01*
X88877132Y-136861893D01*
X88864520Y-136840850D01*
X88854030Y-136818671D01*
X88845765Y-136795572D01*
X88839804Y-136771773D01*
X88836204Y-136747505D01*
X88835000Y-136723001D01*
X88835000Y-136072999D01*
X88836204Y-136048495D01*
X88839804Y-136024227D01*
X88845765Y-136000428D01*
X88854030Y-135977329D01*
X88864520Y-135955150D01*
X88877132Y-135934107D01*
X88891747Y-135914401D01*
X88908223Y-135896223D01*
X88926401Y-135879747D01*
X88946107Y-135865132D01*
X88967150Y-135852520D01*
X88989329Y-135842030D01*
X89012428Y-135833765D01*
X89036227Y-135827804D01*
X89060495Y-135824204D01*
X89084999Y-135823000D01*
X89985001Y-135823000D01*
X90009505Y-135824204D01*
X90009505Y-135824204D01*
G37*
D22*
G04 #@! TD*
G04 #@! TO.P,R7,2*
G04 #@! TO.N,Net-(R7-Pad2)*
X89535000Y-136398000D03*
D19*
G04 #@! TO.N,Net-(C5-Pad1)*
G04 #@! TO.C,R9*
G36*
X87342505Y-130218204D02*
X87366773Y-130221804D01*
X87390572Y-130227765D01*
X87413671Y-130236030D01*
X87435850Y-130246520D01*
X87456893Y-130259132D01*
X87476599Y-130273747D01*
X87494777Y-130290223D01*
X87511253Y-130308401D01*
X87525868Y-130328107D01*
X87538480Y-130349150D01*
X87548970Y-130371329D01*
X87557235Y-130394428D01*
X87563196Y-130418227D01*
X87566796Y-130442495D01*
X87568000Y-130466999D01*
X87568000Y-131117001D01*
X87566796Y-131141505D01*
X87563196Y-131165773D01*
X87557235Y-131189572D01*
X87548970Y-131212671D01*
X87538480Y-131234850D01*
X87525868Y-131255893D01*
X87511253Y-131275599D01*
X87494777Y-131293777D01*
X87476599Y-131310253D01*
X87456893Y-131324868D01*
X87435850Y-131337480D01*
X87413671Y-131347970D01*
X87390572Y-131356235D01*
X87366773Y-131362196D01*
X87342505Y-131365796D01*
X87318001Y-131367000D01*
X86417999Y-131367000D01*
X86393495Y-131365796D01*
X86369227Y-131362196D01*
X86345428Y-131356235D01*
X86322329Y-131347970D01*
X86300150Y-131337480D01*
X86279107Y-131324868D01*
X86259401Y-131310253D01*
X86241223Y-131293777D01*
X86224747Y-131275599D01*
X86210132Y-131255893D01*
X86197520Y-131234850D01*
X86187030Y-131212671D01*
X86178765Y-131189572D01*
X86172804Y-131165773D01*
X86169204Y-131141505D01*
X86168000Y-131117001D01*
X86168000Y-130466999D01*
X86169204Y-130442495D01*
X86172804Y-130418227D01*
X86178765Y-130394428D01*
X86187030Y-130371329D01*
X86197520Y-130349150D01*
X86210132Y-130328107D01*
X86224747Y-130308401D01*
X86241223Y-130290223D01*
X86259401Y-130273747D01*
X86279107Y-130259132D01*
X86300150Y-130246520D01*
X86322329Y-130236030D01*
X86345428Y-130227765D01*
X86369227Y-130221804D01*
X86393495Y-130218204D01*
X86417999Y-130217000D01*
X87318001Y-130217000D01*
X87342505Y-130218204D01*
X87342505Y-130218204D01*
G37*
D22*
G04 #@! TD*
G04 #@! TO.P,R9,2*
G04 #@! TO.N,Net-(C5-Pad1)*
X86868000Y-130792000D03*
D19*
G04 #@! TO.N,Net-(C6-Pad2)*
G04 #@! TO.C,R9*
G36*
X87342505Y-132268204D02*
X87366773Y-132271804D01*
X87390572Y-132277765D01*
X87413671Y-132286030D01*
X87435850Y-132296520D01*
X87456893Y-132309132D01*
X87476599Y-132323747D01*
X87494777Y-132340223D01*
X87511253Y-132358401D01*
X87525868Y-132378107D01*
X87538480Y-132399150D01*
X87548970Y-132421329D01*
X87557235Y-132444428D01*
X87563196Y-132468227D01*
X87566796Y-132492495D01*
X87568000Y-132516999D01*
X87568000Y-133167001D01*
X87566796Y-133191505D01*
X87563196Y-133215773D01*
X87557235Y-133239572D01*
X87548970Y-133262671D01*
X87538480Y-133284850D01*
X87525868Y-133305893D01*
X87511253Y-133325599D01*
X87494777Y-133343777D01*
X87476599Y-133360253D01*
X87456893Y-133374868D01*
X87435850Y-133387480D01*
X87413671Y-133397970D01*
X87390572Y-133406235D01*
X87366773Y-133412196D01*
X87342505Y-133415796D01*
X87318001Y-133417000D01*
X86417999Y-133417000D01*
X86393495Y-133415796D01*
X86369227Y-133412196D01*
X86345428Y-133406235D01*
X86322329Y-133397970D01*
X86300150Y-133387480D01*
X86279107Y-133374868D01*
X86259401Y-133360253D01*
X86241223Y-133343777D01*
X86224747Y-133325599D01*
X86210132Y-133305893D01*
X86197520Y-133284850D01*
X86187030Y-133262671D01*
X86178765Y-133239572D01*
X86172804Y-133215773D01*
X86169204Y-133191505D01*
X86168000Y-133167001D01*
X86168000Y-132516999D01*
X86169204Y-132492495D01*
X86172804Y-132468227D01*
X86178765Y-132444428D01*
X86187030Y-132421329D01*
X86197520Y-132399150D01*
X86210132Y-132378107D01*
X86224747Y-132358401D01*
X86241223Y-132340223D01*
X86259401Y-132323747D01*
X86279107Y-132309132D01*
X86300150Y-132296520D01*
X86322329Y-132286030D01*
X86345428Y-132277765D01*
X86369227Y-132271804D01*
X86393495Y-132268204D01*
X86417999Y-132267000D01*
X87318001Y-132267000D01*
X87342505Y-132268204D01*
X87342505Y-132268204D01*
G37*
D22*
G04 #@! TD*
G04 #@! TO.P,R9,1*
G04 #@! TO.N,Net-(C6-Pad2)*
X86868000Y-132842000D03*
D19*
G04 #@! TO.N,Net-(C21-Pad2)*
G04 #@! TO.C,R31*
G36*
X77565505Y-165417204D02*
X77589773Y-165420804D01*
X77613572Y-165426765D01*
X77636671Y-165435030D01*
X77658850Y-165445520D01*
X77679893Y-165458132D01*
X77699599Y-165472747D01*
X77717777Y-165489223D01*
X77734253Y-165507401D01*
X77748868Y-165527107D01*
X77761480Y-165548150D01*
X77771970Y-165570329D01*
X77780235Y-165593428D01*
X77786196Y-165617227D01*
X77789796Y-165641495D01*
X77791000Y-165665999D01*
X77791000Y-166566001D01*
X77789796Y-166590505D01*
X77786196Y-166614773D01*
X77780235Y-166638572D01*
X77771970Y-166661671D01*
X77761480Y-166683850D01*
X77748868Y-166704893D01*
X77734253Y-166724599D01*
X77717777Y-166742777D01*
X77699599Y-166759253D01*
X77679893Y-166773868D01*
X77658850Y-166786480D01*
X77636671Y-166796970D01*
X77613572Y-166805235D01*
X77589773Y-166811196D01*
X77565505Y-166814796D01*
X77541001Y-166816000D01*
X76890999Y-166816000D01*
X76866495Y-166814796D01*
X76842227Y-166811196D01*
X76818428Y-166805235D01*
X76795329Y-166796970D01*
X76773150Y-166786480D01*
X76752107Y-166773868D01*
X76732401Y-166759253D01*
X76714223Y-166742777D01*
X76697747Y-166724599D01*
X76683132Y-166704893D01*
X76670520Y-166683850D01*
X76660030Y-166661671D01*
X76651765Y-166638572D01*
X76645804Y-166614773D01*
X76642204Y-166590505D01*
X76641000Y-166566001D01*
X76641000Y-165665999D01*
X76642204Y-165641495D01*
X76645804Y-165617227D01*
X76651765Y-165593428D01*
X76660030Y-165570329D01*
X76670520Y-165548150D01*
X76683132Y-165527107D01*
X76697747Y-165507401D01*
X76714223Y-165489223D01*
X76732401Y-165472747D01*
X76752107Y-165458132D01*
X76773150Y-165445520D01*
X76795329Y-165435030D01*
X76818428Y-165426765D01*
X76842227Y-165420804D01*
X76866495Y-165417204D01*
X76890999Y-165416000D01*
X77541001Y-165416000D01*
X77565505Y-165417204D01*
X77565505Y-165417204D01*
G37*
D22*
G04 #@! TD*
G04 #@! TO.P,R31,1*
G04 #@! TO.N,Net-(C21-Pad2)*
X77216000Y-166116000D03*
D19*
G04 #@! TO.N,ODMIDOUT*
G04 #@! TO.C,R31*
G36*
X79615505Y-165417204D02*
X79639773Y-165420804D01*
X79663572Y-165426765D01*
X79686671Y-165435030D01*
X79708850Y-165445520D01*
X79729893Y-165458132D01*
X79749599Y-165472747D01*
X79767777Y-165489223D01*
X79784253Y-165507401D01*
X79798868Y-165527107D01*
X79811480Y-165548150D01*
X79821970Y-165570329D01*
X79830235Y-165593428D01*
X79836196Y-165617227D01*
X79839796Y-165641495D01*
X79841000Y-165665999D01*
X79841000Y-166566001D01*
X79839796Y-166590505D01*
X79836196Y-166614773D01*
X79830235Y-166638572D01*
X79821970Y-166661671D01*
X79811480Y-166683850D01*
X79798868Y-166704893D01*
X79784253Y-166724599D01*
X79767777Y-166742777D01*
X79749599Y-166759253D01*
X79729893Y-166773868D01*
X79708850Y-166786480D01*
X79686671Y-166796970D01*
X79663572Y-166805235D01*
X79639773Y-166811196D01*
X79615505Y-166814796D01*
X79591001Y-166816000D01*
X78940999Y-166816000D01*
X78916495Y-166814796D01*
X78892227Y-166811196D01*
X78868428Y-166805235D01*
X78845329Y-166796970D01*
X78823150Y-166786480D01*
X78802107Y-166773868D01*
X78782401Y-166759253D01*
X78764223Y-166742777D01*
X78747747Y-166724599D01*
X78733132Y-166704893D01*
X78720520Y-166683850D01*
X78710030Y-166661671D01*
X78701765Y-166638572D01*
X78695804Y-166614773D01*
X78692204Y-166590505D01*
X78691000Y-166566001D01*
X78691000Y-165665999D01*
X78692204Y-165641495D01*
X78695804Y-165617227D01*
X78701765Y-165593428D01*
X78710030Y-165570329D01*
X78720520Y-165548150D01*
X78733132Y-165527107D01*
X78747747Y-165507401D01*
X78764223Y-165489223D01*
X78782401Y-165472747D01*
X78802107Y-165458132D01*
X78823150Y-165445520D01*
X78845329Y-165435030D01*
X78868428Y-165426765D01*
X78892227Y-165420804D01*
X78916495Y-165417204D01*
X78940999Y-165416000D01*
X79591001Y-165416000D01*
X79615505Y-165417204D01*
X79615505Y-165417204D01*
G37*
D22*
G04 #@! TD*
G04 #@! TO.P,R31,2*
G04 #@! TO.N,ODMIDOUT*
X79266000Y-166116000D03*
D20*
G04 #@! TO.P,RANGE1,1*
G04 #@! TO.N,Net-(C12-Pad2)*
X124460000Y-110744000D03*
G04 #@! TO.P,RANGE1,2*
G04 #@! TO.N,PRESIN*
X121920000Y-108204000D03*
G04 #@! TO.P,RANGE1,3*
X119380000Y-110744000D03*
G04 #@! TD*
D10*
G04 #@! TO.P,TIGHT,*
G04 #@! TO.N,*
X118730000Y-132720000D03*
X118730000Y-141520000D03*
D11*
G04 #@! TO.P,TIGHT,1*
G04 #@! TO.N,Vref*
X125730000Y-134620000D03*
G04 #@! TO.P,TIGHT,2*
X125730000Y-137120000D03*
G04 #@! TO.P,TIGHT,3*
G04 #@! TO.N,Net-(R7-Pad2)*
X125730000Y-139620000D03*
G04 #@! TD*
D27*
G04 #@! TO.P,TRBLD1,1*
G04 #@! TO.N,Net-(C25-Pad1)*
X77470000Y-132715000D03*
G04 #@! TO.P,TRBLD1,2*
G04 #@! TO.N,BVINTRAD*
X77470000Y-125095000D03*
G04 #@! TO.P,TRBLD1,3*
G04 #@! TO.N,Net-(C26-Pad2)*
X74930000Y-132715000D03*
G04 #@! TO.P,TRBLD1,4*
G04 #@! TO.N,NVOUTTRAD*
X74930000Y-125095000D03*
G04 #@! TD*
D11*
G04 #@! TO.P,TREBLE,3*
G04 #@! TO.N,Net-(C13-Pad1)*
X125730000Y-154225000D03*
G04 #@! TO.P,TREBLE,2*
G04 #@! TO.N,Net-(TREBLE1-Pad2)*
X125730000Y-151725000D03*
G04 #@! TO.P,TREBLE,1*
G04 #@! TO.N,Net-(C16-Pad1)*
X125730000Y-149225000D03*
D10*
G04 #@! TO.P,TREBLE,*
G04 #@! TO.N,*
X118730000Y-156125000D03*
X118730000Y-147325000D03*
G04 #@! TD*
D28*
G04 #@! TO.P,U1,8*
G04 #@! TO.N,Net-(C10-Pad1)*
X98712000Y-138811000D03*
G04 #@! TO.P,U1,7*
G04 #@! TO.N,GAINSTAGEPOTIN*
X98712000Y-140081000D03*
G04 #@! TO.P,U1,6*
G04 #@! TO.N,Net-(C6-Pad2)*
X98712000Y-141351000D03*
G04 #@! TO.P,U1,5*
G04 #@! TO.N,Net-(C4-Pad1)*
X98712000Y-142621000D03*
G04 #@! TO.P,U1,4*
G04 #@! TO.N,BRGRN2*
X93312000Y-142621000D03*
G04 #@! TO.P,U1,3*
G04 #@! TO.N,Net-(C2-Pad1)*
X93312000Y-141351000D03*
G04 #@! TO.P,U1,2*
G04 #@! TO.N,Net-(R15-Pad2)*
X93312000Y-140081000D03*
G04 #@! TO.P,U1,1*
G04 #@! TO.N,Net-(C3-Pad2)*
X93312000Y-138811000D03*
G04 #@! TD*
D11*
G04 #@! TO.P,VOL,3*
G04 #@! TO.N,Net-(R27-Pad1)*
X125730000Y-125015000D03*
G04 #@! TO.P,VOL,2*
G04 #@! TO.N,Net-(R29-Pad1)*
X125730000Y-122515000D03*
G04 #@! TO.P,VOL,1*
G04 #@! TO.N,Vref2*
X125730000Y-120015000D03*
D10*
G04 #@! TO.P,VOL,*
G04 #@! TO.N,*
X118730000Y-126915000D03*
X118730000Y-118115000D03*
G04 #@! TD*
D29*
G04 #@! TO.N,BROUT*
X85598000Y-149352000D03*
X96266000Y-144272000D03*
G04 #@! TO.N,OUT*
X74257372Y-137521371D03*
X90663998Y-153670000D03*
G04 #@! TO.N,NOUT*
X97902989Y-161925000D03*
X56261000Y-131318000D03*
X106107001Y-144018000D03*
G04 #@! TO.N,BRGRN2*
X68072000Y-141859000D03*
X73914000Y-141859000D03*
X93312000Y-142621000D03*
X98352999Y-144735919D03*
X134874000Y-134874000D03*
X121920000Y-153125500D03*
X105029000Y-151765000D03*
X75692000Y-166098000D03*
X81534000Y-165862000D03*
X114300000Y-131064000D03*
X60071000Y-136852000D03*
G04 #@! TO.N,BRRED2*
X98679000Y-155321000D03*
X90551000Y-146594811D03*
X76581000Y-143002000D03*
G04 #@! TO.N,NRED2*
X87884000Y-163068000D03*
G04 #@! TO.N,NGRN2*
X88900000Y-163957000D03*
X107061000Y-181102000D03*
G04 #@! TO.N,BVOUTTRAD*
X76454000Y-129794000D03*
G04 #@! TO.N,BVINTRAD*
X106410510Y-137164999D03*
G04 #@! TO.N,BVOUT*
X113792000Y-136906000D03*
X100457000Y-143891000D03*
G04 #@! TO.N,Net-(6pdt1-Pad5)*
X98351682Y-152008852D03*
G04 #@! TO.N,NVINTRAD*
X85344000Y-135890000D03*
X83185000Y-138176000D03*
G04 #@! TO.N,NTONE*
X104902000Y-167259000D03*
G04 #@! TO.N,NTONEIN*
X107442000Y-160528000D03*
X124460000Y-159639000D03*
G04 #@! TO.N,BTONEIN*
X97753000Y-164846000D03*
G04 #@! TO.N,BRTONEGANG1OUT*
X97794583Y-163846863D03*
X96139000Y-166751000D03*
X106553000Y-159512000D03*
X108966000Y-157099000D03*
X113919000Y-150876000D03*
X115697000Y-140589000D03*
G04 #@! TO.N,GAINSTAGEPOTIN*
X98007500Y-146304000D03*
G04 #@! TO.N,BRTONEGANG2IN*
X113665000Y-160401000D03*
X120904000Y-139573000D03*
G04 #@! TO.N,ODout*
X83058000Y-165700010D03*
X104013000Y-177927000D03*
X112649000Y-179832000D03*
X112649000Y-167005000D03*
X112649000Y-159385000D03*
G04 #@! TO.N,ODin*
X110490000Y-147447000D03*
X117333970Y-137028276D03*
X120652681Y-129669999D03*
X114173000Y-129667000D03*
G04 #@! TO.N,Net-(BASS1-Pad3)*
X46422000Y-166878000D03*
X85598000Y-164211000D03*
X96012000Y-163576000D03*
G04 #@! TO.N,BRWHT*
X118872000Y-123571000D03*
X78486000Y-123129409D03*
G04 #@! TO.N,BRBLACK*
X127127000Y-126619000D03*
X78598998Y-117094000D03*
G04 #@! TO.N,GAINPOTOUT*
X104657000Y-144272000D03*
G04 #@! TO.N,MASTEROUT*
X104140000Y-132597000D03*
G04 #@! TO.N,Net-(BridgeVolPot1-Pad8)*
X114681000Y-135455999D03*
G04 #@! TO.N,Net-(C1-Pad1)*
X102362000Y-135636000D03*
G04 #@! TO.N,Net-(C2-Pad1)*
X93345000Y-141351000D03*
X98460207Y-137716606D03*
G04 #@! TO.N,Net-(C3-Pad1)*
X89535000Y-138430000D03*
G04 #@! TO.N,Net-(C3-Pad2)*
X96075347Y-141668347D03*
G04 #@! TO.N,Net-(C4-Pad1)*
X90854762Y-141273762D03*
X98552000Y-142621000D03*
G04 #@! TO.N,Net-(C5-Pad1)*
X86868000Y-130810000D03*
X90170000Y-143764000D03*
X86741000Y-140716000D03*
X86745653Y-136266347D03*
G04 #@! TO.N,Net-(C6-Pad2)*
X102607000Y-144272000D03*
X86868000Y-132842000D03*
G04 #@! TO.N,Net-(C8-Pad1)*
X78223000Y-148844000D03*
G04 #@! TO.N,Net-(C8-Pad2)*
X97545000Y-153416000D03*
G04 #@! TO.N,Net-(C10-Pad1)*
X61689000Y-146685000D03*
X79408000Y-145669000D03*
X85908219Y-145195000D03*
X96012000Y-138430000D03*
X61468000Y-167132000D03*
X65692000Y-159385000D03*
X65405000Y-153924000D03*
X62897010Y-151892000D03*
G04 #@! TO.N,Net-(C12-Pad2)*
X115062000Y-139446000D03*
G04 #@! TO.N,PRESIN*
X126440589Y-142780001D03*
G04 #@! TO.N,Net-(C13-Pad1)*
X123435000Y-144272000D03*
G04 #@! TO.N,Net-(C14-Pad1)*
X57277000Y-157997000D03*
G04 #@! TO.N,Net-(C16-Pad1)*
X121920000Y-150150500D03*
G04 #@! TO.N,Net-(C17-Pad2)*
X60198000Y-158242000D03*
X71628000Y-151638000D03*
X69596000Y-155194000D03*
G04 #@! TO.N,Net-(C17-Pad1)*
X60198000Y-159512000D03*
X83820000Y-160020000D03*
X73152000Y-156473000D03*
X69596000Y-158205500D03*
G04 #@! TO.N,Net-(C18-Pad1)*
X51562000Y-166878000D03*
X69587000Y-151638000D03*
G04 #@! TO.N,Net-(C19-Pad1)*
X62484000Y-143773000D03*
X60071000Y-139827000D03*
X58171000Y-161979347D03*
X61976000Y-163839000D03*
G04 #@! TO.N,ODMIDIN*
X49276000Y-173482000D03*
X72898000Y-161544000D03*
X65786000Y-158242000D03*
X107950000Y-154178000D03*
G04 #@! TO.N,Net-(C21-Pad2)*
X72898000Y-159512000D03*
X65786000Y-156925001D03*
G04 #@! TO.N,Net-(C22-Pad1)*
X77479000Y-162814000D03*
G04 #@! TO.N,Net-(C23-Pad1)*
X79502000Y-164084000D03*
X75692000Y-168148000D03*
G04 #@! TO.N,Net-(C27-Pad1)*
X134874000Y-137849000D03*
G04 #@! TO.N,Net-(D3-Pad1)*
X57014000Y-146685000D03*
G04 #@! TO.N,Vref2*
X61689000Y-147955000D03*
X74008000Y-143129000D03*
X134865000Y-120650000D03*
G04 #@! TO.N,PRESOUT*
X125485000Y-144272000D03*
X129794000Y-116078000D03*
G04 #@! TO.N,ODMIDOUT*
X91313000Y-163449000D03*
X101249999Y-171450000D03*
G04 #@! TO.N,Vref*
X101373058Y-137164999D03*
X100330000Y-138303000D03*
X111791116Y-134624999D03*
X103725846Y-135348846D03*
G04 #@! TO.N,Net-(R15-Pad2)*
X93345000Y-140081000D03*
X104521000Y-136652000D03*
X99568000Y-137541000D03*
G04 #@! TO.N,Net-(R7-Pad2)*
X87924558Y-135214442D03*
G04 #@! TO.N,Net-(R13-Pad1)*
X95504000Y-153416000D03*
X95504000Y-149860000D03*
X74008000Y-144318999D03*
X115697000Y-180213000D03*
G04 #@! TO.N,Net-(R17-Pad1)*
X80273000Y-148844000D03*
X79408000Y-143048999D03*
G04 #@! TO.N,Net-(R22-Pad1)*
X67089000Y-149225000D03*
X57277000Y-155947000D03*
G04 #@! TO.N,Net-(R27-Pad1)*
X123190000Y-141097000D03*
X115062000Y-149098000D03*
X106680000Y-156591000D03*
X104902000Y-158369000D03*
X94361000Y-160909000D03*
X123999000Y-126746000D03*
G04 #@! TO.N,Net-(R28-Pad1)*
X61722000Y-150368000D03*
X65659000Y-164211000D03*
X67818153Y-154432153D03*
G04 #@! TO.N,Net-(R29-Pad1)*
X87367000Y-160274000D03*
G04 #@! TO.N,Net-(R30-Pad2)*
X80010000Y-158750000D03*
X74149001Y-157715001D03*
G04 #@! TD*
D30*
G04 #@! TO.N,BROUT*
X92819001Y-147718999D02*
X96266000Y-144272000D01*
X85598000Y-149352000D02*
X87231001Y-147718999D01*
X87231001Y-147718999D02*
X92819001Y-147718999D01*
G04 #@! TO.N,OUT*
X53554999Y-128055001D02*
X52705000Y-128905000D01*
X53880001Y-127729999D02*
X53554999Y-128055001D01*
X57894001Y-127729999D02*
X53880001Y-127729999D01*
X62628999Y-132464997D02*
X57894001Y-127729999D01*
X62628999Y-135068999D02*
X62628999Y-132464997D01*
X65081371Y-137521371D02*
X62628999Y-135068999D01*
X74257372Y-137521371D02*
X65081371Y-137521371D01*
X92042999Y-155049001D02*
X90663998Y-153670000D01*
X93123001Y-155049001D02*
X92042999Y-155049001D01*
X93576003Y-154595999D02*
X93123001Y-155049001D01*
X99027001Y-154595999D02*
X93576003Y-154595999D01*
X99480003Y-155049001D02*
X99027001Y-154595999D01*
X101629629Y-155049001D02*
X99480003Y-155049001D01*
X101992630Y-154686000D02*
X101629629Y-155049001D01*
X103124000Y-154686000D02*
X101992630Y-154686000D01*
G04 #@! TO.N,NOUT*
X55861001Y-130918001D02*
X56261000Y-131318000D01*
X55023001Y-130080001D02*
X55861001Y-130918001D01*
X51340001Y-130080001D02*
X55023001Y-130080001D01*
X50165000Y-128905000D02*
X51340001Y-130080001D01*
X106107001Y-140907999D02*
X107950000Y-139065000D01*
X106107001Y-144018000D02*
X106107001Y-140907999D01*
G04 #@! TO.N,BRGRN2*
X88383000Y-143338000D02*
X88383000Y-141224000D01*
X87449000Y-144272000D02*
X88383000Y-143338000D01*
X93312000Y-142621000D02*
X93312000Y-142621000D01*
X110490000Y-139065000D02*
X112516117Y-137038883D01*
D31*
X86636500Y-144272000D02*
X87449000Y-144272000D01*
X85573217Y-144272000D02*
X86636500Y-144272000D01*
X85192217Y-144653000D02*
X85573217Y-144272000D01*
X76973998Y-144653000D02*
X85192217Y-144653000D01*
X74579997Y-142258999D02*
X76973998Y-144653000D01*
X74313999Y-142258999D02*
X74579997Y-142258999D01*
X73914000Y-141859000D02*
X74313999Y-142258999D01*
X88628000Y-143093000D02*
X87449000Y-144272000D01*
X88628000Y-141097000D02*
X88628000Y-143093000D01*
X92037000Y-142621000D02*
X93312000Y-142621000D01*
X91912990Y-142496990D02*
X92037000Y-142621000D01*
X89224010Y-142496990D02*
X91912990Y-142496990D01*
X87449000Y-144272000D02*
X89224010Y-142496990D01*
D32*
X100051997Y-144928999D02*
X101240999Y-144928999D01*
X98352999Y-144735919D02*
X99858917Y-144735919D01*
X99858917Y-144735919D02*
X100051997Y-144928999D01*
X103124000Y-146812000D02*
X103124000Y-149606000D01*
X101240999Y-144928999D02*
X103124000Y-146812000D01*
X105029000Y-149606000D02*
X110490000Y-144145000D01*
X103124000Y-149606000D02*
X105029000Y-149606000D01*
X103124000Y-149860000D02*
X105029000Y-151765000D01*
X103124000Y-149606000D02*
X103124000Y-149860000D01*
D31*
X120945000Y-153125500D02*
X121920000Y-153125500D01*
X117426502Y-153125500D02*
X120945000Y-153125500D01*
X110490000Y-146188998D02*
X117426502Y-153125500D01*
X110490000Y-144145000D02*
X110490000Y-146188998D01*
D32*
X125730000Y-162557208D02*
X125730000Y-163830000D01*
X125730000Y-160208964D02*
X125730000Y-162557208D01*
X131445000Y-154493964D02*
X125730000Y-160208964D01*
X131445000Y-154305000D02*
X131445000Y-154493964D01*
X111339999Y-139914999D02*
X110490000Y-139065000D01*
X111915001Y-140490001D02*
X111339999Y-139914999D01*
X111915001Y-143922080D02*
X111915001Y-140490001D01*
X111692081Y-144145000D02*
X111915001Y-143922080D01*
X110490000Y-144145000D02*
X111692081Y-144145000D01*
D30*
X112516117Y-132741118D02*
X112395000Y-132620001D01*
X112395000Y-132620001D02*
X112743999Y-132620001D01*
X112516117Y-137038883D02*
X112516117Y-132741118D01*
D32*
X113900001Y-131463999D02*
X114300000Y-131064000D01*
X112766117Y-132597883D02*
X113900001Y-131463999D01*
X112766117Y-136788883D02*
X112766117Y-132597883D01*
X110490000Y-139065000D02*
X112766117Y-136788883D01*
D31*
X111602999Y-130144999D02*
X113411000Y-131953000D01*
X109250001Y-130144999D02*
X111602999Y-130144999D01*
X107950000Y-131445000D02*
X109250001Y-130144999D01*
D30*
X112743999Y-132620001D02*
X113411000Y-131953000D01*
X113411000Y-131953000D02*
X114300000Y-131064000D01*
D32*
X107950000Y-131445000D02*
X110490000Y-128905000D01*
X137922000Y-134874000D02*
X138938000Y-135890000D01*
X134874000Y-134874000D02*
X137922000Y-134874000D01*
X78684580Y-115371420D02*
X79375000Y-114681000D01*
X74821373Y-115371420D02*
X78684580Y-115371420D01*
D30*
G04 #@! TO.N,BRRED2*
X92583000Y-161417000D02*
X92583000Y-161544000D01*
X98679000Y-155321000D02*
X92583000Y-161417000D01*
G04 #@! TO.N,BVINTRAD*
X106410510Y-135524490D02*
X107950000Y-133985000D01*
X106410510Y-137164999D02*
X106410510Y-135524490D01*
G04 #@! TO.N,Net-(6pdt1-Pad5)*
X97726830Y-151384000D02*
X92583000Y-151384000D01*
X98351682Y-152008852D02*
X97726830Y-151384000D01*
G04 #@! TO.N,NVINTRAD*
X85344000Y-135890000D02*
X83185000Y-138049000D01*
X83185000Y-138049000D02*
X83185000Y-138176000D01*
G04 #@! TO.N,NTONE*
X101002999Y-164883999D02*
X100203000Y-164084000D01*
X102090001Y-165971001D02*
X101002999Y-164883999D01*
X103614001Y-165971001D02*
X102090001Y-165971001D01*
X104902000Y-167259000D02*
X103614001Y-165971001D01*
X121412000Y-177546000D02*
X121412000Y-175006000D01*
G04 #@! TO.N,NTONEIN*
X106789001Y-161180999D02*
X107442000Y-160528000D01*
X101697371Y-161180999D02*
X106789001Y-161180999D01*
X100203000Y-161544000D02*
X101334370Y-161544000D01*
X101334370Y-161544000D02*
X101697371Y-161180999D01*
X130595001Y-144994999D02*
X131445000Y-144145000D01*
X130269999Y-145320001D02*
X130595001Y-144994999D01*
X130269999Y-154679003D02*
X130269999Y-145320001D01*
X125310002Y-159639000D02*
X130269999Y-154679003D01*
X124460000Y-159639000D02*
X125310002Y-159639000D01*
G04 #@! TO.N,BTONEIN*
X97753000Y-164846000D02*
X97753000Y-165839002D01*
X97753000Y-165839002D02*
X100424999Y-168511001D01*
X100424999Y-168511001D02*
X107953997Y-168511001D01*
X107953997Y-168511001D02*
X110493997Y-165971001D01*
X110493997Y-165971001D02*
X118693589Y-165971001D01*
X118693589Y-165971001D02*
X122777589Y-170055001D01*
X122777589Y-170055001D02*
X126318001Y-170055001D01*
X126318001Y-170055001D02*
X127107990Y-169265012D01*
X127107990Y-169265012D02*
X127107990Y-160381012D01*
X127107990Y-160381012D02*
X132620001Y-154869001D01*
X132620001Y-154869001D02*
X132620001Y-142805411D01*
X132620001Y-142805411D02*
X133070011Y-142355401D01*
X133070011Y-125450011D02*
X131445000Y-123825000D01*
X133070011Y-125984000D02*
X133070011Y-125450011D01*
X133070011Y-142355401D02*
X133070011Y-125984000D01*
G04 #@! TO.N,BRTONEGANG1OUT*
X96139000Y-164936761D02*
X96139000Y-166751000D01*
X97794583Y-163846863D02*
X97228898Y-163846863D01*
X97228898Y-163846863D02*
X96139000Y-164936761D01*
X113919000Y-153176002D02*
X113919000Y-150876000D01*
X111284001Y-155811001D02*
X113919000Y-153176002D01*
X108966000Y-157099000D02*
X110253999Y-155811001D01*
X110253999Y-155811001D02*
X111284001Y-155811001D01*
G04 #@! TO.N,GAINSTAGEPOTIN*
X89916000Y-152148792D02*
X89916000Y-155448000D01*
X89916000Y-150876000D02*
X89916000Y-152148792D01*
X94335499Y-149976001D02*
X98007500Y-146304000D01*
X90815999Y-149976001D02*
X94335499Y-149976001D01*
X89916000Y-150876000D02*
X90815999Y-149976001D01*
X98237000Y-140081000D02*
X98712000Y-140081000D01*
X97236153Y-141081847D02*
X98237000Y-140081000D01*
X97236153Y-145532653D02*
X97236153Y-141081847D01*
X98007500Y-146304000D02*
X97236153Y-145532653D01*
X87470654Y-136492654D02*
X87470654Y-135785844D01*
X88521010Y-137543010D02*
X87470654Y-136492654D01*
X93697316Y-137543010D02*
X88521010Y-137543010D01*
X97236153Y-141081847D02*
X93697316Y-137543010D01*
X80988001Y-127799999D02*
X81788000Y-127000000D01*
X80662999Y-128125001D02*
X80988001Y-127799999D01*
X80662999Y-132540001D02*
X80662999Y-128125001D01*
X82742998Y-134620000D02*
X80662999Y-132540001D01*
X86304810Y-134620000D02*
X82742998Y-134620000D01*
X87470654Y-135785844D02*
X86304810Y-134620000D01*
X99077999Y-151892000D02*
X99077999Y-147374499D01*
X99695000Y-152509001D02*
X99077999Y-151892000D01*
X100693001Y-152509001D02*
X99695000Y-152509001D01*
X101455001Y-153271001D02*
X100693001Y-152509001D01*
X103374003Y-153271001D02*
X101455001Y-153271001D01*
X104648000Y-154544998D02*
X103374003Y-153271001D01*
X104648000Y-156210000D02*
X104648000Y-154544998D01*
X99077999Y-147374499D02*
X98007500Y-146304000D01*
X110744000Y-162306000D02*
X104648000Y-156210000D01*
G04 #@! TO.N,BRTONEGANG2IN*
X116404999Y-124964999D02*
X120084998Y-121285000D01*
X116404999Y-135073999D02*
X116404999Y-124964999D01*
X120904000Y-139573000D02*
X116404999Y-135073999D01*
X120084998Y-121285000D02*
X126619000Y-121285000D01*
X127794001Y-122460001D02*
X126619000Y-121285000D01*
X130269999Y-122460001D02*
X127794001Y-122460001D01*
X131445000Y-121285000D02*
X130269999Y-122460001D01*
G04 #@! TO.N,BRTONEGANG1IN*
X128050001Y-142780001D02*
X132009001Y-142780001D01*
X110744000Y-159766000D02*
X116710001Y-153799999D01*
X124504999Y-146325003D02*
X128050001Y-142780001D01*
X116710001Y-153799999D02*
X121028001Y-153799999D01*
X121028001Y-153799999D02*
X121078503Y-153850501D01*
X121078503Y-153850501D02*
X122268001Y-153850501D01*
X132009001Y-142780001D02*
X132620001Y-142169001D01*
X122268001Y-153850501D02*
X124504999Y-151613503D01*
X124504999Y-151613503D02*
X124504999Y-146325003D01*
X129754999Y-124674999D02*
X128905000Y-123825000D01*
X130080001Y-125000001D02*
X129754999Y-124674999D01*
X131890002Y-125000001D02*
X130080001Y-125000001D01*
X132620001Y-125730000D02*
X131890002Y-125000001D01*
X132620001Y-142169001D02*
X132620001Y-125730000D01*
G04 #@! TO.N,ODout*
X112616999Y-167037001D02*
X112649000Y-167005000D01*
X112616999Y-179234314D02*
X112616999Y-167037001D01*
X112649000Y-179832000D02*
X112649000Y-179266315D01*
X112649000Y-179266315D02*
X112616999Y-179234314D01*
X102883010Y-176797010D02*
X104013000Y-177927000D01*
X100844008Y-176797010D02*
X102883010Y-176797010D01*
X94799990Y-170752992D02*
X100844008Y-176797010D01*
X94799990Y-166427990D02*
X94799990Y-170752992D01*
X93870999Y-165498999D02*
X94799990Y-166427990D01*
X83058000Y-165700010D02*
X85272011Y-163485999D01*
X85272011Y-163485999D02*
X87228997Y-163485999D01*
X87228997Y-163485999D02*
X88424999Y-164682001D01*
X88424999Y-164682001D02*
X91226001Y-164682001D01*
X91226001Y-164682001D02*
X92042999Y-165498999D01*
X92042999Y-165498999D02*
X93870999Y-165498999D01*
G04 #@! TO.N,ODin*
X104991001Y-152945999D02*
X110490000Y-147447000D01*
X103124000Y-152146000D02*
X103923999Y-152945999D01*
X103923999Y-152945999D02*
X104991001Y-152945999D01*
G04 #@! TO.N,Net-(BASS1-Pad3)*
X124457208Y-168830000D02*
X125730000Y-168830000D01*
X122188998Y-168830000D02*
X124457208Y-168830000D01*
X117079997Y-163720999D02*
X122188998Y-168830000D01*
X102873997Y-163720999D02*
X117079997Y-163720999D01*
X102093998Y-162941000D02*
X102873997Y-163720999D01*
X96647000Y-162941000D02*
X102093998Y-162941000D01*
X96012000Y-163576000D02*
X96647000Y-162941000D01*
G04 #@! TO.N,Net-(BridgeTonePot1-Pad12)*
X131445000Y-128905000D02*
X129223205Y-131126795D01*
G04 #@! TO.N,BRWHT*
X130595001Y-132294999D02*
X131445000Y-131445000D01*
X130269999Y-132620001D02*
X130595001Y-132294999D01*
X127921001Y-132620001D02*
X130269999Y-132620001D01*
X126492000Y-131191000D02*
X127921001Y-132620001D01*
X126492000Y-131191000D02*
X118872000Y-123571000D01*
G04 #@! TO.N,BRBLACK*
X72521730Y-123171268D02*
X78598998Y-117094000D01*
X56576818Y-123171268D02*
X72521730Y-123171268D01*
X55726819Y-122321269D02*
X56576818Y-123171268D01*
G04 #@! TO.N,GAINPOTOUT*
X87376000Y-152026000D02*
X87376000Y-155448000D01*
X87376000Y-150876000D02*
X87376000Y-152026000D01*
G04 #@! TO.N,MASTEROUT*
X105685510Y-134142510D02*
X104140000Y-132597000D01*
X105685510Y-140563180D02*
X105685510Y-134142510D01*
X105348680Y-140900010D02*
X105685510Y-140563180D01*
X102873010Y-140900010D02*
X105348680Y-140900010D01*
X101673000Y-139700000D02*
X102873010Y-140900010D01*
G04 #@! TO.N,Net-(BridgeVolPot1-Pad8)*
X118022001Y-175855999D02*
X118872000Y-175006000D01*
X117507001Y-176370999D02*
X118022001Y-175855999D01*
X114967001Y-176370999D02*
X117507001Y-176370999D01*
X113792000Y-177546000D02*
X114967001Y-176370999D01*
G04 #@! TO.N,Net-(C1-Pad1)*
X104648000Y-139700000D02*
X104648000Y-137922000D01*
X104648000Y-137922000D02*
X102362000Y-135636000D01*
X101687000Y-135636000D02*
X98570000Y-135636000D01*
X102362000Y-135636000D02*
X101687000Y-135636000D01*
G04 #@! TO.N,Net-(C2-Pad1)*
X82587999Y-119417999D02*
X81788000Y-118618000D01*
X96520000Y-135776399D02*
X96520000Y-135636000D01*
X98460207Y-137716606D02*
X96520000Y-135776399D01*
X85718010Y-131692010D02*
X87306200Y-131692010D01*
X83567410Y-129541410D02*
X85718010Y-131692010D01*
X83567410Y-120397410D02*
X83567410Y-129541410D01*
X81788000Y-118618000D02*
X83567410Y-120397410D01*
X95706990Y-135497990D02*
X95845000Y-135636000D01*
X89281108Y-135497990D02*
X95706990Y-135497990D01*
X87948190Y-134165072D02*
X89281108Y-135497990D01*
X95845000Y-135636000D02*
X96520000Y-135636000D01*
X87948190Y-132334000D02*
X87948190Y-134165072D01*
X87306200Y-131692010D02*
X87948190Y-132334000D01*
G04 #@! TO.N,Net-(C3-Pad2)*
X93787000Y-138811000D02*
X93312000Y-138811000D01*
X95113001Y-140137001D02*
X93787000Y-138811000D01*
X95113001Y-140706001D02*
X95113001Y-140137001D01*
X96075347Y-141668347D02*
X95113001Y-140706001D01*
G04 #@! TO.N,Net-(C5-Pad1)*
X86741000Y-140716000D02*
X86741000Y-136271000D01*
X86741000Y-136271000D02*
X86745653Y-136266347D01*
G04 #@! TO.N,Net-(C6-Pad2)*
X102108000Y-144272000D02*
X102607000Y-144272000D01*
X99187000Y-141351000D02*
X102108000Y-144272000D01*
X98712000Y-141351000D02*
X99187000Y-141351000D01*
X82630000Y-132842000D02*
X81788000Y-132000000D01*
X86868000Y-132842000D02*
X82630000Y-132842000D01*
G04 #@! TO.N,Net-(C8-Pad1)*
X82088999Y-152709999D02*
X78223000Y-148844000D01*
X84890400Y-152709999D02*
X82088999Y-152709999D01*
X86050000Y-153869599D02*
X84890400Y-152709999D01*
X86050000Y-156662000D02*
X86050000Y-153869599D01*
X92346999Y-162958999D02*
X86050000Y-156662000D01*
X93123001Y-162958999D02*
X92346999Y-162958999D01*
X95250000Y-165085998D02*
X93123001Y-162958999D01*
X117475000Y-186055000D02*
X118618000Y-187198000D01*
X117475000Y-186055000D02*
X116078000Y-184658000D01*
X95250000Y-169718000D02*
X95250000Y-165085998D01*
X98252000Y-172720000D02*
X95250000Y-169718000D01*
X98552000Y-172720000D02*
X98252000Y-172720000D01*
X98760000Y-172720000D02*
X98552000Y-172720000D01*
X102062000Y-176022000D02*
X98760000Y-172720000D01*
X102362000Y-176022000D02*
X102062000Y-176022000D01*
X117726767Y-186690000D02*
X118745000Y-186690000D01*
X114030000Y-186690000D02*
X117726767Y-186690000D01*
X103362000Y-176022000D02*
X114030000Y-186690000D01*
X102362000Y-176022000D02*
X103362000Y-176022000D01*
G04 #@! TO.N,Net-(C8-Pad2)*
X98252000Y-170180000D02*
X98552000Y-170180000D01*
D31*
G04 #@! TO.N,Net-(C10-Pad1)*
X79408000Y-146469000D02*
X79408000Y-145669000D01*
X79192000Y-146685000D02*
X79408000Y-146469000D01*
X61689000Y-146685000D02*
X79192000Y-146685000D01*
X85434219Y-145669000D02*
X85908219Y-145195000D01*
X79408000Y-145669000D02*
X85434219Y-145669000D01*
D30*
X96012000Y-138430000D02*
X98331000Y-138430000D01*
X98331000Y-138430000D02*
X98712000Y-138811000D01*
D31*
X65405000Y-153924000D02*
X63373000Y-151892000D01*
X63373000Y-151892000D02*
X62897010Y-151892000D01*
D30*
G04 #@! TO.N,Net-(C12-Pad2)*
X124460000Y-111508233D02*
X124460000Y-110490000D01*
X124460000Y-115826002D02*
X124460000Y-111508233D01*
X115461999Y-124824003D02*
X124460000Y-115826002D01*
X115461999Y-139046001D02*
X115461999Y-124824003D01*
X115062000Y-139446000D02*
X115461999Y-139046001D01*
G04 #@! TO.N,PRESIN*
X120099999Y-109770001D02*
X121920000Y-107950000D01*
X119380000Y-110490000D02*
X120099999Y-109770001D01*
X131445000Y-140165000D02*
X131445000Y-139065000D01*
X131180001Y-140429999D02*
X131445000Y-140165000D01*
X128224906Y-140429999D02*
X131180001Y-140429999D01*
X126440589Y-142214316D02*
X128224906Y-140429999D01*
X126440589Y-142780001D02*
X126440589Y-142214316D01*
D31*
G04 #@! TO.N,Net-(C14-Pad1)*
X57900372Y-158620372D02*
X57277000Y-157997000D01*
X58015374Y-158620372D02*
X57900372Y-158620372D01*
X64135000Y-164739998D02*
X58015374Y-158620372D01*
X64135000Y-167640000D02*
X64135000Y-164739998D01*
D30*
G04 #@! TO.N,Net-(C17-Pad2)*
X71628000Y-153162000D02*
X71628000Y-151638000D01*
X69596000Y-155194000D02*
X71628000Y-153162000D01*
X63246000Y-155194000D02*
X69596000Y-155194000D01*
X60198000Y-158242000D02*
X63246000Y-155194000D01*
G04 #@! TO.N,Net-(C17-Pad1)*
X80273000Y-156473000D02*
X83820000Y-160020000D01*
X73152000Y-156473000D02*
X80273000Y-156473000D01*
X60597999Y-159112001D02*
X60198000Y-159512000D01*
X63510000Y-156200000D02*
X60597999Y-159112001D01*
X67590500Y-156200000D02*
X63510000Y-156200000D01*
X69596000Y-158205500D02*
X67590500Y-156200000D01*
G04 #@! TO.N,Net-(C19-Pad1)*
X62484000Y-142240000D02*
X60071000Y-139827000D01*
X62484000Y-143773000D02*
X62484000Y-142240000D01*
X58171000Y-161979347D02*
X60116347Y-161979347D01*
X60116347Y-161979347D02*
X61976000Y-163839000D01*
D31*
G04 #@! TO.N,ODMIDIN*
X69088000Y-161544000D02*
X72898000Y-161544000D01*
X65786000Y-158242000D02*
X69088000Y-161544000D01*
D30*
G04 #@! TO.N,Net-(C21-Pad2)*
X72898000Y-159512000D02*
X68372999Y-159512000D01*
X68372999Y-159512000D02*
X65786000Y-156925001D01*
X77216000Y-163830000D02*
X72898000Y-159512000D01*
X77216000Y-166116000D02*
X77216000Y-163830000D01*
G04 #@! TO.N,Net-(C22-Pad1)*
X81534000Y-163830000D02*
X80518000Y-162814000D01*
X80518000Y-162814000D02*
X77479000Y-162814000D01*
G04 #@! TO.N,Net-(C23-Pad1)*
X73704999Y-166160999D02*
X75692000Y-168148000D01*
X69279003Y-166160999D02*
X73704999Y-166160999D01*
X65655437Y-169784565D02*
X69279003Y-166160999D01*
X58307435Y-169784565D02*
X65655437Y-169784565D01*
X54610000Y-173482000D02*
X58307435Y-169784565D01*
G04 #@! TO.N,Vref2*
X125730000Y-120015000D02*
X134230000Y-120015000D01*
X134230000Y-120015000D02*
X134865000Y-120650000D01*
G04 #@! TO.N,ODMIDOUT*
X90175770Y-162311770D02*
X91313000Y-163449000D01*
X84890400Y-162311770D02*
X90175770Y-162311770D01*
X82222180Y-164979990D02*
X84890400Y-162311770D01*
X79266000Y-166116000D02*
X80402010Y-164979990D01*
X80402010Y-164979990D02*
X82222180Y-164979990D01*
X109513001Y-176696001D02*
X104267000Y-171450000D01*
X110402001Y-176696001D02*
X109513001Y-176696001D01*
X111252000Y-177546000D02*
X110402001Y-176696001D01*
X101249999Y-171450000D02*
X104267000Y-171450000D01*
G04 #@! TO.N,Vref*
X101373058Y-137164999D02*
X101373058Y-137259942D01*
X101373058Y-137259942D02*
X100330000Y-138303000D01*
G04 #@! TO.N,Net-(R7-Pad2)*
X89108116Y-136398000D02*
X87924558Y-135214442D01*
X89535000Y-136398000D02*
X89108116Y-136398000D01*
G04 #@! TO.N,Net-(R13-Pad1)*
X119634000Y-184150000D02*
X121285000Y-184150000D01*
X115697000Y-180213000D02*
X119634000Y-184150000D01*
G04 #@! TO.N,Net-(R22-Pad1)*
X59573410Y-155947000D02*
X57277000Y-155947000D01*
X62172010Y-153348400D02*
X59573410Y-155947000D01*
X62172010Y-151051990D02*
X62172010Y-153348400D01*
X63999000Y-149225000D02*
X62172010Y-151051990D01*
X67089000Y-149225000D02*
X63999000Y-149225000D01*
G04 #@! TO.N,Net-(R27-Pad1)*
X115062000Y-147551998D02*
X115062000Y-149098000D01*
X117613999Y-144999999D02*
X115062000Y-147551998D01*
X123190000Y-141097000D02*
X119287001Y-144999999D01*
X119287001Y-144999999D02*
X117613999Y-144999999D01*
X94851001Y-160418999D02*
X94361000Y-160909000D01*
X100743001Y-160418999D02*
X94851001Y-160418999D01*
X104902000Y-158369000D02*
X102793000Y-158369000D01*
X102793000Y-158369000D02*
X100743001Y-160418999D01*
G04 #@! TO.N,Net-(R30-Pad2)*
X80010000Y-158750000D02*
X78986499Y-157726499D01*
X78975001Y-157715001D02*
X78986499Y-157726499D01*
X74149001Y-157715001D02*
X78975001Y-157715001D01*
G04 #@! TD*
M02*
