G04 #@! TF.GenerationSoftware,KiCad,Pcbnew,(5.0.0)*
G04 #@! TF.CreationDate,2018-10-02T15:30:55-05:00*
G04 #@! TF.ProjectId,FinalDistCircuit,46696E616C4469737443697263756974,rev?*
G04 #@! TF.SameCoordinates,Original*
G04 #@! TF.FileFunction,Soldermask,Top*
G04 #@! TF.FilePolarity,Negative*
%FSLAX46Y46*%
G04 Gerber Fmt 4.6, Leading zero omitted, Abs format (unit mm)*
G04 Created by KiCad (PCBNEW (5.0.0)) date 10/02/18 15:30:55*
%MOMM*%
%LPD*%
G01*
G04 APERTURE LIST*
%ADD10C,4.400000*%
%ADD11C,2.200000*%
%ADD12R,2.000000X2.000000*%
%ADD13C,2.000000*%
%ADD14C,4.210000*%
%ADD15C,3.702000*%
%ADD16O,2.100000X2.100000*%
%ADD17R,2.100000X2.100000*%
%ADD18C,2.100000*%
%ADD19C,2.100000*%
%ADD20C,0.100000*%
%ADD21C,1.840000*%
%ADD22C,1.825000*%
%ADD23C,1.550000*%
%ADD24C,3.600000*%
%ADD25R,2.200000X2.200000*%
%ADD26O,1.900000X1.300000*%
%ADD27R,1.900000X1.300000*%
%ADD28C,1.600000*%
%ADD29R,1.950000X1.000000*%
%ADD30C,2.600000*%
G04 APERTURE END LIST*
D10*
G04 #@! TO.C,BASS*
X118730000Y-161930000D03*
X118730000Y-170730000D03*
D11*
X125730000Y-163830000D03*
X125730000Y-166330000D03*
X125730000Y-168830000D03*
G04 #@! TD*
D12*
G04 #@! TO.C,C10*
X63881000Y-174752000D03*
D13*
X58881000Y-174752000D03*
G04 #@! TD*
D14*
G04 #@! TO.C,9V1*
X83819999Y-154940000D03*
X83820000Y-142239999D03*
D15*
X77470000Y-137477500D03*
X77469999Y-159702500D03*
G04 #@! TD*
D16*
G04 #@! TO.C,Jack1*
X138938000Y-135890000D03*
X138938000Y-138430000D03*
D17*
X138938000Y-140970000D03*
G04 #@! TD*
D18*
G04 #@! TO.C,PickupInputs1*
X74821373Y-115371420D03*
D19*
X74821373Y-115371420D02*
X74821373Y-115371420D01*
D18*
X72434554Y-116240151D03*
D19*
X72434554Y-116240151D02*
X72434554Y-116240151D01*
D18*
X70047735Y-117108882D03*
D19*
X70047735Y-117108882D02*
X70047735Y-117108882D01*
D18*
X67660916Y-117977613D03*
D19*
X67660916Y-117977613D02*
X67660916Y-117977613D01*
D18*
X65274096Y-118846344D03*
D19*
X65274096Y-118846344D02*
X65274096Y-118846344D01*
D18*
X62887277Y-119715075D03*
D19*
X62887277Y-119715075D02*
X62887277Y-119715075D01*
D18*
X60500458Y-120583807D03*
D19*
X60500458Y-120583807D02*
X60500458Y-120583807D01*
D18*
X58113639Y-121452538D03*
D19*
X58113639Y-121452538D02*
X58113639Y-121452538D01*
D18*
X55726819Y-122321269D03*
D19*
X55726819Y-122321269D02*
X55726819Y-122321269D01*
D18*
X53340000Y-123190000D03*
D20*
G36*
X54685798Y-123817556D02*
X52712444Y-124535798D01*
X51994202Y-122562444D01*
X53967556Y-121844202D01*
X54685798Y-123817556D01*
X54685798Y-123817556D01*
G37*
G04 #@! TD*
D17*
G04 #@! TO.C,BridgeTonePot1*
X131445000Y-118745000D03*
D16*
X128905000Y-118745000D03*
X131445000Y-121285000D03*
X128905000Y-121285000D03*
X131445000Y-123825000D03*
X128905000Y-123825000D03*
X131445000Y-126365000D03*
X128905000Y-126365000D03*
X131445000Y-128905000D03*
X128905000Y-128905000D03*
X131445000Y-131445000D03*
X128905000Y-131445000D03*
X131445000Y-133985000D03*
X128905000Y-133985000D03*
G04 #@! TD*
G04 #@! TO.C,NeckTonePot1*
X128905000Y-154305000D03*
X131445000Y-154305000D03*
X128905000Y-151765000D03*
X131445000Y-151765000D03*
X128905000Y-149225000D03*
X131445000Y-149225000D03*
X128905000Y-146685000D03*
X131445000Y-146685000D03*
X128905000Y-144145000D03*
X131445000Y-144145000D03*
X128905000Y-141605000D03*
X131445000Y-141605000D03*
X128905000Y-139065000D03*
D17*
X131445000Y-139065000D03*
G04 #@! TD*
D13*
G04 #@! TO.C,6pdt2*
X110744000Y-169926000D03*
X103124000Y-169926000D03*
X110744000Y-167386000D03*
X103124000Y-167386000D03*
X110744000Y-164846000D03*
X103124000Y-164846000D03*
X110744000Y-162306000D03*
X103124000Y-162306000D03*
X110744000Y-159766000D03*
X103124000Y-159766000D03*
X110744000Y-157226000D03*
X103124000Y-157226000D03*
X110744000Y-154686000D03*
X103124000Y-154686000D03*
X110744000Y-152146000D03*
X103124000Y-152146000D03*
X110744000Y-149606000D03*
X103124000Y-149606000D03*
G04 #@! TD*
D21*
G04 #@! TO.C,TRANGAIN1*
X121285000Y-184150000D03*
X118745000Y-186690000D03*
X116205000Y-184150000D03*
G04 #@! TD*
D16*
G04 #@! TO.C,3WaySwitch1*
X55245000Y-128905000D03*
X52705000Y-128905000D03*
X50165000Y-128905000D03*
D17*
X47625000Y-128905000D03*
G04 #@! TD*
D13*
G04 #@! TO.C,4pdt1*
X58674000Y-132715000D03*
X61214000Y-132715000D03*
X63754000Y-132715000D03*
X66294000Y-132715000D03*
X68834000Y-132715000D03*
X71374000Y-132715000D03*
X71374000Y-125095000D03*
X68834000Y-125095000D03*
X66294000Y-125095000D03*
X63754000Y-125095000D03*
X61214000Y-125095000D03*
X58674000Y-125095000D03*
G04 #@! TD*
G04 #@! TO.C,6pdt1*
X92583000Y-146304000D03*
X100203000Y-146304000D03*
X92583000Y-148844000D03*
X100203000Y-148844000D03*
X92583000Y-151384000D03*
X100203000Y-151384000D03*
X92583000Y-153924000D03*
X100203000Y-153924000D03*
X92583000Y-156464000D03*
X100203000Y-156464000D03*
X92583000Y-159004000D03*
X100203000Y-159004000D03*
X92583000Y-161544000D03*
X100203000Y-161544000D03*
X92583000Y-164084000D03*
X100203000Y-164084000D03*
X92583000Y-166624000D03*
X100203000Y-166624000D03*
G04 #@! TD*
D16*
G04 #@! TO.C,BridgeVolPot1*
X107950000Y-144145000D03*
X110490000Y-144145000D03*
X107950000Y-141605000D03*
X110490000Y-141605000D03*
X107950000Y-139065000D03*
X110490000Y-139065000D03*
X107950000Y-136525000D03*
X110490000Y-136525000D03*
X107950000Y-133985000D03*
X110490000Y-133985000D03*
X107950000Y-131445000D03*
X110490000Y-131445000D03*
X107950000Y-128905000D03*
D17*
X110490000Y-128905000D03*
G04 #@! TD*
D20*
G04 #@! TO.C,C1*
G36*
X102296707Y-138626542D02*
X102327787Y-138631152D01*
X102358266Y-138638787D01*
X102387850Y-138649372D01*
X102416254Y-138662806D01*
X102443204Y-138678959D01*
X102468442Y-138697677D01*
X102491723Y-138718777D01*
X102512823Y-138742058D01*
X102531541Y-138767296D01*
X102547694Y-138794246D01*
X102561128Y-138822650D01*
X102571713Y-138852234D01*
X102579348Y-138882713D01*
X102583958Y-138913793D01*
X102585500Y-138945176D01*
X102585500Y-140454824D01*
X102583958Y-140486207D01*
X102579348Y-140517287D01*
X102571713Y-140547766D01*
X102561128Y-140577350D01*
X102547694Y-140605754D01*
X102531541Y-140632704D01*
X102512823Y-140657942D01*
X102491723Y-140681223D01*
X102468442Y-140702323D01*
X102443204Y-140721041D01*
X102416254Y-140737194D01*
X102387850Y-140750628D01*
X102358266Y-140761213D01*
X102327787Y-140768848D01*
X102296707Y-140773458D01*
X102265324Y-140775000D01*
X101080676Y-140775000D01*
X101049293Y-140773458D01*
X101018213Y-140768848D01*
X100987734Y-140761213D01*
X100958150Y-140750628D01*
X100929746Y-140737194D01*
X100902796Y-140721041D01*
X100877558Y-140702323D01*
X100854277Y-140681223D01*
X100833177Y-140657942D01*
X100814459Y-140632704D01*
X100798306Y-140605754D01*
X100784872Y-140577350D01*
X100774287Y-140547766D01*
X100766652Y-140517287D01*
X100762042Y-140486207D01*
X100760500Y-140454824D01*
X100760500Y-138945176D01*
X100762042Y-138913793D01*
X100766652Y-138882713D01*
X100774287Y-138852234D01*
X100784872Y-138822650D01*
X100798306Y-138794246D01*
X100814459Y-138767296D01*
X100833177Y-138742058D01*
X100854277Y-138718777D01*
X100877558Y-138697677D01*
X100902796Y-138678959D01*
X100929746Y-138662806D01*
X100958150Y-138649372D01*
X100987734Y-138638787D01*
X101018213Y-138631152D01*
X101049293Y-138626542D01*
X101080676Y-138625000D01*
X102265324Y-138625000D01*
X102296707Y-138626542D01*
X102296707Y-138626542D01*
G37*
D22*
X101673000Y-139700000D03*
D20*
G36*
X105271707Y-138626542D02*
X105302787Y-138631152D01*
X105333266Y-138638787D01*
X105362850Y-138649372D01*
X105391254Y-138662806D01*
X105418204Y-138678959D01*
X105443442Y-138697677D01*
X105466723Y-138718777D01*
X105487823Y-138742058D01*
X105506541Y-138767296D01*
X105522694Y-138794246D01*
X105536128Y-138822650D01*
X105546713Y-138852234D01*
X105554348Y-138882713D01*
X105558958Y-138913793D01*
X105560500Y-138945176D01*
X105560500Y-140454824D01*
X105558958Y-140486207D01*
X105554348Y-140517287D01*
X105546713Y-140547766D01*
X105536128Y-140577350D01*
X105522694Y-140605754D01*
X105506541Y-140632704D01*
X105487823Y-140657942D01*
X105466723Y-140681223D01*
X105443442Y-140702323D01*
X105418204Y-140721041D01*
X105391254Y-140737194D01*
X105362850Y-140750628D01*
X105333266Y-140761213D01*
X105302787Y-140768848D01*
X105271707Y-140773458D01*
X105240324Y-140775000D01*
X104055676Y-140775000D01*
X104024293Y-140773458D01*
X103993213Y-140768848D01*
X103962734Y-140761213D01*
X103933150Y-140750628D01*
X103904746Y-140737194D01*
X103877796Y-140721041D01*
X103852558Y-140702323D01*
X103829277Y-140681223D01*
X103808177Y-140657942D01*
X103789459Y-140632704D01*
X103773306Y-140605754D01*
X103759872Y-140577350D01*
X103749287Y-140547766D01*
X103741652Y-140517287D01*
X103737042Y-140486207D01*
X103735500Y-140454824D01*
X103735500Y-138945176D01*
X103737042Y-138913793D01*
X103741652Y-138882713D01*
X103749287Y-138852234D01*
X103759872Y-138822650D01*
X103773306Y-138794246D01*
X103789459Y-138767296D01*
X103808177Y-138742058D01*
X103829277Y-138718777D01*
X103852558Y-138697677D01*
X103877796Y-138678959D01*
X103904746Y-138662806D01*
X103933150Y-138649372D01*
X103962734Y-138638787D01*
X103993213Y-138631152D01*
X104024293Y-138626542D01*
X104055676Y-138625000D01*
X105240324Y-138625000D01*
X105271707Y-138626542D01*
X105271707Y-138626542D01*
G37*
D22*
X104648000Y-139700000D03*
G04 #@! TD*
D13*
G04 #@! TO.C,C2*
X81788000Y-118618000D03*
X81788000Y-123618000D03*
G04 #@! TD*
D20*
G04 #@! TO.C,C4*
G36*
X89099071Y-140198623D02*
X89131781Y-140203475D01*
X89163857Y-140211509D01*
X89194991Y-140222649D01*
X89224884Y-140236787D01*
X89253247Y-140253787D01*
X89279807Y-140273485D01*
X89304308Y-140295692D01*
X89326515Y-140320193D01*
X89346213Y-140346753D01*
X89363213Y-140375116D01*
X89377351Y-140405009D01*
X89388491Y-140436143D01*
X89396525Y-140468219D01*
X89401377Y-140500929D01*
X89403000Y-140533956D01*
X89403000Y-141660044D01*
X89401377Y-141693071D01*
X89396525Y-141725781D01*
X89388491Y-141757857D01*
X89377351Y-141788991D01*
X89363213Y-141818884D01*
X89346213Y-141847247D01*
X89326515Y-141873807D01*
X89304308Y-141898308D01*
X89279807Y-141920515D01*
X89253247Y-141940213D01*
X89224884Y-141957213D01*
X89194991Y-141971351D01*
X89163857Y-141982491D01*
X89131781Y-141990525D01*
X89099071Y-141995377D01*
X89066044Y-141997000D01*
X88189956Y-141997000D01*
X88156929Y-141995377D01*
X88124219Y-141990525D01*
X88092143Y-141982491D01*
X88061009Y-141971351D01*
X88031116Y-141957213D01*
X88002753Y-141940213D01*
X87976193Y-141920515D01*
X87951692Y-141898308D01*
X87929485Y-141873807D01*
X87909787Y-141847247D01*
X87892787Y-141818884D01*
X87878649Y-141788991D01*
X87867509Y-141757857D01*
X87859475Y-141725781D01*
X87854623Y-141693071D01*
X87853000Y-141660044D01*
X87853000Y-140533956D01*
X87854623Y-140500929D01*
X87859475Y-140468219D01*
X87867509Y-140436143D01*
X87878649Y-140405009D01*
X87892787Y-140375116D01*
X87909787Y-140346753D01*
X87929485Y-140320193D01*
X87951692Y-140295692D01*
X87976193Y-140273485D01*
X88002753Y-140253787D01*
X88031116Y-140236787D01*
X88061009Y-140222649D01*
X88092143Y-140211509D01*
X88124219Y-140203475D01*
X88156929Y-140198623D01*
X88189956Y-140197000D01*
X89066044Y-140197000D01*
X89099071Y-140198623D01*
X89099071Y-140198623D01*
G37*
D23*
X88628000Y-141097000D03*
D20*
G36*
X91149071Y-140198623D02*
X91181781Y-140203475D01*
X91213857Y-140211509D01*
X91244991Y-140222649D01*
X91274884Y-140236787D01*
X91303247Y-140253787D01*
X91329807Y-140273485D01*
X91354308Y-140295692D01*
X91376515Y-140320193D01*
X91396213Y-140346753D01*
X91413213Y-140375116D01*
X91427351Y-140405009D01*
X91438491Y-140436143D01*
X91446525Y-140468219D01*
X91451377Y-140500929D01*
X91453000Y-140533956D01*
X91453000Y-141660044D01*
X91451377Y-141693071D01*
X91446525Y-141725781D01*
X91438491Y-141757857D01*
X91427351Y-141788991D01*
X91413213Y-141818884D01*
X91396213Y-141847247D01*
X91376515Y-141873807D01*
X91354308Y-141898308D01*
X91329807Y-141920515D01*
X91303247Y-141940213D01*
X91274884Y-141957213D01*
X91244991Y-141971351D01*
X91213857Y-141982491D01*
X91181781Y-141990525D01*
X91149071Y-141995377D01*
X91116044Y-141997000D01*
X90239956Y-141997000D01*
X90206929Y-141995377D01*
X90174219Y-141990525D01*
X90142143Y-141982491D01*
X90111009Y-141971351D01*
X90081116Y-141957213D01*
X90052753Y-141940213D01*
X90026193Y-141920515D01*
X90001692Y-141898308D01*
X89979485Y-141873807D01*
X89959787Y-141847247D01*
X89942787Y-141818884D01*
X89928649Y-141788991D01*
X89917509Y-141757857D01*
X89909475Y-141725781D01*
X89904623Y-141693071D01*
X89903000Y-141660044D01*
X89903000Y-140533956D01*
X89904623Y-140500929D01*
X89909475Y-140468219D01*
X89917509Y-140436143D01*
X89928649Y-140405009D01*
X89942787Y-140375116D01*
X89959787Y-140346753D01*
X89979485Y-140320193D01*
X90001692Y-140295692D01*
X90026193Y-140273485D01*
X90052753Y-140253787D01*
X90081116Y-140236787D01*
X90111009Y-140222649D01*
X90142143Y-140211509D01*
X90174219Y-140203475D01*
X90206929Y-140198623D01*
X90239956Y-140197000D01*
X91116044Y-140197000D01*
X91149071Y-140198623D01*
X91149071Y-140198623D01*
G37*
D23*
X90678000Y-141097000D03*
G04 #@! TD*
D20*
G04 #@! TO.C,C5*
G36*
X91047707Y-142748542D02*
X91078787Y-142753152D01*
X91109266Y-142760787D01*
X91138850Y-142771372D01*
X91167254Y-142784806D01*
X91194204Y-142800959D01*
X91219442Y-142819677D01*
X91242723Y-142840777D01*
X91263823Y-142864058D01*
X91282541Y-142889296D01*
X91298694Y-142916246D01*
X91312128Y-142944650D01*
X91322713Y-142974234D01*
X91330348Y-143004713D01*
X91334958Y-143035793D01*
X91336500Y-143067176D01*
X91336500Y-145476824D01*
X91334958Y-145508207D01*
X91330348Y-145539287D01*
X91322713Y-145569766D01*
X91312128Y-145599350D01*
X91298694Y-145627754D01*
X91282541Y-145654704D01*
X91263823Y-145679942D01*
X91242723Y-145703223D01*
X91219442Y-145724323D01*
X91194204Y-145743041D01*
X91167254Y-145759194D01*
X91138850Y-145772628D01*
X91109266Y-145783213D01*
X91078787Y-145790848D01*
X91047707Y-145795458D01*
X91016324Y-145797000D01*
X89831676Y-145797000D01*
X89800293Y-145795458D01*
X89769213Y-145790848D01*
X89738734Y-145783213D01*
X89709150Y-145772628D01*
X89680746Y-145759194D01*
X89653796Y-145743041D01*
X89628558Y-145724323D01*
X89605277Y-145703223D01*
X89584177Y-145679942D01*
X89565459Y-145654704D01*
X89549306Y-145627754D01*
X89535872Y-145599350D01*
X89525287Y-145569766D01*
X89517652Y-145539287D01*
X89513042Y-145508207D01*
X89511500Y-145476824D01*
X89511500Y-143067176D01*
X89513042Y-143035793D01*
X89517652Y-143004713D01*
X89525287Y-142974234D01*
X89535872Y-142944650D01*
X89549306Y-142916246D01*
X89565459Y-142889296D01*
X89584177Y-142864058D01*
X89605277Y-142840777D01*
X89628558Y-142819677D01*
X89653796Y-142800959D01*
X89680746Y-142784806D01*
X89709150Y-142771372D01*
X89738734Y-142760787D01*
X89769213Y-142753152D01*
X89800293Y-142748542D01*
X89831676Y-142747000D01*
X91016324Y-142747000D01*
X91047707Y-142748542D01*
X91047707Y-142748542D01*
G37*
D22*
X90424000Y-144272000D03*
D20*
G36*
X88072707Y-142748542D02*
X88103787Y-142753152D01*
X88134266Y-142760787D01*
X88163850Y-142771372D01*
X88192254Y-142784806D01*
X88219204Y-142800959D01*
X88244442Y-142819677D01*
X88267723Y-142840777D01*
X88288823Y-142864058D01*
X88307541Y-142889296D01*
X88323694Y-142916246D01*
X88337128Y-142944650D01*
X88347713Y-142974234D01*
X88355348Y-143004713D01*
X88359958Y-143035793D01*
X88361500Y-143067176D01*
X88361500Y-145476824D01*
X88359958Y-145508207D01*
X88355348Y-145539287D01*
X88347713Y-145569766D01*
X88337128Y-145599350D01*
X88323694Y-145627754D01*
X88307541Y-145654704D01*
X88288823Y-145679942D01*
X88267723Y-145703223D01*
X88244442Y-145724323D01*
X88219204Y-145743041D01*
X88192254Y-145759194D01*
X88163850Y-145772628D01*
X88134266Y-145783213D01*
X88103787Y-145790848D01*
X88072707Y-145795458D01*
X88041324Y-145797000D01*
X86856676Y-145797000D01*
X86825293Y-145795458D01*
X86794213Y-145790848D01*
X86763734Y-145783213D01*
X86734150Y-145772628D01*
X86705746Y-145759194D01*
X86678796Y-145743041D01*
X86653558Y-145724323D01*
X86630277Y-145703223D01*
X86609177Y-145679942D01*
X86590459Y-145654704D01*
X86574306Y-145627754D01*
X86560872Y-145599350D01*
X86550287Y-145569766D01*
X86542652Y-145539287D01*
X86538042Y-145508207D01*
X86536500Y-145476824D01*
X86536500Y-143067176D01*
X86538042Y-143035793D01*
X86542652Y-143004713D01*
X86550287Y-142974234D01*
X86560872Y-142944650D01*
X86574306Y-142916246D01*
X86590459Y-142889296D01*
X86609177Y-142864058D01*
X86630277Y-142840777D01*
X86653558Y-142819677D01*
X86678796Y-142800959D01*
X86705746Y-142784806D01*
X86734150Y-142771372D01*
X86763734Y-142760787D01*
X86794213Y-142753152D01*
X86825293Y-142748542D01*
X86856676Y-142747000D01*
X88041324Y-142747000D01*
X88072707Y-142748542D01*
X88072707Y-142748542D01*
G37*
D22*
X87449000Y-144272000D03*
G04 #@! TD*
D13*
G04 #@! TO.C,C6*
X81788000Y-132000000D03*
X81788000Y-127000000D03*
G04 #@! TD*
D12*
G04 #@! TO.C,C14*
X64135000Y-167640000D03*
D13*
X66135000Y-167640000D03*
G04 #@! TD*
D20*
G04 #@! TO.C,C18*
G36*
X47968317Y-164454354D02*
X47995619Y-164458404D01*
X48022393Y-164465111D01*
X48048380Y-164474409D01*
X48073330Y-164486210D01*
X48097004Y-164500399D01*
X48119173Y-164516841D01*
X48139624Y-164535376D01*
X48158159Y-164555827D01*
X48174601Y-164577996D01*
X48188790Y-164601670D01*
X48200591Y-164626620D01*
X48209889Y-164652607D01*
X48216596Y-164679381D01*
X48220646Y-164706683D01*
X48222000Y-164734250D01*
X48222000Y-169021750D01*
X48220646Y-169049317D01*
X48216596Y-169076619D01*
X48209889Y-169103393D01*
X48200591Y-169129380D01*
X48188790Y-169154330D01*
X48174601Y-169178004D01*
X48158159Y-169200173D01*
X48139624Y-169220624D01*
X48119173Y-169239159D01*
X48097004Y-169255601D01*
X48073330Y-169269790D01*
X48048380Y-169281591D01*
X48022393Y-169290889D01*
X47995619Y-169297596D01*
X47968317Y-169301646D01*
X47940750Y-169303000D01*
X44903250Y-169303000D01*
X44875683Y-169301646D01*
X44848381Y-169297596D01*
X44821607Y-169290889D01*
X44795620Y-169281591D01*
X44770670Y-169269790D01*
X44746996Y-169255601D01*
X44724827Y-169239159D01*
X44704376Y-169220624D01*
X44685841Y-169200173D01*
X44669399Y-169178004D01*
X44655210Y-169154330D01*
X44643409Y-169129380D01*
X44634111Y-169103393D01*
X44627404Y-169076619D01*
X44623354Y-169049317D01*
X44622000Y-169021750D01*
X44622000Y-164734250D01*
X44623354Y-164706683D01*
X44627404Y-164679381D01*
X44634111Y-164652607D01*
X44643409Y-164626620D01*
X44655210Y-164601670D01*
X44669399Y-164577996D01*
X44685841Y-164555827D01*
X44704376Y-164535376D01*
X44724827Y-164516841D01*
X44746996Y-164500399D01*
X44770670Y-164486210D01*
X44795620Y-164474409D01*
X44821607Y-164465111D01*
X44848381Y-164458404D01*
X44875683Y-164454354D01*
X44903250Y-164453000D01*
X47940750Y-164453000D01*
X47968317Y-164454354D01*
X47968317Y-164454354D01*
G37*
D24*
X46422000Y-166878000D03*
D20*
G36*
X53168317Y-164454354D02*
X53195619Y-164458404D01*
X53222393Y-164465111D01*
X53248380Y-164474409D01*
X53273330Y-164486210D01*
X53297004Y-164500399D01*
X53319173Y-164516841D01*
X53339624Y-164535376D01*
X53358159Y-164555827D01*
X53374601Y-164577996D01*
X53388790Y-164601670D01*
X53400591Y-164626620D01*
X53409889Y-164652607D01*
X53416596Y-164679381D01*
X53420646Y-164706683D01*
X53422000Y-164734250D01*
X53422000Y-169021750D01*
X53420646Y-169049317D01*
X53416596Y-169076619D01*
X53409889Y-169103393D01*
X53400591Y-169129380D01*
X53388790Y-169154330D01*
X53374601Y-169178004D01*
X53358159Y-169200173D01*
X53339624Y-169220624D01*
X53319173Y-169239159D01*
X53297004Y-169255601D01*
X53273330Y-169269790D01*
X53248380Y-169281591D01*
X53222393Y-169290889D01*
X53195619Y-169297596D01*
X53168317Y-169301646D01*
X53140750Y-169303000D01*
X50103250Y-169303000D01*
X50075683Y-169301646D01*
X50048381Y-169297596D01*
X50021607Y-169290889D01*
X49995620Y-169281591D01*
X49970670Y-169269790D01*
X49946996Y-169255601D01*
X49924827Y-169239159D01*
X49904376Y-169220624D01*
X49885841Y-169200173D01*
X49869399Y-169178004D01*
X49855210Y-169154330D01*
X49843409Y-169129380D01*
X49834111Y-169103393D01*
X49827404Y-169076619D01*
X49823354Y-169049317D01*
X49822000Y-169021750D01*
X49822000Y-164734250D01*
X49823354Y-164706683D01*
X49827404Y-164679381D01*
X49834111Y-164652607D01*
X49843409Y-164626620D01*
X49855210Y-164601670D01*
X49869399Y-164577996D01*
X49885841Y-164555827D01*
X49904376Y-164535376D01*
X49924827Y-164516841D01*
X49946996Y-164500399D01*
X49970670Y-164486210D01*
X49995620Y-164474409D01*
X50021607Y-164465111D01*
X50048381Y-164458404D01*
X50075683Y-164454354D01*
X50103250Y-164453000D01*
X53140750Y-164453000D01*
X53168317Y-164454354D01*
X53168317Y-164454354D01*
G37*
D24*
X51622000Y-166878000D03*
G04 #@! TD*
D13*
G04 #@! TO.C,C19*
X58896000Y-167640000D03*
D12*
X56896000Y-167640000D03*
G04 #@! TD*
D20*
G04 #@! TO.C,C22*
G36*
X82130071Y-163056623D02*
X82162781Y-163061475D01*
X82194857Y-163069509D01*
X82225991Y-163080649D01*
X82255884Y-163094787D01*
X82284247Y-163111787D01*
X82310807Y-163131485D01*
X82335308Y-163153692D01*
X82357515Y-163178193D01*
X82377213Y-163204753D01*
X82394213Y-163233116D01*
X82408351Y-163263009D01*
X82419491Y-163294143D01*
X82427525Y-163326219D01*
X82432377Y-163358929D01*
X82434000Y-163391956D01*
X82434000Y-164268044D01*
X82432377Y-164301071D01*
X82427525Y-164333781D01*
X82419491Y-164365857D01*
X82408351Y-164396991D01*
X82394213Y-164426884D01*
X82377213Y-164455247D01*
X82357515Y-164481807D01*
X82335308Y-164506308D01*
X82310807Y-164528515D01*
X82284247Y-164548213D01*
X82255884Y-164565213D01*
X82225991Y-164579351D01*
X82194857Y-164590491D01*
X82162781Y-164598525D01*
X82130071Y-164603377D01*
X82097044Y-164605000D01*
X80970956Y-164605000D01*
X80937929Y-164603377D01*
X80905219Y-164598525D01*
X80873143Y-164590491D01*
X80842009Y-164579351D01*
X80812116Y-164565213D01*
X80783753Y-164548213D01*
X80757193Y-164528515D01*
X80732692Y-164506308D01*
X80710485Y-164481807D01*
X80690787Y-164455247D01*
X80673787Y-164426884D01*
X80659649Y-164396991D01*
X80648509Y-164365857D01*
X80640475Y-164333781D01*
X80635623Y-164301071D01*
X80634000Y-164268044D01*
X80634000Y-163391956D01*
X80635623Y-163358929D01*
X80640475Y-163326219D01*
X80648509Y-163294143D01*
X80659649Y-163263009D01*
X80673787Y-163233116D01*
X80690787Y-163204753D01*
X80710485Y-163178193D01*
X80732692Y-163153692D01*
X80757193Y-163131485D01*
X80783753Y-163111787D01*
X80812116Y-163094787D01*
X80842009Y-163080649D01*
X80873143Y-163069509D01*
X80905219Y-163061475D01*
X80937929Y-163056623D01*
X80970956Y-163055000D01*
X82097044Y-163055000D01*
X82130071Y-163056623D01*
X82130071Y-163056623D01*
G37*
D23*
X81534000Y-163830000D03*
D20*
G36*
X82130071Y-165106623D02*
X82162781Y-165111475D01*
X82194857Y-165119509D01*
X82225991Y-165130649D01*
X82255884Y-165144787D01*
X82284247Y-165161787D01*
X82310807Y-165181485D01*
X82335308Y-165203692D01*
X82357515Y-165228193D01*
X82377213Y-165254753D01*
X82394213Y-165283116D01*
X82408351Y-165313009D01*
X82419491Y-165344143D01*
X82427525Y-165376219D01*
X82432377Y-165408929D01*
X82434000Y-165441956D01*
X82434000Y-166318044D01*
X82432377Y-166351071D01*
X82427525Y-166383781D01*
X82419491Y-166415857D01*
X82408351Y-166446991D01*
X82394213Y-166476884D01*
X82377213Y-166505247D01*
X82357515Y-166531807D01*
X82335308Y-166556308D01*
X82310807Y-166578515D01*
X82284247Y-166598213D01*
X82255884Y-166615213D01*
X82225991Y-166629351D01*
X82194857Y-166640491D01*
X82162781Y-166648525D01*
X82130071Y-166653377D01*
X82097044Y-166655000D01*
X80970956Y-166655000D01*
X80937929Y-166653377D01*
X80905219Y-166648525D01*
X80873143Y-166640491D01*
X80842009Y-166629351D01*
X80812116Y-166615213D01*
X80783753Y-166598213D01*
X80757193Y-166578515D01*
X80732692Y-166556308D01*
X80710485Y-166531807D01*
X80690787Y-166505247D01*
X80673787Y-166476884D01*
X80659649Y-166446991D01*
X80648509Y-166415857D01*
X80640475Y-166383781D01*
X80635623Y-166351071D01*
X80634000Y-166318044D01*
X80634000Y-165441956D01*
X80635623Y-165408929D01*
X80640475Y-165376219D01*
X80648509Y-165344143D01*
X80659649Y-165313009D01*
X80673787Y-165283116D01*
X80690787Y-165254753D01*
X80710485Y-165228193D01*
X80732692Y-165203692D01*
X80757193Y-165181485D01*
X80783753Y-165161787D01*
X80812116Y-165144787D01*
X80842009Y-165130649D01*
X80873143Y-165119509D01*
X80905219Y-165111475D01*
X80937929Y-165106623D01*
X80970956Y-165105000D01*
X82097044Y-165105000D01*
X82130071Y-165106623D01*
X82130071Y-165106623D01*
G37*
D23*
X81534000Y-165880000D03*
G04 #@! TD*
D20*
G04 #@! TO.C,C23*
G36*
X56156317Y-171058354D02*
X56183619Y-171062404D01*
X56210393Y-171069111D01*
X56236380Y-171078409D01*
X56261330Y-171090210D01*
X56285004Y-171104399D01*
X56307173Y-171120841D01*
X56327624Y-171139376D01*
X56346159Y-171159827D01*
X56362601Y-171181996D01*
X56376790Y-171205670D01*
X56388591Y-171230620D01*
X56397889Y-171256607D01*
X56404596Y-171283381D01*
X56408646Y-171310683D01*
X56410000Y-171338250D01*
X56410000Y-175625750D01*
X56408646Y-175653317D01*
X56404596Y-175680619D01*
X56397889Y-175707393D01*
X56388591Y-175733380D01*
X56376790Y-175758330D01*
X56362601Y-175782004D01*
X56346159Y-175804173D01*
X56327624Y-175824624D01*
X56307173Y-175843159D01*
X56285004Y-175859601D01*
X56261330Y-175873790D01*
X56236380Y-175885591D01*
X56210393Y-175894889D01*
X56183619Y-175901596D01*
X56156317Y-175905646D01*
X56128750Y-175907000D01*
X53091250Y-175907000D01*
X53063683Y-175905646D01*
X53036381Y-175901596D01*
X53009607Y-175894889D01*
X52983620Y-175885591D01*
X52958670Y-175873790D01*
X52934996Y-175859601D01*
X52912827Y-175843159D01*
X52892376Y-175824624D01*
X52873841Y-175804173D01*
X52857399Y-175782004D01*
X52843210Y-175758330D01*
X52831409Y-175733380D01*
X52822111Y-175707393D01*
X52815404Y-175680619D01*
X52811354Y-175653317D01*
X52810000Y-175625750D01*
X52810000Y-171338250D01*
X52811354Y-171310683D01*
X52815404Y-171283381D01*
X52822111Y-171256607D01*
X52831409Y-171230620D01*
X52843210Y-171205670D01*
X52857399Y-171181996D01*
X52873841Y-171159827D01*
X52892376Y-171139376D01*
X52912827Y-171120841D01*
X52934996Y-171104399D01*
X52958670Y-171090210D01*
X52983620Y-171078409D01*
X53009607Y-171069111D01*
X53036381Y-171062404D01*
X53063683Y-171058354D01*
X53091250Y-171057000D01*
X56128750Y-171057000D01*
X56156317Y-171058354D01*
X56156317Y-171058354D01*
G37*
D24*
X54610000Y-173482000D03*
D20*
G36*
X50956317Y-171058354D02*
X50983619Y-171062404D01*
X51010393Y-171069111D01*
X51036380Y-171078409D01*
X51061330Y-171090210D01*
X51085004Y-171104399D01*
X51107173Y-171120841D01*
X51127624Y-171139376D01*
X51146159Y-171159827D01*
X51162601Y-171181996D01*
X51176790Y-171205670D01*
X51188591Y-171230620D01*
X51197889Y-171256607D01*
X51204596Y-171283381D01*
X51208646Y-171310683D01*
X51210000Y-171338250D01*
X51210000Y-175625750D01*
X51208646Y-175653317D01*
X51204596Y-175680619D01*
X51197889Y-175707393D01*
X51188591Y-175733380D01*
X51176790Y-175758330D01*
X51162601Y-175782004D01*
X51146159Y-175804173D01*
X51127624Y-175824624D01*
X51107173Y-175843159D01*
X51085004Y-175859601D01*
X51061330Y-175873790D01*
X51036380Y-175885591D01*
X51010393Y-175894889D01*
X50983619Y-175901596D01*
X50956317Y-175905646D01*
X50928750Y-175907000D01*
X47891250Y-175907000D01*
X47863683Y-175905646D01*
X47836381Y-175901596D01*
X47809607Y-175894889D01*
X47783620Y-175885591D01*
X47758670Y-175873790D01*
X47734996Y-175859601D01*
X47712827Y-175843159D01*
X47692376Y-175824624D01*
X47673841Y-175804173D01*
X47657399Y-175782004D01*
X47643210Y-175758330D01*
X47631409Y-175733380D01*
X47622111Y-175707393D01*
X47615404Y-175680619D01*
X47611354Y-175653317D01*
X47610000Y-175625750D01*
X47610000Y-171338250D01*
X47611354Y-171310683D01*
X47615404Y-171283381D01*
X47622111Y-171256607D01*
X47631409Y-171230620D01*
X47643210Y-171205670D01*
X47657399Y-171181996D01*
X47673841Y-171159827D01*
X47692376Y-171139376D01*
X47712827Y-171120841D01*
X47734996Y-171104399D01*
X47758670Y-171090210D01*
X47783620Y-171078409D01*
X47809607Y-171069111D01*
X47836381Y-171062404D01*
X47863683Y-171058354D01*
X47891250Y-171057000D01*
X50928750Y-171057000D01*
X50956317Y-171058354D01*
X50956317Y-171058354D01*
G37*
D24*
X49410000Y-173482000D03*
G04 #@! TD*
D25*
G04 #@! TO.C,D1*
X87376000Y-150876000D03*
D11*
X89916000Y-150876000D03*
G04 #@! TD*
G04 #@! TO.C,D2*
X87376000Y-155448000D03*
D25*
X89916000Y-155448000D03*
G04 #@! TD*
G04 #@! TO.C,D3*
X71120000Y-164846000D03*
D11*
X71120000Y-167386000D03*
G04 #@! TD*
D25*
G04 #@! TO.C,D4*
X135128000Y-125476000D03*
D11*
X137668000Y-125476000D03*
G04 #@! TD*
G04 #@! TO.C,D5*
X135128000Y-130048000D03*
D25*
X137668000Y-130048000D03*
G04 #@! TD*
D17*
G04 #@! TO.C,GROUNDBRIDGE1*
X79375000Y-114681000D03*
G04 #@! TD*
G04 #@! TO.C,NeckVolumePot1*
X111252000Y-175006000D03*
D16*
X111252000Y-177546000D03*
X113792000Y-175006000D03*
X113792000Y-177546000D03*
X116332000Y-175006000D03*
X116332000Y-177546000D03*
X118872000Y-175006000D03*
X118872000Y-177546000D03*
X121412000Y-175006000D03*
X121412000Y-177546000D03*
X123952000Y-175006000D03*
X123952000Y-177546000D03*
X126492000Y-175006000D03*
X126492000Y-177546000D03*
G04 #@! TD*
D26*
G04 #@! TO.C,Q1*
X98552000Y-171450000D03*
X98552000Y-170180000D03*
D27*
X98552000Y-172720000D03*
G04 #@! TD*
G04 #@! TO.C,Q2*
X102362000Y-173482000D03*
D26*
X102362000Y-176022000D03*
X102362000Y-174752000D03*
G04 #@! TD*
D20*
G04 #@! TO.C,R3*
G36*
X99041071Y-134737623D02*
X99073781Y-134742475D01*
X99105857Y-134750509D01*
X99136991Y-134761649D01*
X99166884Y-134775787D01*
X99195247Y-134792787D01*
X99221807Y-134812485D01*
X99246308Y-134834692D01*
X99268515Y-134859193D01*
X99288213Y-134885753D01*
X99305213Y-134914116D01*
X99319351Y-134944009D01*
X99330491Y-134975143D01*
X99338525Y-135007219D01*
X99343377Y-135039929D01*
X99345000Y-135072956D01*
X99345000Y-136199044D01*
X99343377Y-136232071D01*
X99338525Y-136264781D01*
X99330491Y-136296857D01*
X99319351Y-136327991D01*
X99305213Y-136357884D01*
X99288213Y-136386247D01*
X99268515Y-136412807D01*
X99246308Y-136437308D01*
X99221807Y-136459515D01*
X99195247Y-136479213D01*
X99166884Y-136496213D01*
X99136991Y-136510351D01*
X99105857Y-136521491D01*
X99073781Y-136529525D01*
X99041071Y-136534377D01*
X99008044Y-136536000D01*
X98131956Y-136536000D01*
X98098929Y-136534377D01*
X98066219Y-136529525D01*
X98034143Y-136521491D01*
X98003009Y-136510351D01*
X97973116Y-136496213D01*
X97944753Y-136479213D01*
X97918193Y-136459515D01*
X97893692Y-136437308D01*
X97871485Y-136412807D01*
X97851787Y-136386247D01*
X97834787Y-136357884D01*
X97820649Y-136327991D01*
X97809509Y-136296857D01*
X97801475Y-136264781D01*
X97796623Y-136232071D01*
X97795000Y-136199044D01*
X97795000Y-135072956D01*
X97796623Y-135039929D01*
X97801475Y-135007219D01*
X97809509Y-134975143D01*
X97820649Y-134944009D01*
X97834787Y-134914116D01*
X97851787Y-134885753D01*
X97871485Y-134859193D01*
X97893692Y-134834692D01*
X97918193Y-134812485D01*
X97944753Y-134792787D01*
X97973116Y-134775787D01*
X98003009Y-134761649D01*
X98034143Y-134750509D01*
X98066219Y-134742475D01*
X98098929Y-134737623D01*
X98131956Y-134736000D01*
X99008044Y-134736000D01*
X99041071Y-134737623D01*
X99041071Y-134737623D01*
G37*
D23*
X98570000Y-135636000D03*
D20*
G36*
X96991071Y-134737623D02*
X97023781Y-134742475D01*
X97055857Y-134750509D01*
X97086991Y-134761649D01*
X97116884Y-134775787D01*
X97145247Y-134792787D01*
X97171807Y-134812485D01*
X97196308Y-134834692D01*
X97218515Y-134859193D01*
X97238213Y-134885753D01*
X97255213Y-134914116D01*
X97269351Y-134944009D01*
X97280491Y-134975143D01*
X97288525Y-135007219D01*
X97293377Y-135039929D01*
X97295000Y-135072956D01*
X97295000Y-136199044D01*
X97293377Y-136232071D01*
X97288525Y-136264781D01*
X97280491Y-136296857D01*
X97269351Y-136327991D01*
X97255213Y-136357884D01*
X97238213Y-136386247D01*
X97218515Y-136412807D01*
X97196308Y-136437308D01*
X97171807Y-136459515D01*
X97145247Y-136479213D01*
X97116884Y-136496213D01*
X97086991Y-136510351D01*
X97055857Y-136521491D01*
X97023781Y-136529525D01*
X96991071Y-136534377D01*
X96958044Y-136536000D01*
X96081956Y-136536000D01*
X96048929Y-136534377D01*
X96016219Y-136529525D01*
X95984143Y-136521491D01*
X95953009Y-136510351D01*
X95923116Y-136496213D01*
X95894753Y-136479213D01*
X95868193Y-136459515D01*
X95843692Y-136437308D01*
X95821485Y-136412807D01*
X95801787Y-136386247D01*
X95784787Y-136357884D01*
X95770649Y-136327991D01*
X95759509Y-136296857D01*
X95751475Y-136264781D01*
X95746623Y-136232071D01*
X95745000Y-136199044D01*
X95745000Y-135072956D01*
X95746623Y-135039929D01*
X95751475Y-135007219D01*
X95759509Y-134975143D01*
X95770649Y-134944009D01*
X95784787Y-134914116D01*
X95801787Y-134885753D01*
X95821485Y-134859193D01*
X95843692Y-134834692D01*
X95868193Y-134812485D01*
X95894753Y-134792787D01*
X95923116Y-134775787D01*
X95953009Y-134761649D01*
X95984143Y-134750509D01*
X96016219Y-134742475D01*
X96048929Y-134737623D01*
X96081956Y-134736000D01*
X96958044Y-134736000D01*
X96991071Y-134737623D01*
X96991071Y-134737623D01*
G37*
D23*
X96520000Y-135636000D03*
G04 #@! TD*
D20*
G04 #@! TO.C,R7*
G36*
X90131071Y-137674623D02*
X90163781Y-137679475D01*
X90195857Y-137687509D01*
X90226991Y-137698649D01*
X90256884Y-137712787D01*
X90285247Y-137729787D01*
X90311807Y-137749485D01*
X90336308Y-137771692D01*
X90358515Y-137796193D01*
X90378213Y-137822753D01*
X90395213Y-137851116D01*
X90409351Y-137881009D01*
X90420491Y-137912143D01*
X90428525Y-137944219D01*
X90433377Y-137976929D01*
X90435000Y-138009956D01*
X90435000Y-138886044D01*
X90433377Y-138919071D01*
X90428525Y-138951781D01*
X90420491Y-138983857D01*
X90409351Y-139014991D01*
X90395213Y-139044884D01*
X90378213Y-139073247D01*
X90358515Y-139099807D01*
X90336308Y-139124308D01*
X90311807Y-139146515D01*
X90285247Y-139166213D01*
X90256884Y-139183213D01*
X90226991Y-139197351D01*
X90195857Y-139208491D01*
X90163781Y-139216525D01*
X90131071Y-139221377D01*
X90098044Y-139223000D01*
X88971956Y-139223000D01*
X88938929Y-139221377D01*
X88906219Y-139216525D01*
X88874143Y-139208491D01*
X88843009Y-139197351D01*
X88813116Y-139183213D01*
X88784753Y-139166213D01*
X88758193Y-139146515D01*
X88733692Y-139124308D01*
X88711485Y-139099807D01*
X88691787Y-139073247D01*
X88674787Y-139044884D01*
X88660649Y-139014991D01*
X88649509Y-138983857D01*
X88641475Y-138951781D01*
X88636623Y-138919071D01*
X88635000Y-138886044D01*
X88635000Y-138009956D01*
X88636623Y-137976929D01*
X88641475Y-137944219D01*
X88649509Y-137912143D01*
X88660649Y-137881009D01*
X88674787Y-137851116D01*
X88691787Y-137822753D01*
X88711485Y-137796193D01*
X88733692Y-137771692D01*
X88758193Y-137749485D01*
X88784753Y-137729787D01*
X88813116Y-137712787D01*
X88843009Y-137698649D01*
X88874143Y-137687509D01*
X88906219Y-137679475D01*
X88938929Y-137674623D01*
X88971956Y-137673000D01*
X90098044Y-137673000D01*
X90131071Y-137674623D01*
X90131071Y-137674623D01*
G37*
D23*
X89535000Y-138448000D03*
D20*
G36*
X90131071Y-135624623D02*
X90163781Y-135629475D01*
X90195857Y-135637509D01*
X90226991Y-135648649D01*
X90256884Y-135662787D01*
X90285247Y-135679787D01*
X90311807Y-135699485D01*
X90336308Y-135721692D01*
X90358515Y-135746193D01*
X90378213Y-135772753D01*
X90395213Y-135801116D01*
X90409351Y-135831009D01*
X90420491Y-135862143D01*
X90428525Y-135894219D01*
X90433377Y-135926929D01*
X90435000Y-135959956D01*
X90435000Y-136836044D01*
X90433377Y-136869071D01*
X90428525Y-136901781D01*
X90420491Y-136933857D01*
X90409351Y-136964991D01*
X90395213Y-136994884D01*
X90378213Y-137023247D01*
X90358515Y-137049807D01*
X90336308Y-137074308D01*
X90311807Y-137096515D01*
X90285247Y-137116213D01*
X90256884Y-137133213D01*
X90226991Y-137147351D01*
X90195857Y-137158491D01*
X90163781Y-137166525D01*
X90131071Y-137171377D01*
X90098044Y-137173000D01*
X88971956Y-137173000D01*
X88938929Y-137171377D01*
X88906219Y-137166525D01*
X88874143Y-137158491D01*
X88843009Y-137147351D01*
X88813116Y-137133213D01*
X88784753Y-137116213D01*
X88758193Y-137096515D01*
X88733692Y-137074308D01*
X88711485Y-137049807D01*
X88691787Y-137023247D01*
X88674787Y-136994884D01*
X88660649Y-136964991D01*
X88649509Y-136933857D01*
X88641475Y-136901781D01*
X88636623Y-136869071D01*
X88635000Y-136836044D01*
X88635000Y-135959956D01*
X88636623Y-135926929D01*
X88641475Y-135894219D01*
X88649509Y-135862143D01*
X88660649Y-135831009D01*
X88674787Y-135801116D01*
X88691787Y-135772753D01*
X88711485Y-135746193D01*
X88733692Y-135721692D01*
X88758193Y-135699485D01*
X88784753Y-135679787D01*
X88813116Y-135662787D01*
X88843009Y-135648649D01*
X88874143Y-135637509D01*
X88906219Y-135629475D01*
X88938929Y-135624623D01*
X88971956Y-135623000D01*
X90098044Y-135623000D01*
X90131071Y-135624623D01*
X90131071Y-135624623D01*
G37*
D23*
X89535000Y-136398000D03*
G04 #@! TD*
D20*
G04 #@! TO.C,R9*
G36*
X87464071Y-130018623D02*
X87496781Y-130023475D01*
X87528857Y-130031509D01*
X87559991Y-130042649D01*
X87589884Y-130056787D01*
X87618247Y-130073787D01*
X87644807Y-130093485D01*
X87669308Y-130115692D01*
X87691515Y-130140193D01*
X87711213Y-130166753D01*
X87728213Y-130195116D01*
X87742351Y-130225009D01*
X87753491Y-130256143D01*
X87761525Y-130288219D01*
X87766377Y-130320929D01*
X87768000Y-130353956D01*
X87768000Y-131230044D01*
X87766377Y-131263071D01*
X87761525Y-131295781D01*
X87753491Y-131327857D01*
X87742351Y-131358991D01*
X87728213Y-131388884D01*
X87711213Y-131417247D01*
X87691515Y-131443807D01*
X87669308Y-131468308D01*
X87644807Y-131490515D01*
X87618247Y-131510213D01*
X87589884Y-131527213D01*
X87559991Y-131541351D01*
X87528857Y-131552491D01*
X87496781Y-131560525D01*
X87464071Y-131565377D01*
X87431044Y-131567000D01*
X86304956Y-131567000D01*
X86271929Y-131565377D01*
X86239219Y-131560525D01*
X86207143Y-131552491D01*
X86176009Y-131541351D01*
X86146116Y-131527213D01*
X86117753Y-131510213D01*
X86091193Y-131490515D01*
X86066692Y-131468308D01*
X86044485Y-131443807D01*
X86024787Y-131417247D01*
X86007787Y-131388884D01*
X85993649Y-131358991D01*
X85982509Y-131327857D01*
X85974475Y-131295781D01*
X85969623Y-131263071D01*
X85968000Y-131230044D01*
X85968000Y-130353956D01*
X85969623Y-130320929D01*
X85974475Y-130288219D01*
X85982509Y-130256143D01*
X85993649Y-130225009D01*
X86007787Y-130195116D01*
X86024787Y-130166753D01*
X86044485Y-130140193D01*
X86066692Y-130115692D01*
X86091193Y-130093485D01*
X86117753Y-130073787D01*
X86146116Y-130056787D01*
X86176009Y-130042649D01*
X86207143Y-130031509D01*
X86239219Y-130023475D01*
X86271929Y-130018623D01*
X86304956Y-130017000D01*
X87431044Y-130017000D01*
X87464071Y-130018623D01*
X87464071Y-130018623D01*
G37*
D23*
X86868000Y-130792000D03*
D20*
G36*
X87464071Y-132068623D02*
X87496781Y-132073475D01*
X87528857Y-132081509D01*
X87559991Y-132092649D01*
X87589884Y-132106787D01*
X87618247Y-132123787D01*
X87644807Y-132143485D01*
X87669308Y-132165692D01*
X87691515Y-132190193D01*
X87711213Y-132216753D01*
X87728213Y-132245116D01*
X87742351Y-132275009D01*
X87753491Y-132306143D01*
X87761525Y-132338219D01*
X87766377Y-132370929D01*
X87768000Y-132403956D01*
X87768000Y-133280044D01*
X87766377Y-133313071D01*
X87761525Y-133345781D01*
X87753491Y-133377857D01*
X87742351Y-133408991D01*
X87728213Y-133438884D01*
X87711213Y-133467247D01*
X87691515Y-133493807D01*
X87669308Y-133518308D01*
X87644807Y-133540515D01*
X87618247Y-133560213D01*
X87589884Y-133577213D01*
X87559991Y-133591351D01*
X87528857Y-133602491D01*
X87496781Y-133610525D01*
X87464071Y-133615377D01*
X87431044Y-133617000D01*
X86304956Y-133617000D01*
X86271929Y-133615377D01*
X86239219Y-133610525D01*
X86207143Y-133602491D01*
X86176009Y-133591351D01*
X86146116Y-133577213D01*
X86117753Y-133560213D01*
X86091193Y-133540515D01*
X86066692Y-133518308D01*
X86044485Y-133493807D01*
X86024787Y-133467247D01*
X86007787Y-133438884D01*
X85993649Y-133408991D01*
X85982509Y-133377857D01*
X85974475Y-133345781D01*
X85969623Y-133313071D01*
X85968000Y-133280044D01*
X85968000Y-132403956D01*
X85969623Y-132370929D01*
X85974475Y-132338219D01*
X85982509Y-132306143D01*
X85993649Y-132275009D01*
X86007787Y-132245116D01*
X86024787Y-132216753D01*
X86044485Y-132190193D01*
X86066692Y-132165692D01*
X86091193Y-132143485D01*
X86117753Y-132123787D01*
X86146116Y-132106787D01*
X86176009Y-132092649D01*
X86207143Y-132081509D01*
X86239219Y-132073475D01*
X86271929Y-132068623D01*
X86304956Y-132067000D01*
X87431044Y-132067000D01*
X87464071Y-132068623D01*
X87464071Y-132068623D01*
G37*
D23*
X86868000Y-132842000D03*
G04 #@! TD*
D20*
G04 #@! TO.C,R31*
G36*
X77687071Y-165217623D02*
X77719781Y-165222475D01*
X77751857Y-165230509D01*
X77782991Y-165241649D01*
X77812884Y-165255787D01*
X77841247Y-165272787D01*
X77867807Y-165292485D01*
X77892308Y-165314692D01*
X77914515Y-165339193D01*
X77934213Y-165365753D01*
X77951213Y-165394116D01*
X77965351Y-165424009D01*
X77976491Y-165455143D01*
X77984525Y-165487219D01*
X77989377Y-165519929D01*
X77991000Y-165552956D01*
X77991000Y-166679044D01*
X77989377Y-166712071D01*
X77984525Y-166744781D01*
X77976491Y-166776857D01*
X77965351Y-166807991D01*
X77951213Y-166837884D01*
X77934213Y-166866247D01*
X77914515Y-166892807D01*
X77892308Y-166917308D01*
X77867807Y-166939515D01*
X77841247Y-166959213D01*
X77812884Y-166976213D01*
X77782991Y-166990351D01*
X77751857Y-167001491D01*
X77719781Y-167009525D01*
X77687071Y-167014377D01*
X77654044Y-167016000D01*
X76777956Y-167016000D01*
X76744929Y-167014377D01*
X76712219Y-167009525D01*
X76680143Y-167001491D01*
X76649009Y-166990351D01*
X76619116Y-166976213D01*
X76590753Y-166959213D01*
X76564193Y-166939515D01*
X76539692Y-166917308D01*
X76517485Y-166892807D01*
X76497787Y-166866247D01*
X76480787Y-166837884D01*
X76466649Y-166807991D01*
X76455509Y-166776857D01*
X76447475Y-166744781D01*
X76442623Y-166712071D01*
X76441000Y-166679044D01*
X76441000Y-165552956D01*
X76442623Y-165519929D01*
X76447475Y-165487219D01*
X76455509Y-165455143D01*
X76466649Y-165424009D01*
X76480787Y-165394116D01*
X76497787Y-165365753D01*
X76517485Y-165339193D01*
X76539692Y-165314692D01*
X76564193Y-165292485D01*
X76590753Y-165272787D01*
X76619116Y-165255787D01*
X76649009Y-165241649D01*
X76680143Y-165230509D01*
X76712219Y-165222475D01*
X76744929Y-165217623D01*
X76777956Y-165216000D01*
X77654044Y-165216000D01*
X77687071Y-165217623D01*
X77687071Y-165217623D01*
G37*
D23*
X77216000Y-166116000D03*
D20*
G36*
X79737071Y-165217623D02*
X79769781Y-165222475D01*
X79801857Y-165230509D01*
X79832991Y-165241649D01*
X79862884Y-165255787D01*
X79891247Y-165272787D01*
X79917807Y-165292485D01*
X79942308Y-165314692D01*
X79964515Y-165339193D01*
X79984213Y-165365753D01*
X80001213Y-165394116D01*
X80015351Y-165424009D01*
X80026491Y-165455143D01*
X80034525Y-165487219D01*
X80039377Y-165519929D01*
X80041000Y-165552956D01*
X80041000Y-166679044D01*
X80039377Y-166712071D01*
X80034525Y-166744781D01*
X80026491Y-166776857D01*
X80015351Y-166807991D01*
X80001213Y-166837884D01*
X79984213Y-166866247D01*
X79964515Y-166892807D01*
X79942308Y-166917308D01*
X79917807Y-166939515D01*
X79891247Y-166959213D01*
X79862884Y-166976213D01*
X79832991Y-166990351D01*
X79801857Y-167001491D01*
X79769781Y-167009525D01*
X79737071Y-167014377D01*
X79704044Y-167016000D01*
X78827956Y-167016000D01*
X78794929Y-167014377D01*
X78762219Y-167009525D01*
X78730143Y-167001491D01*
X78699009Y-166990351D01*
X78669116Y-166976213D01*
X78640753Y-166959213D01*
X78614193Y-166939515D01*
X78589692Y-166917308D01*
X78567485Y-166892807D01*
X78547787Y-166866247D01*
X78530787Y-166837884D01*
X78516649Y-166807991D01*
X78505509Y-166776857D01*
X78497475Y-166744781D01*
X78492623Y-166712071D01*
X78491000Y-166679044D01*
X78491000Y-165552956D01*
X78492623Y-165519929D01*
X78497475Y-165487219D01*
X78505509Y-165455143D01*
X78516649Y-165424009D01*
X78530787Y-165394116D01*
X78547787Y-165365753D01*
X78567485Y-165339193D01*
X78589692Y-165314692D01*
X78614193Y-165292485D01*
X78640753Y-165272787D01*
X78669116Y-165255787D01*
X78699009Y-165241649D01*
X78730143Y-165230509D01*
X78762219Y-165222475D01*
X78794929Y-165217623D01*
X78827956Y-165216000D01*
X79704044Y-165216000D01*
X79737071Y-165217623D01*
X79737071Y-165217623D01*
G37*
D23*
X79266000Y-166116000D03*
G04 #@! TD*
D21*
G04 #@! TO.C,RANGE1*
X124460000Y-110744000D03*
X121920000Y-108204000D03*
X119380000Y-110744000D03*
G04 #@! TD*
D10*
G04 #@! TO.C,TIGHT*
X118730000Y-132720000D03*
X118730000Y-141520000D03*
D11*
X125730000Y-134620000D03*
X125730000Y-137120000D03*
X125730000Y-139620000D03*
G04 #@! TD*
D28*
G04 #@! TO.C,TRBLD1*
X77470000Y-132715000D03*
X77470000Y-125095000D03*
X74930000Y-132715000D03*
X74930000Y-125095000D03*
G04 #@! TD*
D11*
G04 #@! TO.C,TREBLE*
X125730000Y-154225000D03*
X125730000Y-151725000D03*
X125730000Y-149225000D03*
D10*
X118730000Y-156125000D03*
X118730000Y-147325000D03*
G04 #@! TD*
D29*
G04 #@! TO.C,U1*
X98712000Y-138811000D03*
X98712000Y-140081000D03*
X98712000Y-141351000D03*
X98712000Y-142621000D03*
X93312000Y-142621000D03*
X93312000Y-141351000D03*
X93312000Y-140081000D03*
X93312000Y-138811000D03*
G04 #@! TD*
D11*
G04 #@! TO.C,VOL*
X125730000Y-125015000D03*
X125730000Y-122515000D03*
X125730000Y-120015000D03*
D10*
X118730000Y-126915000D03*
X118730000Y-118115000D03*
G04 #@! TD*
D30*
G04 #@! TO.C,REF\002A\002A*
X114300000Y-109220000D03*
G04 #@! TD*
G04 #@! TO.C,REF\002A\002A*
X108585000Y-183515000D03*
G04 #@! TD*
M02*
