G04 #@! TF.GenerationSoftware,KiCad,Pcbnew,(5.0.0)*
G04 #@! TF.CreationDate,2018-10-02T15:30:55-05:00*
G04 #@! TF.ProjectId,FinalDistCircuit,46696E616C4469737443697263756974,rev?*
G04 #@! TF.SameCoordinates,Original*
G04 #@! TF.FileFunction,Profile,NP*
%FSLAX46Y46*%
G04 Gerber Fmt 4.6, Leading zero omitted, Abs format (unit mm)*
G04 Created by KiCad (PCBNEW (5.0.0)) date 10/02/18 15:30:55*
%MOMM*%
%LPD*%
G01*
G04 APERTURE LIST*
%ADD10C,0.150000*%
%ADD11C,0.200000*%
G04 APERTURE END LIST*
D10*
X128270000Y-161036000D02*
X128270000Y-173228000D01*
X133350000Y-155956000D02*
X128270000Y-161036000D01*
X127254000Y-108966000D02*
X127254000Y-105664000D01*
X131064000Y-112776000D02*
X127254000Y-108966000D01*
X45720000Y-127000000D02*
X50292000Y-122174000D01*
X84582000Y-116078000D02*
X84582000Y-117094000D01*
X81280000Y-112776000D02*
X84582000Y-116078000D01*
X84582000Y-124206000D02*
X84582000Y-126365000D01*
D11*
X86741000Y-128524000D02*
X84582000Y-126365000D01*
X88392000Y-165354000D02*
X84582000Y-165354000D01*
X93472000Y-170434000D02*
X88392000Y-165354000D01*
D10*
X96774000Y-132334000D02*
X99949000Y-132334000D01*
X89916000Y-134874000D02*
X94234000Y-134874000D01*
X88646000Y-133604000D02*
X89916000Y-134874000D01*
X88646000Y-130556000D02*
X88646000Y-133604000D01*
X88646000Y-130429000D02*
X86741000Y-128524000D01*
X88646000Y-130556000D02*
X88646000Y-130429000D01*
D11*
X105283000Y-127000000D02*
X105410000Y-127000000D01*
X99949000Y-132334000D02*
X105283000Y-127000000D01*
X133350000Y-142875000D02*
X133350000Y-143256000D01*
X140970000Y-142875000D02*
X133350000Y-142875000D01*
X140970000Y-142748000D02*
X140970000Y-142875000D01*
D10*
X52832000Y-163830000D02*
X44196000Y-163830000D01*
X55118000Y-154686000D02*
X55118000Y-161544000D01*
X52832000Y-163830000D02*
X55118000Y-161544000D01*
X112268000Y-110998000D02*
X111760000Y-110490000D01*
X112268000Y-116078000D02*
X112268000Y-110998000D01*
X111760000Y-107950000D02*
X111760000Y-110490000D01*
X66040000Y-170942000D02*
X66040000Y-177165000D01*
X63754000Y-179451000D02*
X66040000Y-177165000D01*
X59055000Y-179451000D02*
X63754000Y-179451000D01*
X57150000Y-177546000D02*
X59055000Y-179451000D01*
D11*
X44196000Y-163830000D02*
X44196000Y-164084000D01*
D10*
X49276000Y-176276000D02*
X47244000Y-176276000D01*
X50292000Y-177546000D02*
X49276000Y-176276000D01*
X105918000Y-182880000D02*
X105918000Y-184658000D01*
X104648000Y-181610000D02*
X105918000Y-182880000D01*
D11*
X78486000Y-167386000D02*
X78232000Y-167640000D01*
X80772000Y-167386000D02*
X78486000Y-167386000D01*
D10*
X80772000Y-167386000D02*
X82296000Y-167386000D01*
D11*
X78232000Y-167640000D02*
X76708000Y-169164000D01*
D10*
X82550000Y-167386000D02*
X84582000Y-165354000D01*
X82296000Y-167386000D02*
X82550000Y-167386000D01*
D11*
X96266000Y-173228000D02*
X93472000Y-170434000D01*
X96774000Y-132334000D02*
X94234000Y-134874000D01*
X105664000Y-127000000D02*
X105410000Y-127000000D01*
D10*
X105918000Y-127000000D02*
X105664000Y-127000000D01*
X84582000Y-124206000D02*
X84582000Y-117094000D01*
X112268000Y-127000000D02*
X105918000Y-127000000D01*
X112268000Y-116078000D02*
X112268000Y-127000000D01*
X113030000Y-106680000D02*
X111760000Y-107950000D01*
X115316000Y-106680000D02*
X113030000Y-106680000D01*
X116332000Y-105664000D02*
X115316000Y-106680000D01*
X127254000Y-105664000D02*
X116332000Y-105664000D01*
X139700000Y-121412000D02*
X131064000Y-112776000D01*
X139700000Y-132334000D02*
X139700000Y-121412000D01*
X140970000Y-133858000D02*
X139700000Y-132334000D01*
X140970000Y-142748000D02*
X140970000Y-133858000D01*
X133350000Y-155956000D02*
X133350000Y-143256000D01*
X128270000Y-179324000D02*
X128270000Y-173228000D01*
X124460000Y-179324000D02*
X128270000Y-179324000D01*
X123952000Y-179832000D02*
X124460000Y-179324000D01*
X123952000Y-189230000D02*
X123952000Y-179832000D01*
X113538000Y-189230000D02*
X123952000Y-189230000D01*
X113538000Y-187452000D02*
X113538000Y-189230000D01*
X112268000Y-186182000D02*
X113538000Y-187452000D01*
X107442000Y-186182000D02*
X112268000Y-186182000D01*
X105918000Y-184658000D02*
X107442000Y-186182000D01*
X96266000Y-173228000D02*
X104648000Y-181610000D01*
X67818000Y-169164000D02*
X76708000Y-169164000D01*
X67564000Y-169418000D02*
X67818000Y-169164000D01*
X66040000Y-170942000D02*
X67564000Y-169418000D01*
D11*
X50292000Y-177546000D02*
X57150000Y-177546000D01*
X47244000Y-176022000D02*
X47244000Y-176276000D01*
X47244000Y-172466000D02*
X47244000Y-176022000D01*
X44196000Y-169418000D02*
X47244000Y-172466000D01*
X44196000Y-164084000D02*
X44196000Y-169418000D01*
X55118000Y-134620000D02*
X55118000Y-154686000D01*
X51562000Y-130810000D02*
X55118000Y-134620000D01*
X45720000Y-130810000D02*
X51562000Y-130810000D01*
X45720000Y-127000000D02*
X45720000Y-130810000D01*
X76200000Y-112776000D02*
X50292000Y-122174000D01*
X81280000Y-112776000D02*
X76200000Y-112776000D01*
M02*
