G04 #@! TF.GenerationSoftware,KiCad,Pcbnew,(5.0.0)*
G04 #@! TF.CreationDate,2018-10-02T15:30:55-05:00*
G04 #@! TF.ProjectId,FinalDistCircuit,46696E616C4469737443697263756974,rev?*
G04 #@! TF.SameCoordinates,Original*
G04 #@! TF.FileFunction,Legend,Bot*
G04 #@! TF.FilePolarity,Positive*
%FSLAX46Y46*%
G04 Gerber Fmt 4.6, Leading zero omitted, Abs format (unit mm)*
G04 Created by KiCad (PCBNEW (5.0.0)) date 10/02/18 15:30:55*
%MOMM*%
%LPD*%
G01*
G04 APERTURE LIST*
%ADD10C,0.120000*%
%ADD11C,0.150000*%
G04 APERTURE END LIST*
D10*
G04 #@! TO.C,R28*
X61266000Y-162552748D02*
X61266000Y-163075252D01*
X62686000Y-162552748D02*
X62686000Y-163075252D01*
G04 #@! TO.C,R22*
X56567000Y-156710748D02*
X56567000Y-157233252D01*
X57987000Y-156710748D02*
X57987000Y-157233252D01*
G04 #@! TO.C,BridgeTonePot1*
X132775000Y-135315000D02*
X127575000Y-135315000D01*
X132775000Y-120015000D02*
X132775000Y-135315000D01*
X127575000Y-117415000D02*
X127575000Y-135315000D01*
X132775000Y-120015000D02*
X130175000Y-120015000D01*
X130175000Y-120015000D02*
X130175000Y-117415000D01*
X130175000Y-117415000D02*
X127575000Y-117415000D01*
X132775000Y-118745000D02*
X132775000Y-117415000D01*
X132775000Y-117415000D02*
X131445000Y-117415000D01*
G04 #@! TO.C,NeckTonePot1*
X132775000Y-137735000D02*
X131445000Y-137735000D01*
X132775000Y-139065000D02*
X132775000Y-137735000D01*
X130175000Y-137735000D02*
X127575000Y-137735000D01*
X130175000Y-140335000D02*
X130175000Y-137735000D01*
X132775000Y-140335000D02*
X130175000Y-140335000D01*
X127575000Y-137735000D02*
X127575000Y-155635000D01*
X132775000Y-140335000D02*
X132775000Y-155635000D01*
X132775000Y-155635000D02*
X127575000Y-155635000D01*
G04 #@! TO.C,BridgeVolPot1*
X111820000Y-127575000D02*
X110490000Y-127575000D01*
X111820000Y-128905000D02*
X111820000Y-127575000D01*
X109220000Y-127575000D02*
X106620000Y-127575000D01*
X109220000Y-130175000D02*
X109220000Y-127575000D01*
X111820000Y-130175000D02*
X109220000Y-130175000D01*
X106620000Y-127575000D02*
X106620000Y-145475000D01*
X111820000Y-130175000D02*
X111820000Y-145475000D01*
X111820000Y-145475000D02*
X106620000Y-145475000D01*
G04 #@! TO.C,C3*
X92361936Y-139594000D02*
X93566064Y-139594000D01*
X92361936Y-137774000D02*
X93566064Y-137774000D01*
G04 #@! TO.C,C7*
X95917936Y-145394000D02*
X97122064Y-145394000D01*
X95917936Y-147214000D02*
X97122064Y-147214000D01*
G04 #@! TO.C,C8*
X74414748Y-149554000D02*
X74937252Y-149554000D01*
X74414748Y-148134000D02*
X74937252Y-148134000D01*
G04 #@! TO.C,C11*
X57129000Y-150310436D02*
X57129000Y-151514564D01*
X58949000Y-150310436D02*
X58949000Y-151514564D01*
G04 #@! TO.C,C12*
X118102748Y-106478000D02*
X118625252Y-106478000D01*
X118102748Y-107898000D02*
X118625252Y-107898000D01*
G04 #@! TO.C,C13*
X124706748Y-156262000D02*
X125229252Y-156262000D01*
X124706748Y-157682000D02*
X125229252Y-157682000D01*
G04 #@! TO.C,C15*
X70718000Y-138233564D02*
X70718000Y-137029436D01*
X72538000Y-138233564D02*
X72538000Y-137029436D01*
G04 #@! TO.C,C16*
X121010000Y-151035936D02*
X121010000Y-152240064D01*
X122830000Y-151035936D02*
X122830000Y-152240064D01*
G04 #@! TO.C,C17*
X68686000Y-157320064D02*
X68686000Y-156115936D01*
X70506000Y-157320064D02*
X70506000Y-156115936D01*
G04 #@! TO.C,C20*
X60981000Y-138941564D02*
X60981000Y-137737436D01*
X59161000Y-138941564D02*
X59161000Y-137737436D01*
G04 #@! TO.C,C21*
X73608000Y-160789252D02*
X73608000Y-160266748D01*
X72188000Y-160789252D02*
X72188000Y-160266748D01*
G04 #@! TO.C,C24*
X97430000Y-159315564D02*
X97430000Y-158111436D01*
X95610000Y-159315564D02*
X95610000Y-158111436D01*
G04 #@! TO.C,C25*
X77164000Y-128507748D02*
X77164000Y-129030252D01*
X75744000Y-128507748D02*
X75744000Y-129030252D01*
G04 #@! TO.C,C26*
X83948748Y-138886000D02*
X84471252Y-138886000D01*
X83948748Y-137466000D02*
X84471252Y-137466000D01*
G04 #@! TO.C,C27*
X133964000Y-136963564D02*
X133964000Y-135759436D01*
X135784000Y-136963564D02*
X135784000Y-135759436D01*
G04 #@! TO.C,NeckVolumePot1*
X127822000Y-173676000D02*
X127822000Y-178876000D01*
X112522000Y-173676000D02*
X127822000Y-173676000D01*
X109922000Y-178876000D02*
X127822000Y-178876000D01*
X112522000Y-173676000D02*
X112522000Y-176276000D01*
X112522000Y-176276000D02*
X109922000Y-176276000D01*
X109922000Y-176276000D02*
X109922000Y-178876000D01*
X111252000Y-173676000D02*
X109922000Y-173676000D01*
X109922000Y-173676000D02*
X109922000Y-175006000D01*
G04 #@! TO.C,R1*
X103430000Y-131833252D02*
X103430000Y-131310748D01*
X104850000Y-131833252D02*
X104850000Y-131310748D01*
G04 #@! TO.C,R2*
X101075748Y-136346000D02*
X101598252Y-136346000D01*
X101075748Y-134926000D02*
X101598252Y-134926000D01*
G04 #@! TO.C,R4*
X73354000Y-128507748D02*
X73354000Y-129030252D01*
X71934000Y-128507748D02*
X71934000Y-129030252D01*
G04 #@! TO.C,R5*
X97782748Y-140410000D02*
X98305252Y-140410000D01*
X97782748Y-138990000D02*
X98305252Y-138990000D01*
G04 #@! TO.C,R6*
X107186252Y-153468000D02*
X106663748Y-153468000D01*
X107186252Y-154888000D02*
X106663748Y-154888000D01*
G04 #@! TO.C,R8*
X89669252Y-141934000D02*
X89146748Y-141934000D01*
X89669252Y-140514000D02*
X89146748Y-140514000D01*
G04 #@! TO.C,R10*
X103370748Y-143562000D02*
X103893252Y-143562000D01*
X103370748Y-144982000D02*
X103893252Y-144982000D01*
G04 #@! TO.C,R11*
X106663748Y-149150000D02*
X107186252Y-149150000D01*
X106663748Y-150570000D02*
X107186252Y-150570000D01*
G04 #@! TO.C,R12*
X84580252Y-135180000D02*
X84057748Y-135180000D01*
X84580252Y-136600000D02*
X84057748Y-136600000D01*
G04 #@! TO.C,R13*
X96249748Y-150570000D02*
X96772252Y-150570000D01*
X96249748Y-149150000D02*
X96772252Y-149150000D01*
G04 #@! TO.C,R14*
X96258748Y-152706000D02*
X96781252Y-152706000D01*
X96258748Y-154126000D02*
X96781252Y-154126000D01*
G04 #@! TO.C,R15*
X97738000Y-136405252D02*
X97738000Y-135882748D01*
X96318000Y-136405252D02*
X96318000Y-135882748D01*
G04 #@! TO.C,R16*
X58300252Y-145975000D02*
X57777748Y-145975000D01*
X58300252Y-147395000D02*
X57777748Y-147395000D01*
G04 #@! TO.C,R17*
X79509252Y-149554000D02*
X78986748Y-149554000D01*
X79509252Y-148134000D02*
X78986748Y-148134000D01*
G04 #@! TO.C,R18*
X78986748Y-152602000D02*
X79509252Y-152602000D01*
X78986748Y-151182000D02*
X79509252Y-151182000D01*
G04 #@! TO.C,R19*
X124198748Y-144982000D02*
X124721252Y-144982000D01*
X124198748Y-143562000D02*
X124721252Y-143562000D01*
G04 #@! TO.C,R20*
X58300252Y-142800000D02*
X57777748Y-142800000D01*
X58300252Y-144220000D02*
X57777748Y-144220000D01*
G04 #@! TO.C,R21*
X66676748Y-135180000D02*
X67199252Y-135180000D01*
X66676748Y-136600000D02*
X67199252Y-136600000D01*
G04 #@! TO.C,R23*
X70350748Y-152348000D02*
X70873252Y-152348000D01*
X70350748Y-150928000D02*
X70873252Y-150928000D01*
G04 #@! TO.C,R24*
X61774000Y-142486748D02*
X61774000Y-143009252D01*
X63194000Y-142486748D02*
X63194000Y-143009252D01*
G04 #@! TO.C,R25*
X65330000Y-142486748D02*
X65330000Y-143009252D01*
X66750000Y-142486748D02*
X66750000Y-143009252D01*
G04 #@! TO.C,R26*
X72442000Y-155709252D02*
X72442000Y-155186748D01*
X73862000Y-155709252D02*
X73862000Y-155186748D01*
G04 #@! TO.C,R27*
X82542748Y-159310000D02*
X83065252Y-159310000D01*
X82542748Y-160730000D02*
X83065252Y-160730000D01*
G04 #@! TO.C,R29*
X135888252Y-119940000D02*
X135365748Y-119940000D01*
X135888252Y-121360000D02*
X135365748Y-121360000D01*
G04 #@! TO.C,R30*
X88130748Y-159564000D02*
X88653252Y-159564000D01*
X88130748Y-160984000D02*
X88653252Y-160984000D01*
G04 #@! TO.C,R32*
X76192748Y-162104000D02*
X76715252Y-162104000D01*
X76192748Y-163524000D02*
X76715252Y-163524000D01*
G04 #@! TO.C,R33*
X74982000Y-167384252D02*
X74982000Y-166861748D01*
X76402000Y-167384252D02*
X76402000Y-166861748D01*
G04 #@! TO.C,R34*
X80212000Y-165361252D02*
X80212000Y-164838748D01*
X78792000Y-165361252D02*
X78792000Y-164838748D01*
G04 #@! TO.C,R35*
X130504000Y-114791748D02*
X130504000Y-115314252D01*
X129084000Y-114791748D02*
X129084000Y-115314252D01*
D11*
G04 #@! TO.C,U2*
X74633000Y-146289000D02*
X73233000Y-146289000D01*
X74633000Y-141189000D02*
X78783000Y-141189000D01*
X74633000Y-146339000D02*
X78783000Y-146339000D01*
X74633000Y-141189000D02*
X74633000Y-141334000D01*
X78783000Y-141189000D02*
X78783000Y-141334000D01*
X78783000Y-146339000D02*
X78783000Y-146194000D01*
X74633000Y-146339000D02*
X74633000Y-146289000D01*
G04 #@! TO.C,U3*
X60917000Y-160005000D02*
X59517000Y-160005000D01*
X60917000Y-154905000D02*
X65067000Y-154905000D01*
X60917000Y-160055000D02*
X65067000Y-160055000D01*
X60917000Y-154905000D02*
X60917000Y-155050000D01*
X65067000Y-154905000D02*
X65067000Y-155050000D01*
X65067000Y-160055000D02*
X65067000Y-159910000D01*
X60917000Y-160055000D02*
X60917000Y-160005000D01*
G04 #@! TO.C,U4*
X66464000Y-146015000D02*
X66464000Y-146065000D01*
X62314000Y-146015000D02*
X62314000Y-146160000D01*
X62314000Y-151165000D02*
X62314000Y-151020000D01*
X66464000Y-151165000D02*
X66464000Y-151020000D01*
X66464000Y-146015000D02*
X62314000Y-146015000D01*
X66464000Y-151165000D02*
X62314000Y-151165000D01*
X66464000Y-146065000D02*
X67864000Y-146065000D01*
D10*
G04 #@! TO.C,R36*
X122630000Y-123188252D02*
X122630000Y-122665748D01*
X121210000Y-123188252D02*
X121210000Y-122665748D01*
G04 #@! TO.C,R28*
D11*
X60778380Y-162171142D02*
X60302190Y-161837809D01*
X60778380Y-161599714D02*
X59778380Y-161599714D01*
X59778380Y-161980666D01*
X59826000Y-162075904D01*
X59873619Y-162123523D01*
X59968857Y-162171142D01*
X60111714Y-162171142D01*
X60206952Y-162123523D01*
X60254571Y-162075904D01*
X60302190Y-161980666D01*
X60302190Y-161599714D01*
X59873619Y-162552095D02*
X59826000Y-162599714D01*
X59778380Y-162694952D01*
X59778380Y-162933047D01*
X59826000Y-163028285D01*
X59873619Y-163075904D01*
X59968857Y-163123523D01*
X60064095Y-163123523D01*
X60206952Y-163075904D01*
X60778380Y-162504476D01*
X60778380Y-163123523D01*
X60206952Y-163694952D02*
X60159333Y-163599714D01*
X60111714Y-163552095D01*
X60016476Y-163504476D01*
X59968857Y-163504476D01*
X59873619Y-163552095D01*
X59826000Y-163599714D01*
X59778380Y-163694952D01*
X59778380Y-163885428D01*
X59826000Y-163980666D01*
X59873619Y-164028285D01*
X59968857Y-164075904D01*
X60016476Y-164075904D01*
X60111714Y-164028285D01*
X60159333Y-163980666D01*
X60206952Y-163885428D01*
X60206952Y-163694952D01*
X60254571Y-163599714D01*
X60302190Y-163552095D01*
X60397428Y-163504476D01*
X60587904Y-163504476D01*
X60683142Y-163552095D01*
X60730761Y-163599714D01*
X60778380Y-163694952D01*
X60778380Y-163885428D01*
X60730761Y-163980666D01*
X60683142Y-164028285D01*
X60587904Y-164075904D01*
X60397428Y-164075904D01*
X60302190Y-164028285D01*
X60254571Y-163980666D01*
X60206952Y-163885428D01*
G04 #@! TO.C,R22*
X57602380Y-159631142D02*
X57126190Y-159297809D01*
X57602380Y-159059714D02*
X56602380Y-159059714D01*
X56602380Y-159440666D01*
X56650000Y-159535904D01*
X56697619Y-159583523D01*
X56792857Y-159631142D01*
X56935714Y-159631142D01*
X57030952Y-159583523D01*
X57078571Y-159535904D01*
X57126190Y-159440666D01*
X57126190Y-159059714D01*
X56697619Y-160012095D02*
X56650000Y-160059714D01*
X56602380Y-160154952D01*
X56602380Y-160393047D01*
X56650000Y-160488285D01*
X56697619Y-160535904D01*
X56792857Y-160583523D01*
X56888095Y-160583523D01*
X57030952Y-160535904D01*
X57602380Y-159964476D01*
X57602380Y-160583523D01*
X56697619Y-160964476D02*
X56650000Y-161012095D01*
X56602380Y-161107333D01*
X56602380Y-161345428D01*
X56650000Y-161440666D01*
X56697619Y-161488285D01*
X56792857Y-161535904D01*
X56888095Y-161535904D01*
X57030952Y-161488285D01*
X57602380Y-160916857D01*
X57602380Y-161535904D01*
G04 #@! TO.C,C3*
X93130666Y-140861142D02*
X93178285Y-140908761D01*
X93321142Y-140956380D01*
X93416380Y-140956380D01*
X93559238Y-140908761D01*
X93654476Y-140813523D01*
X93702095Y-140718285D01*
X93749714Y-140527809D01*
X93749714Y-140384952D01*
X93702095Y-140194476D01*
X93654476Y-140099238D01*
X93559238Y-140004000D01*
X93416380Y-139956380D01*
X93321142Y-139956380D01*
X93178285Y-140004000D01*
X93130666Y-140051619D01*
X92797333Y-139956380D02*
X92178285Y-139956380D01*
X92511619Y-140337333D01*
X92368761Y-140337333D01*
X92273523Y-140384952D01*
X92225904Y-140432571D01*
X92178285Y-140527809D01*
X92178285Y-140765904D01*
X92225904Y-140861142D01*
X92273523Y-140908761D01*
X92368761Y-140956380D01*
X92654476Y-140956380D01*
X92749714Y-140908761D01*
X92797333Y-140861142D01*
G04 #@! TO.C,C7*
X96686666Y-148481142D02*
X96734285Y-148528761D01*
X96877142Y-148576380D01*
X96972380Y-148576380D01*
X97115238Y-148528761D01*
X97210476Y-148433523D01*
X97258095Y-148338285D01*
X97305714Y-148147809D01*
X97305714Y-148004952D01*
X97258095Y-147814476D01*
X97210476Y-147719238D01*
X97115238Y-147624000D01*
X96972380Y-147576380D01*
X96877142Y-147576380D01*
X96734285Y-147624000D01*
X96686666Y-147671619D01*
X96353333Y-147576380D02*
X95686666Y-147576380D01*
X96115238Y-148576380D01*
G04 #@! TO.C,C8*
X74842666Y-150851142D02*
X74890285Y-150898761D01*
X75033142Y-150946380D01*
X75128380Y-150946380D01*
X75271238Y-150898761D01*
X75366476Y-150803523D01*
X75414095Y-150708285D01*
X75461714Y-150517809D01*
X75461714Y-150374952D01*
X75414095Y-150184476D01*
X75366476Y-150089238D01*
X75271238Y-149994000D01*
X75128380Y-149946380D01*
X75033142Y-149946380D01*
X74890285Y-149994000D01*
X74842666Y-150041619D01*
X74271238Y-150374952D02*
X74366476Y-150327333D01*
X74414095Y-150279714D01*
X74461714Y-150184476D01*
X74461714Y-150136857D01*
X74414095Y-150041619D01*
X74366476Y-149994000D01*
X74271238Y-149946380D01*
X74080761Y-149946380D01*
X73985523Y-149994000D01*
X73937904Y-150041619D01*
X73890285Y-150136857D01*
X73890285Y-150184476D01*
X73937904Y-150279714D01*
X73985523Y-150327333D01*
X74080761Y-150374952D01*
X74271238Y-150374952D01*
X74366476Y-150422571D01*
X74414095Y-150470190D01*
X74461714Y-150565428D01*
X74461714Y-150755904D01*
X74414095Y-150851142D01*
X74366476Y-150898761D01*
X74271238Y-150946380D01*
X74080761Y-150946380D01*
X73985523Y-150898761D01*
X73937904Y-150851142D01*
X73890285Y-150755904D01*
X73890285Y-150565428D01*
X73937904Y-150470190D01*
X73985523Y-150422571D01*
X74080761Y-150374952D01*
G04 #@! TO.C,C11*
X60301142Y-150269642D02*
X60348761Y-150222023D01*
X60396380Y-150079166D01*
X60396380Y-149983928D01*
X60348761Y-149841071D01*
X60253523Y-149745833D01*
X60158285Y-149698214D01*
X59967809Y-149650595D01*
X59824952Y-149650595D01*
X59634476Y-149698214D01*
X59539238Y-149745833D01*
X59444000Y-149841071D01*
X59396380Y-149983928D01*
X59396380Y-150079166D01*
X59444000Y-150222023D01*
X59491619Y-150269642D01*
X60396380Y-151222023D02*
X60396380Y-150650595D01*
X60396380Y-150936309D02*
X59396380Y-150936309D01*
X59539238Y-150841071D01*
X59634476Y-150745833D01*
X59682095Y-150650595D01*
X60396380Y-152174404D02*
X60396380Y-151602976D01*
X60396380Y-151888690D02*
X59396380Y-151888690D01*
X59539238Y-151793452D01*
X59634476Y-151698214D01*
X59682095Y-151602976D01*
G04 #@! TO.C,C12*
X119006857Y-109195142D02*
X119054476Y-109242761D01*
X119197333Y-109290380D01*
X119292571Y-109290380D01*
X119435428Y-109242761D01*
X119530666Y-109147523D01*
X119578285Y-109052285D01*
X119625904Y-108861809D01*
X119625904Y-108718952D01*
X119578285Y-108528476D01*
X119530666Y-108433238D01*
X119435428Y-108338000D01*
X119292571Y-108290380D01*
X119197333Y-108290380D01*
X119054476Y-108338000D01*
X119006857Y-108385619D01*
X118054476Y-109290380D02*
X118625904Y-109290380D01*
X118340190Y-109290380D02*
X118340190Y-108290380D01*
X118435428Y-108433238D01*
X118530666Y-108528476D01*
X118625904Y-108576095D01*
X117673523Y-108385619D02*
X117625904Y-108338000D01*
X117530666Y-108290380D01*
X117292571Y-108290380D01*
X117197333Y-108338000D01*
X117149714Y-108385619D01*
X117102095Y-108480857D01*
X117102095Y-108576095D01*
X117149714Y-108718952D01*
X117721142Y-109290380D01*
X117102095Y-109290380D01*
G04 #@! TO.C,C13*
X125610857Y-158979142D02*
X125658476Y-159026761D01*
X125801333Y-159074380D01*
X125896571Y-159074380D01*
X126039428Y-159026761D01*
X126134666Y-158931523D01*
X126182285Y-158836285D01*
X126229904Y-158645809D01*
X126229904Y-158502952D01*
X126182285Y-158312476D01*
X126134666Y-158217238D01*
X126039428Y-158122000D01*
X125896571Y-158074380D01*
X125801333Y-158074380D01*
X125658476Y-158122000D01*
X125610857Y-158169619D01*
X124658476Y-159074380D02*
X125229904Y-159074380D01*
X124944190Y-159074380D02*
X124944190Y-158074380D01*
X125039428Y-158217238D01*
X125134666Y-158312476D01*
X125229904Y-158360095D01*
X124325142Y-158074380D02*
X123706095Y-158074380D01*
X124039428Y-158455333D01*
X123896571Y-158455333D01*
X123801333Y-158502952D01*
X123753714Y-158550571D01*
X123706095Y-158645809D01*
X123706095Y-158883904D01*
X123753714Y-158979142D01*
X123801333Y-159026761D01*
X123896571Y-159074380D01*
X124182285Y-159074380D01*
X124277523Y-159026761D01*
X124325142Y-158979142D01*
G04 #@! TO.C,C15*
X73805142Y-136988642D02*
X73852761Y-136941023D01*
X73900380Y-136798166D01*
X73900380Y-136702928D01*
X73852761Y-136560071D01*
X73757523Y-136464833D01*
X73662285Y-136417214D01*
X73471809Y-136369595D01*
X73328952Y-136369595D01*
X73138476Y-136417214D01*
X73043238Y-136464833D01*
X72948000Y-136560071D01*
X72900380Y-136702928D01*
X72900380Y-136798166D01*
X72948000Y-136941023D01*
X72995619Y-136988642D01*
X73900380Y-137941023D02*
X73900380Y-137369595D01*
X73900380Y-137655309D02*
X72900380Y-137655309D01*
X73043238Y-137560071D01*
X73138476Y-137464833D01*
X73186095Y-137369595D01*
X72900380Y-138845785D02*
X72900380Y-138369595D01*
X73376571Y-138321976D01*
X73328952Y-138369595D01*
X73281333Y-138464833D01*
X73281333Y-138702928D01*
X73328952Y-138798166D01*
X73376571Y-138845785D01*
X73471809Y-138893404D01*
X73709904Y-138893404D01*
X73805142Y-138845785D01*
X73852761Y-138798166D01*
X73900380Y-138702928D01*
X73900380Y-138464833D01*
X73852761Y-138369595D01*
X73805142Y-138321976D01*
G04 #@! TO.C,C16*
X120457142Y-150995142D02*
X120504761Y-150947523D01*
X120552380Y-150804666D01*
X120552380Y-150709428D01*
X120504761Y-150566571D01*
X120409523Y-150471333D01*
X120314285Y-150423714D01*
X120123809Y-150376095D01*
X119980952Y-150376095D01*
X119790476Y-150423714D01*
X119695238Y-150471333D01*
X119600000Y-150566571D01*
X119552380Y-150709428D01*
X119552380Y-150804666D01*
X119600000Y-150947523D01*
X119647619Y-150995142D01*
X120552380Y-151947523D02*
X120552380Y-151376095D01*
X120552380Y-151661809D02*
X119552380Y-151661809D01*
X119695238Y-151566571D01*
X119790476Y-151471333D01*
X119838095Y-151376095D01*
X119552380Y-152804666D02*
X119552380Y-152614190D01*
X119600000Y-152518952D01*
X119647619Y-152471333D01*
X119790476Y-152376095D01*
X119980952Y-152328476D01*
X120361904Y-152328476D01*
X120457142Y-152376095D01*
X120504761Y-152423714D01*
X120552380Y-152518952D01*
X120552380Y-152709428D01*
X120504761Y-152804666D01*
X120457142Y-152852285D01*
X120361904Y-152899904D01*
X120123809Y-152899904D01*
X120028571Y-152852285D01*
X119980952Y-152804666D01*
X119933333Y-152709428D01*
X119933333Y-152518952D01*
X119980952Y-152423714D01*
X120028571Y-152376095D01*
X120123809Y-152328476D01*
G04 #@! TO.C,C17*
X71773142Y-156075142D02*
X71820761Y-156027523D01*
X71868380Y-155884666D01*
X71868380Y-155789428D01*
X71820761Y-155646571D01*
X71725523Y-155551333D01*
X71630285Y-155503714D01*
X71439809Y-155456095D01*
X71296952Y-155456095D01*
X71106476Y-155503714D01*
X71011238Y-155551333D01*
X70916000Y-155646571D01*
X70868380Y-155789428D01*
X70868380Y-155884666D01*
X70916000Y-156027523D01*
X70963619Y-156075142D01*
X71868380Y-157027523D02*
X71868380Y-156456095D01*
X71868380Y-156741809D02*
X70868380Y-156741809D01*
X71011238Y-156646571D01*
X71106476Y-156551333D01*
X71154095Y-156456095D01*
X70868380Y-157360857D02*
X70868380Y-158027523D01*
X71868380Y-157598952D01*
G04 #@! TO.C,C20*
X62248142Y-137696642D02*
X62295761Y-137649023D01*
X62343380Y-137506166D01*
X62343380Y-137410928D01*
X62295761Y-137268071D01*
X62200523Y-137172833D01*
X62105285Y-137125214D01*
X61914809Y-137077595D01*
X61771952Y-137077595D01*
X61581476Y-137125214D01*
X61486238Y-137172833D01*
X61391000Y-137268071D01*
X61343380Y-137410928D01*
X61343380Y-137506166D01*
X61391000Y-137649023D01*
X61438619Y-137696642D01*
X61438619Y-138077595D02*
X61391000Y-138125214D01*
X61343380Y-138220452D01*
X61343380Y-138458547D01*
X61391000Y-138553785D01*
X61438619Y-138601404D01*
X61533857Y-138649023D01*
X61629095Y-138649023D01*
X61771952Y-138601404D01*
X62343380Y-138029976D01*
X62343380Y-138649023D01*
X61343380Y-139268071D02*
X61343380Y-139363309D01*
X61391000Y-139458547D01*
X61438619Y-139506166D01*
X61533857Y-139553785D01*
X61724333Y-139601404D01*
X61962428Y-139601404D01*
X62152904Y-139553785D01*
X62248142Y-139506166D01*
X62295761Y-139458547D01*
X62343380Y-139363309D01*
X62343380Y-139268071D01*
X62295761Y-139172833D01*
X62248142Y-139125214D01*
X62152904Y-139077595D01*
X61962428Y-139029976D01*
X61724333Y-139029976D01*
X61533857Y-139077595D01*
X61438619Y-139125214D01*
X61391000Y-139172833D01*
X61343380Y-139268071D01*
G04 #@! TO.C,C21*
X74905142Y-159885142D02*
X74952761Y-159837523D01*
X75000380Y-159694666D01*
X75000380Y-159599428D01*
X74952761Y-159456571D01*
X74857523Y-159361333D01*
X74762285Y-159313714D01*
X74571809Y-159266095D01*
X74428952Y-159266095D01*
X74238476Y-159313714D01*
X74143238Y-159361333D01*
X74048000Y-159456571D01*
X74000380Y-159599428D01*
X74000380Y-159694666D01*
X74048000Y-159837523D01*
X74095619Y-159885142D01*
X74095619Y-160266095D02*
X74048000Y-160313714D01*
X74000380Y-160408952D01*
X74000380Y-160647047D01*
X74048000Y-160742285D01*
X74095619Y-160789904D01*
X74190857Y-160837523D01*
X74286095Y-160837523D01*
X74428952Y-160789904D01*
X75000380Y-160218476D01*
X75000380Y-160837523D01*
X75000380Y-161789904D02*
X75000380Y-161218476D01*
X75000380Y-161504190D02*
X74000380Y-161504190D01*
X74143238Y-161408952D01*
X74238476Y-161313714D01*
X74286095Y-161218476D01*
G04 #@! TO.C,C24*
X98697142Y-158070642D02*
X98744761Y-158023023D01*
X98792380Y-157880166D01*
X98792380Y-157784928D01*
X98744761Y-157642071D01*
X98649523Y-157546833D01*
X98554285Y-157499214D01*
X98363809Y-157451595D01*
X98220952Y-157451595D01*
X98030476Y-157499214D01*
X97935238Y-157546833D01*
X97840000Y-157642071D01*
X97792380Y-157784928D01*
X97792380Y-157880166D01*
X97840000Y-158023023D01*
X97887619Y-158070642D01*
X97887619Y-158451595D02*
X97840000Y-158499214D01*
X97792380Y-158594452D01*
X97792380Y-158832547D01*
X97840000Y-158927785D01*
X97887619Y-158975404D01*
X97982857Y-159023023D01*
X98078095Y-159023023D01*
X98220952Y-158975404D01*
X98792380Y-158403976D01*
X98792380Y-159023023D01*
X98125714Y-159880166D02*
X98792380Y-159880166D01*
X97744761Y-159642071D02*
X98459047Y-159403976D01*
X98459047Y-160023023D01*
G04 #@! TO.C,C25*
X75161142Y-128126142D02*
X75208761Y-128078523D01*
X75256380Y-127935666D01*
X75256380Y-127840428D01*
X75208761Y-127697571D01*
X75113523Y-127602333D01*
X75018285Y-127554714D01*
X74827809Y-127507095D01*
X74684952Y-127507095D01*
X74494476Y-127554714D01*
X74399238Y-127602333D01*
X74304000Y-127697571D01*
X74256380Y-127840428D01*
X74256380Y-127935666D01*
X74304000Y-128078523D01*
X74351619Y-128126142D01*
X74351619Y-128507095D02*
X74304000Y-128554714D01*
X74256380Y-128649952D01*
X74256380Y-128888047D01*
X74304000Y-128983285D01*
X74351619Y-129030904D01*
X74446857Y-129078523D01*
X74542095Y-129078523D01*
X74684952Y-129030904D01*
X75256380Y-128459476D01*
X75256380Y-129078523D01*
X74256380Y-129983285D02*
X74256380Y-129507095D01*
X74732571Y-129459476D01*
X74684952Y-129507095D01*
X74637333Y-129602333D01*
X74637333Y-129840428D01*
X74684952Y-129935666D01*
X74732571Y-129983285D01*
X74827809Y-130030904D01*
X75065904Y-130030904D01*
X75161142Y-129983285D01*
X75208761Y-129935666D01*
X75256380Y-129840428D01*
X75256380Y-129602333D01*
X75208761Y-129507095D01*
X75161142Y-129459476D01*
G04 #@! TO.C,C26*
X84852857Y-140183142D02*
X84900476Y-140230761D01*
X85043333Y-140278380D01*
X85138571Y-140278380D01*
X85281428Y-140230761D01*
X85376666Y-140135523D01*
X85424285Y-140040285D01*
X85471904Y-139849809D01*
X85471904Y-139706952D01*
X85424285Y-139516476D01*
X85376666Y-139421238D01*
X85281428Y-139326000D01*
X85138571Y-139278380D01*
X85043333Y-139278380D01*
X84900476Y-139326000D01*
X84852857Y-139373619D01*
X84471904Y-139373619D02*
X84424285Y-139326000D01*
X84329047Y-139278380D01*
X84090952Y-139278380D01*
X83995714Y-139326000D01*
X83948095Y-139373619D01*
X83900476Y-139468857D01*
X83900476Y-139564095D01*
X83948095Y-139706952D01*
X84519523Y-140278380D01*
X83900476Y-140278380D01*
X83043333Y-139278380D02*
X83233809Y-139278380D01*
X83329047Y-139326000D01*
X83376666Y-139373619D01*
X83471904Y-139516476D01*
X83519523Y-139706952D01*
X83519523Y-140087904D01*
X83471904Y-140183142D01*
X83424285Y-140230761D01*
X83329047Y-140278380D01*
X83138571Y-140278380D01*
X83043333Y-140230761D01*
X82995714Y-140183142D01*
X82948095Y-140087904D01*
X82948095Y-139849809D01*
X82995714Y-139754571D01*
X83043333Y-139706952D01*
X83138571Y-139659333D01*
X83329047Y-139659333D01*
X83424285Y-139706952D01*
X83471904Y-139754571D01*
X83519523Y-139849809D01*
G04 #@! TO.C,C27*
X137051142Y-135718642D02*
X137098761Y-135671023D01*
X137146380Y-135528166D01*
X137146380Y-135432928D01*
X137098761Y-135290071D01*
X137003523Y-135194833D01*
X136908285Y-135147214D01*
X136717809Y-135099595D01*
X136574952Y-135099595D01*
X136384476Y-135147214D01*
X136289238Y-135194833D01*
X136194000Y-135290071D01*
X136146380Y-135432928D01*
X136146380Y-135528166D01*
X136194000Y-135671023D01*
X136241619Y-135718642D01*
X136241619Y-136099595D02*
X136194000Y-136147214D01*
X136146380Y-136242452D01*
X136146380Y-136480547D01*
X136194000Y-136575785D01*
X136241619Y-136623404D01*
X136336857Y-136671023D01*
X136432095Y-136671023D01*
X136574952Y-136623404D01*
X137146380Y-136051976D01*
X137146380Y-136671023D01*
X136146380Y-137004357D02*
X136146380Y-137671023D01*
X137146380Y-137242452D01*
G04 #@! TO.C,R1*
X106242380Y-131405333D02*
X105766190Y-131072000D01*
X106242380Y-130833904D02*
X105242380Y-130833904D01*
X105242380Y-131214857D01*
X105290000Y-131310095D01*
X105337619Y-131357714D01*
X105432857Y-131405333D01*
X105575714Y-131405333D01*
X105670952Y-131357714D01*
X105718571Y-131310095D01*
X105766190Y-131214857D01*
X105766190Y-130833904D01*
X106242380Y-132357714D02*
X106242380Y-131786285D01*
X106242380Y-132072000D02*
X105242380Y-132072000D01*
X105385238Y-131976761D01*
X105480476Y-131881523D01*
X105528095Y-131786285D01*
G04 #@! TO.C,R2*
X101503666Y-137738380D02*
X101837000Y-137262190D01*
X102075095Y-137738380D02*
X102075095Y-136738380D01*
X101694142Y-136738380D01*
X101598904Y-136786000D01*
X101551285Y-136833619D01*
X101503666Y-136928857D01*
X101503666Y-137071714D01*
X101551285Y-137166952D01*
X101598904Y-137214571D01*
X101694142Y-137262190D01*
X102075095Y-137262190D01*
X101122714Y-136833619D02*
X101075095Y-136786000D01*
X100979857Y-136738380D01*
X100741761Y-136738380D01*
X100646523Y-136786000D01*
X100598904Y-136833619D01*
X100551285Y-136928857D01*
X100551285Y-137024095D01*
X100598904Y-137166952D01*
X101170333Y-137738380D01*
X100551285Y-137738380D01*
G04 #@! TO.C,R4*
X71446380Y-128602333D02*
X70970190Y-128269000D01*
X71446380Y-128030904D02*
X70446380Y-128030904D01*
X70446380Y-128411857D01*
X70494000Y-128507095D01*
X70541619Y-128554714D01*
X70636857Y-128602333D01*
X70779714Y-128602333D01*
X70874952Y-128554714D01*
X70922571Y-128507095D01*
X70970190Y-128411857D01*
X70970190Y-128030904D01*
X70779714Y-129459476D02*
X71446380Y-129459476D01*
X70398761Y-129221380D02*
X71113047Y-128983285D01*
X71113047Y-129602333D01*
G04 #@! TO.C,R5*
X98210666Y-141802380D02*
X98544000Y-141326190D01*
X98782095Y-141802380D02*
X98782095Y-140802380D01*
X98401142Y-140802380D01*
X98305904Y-140850000D01*
X98258285Y-140897619D01*
X98210666Y-140992857D01*
X98210666Y-141135714D01*
X98258285Y-141230952D01*
X98305904Y-141278571D01*
X98401142Y-141326190D01*
X98782095Y-141326190D01*
X97305904Y-140802380D02*
X97782095Y-140802380D01*
X97829714Y-141278571D01*
X97782095Y-141230952D01*
X97686857Y-141183333D01*
X97448761Y-141183333D01*
X97353523Y-141230952D01*
X97305904Y-141278571D01*
X97258285Y-141373809D01*
X97258285Y-141611904D01*
X97305904Y-141707142D01*
X97353523Y-141754761D01*
X97448761Y-141802380D01*
X97686857Y-141802380D01*
X97782095Y-141754761D01*
X97829714Y-141707142D01*
G04 #@! TO.C,R6*
X107091666Y-152852380D02*
X107425000Y-152376190D01*
X107663095Y-152852380D02*
X107663095Y-151852380D01*
X107282142Y-151852380D01*
X107186904Y-151900000D01*
X107139285Y-151947619D01*
X107091666Y-152042857D01*
X107091666Y-152185714D01*
X107139285Y-152280952D01*
X107186904Y-152328571D01*
X107282142Y-152376190D01*
X107663095Y-152376190D01*
X106234523Y-151852380D02*
X106425000Y-151852380D01*
X106520238Y-151900000D01*
X106567857Y-151947619D01*
X106663095Y-152090476D01*
X106710714Y-152280952D01*
X106710714Y-152661904D01*
X106663095Y-152757142D01*
X106615476Y-152804761D01*
X106520238Y-152852380D01*
X106329761Y-152852380D01*
X106234523Y-152804761D01*
X106186904Y-152757142D01*
X106139285Y-152661904D01*
X106139285Y-152423809D01*
X106186904Y-152328571D01*
X106234523Y-152280952D01*
X106329761Y-152233333D01*
X106520238Y-152233333D01*
X106615476Y-152280952D01*
X106663095Y-152328571D01*
X106710714Y-152423809D01*
G04 #@! TO.C,R8*
X89574666Y-140026380D02*
X89908000Y-139550190D01*
X90146095Y-140026380D02*
X90146095Y-139026380D01*
X89765142Y-139026380D01*
X89669904Y-139074000D01*
X89622285Y-139121619D01*
X89574666Y-139216857D01*
X89574666Y-139359714D01*
X89622285Y-139454952D01*
X89669904Y-139502571D01*
X89765142Y-139550190D01*
X90146095Y-139550190D01*
X89003238Y-139454952D02*
X89098476Y-139407333D01*
X89146095Y-139359714D01*
X89193714Y-139264476D01*
X89193714Y-139216857D01*
X89146095Y-139121619D01*
X89098476Y-139074000D01*
X89003238Y-139026380D01*
X88812761Y-139026380D01*
X88717523Y-139074000D01*
X88669904Y-139121619D01*
X88622285Y-139216857D01*
X88622285Y-139264476D01*
X88669904Y-139359714D01*
X88717523Y-139407333D01*
X88812761Y-139454952D01*
X89003238Y-139454952D01*
X89098476Y-139502571D01*
X89146095Y-139550190D01*
X89193714Y-139645428D01*
X89193714Y-139835904D01*
X89146095Y-139931142D01*
X89098476Y-139978761D01*
X89003238Y-140026380D01*
X88812761Y-140026380D01*
X88717523Y-139978761D01*
X88669904Y-139931142D01*
X88622285Y-139835904D01*
X88622285Y-139645428D01*
X88669904Y-139550190D01*
X88717523Y-139502571D01*
X88812761Y-139454952D01*
G04 #@! TO.C,R10*
X104274857Y-146374380D02*
X104608190Y-145898190D01*
X104846285Y-146374380D02*
X104846285Y-145374380D01*
X104465333Y-145374380D01*
X104370095Y-145422000D01*
X104322476Y-145469619D01*
X104274857Y-145564857D01*
X104274857Y-145707714D01*
X104322476Y-145802952D01*
X104370095Y-145850571D01*
X104465333Y-145898190D01*
X104846285Y-145898190D01*
X103322476Y-146374380D02*
X103893904Y-146374380D01*
X103608190Y-146374380D02*
X103608190Y-145374380D01*
X103703428Y-145517238D01*
X103798666Y-145612476D01*
X103893904Y-145660095D01*
X102703428Y-145374380D02*
X102608190Y-145374380D01*
X102512952Y-145422000D01*
X102465333Y-145469619D01*
X102417714Y-145564857D01*
X102370095Y-145755333D01*
X102370095Y-145993428D01*
X102417714Y-146183904D01*
X102465333Y-146279142D01*
X102512952Y-146326761D01*
X102608190Y-146374380D01*
X102703428Y-146374380D01*
X102798666Y-146326761D01*
X102846285Y-146279142D01*
X102893904Y-146183904D01*
X102941523Y-145993428D01*
X102941523Y-145755333D01*
X102893904Y-145564857D01*
X102846285Y-145469619D01*
X102798666Y-145422000D01*
X102703428Y-145374380D01*
G04 #@! TO.C,R11*
X107576857Y-148534380D02*
X107910190Y-148058190D01*
X108148285Y-148534380D02*
X108148285Y-147534380D01*
X107767333Y-147534380D01*
X107672095Y-147582000D01*
X107624476Y-147629619D01*
X107576857Y-147724857D01*
X107576857Y-147867714D01*
X107624476Y-147962952D01*
X107672095Y-148010571D01*
X107767333Y-148058190D01*
X108148285Y-148058190D01*
X106624476Y-148534380D02*
X107195904Y-148534380D01*
X106910190Y-148534380D02*
X106910190Y-147534380D01*
X107005428Y-147677238D01*
X107100666Y-147772476D01*
X107195904Y-147820095D01*
X105672095Y-148534380D02*
X106243523Y-148534380D01*
X105957809Y-148534380D02*
X105957809Y-147534380D01*
X106053047Y-147677238D01*
X106148285Y-147772476D01*
X106243523Y-147820095D01*
G04 #@! TO.C,R12*
X84961857Y-134692380D02*
X85295190Y-134216190D01*
X85533285Y-134692380D02*
X85533285Y-133692380D01*
X85152333Y-133692380D01*
X85057095Y-133740000D01*
X85009476Y-133787619D01*
X84961857Y-133882857D01*
X84961857Y-134025714D01*
X85009476Y-134120952D01*
X85057095Y-134168571D01*
X85152333Y-134216190D01*
X85533285Y-134216190D01*
X84009476Y-134692380D02*
X84580904Y-134692380D01*
X84295190Y-134692380D02*
X84295190Y-133692380D01*
X84390428Y-133835238D01*
X84485666Y-133930476D01*
X84580904Y-133978095D01*
X83628523Y-133787619D02*
X83580904Y-133740000D01*
X83485666Y-133692380D01*
X83247571Y-133692380D01*
X83152333Y-133740000D01*
X83104714Y-133787619D01*
X83057095Y-133882857D01*
X83057095Y-133978095D01*
X83104714Y-134120952D01*
X83676142Y-134692380D01*
X83057095Y-134692380D01*
G04 #@! TO.C,R13*
X97153857Y-151962380D02*
X97487190Y-151486190D01*
X97725285Y-151962380D02*
X97725285Y-150962380D01*
X97344333Y-150962380D01*
X97249095Y-151010000D01*
X97201476Y-151057619D01*
X97153857Y-151152857D01*
X97153857Y-151295714D01*
X97201476Y-151390952D01*
X97249095Y-151438571D01*
X97344333Y-151486190D01*
X97725285Y-151486190D01*
X96201476Y-151962380D02*
X96772904Y-151962380D01*
X96487190Y-151962380D02*
X96487190Y-150962380D01*
X96582428Y-151105238D01*
X96677666Y-151200476D01*
X96772904Y-151248095D01*
X95868142Y-150962380D02*
X95249095Y-150962380D01*
X95582428Y-151343333D01*
X95439571Y-151343333D01*
X95344333Y-151390952D01*
X95296714Y-151438571D01*
X95249095Y-151533809D01*
X95249095Y-151771904D01*
X95296714Y-151867142D01*
X95344333Y-151914761D01*
X95439571Y-151962380D01*
X95725285Y-151962380D01*
X95820523Y-151914761D01*
X95868142Y-151867142D01*
G04 #@! TO.C,R14*
X97162857Y-155518380D02*
X97496190Y-155042190D01*
X97734285Y-155518380D02*
X97734285Y-154518380D01*
X97353333Y-154518380D01*
X97258095Y-154566000D01*
X97210476Y-154613619D01*
X97162857Y-154708857D01*
X97162857Y-154851714D01*
X97210476Y-154946952D01*
X97258095Y-154994571D01*
X97353333Y-155042190D01*
X97734285Y-155042190D01*
X96210476Y-155518380D02*
X96781904Y-155518380D01*
X96496190Y-155518380D02*
X96496190Y-154518380D01*
X96591428Y-154661238D01*
X96686666Y-154756476D01*
X96781904Y-154804095D01*
X95353333Y-154851714D02*
X95353333Y-155518380D01*
X95591428Y-154470761D02*
X95829523Y-155185047D01*
X95210476Y-155185047D01*
G04 #@! TO.C,R15*
X99130380Y-135501142D02*
X98654190Y-135167809D01*
X99130380Y-134929714D02*
X98130380Y-134929714D01*
X98130380Y-135310666D01*
X98178000Y-135405904D01*
X98225619Y-135453523D01*
X98320857Y-135501142D01*
X98463714Y-135501142D01*
X98558952Y-135453523D01*
X98606571Y-135405904D01*
X98654190Y-135310666D01*
X98654190Y-134929714D01*
X99130380Y-136453523D02*
X99130380Y-135882095D01*
X99130380Y-136167809D02*
X98130380Y-136167809D01*
X98273238Y-136072571D01*
X98368476Y-135977333D01*
X98416095Y-135882095D01*
X98130380Y-137358285D02*
X98130380Y-136882095D01*
X98606571Y-136834476D01*
X98558952Y-136882095D01*
X98511333Y-136977333D01*
X98511333Y-137215428D01*
X98558952Y-137310666D01*
X98606571Y-137358285D01*
X98701809Y-137405904D01*
X98939904Y-137405904D01*
X99035142Y-137358285D01*
X99082761Y-137310666D01*
X99130380Y-137215428D01*
X99130380Y-136977333D01*
X99082761Y-136882095D01*
X99035142Y-136834476D01*
G04 #@! TO.C,R16*
X58681857Y-145487380D02*
X59015190Y-145011190D01*
X59253285Y-145487380D02*
X59253285Y-144487380D01*
X58872333Y-144487380D01*
X58777095Y-144535000D01*
X58729476Y-144582619D01*
X58681857Y-144677857D01*
X58681857Y-144820714D01*
X58729476Y-144915952D01*
X58777095Y-144963571D01*
X58872333Y-145011190D01*
X59253285Y-145011190D01*
X57729476Y-145487380D02*
X58300904Y-145487380D01*
X58015190Y-145487380D02*
X58015190Y-144487380D01*
X58110428Y-144630238D01*
X58205666Y-144725476D01*
X58300904Y-144773095D01*
X56872333Y-144487380D02*
X57062809Y-144487380D01*
X57158047Y-144535000D01*
X57205666Y-144582619D01*
X57300904Y-144725476D01*
X57348523Y-144915952D01*
X57348523Y-145296904D01*
X57300904Y-145392142D01*
X57253285Y-145439761D01*
X57158047Y-145487380D01*
X56967571Y-145487380D01*
X56872333Y-145439761D01*
X56824714Y-145392142D01*
X56777095Y-145296904D01*
X56777095Y-145058809D01*
X56824714Y-144963571D01*
X56872333Y-144915952D01*
X56967571Y-144868333D01*
X57158047Y-144868333D01*
X57253285Y-144915952D01*
X57300904Y-144963571D01*
X57348523Y-145058809D01*
G04 #@! TO.C,R17*
X79890857Y-147646380D02*
X80224190Y-147170190D01*
X80462285Y-147646380D02*
X80462285Y-146646380D01*
X80081333Y-146646380D01*
X79986095Y-146694000D01*
X79938476Y-146741619D01*
X79890857Y-146836857D01*
X79890857Y-146979714D01*
X79938476Y-147074952D01*
X79986095Y-147122571D01*
X80081333Y-147170190D01*
X80462285Y-147170190D01*
X78938476Y-147646380D02*
X79509904Y-147646380D01*
X79224190Y-147646380D02*
X79224190Y-146646380D01*
X79319428Y-146789238D01*
X79414666Y-146884476D01*
X79509904Y-146932095D01*
X78605142Y-146646380D02*
X77938476Y-146646380D01*
X78367047Y-147646380D01*
G04 #@! TO.C,R18*
X79890857Y-153994380D02*
X80224190Y-153518190D01*
X80462285Y-153994380D02*
X80462285Y-152994380D01*
X80081333Y-152994380D01*
X79986095Y-153042000D01*
X79938476Y-153089619D01*
X79890857Y-153184857D01*
X79890857Y-153327714D01*
X79938476Y-153422952D01*
X79986095Y-153470571D01*
X80081333Y-153518190D01*
X80462285Y-153518190D01*
X78938476Y-153994380D02*
X79509904Y-153994380D01*
X79224190Y-153994380D02*
X79224190Y-152994380D01*
X79319428Y-153137238D01*
X79414666Y-153232476D01*
X79509904Y-153280095D01*
X78367047Y-153422952D02*
X78462285Y-153375333D01*
X78509904Y-153327714D01*
X78557523Y-153232476D01*
X78557523Y-153184857D01*
X78509904Y-153089619D01*
X78462285Y-153042000D01*
X78367047Y-152994380D01*
X78176571Y-152994380D01*
X78081333Y-153042000D01*
X78033714Y-153089619D01*
X77986095Y-153184857D01*
X77986095Y-153232476D01*
X78033714Y-153327714D01*
X78081333Y-153375333D01*
X78176571Y-153422952D01*
X78367047Y-153422952D01*
X78462285Y-153470571D01*
X78509904Y-153518190D01*
X78557523Y-153613428D01*
X78557523Y-153803904D01*
X78509904Y-153899142D01*
X78462285Y-153946761D01*
X78367047Y-153994380D01*
X78176571Y-153994380D01*
X78081333Y-153946761D01*
X78033714Y-153899142D01*
X77986095Y-153803904D01*
X77986095Y-153613428D01*
X78033714Y-153518190D01*
X78081333Y-153470571D01*
X78176571Y-153422952D01*
G04 #@! TO.C,R19*
X125102857Y-146374380D02*
X125436190Y-145898190D01*
X125674285Y-146374380D02*
X125674285Y-145374380D01*
X125293333Y-145374380D01*
X125198095Y-145422000D01*
X125150476Y-145469619D01*
X125102857Y-145564857D01*
X125102857Y-145707714D01*
X125150476Y-145802952D01*
X125198095Y-145850571D01*
X125293333Y-145898190D01*
X125674285Y-145898190D01*
X124150476Y-146374380D02*
X124721904Y-146374380D01*
X124436190Y-146374380D02*
X124436190Y-145374380D01*
X124531428Y-145517238D01*
X124626666Y-145612476D01*
X124721904Y-145660095D01*
X123674285Y-146374380D02*
X123483809Y-146374380D01*
X123388571Y-146326761D01*
X123340952Y-146279142D01*
X123245714Y-146136285D01*
X123198095Y-145945809D01*
X123198095Y-145564857D01*
X123245714Y-145469619D01*
X123293333Y-145422000D01*
X123388571Y-145374380D01*
X123579047Y-145374380D01*
X123674285Y-145422000D01*
X123721904Y-145469619D01*
X123769523Y-145564857D01*
X123769523Y-145802952D01*
X123721904Y-145898190D01*
X123674285Y-145945809D01*
X123579047Y-145993428D01*
X123388571Y-145993428D01*
X123293333Y-145945809D01*
X123245714Y-145898190D01*
X123198095Y-145802952D01*
G04 #@! TO.C,R20*
X58681857Y-142312380D02*
X59015190Y-141836190D01*
X59253285Y-142312380D02*
X59253285Y-141312380D01*
X58872333Y-141312380D01*
X58777095Y-141360000D01*
X58729476Y-141407619D01*
X58681857Y-141502857D01*
X58681857Y-141645714D01*
X58729476Y-141740952D01*
X58777095Y-141788571D01*
X58872333Y-141836190D01*
X59253285Y-141836190D01*
X58300904Y-141407619D02*
X58253285Y-141360000D01*
X58158047Y-141312380D01*
X57919952Y-141312380D01*
X57824714Y-141360000D01*
X57777095Y-141407619D01*
X57729476Y-141502857D01*
X57729476Y-141598095D01*
X57777095Y-141740952D01*
X58348523Y-142312380D01*
X57729476Y-142312380D01*
X57110428Y-141312380D02*
X57015190Y-141312380D01*
X56919952Y-141360000D01*
X56872333Y-141407619D01*
X56824714Y-141502857D01*
X56777095Y-141693333D01*
X56777095Y-141931428D01*
X56824714Y-142121904D01*
X56872333Y-142217142D01*
X56919952Y-142264761D01*
X57015190Y-142312380D01*
X57110428Y-142312380D01*
X57205666Y-142264761D01*
X57253285Y-142217142D01*
X57300904Y-142121904D01*
X57348523Y-141931428D01*
X57348523Y-141693333D01*
X57300904Y-141502857D01*
X57253285Y-141407619D01*
X57205666Y-141360000D01*
X57110428Y-141312380D01*
G04 #@! TO.C,R21*
X67580857Y-137992380D02*
X67914190Y-137516190D01*
X68152285Y-137992380D02*
X68152285Y-136992380D01*
X67771333Y-136992380D01*
X67676095Y-137040000D01*
X67628476Y-137087619D01*
X67580857Y-137182857D01*
X67580857Y-137325714D01*
X67628476Y-137420952D01*
X67676095Y-137468571D01*
X67771333Y-137516190D01*
X68152285Y-137516190D01*
X67199904Y-137087619D02*
X67152285Y-137040000D01*
X67057047Y-136992380D01*
X66818952Y-136992380D01*
X66723714Y-137040000D01*
X66676095Y-137087619D01*
X66628476Y-137182857D01*
X66628476Y-137278095D01*
X66676095Y-137420952D01*
X67247523Y-137992380D01*
X66628476Y-137992380D01*
X65676095Y-137992380D02*
X66247523Y-137992380D01*
X65961809Y-137992380D02*
X65961809Y-136992380D01*
X66057047Y-137135238D01*
X66152285Y-137230476D01*
X66247523Y-137278095D01*
G04 #@! TO.C,R23*
X71254857Y-153740380D02*
X71588190Y-153264190D01*
X71826285Y-153740380D02*
X71826285Y-152740380D01*
X71445333Y-152740380D01*
X71350095Y-152788000D01*
X71302476Y-152835619D01*
X71254857Y-152930857D01*
X71254857Y-153073714D01*
X71302476Y-153168952D01*
X71350095Y-153216571D01*
X71445333Y-153264190D01*
X71826285Y-153264190D01*
X70873904Y-152835619D02*
X70826285Y-152788000D01*
X70731047Y-152740380D01*
X70492952Y-152740380D01*
X70397714Y-152788000D01*
X70350095Y-152835619D01*
X70302476Y-152930857D01*
X70302476Y-153026095D01*
X70350095Y-153168952D01*
X70921523Y-153740380D01*
X70302476Y-153740380D01*
X69969142Y-152740380D02*
X69350095Y-152740380D01*
X69683428Y-153121333D01*
X69540571Y-153121333D01*
X69445333Y-153168952D01*
X69397714Y-153216571D01*
X69350095Y-153311809D01*
X69350095Y-153549904D01*
X69397714Y-153645142D01*
X69445333Y-153692761D01*
X69540571Y-153740380D01*
X69826285Y-153740380D01*
X69921523Y-153692761D01*
X69969142Y-153645142D01*
G04 #@! TO.C,R24*
X61286380Y-142105142D02*
X60810190Y-141771809D01*
X61286380Y-141533714D02*
X60286380Y-141533714D01*
X60286380Y-141914666D01*
X60334000Y-142009904D01*
X60381619Y-142057523D01*
X60476857Y-142105142D01*
X60619714Y-142105142D01*
X60714952Y-142057523D01*
X60762571Y-142009904D01*
X60810190Y-141914666D01*
X60810190Y-141533714D01*
X60381619Y-142486095D02*
X60334000Y-142533714D01*
X60286380Y-142628952D01*
X60286380Y-142867047D01*
X60334000Y-142962285D01*
X60381619Y-143009904D01*
X60476857Y-143057523D01*
X60572095Y-143057523D01*
X60714952Y-143009904D01*
X61286380Y-142438476D01*
X61286380Y-143057523D01*
X60619714Y-143914666D02*
X61286380Y-143914666D01*
X60238761Y-143676571D02*
X60953047Y-143438476D01*
X60953047Y-144057523D01*
G04 #@! TO.C,R25*
X64842380Y-142105142D02*
X64366190Y-141771809D01*
X64842380Y-141533714D02*
X63842380Y-141533714D01*
X63842380Y-141914666D01*
X63890000Y-142009904D01*
X63937619Y-142057523D01*
X64032857Y-142105142D01*
X64175714Y-142105142D01*
X64270952Y-142057523D01*
X64318571Y-142009904D01*
X64366190Y-141914666D01*
X64366190Y-141533714D01*
X63937619Y-142486095D02*
X63890000Y-142533714D01*
X63842380Y-142628952D01*
X63842380Y-142867047D01*
X63890000Y-142962285D01*
X63937619Y-143009904D01*
X64032857Y-143057523D01*
X64128095Y-143057523D01*
X64270952Y-143009904D01*
X64842380Y-142438476D01*
X64842380Y-143057523D01*
X63842380Y-143962285D02*
X63842380Y-143486095D01*
X64318571Y-143438476D01*
X64270952Y-143486095D01*
X64223333Y-143581333D01*
X64223333Y-143819428D01*
X64270952Y-143914666D01*
X64318571Y-143962285D01*
X64413809Y-144009904D01*
X64651904Y-144009904D01*
X64747142Y-143962285D01*
X64794761Y-143914666D01*
X64842380Y-143819428D01*
X64842380Y-143581333D01*
X64794761Y-143486095D01*
X64747142Y-143438476D01*
G04 #@! TO.C,R26*
X75254380Y-154805142D02*
X74778190Y-154471809D01*
X75254380Y-154233714D02*
X74254380Y-154233714D01*
X74254380Y-154614666D01*
X74302000Y-154709904D01*
X74349619Y-154757523D01*
X74444857Y-154805142D01*
X74587714Y-154805142D01*
X74682952Y-154757523D01*
X74730571Y-154709904D01*
X74778190Y-154614666D01*
X74778190Y-154233714D01*
X74349619Y-155186095D02*
X74302000Y-155233714D01*
X74254380Y-155328952D01*
X74254380Y-155567047D01*
X74302000Y-155662285D01*
X74349619Y-155709904D01*
X74444857Y-155757523D01*
X74540095Y-155757523D01*
X74682952Y-155709904D01*
X75254380Y-155138476D01*
X75254380Y-155757523D01*
X74254380Y-156614666D02*
X74254380Y-156424190D01*
X74302000Y-156328952D01*
X74349619Y-156281333D01*
X74492476Y-156186095D01*
X74682952Y-156138476D01*
X75063904Y-156138476D01*
X75159142Y-156186095D01*
X75206761Y-156233714D01*
X75254380Y-156328952D01*
X75254380Y-156519428D01*
X75206761Y-156614666D01*
X75159142Y-156662285D01*
X75063904Y-156709904D01*
X74825809Y-156709904D01*
X74730571Y-156662285D01*
X74682952Y-156614666D01*
X74635333Y-156519428D01*
X74635333Y-156328952D01*
X74682952Y-156233714D01*
X74730571Y-156186095D01*
X74825809Y-156138476D01*
G04 #@! TO.C,R27*
X83446857Y-162122380D02*
X83780190Y-161646190D01*
X84018285Y-162122380D02*
X84018285Y-161122380D01*
X83637333Y-161122380D01*
X83542095Y-161170000D01*
X83494476Y-161217619D01*
X83446857Y-161312857D01*
X83446857Y-161455714D01*
X83494476Y-161550952D01*
X83542095Y-161598571D01*
X83637333Y-161646190D01*
X84018285Y-161646190D01*
X83065904Y-161217619D02*
X83018285Y-161170000D01*
X82923047Y-161122380D01*
X82684952Y-161122380D01*
X82589714Y-161170000D01*
X82542095Y-161217619D01*
X82494476Y-161312857D01*
X82494476Y-161408095D01*
X82542095Y-161550952D01*
X83113523Y-162122380D01*
X82494476Y-162122380D01*
X82161142Y-161122380D02*
X81494476Y-161122380D01*
X81923047Y-162122380D01*
G04 #@! TO.C,R29*
X134999857Y-119452380D02*
X135333190Y-118976190D01*
X135571285Y-119452380D02*
X135571285Y-118452380D01*
X135190333Y-118452380D01*
X135095095Y-118500000D01*
X135047476Y-118547619D01*
X134999857Y-118642857D01*
X134999857Y-118785714D01*
X135047476Y-118880952D01*
X135095095Y-118928571D01*
X135190333Y-118976190D01*
X135571285Y-118976190D01*
X134618904Y-118547619D02*
X134571285Y-118500000D01*
X134476047Y-118452380D01*
X134237952Y-118452380D01*
X134142714Y-118500000D01*
X134095095Y-118547619D01*
X134047476Y-118642857D01*
X134047476Y-118738095D01*
X134095095Y-118880952D01*
X134666523Y-119452380D01*
X134047476Y-119452380D01*
X133571285Y-119452380D02*
X133380809Y-119452380D01*
X133285571Y-119404761D01*
X133237952Y-119357142D01*
X133142714Y-119214285D01*
X133095095Y-119023809D01*
X133095095Y-118642857D01*
X133142714Y-118547619D01*
X133190333Y-118500000D01*
X133285571Y-118452380D01*
X133476047Y-118452380D01*
X133571285Y-118500000D01*
X133618904Y-118547619D01*
X133666523Y-118642857D01*
X133666523Y-118880952D01*
X133618904Y-118976190D01*
X133571285Y-119023809D01*
X133476047Y-119071428D01*
X133285571Y-119071428D01*
X133190333Y-119023809D01*
X133142714Y-118976190D01*
X133095095Y-118880952D01*
G04 #@! TO.C,R30*
X89034857Y-162376380D02*
X89368190Y-161900190D01*
X89606285Y-162376380D02*
X89606285Y-161376380D01*
X89225333Y-161376380D01*
X89130095Y-161424000D01*
X89082476Y-161471619D01*
X89034857Y-161566857D01*
X89034857Y-161709714D01*
X89082476Y-161804952D01*
X89130095Y-161852571D01*
X89225333Y-161900190D01*
X89606285Y-161900190D01*
X88701523Y-161376380D02*
X88082476Y-161376380D01*
X88415809Y-161757333D01*
X88272952Y-161757333D01*
X88177714Y-161804952D01*
X88130095Y-161852571D01*
X88082476Y-161947809D01*
X88082476Y-162185904D01*
X88130095Y-162281142D01*
X88177714Y-162328761D01*
X88272952Y-162376380D01*
X88558666Y-162376380D01*
X88653904Y-162328761D01*
X88701523Y-162281142D01*
X87463428Y-161376380D02*
X87368190Y-161376380D01*
X87272952Y-161424000D01*
X87225333Y-161471619D01*
X87177714Y-161566857D01*
X87130095Y-161757333D01*
X87130095Y-161995428D01*
X87177714Y-162185904D01*
X87225333Y-162281142D01*
X87272952Y-162328761D01*
X87368190Y-162376380D01*
X87463428Y-162376380D01*
X87558666Y-162328761D01*
X87606285Y-162281142D01*
X87653904Y-162185904D01*
X87701523Y-161995428D01*
X87701523Y-161757333D01*
X87653904Y-161566857D01*
X87606285Y-161471619D01*
X87558666Y-161424000D01*
X87463428Y-161376380D01*
G04 #@! TO.C,R32*
X77096857Y-164916380D02*
X77430190Y-164440190D01*
X77668285Y-164916380D02*
X77668285Y-163916380D01*
X77287333Y-163916380D01*
X77192095Y-163964000D01*
X77144476Y-164011619D01*
X77096857Y-164106857D01*
X77096857Y-164249714D01*
X77144476Y-164344952D01*
X77192095Y-164392571D01*
X77287333Y-164440190D01*
X77668285Y-164440190D01*
X76763523Y-163916380D02*
X76144476Y-163916380D01*
X76477809Y-164297333D01*
X76334952Y-164297333D01*
X76239714Y-164344952D01*
X76192095Y-164392571D01*
X76144476Y-164487809D01*
X76144476Y-164725904D01*
X76192095Y-164821142D01*
X76239714Y-164868761D01*
X76334952Y-164916380D01*
X76620666Y-164916380D01*
X76715904Y-164868761D01*
X76763523Y-164821142D01*
X75763523Y-164011619D02*
X75715904Y-163964000D01*
X75620666Y-163916380D01*
X75382571Y-163916380D01*
X75287333Y-163964000D01*
X75239714Y-164011619D01*
X75192095Y-164106857D01*
X75192095Y-164202095D01*
X75239714Y-164344952D01*
X75811142Y-164916380D01*
X75192095Y-164916380D01*
G04 #@! TO.C,R33*
X77794380Y-165981142D02*
X77318190Y-165647809D01*
X77794380Y-165409714D02*
X76794380Y-165409714D01*
X76794380Y-165790666D01*
X76842000Y-165885904D01*
X76889619Y-165933523D01*
X76984857Y-165981142D01*
X77127714Y-165981142D01*
X77222952Y-165933523D01*
X77270571Y-165885904D01*
X77318190Y-165790666D01*
X77318190Y-165409714D01*
X76794380Y-166314476D02*
X76794380Y-166933523D01*
X77175333Y-166600190D01*
X77175333Y-166743047D01*
X77222952Y-166838285D01*
X77270571Y-166885904D01*
X77365809Y-166933523D01*
X77603904Y-166933523D01*
X77699142Y-166885904D01*
X77746761Y-166838285D01*
X77794380Y-166743047D01*
X77794380Y-166457333D01*
X77746761Y-166362095D01*
X77699142Y-166314476D01*
X76794380Y-167266857D02*
X76794380Y-167885904D01*
X77175333Y-167552571D01*
X77175333Y-167695428D01*
X77222952Y-167790666D01*
X77270571Y-167838285D01*
X77365809Y-167885904D01*
X77603904Y-167885904D01*
X77699142Y-167838285D01*
X77746761Y-167790666D01*
X77794380Y-167695428D01*
X77794380Y-167409714D01*
X77746761Y-167314476D01*
X77699142Y-167266857D01*
G04 #@! TO.C,R34*
X81604380Y-164457142D02*
X81128190Y-164123809D01*
X81604380Y-163885714D02*
X80604380Y-163885714D01*
X80604380Y-164266666D01*
X80652000Y-164361904D01*
X80699619Y-164409523D01*
X80794857Y-164457142D01*
X80937714Y-164457142D01*
X81032952Y-164409523D01*
X81080571Y-164361904D01*
X81128190Y-164266666D01*
X81128190Y-163885714D01*
X80604380Y-164790476D02*
X80604380Y-165409523D01*
X80985333Y-165076190D01*
X80985333Y-165219047D01*
X81032952Y-165314285D01*
X81080571Y-165361904D01*
X81175809Y-165409523D01*
X81413904Y-165409523D01*
X81509142Y-165361904D01*
X81556761Y-165314285D01*
X81604380Y-165219047D01*
X81604380Y-164933333D01*
X81556761Y-164838095D01*
X81509142Y-164790476D01*
X80937714Y-166266666D02*
X81604380Y-166266666D01*
X80556761Y-166028571D02*
X81271047Y-165790476D01*
X81271047Y-166409523D01*
G04 #@! TO.C,R35*
X128596380Y-114410142D02*
X128120190Y-114076809D01*
X128596380Y-113838714D02*
X127596380Y-113838714D01*
X127596380Y-114219666D01*
X127644000Y-114314904D01*
X127691619Y-114362523D01*
X127786857Y-114410142D01*
X127929714Y-114410142D01*
X128024952Y-114362523D01*
X128072571Y-114314904D01*
X128120190Y-114219666D01*
X128120190Y-113838714D01*
X127596380Y-114743476D02*
X127596380Y-115362523D01*
X127977333Y-115029190D01*
X127977333Y-115172047D01*
X128024952Y-115267285D01*
X128072571Y-115314904D01*
X128167809Y-115362523D01*
X128405904Y-115362523D01*
X128501142Y-115314904D01*
X128548761Y-115267285D01*
X128596380Y-115172047D01*
X128596380Y-114886333D01*
X128548761Y-114791095D01*
X128501142Y-114743476D01*
X127596380Y-116267285D02*
X127596380Y-115791095D01*
X128072571Y-115743476D01*
X128024952Y-115791095D01*
X127977333Y-115886333D01*
X127977333Y-116124428D01*
X128024952Y-116219666D01*
X128072571Y-116267285D01*
X128167809Y-116314904D01*
X128405904Y-116314904D01*
X128501142Y-116267285D01*
X128548761Y-116219666D01*
X128596380Y-116124428D01*
X128596380Y-115886333D01*
X128548761Y-115791095D01*
X128501142Y-115743476D01*
G04 #@! TO.C,U2*
X77723904Y-139914380D02*
X77723904Y-140723904D01*
X77676285Y-140819142D01*
X77628666Y-140866761D01*
X77533428Y-140914380D01*
X77342952Y-140914380D01*
X77247714Y-140866761D01*
X77200095Y-140819142D01*
X77152476Y-140723904D01*
X77152476Y-139914380D01*
X76723904Y-140009619D02*
X76676285Y-139962000D01*
X76581047Y-139914380D01*
X76342952Y-139914380D01*
X76247714Y-139962000D01*
X76200095Y-140009619D01*
X76152476Y-140104857D01*
X76152476Y-140200095D01*
X76200095Y-140342952D01*
X76771523Y-140914380D01*
X76152476Y-140914380D01*
G04 #@! TO.C,U3*
X64769904Y-160432380D02*
X64769904Y-161241904D01*
X64722285Y-161337142D01*
X64674666Y-161384761D01*
X64579428Y-161432380D01*
X64388952Y-161432380D01*
X64293714Y-161384761D01*
X64246095Y-161337142D01*
X64198476Y-161241904D01*
X64198476Y-160432380D01*
X63817523Y-160432380D02*
X63198476Y-160432380D01*
X63531809Y-160813333D01*
X63388952Y-160813333D01*
X63293714Y-160860952D01*
X63246095Y-160908571D01*
X63198476Y-161003809D01*
X63198476Y-161241904D01*
X63246095Y-161337142D01*
X63293714Y-161384761D01*
X63388952Y-161432380D01*
X63674666Y-161432380D01*
X63769904Y-161384761D01*
X63817523Y-161337142D01*
G04 #@! TO.C,U4*
X65150904Y-144542380D02*
X65150904Y-145351904D01*
X65103285Y-145447142D01*
X65055666Y-145494761D01*
X64960428Y-145542380D01*
X64769952Y-145542380D01*
X64674714Y-145494761D01*
X64627095Y-145447142D01*
X64579476Y-145351904D01*
X64579476Y-144542380D01*
X63674714Y-144875714D02*
X63674714Y-145542380D01*
X63912809Y-144494761D02*
X64150904Y-145209047D01*
X63531857Y-145209047D01*
G04 #@! TO.C,R36*
X124022380Y-122284142D02*
X123546190Y-121950809D01*
X124022380Y-121712714D02*
X123022380Y-121712714D01*
X123022380Y-122093666D01*
X123070000Y-122188904D01*
X123117619Y-122236523D01*
X123212857Y-122284142D01*
X123355714Y-122284142D01*
X123450952Y-122236523D01*
X123498571Y-122188904D01*
X123546190Y-122093666D01*
X123546190Y-121712714D01*
X123022380Y-122617476D02*
X123022380Y-123236523D01*
X123403333Y-122903190D01*
X123403333Y-123046047D01*
X123450952Y-123141285D01*
X123498571Y-123188904D01*
X123593809Y-123236523D01*
X123831904Y-123236523D01*
X123927142Y-123188904D01*
X123974761Y-123141285D01*
X124022380Y-123046047D01*
X124022380Y-122760333D01*
X123974761Y-122665095D01*
X123927142Y-122617476D01*
X123022380Y-124093666D02*
X123022380Y-123903190D01*
X123070000Y-123807952D01*
X123117619Y-123760333D01*
X123260476Y-123665095D01*
X123450952Y-123617476D01*
X123831904Y-123617476D01*
X123927142Y-123665095D01*
X123974761Y-123712714D01*
X124022380Y-123807952D01*
X124022380Y-123998428D01*
X123974761Y-124093666D01*
X123927142Y-124141285D01*
X123831904Y-124188904D01*
X123593809Y-124188904D01*
X123498571Y-124141285D01*
X123450952Y-124093666D01*
X123403333Y-123998428D01*
X123403333Y-123807952D01*
X123450952Y-123712714D01*
X123498571Y-123665095D01*
X123593809Y-123617476D01*
G04 #@! TD*
M02*
