M48
INCH,TZ
T1C0.0394
T2C0.0709
T3C0.1142
T4C0.1575
%
G90
G05
T1
X56500Y-44500
X56500Y-45500
X57500Y-44500
X57500Y-45500
X58500Y-44500
X58500Y-45500
X59500Y-44500
X59500Y-45500
X60500Y-44500
X60500Y-45500
X61500Y-44500
X61500Y-45500
X62500Y-44500
X62500Y-45500
T2
X58465Y-38190
X58465Y-39765
X58465Y-41340
X60434Y-38190
X60434Y-39765
X60434Y-41340
T3
X59449Y-42915
T4
X57481Y-33860
X57481Y-36222
X59449Y-33860
X59449Y-36222
X61418Y-33860
X61418Y-36222
T0
M30
