G04 #@! TF.GenerationSoftware,KiCad,Pcbnew,(5.0.0)*
G04 #@! TF.CreationDate,2018-10-02T14:41:49-05:00*
G04 #@! TF.ProjectId,PotBreakout,506F74427265616B6F75742E6B696361,1*
G04 #@! TF.SameCoordinates,Original*
G04 #@! TF.FileFunction,Copper,L1,Top,Signal*
G04 #@! TF.FilePolarity,Positive*
%FSLAX46Y46*%
G04 Gerber Fmt 4.6, Leading zero omitted, Abs format (unit mm)*
G04 Created by KiCad (PCBNEW (5.0.0)) date 10/02/18 14:41:49*
%MOMM*%
%LPD*%
G01*
G04 APERTURE LIST*
G04 #@! TA.AperFunction,ComponentPad*
%ADD10C,2.800000*%
G04 #@! TD*
G04 #@! TA.AperFunction,ComponentPad*
%ADD11C,4.700000*%
G04 #@! TD*
G04 #@! TA.AperFunction,ComponentPad*
%ADD12C,3.900000*%
G04 #@! TD*
G04 #@! TA.AperFunction,ComponentPad*
%ADD13R,1.700000X1.700000*%
G04 #@! TD*
G04 #@! TA.AperFunction,ComponentPad*
%ADD14O,1.700000X1.700000*%
G04 #@! TD*
G04 #@! TA.AperFunction,Conductor*
%ADD15C,0.250000*%
G04 #@! TD*
G04 APERTURE END LIST*
D10*
G04 #@! TO.P,U1,7*
G04 #@! TO.N,DPDT1*
X148501100Y-97003600D03*
G04 #@! TO.P,U1,8*
G04 #@! TO.N,DPDT2*
X148501100Y-101003600D03*
G04 #@! TO.P,U1,9*
G04 #@! TO.N,DPDT3*
X148501100Y-105003600D03*
G04 #@! TO.P,U1,10*
G04 #@! TO.N,DPDT4*
X153501100Y-97003600D03*
G04 #@! TO.P,U1,11*
G04 #@! TO.N,DPDT5*
X153501100Y-101003600D03*
G04 #@! TO.P,U1,12*
G04 #@! TO.N,DPDT6*
X153501100Y-105003600D03*
D11*
G04 #@! TO.P,U1,4*
G04 #@! TO.N,GANG21*
X146001100Y-92003600D03*
G04 #@! TO.P,U1,1*
G04 #@! TO.N,GANG11*
X146001100Y-86003600D03*
G04 #@! TO.P,U1,3*
G04 #@! TO.N,GANG13*
X156001100Y-86003600D03*
G04 #@! TO.P,U1,5*
G04 #@! TO.N,WIPE2*
X151001100Y-92003600D03*
G04 #@! TO.P,U1,6*
G04 #@! TO.N,GANG23*
X156001100Y-92003600D03*
G04 #@! TO.P,U1,2*
G04 #@! TO.N,WIPE1*
X151001100Y-86003600D03*
D12*
G04 #@! TO.P,U1,13*
G04 #@! TO.N,GND*
X151001100Y-109003600D03*
G04 #@! TD*
D13*
G04 #@! TO.P,J1,1*
G04 #@! TO.N,GANG11*
X158750000Y-113030000D03*
D14*
G04 #@! TO.P,J1,2*
G04 #@! TO.N,WIPE1*
X158750000Y-115570000D03*
G04 #@! TO.P,J1,3*
G04 #@! TO.N,GANG13*
X156210000Y-113030000D03*
G04 #@! TO.P,J1,4*
G04 #@! TO.N,GANG21*
X156210000Y-115570000D03*
G04 #@! TO.P,J1,5*
G04 #@! TO.N,WIPE2*
X153670000Y-113030000D03*
G04 #@! TO.P,J1,6*
G04 #@! TO.N,GANG23*
X153670000Y-115570000D03*
G04 #@! TO.P,J1,7*
G04 #@! TO.N,DPDT1*
X151130000Y-113030000D03*
G04 #@! TO.P,J1,8*
G04 #@! TO.N,DPDT2*
X151130000Y-115570000D03*
G04 #@! TO.P,J1,9*
G04 #@! TO.N,DPDT3*
X148590000Y-113030000D03*
G04 #@! TO.P,J1,10*
G04 #@! TO.N,DPDT4*
X148590000Y-115570000D03*
G04 #@! TO.P,J1,11*
G04 #@! TO.N,DPDT5*
X146050000Y-113030000D03*
G04 #@! TO.P,J1,12*
G04 #@! TO.N,DPDT6*
X146050000Y-115570000D03*
G04 #@! TO.P,J1,13*
G04 #@! TO.N,GND*
X143510000Y-113030000D03*
G04 #@! TO.P,J1,14*
G04 #@! TO.N,Net-(J1-Pad14)*
X143510000Y-115570000D03*
G04 #@! TD*
D15*
G04 #@! TO.N,GANG13*
X156210000Y-111573919D02*
X156210000Y-112776000D01*
X157353000Y-110430919D02*
X156210000Y-111573919D01*
X156001100Y-86003600D02*
X156001100Y-88564100D01*
X156591000Y-89154000D02*
X157737101Y-89154000D01*
X156001100Y-88564100D02*
X156591000Y-89154000D01*
X158705990Y-90122889D02*
X157737101Y-89154000D01*
X158705990Y-93770010D02*
X158705990Y-90122889D01*
X157353000Y-95123000D02*
X158705990Y-93770010D01*
X157353000Y-95123000D02*
X157353000Y-110430919D01*
G04 #@! TO.N,GANG21*
X155034999Y-112112510D02*
X155034999Y-114140999D01*
X156210000Y-115570000D02*
X155034999Y-114394999D01*
X155034999Y-114394999D02*
X155034999Y-112112510D01*
X155034999Y-112112510D02*
X156464000Y-110683509D01*
X156464000Y-110683509D02*
X156464000Y-96777088D01*
X156464000Y-96777088D02*
X154515502Y-94828590D01*
X148826089Y-94828589D02*
X146001100Y-92003600D01*
X154515502Y-94828590D02*
X148826089Y-94828589D01*
G04 #@! TO.N,DPDT1*
X154329101Y-95278599D02*
X155226101Y-96175599D01*
X150226101Y-95278599D02*
X154329101Y-95278599D01*
X148501100Y-97003600D02*
X150226101Y-95278599D01*
X155226101Y-108933899D02*
X155226101Y-108331000D01*
X151130000Y-113030000D02*
X155226101Y-108933899D01*
X155226101Y-96175599D02*
X155226101Y-108331000D01*
G04 #@! TO.N,DPDT3*
X146521202Y-105003600D02*
X148501100Y-105003600D01*
X142334999Y-109189803D02*
X146521202Y-105003600D01*
X142334999Y-113594001D02*
X142334999Y-109189803D01*
X142945999Y-114205001D02*
X142334999Y-113594001D01*
X147414999Y-114205001D02*
X142945999Y-114205001D01*
X148590000Y-113030000D02*
X147414999Y-114205001D01*
G04 #@! TO.N,DPDT4*
X149765001Y-112401997D02*
X149765001Y-114140999D01*
X151776099Y-98728601D02*
X153501100Y-97003600D01*
X151776099Y-106411597D02*
X151776099Y-98728601D01*
X153276101Y-107911599D02*
X151776099Y-106411597D01*
X148590000Y-115570000D02*
X149765001Y-114394999D01*
X149765001Y-114394999D02*
X149765001Y-112401997D01*
X149765001Y-112401997D02*
X150565999Y-111600999D01*
X150565999Y-111600999D02*
X151770703Y-111600999D01*
X151770703Y-111600999D02*
X153276101Y-110095601D01*
X153276101Y-110095601D02*
X153276101Y-107911599D01*
G04 #@! TO.N,GND*
X147536400Y-109003600D02*
X148209000Y-109003600D01*
X143510000Y-113030000D02*
X147536400Y-109003600D01*
X151001100Y-109003600D02*
X148209000Y-109003600D01*
G04 #@! TD*
M02*
