G04 #@! TF.GenerationSoftware,KiCad,Pcbnew,(5.0.0)*
G04 #@! TF.CreationDate,2018-10-02T14:41:49-05:00*
G04 #@! TF.ProjectId,PotBreakout,506F74427265616B6F75742E6B696361,1*
G04 #@! TF.SameCoordinates,Original*
G04 #@! TF.FileFunction,Copper,L2,Bot,Signal*
G04 #@! TF.FilePolarity,Positive*
%FSLAX46Y46*%
G04 Gerber Fmt 4.6, Leading zero omitted, Abs format (unit mm)*
G04 Created by KiCad (PCBNEW (5.0.0)) date 10/02/18 14:41:49*
%MOMM*%
%LPD*%
G01*
G04 APERTURE LIST*
G04 #@! TA.AperFunction,ComponentPad*
%ADD10C,2.800000*%
G04 #@! TD*
G04 #@! TA.AperFunction,ComponentPad*
%ADD11C,4.700000*%
G04 #@! TD*
G04 #@! TA.AperFunction,ComponentPad*
%ADD12C,3.900000*%
G04 #@! TD*
G04 #@! TA.AperFunction,ComponentPad*
%ADD13R,1.700000X1.700000*%
G04 #@! TD*
G04 #@! TA.AperFunction,ComponentPad*
%ADD14O,1.700000X1.700000*%
G04 #@! TD*
G04 #@! TA.AperFunction,Conductor*
%ADD15C,0.250000*%
G04 #@! TD*
G04 APERTURE END LIST*
D10*
G04 #@! TO.P,U1,7*
G04 #@! TO.N,DPDT1*
X148501100Y-97003600D03*
G04 #@! TO.P,U1,8*
G04 #@! TO.N,DPDT2*
X148501100Y-101003600D03*
G04 #@! TO.P,U1,9*
G04 #@! TO.N,DPDT3*
X148501100Y-105003600D03*
G04 #@! TO.P,U1,10*
G04 #@! TO.N,DPDT4*
X153501100Y-97003600D03*
G04 #@! TO.P,U1,11*
G04 #@! TO.N,DPDT5*
X153501100Y-101003600D03*
G04 #@! TO.P,U1,12*
G04 #@! TO.N,DPDT6*
X153501100Y-105003600D03*
D11*
G04 #@! TO.P,U1,4*
G04 #@! TO.N,GANG21*
X146001100Y-92003600D03*
G04 #@! TO.P,U1,1*
G04 #@! TO.N,GANG11*
X146001100Y-86003600D03*
G04 #@! TO.P,U1,3*
G04 #@! TO.N,GANG13*
X156001100Y-86003600D03*
G04 #@! TO.P,U1,5*
G04 #@! TO.N,WIPE2*
X151001100Y-92003600D03*
G04 #@! TO.P,U1,6*
G04 #@! TO.N,GANG23*
X156001100Y-92003600D03*
G04 #@! TO.P,U1,2*
G04 #@! TO.N,WIPE1*
X151001100Y-86003600D03*
D12*
G04 #@! TO.P,U1,13*
G04 #@! TO.N,GND*
X151001100Y-109003600D03*
G04 #@! TD*
D13*
G04 #@! TO.P,J1,1*
G04 #@! TO.N,GANG11*
X158750000Y-113030000D03*
D14*
G04 #@! TO.P,J1,2*
G04 #@! TO.N,WIPE1*
X158750000Y-115570000D03*
G04 #@! TO.P,J1,3*
G04 #@! TO.N,GANG13*
X156210000Y-113030000D03*
G04 #@! TO.P,J1,4*
G04 #@! TO.N,GANG21*
X156210000Y-115570000D03*
G04 #@! TO.P,J1,5*
G04 #@! TO.N,WIPE2*
X153670000Y-113030000D03*
G04 #@! TO.P,J1,6*
G04 #@! TO.N,GANG23*
X153670000Y-115570000D03*
G04 #@! TO.P,J1,7*
G04 #@! TO.N,DPDT1*
X151130000Y-113030000D03*
G04 #@! TO.P,J1,8*
G04 #@! TO.N,DPDT2*
X151130000Y-115570000D03*
G04 #@! TO.P,J1,9*
G04 #@! TO.N,DPDT3*
X148590000Y-113030000D03*
G04 #@! TO.P,J1,10*
G04 #@! TO.N,DPDT4*
X148590000Y-115570000D03*
G04 #@! TO.P,J1,11*
G04 #@! TO.N,DPDT5*
X146050000Y-113030000D03*
G04 #@! TO.P,J1,12*
G04 #@! TO.N,DPDT6*
X146050000Y-115570000D03*
G04 #@! TO.P,J1,13*
G04 #@! TO.N,GND*
X143510000Y-113030000D03*
G04 #@! TO.P,J1,14*
G04 #@! TO.N,Net-(J1-Pad14)*
X143510000Y-115570000D03*
G04 #@! TD*
D15*
G04 #@! TO.N,GANG11*
X146001100Y-86003600D02*
X146001100Y-88694900D01*
X146001100Y-88694900D02*
X145439300Y-89256700D01*
X145439300Y-89256700D02*
X144018000Y-89256700D01*
X144018000Y-89256700D02*
X143326099Y-89948601D01*
X143326099Y-89948601D02*
X143326099Y-109417099D01*
X143326099Y-109417099D02*
X142334999Y-110408199D01*
X142334999Y-116134001D02*
X142334999Y-110744000D01*
X157385001Y-116134001D02*
X156774001Y-116745001D01*
X157385001Y-113294999D02*
X157385001Y-116134001D01*
X157650000Y-113030000D02*
X157385001Y-113294999D01*
X158750000Y-113030000D02*
X157650000Y-113030000D01*
X156774001Y-116745001D02*
X142945999Y-116745001D01*
X142945999Y-116745001D02*
X142334999Y-116134001D01*
X142334999Y-110408199D02*
X142334999Y-110744000D01*
G04 #@! TO.N,WIPE1*
X159925001Y-111760000D02*
X159925001Y-114140999D01*
X159925001Y-114394999D02*
X159925001Y-111411001D01*
X159925001Y-111411001D02*
X158623000Y-110109000D01*
X151608599Y-89378599D02*
X157261101Y-89378599D01*
X151001100Y-88771100D02*
X151608599Y-89378599D01*
X151001100Y-86003600D02*
X151001100Y-88771100D01*
X158750000Y-115570000D02*
X159925001Y-114394999D01*
X158623000Y-110109000D02*
X158623000Y-104521000D01*
X158676101Y-90793599D02*
X157261101Y-89378599D01*
X158676101Y-104467899D02*
X158676101Y-90793599D01*
X158623000Y-104521000D02*
X158676101Y-104467899D01*
G04 #@! TO.N,WIPE2*
X153670000Y-111573919D02*
X153670000Y-112776000D01*
X155226101Y-110017818D02*
X153670000Y-111573919D01*
X155226101Y-96228601D02*
X155226101Y-110017818D01*
X151001100Y-92003600D02*
X155226101Y-96228601D01*
G04 #@! TO.N,GANG23*
X156845000Y-92847500D02*
X156001100Y-92003600D01*
X156845000Y-109982000D02*
X156845000Y-92847500D01*
X154845001Y-111981999D02*
X156845000Y-109982000D01*
X154845001Y-114394999D02*
X154845001Y-111981999D01*
X153670000Y-115570000D02*
X154845001Y-114394999D01*
G04 #@! TO.N,DPDT2*
X150226101Y-106411597D02*
X148726099Y-107911599D01*
X150226101Y-102728601D02*
X150226101Y-106411597D01*
X148501100Y-101003600D02*
X150226101Y-102728601D01*
X148726099Y-107911599D02*
X148726099Y-110871000D01*
X148726099Y-110871000D02*
X148726099Y-111173097D01*
X149765001Y-112211999D02*
X149567002Y-112014000D01*
X149765001Y-114205001D02*
X149765001Y-112211999D01*
X151130000Y-115570000D02*
X149765001Y-114205001D01*
X148726099Y-111173097D02*
X149567002Y-112014000D01*
G04 #@! TO.N,DPDT5*
X146050000Y-111573919D02*
X146050000Y-112776000D01*
X147397399Y-98728601D02*
X146050000Y-100076000D01*
X151226101Y-98728601D02*
X147397399Y-98728601D01*
X153501100Y-101003600D02*
X151226101Y-98728601D01*
X146050000Y-113030000D02*
X146050000Y-109982000D01*
X146050000Y-100076000D02*
X146050000Y-109982000D01*
X146050000Y-109982000D02*
X146050000Y-111573919D01*
G04 #@! TO.N,DPDT6*
X153501100Y-105003600D02*
X151765000Y-103267500D01*
X147764698Y-99187000D02*
X146685000Y-100266698D01*
X151003000Y-99187000D02*
X147764698Y-99187000D01*
X151765000Y-99949000D02*
X151003000Y-99187000D01*
X151765000Y-103267500D02*
X151765000Y-99949000D01*
X147225001Y-111411001D02*
X146685000Y-110871000D01*
X147225001Y-114394999D02*
X147225001Y-111411001D01*
X146050000Y-115570000D02*
X147225001Y-114394999D01*
X146685000Y-100266698D02*
X146685000Y-110871000D01*
G04 #@! TD*
M02*
