G04 #@! TF.GenerationSoftware,KiCad,Pcbnew,(5.0.0)*
G04 #@! TF.CreationDate,2018-10-02T14:41:49-05:00*
G04 #@! TF.ProjectId,PotBreakout,506F74427265616B6F75742E6B696361,1*
G04 #@! TF.SameCoordinates,Original*
G04 #@! TF.FileFunction,Legend,Top*
G04 #@! TF.FilePolarity,Positive*
%FSLAX46Y46*%
G04 Gerber Fmt 4.6, Leading zero omitted, Abs format (unit mm)*
G04 Created by KiCad (PCBNEW (5.0.0)) date 10/02/18 14:41:49*
%MOMM*%
%LPD*%
G01*
G04 APERTURE LIST*
%ADD10C,0.200000*%
%ADD11C,0.150000*%
%ADD12C,0.300000*%
%ADD13C,0.120000*%
G04 APERTURE END LIST*
D10*
X159250000Y-109037523D02*
X159297619Y-108942285D01*
X159297619Y-108799428D01*
X159250000Y-108656571D01*
X159154761Y-108561333D01*
X159059523Y-108513714D01*
X158869047Y-108466095D01*
X158726190Y-108466095D01*
X158535714Y-108513714D01*
X158440476Y-108561333D01*
X158345238Y-108656571D01*
X158297619Y-108799428D01*
X158297619Y-108894666D01*
X158345238Y-109037523D01*
X158392857Y-109085142D01*
X158726190Y-109085142D01*
X158726190Y-108894666D01*
X158297619Y-110037523D02*
X158297619Y-109466095D01*
X158297619Y-109751809D02*
X159297619Y-109751809D01*
X159154761Y-109656571D01*
X159059523Y-109561333D01*
X159011904Y-109466095D01*
X158297619Y-110989904D02*
X158297619Y-110418476D01*
X158297619Y-110704190D02*
X159297619Y-110704190D01*
X159154761Y-110608952D01*
X159059523Y-110513714D01*
X159011904Y-110418476D01*
D11*
X144010000Y-108966095D02*
X144057619Y-108870857D01*
X144057619Y-108728000D01*
X144010000Y-108585142D01*
X143914761Y-108489904D01*
X143819523Y-108442285D01*
X143629047Y-108394666D01*
X143486190Y-108394666D01*
X143295714Y-108442285D01*
X143200476Y-108489904D01*
X143105238Y-108585142D01*
X143057619Y-108728000D01*
X143057619Y-108823238D01*
X143105238Y-108966095D01*
X143152857Y-109013714D01*
X143486190Y-109013714D01*
X143486190Y-108823238D01*
X143057619Y-109442285D02*
X144057619Y-109442285D01*
X143057619Y-110013714D01*
X144057619Y-110013714D01*
X143057619Y-110489904D02*
X144057619Y-110489904D01*
X144057619Y-110728000D01*
X144010000Y-110870857D01*
X143914761Y-110966095D01*
X143819523Y-111013714D01*
X143629047Y-111061333D01*
X143486190Y-111061333D01*
X143295714Y-111013714D01*
X143200476Y-110966095D01*
X143105238Y-110870857D01*
X143057619Y-110728000D01*
X143057619Y-110489904D01*
D10*
X146871428Y-110847142D02*
X146871428Y-110132857D01*
X146157142Y-110061428D01*
X146228571Y-110132857D01*
X146300000Y-110275714D01*
X146300000Y-110632857D01*
X146228571Y-110775714D01*
X146157142Y-110847142D01*
X146014285Y-110918571D01*
X145657142Y-110918571D01*
X145514285Y-110847142D01*
X145442857Y-110775714D01*
X145371428Y-110632857D01*
X145371428Y-110275714D01*
X145442857Y-110132857D01*
X145514285Y-110061428D01*
D12*
X151415714Y-104207571D02*
X151130000Y-104207571D01*
X150987142Y-104279000D01*
X150915714Y-104350428D01*
X150772857Y-104564714D01*
X150701428Y-104850428D01*
X150701428Y-105421857D01*
X150772857Y-105564714D01*
X150844285Y-105636142D01*
X150987142Y-105707571D01*
X151272857Y-105707571D01*
X151415714Y-105636142D01*
X151487142Y-105564714D01*
X151558571Y-105421857D01*
X151558571Y-105064714D01*
X151487142Y-104921857D01*
X151415714Y-104850428D01*
X151272857Y-104779000D01*
X150987142Y-104779000D01*
X150844285Y-104850428D01*
X150772857Y-104921857D01*
X150701428Y-105064714D01*
X151487142Y-100270571D02*
X150772857Y-100270571D01*
X150701428Y-100984857D01*
X150772857Y-100913428D01*
X150915714Y-100842000D01*
X151272857Y-100842000D01*
X151415714Y-100913428D01*
X151487142Y-100984857D01*
X151558571Y-101127714D01*
X151558571Y-101484857D01*
X151487142Y-101627714D01*
X151415714Y-101699142D01*
X151272857Y-101770571D01*
X150915714Y-101770571D01*
X150772857Y-101699142D01*
X150701428Y-101627714D01*
X151415714Y-96579571D02*
X151415714Y-97579571D01*
X151058571Y-96008142D02*
X150701428Y-97079571D01*
X151630000Y-97079571D01*
X157742000Y-88332571D02*
X158670571Y-88332571D01*
X158170571Y-88904000D01*
X158384857Y-88904000D01*
X158527714Y-88975428D01*
X158599142Y-89046857D01*
X158670571Y-89189714D01*
X158670571Y-89546857D01*
X158599142Y-89689714D01*
X158527714Y-89761142D01*
X158384857Y-89832571D01*
X157956285Y-89832571D01*
X157813428Y-89761142D01*
X157742000Y-89689714D01*
X144446571Y-89578571D02*
X143589428Y-89578571D01*
X144018000Y-89578571D02*
X144018000Y-88078571D01*
X143875142Y-88292857D01*
X143732285Y-88435714D01*
X143589428Y-88507142D01*
X145423000Y-104207571D02*
X146351571Y-104207571D01*
X145851571Y-104779000D01*
X146065857Y-104779000D01*
X146208714Y-104850428D01*
X146280142Y-104921857D01*
X146351571Y-105064714D01*
X146351571Y-105421857D01*
X146280142Y-105564714D01*
X146208714Y-105636142D01*
X146065857Y-105707571D01*
X145637285Y-105707571D01*
X145494428Y-105636142D01*
X145423000Y-105564714D01*
X145494428Y-100286428D02*
X145565857Y-100215000D01*
X145708714Y-100143571D01*
X146065857Y-100143571D01*
X146208714Y-100215000D01*
X146280142Y-100286428D01*
X146351571Y-100429285D01*
X146351571Y-100572142D01*
X146280142Y-100786428D01*
X145423000Y-101643571D01*
X146351571Y-101643571D01*
X146351571Y-97706571D02*
X145494428Y-97706571D01*
X145923000Y-97706571D02*
X145923000Y-96206571D01*
X145780142Y-96420857D01*
X145637285Y-96563714D01*
X145494428Y-96635142D01*
D10*
X154471619Y-109204238D02*
X153471619Y-109442333D01*
X154185904Y-109632809D01*
X153471619Y-109823285D01*
X154471619Y-110061380D01*
X154376380Y-110394714D02*
X154424000Y-110442333D01*
X154471619Y-110537571D01*
X154471619Y-110775666D01*
X154424000Y-110870904D01*
X154376380Y-110918523D01*
X154281142Y-110966142D01*
X154185904Y-110966142D01*
X154043047Y-110918523D01*
X153471619Y-110347095D01*
X153471619Y-110966142D01*
X156710000Y-109037523D02*
X156757619Y-108942285D01*
X156757619Y-108799428D01*
X156710000Y-108656571D01*
X156614761Y-108561333D01*
X156519523Y-108513714D01*
X156329047Y-108466095D01*
X156186190Y-108466095D01*
X155995714Y-108513714D01*
X155900476Y-108561333D01*
X155805238Y-108656571D01*
X155757619Y-108799428D01*
X155757619Y-108894666D01*
X155805238Y-109037523D01*
X155852857Y-109085142D01*
X156186190Y-109085142D01*
X156186190Y-108894666D01*
X155757619Y-110037523D02*
X155757619Y-109466095D01*
X155757619Y-109751809D02*
X156757619Y-109751809D01*
X156614761Y-109656571D01*
X156519523Y-109561333D01*
X156471904Y-109466095D01*
X156757619Y-110370857D02*
X156757619Y-110989904D01*
X156376666Y-110656571D01*
X156376666Y-110799428D01*
X156329047Y-110894666D01*
X156281428Y-110942285D01*
X156186190Y-110989904D01*
X155948095Y-110989904D01*
X155852857Y-110942285D01*
X155805238Y-110894666D01*
X155757619Y-110799428D01*
X155757619Y-110513714D01*
X155805238Y-110418476D01*
X155852857Y-110370857D01*
D13*
G04 #@! TO.C,J1*
X142180000Y-111700000D02*
X142180000Y-116900000D01*
X157480000Y-111700000D02*
X142180000Y-111700000D01*
X160080000Y-116900000D02*
X142180000Y-116900000D01*
X157480000Y-111700000D02*
X157480000Y-114300000D01*
X157480000Y-114300000D02*
X160080000Y-114300000D01*
X160080000Y-114300000D02*
X160080000Y-116900000D01*
X158750000Y-111700000D02*
X160080000Y-111700000D01*
X160080000Y-111700000D02*
X160080000Y-113030000D01*
G04 #@! TD*
M02*
